<svg xmlns="http://www.w3.org/2000/svg" viewBox="0 0 62.1 80.89"><defs><style>.cls-1{fill:#d39d48;}.cls-2{fill:#6c4735;}.cls-3{fill:#bdd344;}.cls-4{fill:#72a03d;}.cls-5{fill:#cd896d;}.cls-6{fill:#b56d54;}.cls-7{fill:#fff;}.cls-8{fill:#fed06e;}.cls-9{fill:#efbc62;}</style></defs><title>Asset 9</title><g id="Layer_2" data-name="Layer 2"><g id="Layer_1-2" data-name="Layer 1"><path class="cls-1" d="M58.32,39.29c0,3-12.21,5.41-27.27,5.41S3.78,42.28,3.78,39.29a1,1,0,0,1,.08-.4c1-2.8,12.8-5,27.19-5s26.17,2.22,27.19,5A1,1,0,0,1,58.32,39.29Z"/><path class="cls-2" d="M31,46.7c-4.89,0-29.27-.36-29.27-7.41A3,3,0,0,1,2,38.13C4.42,32,28.32,31.87,31,31.87s26.63.18,29,6.26a3,3,0,0,1,.23,1.16C60.32,46.34,35.94,46.7,31,46.7ZM6.16,39.29C8.34,40.63,16.8,42.7,31,42.7s22.71-2.06,24.89-3.41C53.77,37.94,45.3,35.87,31,35.87S8.33,37.94,6.16,39.29Z"/><path class="cls-3" d="M27.86,9.19,9,44.38a3.06,3.06,0,0,0,2.69,4.5H49.44a3.06,3.06,0,0,0,2.69-4.5L33.24,9.19A3.06,3.06,0,0,0,27.86,9.19Z"/><path class="cls-4" d="M30.55,18.89a47.73,47.73,0,0,1,1,6.54c.18,2.17.28,4.32.32,6.47s0,4.3,0,6.45-.16,4.29-.25,6.54a20.38,20.38,0,0,1-2.1-6.35A40.41,40.41,0,0,1,28.83,32a48,48,0,0,1,.33-6.57A32.49,32.49,0,0,1,30.55,18.89Z"/><path class="cls-4" d="M49.44,49.89h-3a3.05,3.05,0,0,0,2.69-4.5L30.24,10.19A2.89,2.89,0,0,0,29,9a3.06,3.06,0,0,1,4.19,1.21l18.89,35.2A3.05,3.05,0,0,1,49.44,49.89Z"/><path class="cls-2" d="M49.44,50.89H11.66a4.56,4.56,0,0,1-4-6.71L26.54,9a4.56,4.56,0,0,1,8,0L53.45,44.18a4.56,4.56,0,0,1-4,6.71ZM29.18,10.4,10.29,45.59a1.56,1.56,0,0,0,1.37,2.29H49.44a1.56,1.56,0,0,0,1.37-2.29L31.92,10.4a1.56,1.56,0,0,0-2.74,0Z"/><path class="cls-3" d="M27.47,44.06,42.38,14.38a2.27,2.27,0,0,1,4.18.3c2.08,6.19,5,16.9,3.47,24.56A2.29,2.29,0,0,1,48.55,41c-3.23,1.11-12.41,4.25-18.33,6.25A2.27,2.27,0,0,1,27.47,44.06Z"/><path class="cls-4" d="M49.54,40.75A2.3,2.3,0,0,1,48,42.48L36.13,46.56l-2.57.87-3.84,1.3a2.26,2.26,0,0,1-3-2.4,1.65,1.65,0,0,0,.48-.1c5.91-2,15.09-5.14,18.33-6.25A2.3,2.3,0,0,0,47,38.25C48.5,31,45.93,20.93,43.88,14.64a2.26,2.26,0,0,1,2.19,1.55,92.11,92.11,0,0,1,2.53,9c.32,1.41.6,2.86.82,4.32A33.17,33.17,0,0,1,49.54,40.75Z"/><path class="cls-2" d="M29.48,48.85a3.77,3.77,0,0,1-3.36-5.47L41,13.71a3.71,3.71,0,0,1,3.63-2.07A3.77,3.77,0,0,1,48,14.21c2.46,7.31,5.07,17.64,3.52,25.33A3.81,3.81,0,0,1,49,42.39C45.8,43.5,36.62,46.64,30.7,48.65A3.78,3.78,0,0,1,29.48,48.85ZM44.41,14.63a.74.74,0,0,0-.68.42L28.81,44.73a.75.75,0,0,0,.11.86.73.73,0,0,0,.82.22c5.92-2,15.09-5.14,18.32-6.25a.79.79,0,0,0,.51-.61c1.49-7.42-1.51-18.09-3.43-23.79a.75.75,0,0,0-.68-.53Z"/><path class="cls-4" d="M34,44.39A22.67,22.67,0,0,1,35.15,40c.48-1.38,1-2.71,1.63-4s1.27-2.56,2-3.81,1.45-2.47,2.31-3.8a10.85,10.85,0,0,1-.1,4.62,19.55,19.55,0,0,1-1.45,4.26,22.35,22.35,0,0,1-2.28,3.84A15.49,15.49,0,0,1,34,44.39Z"/><path class="cls-3" d="M34.55,44.64,52.69,25a1.83,1.83,0,0,1,3.17,1.16c.24,5.26.12,14.19-2.77,19.79a1.84,1.84,0,0,1-1.54,1c-2.75.14-10.55.53-15.58.76A1.83,1.83,0,0,1,34.55,44.64Z"/><path class="cls-4" d="M52.59,47.43a1.82,1.82,0,0,1-1.54,1l-15.58.77a1.82,1.82,0,0,1-1.91-1.78l2.57-.87,12.42-.62a1.82,1.82,0,0,0,1.54-1c2.75-5.3,3-13.6,2.8-18.93a1.84,1.84,0,0,1,2.47,1.65C55.6,32.91,55.49,41.84,52.59,47.43Z"/><path class="cls-2" d="M35.88,49.2a3.33,3.33,0,0,1-2.44-5.59L51.59,24a3.33,3.33,0,0,1,5.77,2.11c.28,6.24,0,14.87-2.94,20.54a3.36,3.36,0,0,1-2.8,1.82H51.4c-2.93.15-10.46.52-15.36.75Zm-.23-3.55a.31.31,0,0,0-.06.37.3.3,0,0,0,.31.19c4.89-.23,12.42-.61,15.35-.75h.23a.34.34,0,0,0,.28-.2c2.77-5.35,2.82-14.22,2.61-19a.31.31,0,0,0-.22-.3.3.3,0,0,0-.35.09Z"/><path class="cls-3" d="M33.95,46.07,19.16,17.43a2.2,2.2,0,0,0-4.06.34c-2,6-4.69,16.45-3.12,23.87a2.22,2.22,0,0,0,1.47,1.66c3.15,1,12.09,4,17.86,5.88A2.2,2.2,0,0,0,33.95,46.07Z"/><path class="cls-4" d="M35.19,47.28a2.2,2.2,0,0,1-2.88,1.9c-5.76-1.88-14.7-4.83-17.85-5.88A2.2,2.2,0,0,1,13,41.64c-1.57-7.42,1.16-17.84,3.12-23.88a2.15,2.15,0,0,1,1.84-1.5c-1.94,6.1-4.49,16.16-3,23.38a2.2,2.2,0,0,0,1.47,1.66c3.15,1.05,12.09,4,17.85,5.88A2.08,2.08,0,0,0,35.19,47.28Z"/><path class="cls-2" d="M32,50.79a3.72,3.72,0,0,1-1.15-.18C25.08,48.72,16.14,45.77,13,44.72a3.74,3.74,0,0,1-2.47-2.78c-1.58-7.47.85-17.53,3.16-24.65a3.7,3.7,0,0,1,3.23-2.55,3.65,3.65,0,0,1,3.59,2L35.28,45.38h0A3.7,3.7,0,0,1,32,50.79ZM17.22,17.73h-.07a.68.68,0,0,0-.62.49c-1.8,5.55-4.6,15.92-3.08,23.1a.72.72,0,0,0,.47.55c3.15,1,12.09,4,17.85,5.88a.67.67,0,0,0,.75-.21.68.68,0,0,0,.09-.78h0L17.83,18.11A.66.66,0,0,0,17.22,17.73Z"/><path class="cls-4" d="M21.29,33.2a23.36,23.36,0,0,1,2.6,2.65c.76.9,1.46,1.8,2.14,2.71s1.32,1.84,1.95,2.82a29.84,29.84,0,0,1,1.85,3.19A8.38,8.38,0,0,1,26.27,43a12,12,0,0,1-2.67-2.69A13,13,0,0,1,21.84,37,9.13,9.13,0,0,1,21.29,33.2Z"/><path class="cls-3" d="M26.45,44.64,8.31,25a1.83,1.83,0,0,0-3.17,1.16C4.9,31.4,5,40.34,7.91,45.93a1.84,1.84,0,0,0,1.54,1c2.75.14,10.55.53,15.58.76A1.83,1.83,0,0,0,26.45,44.64Z"/><path class="cls-4" d="M27.92,45.7a1.81,1.81,0,0,1-1.89,2l-15.58-.77a1.82,1.82,0,0,1-1.54-1C6,40.34,5.9,31.41,6.14,26.15a1.83,1.83,0,0,1,2-1.75c-.23,5.28-.07,14,2.78,19.53a1.82,1.82,0,0,0,1.54,1Z"/><path class="cls-2" d="M25.12,49.2H25C20,49,12.43,48.59,9.54,48.44H9.38a3.36,3.36,0,0,1-2.8-1.82c-2.93-5.67-3.22-14.3-2.94-20.54A3.33,3.33,0,0,1,9.41,24L27.56,43.62a3.33,3.33,0,0,1-2.44,5.59ZM7,25.89l-.12,0a.31.31,0,0,0-.22.3c-.22,4.81-.17,13.68,2.6,19a.34.34,0,0,0,.29.2h.16c2.88.14,10.48.53,15.41.76a.3.3,0,0,0,.31-.19.31.31,0,0,0-.06-.37L7.21,26A.3.3,0,0,0,7,25.89Z"/><path class="cls-5" d="M57.55,52.89,53.7,69.59A12,12,0,0,1,42,78.89H20.1A12,12,0,0,1,8.4,69.59L4.55,52.89s-5-10-1-14h.31a1,1,0,0,0-.08.4c0,3,12.21,5.41,27.27,5.41s27.27-2.42,27.27-5.41a1,1,0,0,0-.08-.4h.31C62.55,42.89,57.55,52.89,57.55,52.89Z"/><path class="cls-6" d="M58.3,51.19c-30.23,6.19-47,3.1-54.14.85-1.1-2.5-3.9-9.86-.61-13.15h.31a1,1,0,0,0-.08.4c0,3,12.21,5.41,27.27,5.41s27.27-2.42,27.27-5.41a1,1,0,0,0-.08-.4h.31C61.52,41.86,59.52,48.16,58.3,51.19Z"/><path class="cls-2" d="M42,80.89H20.1A13.94,13.94,0,0,1,6.45,70L2.65,53.56c-.91-1.88-5.17-11.44-.52-16.09l.59-.59H7l-1,2.25C7.73,40.48,16.28,42.7,31,42.7s23.32-2.22,25.11-3.56l-1-2.25h4.25l.59.59c4.65,4.65.39,14.2-.52,16.09L55.65,70A13.94,13.94,0,0,1,42,80.89ZM4,42.58c-.31,2.94,1.22,7.26,2.3,9.42l.11.21,3.91,16.93a10,10,0,0,0,9.74,7.75H42a10,10,0,0,0,9.74-7.75l3.91-16.93.11-.21c1.08-2.16,2.6-6.48,2.3-9.42C51.9,46.46,35,46.7,31,46.7S10.2,46.46,4,42.58Z"/><path class="cls-2" d="M11.42,54.74c7.71,1.57,15.28,1.65,23.13,1.38,1.93-.06,1.93-3.06,0-3-7.55.25-14.9.24-22.33-1.28-1.88-.38-2.69,2.51-.8,2.89Z"/><path class="cls-2" d="M40.64,55.77a52.36,52.36,0,0,0,8.06-1.21c1.88-.44,1.08-3.33-.8-2.89a47.09,47.09,0,0,1-7.26,1.1c-1.91.14-1.93,3.14,0,3Z"/><path class="cls-7" d="M13.41,62.46l1.48,6.84c.41,1.89,3.3,1.09,2.89-.8L16.3,61.66c-.41-1.89-3.3-1.09-2.89.8Z"/><path class="cls-7" d="M18.88,64.72a30.55,30.55,0,0,0,1,6.07A1.5,1.5,0,0,0,22.8,70a26.48,26.48,0,0,1-.92-5.28c-.13-1.92-3.13-1.93-3,0Z"/><path class="cls-8" d="M49.25,17,51,20.29a1.06,1.06,0,0,0,.42.42l3.24,1.77a1.06,1.06,0,0,1,0,1.85L51.44,26.1a1.06,1.06,0,0,0-.42.42l-1.77,3.24a1.06,1.06,0,0,1-1.85,0l-1.77-3.24a1.06,1.06,0,0,0-.42-.42L42,24.33a1.06,1.06,0,0,1,0-1.85l3.24-1.77a1.06,1.06,0,0,0,.42-.42L47.4,17A1.06,1.06,0,0,1,49.25,17Z"/><path class="cls-9" d="M49.28,17.7a1.05,1.05,0,0,0-1.54.35L46,21.29a1.06,1.06,0,0,1-.42.42L42.3,23.48a1,1,0,0,0-.55.92l-.12-.07a1.06,1.06,0,0,1,0-1.85l3.24-1.77a1.06,1.06,0,0,0,.42-.42L47.07,17a1.06,1.06,0,0,1,1.85,0Z"/><path class="cls-9" d="M54.35,24.33,51.11,26.1a1.06,1.06,0,0,0-.42.42l-1.77,3.24a1.06,1.06,0,0,1-1.85,0l-.1-.18a1,1,0,0,0,1.28-.48L50,25.85a1.06,1.06,0,0,1,.42-.42l3.24-1.77a1,1,0,0,0,.48-1.28l.18.1A1.06,1.06,0,0,1,54.35,24.33Z"/><path class="cls-2" d="M48.33,31.81a2.55,2.55,0,0,1-2.24-1.33l-1.71-3.12-3.12-1.71a2.56,2.56,0,0,1,0-4.49l3.13-1.71,1.71-3.12a2.56,2.56,0,0,1,4.49,0l1.71,3.12,3.13,1.71a2.56,2.56,0,0,1,0,4.48l-3.12,1.71-1.71,3.12A2.55,2.55,0,0,1,48.33,31.81ZM43.4,23.4l2.53,1.38a2.56,2.56,0,0,1,1,1l1.38,2.53,1.38-2.53a2.55,2.55,0,0,1,1-1l2.52-1.38L50.72,22a2.55,2.55,0,0,1-1-1l-1.38-2.53L46.95,21a2.56,2.56,0,0,1-1,1Zm8.76-4h0Zm-4.22-1.62h0Z"/><path class="cls-8" d="M17.25,25,19,28.29a1.06,1.06,0,0,0,.42.42l3.24,1.77a1.06,1.06,0,0,1,0,1.85L19.44,34.1a1.06,1.06,0,0,0-.42.42l-1.77,3.24a1.06,1.06,0,0,1-1.85,0l-1.77-3.24a1.06,1.06,0,0,0-.42-.42L10,32.33a1.06,1.06,0,0,1,0-1.85l3.24-1.77a1.06,1.06,0,0,0,.42-.42L15.4,25A1.06,1.06,0,0,1,17.25,25Z"/><path class="cls-9" d="M17.28,25.7a1.05,1.05,0,0,0-1.54.35L14,29.29a1.06,1.06,0,0,1-.42.42L10.3,31.48a1,1,0,0,0-.55.92l-.12-.07a1.06,1.06,0,0,1,0-1.85l3.24-1.77a1.06,1.06,0,0,0,.42-.42L15.07,25a1.06,1.06,0,0,1,1.85,0Z"/><path class="cls-9" d="M22.35,32.33,19.11,34.1a1.06,1.06,0,0,0-.42.42l-1.77,3.24a1.06,1.06,0,0,1-1.85,0l-.1-.18a1,1,0,0,0,1.28-.48L18,33.85a1.06,1.06,0,0,1,.42-.42l3.24-1.77a1,1,0,0,0,.48-1.28l.18.1A1.06,1.06,0,0,1,22.35,32.33Z"/><path class="cls-2" d="M16.33,39.81a2.55,2.55,0,0,1-2.24-1.33l-1.71-3.12L9.25,33.65a2.56,2.56,0,0,1,0-4.49l3.13-1.71,1.71-3.12a2.56,2.56,0,0,1,4.49,0l1.71,3.12,3.13,1.71a2.56,2.56,0,0,1,0,4.48l-3.12,1.71-1.71,3.12A2.55,2.55,0,0,1,16.33,39.81ZM11.4,31.4l2.53,1.38a2.56,2.56,0,0,1,1,1l1.38,2.53,1.38-2.53a2.55,2.55,0,0,1,1-1l2.52-1.38L18.72,30a2.55,2.55,0,0,1-1-1l-1.38-2.53L14.95,29a2.56,2.56,0,0,1-1,1Zm8.76-4h0Zm-4.22-1.62h0Z"/><path class="cls-8" d="M31.25,2,33,5.29a1.06,1.06,0,0,0,.42.42l3.24,1.77a1.06,1.06,0,0,1,0,1.85L33.44,11.1a1.06,1.06,0,0,0-.42.42l-1.77,3.24a1.06,1.06,0,0,1-1.85,0l-1.77-3.24a1.06,1.06,0,0,0-.42-.42L24,9.33a1.06,1.06,0,0,1,0-1.85l3.24-1.77a1.06,1.06,0,0,0,.42-.42L29.4,2A1.06,1.06,0,0,1,31.25,2Z"/><path class="cls-9" d="M31.28,2.7a1.05,1.05,0,0,0-1.54.35L28,6.29a1.06,1.06,0,0,1-.42.42L24.3,8.48a1,1,0,0,0-.55.92l-.12-.07a1.06,1.06,0,0,1,0-1.85l3.24-1.77a1.06,1.06,0,0,0,.42-.42L29.07,2a1.06,1.06,0,0,1,1.85,0Z"/><path class="cls-9" d="M36.35,9.33,33.11,11.1a1.06,1.06,0,0,0-.42.42l-1.77,3.24a1.06,1.06,0,0,1-1.85,0l-.1-.18a1,1,0,0,0,1.28-.48L32,10.85a1.06,1.06,0,0,1,.42-.42l3.24-1.77a1,1,0,0,0,.48-1.28l.18.1A1.06,1.06,0,0,1,36.35,9.33Z"/><path class="cls-2" d="M30.33,16.81a2.55,2.55,0,0,1-2.24-1.33l-1.71-3.12-3.12-1.71a2.56,2.56,0,0,1,0-4.49l3.13-1.71,1.71-3.12a2.56,2.56,0,0,1,4.49,0l1.71,3.12L37.4,6.16a2.56,2.56,0,0,1,0,4.48l-3.12,1.71-1.71,3.12A2.55,2.55,0,0,1,30.33,16.81ZM25.4,8.4l2.53,1.38a2.56,2.56,0,0,1,1,1l1.38,2.53,1.38-2.53a2.55,2.55,0,0,1,1-1L35.25,8.4,32.72,7a2.55,2.55,0,0,1-1-1L30.33,3.48,28.95,6a2.56,2.56,0,0,1-1,1Zm8.76-4h0ZM29.94,2.77h0Z"/></g></g></svg>