<svg xmlns="http://www.w3.org/2000/svg" viewBox="0 0 124 52"><defs><style>.cls-1{fill:#a1e2be;}.cls-2{fill:#7dc0b4;}.cls-3{fill:#6c4735;}.cls-4{fill:#fdffff;}</style></defs><title>Asset 20</title><g id="Layer_2" data-name="Layer 2"><g id="Layer_1-2" data-name="Layer 1"><rect class="cls-1" x="2" y="2" width="120" height="48" rx="12" ry="12"/><path class="cls-2" d="M122,13V37a12,12,0,0,1-12,12H14A12,12,0,0,1,3.75,43.25,12,12,0,0,0,10,45h96a12,12,0,0,0,12-12V9a12,12,0,0,0-1.75-6.25A12,12,0,0,1,122,13Z"/><path class="cls-3" d="M110,52H14A14,14,0,0,1,0,38V14A14,14,0,0,1,14,0h96a14,14,0,0,1,14,14V38A14,14,0,0,1,110,52ZM14,4A10,10,0,0,0,4,14V38A10,10,0,0,0,14,48h96a10,10,0,0,0,10-10V14A10,10,0,0,0,110,4Z"/><path class="cls-4" d="M109.45,43.05l1.16,1.34a1.51,1.51,0,0,0,2.12,0,1.53,1.53,0,0,0,0-2.12l-1.16-1.34a1.51,1.51,0,0,0-2.12,0,1.53,1.53,0,0,0,0,2.12Z"/><path class="cls-4" d="M112,38.45a9.1,9.1,0,0,0,2.76,2.47,1.5,1.5,0,1,0,1.51-2.59c-.19-.11-.38-.22-.56-.34a2,2,0,0,1-.35-.27c-.16-.15-.32-.3-.48-.46l-.22-.24q-.17-.21-.08-.08a1.55,1.55,0,0,0-2.05-.54,1.51,1.51,0,0,0-.54,2.05Z"/><path class="cls-4" d="M11.48,15.34a8.84,8.84,0,0,1,.89-3.45c.59-1.15,1.39-1.23,2.6-1.27,1.93,0,1.93-3,0-3s-3.66.4-4.78,2.06a11.46,11.46,0,0,0-1.71,5.66c-.13,1.93,2.87,1.92,3,0Z"/><path class="cls-4" d="M20,10.17h.67a1.5,1.5,0,0,0,0-3H20a1.5,1.5,0,0,0,0,3Z"/></g></g></svg>