<svg xmlns="http://www.w3.org/2000/svg" viewBox="0 0 356 609"><defs><style>.cls-1{fill:#bdd344;}.cls-2{fill:#72a03d;}.cls-3{fill:#6c4735;}.cls-4{fill:#fff1b8;}.cls-5{fill:#f4e5a6;}.cls-6{fill:#ffc849;}.cls-7{fill:#efb33c;}.cls-8{fill:#fff;}.cls-9{fill:#a65d3b;}.cls-10{opacity:0.58;}.cls-11{fill:#8e4835;}.cls-12{fill:#fff6cf;}.cls-13{fill:#efe1b4;}.cls-14{fill:#fed06e;}.cls-15{fill:#efbc62;}</style></defs><title>Asset 7</title><g id="Layer_2" data-name="Layer 2"><g id="Layer_1-2" data-name="Layer 1"><path class="cls-1" d="M332.17,65.58a3.92,3.92,0,0,1,2.84,3c1.11,3.89,2.32,12.14-4.15,19.18-7.82,8.51-20.37,10.52-33.07,9.3a4.62,4.62,0,0,1-4.13-5.3l.94-6C295.71,78.76,302.1,61.3,332.17,65.58Z"/><path class="cls-2" d="M326,72.37c-2,1.35-4.09,2.52-6.13,3.7l-6.08,3.46c-2,1.15-4,2.34-6,3.54s-3.92,2.51-6,3.8a22.48,22.48,0,0,1,4.6-5.68,34.79,34.79,0,0,1,5.92-4.26,39.79,39.79,0,0,1,6.6-3A28.16,28.16,0,0,1,326,72.37Z"/><path class="cls-2" d="M296,96.5a4.57,4.57,0,0,0,1.82.57c12.69,1.22,25.25-.79,33.07-9.3,6.47-7,5.25-15.28,4.14-19.17a3.93,3.93,0,0,0-2.84-3l-.45-.06C332.21,73.76,330.43,96.23,296,96.5Z"/><path class="cls-3" d="M304.32,98.9q-3.22,0-6.68-.33a6.15,6.15,0,0,1-4.26-2.35,6,6,0,0,1-1.21-4.68l.95-6c.69-4.41,5.83-26.17,39.25-21.42h0c2.23.32,3.57,2.32,4.07,4.09,1.28,4.48,2.39,13.13-4.48,20.61C325.83,95.45,316.36,98.9,304.32,98.9Zm19-32.49C301,66.41,296.85,81,296.08,86l-.95,6a3.12,3.12,0,0,0,2.79,3.57c9.94,1,23.54.19,31.82-8.82,5.88-6.4,4.91-13.87,3.81-17.75-.24-.86-.85-1.83-1.61-1.94A61.69,61.69,0,0,0,323.29,66.41Z"/><path class="cls-1" d="M255.09,54.29c-1.63-.06-3,1.31-3.73,2.77-2,4.09-5,13,.8,22,7,11,20.46,15.67,34.75,16.83a5.19,5.19,0,0,0,5.61-5l.15-6.86C292.83,76.09,289.2,55.51,255.09,54.29Z"/><path class="cls-2" d="M260.62,63a33.73,33.73,0,0,1,7.46,3.24,47.17,47.17,0,0,1,6.67,4.65,40.91,40.91,0,0,1,5.72,5.84,26.56,26.56,0,0,1,4.07,7.1c-2-1.88-3.84-3.73-5.8-5.49s-3.91-3.47-5.91-5.14l-6.08-5C264.71,66.53,262.65,64.85,260.62,63Z"/><path class="cls-2" d="M289,95.66a5.13,5.13,0,0,1-2.13.27c-14.28-1.16-27.77-5.87-34.75-16.83-5.77-9.07-2.79-17.95-.8-22,.71-1.47,2.11-2.84,3.74-2.78l.51,0C253.43,63.33,251,88.55,289,95.66Z"/><path class="cls-3" d="M287.33,97.45l-.54,0C269.72,96,257.31,90,250.9,79.91c-6.08-9.56-3.16-18.83-.88-23.5.88-1.81,2.69-3.7,5.14-3.62h0c37.74,1.35,39.12,26.29,39,31.27L294,90.92a6.61,6.61,0,0,1-2.2,4.81A6.73,6.73,0,0,1,287.33,97.45ZM255,55.79c-.92,0-1.83,1-2.29,1.93-2,4.11-4.58,12.25.72,20.57C260.86,90,275.81,93.52,287,94.44a3.69,3.69,0,0,0,4-3.58l.15-6.86c.13-6.31-2.07-27-36.12-28.2h0Z"/><rect class="cls-1" x="286.72" y="37.33" width="9.44" height="61.95" rx="4.5" ry="4.5" transform="translate(-0.15 0.65) rotate(-0.13)"/><path class="cls-3" d="M291.28,100.78a6,6,0,0,1-6-6l-.12-52.93a6,6,0,0,1,6-6h.46a6,6,0,0,1,6,6l.12,52.93a6,6,0,0,1-6,6h-.46Zm.33-61.95h-.45a3,3,0,0,0-3,3l.12,52.93a3,3,0,0,0,3,3h.45a3,3,0,0,0,3-3l-.12-52.93a3,3,0,0,0-3-3Z"/><path class="cls-4" d="M324.57,30a17,17,0,0,0-16.85-17,17,17,0,0,0-32.11,0h-.23A17,17,0,0,0,263.82,42.4a17,17,0,0,0,28,16.72,17,17,0,0,0,27.89-17.31A16.93,16.93,0,0,0,324.57,30Z"/><path class="cls-5" d="M263.64,30a16.91,16.91,0,0,0,5.41,12.41,17.38,17.38,0,0,0-.59,4.4,17,17,0,0,0,14.37,16.79,18.08,18.08,0,0,1-2.63.2,17,17,0,0,1-17-17,17.38,17.38,0,0,1,.59-4.4A17,17,0,0,1,275.38,13h.23A17,17,0,0,1,291.66,1.5a17.92,17.92,0,0,1,2.62.2A17,17,0,0,0,280.85,13c-.07,0-4,2.29-4.09,2.31C268.37,17.42,263.64,20.6,263.64,30Z"/><path class="cls-3" d="M303.52,65.29a18.36,18.36,0,0,1-11.66-4.17,18.44,18.44,0,0,1-29.7-18.25,18.47,18.47,0,0,1,12.41-31.37,18.45,18.45,0,0,1,34.21,0,18.48,18.48,0,0,1,12.65,30.69,18.49,18.49,0,0,1-17.9,23.07Zm-11.66-8.24,1,1a15.47,15.47,0,0,0,25.43-15.77l-.26-.85.62-.64a15.47,15.47,0,0,0-11-26.27h-1.06l-.34-1a15.46,15.46,0,0,0-29.27,0l-.35,1h-1.29A15.5,15.5,0,0,0,259.9,30a15.33,15.33,0,0,0,4.94,11.32l.66.62-.23.87A15.45,15.45,0,0,0,290.83,58Z"/><path class="cls-3" d="M296.7,24.46a1,1,0,0,1-.66-1.75l11.54-10.24A1,1,0,1,1,308.9,14L297.36,24.21A1,1,0,0,1,296.7,24.46Z"/><path class="cls-3" d="M284.11,25.77a1,1,0,0,1-.81-.41L274.9,13.81a1,1,0,1,1,1.62-1.18l8.39,11.55a1,1,0,0,1-.81,1.59Z"/><path class="cls-3" d="M264.17,43.62a1,1,0,0,1-.32-2l15.74-5.25a1,1,0,0,1,.63,1.9l-15.74,5.25A1,1,0,0,1,264.17,43.62Z"/><path class="cls-3" d="M291.45,60.42a1,1,0,0,1-1-1V45.77a1,1,0,1,1,2,0V59.42A1,1,0,0,1,291.45,60.42Z"/><path class="cls-3" d="M319.78,42.57l-.18,0-16.79-3.15a1,1,0,0,1,.37-2L320,40.59a1,1,0,0,1-.18,2Z"/><ellipse class="cls-6" cx="291.86" cy="34" rx="11.43" ry="11.44"/><path class="cls-7" d="M294.48,45.32a9.77,9.77,0,0,1-1.57.12,11.44,11.44,0,0,1,0-22.88,9.74,9.74,0,0,1,1.57.12,11.43,11.43,0,0,0,0,22.65Z"/><path class="cls-3" d="M291.86,46.44A12.44,12.44,0,1,1,304.29,34,12.45,12.45,0,0,1,291.86,46.44Zm0-22.88A10.44,10.44,0,1,0,302.29,34,10.45,10.45,0,0,0,291.86,23.56Z"/><path class="cls-8" d="M296.15,33a3.72,3.72,0,0,1,.29,2.19,1.55,1.55,0,0,0,1,1.85,1.51,1.51,0,0,0,1.85-1,7.25,7.25,0,0,0-.6-4.5,1.51,1.51,0,0,0-2.05-.54,1.54,1.54,0,0,0-.54,2.06Z"/><path class="cls-8" d="M33.76,103.1h1.17a1.5,1.5,0,0,0,0-3H33.76a1.5,1.5,0,0,0,0,3Z"/><rect class="cls-9" x="16.8" y="95.27" width="324.52" height="510.18" rx="16" ry="16"/><g class="cls-10"><path class="cls-11" d="M340.61,108.4V588.57a15,15,0,0,1-15,15H31.09a15,15,0,0,1-15-15V563.25H305.63a15,15,0,0,0,15-15V93.39h5A15,15,0,0,1,340.61,108.4Z"/></g><path class="cls-3" d="M325.31,607.45H32.79a18,18,0,0,1-18-18V111.29a18,18,0,0,1,18-18H325.31a18,18,0,0,1,18,18V589.42A18,18,0,0,1,325.31,607.45ZM32.79,97.27a14,14,0,0,0-14,14V589.42a14,14,0,0,0,14,14H325.31a14,14,0,0,0,14-14V111.29a14,14,0,0,0-14-14Z"/><rect class="cls-12" x="36.37" y="121.53" width="285.36" height="457.66"/><polygon class="cls-13" points="320.8 120.59 320.8 578.25 35.44 578.25 35.44 568.87 314 568.87 314 120.59 320.8 120.59"/><path class="cls-3" d="M323.74,581.19H34.37V119.53H323.74Zm-285.36-4H319.74V123.53H38.37Z"/><rect class="cls-9" x="296.48" y="82.44" width="57.52" height="57.55" rx="12" ry="12"/><g class="cls-10"><path class="cls-11" d="M354,93.69v35a11.29,11.29,0,0,1-7,10.39,11.12,11.12,0,0,0,.86-4.3v-35a11.28,11.28,0,0,0-11.25-11.25h-35a11.1,11.1,0,0,0-4.29.86,11.28,11.28,0,0,1,10.38-7h35A11.28,11.28,0,0,1,354,93.69Z"/></g><path class="cls-3" d="M342,142H308.48a14,14,0,0,1-14-14V94.45a14,14,0,0,1,14-14H342a14,14,0,0,1,14,14V128A14,14,0,0,1,342,142ZM308.48,84.44a10,10,0,0,0-10,10V128a10,10,0,0,0,10,10H342a10,10,0,0,0,10-10V94.45a10,10,0,0,0-10-10Z"/><path class="cls-12" d="M332.84,103.23a3.15,3.15,0,0,1-.08.53,3.91,3.91,0,0,0-.06.78,2.35,2.35,0,0,1,0,.51,2.07,2.07,0,0,1-.15.57.87.87,0,0,0,0,.57.92.92,0,0,0-.19.36,3.78,3.78,0,0,1-.11.4,1.22,1.22,0,0,0-.15.51,1.1,1.1,0,0,1,0,.32l-.3.57a2.05,2.05,0,0,1-.19.3l-.25.23a.7.7,0,0,0-.17.23,2.71,2.71,0,0,0-.4.4,1.59,1.59,0,0,1-.17.21,1.66,1.66,0,0,1-.44.38l-.44.23a.93.93,0,0,0-.32.13.48.48,0,0,1-.13.1,1.8,1.8,0,0,1-.51.27,1.85,1.85,0,0,0-.48.23,2.68,2.68,0,0,0-.61.1,1.29,1.29,0,0,0-.27.13,1.84,1.84,0,0,0-.42,0,3.93,3.93,0,0,1-.51.11l-.55.08a2.74,2.74,0,0,0-.11.5,3.61,3.61,0,0,0,0,.5,2.06,2.06,0,0,0,0,.46l.08.3a18.65,18.65,0,0,1,0,2.4c0,.2-.05.4-.08.59a2.36,2.36,0,0,0,0,.59,1.15,1.15,0,0,0,0,.27,1.15,1.15,0,0,1,0,.27.94.94,0,0,1,0,.25.94.94,0,0,0,0,.25,1.42,1.42,0,0,0,.11.3.75.75,0,0,1,.08.34,1.11,1.11,0,0,1-.57.88,1,1,0,0,1-.34-.06,1,1,0,0,0-.34-.06,1.56,1.56,0,0,0-.74.1,1.19,1.19,0,0,1-.7.06,1.67,1.67,0,0,1-1.07.08.74.74,0,0,0-.23,0,.43.43,0,0,1-.19,0,.36.36,0,0,0-.21-.1.36.36,0,0,1-.21-.1,5.29,5.29,0,0,1-.21-.9,1.43,1.43,0,0,1,.06-.51.32.32,0,0,1,.13-.21.32.32,0,0,0,.13-.21c.08-.08.08-.14,0-.19a.3.3,0,0,1-.11-.27c0-.13,0-.21.1-.25a.51.51,0,0,0,.17-.21.35.35,0,0,1-.15-.29,1.91,1.91,0,0,0,0-.36q0-.31-.06-.57c0-.18,0-.38,0-.61s-.09-.5-.11-.65-.05-.29-.08-.42a4.46,4.46,0,0,1,0-1,2.25,2.25,0,0,0-.11-.93c0-.13,0-.2.08-.21s.1-.08.08-.21l-.15-.36a1.68,1.68,0,0,0-.19-.32c0-.23,0-.4,0-.51a.5.5,0,0,0-.08-.29,2.76,2.76,0,0,1-.11-.48c0-.17-.05-.38-.08-.63a2.31,2.31,0,0,1,0-.5.6.6,0,0,1,.25-.38.63.63,0,0,1,.48,0,1.83,1.83,0,0,0,.51.15.91.91,0,0,0,.32,0,1.18,1.18,0,0,1,.36,0,.58.58,0,0,1,.21.06.58.58,0,0,0,.21.06,1,1,0,0,0,.4-.08.3.3,0,0,1,.32,0l.19-.08.19-.11.27-.06a.94.94,0,0,0,.3-.1.69.69,0,0,1,.34-.11.54.54,0,0,0,.23,0,.68.68,0,0,0,.17-.13.2.2,0,0,1,.25,0,5.36,5.36,0,0,0,.8-.53c.18-.15.36-.29.53-.42a3,3,0,0,0,.46-.4l.38-.4a.2.2,0,0,1,0-.25l.21-.21a1.9,1.9,0,0,0,.27-.48c.08-.19.14-.38.19-.55l.19-.59a2,2,0,0,0,.08-.78,2.13,2.13,0,0,0,0-.36,2,2,0,0,0-.11-.4c-.05-.18-.1-.33-.15-.46a.77.77,0,0,0-.3-.34l-.65-.3a1.49,1.49,0,0,0-.4-.23l-.25-.08a2.72,2.72,0,0,0-.48-.13,2.77,2.77,0,0,1-.55-.17.78.78,0,0,1-.65.1,1.62,1.62,0,0,0-1.5.4,2.35,2.35,0,0,1-.74.53,2.79,2.79,0,0,0-.29.8q-.09.46-.17,1a1.07,1.07,0,0,1,0,.29.94.94,0,0,0,0,.25l.08.23a1.89,1.89,0,0,0,.11.27,1.25,1.25,0,0,1-.5,1,1.54,1.54,0,0,0-.5-.08,1.34,1.34,0,0,1-.53-.11,2.4,2.4,0,0,1-.42.23.91.91,0,0,1-.57,0,1.79,1.79,0,0,0-.51-.15.48.48,0,0,1-.21,0,.82.82,0,0,0-.44-.13.87.87,0,0,1-.4-.1l-.34-.27-.3-.27a1,1,0,0,1-.11-.46,2.2,2.2,0,0,0,0-.42,1.08,1.08,0,0,1-.13-.29.27.27,0,0,0-.06-.13.73.73,0,0,1-.06-.19.59.59,0,0,0-.1-.23.9.9,0,0,0,0-.72.49.49,0,0,0,.08-.53.37.37,0,0,0,.15-.23,1.42,1.42,0,0,1,.11-.3,13.76,13.76,0,0,1,.65-1.56,1.46,1.46,0,0,0,.27-.17,1.16,1.16,0,0,1,.3-.17,2.37,2.37,0,0,1,.36-.69.91.91,0,0,1,.44-.27,5.06,5.06,0,0,1,.53-.53l.38-.3a1.16,1.16,0,0,1,.25-.15l.36-.11.51-.15.21-.08a2.62,2.62,0,0,1,.69-.25l.5-.1.29,0,.32,0a2.69,2.69,0,0,0,.67.06.6.6,0,0,1,.44.13,1.15,1.15,0,0,1,.69,0l.65.17a.73.73,0,0,0,.36.06.23.23,0,0,1,.25.13l.3.06.11,0a1.34,1.34,0,0,0,.46.06.6.6,0,0,1,.27,0,2.14,2.14,0,0,0,.5.17.94.94,0,0,1,.3.1l.36.17.36.17.27.11a.92.92,0,0,1,.23.11l.4.27a3.35,3.35,0,0,1,.4.34,1.07,1.07,0,0,0,.25.21.38.38,0,0,1,.13.1,2,2,0,0,1,.4.36l.21.32.15.15.15.15.32.48a1.72,1.72,0,0,1,.13.21,1.39,1.39,0,0,1,0,.4,1.39,1.39,0,0,0,0,.4l.08.46a4.22,4.22,0,0,0,.11.5.94.94,0,0,1,.13.48.47.47,0,0,0,0,.25Zm-6.25,20.36c0,.3,0,.56,0,.76a3.38,3.38,0,0,1-.1.61.72.72,0,0,0-.13.38,1.45,1.45,0,0,1-.1.42l-.38.27-.19.11c-.1.18-.22.27-.34.27-.2.15-.36.28-.48.38a2.65,2.65,0,0,0-.32.34,4,4,0,0,0-.91.23l-.53-.15-.53-.15c-.2-.05-.32-.1-.34-.15s-.05-.08-.08-.08a2.2,2.2,0,0,1-.46-.38,1.9,1.9,0,0,1-.27-.23l-.23-.23a.71.71,0,0,1-.08-.32,1,1,0,0,0-.08-.36,3.27,3.27,0,0,1-.23-.34.24.24,0,0,0-.11-.11,1.54,1.54,0,0,0-.08-.71,1.47,1.47,0,0,1,0-.82c.08-.23.12-.38.13-.44a1.06,1.06,0,0,1,.1-.25l.27-.29a.33.33,0,0,1,.27-.1,2,2,0,0,0,.13-.23,1.66,1.66,0,0,0,.1-.23,3.58,3.58,0,0,1,.7-.46,5.17,5.17,0,0,1,.7-.27,2.72,2.72,0,0,1,.44.19,1.18,1.18,0,0,1,.36.3l.21,0a.41.41,0,0,1,.21,0,1.26,1.26,0,0,0,.5.13.31.31,0,0,1,.23.06.75.75,0,0,1,.21.23l.17.27.42.42a1.87,1.87,0,0,0,.25.27.27.27,0,0,1,.1.11l.23.23A2.94,2.94,0,0,1,326.59,123.59Z"/><path class="cls-1" d="M293.57,87.78h0a9.76,9.76,0,0,0,7.35,5.34h0a9.77,9.77,0,0,1,5.41,16.66h0a9.77,9.77,0,0,0-2.81,8.64h0a9.76,9.76,0,0,1-14.16,10.29h0a9.75,9.75,0,0,0-9.08,0h0a9.76,9.76,0,0,1-14.16-10.29h0a9.77,9.77,0,0,0-2.81-8.64h0a9.77,9.77,0,0,1,5.41-16.66h0a9.76,9.76,0,0,0,7.35-5.34h0A9.76,9.76,0,0,1,293.57,87.78Z"/><path class="cls-2" d="M306.32,109.78a9.81,9.81,0,0,0-2.95,7,9.59,9.59,0,0,0,.14,1.66,10.51,10.51,0,0,1,.14,1.72,9.77,9.77,0,0,1-14.31,8.58,9.74,9.74,0,0,0-9.09,0,9.64,9.64,0,0,1-4.53,1.14,9.91,9.91,0,0,1-9.17-6.35,9.88,9.88,0,0,0,6.75,2.72,9.64,9.64,0,0,0,4.53-1.14,9.74,9.74,0,0,1,9.09,0,9.77,9.77,0,0,0,14.31-8.58,10.51,10.51,0,0,0-.14-1.72,9.59,9.59,0,0,1-.14-1.66,9.81,9.81,0,0,1,2.95-7,9.6,9.6,0,0,0,3-6.94,9.85,9.85,0,0,0-.66-3.54,9.89,9.89,0,0,1,3.08,7.17A9.6,9.6,0,0,1,306.32,109.78Z"/><path class="cls-3" d="M293.91,131.36a11.26,11.26,0,0,1-5.25-1.31,8.26,8.26,0,0,0-7.69,0,11.26,11.26,0,0,1-16.34-11.88,8.26,8.26,0,0,0-2.37-7.31,11.27,11.27,0,0,1,6.24-19.22,8.26,8.26,0,0,0,6.22-4.52,11.26,11.26,0,0,1,20.19,0h0a8.26,8.26,0,0,0,6.22,4.52,11.27,11.27,0,0,1,6.24,19.22,8.26,8.26,0,0,0-2.37,7.31,11.29,11.29,0,0,1-11.09,13.19Zm-9.09-5.26a11.24,11.24,0,0,1,5.24,1.29,8.26,8.26,0,0,0,12-8.71,11.27,11.27,0,0,1,3.24-10,8.26,8.26,0,0,0-4.58-14.09,11.25,11.25,0,0,1-8.48-6.16h0a8.26,8.26,0,0,0-14.81,0,11.25,11.25,0,0,1-8.48,6.16,8.26,8.26,0,0,0-4.58,14.09,11.27,11.27,0,0,1,3.24,10,8.26,8.26,0,0,0,12,8.71A11.25,11.25,0,0,1,284.81,126.1Z"/><path class="cls-2" d="M268.73,101.82a7,7,0,0,1,3.36-.09,9.59,9.59,0,0,1,3.05,1.2,8.72,8.72,0,0,1,2.47,2.25,5.81,5.81,0,0,1,1.17,3.21c-1.09-.52-1.92-1-2.77-1.48s-1.63-.93-2.43-1.42-1.6-1-2.4-1.59A18.35,18.35,0,0,1,268.73,101.82Z"/><path class="cls-2" d="M284.23,102.77a5.66,5.66,0,0,1-3.21-2.38,6.93,6.93,0,0,1-1.17-4,7.63,7.63,0,0,1,1.28-3.93,9.19,9.19,0,0,1,1.31-1.5,9,9,0,0,1,1.68-1.06,13.48,13.48,0,0,1-.44,1.86c-.1.6-.3,1.13-.4,1.68a17.55,17.55,0,0,0-.43,3A15.86,15.86,0,0,0,284.23,102.77Z"/><path class="cls-2" d="M287.83,105.37a4.51,4.51,0,0,1,.19-3.21,5.85,5.85,0,0,1,2.09-2.55,6,6,0,0,1,3.09-1.06,5.64,5.64,0,0,1,1.6.14,5.54,5.54,0,0,1,1.49.65,11.94,11.94,0,0,1-1.31.82c-.4.28-.81.43-1.16.68-.75.4-1.36.85-2,1.25a21.49,21.49,0,0,0-1.86,1.42C289.32,104,288.66,104.62,287.83,105.37Z"/><path class="cls-2" d="M286.63,110.2a4.62,4.62,0,0,1,2.53.18,5.89,5.89,0,0,1,2,1.22,5.59,5.59,0,0,1,1.4,2,3.68,3.68,0,0,1,.07,2.62c-.84-.48-1.42-.84-2-1.23a11.76,11.76,0,0,1-1.53-1.21,11.14,11.14,0,0,1-1.36-1.5A9,9,0,0,1,286.63,110.2Z"/><path class="cls-2" d="M275.35,118.4a4.35,4.35,0,0,1,.2-2.44,5.46,5.46,0,0,1,1.22-1.92,5.19,5.19,0,0,1,2-1.26,3.46,3.46,0,0,1,2.52.07c-.47.81-.82,1.37-1.19,1.88a9.9,9.9,0,0,1-1.17,1.41,9.62,9.62,0,0,1-1.47,1.22A8.36,8.36,0,0,1,275.35,118.4Z"/><path class="cls-8" d="M295,107.66l1.21.3a1.5,1.5,0,0,0,.8-2.9l-1.21-.3a1.5,1.5,0,0,0-.8,2.9Z"/><path class="cls-8" d="M299.61,103.85a1.5,1.5,0,0,0,0-3,1.5,1.5,0,0,0,0,3Z"/><path class="cls-8" d="M283.46,106.18c-.11-.06-.17,0,0,0l-.1-.1q.11.15,0,0c-.15-.16.07.16,0,0s0,.27,0-.09a1.5,1.5,0,1,0-3,0,3.29,3.29,0,0,0,1.66,2.8,1.5,1.5,0,0,0,1.51-2.59Z"/><path class="cls-1" d="M246.77,85.69h0a6.38,6.38,0,0,0,4.81,3.49h0a6.39,6.39,0,0,1,3.54,10.89h0a6.39,6.39,0,0,0-1.84,5.65h0a6.38,6.38,0,0,1-9.26,6.73h0a6.38,6.38,0,0,0-5.94,0h0a6.38,6.38,0,0,1-9.26-6.73h0a6.39,6.39,0,0,0-1.84-5.65h0a6.39,6.39,0,0,1,3.54-10.89h0a6.38,6.38,0,0,0,4.81-3.49h0A6.38,6.38,0,0,1,246.77,85.69Z"/><path class="cls-2" d="M255.11,100.08a6.41,6.41,0,0,0-1.93,4.57,6.27,6.27,0,0,0,.09,1.08,6.87,6.87,0,0,1,.09,1.12,6.39,6.39,0,0,1-9.36,5.61,6.37,6.37,0,0,0-5.94,0,6.31,6.31,0,0,1-3,.74,6.48,6.48,0,0,1-6-4.15,6.46,6.46,0,0,0,4.42,1.78,6.31,6.31,0,0,0,3-.74,6.37,6.37,0,0,1,5.94,0,6.39,6.39,0,0,0,9.36-5.61,6.87,6.87,0,0,0-.09-1.12,6.27,6.27,0,0,1-.09-1.08,6.41,6.41,0,0,1,1.93-4.57,6.28,6.28,0,0,0,1.94-4.54,6.44,6.44,0,0,0-.43-2.32,6.47,6.47,0,0,1,2,4.69A6.28,6.28,0,0,1,255.11,100.08Z"/><path class="cls-3" d="M235.1,114.71a7.9,7.9,0,0,1-7.76-9.23,4.88,4.88,0,0,0-1.4-4.32A7.89,7.89,0,0,1,230.3,87.7,4.88,4.88,0,0,0,234,85a7.88,7.88,0,0,1,14.13,0,4.88,4.88,0,0,0,3.68,2.67,7.89,7.89,0,0,1,4.37,13.46,4.88,4.88,0,0,0-1.4,4.32,7.88,7.88,0,0,1-11.44,8.32,4.88,4.88,0,0,0-4.54,0A7.88,7.88,0,0,1,235.1,114.71ZM241,83.64a4.79,4.79,0,0,0-4.38,2.72,7.88,7.88,0,0,1-5.93,4.31A4.88,4.88,0,0,0,228,99a7.89,7.89,0,0,1,2.27,7,4.88,4.88,0,0,0,7.08,5.15,7.88,7.88,0,0,1,7.33,0A4.88,4.88,0,0,0,251.8,106a7.89,7.89,0,0,1,2.27-7,4.88,4.88,0,0,0-2.71-8.33,7.88,7.88,0,0,1-5.93-4.31h0A4.79,4.79,0,0,0,241,83.64Z"/><path class="cls-2" d="M230.53,94.87a4.05,4.05,0,0,1,2.35-.43,5.12,5.12,0,0,1,2.11.71,4.87,4.87,0,0,1,1.62,1.61,3.47,3.47,0,0,1,.49,2.4A16.27,16.27,0,0,1,235,98.5a9.56,9.56,0,0,1-1.59-.79A9.1,9.1,0,0,1,232,96.61,8.63,8.63,0,0,1,230.53,94.87Z"/><path class="cls-2" d="M240.66,95.49a3.44,3.44,0,0,1-2.47-1.39,4.44,4.44,0,0,1-.92-2.83,4.73,4.73,0,0,1,1-2.73,5.08,5.08,0,0,1,1-.95A4.77,4.77,0,0,1,240.6,87a8.31,8.31,0,0,1-.08,1.36c0,.42-.09.78-.11,1.13-.08.69-.1,1.28-.14,1.83A18.7,18.7,0,0,0,240.66,95.49Z"/><path class="cls-2" d="M243,97.19a2.81,2.81,0,0,1-.21-2.33,3.72,3.72,0,0,1,3.62-2.53,3.1,3.1,0,0,1,2.12.91A17.08,17.08,0,0,1,247,94.61c-.43.32-.75.62-1.12.85s-.72.46-1.17.73Z"/><path class="cls-2" d="M242.23,100.35a3,3,0,0,1,1.89-.22,3.1,3.1,0,0,1,2.35,2.22,2.41,2.41,0,0,1-.29,2c-.75-.24-1.21-.38-1.62-.56a3.33,3.33,0,0,1-1-.65,3.74,3.74,0,0,1-.77-1A5.65,5.65,0,0,1,242.23,100.35Z"/><path class="cls-2" d="M234.86,105.71a2.86,2.86,0,0,1-.19-1.84,2.88,2.88,0,0,1,2.19-2.17,2.29,2.29,0,0,1,1.87.38c-.24.74-.37,1.18-.55,1.57a2.9,2.9,0,0,1-.63,1,3.3,3.3,0,0,1-1,.68A5.45,5.45,0,0,1,234.86,105.71Z"/><path class="cls-1" d="M259,109.14h0a6.38,6.38,0,0,0,4.81,3.49h0a6.39,6.39,0,0,1,3.54,10.89h0a6.39,6.39,0,0,0-1.84,5.65h0a6.38,6.38,0,0,1-9.26,6.73h0a6.38,6.38,0,0,0-5.94,0h0a6.38,6.38,0,0,1-9.26-6.73h0a6.39,6.39,0,0,0-1.84-5.65h0a6.39,6.39,0,0,1,3.54-10.89h0a6.38,6.38,0,0,0,4.81-3.49h0A6.38,6.38,0,0,1,259,109.14Z"/><path class="cls-2" d="M267.29,123.52a6.41,6.41,0,0,0-1.93,4.57,6.27,6.27,0,0,0,.09,1.08,6.87,6.87,0,0,1,.09,1.12,6.39,6.39,0,0,1-9.36,5.61,6.37,6.37,0,0,0-5.94,0,6.31,6.31,0,0,1-3,.74,6.48,6.48,0,0,1-6-4.15,6.46,6.46,0,0,0,4.42,1.78,6.31,6.31,0,0,0,3-.74,6.37,6.37,0,0,1,5.94,0,6.39,6.39,0,0,0,9.36-5.61,6.87,6.87,0,0,0-.09-1.12,6.27,6.27,0,0,1-.09-1.08,6.41,6.41,0,0,1,1.93-4.57,6.28,6.28,0,0,0,1.94-4.54,6.44,6.44,0,0,0-.43-2.32,6.47,6.47,0,0,1,2,4.69A6.28,6.28,0,0,1,267.29,123.52Z"/><path class="cls-3" d="M247.28,138.15a7.9,7.9,0,0,1-7.76-9.23,4.89,4.89,0,0,0-1.4-4.32,7.89,7.89,0,0,1,4.37-13.45,4.88,4.88,0,0,0,3.68-2.67,7.88,7.88,0,0,1,14.14,0h0a4.88,4.88,0,0,0,3.68,2.67,7.89,7.89,0,0,1,4.37,13.45,4.89,4.89,0,0,0-1.4,4.32,7.88,7.88,0,0,1-11.44,8.32,4.88,4.88,0,0,0-4.54,0A7.88,7.88,0,0,1,247.28,138.15Zm5.95-4.48a7.87,7.87,0,0,1,3.67.91,4.88,4.88,0,0,0,7.08-5.15,7.89,7.89,0,0,1,2.27-7,4.88,4.88,0,0,0-2.71-8.33,7.88,7.88,0,0,1-5.93-4.32h0a4.88,4.88,0,0,0-8.76,0,7.88,7.88,0,0,1-5.93,4.32,4.88,4.88,0,0,0-2.71,8.33,7.89,7.89,0,0,1,2.27,7,4.88,4.88,0,0,0,7.08,5.15A7.88,7.88,0,0,1,253.23,133.67Z"/><path class="cls-2" d="M242.71,118.32a4.05,4.05,0,0,1,2.35-.43,5.12,5.12,0,0,1,2.11.71,4.87,4.87,0,0,1,1.62,1.61,3.47,3.47,0,0,1,.49,2.4,16.27,16.27,0,0,1-2.09-.66,9.56,9.56,0,0,1-1.59-.79,9.1,9.1,0,0,1-1.46-1.11A8.63,8.63,0,0,1,242.71,118.32Z"/><path class="cls-2" d="M252.85,118.94a3.44,3.44,0,0,1-2.47-1.39,4.44,4.44,0,0,1-.92-2.83,4.74,4.74,0,0,1,1-2.73,5.08,5.08,0,0,1,1-.95,4.77,4.77,0,0,1,1.31-.56,8.31,8.31,0,0,1-.08,1.36c0,.42-.09.78-.11,1.13-.08.69-.1,1.28-.14,1.83A18.7,18.7,0,0,0,252.85,118.94Z"/><path class="cls-2" d="M255.2,120.64a2.81,2.81,0,0,1-.21-2.33,3.72,3.72,0,0,1,3.62-2.53,3.1,3.1,0,0,1,2.12.91,17.08,17.08,0,0,1-1.51,1.37c-.43.32-.75.62-1.12.85s-.72.46-1.17.73Z"/><path class="cls-2" d="M254.41,123.8a3,3,0,0,1,1.89-.22,3.1,3.1,0,0,1,2.35,2.22,2.41,2.41,0,0,1-.29,2c-.75-.24-1.21-.38-1.62-.56a3.33,3.33,0,0,1-1-.65,3.74,3.74,0,0,1-.77-1A5.66,5.66,0,0,1,254.41,123.8Z"/><path class="cls-2" d="M247,129.16a2.86,2.86,0,0,1-.19-1.84,2.88,2.88,0,0,1,2.19-2.17,2.29,2.29,0,0,1,1.87.38c-.24.74-.38,1.18-.55,1.57a2.9,2.9,0,0,1-.63,1,3.3,3.3,0,0,1-1,.68A5.45,5.45,0,0,1,247,129.16Z"/><path class="cls-1" d="M3.51,530.13c-1.47.7-2.07,2.56-2,4.19.13,4.55,1.6,13.8,10.91,19.16,11.25,6.48,25.39,4.4,38.59-1.19a5.19,5.19,0,0,0,2.64-7.08l-3-6.15C47.05,532,34.31,515.39,3.51,530.13Z"/><path class="cls-2" d="M12.46,535.31a33.73,33.73,0,0,1,8.12-.59,47.14,47.14,0,0,1,8.07,1,40.86,40.86,0,0,1,7.77,2.52,26.53,26.53,0,0,1,6.89,4.4c-2.65-.74-5.13-1.53-7.68-2.18s-5.07-1.26-7.62-1.82l-7.71-1.62C17.71,536.51,15.11,536,12.46,535.31Z"/><path class="cls-2" d="M52.76,551.06A5.13,5.13,0,0,1,51,552.28c-13.19,5.59-27.33,7.68-38.59,1.19C3.1,548.11,1.63,538.86,1.5,534.32c0-1.63.55-3.49,2-4.2l.46-.22C6.23,538.91,15.72,562.41,52.76,551.06Z"/><path class="cls-3" d="M28.4,559a33,33,0,0,1-16.73-4.2C1.85,549.13.15,539.56,0,534.36c-.06-2,.67-4.53,2.88-5.59,34.07-16.3,46.84,5.15,49.05,9.62l3,6.15a6.61,6.61,0,0,1,.28,5.28,6.73,6.73,0,0,1-3.67,3.85C43.23,557.2,35.43,559,28.4,559ZM26,525.7c-5.89,0-13.09,1.59-21.86,5.79h0c-.85.4-1.2,1.73-1.17,2.79.13,4.57,1.62,13,10.16,17.9,12,6.91,26.88,3.12,37.26-1.27a3.67,3.67,0,0,0,2-2.12,3.63,3.63,0,0,0-.15-2.9l-3-6.15C47.24,535.69,40.78,525.7,26,525.7Z"/><path class="cls-8" d="M30.89,531.24l-1.18-1.81a1.5,1.5,0,1,0-2.59,1.52l1.18,1.81a1.5,1.5,0,1,0,2.59-1.52Z"/><path class="cls-8" d="M33.57,534.15a1.5,1.5,0,0,0,0-3,1.5,1.5,0,0,0,0,3Z"/><path class="cls-8" d="M35.73,546.26l.83-.22a1.5,1.5,0,0,0-.8-2.9l-.83.22a1.5,1.5,0,0,0,.8,2.9Z"/><path class="cls-8" d="M28.79,542l-.23.15a1.54,1.54,0,0,0-.54,2.06,1.51,1.51,0,0,0,2.05.54l.23-.15a1.54,1.54,0,0,0,.54-2.06,1.51,1.51,0,0,0-2.05-.54Z"/><path class="cls-1" d="M92.35,513.31a3.92,3.92,0,0,1,3.27,2.54c1.7,3.67,4.17,11.63-1.13,19.59C88.09,545.05,76,549,63.26,549.75a4.62,4.62,0,0,1-4.9-4.6v-6.1C58.37,532,62,513.75,92.35,513.31Z"/><path class="cls-2" d="M87.27,521c-1.81,1.65-3.66,3.12-5.48,4.6l-5.47,4.36c-1.81,1.45-3.58,2.93-5.37,4.43s-3.48,3.08-5.35,4.68a22.49,22.49,0,0,1,3.66-6.33,34.8,34.8,0,0,1,5.19-5.12,39.81,39.81,0,0,1,6.06-4A28.16,28.16,0,0,1,87.27,521Z"/><path class="cls-2" d="M61.37,549.47a4.56,4.56,0,0,0,1.89.28C76,549,88.07,545.06,94.49,535.44c5.3-8,2.82-15.91,1.13-19.58a3.92,3.92,0,0,0-3.27-2.54h-.45C93.66,521.38,95.38,543.87,61.37,549.47Z"/><path class="cls-3" d="M63,551.26a6.15,6.15,0,0,1-4.21-1.67,6,6,0,0,1-1.92-4.44v-6.1c0-4.46,1.71-26.76,35.46-27.25h0A5.4,5.4,0,0,1,97,515.22c2,4.23,4.39,12.6-1.24,21.05-5.92,8.88-17.12,14.06-32.39,15Zm29.38-36.45c-30.16.44-32.51,18.66-32.51,24.24v6.1a3.06,3.06,0,0,0,1,2.25,3.1,3.1,0,0,0,2.33.85c10-.6,23.28-3.46,30.07-13.65,4.82-7.24,2.7-14.46,1-18.12-.37-.81-1.12-1.67-1.87-1.67Z"/><path class="cls-8" d="M78.86,521.14c.1.2-.05-.17-.06-.21,0,.21,0,0,0-.13s-.08.3,0-.13-.06.07.09-.2A1.5,1.5,0,1,0,76.32,519a3.84,3.84,0,0,0-.05,3.69,1.51,1.51,0,0,0,2.05.54,1.53,1.53,0,0,0,.54-2.06Z"/><path class="cls-8" d="M73.82,526.09a1.5,1.5,0,0,0,0-3,1.5,1.5,0,0,0,0,3Z"/><path class="cls-8" d="M69.91,542.6l6.19-2.25c1.8-.66,1-3.56-.8-2.9l-6.19,2.25c-1.8.66-1,3.56.8,2.9Z"/><path class="cls-1" d="M97.15,555a3.92,3.92,0,0,1,2.36,3.4c.52,4,.5,12.35-6.94,18.35-9,7.26-21.7,7.39-34.08,4.3a4.62,4.62,0,0,1-3.3-5.85L57,569.39C59.13,562.65,68,546.33,97.15,555Z"/><path class="cls-2" d="M90,560.81c-2.22,1-4.42,1.89-6.61,2.75l-6.52,2.52c-2.17.84-4.3,1.72-6.45,2.61s-4.24,1.9-6.51,2.86a22.47,22.47,0,0,1,5.38-4.94,34.77,34.77,0,0,1,6.48-3.34,39.78,39.78,0,0,1,7-2A28.16,28.16,0,0,1,90,560.81Z"/><path class="cls-2" d="M56.77,580.24a4.57,4.57,0,0,0,1.72.83c12.37,3.09,25.08,3,34.08-4.3,7.44-6,7.45-14.34,6.93-18.35A3.93,3.93,0,0,0,97.13,555l-.43-.13C96,563.1,90.9,585.07,56.77,580.24Z"/><path class="cls-3" d="M72.76,584.47a60.9,60.9,0,0,1-14.64-1.95,6.15,6.15,0,0,1-3.86-3,6,6,0,0,1-.5-4.81l1.83-5.82c1.34-4.26,9.64-25,42-15.37h0c2.16.64,3.18,2.82,3.42,4.65.6,4.63.42,13.34-7.48,19.72C88.12,582.28,81.08,584.47,72.76,584.47ZM81.85,554C65,554,59.78,565.58,58.44,569.84l-1.83,5.82a3.11,3.11,0,0,0,2.23,3.94c9.69,2.42,23.25,3.68,32.78-4,6.77-5.46,6.91-13,6.39-17-.11-.88-.57-1.94-1.3-2.15h0A52.28,52.28,0,0,0,81.85,554Z"/><path class="cls-8" d="M77.86,558.18c.1.2-.05-.17-.06-.21,0,.21,0,0,0-.13s-.08.3,0-.13-.06.07.09-.2A1.5,1.5,0,1,0,75.32,556a3.84,3.84,0,0,0-.05,3.69,1.51,1.51,0,0,0,2.05.54,1.53,1.53,0,0,0,.54-2.06Z"/><path class="cls-8" d="M72.82,563.13a1.5,1.5,0,0,0,0-3,1.5,1.5,0,0,0,0,3Z"/><path class="cls-8" d="M67.91,576.64l6.19-2.25c1.8-.66,1-3.56-.8-2.9l-6.19,2.25c-1.8.66-1,3.56.8,2.9Z"/><path class="cls-1" d="M13.47,555a3.92,3.92,0,0,0-2.36,3.4c-.52,4-.5,12.35,6.94,18.35,9,7.26,21.7,7.39,34.08,4.3a4.62,4.62,0,0,0,3.3-5.85l-1.83-5.82C51.49,562.65,42.58,546.33,13.47,555Z"/><path class="cls-2" d="M20.62,560.81a28.16,28.16,0,0,1,7.25.49,39.78,39.78,0,0,1,7,2,34.77,34.77,0,0,1,6.48,3.34,22.47,22.47,0,0,1,5.38,4.94c-2.27-1-4.36-2-6.51-2.86s-4.28-1.78-6.45-2.61l-6.52-2.52C25,562.69,22.84,561.83,20.62,560.81Z"/><path class="cls-2" d="M53.86,580.24a4.57,4.57,0,0,1-1.72.83c-12.37,3.09-25.08,3-34.08-4.3-7.44-6-7.45-14.34-6.93-18.35A3.93,3.93,0,0,1,13.49,555l.43-.13C14.64,563.1,19.73,585.07,53.86,580.24Z"/><path class="cls-3" d="M37.86,584.47c-8.33,0-15.36-2.2-20.75-6.54-7.9-6.38-8.08-15.09-7.48-19.72.24-1.82,1.26-4,3.42-4.65,32.35-9.65,40.65,11.11,42,15.37l1.83,5.82a6,6,0,0,1-.5,4.81,6.15,6.15,0,0,1-3.86,3A60.9,60.9,0,0,1,37.86,584.47ZM28.77,554a52.27,52.27,0,0,0-14.86,2.43h0c-.73.22-1.19,1.27-1.3,2.15-.52,4-.38,11.53,6.39,17,9.53,7.69,23.08,6.43,32.78,4A3.11,3.11,0,0,0,54,575.67l-1.83-5.82C50.85,565.58,45.64,554,28.77,554Z"/><path class="cls-8" d="M31.9,558.28l-1.18-1.81A1.5,1.5,0,1,0,28.12,558l1.18,1.81a1.5,1.5,0,1,0,2.59-1.52Z"/><path class="cls-8" d="M34.57,561.18a1.5,1.5,0,0,0,0-3,1.5,1.5,0,0,0,0,3Z"/><path class="cls-8" d="M36.73,573.29l.83-.22a1.5,1.5,0,0,0-.8-2.9l-.83.22a1.5,1.5,0,0,0,.8,2.9Z"/><path class="cls-8" d="M29.79,569.07l-.23.15a1.54,1.54,0,0,0-.54,2.06,1.51,1.51,0,0,0,2.05.54l.23-.15a1.54,1.54,0,0,0,.54-2.06,1.51,1.51,0,0,0-2.05-.54Z"/><path class="cls-1" d="M45.41,607.18q-.29-.09-.57-.21a6.57,6.57,0,0,1-3.47-8.61c18.34-43.14,4.21-66.41,4.06-66.64a6.56,6.56,0,1,1,11.1-7c.74,1.18,17.9,29.38-3.09,78.78A6.56,6.56,0,0,1,45.41,607.18Z"/><path class="cls-3" d="M47.43,609a8.12,8.12,0,0,1-2.48-.39h0c-.24-.08-.47-.16-.71-.26A8.07,8.07,0,0,1,40,597.77c17.89-42.09,4.31-65,4.17-65.25a8.06,8.06,0,0,1,13.64-8.6c.76,1.21,18.32,30.06-3,80.17A8,8,0,0,1,47.43,609ZM51,523.16a5.06,5.06,0,0,0-4.27,7.76c.15.23,14.72,24.1-4,68a5.06,5.06,0,0,0,2.68,6.64l.44.17h0a5,5,0,0,0,6.19-2.84c20.69-48.67,3.93-76.24,3.2-77.39A5.06,5.06,0,0,0,51,523.16Z"/><path class="cls-1" d="M342,317.15h0a6.38,6.38,0,0,0,4.81,3.49h0a6.39,6.39,0,0,1,3.54,10.89h0a6.39,6.39,0,0,0-1.84,5.65h0a6.38,6.38,0,0,1-9.26,6.73h0a6.38,6.38,0,0,0-5.94,0h0a6.38,6.38,0,0,1-9.26-6.73h0a6.39,6.39,0,0,0-1.84-5.65h0a6.39,6.39,0,0,1,3.54-10.89h0a6.38,6.38,0,0,0,4.81-3.49h0A6.38,6.38,0,0,1,342,317.15Z"/><path class="cls-2" d="M350.39,331.53a6.41,6.41,0,0,0-1.93,4.57,6.27,6.27,0,0,0,.09,1.08,6.87,6.87,0,0,1,.09,1.12,6.39,6.39,0,0,1-9.36,5.61,6.37,6.37,0,0,0-5.94,0,6.31,6.31,0,0,1-3,.74,6.48,6.48,0,0,1-6-4.15,6.46,6.46,0,0,0,4.42,1.78,6.31,6.31,0,0,0,3-.74,6.37,6.37,0,0,1,5.94,0,6.39,6.39,0,0,0,9.36-5.61,6.87,6.87,0,0,0-.09-1.12,6.27,6.27,0,0,1-.09-1.08,6.41,6.41,0,0,1,1.93-4.57,6.28,6.28,0,0,0,1.94-4.54,6.44,6.44,0,0,0-.43-2.32,6.47,6.47,0,0,1,2,4.69A6.28,6.28,0,0,1,350.39,331.53Z"/><path class="cls-3" d="M330.38,346.16a7.9,7.9,0,0,1-7.76-9.23,4.88,4.88,0,0,0-1.4-4.32,7.89,7.89,0,0,1,4.37-13.46,4.88,4.88,0,0,0,3.68-2.67,7.88,7.88,0,0,1,14.13,0,4.88,4.88,0,0,0,3.68,2.67,7.89,7.89,0,0,1,4.37,13.46,4.89,4.89,0,0,0-1.4,4.32,7.88,7.88,0,0,1-11.44,8.32,4.88,4.88,0,0,0-4.54,0A7.89,7.89,0,0,1,330.38,346.16Zm5.95-31.07a4.79,4.79,0,0,0-4.38,2.72,7.88,7.88,0,0,1-5.93,4.32,4.88,4.88,0,0,0-2.71,8.33,7.89,7.89,0,0,1,2.27,7,4.88,4.88,0,0,0,7.08,5.15,7.88,7.88,0,0,1,7.33,0,4.88,4.88,0,0,0,7.08-5.15,7.89,7.89,0,0,1,2.27-7,4.88,4.88,0,0,0-2.71-8.33,7.88,7.88,0,0,1-5.93-4.32h0A4.79,4.79,0,0,0,336.33,315.09Z"/><path class="cls-2" d="M325.81,326.33a4.05,4.05,0,0,1,2.35-.43,5.12,5.12,0,0,1,2.11.71,4.87,4.87,0,0,1,1.62,1.61,3.47,3.47,0,0,1,.49,2.4,16.28,16.28,0,0,1-2.09-.66,9.56,9.56,0,0,1-1.59-.79,9.1,9.1,0,0,1-1.46-1.11A8.63,8.63,0,0,1,325.81,326.33Z"/><path class="cls-2" d="M335.95,326.95a3.44,3.44,0,0,1-2.47-1.39,4.44,4.44,0,0,1-.92-2.83,4.74,4.74,0,0,1,1-2.73,5.08,5.08,0,0,1,1-.95,4.77,4.77,0,0,1,1.31-.56,8.3,8.3,0,0,1-.08,1.36c0,.42-.09.78-.11,1.13-.08.69-.1,1.28-.14,1.83A18.7,18.7,0,0,0,335.95,326.95Z"/><path class="cls-2" d="M338.3,328.65a2.81,2.81,0,0,1-.21-2.33,3.72,3.72,0,0,1,3.62-2.53,3.1,3.1,0,0,1,2.12.91,17.09,17.09,0,0,1-1.51,1.37c-.43.32-.75.62-1.12.85s-.72.46-1.17.73Z"/><path class="cls-2" d="M337.51,331.81a3,3,0,0,1,1.89-.22,3.1,3.1,0,0,1,2.35,2.22,2.41,2.41,0,0,1-.29,2c-.75-.24-1.21-.38-1.62-.56a3.33,3.33,0,0,1-1-.65,3.74,3.74,0,0,1-.77-1A5.66,5.66,0,0,1,337.51,331.81Z"/><path class="cls-2" d="M330.14,337.17a2.86,2.86,0,0,1-.19-1.84,2.88,2.88,0,0,1,2.19-2.17,2.29,2.29,0,0,1,1.87.38c-.24.74-.37,1.18-.55,1.57a2.9,2.9,0,0,1-.63,1,3.3,3.3,0,0,1-1,.68A5.45,5.45,0,0,1,330.14,337.17Z"/><path class="cls-1" d="M319.87,376.29h0a6.38,6.38,0,0,0,4.81,3.49h0a6.39,6.39,0,0,1,3.54,10.89h0a6.39,6.39,0,0,0-1.84,5.65h0a6.38,6.38,0,0,1-9.26,6.73h0a6.38,6.38,0,0,0-5.94,0h0a6.38,6.38,0,0,1-9.26-6.73h0a6.39,6.39,0,0,0-1.84-5.65h0a6.39,6.39,0,0,1,3.54-10.89h0a6.38,6.38,0,0,0,4.81-3.49h0A6.38,6.38,0,0,1,319.87,376.29Z"/><path class="cls-2" d="M328.21,390.68a6.41,6.41,0,0,0-1.93,4.57,6.27,6.27,0,0,0,.09,1.08,6.87,6.87,0,0,1,.09,1.12,6.39,6.39,0,0,1-9.36,5.61,6.37,6.37,0,0,0-5.94,0,6.31,6.31,0,0,1-3,.74,6.48,6.48,0,0,1-6-4.15,6.46,6.46,0,0,0,4.42,1.78,6.31,6.31,0,0,0,3-.74,6.37,6.37,0,0,1,5.94,0,6.39,6.39,0,0,0,9.36-5.61,6.87,6.87,0,0,0-.09-1.12,6.27,6.27,0,0,1-.09-1.08,6.41,6.41,0,0,1,1.93-4.57,6.28,6.28,0,0,0,1.94-4.54,6.44,6.44,0,0,0-.43-2.32,6.47,6.47,0,0,1,2,4.69A6.28,6.28,0,0,1,328.21,390.68Z"/><path class="cls-3" d="M320.1,405.31a7.88,7.88,0,0,1-3.67-.91,4.88,4.88,0,0,0-4.54,0,7.88,7.88,0,0,1-11.44-8.32,4.89,4.89,0,0,0-1.4-4.32,7.89,7.89,0,0,1,4.37-13.46,4.88,4.88,0,0,0,3.68-2.67,7.88,7.88,0,0,1,14.13,0,4.88,4.88,0,0,0,3.68,2.67,7.89,7.89,0,0,1,4.37,13.46,4.89,4.89,0,0,0-1.4,4.32,7.9,7.9,0,0,1-7.76,9.23Zm-5.95-4.48a7.88,7.88,0,0,1,3.67.91,4.88,4.88,0,0,0,7.08-5.15,7.89,7.89,0,0,1,2.27-7,4.88,4.88,0,0,0-2.71-8.33,7.88,7.88,0,0,1-5.93-4.31h0a4.88,4.88,0,0,0-8.76,0,7.88,7.88,0,0,1-5.93,4.31,4.88,4.88,0,0,0-2.71,8.33,7.9,7.9,0,0,1,2.27,7,4.88,4.88,0,0,0,7.08,5.15A7.87,7.87,0,0,1,314.15,400.83Z"/><path class="cls-2" d="M303.63,385.47A4.05,4.05,0,0,1,306,385a5.12,5.12,0,0,1,2.11.71,4.87,4.87,0,0,1,1.62,1.61,3.47,3.47,0,0,1,.49,2.4,16.27,16.27,0,0,1-2.09-.66,9.55,9.55,0,0,1-1.59-.79,9.1,9.1,0,0,1-1.46-1.11A8.63,8.63,0,0,1,303.63,385.47Z"/><path class="cls-2" d="M313.77,386.09a3.44,3.44,0,0,1-2.47-1.39,4.44,4.44,0,0,1-.92-2.83,4.74,4.74,0,0,1,1-2.73,5.08,5.08,0,0,1,1-.95,4.77,4.77,0,0,1,1.31-.56,8.31,8.31,0,0,1-.08,1.36c0,.42-.09.78-.11,1.13-.08.69-.1,1.28-.14,1.83A18.7,18.7,0,0,0,313.77,386.09Z"/><path class="cls-2" d="M316.12,387.79a2.81,2.81,0,0,1-.21-2.33,3.72,3.72,0,0,1,3.62-2.53,3.1,3.1,0,0,1,2.12.91,17.08,17.08,0,0,1-1.51,1.37c-.43.32-.75.62-1.12.85s-.72.46-1.17.73Z"/><path class="cls-2" d="M315.33,391a3,3,0,0,1,1.89-.22,3.1,3.1,0,0,1,2.35,2.22,2.41,2.41,0,0,1-.29,2c-.75-.24-1.21-.38-1.62-.56a3.33,3.33,0,0,1-1-.65,3.74,3.74,0,0,1-.77-1A5.66,5.66,0,0,1,315.33,391Z"/><path class="cls-2" d="M308,396.31a2.86,2.86,0,0,1-.19-1.84A2.88,2.88,0,0,1,310,392.3a2.29,2.29,0,0,1,1.87.38c-.24.74-.38,1.18-.55,1.57a2.9,2.9,0,0,1-.63,1,3.3,3.3,0,0,1-1,.68A5.45,5.45,0,0,1,308,396.31Z"/><path class="cls-1" d="M23.71,187h0a6.38,6.38,0,0,0,4.81,3.49h0A6.39,6.39,0,0,1,32,201.36h0A6.39,6.39,0,0,0,30.21,207h0A6.38,6.38,0,0,1,21,213.75h0a6.38,6.38,0,0,0-5.94,0h0A6.38,6.38,0,0,1,5.75,207h0a6.39,6.39,0,0,0-1.84-5.65h0a6.39,6.39,0,0,1,3.54-10.89h0A6.38,6.38,0,0,0,12.26,187h0A6.38,6.38,0,0,1,23.71,187Z"/><path class="cls-2" d="M32,201.36a6.41,6.41,0,0,0-1.93,4.57,6.27,6.27,0,0,0,.09,1.08,6.87,6.87,0,0,1,.09,1.12A6.39,6.39,0,0,1,21,213.75a6.37,6.37,0,0,0-5.94,0,6.31,6.31,0,0,1-3,.74,6.48,6.48,0,0,1-6-4.15,6.46,6.46,0,0,0,4.42,1.78,6.31,6.31,0,0,0,3-.74,6.37,6.37,0,0,1,5.94,0,6.39,6.39,0,0,0,9.36-5.61,6.87,6.87,0,0,0-.09-1.12,6.27,6.27,0,0,1-.09-1.08A6.41,6.41,0,0,1,30.47,199a6.28,6.28,0,0,0,1.94-4.54,6.44,6.44,0,0,0-.43-2.32,6.47,6.47,0,0,1,2,4.69A6.28,6.28,0,0,1,32,201.36Z"/><path class="cls-3" d="M12,216a7.9,7.9,0,0,1-7.76-9.23,4.89,4.89,0,0,0-1.4-4.32A7.89,7.89,0,0,1,7.24,189a4.88,4.88,0,0,0,3.68-2.67,7.83,7.83,0,0,1,7.07-4.4h0a7.83,7.83,0,0,1,7.07,4.4A4.88,4.88,0,0,0,28.73,189a7.89,7.89,0,0,1,4.37,13.45,4.89,4.89,0,0,0-1.4,4.32,7.88,7.88,0,0,1-11.44,8.32,4.89,4.89,0,0,0-4.54,0A7.88,7.88,0,0,1,12,216ZM18,184.92a4.79,4.79,0,0,0-4.38,2.72A7.88,7.88,0,0,1,7.67,192,4.88,4.88,0,0,0,5,200.29a7.89,7.89,0,0,1,2.27,7,4.88,4.88,0,0,0,7.08,5.15,7.88,7.88,0,0,1,7.33,0,4.88,4.88,0,0,0,7.08-5.15,7.89,7.89,0,0,1,2.27-7A4.88,4.88,0,0,0,28.3,192a7.88,7.88,0,0,1-5.93-4.32h0A4.79,4.79,0,0,0,18,184.92Z"/><path class="cls-2" d="M7.46,196.16a4.05,4.05,0,0,1,2.35-.43,5.12,5.12,0,0,1,2.11.71,4.87,4.87,0,0,1,1.62,1.61,3.47,3.47,0,0,1,.49,2.4,16.27,16.27,0,0,1-2.09-.66,9.55,9.55,0,0,1-1.59-.79,9.11,9.11,0,0,1-1.46-1.11A8.63,8.63,0,0,1,7.46,196.16Z"/><path class="cls-2" d="M17.6,196.78a3.44,3.44,0,0,1-2.47-1.39,4.44,4.44,0,0,1-.92-2.83,4.73,4.73,0,0,1,1-2.73,5.08,5.08,0,0,1,1-.95,4.77,4.77,0,0,1,1.31-.56,8.31,8.31,0,0,1-.08,1.36c0,.42-.09.78-.11,1.13-.08.69-.1,1.28-.14,1.83A18.7,18.7,0,0,0,17.6,196.78Z"/><path class="cls-2" d="M20,198.48a2.81,2.81,0,0,1-.21-2.33,3.72,3.72,0,0,1,3.62-2.53,3.1,3.1,0,0,1,2.12.91A17.08,17.08,0,0,1,24,195.9c-.43.32-.75.62-1.12.85s-.72.46-1.17.73Z"/><path class="cls-2" d="M19.17,201.64a3,3,0,0,1,1.89-.22,3.1,3.1,0,0,1,2.35,2.22,2.41,2.41,0,0,1-.29,2c-.75-.24-1.21-.38-1.62-.56a3.33,3.33,0,0,1-1-.65,3.74,3.74,0,0,1-.77-1A5.65,5.65,0,0,1,19.17,201.64Z"/><path class="cls-2" d="M11.8,207a2.86,2.86,0,0,1-.19-1.84A2.88,2.88,0,0,1,13.79,203a2.29,2.29,0,0,1,1.87.38c-.24.74-.38,1.18-.55,1.57a2.9,2.9,0,0,1-.63,1,3.3,3.3,0,0,1-1,.68A5.45,5.45,0,0,1,11.8,207Z"/><path class="cls-1" d="M339.2,407.85h0a6.38,6.38,0,0,0,4.81,3.49h0a6.39,6.39,0,0,1,3.54,10.89h0a6.39,6.39,0,0,0-1.84,5.65h0a6.38,6.38,0,0,1-9.26,6.73h0a6.38,6.38,0,0,0-5.94,0h0a6.38,6.38,0,0,1-9.26-6.73h0a6.39,6.39,0,0,0-1.84-5.65h0a6.39,6.39,0,0,1,3.54-10.89h0a6.38,6.38,0,0,0,4.81-3.49h0A6.38,6.38,0,0,1,339.2,407.85Z"/><path class="cls-2" d="M347.54,422.23a6.41,6.41,0,0,0-1.93,4.57,6.27,6.27,0,0,0,.09,1.08,6.87,6.87,0,0,1,.09,1.12,6.39,6.39,0,0,1-9.36,5.61,6.37,6.37,0,0,0-5.94,0,6.31,6.31,0,0,1-3,.74,6.48,6.48,0,0,1-6-4.15A6.46,6.46,0,0,0,326,433a6.31,6.31,0,0,0,3-.74,6.37,6.37,0,0,1,5.94,0,6.39,6.39,0,0,0,9.36-5.61,6.87,6.87,0,0,0-.09-1.12,6.27,6.27,0,0,1-.09-1.08,6.41,6.41,0,0,1,1.93-4.57,6.28,6.28,0,0,0,1.94-4.54,6.44,6.44,0,0,0-.43-2.32,6.47,6.47,0,0,1,2,4.69A6.28,6.28,0,0,1,347.54,422.23Z"/><path class="cls-3" d="M327.53,436.87a7.9,7.9,0,0,1-7.76-9.23,4.89,4.89,0,0,0-1.4-4.32,7.89,7.89,0,0,1,4.37-13.46,4.88,4.88,0,0,0,3.68-2.67,7.88,7.88,0,0,1,14.14,0h0a4.88,4.88,0,0,0,3.68,2.67,7.89,7.89,0,0,1,4.37,13.46,4.89,4.89,0,0,0-1.4,4.32A7.88,7.88,0,0,1,335.75,436a4.88,4.88,0,0,0-4.54,0A7.88,7.88,0,0,1,327.53,436.87Zm5.95-31.07a4.79,4.79,0,0,0-4.38,2.72,7.88,7.88,0,0,1-5.93,4.31,4.88,4.88,0,0,0-2.71,8.33,7.89,7.89,0,0,1,2.27,7,4.88,4.88,0,0,0,7.08,5.15,7.88,7.88,0,0,1,7.33,0,4.88,4.88,0,0,0,7.08-5.15,7.9,7.9,0,0,1,2.27-7,4.88,4.88,0,0,0-2.71-8.33,7.88,7.88,0,0,1-5.93-4.31h0A4.79,4.79,0,0,0,333.48,405.79Z"/><path class="cls-2" d="M323,417a4.05,4.05,0,0,1,2.35-.43,5.12,5.12,0,0,1,2.11.71,4.87,4.87,0,0,1,1.62,1.61,3.47,3.47,0,0,1,.49,2.4,16.28,16.28,0,0,1-2.09-.66,9.56,9.56,0,0,1-1.59-.79,9.1,9.1,0,0,1-1.46-1.11A8.63,8.63,0,0,1,323,417Z"/><path class="cls-2" d="M333.1,417.65a3.44,3.44,0,0,1-2.47-1.39,4.44,4.44,0,0,1-.92-2.83,4.73,4.73,0,0,1,1-2.73,5.08,5.08,0,0,1,1-.95,4.77,4.77,0,0,1,1.31-.56,8.31,8.31,0,0,1-.08,1.36c0,.42-.09.78-.11,1.13-.08.69-.1,1.28-.14,1.83A18.7,18.7,0,0,0,333.1,417.65Z"/><path class="cls-2" d="M335.45,419.35a2.81,2.81,0,0,1-.21-2.33,3.72,3.72,0,0,1,3.62-2.53,3.1,3.1,0,0,1,2.12.91,17.08,17.08,0,0,1-1.51,1.37c-.43.32-.75.62-1.12.85s-.72.46-1.17.73Z"/><path class="cls-2" d="M334.66,422.51a3,3,0,0,1,1.89-.22,3.1,3.1,0,0,1,2.35,2.22,2.41,2.41,0,0,1-.29,2c-.75-.24-1.21-.38-1.62-.56a3.33,3.33,0,0,1-1-.65,3.74,3.74,0,0,1-.77-1A5.66,5.66,0,0,1,334.66,422.51Z"/><path class="cls-2" d="M327.29,427.87a2.86,2.86,0,0,1-.19-1.84,2.88,2.88,0,0,1,2.19-2.17,2.29,2.29,0,0,1,1.87.38c-.24.74-.38,1.18-.55,1.57a2.9,2.9,0,0,1-.63,1,3.3,3.3,0,0,1-1,.68A5.45,5.45,0,0,1,327.29,427.87Z"/><path class="cls-14" d="M39.47,151.3l4.33,7.93a2.58,2.58,0,0,0,1,1l7.92,4.34a2.59,2.59,0,0,1,0,4.53l-7.92,4.34a2.58,2.58,0,0,0-1,1l-4.33,7.93a2.58,2.58,0,0,1-4.53,0l-4.33-7.93a2.58,2.58,0,0,0-1-1l-7.92-4.34a2.59,2.59,0,0,1,0-4.53l7.92-4.34a2.58,2.58,0,0,0,1-1l4.33-7.93A2.58,2.58,0,0,1,39.47,151.3Z"/><path class="cls-15" d="M39.52,152.89a2.58,2.58,0,0,0-3.77.86l-4.33,7.93a2.6,2.6,0,0,1-1,1L22.47,167a2.55,2.55,0,0,0-1.34,2.24l-.29-.16a2.58,2.58,0,0,1,0-4.53l7.92-4.34a2.6,2.6,0,0,0,1-1l4.33-7.93a2.58,2.58,0,0,1,4.53,0Z"/><path class="cls-15" d="M51.93,169.12,44,173.46a2.6,2.6,0,0,0-1,1l-4.33,7.93a2.58,2.58,0,0,1-4.53,0l-.25-.45A2.57,2.57,0,0,0,37,180.78l4.33-7.93a2.6,2.6,0,0,1,1-1l7.92-4.34a2.57,2.57,0,0,0,1.19-3.14l.45.25A2.58,2.58,0,0,1,51.93,169.12Z"/><path class="cls-3" d="M37.2,185.26a4.08,4.08,0,0,1-3.58-2.12l-4.33-7.93a1.08,1.08,0,0,0-.43-.43l-7.92-4.34a4.09,4.09,0,0,1,0-7.17l7.92-4.34a1.08,1.08,0,0,0,.43-.43l4.33-7.93a4.08,4.08,0,0,1,7.16,0l4.33,7.93a1.08,1.08,0,0,0,.43.43l7.92,4.34a4.09,4.09,0,0,1,0,7.17l-7.92,4.34a1.08,1.08,0,0,0-.43.43l-4.33,7.93A4.08,4.08,0,0,1,37.2,185.26Zm0-33.8a1.06,1.06,0,0,0-.95.56l-4.33,7.93a4.08,4.08,0,0,1-1.62,1.62l-7.92,4.33a1.08,1.08,0,0,0,0,1.9l7.92,4.34a4.07,4.07,0,0,1,1.62,1.62l4.33,7.93a1.08,1.08,0,0,0,1.9,0l4.33-7.93a4.08,4.08,0,0,1,1.63-1.62L52,167.8a1.08,1.08,0,0,0,0-1.9l-7.92-4.34a4.07,4.07,0,0,1-1.62-1.62L38.15,152A1.06,1.06,0,0,0,37.2,151.46Z"/><path class="cls-14" d="M341.44,353.86l3.26,6a1.94,1.94,0,0,0,.77.77l6,3.26a1.94,1.94,0,0,1,0,3.41l-6,3.26a1.94,1.94,0,0,0-.77.77l-3.26,6a1.94,1.94,0,0,1-3.41,0l-3.26-6a1.94,1.94,0,0,0-.77-.77l-6-3.26a1.94,1.94,0,0,1,0-3.41l6-3.26a1.94,1.94,0,0,0,.77-.77l3.26-6A1.94,1.94,0,0,1,341.44,353.86Z"/><path class="cls-15" d="M341.48,355.05a1.94,1.94,0,0,0-2.83.65l-3.26,6a2,2,0,0,1-.77.77l-6,3.26a1.91,1.91,0,0,0-1,1.68l-.22-.12a1.94,1.94,0,0,1,0-3.41l6-3.26a2,2,0,0,0,.77-.77l3.26-6a1.94,1.94,0,0,1,3.4,0Z"/><path class="cls-15" d="M350.81,367.25l-6,3.26a2,2,0,0,0-.77.77l-3.26,6a1.94,1.94,0,0,1-3.4,0l-.18-.34a1.93,1.93,0,0,0,2.36-.89l3.26-6a2,2,0,0,1,.77-.77l6-3.26a1.93,1.93,0,0,0,.89-2.36l.34.18A1.94,1.94,0,0,1,350.81,367.25Z"/><path class="cls-3" d="M339.74,379.75a3.44,3.44,0,0,1-3-1.79l-3.26-6a.44.44,0,0,0-.18-.18l-6-3.26a3.45,3.45,0,0,1,0-6l6-3.26a.44.44,0,0,0,.18-.18l3.25-6a3.44,3.44,0,0,1,6,0l3.26,6a.44.44,0,0,0,.18.18l6,3.26a3.45,3.45,0,0,1,0,6l-6,3.26a.44.44,0,0,0-.18.18l-3.25,6A3.44,3.44,0,0,1,339.74,379.75Zm0-25.4a.43.43,0,0,0-.39.23l-3.26,6a3.45,3.45,0,0,1-1.37,1.37l-6,3.26a.44.44,0,0,0,0,.77l6,3.26a3.44,3.44,0,0,1,1.37,1.37l3.26,6a.44.44,0,0,0,.77,0l3.26-6a3.45,3.45,0,0,1,1.37-1.37l6-3.26a.44.44,0,0,0,0-.77l-6-3.26a3.44,3.44,0,0,1-1.37-1.37l-3.26-6A.43.43,0,0,0,339.74,354.35Z"/><path class="cls-14" d="M115.77,532.44l3.26,6a1.94,1.94,0,0,0,.77.77l6,3.26a1.94,1.94,0,0,1,0,3.41l-6,3.26a1.94,1.94,0,0,0-.77.77l-3.26,6a1.94,1.94,0,0,1-3.41,0l-3.26-6a1.94,1.94,0,0,0-.77-.77l-6-3.26a1.94,1.94,0,0,1,0-3.41l6-3.26a1.94,1.94,0,0,0,.77-.77l3.26-6A1.94,1.94,0,0,1,115.77,532.44Z"/><path class="cls-15" d="M115.81,533.63a1.94,1.94,0,0,0-2.83.65l-3.26,6a2,2,0,0,1-.77.77l-6,3.26a1.91,1.91,0,0,0-1,1.68l-.22-.12a1.94,1.94,0,0,1,0-3.41l6-3.26a2,2,0,0,0,.77-.77l3.26-6a1.94,1.94,0,0,1,3.4,0Z"/><path class="cls-15" d="M125.14,545.83l-6,3.26a2,2,0,0,0-.77.77l-3.26,6a1.94,1.94,0,0,1-3.4,0l-.18-.34a1.93,1.93,0,0,0,2.36-.89l3.26-6a2,2,0,0,1,.77-.77l6-3.26a1.93,1.93,0,0,0,.89-2.36l.34.18A1.94,1.94,0,0,1,125.14,545.83Z"/><path class="cls-3" d="M114.07,558.33a3.44,3.44,0,0,1-3-1.79l-3.26-6a.44.44,0,0,0-.18-.18l-6-3.26a3.45,3.45,0,0,1,0-6l6-3.26a.43.43,0,0,0,.17-.17l3.26-6a3.44,3.44,0,0,1,6,0l3.26,6a.44.44,0,0,0,.17.17l6,3.26a3.45,3.45,0,0,1,0,6l-6,3.26a.43.43,0,0,0-.17.17l-3.26,6A3.44,3.44,0,0,1,114.07,558.33Zm0-25.4a.43.43,0,0,0-.39.23l-3.26,6a3.44,3.44,0,0,1-1.37,1.37l-6,3.26a.44.44,0,0,0,0,.77l6,3.26a3.44,3.44,0,0,1,1.37,1.37l3.25,6a.44.44,0,0,0,.78,0l3.26-6a3.43,3.43,0,0,1,1.37-1.37l6-3.26a.44.44,0,0,0,0-.77l-6-3.26a3.43,3.43,0,0,1-1.37-1.37l-3.25-6A.43.43,0,0,0,114.07,532.93Z"/><path class="cls-14" d="M314.87,328.85l4.73,8.65a2.82,2.82,0,0,0,1.12,1.12l8.65,4.73a2.82,2.82,0,0,1,0,4.95L320.72,353a2.82,2.82,0,0,0-1.12,1.12l-4.73,8.65a2.82,2.82,0,0,1-4.95,0l-4.73-8.65a2.82,2.82,0,0,0-1.12-1.12l-8.65-4.73a2.82,2.82,0,0,1,0-4.95l8.65-4.73a2.82,2.82,0,0,0,1.12-1.12l4.73-8.65A2.82,2.82,0,0,1,314.87,328.85Z"/><path class="cls-15" d="M314.93,330.58a2.81,2.81,0,0,0-4.11.94l-4.73,8.65A2.84,2.84,0,0,1,305,341.3L296.32,346a2.78,2.78,0,0,0-1.46,2.45l-.32-.18a2.82,2.82,0,0,1,0-4.95l8.65-4.73a2.84,2.84,0,0,0,1.12-1.13l4.73-8.65a2.82,2.82,0,0,1,4.94,0Z"/><path class="cls-15" d="M328.48,348.3,319.83,353a2.84,2.84,0,0,0-1.12,1.12L314,362.81a2.82,2.82,0,0,1-4.94,0l-.27-.49a2.8,2.8,0,0,0,3.43-1.29l4.73-8.65a2.84,2.84,0,0,1,1.12-1.12l8.65-4.73a2.8,2.8,0,0,0,1.29-3.43l.49.27A2.82,2.82,0,0,1,328.48,348.3Z"/><path class="cls-3" d="M312.4,365.77a4.32,4.32,0,0,1-3.79-2.25l-4.73-8.65a1.33,1.33,0,0,0-.53-.53l-8.64-4.73a4.32,4.32,0,0,1,0-7.59l8.64-4.73a1.32,1.32,0,0,0,.52-.52l4.73-8.65a4.32,4.32,0,0,1,7.58,0l4.73,8.65a1.32,1.32,0,0,0,.52.52l8.65,4.73a4.32,4.32,0,0,1,0,7.59l-8.65,4.73a1.32,1.32,0,0,0-.52.53l-4.73,8.65A4.32,4.32,0,0,1,312.4,365.77Zm0-36.89a1.29,1.29,0,0,0-1.16.69l-4.73,8.65a4.3,4.3,0,0,1-1.72,1.72l-8.64,4.73a1.32,1.32,0,0,0,0,2.31l8.64,4.73a4.32,4.32,0,0,1,1.72,1.72l4.73,8.65a1.32,1.32,0,0,0,2.32,0l4.73-8.65a4.32,4.32,0,0,1,1.71-1.72l8.65-4.73a1.32,1.32,0,0,0,0-2.31L320,339.94a4.31,4.31,0,0,1-1.72-1.72l-4.73-8.65A1.29,1.29,0,0,0,312.4,328.88Z"/><path class="cls-8" d="M79.38,591h69.36a1.5,1.5,0,0,0,0-3H79.38a1.5,1.5,0,0,0,0,3Z"/><path class="cls-8" d="M159,591.95h3.75a1.5,1.5,0,0,0,0-3H159a1.5,1.5,0,0,0,0,3Z"/><path class="cls-8" d="M55.5,111.57l1.87.94a1.54,1.54,0,0,0,2.05-.54,1.52,1.52,0,0,0-.54-2.06L57,109a1.54,1.54,0,0,0-2.05.54,1.52,1.52,0,0,0,.54,2.06Z"/><path class="cls-8" d="M62.69,106.65l1.87,1.88a1.5,1.5,0,1,0,2.12-2.12l-1.87-1.88a1.5,1.5,0,0,0-2.12,2.12Z"/><path class="cls-8" d="M331.24,448.59v28.13a1.5,1.5,0,0,0,3,0V448.59a1.5,1.5,0,0,0-3,0Z"/></g></g></svg>