<svg xmlns="http://www.w3.org/2000/svg" viewBox="0 0 357 235"><defs><style>.cls-1{fill:#a65d3b;}.cls-2{opacity:0.95;}.cls-3,.cls-4{fill:#8e4835;}.cls-3{opacity:0.57;}.cls-4{opacity:0.58;}.cls-19,.cls-22,.cls-5,.cls-8{fill:none;stroke:#6c4735;stroke-miterlimit:10;}.cls-5{stroke-width:4px;}.cls-6{fill:#fcd3dd;}.cls-7{fill:#e2b5c2;}.cls-8{stroke-width:3px;}.cls-9{fill:#c46d3a;}.cls-10,.cls-14{fill:#6c4735;}.cls-11{fill:#fff6cf;}.cls-12{fill:#f2e9c0;}.cls-13{fill:#fff;}.cls-14{font-size:18.37px;font-family:ChelseaMarket-Regular, Chelsea Market;}.cls-15{fill:#bdd344;}.cls-16{fill:#72a03d;}.cls-17{fill:#ffc849;}.cls-18{fill:#efb33c;}.cls-19{stroke-linecap:round;}.cls-19,.cls-22{stroke-width:2px;}.cls-20{fill:#fff1b8;}.cls-21{fill:#f4e5a6;}.cls-23{fill:#a1e2be;}.cls-24{fill:#7dc0b4;}</style></defs><title>Asset 3</title><g id="Layer_2" data-name="Layer 2"><g id="Layer_1-2" data-name="Layer 1"><rect class="cls-1" x="36.98" y="23.89" width="305.04" height="203.65" rx="8" ry="8"/><g class="cls-2"><rect class="cls-3" x="36.64" y="148.9" width="141.44" height="12.86"/><rect class="cls-3" x="36.64" y="129.61" width="141.44" height="12.86"/><rect class="cls-3" x="36.64" y="110.33" width="141.44" height="12.86"/></g><path class="cls-4" d="M342,31.24V220.19a7.35,7.35,0,0,1-7.35,7.35H44.34A7.35,7.35,0,0,1,37,220.19v-13.3c266.79-14.38,265.55-149.15,261-183h36.72A7.35,7.35,0,0,1,342,31.24Z"/><rect class="cls-5" x="36.98" y="23.89" width="305.04" height="203.65" rx="8" ry="8"/><path class="cls-6" d="M314.55,148.06h33.17a7.77,7.77,0,0,1,7.77,7.77v0a7.77,7.77,0,0,1-7.77,7.77H314.55a0,0,0,0,1,0,0V148.06A0,0,0,0,1,314.55,148.06Z"/><path class="cls-7" d="M354.58,154.87a8,8,0,0,1-2.15,5.5,7.16,7.16,0,0,1-5.2,2.27h-33.6v-2.43h31.3a7.16,7.16,0,0,0,5.2-2.27,8.14,8.14,0,0,0,1-9.63A7.85,7.85,0,0,1,354.58,154.87Z"/><path class="cls-8" d="M314.55,148.06h33.17a7.77,7.77,0,0,1,7.77,7.77v0a7.77,7.77,0,0,1-7.77,7.77H314.55a0,0,0,0,1,0,0V148.06A0,0,0,0,1,314.55,148.06Z"/><path class="cls-9" d="M342.48,129.16"/><path class="cls-10" d="M316.46,103.1a1.5,1.5,0,0,0,0-3,1.5,1.5,0,0,0,0,3Z"/><rect class="cls-11" x="55.36" y="41.55" width="268.29" height="168.33"/><polygon class="cls-12" points="324.57 41.54 324.57 209.88 56.28 209.88 56.28 204.46 318.6 204.46 318.6 41.54 324.57 41.54"/><rect class="cls-5" x="55.36" y="41.55" width="268.29" height="168.33"/><path class="cls-13" d="M63.62,51,65,52.13a1.54,1.54,0,0,0,2.12,0,1.51,1.51,0,0,0,0-2.12l-1.37-1.16a1.54,1.54,0,0,0-2.12,0,1.51,1.51,0,0,0,0,2.12Z"/><path class="cls-13" d="M67.78,48.76l1.39.66a1.54,1.54,0,0,0,2.05-.54,1.51,1.51,0,0,0-.54-2.05l-1.39-.66a1.54,1.54,0,0,0-2.05.54,1.51,1.51,0,0,0,.54,2.05Z"/><path class="cls-13" d="M91.39,21.7v1.84a1.5,1.5,0,0,0,3,0V21.7a1.5,1.5,0,1,0-3,0Z"/><text class="cls-14" transform="translate(85.34 75.98)">tulis harapan tahun ini</text><path class="cls-12" d="M85.32,88H302.07a1.5,1.5,0,0,0,0-3H85.32a1.5,1.5,0,0,0,0,3Z"/><path class="cls-10" d="M85.32,86.11H302.07a1.5,1.5,0,0,0,0-3H85.32a1.5,1.5,0,0,0,0,3Z"/><path class="cls-13" d="M44.45,196.78h.92a1.5,1.5,0,1,0,0-3h-.92a1.5,1.5,0,0,0,0,3Z"/><path class="cls-13" d="M44,189.43h1.84a1.5,1.5,0,0,0,0-3H44a1.5,1.5,0,0,0,0,3Z"/><path class="cls-13" d="M297.48,25.5a1.5,1.5,0,0,0,0-3,1.5,1.5,0,0,0,0,3Z"/><path class="cls-13" d="M332.84,76h2.3a1.5,1.5,0,0,0,0-3h-2.3a1.5,1.5,0,0,0,0,3Z"/><path class="cls-13" d="M332.38,81.06h.46a1.5,1.5,0,0,0,0-3h-.46a1.5,1.5,0,0,0,0,3Z"/><path class="cls-15" d="M4.44,38.4C2.9,38.83,2,40.52,1.77,42.1,1.11,46.5,1,55.67,9,62.44c9.75,8.17,23.74,8.58,37.44,5.45a5.08,5.08,0,0,0,3.75-6.37l-1.89-6.45C46.13,47.61,36.67,29.47,4.44,38.4Z"/><path class="cls-16" d="M12.18,44.93a32.74,32.74,0,0,1,7.94.8,45.83,45.83,0,0,1,7.61,2.37,39.77,39.77,0,0,1,7.07,3.77,25.77,25.77,0,0,1,5.88,5.44c-2.43-1.16-4.7-2.34-7-3.39s-4.67-2.08-7-3L19.44,48C17,47,14.62,46,12.18,44.93Z"/><path class="cls-16" d="M48.37,67a5,5,0,0,1-1.91.88C32.78,71,18.78,70.61,9,62.43,1,55.67,1.12,46.5,1.78,42.1c.23-1.58,1.13-3.27,2.67-3.7l.48-.13C5.56,47.33,10.69,71.61,48.37,67Z"/><path class="cls-8" d="M4.45,38.4c-1.54.43-2.43,2.11-2.67,3.69C1.12,46.5,1,55.67,9,62.43c9.75,8.17,23.74,8.58,37.44,5.45a5.08,5.08,0,0,0,3.75-6.37l-1.89-6.45C46.15,47.61,36.69,29.46,4.45,38.4Z"/><path class="cls-15" d="M95,6.6a3.84,3.84,0,0,1,3.49,2.06c2.1,3.36,5.5,10.78,1.34,19.17C94.77,38,83.5,43.29,71.22,45.61a4.52,4.52,0,0,1-5.33-3.86l-.76-5.93C64.25,29,65.5,10.8,95,6.6Z"/><path class="cls-16" d="M91,14.68c-1.55,1.84-3.15,3.5-4.74,5.17l-4.77,4.92c-1.58,1.63-3.12,3.29-4.67,5s-3,3.42-4.64,5.2a21.82,21.82,0,0,1,2.75-6.61,33.81,33.81,0,0,1,4.4-5.63,38.66,38.66,0,0,1,5.4-4.63A27.33,27.33,0,0,1,91,14.68Z"/><path class="cls-16" d="M69.34,45.58a4.48,4.48,0,0,0,1.87,0C83.49,43.29,94.75,38,99.79,27.82c4.17-8.39.76-15.81-1.34-19.16A3.85,3.85,0,0,0,95,6.6l-.44.07C97.24,14.27,101.71,35.9,69.34,45.58Z"/><path class="cls-8" d="M95,6.6a3.84,3.84,0,0,1,3.49,2.06c2.1,3.36,5.5,10.78,1.34,19.17-5,10.14-16.3,15.46-28.58,17.79a4.52,4.52,0,0,1-5.33-3.86l-.76-5.93C64.24,29,65.49,10.8,95,6.6Z"/><path class="cls-17" d="M85.14,31.21A14.86,14.86,0,0,0,68.63,18.35a14.84,14.84,0,0,0-27.88,3.57l-.2,0a14.84,14.84,0,0,0-6.77,26.8A14.84,14.84,0,0,0,60,60.13,14.85,14.85,0,0,0,82.28,42,14.8,14.8,0,0,0,85.14,31.21Z"/><path class="cls-18" d="M32.25,38a14.79,14.79,0,0,0,6.08,10.17,15.19,15.19,0,0,0,0,3.88A14.86,14.86,0,0,0,52.65,65a15.83,15.83,0,0,1-2.26.47A14.86,14.86,0,0,1,33.75,52.61a15.19,15.19,0,0,1,0-3.88,14.84,14.84,0,0,1,6.77-26.79l.2,0A14.86,14.86,0,0,1,53.41,10.16a15.69,15.69,0,0,1,2.3-.12,14.87,14.87,0,0,0-10.41,11.3c-.06,0-3.24,2.44-3.3,2.46C35,26.55,31.21,29.84,32.25,38Z"/><path class="cls-8" d="M85.14,31.21A14.86,14.86,0,0,0,68.63,18.35a14.84,14.84,0,0,0-27.88,3.57l-.2,0a14.84,14.84,0,0,0-6.77,26.8A14.84,14.84,0,0,0,60,60.13,14.85,14.85,0,0,0,82.28,42,14.8,14.8,0,0,0,85.14,31.21Z"/><line class="cls-19" x1="69.11" y1="18.48" x2="60.22" y2="28.64"/><line class="cls-19" x1="40.87" y1="22.09" x2="49.44" y2="31.18"/><line class="cls-19" x1="34.11" y1="48.88" x2="47.19" y2="42.58"/><line class="cls-19" x1="59.66" y1="60.43" x2="58.15" y2="48.59"/><line class="cls-19" x1="82.28" y1="41.79" x2="67.35" y2="40.93"/><circle class="cls-20" cx="57.19" cy="38.33" r="10.01" transform="translate(-4.4 7.57) rotate(-7.29)"/><path class="cls-21" d="M60.73,47.86a8.56,8.56,0,0,1-1.35.27,10,10,0,0,1-2.54-19.85,8.53,8.53,0,0,1,1.38-.07,10,10,0,0,0,2.52,19.65Z"/><circle class="cls-22" cx="57.19" cy="38.33" r="10.01" transform="translate(-4.4 7.57) rotate(-7.29)"/><path class="cls-13" d="M75.64,28.21q.22.16.07,0l.24.21a4.18,4.18,0,0,1,.43.45c-.11-.14.18.28.21.34a5.33,5.33,0,0,1,.28.56,1.51,1.51,0,0,0,2.05.54,1.54,1.54,0,0,0,.54-2.05,6.35,6.35,0,0,0-2.3-2.67,1.5,1.5,0,1,0-1.51,2.59Z"/><path class="cls-13" d="M72,25.78l.15,0a1.54,1.54,0,0,0,1.5-1.5c0-.73-.67-1.61-1.5-1.5l-.15,0a1.54,1.54,0,0,0-1.5,1.5c0,.73.67,1.61,1.5,1.5Z"/><path class="cls-13" d="M36.7,41.72l.91-.12a1.54,1.54,0,0,0,1.5-1.5c0-.73-.67-1.61-1.5-1.5l-.91.12a1.54,1.54,0,0,0-1.5,1.5c0,.73.67,1.61,1.5,1.5Z"/><path class="cls-13" d="M35.21,37.28l.46-.06a1.54,1.54,0,0,0,1.5-1.5c0-.73-.67-1.61-1.5-1.5l-.46.06a1.54,1.54,0,0,0-1.5,1.5c0,.73.67,1.61,1.5,1.5Z"/><rect class="cls-17" x="289.21" y="1.5" width="20.21" height="32.6" rx="10.1" ry="10.1"/><rect class="cls-17" x="258.9" y="1.5" width="20.21" height="32.6" rx="10.1" ry="10.1"/><path class="cls-18" d="M309.42,11.37V24.23a9.91,9.91,0,0,1-9.87,9.87h-.46a9.9,9.9,0,0,1-8.39-4.69,9.8,9.8,0,0,0,5.18,1.48h.46A9.91,9.91,0,0,0,306.2,21V8.16A9.79,9.79,0,0,0,304.73,3,9.9,9.9,0,0,1,309.42,11.37Z"/><path class="cls-18" d="M279.11,11.37V24.23a9.91,9.91,0,0,1-9.87,9.87h-.46a9.9,9.9,0,0,1-8.39-4.69,9.8,9.8,0,0,0,5.18,1.48H266A9.91,9.91,0,0,0,275.9,21V8.16A9.79,9.79,0,0,0,274.42,3,9.9,9.9,0,0,1,279.11,11.37Z"/><rect class="cls-8" x="289.21" y="1.5" width="20.21" height="32.6" rx="10.1" ry="10.1"/><rect class="cls-8" x="258.9" y="1.5" width="20.21" height="32.6" rx="10.1" ry="10.1"/><path class="cls-15" d="M325.44,6.34h0a6.25,6.25,0,0,0,4.71,3.42h0a6.25,6.25,0,0,1,3.47,10.67h0a6.25,6.25,0,0,0-1.8,5.54h0a6.25,6.25,0,0,1-9.07,6.59h0a6.25,6.25,0,0,0-5.82,0h0A6.25,6.25,0,0,1,307.85,26h0a6.25,6.25,0,0,0-1.8-5.54h0a6.25,6.25,0,0,1,3.47-10.67h0a6.25,6.25,0,0,0,4.71-3.42h0A6.25,6.25,0,0,1,325.44,6.34Z"/><path class="cls-16" d="M333.61,20.43a6.28,6.28,0,0,0-1.89,4.48,6.14,6.14,0,0,0,.09,1.06,6.72,6.72,0,0,1,.09,1.1,6.26,6.26,0,0,1-9.17,5.5,6.25,6.25,0,0,0-5.82,0,6.18,6.18,0,0,1-2.9.73,6.35,6.35,0,0,1-5.88-4.06A6.33,6.33,0,0,0,312.47,31a6.18,6.18,0,0,0,2.9-.73,6.25,6.25,0,0,1,5.82,0,6.26,6.26,0,0,0,9.17-5.5,6.72,6.72,0,0,0-.09-1.1,6.14,6.14,0,0,1-.09-1.06,6.28,6.28,0,0,1,1.89-4.48,6.15,6.15,0,0,0,1.9-4.44,6.31,6.31,0,0,0-.43-2.27,6.33,6.33,0,0,1,2,4.59A6.15,6.15,0,0,1,333.61,20.43Z"/><path class="cls-8" d="M325.44,6.34h0a6.25,6.25,0,0,0,4.71,3.42h0a6.25,6.25,0,0,1,3.47,10.67h0a6.25,6.25,0,0,0-1.8,5.54h0a6.25,6.25,0,0,1-9.07,6.59h0a6.25,6.25,0,0,0-5.82,0h0A6.25,6.25,0,0,1,307.85,26h0a6.25,6.25,0,0,0-1.8-5.54h0a6.25,6.25,0,0,1,3.47-10.67h0a6.25,6.25,0,0,0,4.71-3.42h0A6.25,6.25,0,0,1,325.44,6.34Z"/><path class="cls-16" d="M309.52,15.33a4,4,0,0,1,2.32-.44,5,5,0,0,1,2.07.7,4.73,4.73,0,0,1,1.59,1.59,3.39,3.39,0,0,1,.46,2.37,15.81,15.81,0,0,1-2.06-.63,9,9,0,0,1-1.55-.76A8.61,8.61,0,0,1,310.92,17,8.39,8.39,0,0,1,309.52,15.33Z"/><path class="cls-16" d="M319.46,15.93A3.36,3.36,0,0,1,317,14.59a4.34,4.34,0,0,1-.91-2.78,4.62,4.62,0,0,1,1-2.68,5,5,0,0,1,1-.93,4.65,4.65,0,0,1,1.3-.54A8.16,8.16,0,0,1,319.33,9c0,.41-.08.76-.1,1.11-.07.68-.09,1.25-.13,1.79A19.08,19.08,0,0,0,319.46,15.93Z"/><path class="cls-16" d="M321.77,17.6a2.75,2.75,0,0,1-.22-2.3,3.64,3.64,0,0,1,3.56-2.49,3,3,0,0,1,2.09.91,16.84,16.84,0,0,1-1.48,1.37c-.42.32-.73.61-1.08.83s-.7.45-1.15.7Z"/><path class="cls-16" d="M321,20.7a2.93,2.93,0,0,1,1.87-.23,3,3,0,0,1,2.31,2.18,2.36,2.36,0,0,1-.3,1.93c-.75-.23-1.21-.36-1.61-.54a3.16,3.16,0,0,1-1-.63,3.57,3.57,0,0,1-.75-1A5.57,5.57,0,0,1,321,20.7Z"/><path class="cls-16" d="M313.77,25.94a2.79,2.79,0,0,1,.53-3.17,2.84,2.84,0,0,1,1.42-.78,2.26,2.26,0,0,1,1.85.39c-.24.73-.36,1.17-.52,1.56a2.75,2.75,0,0,1-.61.93,3.15,3.15,0,0,1-1,.66A5.4,5.4,0,0,1,313.77,25.94Z"/><path class="cls-13" d="M326.22,19.58l.77.19a1.5,1.5,0,0,0,.8-2.89l-.77-.19a1.5,1.5,0,1,0-.8,2.89Z"/><path class="cls-13" d="M329.31,17.16a1.5,1.5,0,0,0,0-3,1.5,1.5,0,0,0,0,3Z"/><path class="cls-13" d="M319.23,17.65a.42.42,0,0,1,.16.33,1.5,1.5,0,1,0-3,0,2.71,2.71,0,0,0,1.33,2.26,1.5,1.5,0,1,0,1.51-2.59Z"/><path class="cls-13" d="M263.83,14.36v.92a1.5,1.5,0,0,0,3,0v-.92a1.5,1.5,0,0,0-3,0Z"/><path class="cls-13" d="M268,14.32l.45,1.38a1.53,1.53,0,0,0,1.85,1,1.52,1.52,0,0,0,1-1.85l-.45-1.38a1.53,1.53,0,0,0-1.85-1,1.52,1.52,0,0,0-1,1.85Z"/><path class="cls-15" d="M275.73,203h0a7.08,7.08,0,0,0,5.33,3.87h0A7.08,7.08,0,0,1,285,218.94h0a7.08,7.08,0,0,0-2,6.27h0a7.08,7.08,0,0,1-10.27,7.46h0a7.08,7.08,0,0,0-6.59,0h0a7.08,7.08,0,0,1-10.27-7.46h0a7.08,7.08,0,0,0-2-6.27h0a7.08,7.08,0,0,1,3.92-12.08h0A7.08,7.08,0,0,0,263,203h0A7.08,7.08,0,0,1,275.73,203Z"/><path class="cls-16" d="M285,218.94a7.11,7.11,0,0,0-2.14,5.07,7,7,0,0,0,.11,1.2,7.61,7.61,0,0,1,.11,1.24,7.09,7.09,0,0,1-10.38,6.22,7.07,7.07,0,0,0-6.59,0,7,7,0,0,1-3.29.82,7.19,7.19,0,0,1-6.65-4.6,7.17,7.17,0,0,0,4.9,2,7,7,0,0,0,3.29-.82,7.07,7.07,0,0,1,6.59,0,7.09,7.09,0,0,0,10.38-6.22,7.61,7.61,0,0,0-.11-1.24,7,7,0,0,1-.11-1.2,7.11,7.11,0,0,1,2.14-5.07,7,7,0,0,0,2.15-5,7.14,7.14,0,0,0-.48-2.57,7.17,7.17,0,0,1,2.24,5.2A7,7,0,0,1,285,218.94Z"/><path class="cls-8" d="M275.73,203h0a7.08,7.08,0,0,0,5.33,3.87h0A7.08,7.08,0,0,1,285,218.94h0a7.08,7.08,0,0,0-2,6.27h0a7.08,7.08,0,0,1-10.27,7.46h0a7.08,7.08,0,0,0-6.59,0h0a7.08,7.08,0,0,1-10.27-7.46h0a7.08,7.08,0,0,0-2-6.27h0a7.08,7.08,0,0,1,3.92-12.08h0A7.08,7.08,0,0,0,263,203h0A7.08,7.08,0,0,1,275.73,203Z"/><path class="cls-16" d="M257.71,213.17a4.59,4.59,0,0,1,2.56-.36,6,6,0,0,1,2.3.81,5.61,5.61,0,0,1,1.8,1.74,3.9,3.9,0,0,1,.63,2.57,19.51,19.51,0,0,1-2.23-.83,13.67,13.67,0,0,1-1.76-.92,12.28,12.28,0,0,1-1.66-1.21A10.06,10.06,0,0,1,257.71,213.17Z"/><path class="cls-16" d="M269,213.85a3.87,3.87,0,0,1-2.62-1.59,4.94,4.94,0,0,1-1-3.08,5.31,5.31,0,0,1,1-3,5.86,5.86,0,0,1,1.08-1.06,5.51,5.51,0,0,1,1.39-.66,9.1,9.1,0,0,1-.15,1.46c0,.46-.13.85-.17,1.24-.12.77-.16,1.44-.2,2.08A17.12,17.12,0,0,0,269,213.85Z"/><path class="cls-16" d="M271.57,215.74a3.13,3.13,0,0,1-.13-2.51,4.18,4.18,0,0,1,3.94-2.75,3.47,3.47,0,0,1,2.32.88,9.09,9.09,0,0,1-.93.79c-.27.25-.55.4-.78.6-.49.34-.88.67-1.3.93Z"/><path class="cls-16" d="M270.7,219.24a3.26,3.26,0,0,1,2-.13,3.64,3.64,0,0,1,1.58.85,3.6,3.6,0,0,1,1,1.58,2.63,2.63,0,0,1-.21,2.09,17.11,17.11,0,0,1-1.69-.7,4.44,4.44,0,0,1-1.12-.77,4.81,4.81,0,0,1-.89-1.13A6.13,6.13,0,0,1,270.7,219.24Z"/><path class="cls-16" d="M262.52,225.18a3.11,3.11,0,0,1-.11-2,3.33,3.33,0,0,1,2.4-2.38,2.51,2.51,0,0,1,2,.32,17.06,17.06,0,0,1-.68,1.63,3.84,3.84,0,0,1-.74,1,4.23,4.23,0,0,1-1.1.79A5.86,5.86,0,0,1,262.52,225.18Z"/><path class="cls-15" d="M318.9,203h0a7.08,7.08,0,0,0,5.33,3.87h0a7.08,7.08,0,0,1,3.92,12.08h0a7.08,7.08,0,0,0-2,6.27h0a7.08,7.08,0,0,1-10.27,7.46h0a7.08,7.08,0,0,0-6.59,0h0A7.08,7.08,0,0,1,299,225.21h0a7.08,7.08,0,0,0-2-6.27h0a7.08,7.08,0,0,1,3.92-12.08h0A7.08,7.08,0,0,0,306.2,203h0A7.08,7.08,0,0,1,318.9,203Z"/><path class="cls-16" d="M328.15,218.94A7.11,7.11,0,0,0,326,224a7,7,0,0,0,.11,1.2,7.61,7.61,0,0,1,.11,1.24,7.09,7.09,0,0,1-10.38,6.22,7.07,7.07,0,0,0-6.59,0,7,7,0,0,1-3.29.82,7.19,7.19,0,0,1-6.65-4.6,7.17,7.17,0,0,0,4.9,2,7,7,0,0,0,3.29-.82,7.07,7.07,0,0,1,6.59,0,7.09,7.09,0,0,0,10.38-6.22,7.61,7.61,0,0,0-.11-1.24,7,7,0,0,1-.11-1.2,7.11,7.11,0,0,1,2.14-5.07,7,7,0,0,0,2.15-5,7.14,7.14,0,0,0-.48-2.57,7.17,7.17,0,0,1,2.24,5.2A7,7,0,0,1,328.15,218.94Z"/><path class="cls-8" d="M318.9,203h0a7.08,7.08,0,0,0,5.33,3.87h0a7.08,7.08,0,0,1,3.92,12.08h0a7.08,7.08,0,0,0-2,6.27h0a7.08,7.08,0,0,1-10.27,7.46h0a7.08,7.08,0,0,0-6.59,0h0A7.08,7.08,0,0,1,299,225.21h0a7.08,7.08,0,0,0-2-6.27h0a7.08,7.08,0,0,1,3.92-12.08h0A7.08,7.08,0,0,0,306.2,203h0A7.08,7.08,0,0,1,318.9,203Z"/><path class="cls-16" d="M300.88,213.17a4.59,4.59,0,0,1,2.56-.36,6,6,0,0,1,2.3.81,5.61,5.61,0,0,1,1.8,1.74,3.9,3.9,0,0,1,.63,2.57,19.51,19.51,0,0,1-2.23-.83,13.67,13.67,0,0,1-1.76-.92,12.28,12.28,0,0,1-1.66-1.21A10.06,10.06,0,0,1,300.88,213.17Z"/><path class="cls-16" d="M312.13,213.85a3.87,3.87,0,0,1-2.62-1.59,4.94,4.94,0,0,1-1-3.08,5.31,5.31,0,0,1,1-3,5.86,5.86,0,0,1,1.08-1.06,5.51,5.51,0,0,1,1.39-.66,9.1,9.1,0,0,1-.15,1.46c0,.46-.13.85-.17,1.24-.12.77-.16,1.44-.2,2.08A17.12,17.12,0,0,0,312.13,213.85Z"/><path class="cls-16" d="M314.74,215.74a3.13,3.13,0,0,1-.13-2.51,4.18,4.18,0,0,1,3.94-2.75,3.47,3.47,0,0,1,2.32.88,9.09,9.09,0,0,1-.93.79c-.27.25-.55.4-.78.6-.49.34-.88.67-1.3.93Z"/><path class="cls-16" d="M313.86,219.24a3.26,3.26,0,0,1,2-.13,3.64,3.64,0,0,1,1.58.85,3.6,3.6,0,0,1,1,1.58,2.63,2.63,0,0,1-.21,2.09,17.11,17.11,0,0,1-1.69-.7,4.44,4.44,0,0,1-1.12-.77,4.81,4.81,0,0,1-.89-1.13A6.13,6.13,0,0,1,313.86,219.24Z"/><path class="cls-16" d="M305.68,225.18a3.11,3.11,0,0,1-.11-2,3.33,3.33,0,0,1,2.4-2.38,2.51,2.51,0,0,1,2,.32,17.06,17.06,0,0,1-.68,1.63,3.84,3.84,0,0,1-.74,1,4.23,4.23,0,0,1-1.1.79A5.86,5.86,0,0,1,305.68,225.18Z"/><path class="cls-23" d="M314.55,171.39h33.17a7.77,7.77,0,0,1,7.77,7.77v0a7.77,7.77,0,0,1-7.77,7.77H314.55a0,0,0,0,1,0,0V171.39a0,0,0,0,1,0,0Z"/><path class="cls-24" d="M354.58,178.19a8,8,0,0,1-2.15,5.5,7.16,7.16,0,0,1-5.2,2.27h-33.6v-2.43h31.3a7.16,7.16,0,0,0,5.2-2.27,8.14,8.14,0,0,0,1-9.63A7.85,7.85,0,0,1,354.58,178.19Z"/><path class="cls-8" d="M314.55,171.39h33.17a7.77,7.77,0,0,1,7.77,7.77v0a7.77,7.77,0,0,1-7.77,7.77H314.55a0,0,0,0,1,0,0V171.39a0,0,0,0,1,0,0Z"/><path class="cls-13" d="M107.36,35.76h42.86a1.5,1.5,0,0,0,0-3H107.36a1.5,1.5,0,0,0,0,3Z"/><path class="cls-13" d="M239.62,218.88H195.53a1.5,1.5,0,0,0,0,3h44.09a1.5,1.5,0,0,0,0-3Z"/></g></g></svg>