<svg xmlns="http://www.w3.org/2000/svg" viewBox="0 0 75.62 85.95"><defs><style>.cls-1{fill:#bdd344;}.cls-2{fill:#72a03d;}.cls-3{fill:#6c4735;}.cls-4{fill:#d39d48;}.cls-5{fill:#cd896d;}.cls-6{fill:#b56d54;}.cls-7{fill:#fff;}.cls-8{fill:#ffc849;}.cls-9{fill:#efb33c;}.cls-10{fill:#fff1b8;}.cls-11{fill:#f4e5a6;}</style></defs><title>Asset 11</title><g id="Layer_2" data-name="Layer 2"><g id="Layer_1-2" data-name="Layer 1"><path class="cls-1" d="M2.72,20.59A2.71,2.71,0,0,0,1.11,23,13.64,13.64,0,0,0,6,35.58c6.26,4.95,15,5,23.57,2.74a3.19,3.19,0,0,0,2.24-4.06l-1.3-4C29,25.61,22.77,14.41,2.72,20.59Z"/><path class="cls-2" d="M7.69,24.55a15.78,15.78,0,0,1,5.11-.06,22.85,22.85,0,0,1,4.9,1.25A20.5,20.5,0,0,1,22.2,28.1a13.11,13.11,0,0,1,3.58,3.7c-1.69-.5-3.18-1.07-4.69-1.61s-3-1.09-4.46-1.65-3-1.15-4.46-1.78A40.92,40.92,0,0,1,7.69,24.55Z"/><path class="cls-2" d="M30.78,37.73a3.16,3.16,0,0,1-1.18.59C21.08,40.53,12.29,40.53,6,35.58A13.63,13.63,0,0,1,1.12,23a2.71,2.71,0,0,1,1.61-2.37L3,20.5C3.58,26.17,7.24,41.31,30.78,37.73Z"/><path class="cls-3" d="M19.44,40.73c-5.61,0-10.36-1.47-14-4.37A14.54,14.54,0,0,1,.12,22.84a3.66,3.66,0,0,1,2.31-3.2h0C24.68,12.77,30.54,27,31.49,29.94l1.3,4a4.13,4.13,0,0,1-.31,3.29,4.21,4.21,0,0,1-2.63,2A41.67,41.67,0,0,1,19.44,40.73ZM3,21.55c-.52.16-.83.9-.91,1.53A12.6,12.6,0,0,0,6.65,34.8c6.65,5.25,16,4.29,22.7,2.56a2.19,2.19,0,0,0,1.54-2.79l-1.3-4C28.4,26.89,23,15.39,3,21.55Z"/><path class="cls-4" d="M66.42,44.35c0,3-12.21,5.41-27.27,5.41s-27.27-2.42-27.27-5.41A1,1,0,0,1,12,44c1-2.8,12.8-5,27.19-5s26.17,2.22,27.19,5A1,1,0,0,1,66.42,44.35Z"/><path class="cls-3" d="M39.15,51.76c-4.89,0-29.27-.36-29.27-7.41a3,3,0,0,1,.23-1.16c2.41-6.08,26.31-6.26,29-6.26s26.63.18,29,6.26a3,3,0,0,1,.23,1.16C68.42,51.41,44,51.76,39.15,51.76ZM14.26,44.35c2.18,1.35,10.64,3.41,24.89,3.41S61.86,45.7,64,44.35C61.87,43,53.41,40.93,39.15,40.93S16.44,43,14.26,44.35Z"/><path class="cls-5" d="M65.65,58,61.8,74.65A12,12,0,0,1,50.11,84H28.2a12,12,0,0,1-11.69-9.3L12.65,58s-5-10-1-14H12a1,1,0,0,0-.08.4c0,3,12.21,5.41,27.27,5.41s27.27-2.42,27.27-5.41a1,1,0,0,0-.08-.4h.31C70.65,48,65.65,58,65.65,58Z"/><path class="cls-6" d="M66.4,56.25c-30.23,6.19-47,3.1-54.14.85-1.1-2.5-3.9-9.86-.61-13.15H12a1,1,0,0,0-.08.4c0,3,12.21,5.41,27.27,5.41s27.27-2.42,27.27-5.41a1,1,0,0,0-.08-.4h.31C69.62,46.92,67.62,53.22,66.4,56.25Z"/><path class="cls-3" d="M50.11,86H28.2A13.94,13.94,0,0,1,14.56,75.1l-3.8-16.47c-.91-1.88-5.17-11.44-.52-16.09l.59-.59h4.25l-1,2.25c1.79,1.34,10.33,3.56,25.11,3.56s23.32-2.22,25.11-3.56l-1-2.25h4.25l.59.59c4.65,4.65.39,14.2-.52,16.09L63.75,75.1A13.94,13.94,0,0,1,50.11,86Zm-38-38.31c-.31,2.94,1.22,7.26,2.3,9.42l.11.21L18.46,74.2A10,10,0,0,0,28.2,82H50.11a10,10,0,0,0,9.74-7.75l3.91-16.93.11-.21c1.08-2.16,2.6-6.48,2.3-9.42-6.16,3.88-23,4.12-27,4.12S18.3,51.53,12.14,47.64Z"/><path class="cls-3" d="M19.52,59.81c7.71,1.57,15.28,1.65,23.13,1.38,1.93-.06,1.93-3.06,0-3-7.55.25-14.9.24-22.33-1.28-1.88-.38-2.69,2.51-.8,2.89Z"/><path class="cls-3" d="M48.74,60.83a52.36,52.36,0,0,0,8.06-1.21c1.88-.44,1.08-3.33-.8-2.89a47.09,47.09,0,0,1-7.26,1.1c-1.91.14-1.93,3.14,0,3Z"/><path class="cls-7" d="M21.51,67.52,23,74.36c.41,1.89,3.3,1.09,2.89-.8l-1.48-6.84c-.41-1.89-3.3-1.09-2.89.8Z"/><path class="cls-7" d="M27,69.79a30.55,30.55,0,0,0,1,6.07,1.5,1.5,0,0,0,2.89-.8A26.48,26.48,0,0,1,30,69.79c-.13-1.92-3.13-1.93-3,0Z"/><path class="cls-1" d="M69,46.11A2.71,2.71,0,0,1,69.22,49a13.64,13.64,0,0,1-10.39,8.69c-7.87,1.32-15.57-2.91-22-9a3.19,3.19,0,0,1,0-4.64l3.07-2.88C43.48,37.82,54.37,31,69,46.11Z"/><path class="cls-2" d="M62.69,47.17a40.92,40.92,0,0,1-5-.23c-1.61-.16-3.19-.36-4.76-.59s-3.13-.45-4.71-.71-3.16-.47-4.88-.85a13.11,13.11,0,0,1,4.92-1.51,20.5,20.5,0,0,1,5.09.1,22.85,22.85,0,0,1,4.89,1.27A15.78,15.78,0,0,1,62.69,47.17Z"/><path class="cls-2" d="M36.1,47.6a3.16,3.16,0,0,0,.75,1.08c6.4,6,14.1,10.28,22,9A13.63,13.63,0,0,0,69.22,49a2.71,2.71,0,0,0-.27-2.85l-.22-.22C65.51,50.58,55,62.07,36.1,47.6Z"/><path class="cls-3" d="M55.94,58.88c-6.39,0-13.16-3.23-19.77-9.47a4.21,4.21,0,0,1-1.31-3.06,4.13,4.13,0,0,1,1.31-3l3.07-2.88c2.24-2.11,14.25-11.76,30.43,5h0a3.66,3.66,0,0,1,.48,3.92A14.54,14.54,0,0,1,59,58.63,18.45,18.45,0,0,1,55.94,58.88ZM51,37.69a15.41,15.41,0,0,0-10.42,4.19l-3.07,2.88a2.15,2.15,0,0,0-.68,1.58,2.18,2.18,0,0,0,.69,1.6c5,4.74,12.76,10.1,21.12,8.7a12.6,12.6,0,0,0,9.63-8.08,1.82,1.82,0,0,0-.06-1.78h0C61.47,39.81,55.63,37.69,51,37.69Z"/><path class="cls-1" d="M7.64,42.05a2.71,2.71,0,0,0-.81,2.74,13.64,13.64,0,0,0,8.51,10.54c7.47,2.82,15.84.15,23.29-4.54a3.19,3.19,0,0,0,.9-4.55l-2.46-3.42C34.23,38.85,24.86,30.07,7.64,42.05Z"/><path class="cls-2" d="M13.58,44.31a15.78,15.78,0,0,1,4.85-1.61,22.85,22.85,0,0,1,5-.3,20.5,20.5,0,0,1,5,.89A13.11,13.11,0,0,1,33,45.72c-1.76,0-3.35-.06-5-.11s-3.17-.13-4.75-.22-3.17-.19-4.79-.35A40.94,40.94,0,0,1,13.58,44.31Z"/><path class="cls-2" d="M39.58,49.86a3.16,3.16,0,0,1-.95.92c-7.45,4.7-15.82,7.36-23.29,4.54A13.63,13.63,0,0,1,6.83,44.79,2.71,2.71,0,0,1,7.65,42l.26-.18C10.15,47.1,18.23,60.41,39.58,49.86Z"/><path class="cls-3" d="M21.82,57.47A19.23,19.23,0,0,1,15,56.26,14.55,14.55,0,0,1,5.85,45a3.66,3.66,0,0,1,1.23-3.75h0c19.11-13.3,29-1.5,30.82,1l2.46,3.42a4.14,4.14,0,0,1,.7,3.24,4.21,4.21,0,0,1-1.88,2.75C33,55.5,27.14,57.47,21.82,57.47Zm2-20.5c-4.12,0-9.28,1.51-15.59,5.9h0a1.81,1.81,0,0,0-.4,1.73,12.6,12.6,0,0,0,7.88,9.79c7.93,3,16.56-.77,22.41-4.45a2.17,2.17,0,0,0,1-1.44,2.15,2.15,0,0,0-.37-1.69l-2.46-3.42A15.25,15.25,0,0,0,23.81,37Z"/><path class="cls-8" d="M41,14.22a8.92,8.92,0,0,0-9.92-7.72A8.91,8.91,0,0,0,14.39,8.64h-.12a8.91,8.91,0,0,0-4.06,16.09,8.91,8.91,0,0,0,15.73,6.84A8.92,8.92,0,0,0,39.33,20.7,8.89,8.89,0,0,0,41,14.22Z"/><path class="cls-9" d="M9.29,18.28a8.88,8.88,0,0,0,3.65,6.1,9.12,9.12,0,0,0,0,2.33,8.92,8.92,0,0,0,8.61,7.79,9.51,9.51,0,0,1-1.36.28,8.92,8.92,0,0,1-10-7.72,9.12,9.12,0,0,1,0-2.33A8.91,8.91,0,0,1,14.27,8.65h.12A8.92,8.92,0,0,1,22,1.57a9.42,9.42,0,0,1,1.38-.07,8.93,8.93,0,0,0-6.25,6.79s-1.94,1.46-2,1.48C10.91,11.42,8.66,13.39,9.29,18.28Z"/><path class="cls-3" d="M19,36.36A10.44,10.44,0,0,1,8.7,27.26a10.28,10.28,0,0,1-.06-1.85A10.4,10.4,0,0,1,7.16,11.12a10.33,10.33,0,0,1,6-3.81A10.41,10.41,0,0,1,32,4.93h.22A10.45,10.45,0,0,1,42.54,14h0A10.36,10.36,0,0,1,41,20.89,10.42,10.42,0,0,1,26.19,33.51a10.36,10.36,0,0,1-5.83,2.76A10.75,10.75,0,0,1,19,36.36ZM23.13,3a7.3,7.3,0,0,0-.94.06,7.42,7.42,0,0,0-6.32,5.88L15.64,10l-1.22.12a7.41,7.41,0,0,0-3.34,13.38l.73.53-.12.89a7.41,7.41,0,0,0,13.09,5.69l.9-1.1,1.15.84a7.42,7.42,0,0,0,11.13-9l-.37-.81.53-.71A7.41,7.41,0,0,0,31.31,8l-1.06.13-.47-1A7.42,7.42,0,0,0,23.13,3Z"/><path class="cls-3" d="M26.08,13.18a.5.5,0,0,1-.38-.83L31,6.24a.5.5,0,1,1,.75.66L26.46,13A.5.5,0,0,1,26.08,13.18Z"/><path class="cls-3" d="M19.61,14.7a.5.5,0,0,1-.36-.16L14.1,9.09a.5.5,0,1,1,.73-.69L20,13.86a.5.5,0,0,1-.36.84Z"/><path class="cls-3" d="M10.41,25.33a.5.5,0,0,1-.22-1L18,20.59a.5.5,0,0,1,.43.9l-7.85,3.79A.49.49,0,0,1,10.41,25.33Z"/><path class="cls-3" d="M25.75,32.26a.5.5,0,0,1-.5-.44l-.91-7.11a.5.5,0,0,1,1-.13l.91,7.11a.5.5,0,0,1-.43.56Z"/><path class="cls-3" d="M39.33,21.07h0l-9-.52a.5.5,0,0,1-.47-.53.49.49,0,0,1,.53-.47l9,.52a.5.5,0,0,1,0,1Z"/><circle class="cls-10" cx="24.27" cy="18.49" r="6.01" transform="translate(-2.15 3.23) rotate(-7.29)"/><path class="cls-11" d="M26.39,24.21a5.14,5.14,0,0,1-.81.17A6,6,0,0,1,24,12.46a5.12,5.12,0,0,1,.83,0,6,6,0,0,0,1.51,11.8Z"/><path class="cls-3" d="M24.25,25a6.51,6.51,0,1,1,6.47-7.34h0A6.52,6.52,0,0,1,24.25,25Zm0-12a5.54,5.54,0,0,0-.7,0,5.51,5.51,0,1,0,.7,0Z"/><path class="cls-7" d="M35,12.93c-.16-.11.3.3.25.24s.09.14.1.16a3.49,3.49,0,0,1,.17.34,1.51,1.51,0,0,0,2.05.54,1.54,1.54,0,0,0,.54-2.05,4.49,4.49,0,0,0-1.6-1.82,1.51,1.51,0,0,0-2.05.54A1.53,1.53,0,0,0,35,12.93Z"/><path class="cls-7" d="M33.16,11.56h.09a1.54,1.54,0,0,0,1.5-1.5c0-.73-.67-1.61-1.5-1.5h-.09a1.54,1.54,0,0,0-1.5,1.5c0,.73.67,1.61,1.5,1.5Z"/><path class="cls-7" d="M12,21.12l.55-.07a1.54,1.54,0,0,0,1.5-1.5c0-.73-.67-1.61-1.5-1.5l-.55.07a1.54,1.54,0,0,0-1.5,1.5c0,.73.67,1.61,1.5,1.5Z"/><path class="cls-7" d="M11.07,18.46l.27,0a1.54,1.54,0,0,0,1.5-1.5c0-.73-.67-1.61-1.5-1.5l-.27,0A1.54,1.54,0,0,0,9.57,17c0,.73.67,1.61,1.5,1.5Z"/><path class="cls-8" d="M39.55,20.22a8.92,8.92,0,0,1,9.92-7.72,8.91,8.91,0,0,1,16.74,2.15h.12a8.91,8.91,0,0,1,4.06,16.09,8.91,8.91,0,0,1-15.73,6.84A8.92,8.92,0,0,1,41.27,26.7,8.89,8.89,0,0,1,39.55,20.22Z"/><path class="cls-9" d="M71.31,24.28a8.88,8.88,0,0,1-3.65,6.1,9.12,9.12,0,0,1,0,2.33,8.92,8.92,0,0,1-8.61,7.79,9.51,9.51,0,0,0,1.36.28,8.92,8.92,0,0,0,10-7.72,9.12,9.12,0,0,0,0-2.33,8.91,8.91,0,0,0-4.07-16.09h-.12a8.92,8.92,0,0,0-7.6-7.07,9.42,9.42,0,0,0-1.38-.07,8.93,8.93,0,0,1,6.25,6.79s1.94,1.46,2,1.48C69.69,17.42,71.94,19.39,71.31,24.28Z"/><path class="cls-3" d="M61.57,42.36a10.57,10.57,0,0,1-1.33-.08,10.36,10.36,0,0,1-5.83-2.76A10.41,10.41,0,0,1,39.07,29.06a10.52,10.52,0,0,1,.52-2.17A10.36,10.36,0,0,1,38.07,20h0a10.45,10.45,0,0,1,10.34-9.1h.22a10.41,10.41,0,0,1,18.79,2.38A10.41,10.41,0,0,1,72,31.41a10.38,10.38,0,0,1-10.4,10.95Zm-6.64-6.83.9,1.1a7.41,7.41,0,0,0,13.1-3.75,7.49,7.49,0,0,0,0-1.94L68.79,30l.73-.53a7.35,7.35,0,0,0,3-5.08,7.43,7.43,0,0,0-6.42-8.3L65,16l-.22-1.09a7.41,7.41,0,0,0-13.92-1.78l-.47,1L49.29,14A7.41,7.41,0,0,0,42.47,25.8l.53.71-.37.81a7.42,7.42,0,0,0,5.82,10.42,7.36,7.36,0,0,0,5.32-1.37Z"/><path class="cls-3" d="M54.52,19.18a.5.5,0,0,1-.38-.17l-5.33-6.1a.5.5,0,0,1,.75-.66l5.33,6.1a.5.5,0,0,1-.38.83Z"/><path class="cls-3" d="M61,20.7a.5.5,0,0,1-.36-.84l5.15-5.46a.5.5,0,1,1,.73.69l-5.15,5.46A.5.5,0,0,1,61,20.7Z"/><path class="cls-3" d="M70.2,31.33a.49.49,0,0,1-.22,0l-7.85-3.79a.5.5,0,0,1,.43-.9l7.85,3.79a.5.5,0,0,1-.22,1Z"/><path class="cls-3" d="M54.86,38.26h-.06a.5.5,0,0,1-.43-.56l.91-7.11a.5.5,0,0,1,1,.13l-.91,7.11A.5.5,0,0,1,54.86,38.26Z"/><path class="cls-3" d="M41.28,27.07a.5.5,0,0,1,0-1l9-.52a.49.49,0,0,1,.53.47.5.5,0,0,1-.47.53l-9,.52Z"/><circle class="cls-10" cx="56.34" cy="24.49" r="6.01" transform="matrix(0.13, -0.99, 0.99, 0.13, 24.89, 77.26)"/><path class="cls-11" d="M54.21,30.21a5.14,5.14,0,0,0,.81.17,6,6,0,0,0,1.53-11.92,5.12,5.12,0,0,0-.83,0,6,6,0,0,1-1.51,11.8Z"/><path class="cls-3" d="M56.34,31a6.64,6.64,0,0,1-.83-.05,6.51,6.51,0,1,1,.83.05Zm0-12a5.51,5.51,0,0,0-5.45,4.81h0A5.51,5.51,0,1,0,57,19,5.63,5.63,0,0,0,56.32,19Z"/><path class="cls-7" d="M44,16.34a4.49,4.49,0,0,0-1.6,1.82A1.55,1.55,0,0,0,43,20.22,1.51,1.51,0,0,0,45,19.68c0-.09.08-.19.13-.28s.22-.33.14-.23.12-.12.14-.14.28-.22.11-.1a1.54,1.54,0,0,0,.54-2.05A1.51,1.51,0,0,0,44,16.34Z"/><path class="cls-7" d="M47.44,14.56h-.09a1.5,1.5,0,0,0-1.5,1.5,1.55,1.55,0,0,0,1.5,1.5h.09a1.5,1.5,0,0,0,1.5-1.5,1.55,1.55,0,0,0-1.5-1.5Z"/><path class="cls-7" d="M68.64,24.12l-.55-.07a1.5,1.5,0,0,0-1.5,1.5,1.55,1.55,0,0,0,1.5,1.5l.55.07a1.5,1.5,0,0,0,1.5-1.5,1.55,1.55,0,0,0-1.5-1.5Z"/><path class="cls-7" d="M69.54,21.46l-.27,0a1.5,1.5,0,0,0-1.5,1.5,1.55,1.55,0,0,0,1.5,1.5l.27,0A1.5,1.5,0,0,0,71,23a1.55,1.55,0,0,0-1.5-1.5Z"/><path class="cls-8" d="M57.71,26.93a10.17,10.17,0,0,0-11.3-8.8,10.16,10.16,0,0,0-19.08,2.44h-.14a10.16,10.16,0,0,0-4.63,18.34,10.15,10.15,0,0,0,17.93,7.8A10.16,10.16,0,0,0,55.75,34.33,10.13,10.13,0,0,0,57.71,26.93Z"/><path class="cls-9" d="M21.52,31.57a10.12,10.12,0,0,0,4.16,7,10.4,10.4,0,0,0,0,2.66,10.17,10.17,0,0,0,9.81,8.87,10.83,10.83,0,0,1-1.55.32,10.16,10.16,0,0,1-11.38-8.79,10.4,10.4,0,0,1,0-2.66,10.16,10.16,0,0,1,4.64-18.33h.14A10.17,10.17,0,0,1,36,12.53a10.74,10.74,0,0,1,1.57-.08,10.17,10.17,0,0,0-7.12,7.73s-2.21,1.67-2.26,1.68C23.37,23.75,20.8,26,21.52,31.57Z"/><path class="cls-3" d="M32.62,52A11.68,11.68,0,0,1,21.06,41.77,11.47,11.47,0,0,1,21,39.6a11.65,11.65,0,0,1,5.13-20.35,11.66,11.66,0,0,1,21.14-2.68A11.7,11.7,0,0,1,59.2,26.74h0a11.59,11.59,0,0,1-1.75,7.77,11.66,11.66,0,0,1-16.7,14.15,11.59,11.59,0,0,1-6.63,3.2A11.83,11.83,0,0,1,32.62,52Zm4.67-38a8.67,8.67,0,0,0-8.49,6.93L28.58,22l-1.23.13a8.67,8.67,0,0,0-7.47,9.69,8.58,8.58,0,0,0,3.55,5.93l.73.53-.12.89a8.65,8.65,0,0,0,15.28,6.64l.9-1.1,1.15.84a8.66,8.66,0,0,0,13-10.57L54,34.14l.53-.71a8.62,8.62,0,0,0,1.67-6.3h0a8.7,8.7,0,0,0-9.63-7.5l-1.06.13-.47-1A8.66,8.66,0,0,0,37.29,13.94Z"/><path class="cls-3" d="M40.66,25.68a.5.5,0,0,1-.38-.83l6.08-7a.5.5,0,0,1,.75.66l-6.08,7A.5.5,0,0,1,40.66,25.68Z"/><path class="cls-3" d="M33.28,27.42a.5.5,0,0,1-.36-.16L27,21a.5.5,0,0,1,.73-.69l5.86,6.22a.5.5,0,0,1-.36.84Z"/><path class="cls-3" d="M22.79,39.53a.5.5,0,0,1-.22-1l9-4.31a.5.5,0,1,1,.43.9l-9,4.31A.49.49,0,0,1,22.79,39.53Z"/><path class="cls-3" d="M40.27,47.43a.5.5,0,0,1-.5-.44l-1-8.1a.5.5,0,1,1,1-.13l1,8.1a.5.5,0,0,1-.43.56Z"/><path class="cls-3" d="M55.74,34.68h0L45.5,34.08a.5.5,0,0,1,.06-1l10.21.59a.5.5,0,0,1,0,1Z"/><circle class="cls-10" cx="38.58" cy="31.8" r="6.85" transform="translate(-3.73 5.16) rotate(-7.29)"/><path class="cls-11" d="M41,38.33a5.85,5.85,0,0,1-.93.19,6.85,6.85,0,0,1-1.74-13.58,5.84,5.84,0,0,1,.94-.05A6.84,6.84,0,0,0,41,38.33Z"/><path class="cls-3" d="M38.57,39.15a7.35,7.35,0,1,1,7.3-8.28h0a7.35,7.35,0,0,1-6.35,8.22A7.57,7.57,0,0,1,38.57,39.15Zm0-13.7A6.35,6.35,0,1,0,44.88,31h0A6.36,6.36,0,0,0,38.59,25.46Z"/><path class="cls-7" d="M51,25.29c-.15-.1.09.08.13.11a2.43,2.43,0,0,1,.27.29c-.09-.12,0,.06,0,.09s.15.28.22.43a1.51,1.51,0,0,0,2.05.54,1.54,1.54,0,0,0,.54-2.05,4.88,4.88,0,0,0-1.75-2,1.51,1.51,0,0,0-2.05.54A1.53,1.53,0,0,0,51,25.29Z"/><path class="cls-7" d="M48.72,23.69h.1a1.54,1.54,0,0,0,1.5-1.5c0-.73-.67-1.61-1.5-1.5h-.1a1.54,1.54,0,0,0-1.5,1.5c0,.73.67,1.61,1.5,1.5Z"/><path class="cls-7" d="M24.56,34.6l.62-.08a1.54,1.54,0,0,0,1.5-1.5c0-.73-.67-1.61-1.5-1.5l-.62.08a1.54,1.54,0,0,0-1.5,1.5c0,.73.67,1.61,1.5,1.5Z"/><path class="cls-7" d="M23.54,31.56l.31,0a1.54,1.54,0,0,0,1.5-1.5c0-.73-.67-1.61-1.5-1.5l-.31,0a1.54,1.54,0,0,0-1.5,1.5c0,.73.67,1.61,1.5,1.5Z"/></g></g></svg>