<svg xmlns="http://www.w3.org/2000/svg" viewBox="0 0 172 52"><defs><style>.cls-1{fill:#a1e2be;}.cls-2{fill:#7dc0b4;}.cls-3{fill:#6c4735;}.cls-4{fill:#fdffff;}</style></defs><title>Asset 22</title><g id="Layer_2" data-name="Layer 2"><g id="Layer_1-2" data-name="Layer 1"><rect class="cls-1" x="2" y="2" width="168" height="48" rx="12" ry="12"/><path class="cls-2" d="M170,13V37c0,6.63-7.52,12-16.8,12H18.8c-6.08,0-11.4-2.3-14.35-5.75A22,22,0,0,0,13.2,45H147.6c9.28,0,16.8-5.37,16.8-12V9A9.58,9.58,0,0,0,162,2.75C166.78,4.86,170,8.66,170,13Z"/><path class="cls-3" d="M158,52H14A14,14,0,0,1,0,38V14A14,14,0,0,1,14,0H158a14,14,0,0,1,14,14V38A14,14,0,0,1,158,52ZM14,4A10,10,0,0,0,4,14V38A10,10,0,0,0,14,48H158a10,10,0,0,0,10-10V14A10,10,0,0,0,158,4Z"/><path class="cls-4" d="M152.86,43.05l1.62,1.34a1.54,1.54,0,0,0,2.12,0,1.51,1.51,0,0,0,0-2.12L155,40.93a1.54,1.54,0,0,0-2.12,0,1.51,1.51,0,0,0,0,2.12Z"/><path class="cls-4" d="M156.75,38.76a11.94,11.94,0,0,0,3.78,2.32,1.51,1.51,0,0,0,1.85-1,1.54,1.54,0,0,0-1-1.85,8,8,0,0,1-2.45-1.55c-1.41-1.32-3.54.8-2.12,2.12Z"/><path class="cls-4" d="M14.68,15.34a6.36,6.36,0,0,1,1.67-3.84c1-.94,2.56-.85,3.82-.88,1.93,0,1.93-3,0-3-2.12,0-4.36.17-5.94,1.75a9.65,9.65,0,0,0-2.55,6c-.18,1.92,2.82,1.91,3,0Z"/><path class="cls-4" d="M27.2,10.17h.93a1.5,1.5,0,0,0,0-3H27.2a1.5,1.5,0,0,0,0,3Z"/></g></g></svg>