<svg xmlns="http://www.w3.org/2000/svg" xmlns:xlink="http://www.w3.org/1999/xlink" viewBox="0 0 722.65 919.38"><defs><style>.cls-1,.cls-10,.cls-24,.cls-25,.cls-9{fill:none;}.cls-2{clip-path:url(#clip-path);}.cls-3{fill:#fffdde;}.cls-4{fill:#f9f5cd;}.cls-5{fill:#cbefe8;}.cls-6{fill:#d3a15c;}.cls-7{fill:#c06272;}.cls-8{fill:#af5669;}.cls-24,.cls-25,.cls-9{stroke:#6c4735;}.cls-10,.cls-24,.cls-25,.cls-9{stroke-miterlimit:10;}.cls-10,.cls-9{stroke-width:5px;}.cls-10{stroke:#fcd3dd;}.cls-11{fill:#c48e4e;}.cls-12{fill:#bdd344;}.cls-13{fill:#b7755e;}.cls-14,.cls-22{fill:#fff;}.cls-14{opacity:0.51;}.cls-15{fill:#a65d3b;}.cls-16{fill:#72a03d;}.cls-17{fill:#fcf7f5;}.cls-18{fill:#eadad6;}.cls-19{fill:#fed06e;}.cls-20{fill:#f2c26b;}.cls-21{fill:#6c4735;}.cls-23{fill:#cd896d;}.cls-24{stroke-width:3px;}.cls-25{stroke-linecap:round;stroke-width:4px;}.cls-26{fill:#e1836e;}</style><clipPath id="clip-path"><rect class="cls-1" x="192.5" y="11" width="375" height="812"/></clipPath></defs><title>Asset 30</title><g id="Layer_2" data-name="Layer 2"><g id="Layer_1-2" data-name="Layer 1"><g class="cls-2"><rect class="cls-3" x="192.5" y="11" width="375" height="768.5"/><path class="cls-4" d="M567.5,11V779.5h-375v-84h0c160.71,0,291-130.29,291-291V11Z"/><rect class="cls-5" x="532.29" y="71.91" width="84.77" height="277.69"/><rect class="cls-6" x="192.5" y="779.5" width="375" height="43.5"/><ellipse class="cls-7" cx="169.5" cy="851.19" rx="160.5" ry="55.19"/><path class="cls-8" d="M331,850.19c0,7.69-4.57,15-12.84,21.67,3.48-4.52,5.34-9.27,5.34-14.17,0-30.48-71.86-55.19-160.5-55.19C96.73,802.5,39.83,816.31,15.34,836c18.2-23.62,80.77-41,155.16-41C259.14,795,331,819.71,331,850.19Z"/><ellipse class="cls-9" cx="169.5" cy="851.19" rx="160.5" ry="55.19"/><ellipse class="cls-10" cx="163" cy="861.69" rx="160.5" ry="55.19"/><rect class="cls-11" x="192.5" y="782" width="375" height="10"/><line class="cls-9" x1="571.5" y1="779.5" x2="172.5" y2="779.5"/><path class="cls-12" d="M707.71,327.57c-.16,0-.31,0-.47,0a12.6,12.6,0,0,0-5.88-14.36,12.87,12.87,0,0,0-16.49-19.37,12.53,12.53,0,0,0-11.38-14.7,12.87,12.87,0,0,0-17.68-17.68,12.9,12.9,0,1,0-21.28,11.07,12.85,12.85,0,0,0-4.46,9.7,12.79,12.79,0,0,0-1.7.17,12.6,12.6,0,0,0-15.14-6,12.8,12.8,0,0,0,.66-3.9,12.94,12.94,0,1,0-25.88,0,12.8,12.8,0,0,0,.66,3.9,12.6,12.6,0,0,0-15.22,6.13,12.89,12.89,0,1,0-19.8,15.85,12.51,12.51,0,0,0-3.8,13.6,12.8,12.8,0,0,0-3.9-.66A12.94,12.94,0,0,0,533,324.33a12.93,12.93,0,0,0-2.89,25.53,12.87,12.87,0,0,0,4.31,7l0,0,.26.14a12.81,12.81,0,0,0,5.46,2.63c17.83,7.81,76.65,27.26,162.34-7.33a12.93,12.93,0,1,0,5.23-24.76Z"/><path class="cls-9" d="M707.21,327.07c-.16,0-.31,0-.47,0a12.6,12.6,0,0,0-5.88-14.36,12.87,12.87,0,0,0-16.49-19.37A12.53,12.53,0,0,0,673,278.69,12.87,12.87,0,0,0,655.32,261,12.9,12.9,0,1,0,634,272.08a12.85,12.85,0,0,0-4.46,9.7,12.79,12.79,0,0,0-1.7.17,12.6,12.6,0,0,0-15.14-6,12.8,12.8,0,0,0,.66-3.9,12.94,12.94,0,1,0-25.88,0,12.8,12.8,0,0,0,.66,3.9A12.6,12.6,0,0,0,573,282.11,12.89,12.89,0,1,0,553.18,298a12.51,12.51,0,0,0-3.8,13.6,12.8,12.8,0,0,0-3.9-.66,12.94,12.94,0,0,0-12.94,12.94,12.93,12.93,0,0,0-2.89,25.53,12.87,12.87,0,0,0,4.31,7l0,0,.26.14a12.81,12.81,0,0,0,5.46,2.63c17.83,7.81,76.65,27.26,162.34-7.33a12.93,12.93,0,1,0,5.23-24.76Z"/><rect class="cls-13" x="526.94" y="220.5" width="89.64" height="9.74"/><rect class="cls-14" x="532.29" y="72.91" width="84.77" height="277.69"/><rect class="cls-15" x="191" y="94.83" width="14" height="504.53" rx="7" ry="7"/><rect class="cls-9" x="191" y="94.83" width="14" height="504.53" rx="7" ry="7"/><rect class="cls-15" x="223.5" y="301.56" width="14" height="330.14" rx="7" ry="7"/><rect class="cls-9" x="223.5" y="301.56" width="14" height="330.14" rx="7" ry="7"/><path class="cls-12" d="M217.65,230.93c-2.27,61.29-10.11,291.09-4.08,398.63H184s-22.33-318,24.59-401.19A4.85,4.85,0,0,1,217.65,230.93Z"/><path class="cls-16" d="M211.24,629.56H181.66s-.2-2.88-.52-8.16h25.44c-5.93-105.78,1.55-329.86,4-395.5a4.8,4.8,0,0,1,4.78,5C213,292.23,205.21,522,211.24,629.56Z"/><path class="cls-9" d="M217.65,231c-2.27,61.29-10.11,291.09-4.08,398.63H184s-22.33-318,24.59-401.19A4.85,4.85,0,0,1,217.65,231Z"/><path class="cls-12" d="M230.89,643.56s-14.83-197,20.13-304.34a1.44,1.44,0,0,0-2.65-1.08c-14.75,30.23-44.29,115.26-44.29,311.24h25.65Z"/><path class="cls-16" d="M248.36,339.22c-35,107.31-20.14,304.34-20.14,304.34l-1.17,5.83H201.41c0-2.36,0-4.69,0-7h22.13l1.17-5.83S211.82,465.11,238.47,355c2.62-6.88,5.08-12.43,7.23-16.82A1.44,1.44,0,0,1,248.36,339.22Z"/><path class="cls-9" d="M229.39,643.56s-14.83-197,20.13-304.34a1.44,1.44,0,0,0-2.65-1.08c-14.75,30.23-44.29,115.26-44.29,311.24h25.65Z"/><path class="cls-12" d="M243.88,659.88s-4.2-139.71,41.24-204.76a2.42,2.42,0,0,0-3.36-3.38c-22.36,15.86-70.79,66.53-71.69,208.13Z"/><path class="cls-16" d="M282.45,455.12c-45.44,65-41.24,204.76-41.24,204.76H207.4q0-3.53.09-7h30.22s-3.89-129.8,36.52-197.43c1.73-1.41,3.35-2.63,4.85-3.71A2.42,2.42,0,0,1,282.45,455.12Z"/><path class="cls-9" d="M242.38,659.88s-4.2-139.71,41.24-204.76a2.42,2.42,0,0,0-3.36-3.38c-22.36,15.86-70.79,66.53-71.69,208.13Z"/><path class="cls-17" d="M247.6,583h-90a22.55,22.55,0,0,0-22.55,22.55v202A22.55,22.55,0,0,0,157.63,830h49.81a22.55,22.55,0,0,0,22.12-18.15l40.15-202A22.55,22.55,0,0,0,247.6,583Z"/><path class="cls-18" d="M136.33,818.93A22.49,22.49,0,0,0,155.75,830h49.81a22.55,22.55,0,0,0,22.12-18.15l40.15-202a22.54,22.54,0,0,0-10.68-23.84,22.37,22.37,0,0,1,2.7,15.85l-40.15,202a22.55,22.55,0,0,1-22.12,18.15H147.76A22.31,22.31,0,0,1,136.33,818.93Z"/><path class="cls-19" d="M137,607.38v13.78H269.72l1.87-9.39a22.55,22.55,0,0,0-22.12-26.95h-90A22.55,22.55,0,0,0,137,607.38Z"/><path class="cls-20" d="M134.14,613v8.46H266.9l1.87-9.39a22.36,22.36,0,0,0,0-8.65c0,.07,0,.13,0,.2L266.9,613Z"/><path class="cls-9" d="M247.6,583h-90a22.55,22.55,0,0,0-22.55,22.55v202A22.55,22.55,0,0,0,157.63,830h49.81a22.55,22.55,0,0,0,22.12-18.15l40.15-202A22.55,22.55,0,0,0,247.6,583Z"/><path class="cls-21" d="M256.9,616.28h-114c-3.86,0-3.87,6,0,6h114c3.86,0,3.87-6,0-6Z"/><path class="cls-22" d="M202.17,607.5h42.67a1.5,1.5,0,0,0,0-3H202.17a1.5,1.5,0,0,0,0,3Z"/><path class="cls-22" d="M253.5,608.17h.67a1.5,1.5,0,0,0,0-3h-.67a1.5,1.5,0,0,0,0,3Z"/><polygon class="cls-23" points="532.29 228.32 532.29 350.6 617.06 350.6 617.06 381.78 507.94 381.78 507.94 50.5 617.06 50.5 617.06 72.91 532.29 72.91 532.29 204.94 616.58 204.94 616.58 228.32 532.29 228.32"/><polyline class="cls-13" points="529.63 204.94 529.63 72.91 616.58 72.91 616.58 59.83 519.29 59.83 519.29 362.68 616.58 362.68 616.58 350.6 529.63 350.6 529.63 228.32 529.63 204.94"/><polygon class="cls-9" points="532.29 230.24 532.29 352.53 617.06 352.53 617.06 383.7 507.94 383.7 507.94 52.42 617.06 52.42 617.06 74.83 532.29 74.83 532.29 206.86 616.58 206.86 616.58 230.24 532.29 230.24"/><path class="cls-22" d="M521,101v27.5a1.5,1.5,0,0,0,3,0V101a1.5,1.5,0,0,0-3,0Z"/><path class="cls-22" d="M520,236v18.5a1.5,1.5,0,0,0,3,0V236a1.5,1.5,0,0,0-3,0Z"/><path class="cls-22" d="M519.5,268.5V274a1.5,1.5,0,0,0,3,0v-5.5a1.5,1.5,0,0,0-3,0Z"/><path class="cls-12" d="M423.3,6.17c-1.53-.83-3.5-.19-4.89.87-3.85,2.95-10.92,10-9.74,21.4,1.43,13.78,12.07,24.7,25.15,32.62a5.53,5.53,0,0,0,7.76-2.14L445,52.45C448.94,45,455.28,23.6,423.3,6.17Z"/><path class="cls-16" d="M424.41,17.14a37.3,37.3,0,0,1,5.51,6.69,51.8,51.8,0,0,1,4.13,7.62,44.68,44.68,0,0,1,2.69,8.28,29.07,29.07,0,0,1,.58,8.69c-1-2.76-1.83-5.41-2.84-8s-2.06-5.19-3.18-7.74S429,27.54,427.87,25,425.52,19.83,424.41,17.14Z"/><path class="cls-16" d="M436,61.82a5.48,5.48,0,0,1-2.16-.76c-13.08-7.91-23.72-18.84-25.15-32.62C407.5,17,414.58,10,418.42,7c1.38-1.06,3.36-1.7,4.89-.87l.47.26C417.41,14,403,36.88,436,61.82Z"/><path class="cls-24" d="M423.31,6.18c-1.53-.83-3.5-.19-4.89.87-3.85,2.95-10.92,10-9.74,21.4,1.43,13.78,12.07,24.7,25.15,32.62a5.53,5.53,0,0,0,7.76-2.14L445,52.46C449,45,455.3,23.61,423.31,6.18Z"/><path class="cls-12" d="M220.22,5.06c-1.33-.6-2.95.06-4,1-3,2.71-8.53,9.06-6.83,18.55,2.06,11.46,11.65,20,23.11,25.78a4.65,4.65,0,0,0,6.37-2.28l2.45-5.64C244.12,36,248.11,17.68,220.22,5.06Z"/><path class="cls-16" d="M221.84,14.19A28.55,28.55,0,0,1,227,19.35a40.28,40.28,0,0,1,4,6.12,35.17,35.17,0,0,1,2.74,6.82,22.71,22.71,0,0,1,.85,7.31c-1.08-2.23-2-4.37-3.06-6.48s-2.09-4.18-3.18-6.25l-3.3-6.23C224,18.54,222.85,16.44,221.84,14.19Z"/><path class="cls-16" d="M234.32,50.92a4.6,4.6,0,0,1-1.86-.5C221,44.6,211.42,36.11,209.36,24.64c-1.7-9.48,3.79-15.83,6.83-18.54a4,4,0,0,1,4-1l.41.19C215.77,12,205.14,32.07,234.32,50.92Z"/><path class="cls-24" d="M220.23,5.07c-1.33-.6-2.95.06-4,1-3,2.71-8.53,9.06-6.83,18.55,2.06,11.46,11.65,20,23.11,25.78a4.65,4.65,0,0,0,6.37-2.28l2.45-5.64C244.13,36,248.13,17.69,220.23,5.07Z"/><path class="cls-12" d="M287.12,40.54c-.63-1.32-2.3-1.85-3.76-1.81-4.07.12-12.36,1.46-17.15,9.82-5.79,10.1-3.89,22.77,1.15,34.6a4.65,4.65,0,0,0,6.35,2.35l5.5-2.74C285.58,79.59,300.39,68.13,287.12,40.54Z"/><path class="cls-16" d="M282.49,48.57a28.55,28.55,0,0,1,.66,7.29,40.29,40.29,0,0,1-.87,7.26,35.17,35.17,0,0,1-2.28,7,22.71,22.71,0,0,1-4,6.15c.6-2.41,1.27-4.64,1.82-6.93s1.09-4.54,1.58-6.83l1.47-6.9C281.33,53.28,281.83,51,282.49,48.57Z"/><path class="cls-16" d="M268.46,84.75a4.6,4.6,0,0,1-1.1-1.58c-5-11.82-6.94-24.49-1.15-34.6,4.79-8.36,13.07-9.7,17.14-9.82a4,4,0,0,1,3.76,1.81c.07.14.14.28.19.41C279.26,43,258.22,51.55,268.46,84.75Z"/><path class="cls-24" d="M287.12,40.55c-.63-1.32-2.3-1.85-3.76-1.81-4.07.12-12.36,1.46-17.15,9.82-5.79,10.1-3.89,22.77,1.15,34.6a4.65,4.65,0,0,0,6.35,2.35l5.5-2.74C285.58,79.6,300.39,68.14,287.12,40.55Z"/><path class="cls-12" d="M291.37,5.43c-1.3-.71-3-.16-4.16.74-3.28,2.51-9.3,8.52-8.3,18.23,1.22,11.74,10.28,21,21.43,27.79a4.71,4.71,0,0,0,6.61-1.82l2.9-5.51C313.21,38.47,318.62,20.28,291.37,5.43Z"/><path class="cls-16" d="M292.32,14.78a29.15,29.15,0,0,1,4.85,5.62,41.08,41.08,0,0,1,3.57,6.49A35.84,35.84,0,0,1,303,34a23.16,23.16,0,0,1,.32,7.45c-.92-2.34-1.69-4.58-2.59-6.78s-1.79-4.39-2.74-6.56l-2.88-6.54C294.15,19.33,293.18,17.12,292.32,14.78Z"/><path class="cls-16" d="M302.18,52.84a4.67,4.67,0,0,1-1.84-.65c-11.14-6.74-20.2-16-21.42-27.79-1-9.71,5-15.72,8.29-18.23,1.18-.9,2.86-1.45,4.17-.74l.4.22C286.35,12.1,274.1,31.6,302.18,52.84Z"/><path class="cls-24" d="M291.38,5.44c-1.3-.71-3-.16-4.16.74-3.28,2.51-9.3,8.52-8.3,18.23,1.22,11.74,10.28,21,21.43,27.79A4.71,4.71,0,0,0,307,50.38l2.9-5.51C313.22,38.48,318.63,20.28,291.38,5.44Z"/><path class="cls-12" d="M288.28,6.86c-.17-1.47-1.58-2.54-3-3-3.94-1.25-12.32-2.74-19.7,3.65C256.67,15.25,254.24,28,255.1,41a4.71,4.71,0,0,0,5.28,4.37l6.18-.78C273.72,43.69,291.73,37.69,288.28,6.86Z"/><path class="cls-16" d="M281.16,13a29.15,29.15,0,0,1-1.82,7.19,41.09,41.09,0,0,1-3.27,6.65,35.83,35.83,0,0,1-4.52,5.91,23.16,23.16,0,0,1-5.92,4.54c1.39-2.09,2.78-4,4.08-6s2.57-4,3.8-6l3.71-6.11C278.49,17.1,279.74,15,281.16,13Z"/><path class="cls-16" d="M255.62,42.89A4.67,4.67,0,0,1,255.1,41c-.86-13,1.57-25.75,10.49-33.49,7.38-6.4,15.76-4.9,19.69-3.65,1.41.45,2.83,1.52,3,3,0,.16,0,.31,0,.46C279.93,6.57,256.94,7.71,255.62,42.89Z"/><path class="cls-24" d="M288.28,6.87c-.17-1.47-1.58-2.54-3-3-3.94-1.25-12.32-2.74-19.7,3.65C256.67,15.26,254.24,28,255.1,41a4.71,4.71,0,0,0,5.28,4.37l6.18-.78C273.72,43.71,291.73,37.71,288.28,6.87Z"/><path class="cls-25" d="M363.5,58s-8-45-30-56"/><path class="cls-12" d="M349.81,1.81c-1.73-.23-3.34,1.08-4.25,2.57C343,8.51,339,17.64,344.17,27.85c6.29,12.34,20.14,18.71,35.2,21.4a5.53,5.53,0,0,0,6.47-4.79l.85-7.26C387.68,28.78,385.92,6.57,349.81,1.81Z"/><path class="cls-16" d="M354.79,11.65a37.29,37.29,0,0,1,7.55,4.26,51.79,51.79,0,0,1,6.6,5.62,44.68,44.68,0,0,1,5.49,6.75,29.07,29.07,0,0,1,3.66,7.9c-1.9-2.22-3.65-4.39-5.54-6.46s-3.78-4.1-5.75-6.08-4-4-6-5.93S356.79,13.76,354.79,11.65Z"/><path class="cls-16" d="M381.67,49.17a5.48,5.48,0,0,1-2.29.07c-15.05-2.68-28.9-9-35.2-21.4C339,17.64,343,8.51,345.57,4.38c.91-1.49,2.52-2.8,4.25-2.57l.54.07C347.13,11.24,341.94,37.75,381.67,49.17Z"/><path class="cls-24" d="M349.82,1.81c-1.73-.23-3.34,1.08-4.25,2.57C343,8.51,339,17.64,344.19,27.85c6.29,12.34,20.14,18.71,35.2,21.4a5.53,5.53,0,0,0,6.47-4.79l.85-7.26C387.69,28.78,385.93,6.57,349.82,1.81Z"/><path class="cls-12" d="M348.62,8c-1-1.45-3-1.8-4.73-1.51-4.78.81-14.32,3.76-18.59,14.4-5.16,12.86-.84,27.48,7,40.58a5.53,5.53,0,0,0,7.86,1.72l6-4.14C353.22,54.24,368.79,38.3,348.62,8Z"/><path class="cls-16" d="M344.49,18.2a37.3,37.3,0,0,1,1.76,8.49,51.79,51.79,0,0,1,.1,8.67,44.68,44.68,0,0,1-1.48,8.58,29.07,29.07,0,0,1-3.54,8c.43-2.89.9-5.64,1.23-8.42s.6-5.55.8-8.33.37-5.58.54-8.39S344.22,21.1,344.49,18.2Z"/><path class="cls-16" d="M333.91,63.13a5.48,5.48,0,0,1-1.56-1.68c-7.88-13.1-12.2-27.72-7-40.58,4.26-10.64,13.81-13.58,18.59-14.39,1.72-.3,3.77.06,4.73,1.51.1.15.21.3.3.45C339.76,12.16,316.37,25.7,333.91,63.13Z"/><path class="cls-24" d="M348.63,8c-1-1.45-3-1.8-4.73-1.51-4.78.81-14.32,3.76-18.59,14.4-5.16,12.86-.84,27.48,7,40.58a5.53,5.53,0,0,0,7.86,1.72l6-4.14C353.23,54.25,368.8,38.32,348.63,8Z"/><path class="cls-12" d="M365.91,53.69c-1.28-.7-2.95-.16-4.11.73-3.24,2.48-9.18,8.41-8.18,18,1.2,11.58,10.14,20.76,21.14,27.42a4.65,4.65,0,0,0,6.52-1.8l2.86-5.44C387.46,86.29,392.79,68.34,365.91,53.69Z"/><path class="cls-16" d="M366.85,62.91a28.55,28.55,0,0,1,4.8,5.53,40.29,40.29,0,0,1,3.53,6.4,35.16,35.16,0,0,1,2.22,7,22.71,22.71,0,0,1,.3,7.35c-.91-2.3-1.68-4.51-2.57-6.69s-1.77-4.32-2.71-6.47l-2.83-6.46C368.65,67.4,367.69,65.23,366.85,62.91Z"/><path class="cls-16" d="M376.58,100.47a4.6,4.6,0,0,1-1.81-.64c-11-6.65-19.93-15.83-21.14-27.42-1-9.58,4.95-15.51,8.18-18a4,4,0,0,1,4.11-.73l.4.22C361,60.27,348.87,79.5,376.58,100.47Z"/><path class="cls-24" d="M365.92,53.69c-1.28-.7-2.95-.16-4.11.73-3.24,2.48-9.18,8.41-8.18,18,1.2,11.58,10.14,20.76,21.14,27.42a4.65,4.65,0,0,0,6.52-1.8l2.86-5.44C387.47,86.29,392.8,68.34,365.92,53.69Z"/><circle class="cls-26" cx="216.25" cy="36.25" r="6.88"/><circle class="cls-24" cx="216.25" cy="36.25" r="6.88"/><circle class="cls-26" cx="288.25" cy="25.25" r="6.88"/><circle class="cls-24" cx="288.25" cy="25.25" r="6.88"/><circle class="cls-26" cx="357.25" cy="32.25" r="6.88"/><circle class="cls-24" cx="357.25" cy="32.25" r="6.88"/><circle class="cls-26" cx="441.75" cy="58.75" r="6.88"/><circle class="cls-24" cx="441.75" cy="58.75" r="6.88"/><circle class="cls-26" cx="369.75" cy="27.75" r="6.88"/><circle class="cls-24" cx="369.75" cy="27.75" r="6.88"/><circle class="cls-26" cx="369.75" cy="66.75" r="6.88"/><circle class="cls-24" cx="369.75" cy="66.75" r="6.88"/><path class="cls-22" d="M369.5,32.5a1.5,1.5,0,0,0,0-3,1.5,1.5,0,0,0,0,3Z"/><path class="cls-22" d="M365,69.5a1.5,1.5,0,0,0,0-3,1.5,1.5,0,0,0,0,3Z"/><path class="cls-22" d="M441,63a1.5,1.5,0,0,0,0-3,1.5,1.5,0,0,0,0,3Z"/><path class="cls-22" d="M287.5,28.5a1.5,1.5,0,0,0,0-3,1.5,1.5,0,0,0,0,3Z"/><path class="cls-22" d="M212.5,39.5a1.5,1.5,0,0,0,0-3,1.5,1.5,0,0,0,0,3Z"/><path class="cls-22" d="M234,25.5h2a1.5,1.5,0,0,0,0-3h-2a1.5,1.5,0,0,0,0,3Z"/><path class="cls-22" d="M234,30h.5a1.5,1.5,0,0,0,0-3H234a1.5,1.5,0,0,0,0,3Z"/><path class="cls-22" d="M273.76,63.8l1-.5a1.5,1.5,0,0,0-1.51-2.59l-1,.5a1.5,1.5,0,0,0,1.51,2.59Z"/><path class="cls-22" d="M275.24,69.73l.51-1a1.54,1.54,0,0,0-.54-2.05,1.52,1.52,0,0,0-2.05.54l-.51,1a1.54,1.54,0,0,0,.54,2.05,1.52,1.52,0,0,0,2.05-.54Z"/><path class="cls-22" d="M435.5,30h1a1.5,1.5,0,0,0,0-3h-1a1.5,1.5,0,0,0,0,3Z"/><path class="cls-22" d="M437.5,36.5h1a1.5,1.5,0,0,0,0-3h-1a1.5,1.5,0,0,0,0,3Z"/><path class="cls-22" d="M369.5,87v2.5a1.5,1.5,0,0,0,3,0V87a1.5,1.5,0,0,0-3,0Z"/><path class="cls-22" d="M364.67,81.86l.5,1.5a1.53,1.53,0,0,0,1.85,1,1.51,1.51,0,0,0,1-1.85l-.5-1.5a1.53,1.53,0,0,0-1.85-1,1.51,1.51,0,0,0-1,1.85Z"/><path class="cls-22" d="M265.5,26.5h1a1.5,1.5,0,0,0,0-3h-1a1.5,1.5,0,0,0,0,3Z"/><path class="cls-22" d="M269.5,23a1.5,1.5,0,0,0,0-3,1.5,1.5,0,0,0,0,3Z"/><path class="cls-22" d="M305.44,30.06l1.5,1.5a1.5,1.5,0,1,0,2.12-2.12l-1.5-1.5a1.5,1.5,0,0,0-2.12,2.12Z"/><path class="cls-22" d="M305,36h2a1.5,1.5,0,0,0,0-3h-2a1.5,1.5,0,0,0,0,3Z"/><path class="cls-22" d="M332.83,36.17h2a1.5,1.5,0,0,0,0-3h-2a1.5,1.5,0,0,0,0,3Z"/><path class="cls-22" d="M332.4,42.23l2,.65a1.51,1.51,0,0,0,1.85-1,1.53,1.53,0,0,0-1-1.85l-2-.65a1.51,1.51,0,0,0-1.85,1,1.53,1.53,0,0,0,1,1.85Z"/></g></g></g></svg>