<svg xmlns="http://www.w3.org/2000/svg" viewBox="0 0 131 135"><defs><style>.cls-1{fill:#a65d3b;}.cls-2{fill:#fff1b8;}.cls-3{opacity:0.58;}.cls-4{fill:#8e4835;}.cls-5{fill:#6c4735;}.cls-6{fill:#f4e5a6;}.cls-7{fill:#fff;}.cls-8{fill:#e5d79c;}.cls-9{fill:#f29b65;}.cls-10{opacity:0.5;}.cls-11{fill:#c46d3a;}.cls-12{fill:#ab6756;}.cls-13{opacity:0.68;}.cls-14{fill:#7c4b3b;}.cls-15{opacity:0.24;}.cls-16{fill:#c6693d;}.cls-17{fill:#bdd344;}.cls-18{fill:#72a03d;}</style></defs><title>Asset 6</title><g id="Layer_2" data-name="Layer 2"><g id="Layer_1-2" data-name="Layer 1"><rect class="cls-1" x="24.64" y="37.56" width="95.26" height="95.94" rx="47.63" ry="47.63"/><ellipse class="cls-2" cx="72.27" cy="85.53" rx="35.81" ry="36.07"/><g class="cls-3"><path class="cls-4" d="M102.65,122.79a47.35,47.35,0,0,1-58.77,1.45C54.53,129.17,74.73,134.29,102.65,122.79Z"/></g><g class="cls-3"><path class="cls-4" d="M118.4,75.25c-14-27.54-38.11-35-54.55-36.75A47.72,47.72,0,0,1,118.4,75.25Z"/></g><path class="cls-5" d="M72.29,135h0c-27.07,0-49.1-22.19-49.1-49.47s22-49.47,49.1-49.47a49.35,49.35,0,0,1,49.14,49.47C121.39,112.81,99.36,135,72.29,135Zm0-95.94a46.47,46.47,0,0,0,0,92.94h0a46.47,46.47,0,0,0,0-92.94Z"/><path class="cls-6" d="M108.08,85.53A36.36,36.36,0,0,1,106.83,95c-1.37-42.2-27.17-45.2-46.21-43.58a35.41,35.41,0,0,1,11.65-2A35.94,35.94,0,0,1,108.08,85.53Z"/><path class="cls-5" d="M72.27,123.46a37.93,37.93,0,1,1,37.66-37.93A37.84,37.84,0,0,1,72.27,123.46Zm0-72.86A34.93,34.93,0,1,0,107,85.53,34.85,34.85,0,0,0,72.27,50.6Z"/><path class="cls-7" d="M52.65,124.49l3.62,1.71a1.5,1.5,0,0,0,1.5-2.59l-3.62-1.71a1.5,1.5,0,0,0-1.5,2.59Z"/><path class="cls-7" d="M61.81,127.75h1a1.5,1.5,0,0,0,0-3h-1a1.5,1.5,0,0,0,0,3Z"/><path class="cls-7" d="M61.46,44.82a17.77,17.77,0,0,0,2.35,1.91,1.5,1.5,0,0,0,2-.54,1.54,1.54,0,0,0-.53-2.05,12.37,12.37,0,0,1-1.74-1.44,1.51,1.51,0,0,0-2.11,0,1.53,1.53,0,0,0,0,2.12Z"/><path class="cls-7" d="M66.25,43.12l.15,0-.75-.2c.07,0-.44-.52.09.09.13.15.24.31.37.46a6.58,6.58,0,0,0,.71.69,8,8,0,0,0,1.82,1.17,1.5,1.5,0,0,0,1.5-2.59,5.5,5.5,0,0,1-1.73-1.17c-.63-.65-1.11-1.54-2.17-1.43a1.54,1.54,0,0,0-1.49,1.5,1.5,1.5,0,0,0,1.49,1.5Z"/><path class="cls-7" d="M112.61,100l1-1.48A1.49,1.49,0,1,0,111.06,97l-1,1.48a1.49,1.49,0,1,0,2.57,1.51Z"/><path class="cls-8" d="M94.54,96.07c-2.73,6.74-9.44,12.22-22.32,12.22-10.84,0-17.29-3.88-20.7-9.11a16.49,16.49,0,0,1,9.78-.38c7.94,2,6.95-3,13.89-2s5,4,12.9,0A8.89,8.89,0,0,1,94.54,96.07Z"/><path class="cls-8" d="M72.22,110.3c-13.1,0-19.39-5.45-22.36-10l-1.37-2.11,2.36-.86a18.51,18.51,0,0,1,10.94-.44c3.5.88,4.64.25,6.22-.62a10.46,10.46,0,0,1,7.47-1.42,18.57,18.57,0,0,1,5.25,1.51c1.56.67,2.08.9,6.48-1.32A10.87,10.87,0,0,1,95,94.14l2.21.57-.86,2.12C94.34,101.86,88.49,110.3,72.22,110.3ZM55,100.38c3.74,3.88,9.63,5.92,17.22,5.92,11.08,0,16.53-4.18,19.21-8.47a7.38,7.38,0,0,0-2.44.77c-5.53,2.79-7.09,2.6-9.83,1.42a14.69,14.69,0,0,0-4.24-1.22,6.65,6.65,0,0,0-5,1c-1.82,1-4.09,2.25-9.09,1A15.38,15.38,0,0,0,55,100.38Z"/><path class="cls-8" d="M94.54,96.07a8.89,8.89,0,0,0-6.44.73c-7.94,4-6,1-12.9,0s-6,4-13.89,2a16.49,16.49,0,0,0-9.78.38c-4.71-7.24-3.59-17.07-.14-22.87C55.83,68.85,64.75,64,69.25,61.83c1.53-.74,3-1.5,3-1.5s14.88,6,20.84,16A23.49,23.49,0,0,1,94.54,96.07Z"/><path class="cls-8" d="M50.73,101.6l-.86-1.32c-5.17-7.93-4-18.58-.18-25C54,68,62.24,63,68.39,60c1.49-.72,2.91-1.46,2.92-1.47l.81-.42.85.34c.63.25,15.58,6.37,21.8,16.82a25.48,25.48,0,0,1,1.61,21.54l-.66,1.61L94,98a6.93,6.93,0,0,0-5.06.58c-5.53,2.79-7.09,2.6-9.83,1.42a14.69,14.69,0,0,0-4.24-1.22,6.65,6.65,0,0,0-5,1c-1.82,1-4.09,2.25-9.09,1a14.6,14.6,0,0,0-8.62.32Zm6.21-5.35a19.91,19.91,0,0,1,4.85.61c3.5.88,4.64.25,6.22-.62a10.46,10.46,0,0,1,7.47-1.42,18.57,18.57,0,0,1,5.25,1.51c1.56.67,2.08.9,6.48-1.32a10.91,10.91,0,0,1,6-1.19,21.79,21.79,0,0,0-1.87-16.48c-4.77-8-16-13.42-19.06-14.81-.57.29-1.37.7-2.19,1.09-8.12,3.92-14,8.66-17,13.72-2.91,4.88-4,13.11-.65,19.46A18,18,0,0,1,56.93,96.25Z"/><path class="cls-9" d="M94.45,96a8.89,8.89,0,0,0-6.44.73c-7.94,4-6,1-12.9,0s-6,4-13.89,2a16.49,16.49,0,0,0-9.78.38c-4.71-7.24-3.59-17.07-.14-22.87,4.45-7.47,13.37-12.32,17.86-14.49,1.53-.74,3-1.5,3-1.5s14.88,6,20.84,16A23.49,23.49,0,0,1,94.45,96Z"/><g class="cls-10"><path class="cls-11" d="M56.8,98.22a15.06,15.06,0,0,0-4.37.9c-4.71-7.24-3.59-17.07-.14-22.87,4.45-7.47,13.37-12.32,17.86-14.49l1.71-.85C54.86,71.79,51.88,84.78,56.8,98.22Z"/></g><path class="cls-12" d="M94.63,96c-2.73,6.74-9.44,12.22-22.32,12.22-10.84,0-17.29-3.88-20.7-9.11a16.49,16.49,0,0,1,9.78-.38c7.94,2,6.95-3,13.89-2s5,4,12.9,0A8.89,8.89,0,0,1,94.63,96Z"/><g class="cls-13"><path class="cls-14" d="M93.68,98c-3.19,5.79-9.78,10.22-21.36,10.22-7.66,0-13.14-1.94-16.89-4.93C60.7,105,78.39,109.32,93.68,98Z"/></g><g class="cls-15"><path class="cls-14" d="M94.63,96a16,16,0,0,1-.86,1.82,8.87,8.87,0,0,0-5.58.91c-7.94,4-6,1-12.9,0s-6,4-13.89,2a16.7,16.7,0,0,0-8.59,0,15.39,15.39,0,0,1-1.19-1.62,16.49,16.49,0,0,1,9.78-.38c7.94,2,6.95-3,13.89-2s5,4,12.9,0A8.89,8.89,0,0,1,94.63,96Z"/></g><path class="cls-5" d="M72.22,109.24c-12.65,0-18.69-5.2-21.53-9.57L50,98.61l1.18-.43a17.5,17.5,0,0,1,10.36-.41c3.87,1,5.29.19,6.94-.72a9.49,9.49,0,0,1,6.86-1.3,17.69,17.69,0,0,1,5,1.44c1.82.79,2.5,1.08,7.32-1.34a9.9,9.9,0,0,1,7.13-.8l1.1.28-.43,1.06C93.52,101.19,87.91,109.24,72.22,109.24ZM53.13,99.67c3.83,5,10.4,7.57,19.09,7.57,12.83,0,18.45-5.45,20.9-10.47a8,8,0,0,0-4.57.87c-5.41,2.73-6.67,2.4-9,1.39a15.74,15.74,0,0,0-4.49-1.29,7.55,7.55,0,0,0-5.62,1.08c-1.76,1-3.75,2.06-8.37.9A15.89,15.89,0,0,0,53.13,99.67Z"/><path class="cls-5" d="M51.13,100.33l-.43-.66c-4.94-7.59-3.82-17.78-.16-23.93,4.18-7,12.25-12,18.28-14.88,1.51-.73,2.94-1.48,2.95-1.48l.4-.21.42.17c.62.25,15.26,6.24,21.32,16.4a24.42,24.42,0,0,1,1.55,20.65l-.33.81L94.29,97a7.89,7.89,0,0,0-5.75.65c-5.41,2.73-6.67,2.4-9,1.39a15.74,15.74,0,0,0-4.49-1.29,7.55,7.55,0,0,0-5.62,1.08c-1.76,1-3.75,2.06-8.37.9a15.57,15.57,0,0,0-9.2.35Zm5.81-3.14a18.93,18.93,0,0,1,4.62.58c3.87,1,5.29.19,6.94-.72a9.49,9.49,0,0,1,6.86-1.3,17.69,17.69,0,0,1,5,1.44c1.82.79,2.5,1.08,7.32-1.34a9.9,9.9,0,0,1,6.26-1,22.76,22.76,0,0,0-1.71-18.09C87,68.1,74.68,62.41,72.27,61.37c-.54.28-1.55.79-2.59,1.3-8.3,4-14.33,8.88-17.44,14.1S48,91.16,52,97.92A16.89,16.89,0,0,1,56.93,97.19Z"/><path class="cls-7" d="M55.19,94.61a1.5,1.5,0,0,0,0-3,1.5,1.5,0,0,0,0,3Z"/><path class="cls-16" d="M75.75,64.71A30.16,30.16,0,0,1,78.52,66a25.62,25.62,0,0,1,2.63,1.63,8.86,8.86,0,0,1,2.43,2,5.27,5.27,0,0,1,1.14,3.08.11.11,0,0,1-.11.11l-.06,0A26.68,26.68,0,0,1,82.13,71c-.74-.6-1.28-1.43-2-2.13s-1.44-1.37-2.19-2-1.52-1.32-2.31-2a.1.1,0,0,1,0-.14A.1.1,0,0,1,75.75,64.71Z"/><path class="cls-16" d="M72.81,66.74a30.64,30.64,0,0,1,2,2.88,25.51,25.51,0,0,1,1.65,3.13,9.83,9.83,0,0,1,1.15,3.43,5.59,5.59,0,0,1-.81,3.63.11.11,0,0,1-.19,0h0l-1-3.25c-.32-1-.39-2.14-.69-3.23s-.65-2.16-1-3.24-.82-2.15-1.27-3.21a.1.1,0,0,1,0-.13A.1.1,0,0,1,72.81,66.74Z"/><path class="cls-16" d="M70.8,64.87A29,29,0,0,0,69,67.23a26.12,26.12,0,0,0-1.54,2.46c-.45.85-.68,1.77-1.14,2.55s-.86,1.57-1.43,2.55h0a.11.11,0,0,1-.15,0l0,0a4.66,4.66,0,0,1-.22-3.28,7.46,7.46,0,0,1,1.67-2.71,17.39,17.39,0,0,1,2.12-2.24,20,20,0,0,1,2.42-1.84.1.1,0,0,1,.14,0A.11.11,0,0,1,70.8,64.87Z"/><path class="cls-2" d="M19.5,51.37a1,1,0,0,1-.4-.08h0a1.28,1.28,0,0,1-1-.65l-.19-.19-.08-.09-.15-.1a3.86,3.86,0,0,1-.85-.84l-.54-.73a1.34,1.34,0,0,0-.15-.17l-.23-.16-.14-.12a3.48,3.48,0,0,1-.27-.31l-.09-.11a1.56,1.56,0,0,1-.34-.38,2.23,2.23,0,0,1-.29-.17l-.15-.13L14.53,47l-.27-.25L14,46.48l-.36-.35c-.18-.19-.38-.42-.61-.68a6.46,6.46,0,0,0-.5-.52,1.48,1.48,0,0,1-.47-.43,2.79,2.79,0,0,0-.27-.23,1.6,1.6,0,0,1-.49-.58l-.06-.05a1.73,1.73,0,0,1-.41-.43L10.69,43a1.57,1.57,0,0,1-.27-.28,1.68,1.68,0,0,1-.41-.59l0,0a2.51,2.51,0,0,1-.38-.32,2,2,0,0,1-.28-.37.71.71,0,0,1-.1-.14,1.69,1.69,0,0,0-.17-.24,1.7,1.7,0,0,1-.46-.35,1,1,0,0,1-.15-.2l0-.08a3.9,3.9,0,0,1-.34-.28,1.43,1.43,0,0,1-.56-.36,1,1,0,0,1-.2-.31h0s0,0,0,0l0,0h0a1,1,0,0,1-.32-.23l-.38-.4-.3-.34-.09-.12-.43-.47-.36-.4-.29-.19a3.34,3.34,0,0,1-.66-.53A2.63,2.63,0,0,1,4,36.3l-.13-.2a1.49,1.49,0,0,1-.27-.17,2,2,0,0,1-.33-.28l-.12-.12-.08-.05a1.81,1.81,0,0,1-.39-.31L2.6,35A1.36,1.36,0,0,1,2.3,35l-.1,0a1.6,1.6,0,0,1-.89-.84,1,1,0,0,1-.17-1.25,5.5,5.5,0,0,1,.34-.49A1.64,1.64,0,0,1,2,32L2,31.8a2,2,0,0,1,.43-.54.94.94,0,0,1,.37-.52q.3-.22.52-.42l.58-.55a1,1,0,0,1,.39-.24,1.39,1.39,0,0,1,.88,0,.91.91,0,0,1,.81.52l.27.2a3,3,0,0,1,.51.42A1,1,0,0,1,7,31a.94.94,0,0,0,.11.21l.24.24a6.3,6.3,0,0,0,.72.77l.61.5a2.57,2.57,0,0,1,.5.38l.41.41a2.28,2.28,0,0,1,.34.45h0a.94.94,0,0,0,.26.15,1.59,1.59,0,0,1,.74.58l.23.13a1.68,1.68,0,0,1,.6.56,1.42,1.42,0,0,1,.32.26l.08.05v-.17a1.9,1.9,0,0,1,.06-.7v-.08a1.07,1.07,0,0,1,.21-.61h0a1.15,1.15,0,0,1,0-.48,1.43,1.43,0,0,1,0-.31,1,1,0,0,1,0-.33,2,2,0,0,1,0-.3,1.06,1.06,0,0,1,.07-.25c0-.08,0-.16,0-.25a4.56,4.56,0,0,0,0-.49,2.93,2.93,0,0,0,0-.37,1.9,1.9,0,0,1,0-.66v-.06a1.68,1.68,0,0,1,0-.27,3.26,3.26,0,0,1,.11-.75,1.38,1.38,0,0,1,1-1,2.13,2.13,0,0,1,.47-.32l.43-.23.28-.17a1.41,1.41,0,0,1,.36-.19,2.57,2.57,0,0,1,1-.74A1,1,0,0,1,17,27l.28.12a1.81,1.81,0,0,1,.82.72,1,1,0,0,1,.16.69,1.25,1.25,0,0,1-.11.64,1.5,1.5,0,0,1,0,.39,1.08,1.08,0,0,1,0,.13c0,.05,0,.17,0,.28a1.5,1.5,0,0,1-.14.59s0,.08,0,.11a1.61,1.61,0,0,1,0,.22,1.52,1.52,0,0,1,0,.44,3.7,3.7,0,0,1,.08.49,2,2,0,0,1-.08.78l0,.12a2,2,0,0,1,0,.66s0,.07,0,.11a.77.77,0,0,1,0,.09,2.9,2.9,0,0,1-.06,1,1,1,0,0,1,0,.23,2.28,2.28,0,0,1-.12.93,2.42,2.42,0,0,1,0,.91,2.57,2.57,0,0,0,0,.48,1,1,0,0,1,0,.36,2.08,2.08,0,0,1,.06.21,1.54,1.54,0,0,1,0,.32,2.6,2.6,0,0,1,.42.09l.35-.06a4.8,4.8,0,0,1,.82-.12,2.59,2.59,0,0,1,.65-.09,2.11,2.11,0,0,1,.67.11,1.15,1.15,0,0,1,.27,0,2.56,2.56,0,0,1,.42.06l.43,0,.57,0h.47a2.37,2.37,0,0,1,.39.06,2.48,2.48,0,0,1,.52-.06l.66,0,.57.05.11,0a1,1,0,0,1,.87.09l.48,0a1,1,0,0,1,.61.21l.23.09h.26l.32,0a1,1,0,0,1,.67,0,1,1,0,0,1,.76.36A1.5,1.5,0,0,1,30,39l.15.13a1.58,1.58,0,0,1,.44.94,1.15,1.15,0,0,1-.09,1l-.24.31a2.07,2.07,0,0,1-.38.36,1.58,1.58,0,0,1-.45.27l-.16.06-.06,0-.15.1a1.41,1.41,0,0,1-.18.18l-.08.18a1,1,0,0,1-.07.18,1.27,1.27,0,0,1-.37.66,1.67,1.67,0,0,1-1.18.52l-.25,0a1,1,0,0,1-.49.15h-.35a2,2,0,0,0-.43,0l-.21,0h0a1.26,1.26,0,0,1-.49-.11h-.88l-.84,0H23.1l-.58,0a3.75,3.75,0,0,1-.65-.09l-.21,0a1.09,1.09,0,0,1-.29,0h0l-.24,0H20.9l0-.27-.08-.08v.17h0v.17l-.22,0a1.17,1.17,0,0,1-.28,0l-.32,0a1.84,1.84,0,0,1-.42,0l-.11,0,.13.11a9.23,9.23,0,0,1,.89.89l.1.14h0a1.6,1.6,0,0,1,.32.25l.1.12a1.1,1.1,0,0,1,.23.18,1.13,1.13,0,0,1,.37.26l.18.09a1,1,0,0,1,.47.52l0,.11a1.72,1.72,0,0,1,.91,1,2,2,0,0,1,0,1.12,1,1,0,0,1-.27.47,2.54,2.54,0,0,1-1.17.7,2.32,2.32,0,0,0-.35.11l-.55.54a6,6,0,0,1-.86.69A1,1,0,0,1,19.5,51.37ZM7.29,39.48Z"/><path class="cls-5" d="M16.56,27.87l.32.13a.89.89,0,0,1,.36.35.65.65,0,0,0,0,.24.34.34,0,0,1-.13.28.5.5,0,0,0,0,.23.49.49,0,0,1,0,.23.87.87,0,0,0-.06.33c0,.09,0,.18,0,.27a.52.52,0,0,1-.06.2,1,1,0,0,0-.08.27,3.3,3.3,0,0,0,0,.33.88.88,0,0,1,0,.12.52.52,0,0,1,0,.31s0,.08,0,.1a3,3,0,0,1,.13.62,1,1,0,0,1-.1.55c0,.13,0,.26,0,.4a.93.93,0,0,1,0,.38.56.56,0,0,1,0,.18.36.36,0,0,0,0,.25,1.79,1.79,0,0,1,0,.68.68.68,0,0,0,0,.48,1.3,1.3,0,0,1-.06.53,1.19,1.19,0,0,0-.08.42,1.45,1.45,0,0,1,.08.69,3.58,3.58,0,0,0,0,.67c-.1.21-.13.36-.08.44a1,1,0,0,1,.11.29.6.6,0,0,1,0,.25,1.22,1.22,0,0,0,0,.27.41.41,0,0,0,0,.21.4.4,0,0,1,0,.2,1.3,1.3,0,0,0,.61.16h.13a1.61,1.61,0,0,1,.59.12,3.77,3.77,0,0,0,.71-.1,3.89,3.89,0,0,1,.75-.1,1.62,1.62,0,0,1,.49-.08h0a1.07,1.07,0,0,1,.33.06,1,1,0,0,0,.33.06,1.28,1.28,0,0,0,.32,0,.77.77,0,0,1,.3.07,2.42,2.42,0,0,1,.5-.06h0l.53,0h.42a1.34,1.34,0,0,1,.44.1,1.55,1.55,0,0,1,.54-.1h0l.56,0L25,39h.11a1.26,1.26,0,0,0,.45-.08.78.78,0,0,0,.44.16h0l.51,0a1.08,1.08,0,0,0,.35.19,2.2,2.2,0,0,1,.35.15,2,2,0,0,1,.4,0l.21,0,.15,0a.54.54,0,0,0,.26-.07.38.38,0,0,0,.24.09l.12,0a.65.65,0,0,0,.15.18l.15.09a.88.88,0,0,0,.27.08.53.53,0,0,1,.24.1.57.57,0,0,1,.17.35,1.2,1.2,0,0,0,.08.34l-.18.25a1,1,0,0,1-.23.2.58.58,0,0,1-.19.13l-.24.08-.22.15a.34.34,0,0,1-.21.06h0a.52.52,0,0,1-.2.28.65.65,0,0,0-.22.26.71.71,0,0,1-.08.2.67.67,0,0,0-.08.2.32.32,0,0,0-.08.2q0,.08-.1.18a.71.71,0,0,1-.49.24h-.21a1,1,0,0,0-.5.15l-.37,0H26a2.88,2.88,0,0,0-.52.07.27.27,0,0,1-.16-.06.27.27,0,0,0-.16-.06l-1.08,0-.87,0-.61,0a3,3,0,0,1-.63-.11h0l-.23,0h0q-.09,0-.14-.13a.27.27,0,0,1-.19.09h-.52l-.18,0h-.05a.2.2,0,0,1-.17-.11,1,1,0,0,1-.43.1l-.2,0-.24,0a1.24,1.24,0,0,0-.38.06.53.53,0,0,0-.18-.08l-.22-.08a.39.39,0,0,1-.22.07h-.05a.49.49,0,0,0-.27.11.24.24,0,0,0-.17-.08H18l-.19,0h-.23a.48.48,0,0,0-.2,0,.23.23,0,0,0,.1.24,1.49,1.49,0,0,1,.23.2,2.24,2.24,0,0,0,.4.46.27.27,0,0,1,.1.32c.22.18.47.38.73.6a8.25,8.25,0,0,1,.79.8.81.81,0,0,0,.27.3.77.77,0,0,1,.19.13c.08.14.16.23.22.25l.12.06a.73.73,0,0,0,.24.19l.12.06a.85.85,0,0,0,.25.2l.19.09a.57.57,0,0,1,0,.27.57.57,0,0,0,0,.27.31.31,0,0,0,.21.11h0l.18,0h0a.75.75,0,0,1,.41.43,1,1,0,0,1,0,.55,1.58,1.58,0,0,1-.71.44,3.34,3.34,0,0,0-.69.25l-.67.66a5,5,0,0,1-.71.57.91.91,0,0,0-.29-.08c-.09,0-.18-.09-.26-.23a.38.38,0,0,0-.12-.14l-.18-.16c-.07-.13-.13-.2-.19-.22a.26.26,0,0,1-.13-.07,2.9,2.9,0,0,1-.66-.64l-.56-.75a2.08,2.08,0,0,0-.35-.36l-.26-.19-.2-.23-.2-.23a.53.53,0,0,1-.19-.22.46.46,0,0,0-.08-.15.54.54,0,0,0-.21-.13,1.09,1.09,0,0,1-.25-.13l-.2-.19-.2-.19-.34-.33-.32-.31q-.25-.26-.57-.63a7.6,7.6,0,0,0-.65-.68.76.76,0,0,1-.24-.19l-.12-.14a3.53,3.53,0,0,0-.37-.32.5.5,0,0,1-.24-.4.23.23,0,0,0-.14-.12.4.4,0,0,1-.16-.1.69.69,0,0,1-.2-.21l-.18-.27-.15-.13a.42.42,0,0,1-.13-.15.79.79,0,0,1-.25-.31,1.62,1.62,0,0,0-.19-.32,1.07,1.07,0,0,0-.21-.18,1.15,1.15,0,0,1-.21-.18.92.92,0,0,1-.12-.17.93.93,0,0,0-.13-.17,2.61,2.61,0,0,0-.29-.39.89.89,0,0,0-.23-.18A.91.91,0,0,1,9.31,40a1.65,1.65,0,0,0-.21-.3,3.18,3.18,0,0,1-.36-.29l-.15-.15-.18-.06a.44.44,0,0,1-.2-.12,1.09,1.09,0,0,0-.27-.35c-.14-.13-.24-.2-.3-.2L7.5,38.4l-.25-.26L7,37.86l-.15-.18-.4-.44-.4-.44a3.75,3.75,0,0,0-.49-.35,2.3,2.3,0,0,1-.46-.37,1.62,1.62,0,0,1-.23-.3l-.21-.33a1.06,1.06,0,0,0-.3-.24.45.45,0,0,1-.15-.09A1,1,0,0,1,4,35l-.2-.21-.22-.14a.83.83,0,0,1-.18-.14,1.33,1.33,0,0,0-.3-.36.66.66,0,0,1-.22-.27H2.84c-.05,0-.08,0-.08.11s0,.11-.09.11H2.62q-.38-.18-.39-.34c0-.11-.09-.21-.24-.32A4.29,4.29,0,0,1,2.26,33a.71.71,0,0,1,.42-.24q.11-.23.23-.46a1.21,1.21,0,0,1,.4-.41l.06-.14a.89.89,0,0,0,.06-.18q.35-.25.59-.48l.62-.58.12,0,.13,0a.78.78,0,0,0,.26,0,.83.83,0,0,0,.24.29l.33.25a2,2,0,0,1,.38.31,1.74,1.74,0,0,0,.3.49l.24.25a6.44,6.44,0,0,0,.79.84l.71.58a1.45,1.45,0,0,1,.36.26l.38.37a1.32,1.32,0,0,1,.21.28.67.67,0,0,0,.21.24,1.92,1.92,0,0,0,.54.32.55.55,0,0,1,.37.4,5,5,0,0,1,.49.24.64.64,0,0,1,.34.44c.23.09.34.16.34.2a.15.15,0,0,0,0,.11.66.66,0,0,1,.44.33c.14.2.27.39.4.54a.65.65,0,0,1,.24.21.36.36,0,0,0,.07.12.77.77,0,0,0,.28.18.47.47,0,0,1,.25.24.82.82,0,0,0,0-.49,4.23,4.23,0,0,0,0-.73q0-.34-.05-.69a2.21,2.21,0,0,0,.07-.43c0-.1,0-.18,0-.24a1,1,0,0,1,0-.36.38.38,0,0,0,0-.16,1,1,0,0,0,0-.17s0-.11.13-.19a1.59,1.59,0,0,0,.07-.52.38.38,0,0,1,.13-.32.55.55,0,0,1-.09-.38.51.51,0,0,0,0-.33,1.14,1.14,0,0,1,0-.16.29.29,0,0,1,.1-.16,3.13,3.13,0,0,1,0-.46,5.55,5.55,0,0,0,0-.59,2.84,2.84,0,0,0,0-.51.9.9,0,0,1,0-.31.93.93,0,0,0,0-.32.46.46,0,0,1,0-.15,2.27,2.27,0,0,1,.08-.53q.08-.31.53-.33a1,1,0,0,1,.4-.35L15,28.9a3.05,3.05,0,0,0,.36-.22.37.37,0,0,1,.22-.07l.14,0a1.45,1.45,0,0,1,.82-.76m0-2a2,2,0,0,0-.75.15,3.62,3.62,0,0,0-1.23.83,2.42,2.42,0,0,0-.33.2l-.14.08-.07,0-.37.2a3.29,3.29,0,0,0-.53.34,2.37,2.37,0,0,0-1.43,1.63,4.19,4.19,0,0,0-.14,1,2.31,2.31,0,0,0,0,.25,2.93,2.93,0,0,0,0,.87s0,.1,0,.16,0,.09,0,.13a3.55,3.55,0,0,1,0,.37v.13a2.22,2.22,0,0,0-.07.29,3.1,3.1,0,0,0,0,.44,2,2,0,0,0,0,.45s0,.1,0,.14,0,.13,0,.19a2.64,2.64,0,0,0-.85-.57,3.36,3.36,0,0,0-.34-.41l-.45-.44a3.68,3.68,0,0,0-.6-.47l-.53-.44a4.48,4.48,0,0,1-.53-.58l-.12-.14L8,30.65l-.07-.07h0A2,2,0,0,0,7.52,30a4,4,0,0,0-.65-.54l-.12-.1a2,2,0,0,0-1.37-.81,2.35,2.35,0,0,0-.62-.08,2.38,2.38,0,0,0-.72.11,2,2,0,0,0-.79.47l-.55.52c-.12.11-.27.23-.44.35a2,2,0,0,0-.63.76,3,3,0,0,0-.42.56,2.57,2.57,0,0,0-.51.49,6.36,6.36,0,0,0-.41.59,2,2,0,0,0,.19,2.36,2.66,2.66,0,0,0,1.3,1.16l.18.07.13,0a2.81,2.81,0,0,0,.47.36l0,0a2.83,2.83,0,0,0,.43.37l.16.11a3.59,3.59,0,0,0,.5.65,4.26,4.26,0,0,0,.85.68l.17.11.26.28.44.48,0,.06c.12.15.24.28.37.42l.1.11.16.16.14.15a2,2,0,0,0,.35.28,2,2,0,0,0,.21.25,2.45,2.45,0,0,0,.73.52l.13.11a2,2,0,0,0,.24.3,2.94,2.94,0,0,0,.5.41v0l.12.17a2.85,2.85,0,0,0,.36.47,3.69,3.69,0,0,0,.33.3,2.71,2.71,0,0,0,.47.63,2.42,2.42,0,0,0,.27.28l0,.06a2.79,2.79,0,0,0,.53.6,2.7,2.7,0,0,0,.66.71l.11.09a2.43,2.43,0,0,0,.6.56c.12.12.24.25.36.39s.45.52.64.72l.42.4.23.22.34.32.08.07a2,2,0,0,0,.3.25l.18.11a2.62,2.62,0,0,0,.31.32h0a4.86,4.86,0,0,0,.34.39,2,2,0,0,0,.28.24l.16.11,0,0,.5.68a4.82,4.82,0,0,0,1,1l.09.07,0,.05.14.14a2.31,2.31,0,0,0,1.46,1A2,2,0,0,0,20.6,52a7,7,0,0,0,1-.8l.37-.36,0,0h0a3.51,3.51,0,0,0,1.63-.95,2,2,0,0,0,.55-1,3,3,0,0,0-.07-1.68,2.7,2.7,0,0,0-1.08-1.38,2,2,0,0,0-.82-.8l-.08,0,0,0,.33,0,.54,0h.24l.8,0h.71a2.24,2.24,0,0,0,.63.11h0a2,2,0,0,0,.42,0l.16,0h.42a2,2,0,0,0,.71-.13,2.64,2.64,0,0,0,1.87-.8,2.25,2.25,0,0,0,.63-1.07l0-.07,0,0h0a2.59,2.59,0,0,0,.73-.42,3,3,0,0,0,.52-.49c.11-.14.21-.26.3-.4a2,2,0,0,0,.26-1.77,2.58,2.58,0,0,0-.7-1.45,2,2,0,0,0-.3-.25,2.58,2.58,0,0,0-.67-.34,2,2,0,0,0-1.08-.45,2,2,0,0,0-.92,0h-.33a2,2,0,0,0-1-.29h-.28A2,2,0,0,0,25,37h-.12l-.27,0-.71,0h-.06a3.44,3.44,0,0,0-.52,0L23,37h-.53l-.52,0h-.07l-.39,0-.28,0-.26,0a3,3,0,0,0-.81-.13h-.06a3.54,3.54,0,0,0-.81.09l-.48.05a1.73,1.73,0,0,1,0-.2,3.39,3.39,0,0,0,0-1,3.47,3.47,0,0,0,.09-1q0-.09,0-.17a4.16,4.16,0,0,0,0-1,3,3,0,0,0,0-.84,3,3,0,0,0,.06-.94c0-.14,0-.28-.06-.42a2.83,2.83,0,0,0,0-.51v-.07A2.42,2.42,0,0,0,19,30c0-.06,0-.13,0-.19v0a2.46,2.46,0,0,0,.05-.43,2.22,2.22,0,0,0,.11-.82,2,2,0,0,0-.33-1.26,2.76,2.76,0,0,0-1.27-1.09l-.25-.1a2,2,0,0,0-.8-.17Z"/><path class="cls-2" d="M31.22,40.39a1.52,1.52,0,0,1-1-.47,3.24,3.24,0,0,1-.34-.43l-.3-.45-.06-.1a3.51,3.51,0,0,0-.18-.32l-.27-.41c-.18-.27-.4-.57-.68-.91a3.24,3.24,0,0,1-.61-1.15,1.56,1.56,0,0,1-.36-.61,2.48,2.48,0,0,0-.12-.29l-.06-.06a1.37,1.37,0,0,1-.33-.48,1.43,1.43,0,0,1-.31-.48L26.49,34a1,1,0,0,1-.3-.46,2,2,0,0,1-.58-.76l-.06-.1a1.47,1.47,0,0,1-.4-.52l-.06-.06a2.88,2.88,0,0,1-.35-.44,1,1,0,0,1-.11-.21l-.06-.15a.79.79,0,0,1-.27-.21,1,1,0,0,1-.15-.2,2.91,2.91,0,0,0-.33-.48l-.45-.48L23,29.47a3.79,3.79,0,0,1-.44-.66,1,1,0,0,0-.1-.16,3.63,3.63,0,0,1-.3-.29,2.37,2.37,0,0,1-.29-.36l-.11-.17a1.66,1.66,0,0,1-.39-.58l-.07-.07c-.13-.12-.25-.26-.38-.4a3.74,3.74,0,0,1-.48-.59l-.31-.47a1.89,1.89,0,0,1-.18-.22,1,1,0,0,1-.16-.19,1.13,1.13,0,0,1-.24-.25,1,1,0,0,1-.11-.2l-.13-.15a1,1,0,0,1-.11-.2v0a1.54,1.54,0,0,1-.27-.3,3.66,3.66,0,0,1-.22-.38,1,1,0,0,1-.39-.62,2,2,0,0,1-.17-.22,1.71,1.71,0,0,1-.23-.52,1,1,0,0,1-.23-.68,2.32,2.32,0,0,1-.29-.68l-.06-.21a1,1,0,0,1-.43-.52l-.17-.47a1.47,1.47,0,0,1,.14-1.31,1,1,0,0,1,.41-.36,8.58,8.58,0,0,0,.88-.48l.65-.41a1.8,1.8,0,0,1,.34-.48l.15-.13a1.77,1.77,0,0,1,.88-.28l.3,0,.22,0a1,1,0,0,1,.32.05,1.83,1.83,0,0,1,.59.35l.18.14a1,1,0,0,1,.27.27,1.18,1.18,0,0,1,.2.85l0,.1a1.5,1.5,0,0,1,.28.28,2,2,0,0,1,.37.62.59.59,0,0,0,.07.13l.15.11a1.05,1.05,0,0,1,.15.17,1,1,0,0,1,.25.26,4.94,4.94,0,0,1,.37.65,2.71,2.71,0,0,0,.16.29,1.9,1.9,0,0,1,.35.5l.11.09a1.38,1.38,0,0,1,.42.41,2.2,2.2,0,0,0,.19.3l.22.23A6.73,6.73,0,0,1,26,23a1.21,1.21,0,0,0,.31.32,1,1,0,0,1,.39.56,2.88,2.88,0,0,1,.47.54,3.35,3.35,0,0,1,.27.48l.06.12a1.27,1.27,0,0,1,.36.76,3.3,3.3,0,0,0,.26.32,5.6,5.6,0,0,1,.56.7c.16.24.32.5.48.78a4.93,4.93,0,0,0,.39.59,1,1,0,0,1,.16.28,1.6,1.6,0,0,1,.19.24l.06.11a4.85,4.85,0,0,1,.22.5.69.69,0,0,0,.08.15,1,1,0,0,1,.09.17,1.73,1.73,0,0,1,.3.35c.09.13.16.26.24.39l.15.24.45.54a8.43,8.43,0,0,1,.57.75,5.82,5.82,0,0,1,.4.69,1,1,0,0,0,.19.27l.6.68.11.09a1.87,1.87,0,0,1,.34.38,4.46,4.46,0,0,1,.61,1.12l0,.08a1.61,1.61,0,0,1,.41-.05l.3,0a1,1,0,0,1,.44.21l.24.2a1,1,0,0,1,.19.21,1.25,1.25,0,0,1,.19,1l0,.08a1.2,1.2,0,0,1-.2.8,1.94,1.94,0,0,1-.87.69,2.25,2.25,0,0,1-.62.16,3.47,3.47,0,0,0-.84.57,7.15,7.15,0,0,1-1.48,1,1,1,0,0,1-.3.1l-.09,0a1,1,0,0,1-.39.08Z"/><path class="cls-5" d="M20.69,17.38a.86.86,0,0,1,.27.16l.26.21q.08.13,0,.21a.23.23,0,0,0-.07.22l.22.33a.88.88,0,0,0,.26.39.59.59,0,0,1,.18.16,1,1,0,0,1,.21.34,1.63,1.63,0,0,0,.18.35.71.71,0,0,0,.14.15l.18.16a.28.28,0,0,0,.1.15l.14.09a3.85,3.85,0,0,1,.29.52,3.63,3.63,0,0,0,.28.49.89.89,0,0,1,.25.34.24.24,0,0,0,.09.16,4.08,4.08,0,0,0,.36.29.46.46,0,0,1,.13.11,2.27,2.27,0,0,0,.3.44l.24.26a5.93,5.93,0,0,1,.51.66,2.21,2.21,0,0,0,.57.58.63.63,0,0,0,.23.43,1.85,1.85,0,0,1,.37.41,2.35,2.35,0,0,1,.19.34,2.51,2.51,0,0,0,.21.37.27.27,0,0,1,.13.22,1,1,0,0,0,.07.3,4.39,4.39,0,0,0,.46.57,4.48,4.48,0,0,1,.46.57c.15.22.3.46.45.72a5.9,5.9,0,0,0,.47.71.75.75,0,0,0,.17.31.71.71,0,0,1,.14.15,3.9,3.9,0,0,1,.17.4,1.68,1.68,0,0,0,.18.35.88.88,0,0,0,.18.27,2,2,0,0,1,.22.27l.19.31c.06.11.12.21.19.31s.35.44.52.64a7.21,7.21,0,0,1,.49.66,4.84,4.84,0,0,1,.33.57,2,2,0,0,0,.38.53l.3.33.31.36.18.16a.86.86,0,0,1,.15.17,3.63,3.63,0,0,1,.5.91,1.8,1.8,0,0,0,.62.82l.13,0a.62.62,0,0,0,.29-.08.72.72,0,0,1,.33-.09h.11l.24.2q.17.25-.14.39a.21.21,0,0,0,.08.18.16.16,0,0,1,0,.23.94.94,0,0,1-.42.32,1.13,1.13,0,0,1-.41.1h0a4.43,4.43,0,0,0-1.28.81,6.12,6.12,0,0,1-1.27.88l-.21,0s0,0,0,0,0,.07-.09.11a.55.55,0,0,1-.36-.16,2.35,2.35,0,0,1-.24-.31l-.3-.45a4.21,4.21,0,0,0-.24-.41l-.28-.42q-.29-.43-.73-1a2,2,0,0,1-.48-1.1.47.47,0,0,1-.32-.34,3.53,3.53,0,0,0-.22-.51,1.57,1.57,0,0,0-.23-.27.36.36,0,0,1-.11-.35.37.37,0,0,1-.29-.24c-.05-.13-.12-.28-.19-.42a.79.79,0,0,0-.15-.17.18.18,0,0,1,0-.22,2.21,2.21,0,0,0-.34-.32,1.06,1.06,0,0,1-.32-.45,1,1,0,0,1-.08-.15.65.65,0,0,0-.14-.18.78.78,0,0,1-.21-.23L26,31.6a1.65,1.65,0,0,0-.19-.23,1.88,1.88,0,0,1-.23-.29,1.7,1.7,0,0,0-.14-.31.94.94,0,0,0-.2-.21l-.22-.2a3.9,3.9,0,0,0-.45-.65l-.46-.5-.33-.38a2.85,2.85,0,0,1-.33-.49,1.54,1.54,0,0,0-.29-.41l-.26-.25a1.49,1.49,0,0,1-.19-.24l-.17-.25a.9.9,0,0,1-.24-.3.73.73,0,0,0-.07-.16,1.82,1.82,0,0,0-.24-.28c-.1-.1-.21-.21-.32-.34a3.2,3.2,0,0,1-.41-.5l-.37-.55a1,1,0,0,1-.15-.17.62.62,0,0,0-.14-.15c0-.12-.08-.19-.14-.2a.18.18,0,0,1-.12-.07.52.52,0,0,0-.14-.26.38.38,0,0,1-.1-.1.9.9,0,0,0-.22-.36.62.62,0,0,1-.16-.15,2.54,2.54,0,0,1-.19-.33.62.62,0,0,0-.26-.28.26.26,0,0,0-.08-.33,1.2,1.2,0,0,1-.24-.26.73.73,0,0,1-.12-.34.31.31,0,0,0-.18-.27.3.3,0,0,0,0-.22.64.64,0,0,1,0-.23,1.06,1.06,0,0,1-.28-.53q-.09-.36-.19-.66c0-.09-.09-.14-.14-.14h-.18l-.17-.47a.46.46,0,0,1,0-.43,9.57,9.57,0,0,0,1-.54l.88-.54a1.23,1.23,0,0,0,.14-.26.67.67,0,0,1,.15-.23.86.86,0,0,1,.4-.11l.44-.06m0-2a2,2,0,0,0-.42,0l-.17,0a2.75,2.75,0,0,0-1.36.44,2,2,0,0,0-.3.25,2.76,2.76,0,0,0-.37.47l-.45.28a7.65,7.65,0,0,1-.78.43A2,2,0,0,0,16,18a2.48,2.48,0,0,0-.24,2.2l.1.29.07.18a2,2,0,0,0,.49.76,3.45,3.45,0,0,0,.24.61,2,2,0,0,0,.31.83,2.72,2.72,0,0,0,.31.63l.1.14a2,2,0,0,0,.5.78l.18.29a2.65,2.65,0,0,0,.28.35l.12.19.12.15a2,2,0,0,0,.14.22,2.12,2.12,0,0,0,.32.36l.15.16.14.17.27.4a5.35,5.35,0,0,0,.61.75l.31.34a2.76,2.76,0,0,0,.46.64l.07.11a3.42,3.42,0,0,0,.41.5l.23.23a4.82,4.82,0,0,0,.55.81l.37.43,0,0,.43.46a2.2,2.2,0,0,1,.21.31,2,2,0,0,0,.31.4l.16.16a2,2,0,0,0,.15.27,4,4,0,0,0,.4.51,2.44,2.44,0,0,0,.43.56,3.07,3.07,0,0,0,.62.86,2.13,2.13,0,0,0,.29.43l0,.05a2.43,2.43,0,0,0,.4.67,2.35,2.35,0,0,0,.38.53l0,.05a2.56,2.56,0,0,0,.42.79,4.31,4.31,0,0,0,.72,1.27c.26.32.47.6.62.83l.15.23.13.2.11.2.12.21.3.45a4.29,4.29,0,0,0,.46.57,2.49,2.49,0,0,0,1.59.76h.21a2,2,0,0,0,.78-.16l0,0a1.9,1.9,0,0,0,.42-.16,8.13,8.13,0,0,0,1.68-1.17,2.6,2.6,0,0,1,.48-.35,3.34,3.34,0,0,0,.68-.2,3,3,0,0,0,1.3-1l0,0A2.23,2.23,0,0,0,37.11,37a2.27,2.27,0,0,0-.34-1.79,2,2,0,0,0-.38-.43l-.24-.2a2,2,0,0,0-.88-.42l-.27,0a5.64,5.64,0,0,0-.48-.77,2.85,2.85,0,0,0-.47-.52l-.06,0-.17-.2-.06-.07-.26-.29,0-.05-.06-.06a7.66,7.66,0,0,0-.47-.82,9.27,9.27,0,0,0-.64-.85L31.86,30l-.07-.11c-.09-.16-.18-.31-.28-.45a4.19,4.19,0,0,0-.33-.43l-.05-.09a5.93,5.93,0,0,0-.25-.56,2,2,0,0,0-.13-.22l-.18-.24a2.06,2.06,0,0,0-.21-.34,3.92,3.92,0,0,1-.31-.47c-.18-.31-.35-.58-.52-.83a6.52,6.52,0,0,0-.66-.83l-.06-.07a2.27,2.27,0,0,0-.47-.9,4.39,4.39,0,0,0-.33-.58,4.05,4.05,0,0,0-.43-.54,2,2,0,0,0-.68-.82l-.06-.06a8,8,0,0,0-.68-.88l-.08-.09-.15-.15-.05-.09-.07-.12a2.31,2.31,0,0,0-.59-.61,3,3,0,0,0-.32-.43L24.83,20a5.88,5.88,0,0,0-.44-.79,2,2,0,0,0-.35-.4,2,2,0,0,0-.21-.22h0a3,3,0,0,0-.46-.74l-.1-.12a2.24,2.24,0,0,0-.37-1,2,2,0,0,0-.52-.53L22.26,16a2.85,2.85,0,0,0-.92-.54,2,2,0,0,0-.65-.11Z"/><path class="cls-2" d="M37.44,34.84a1,1,0,0,1-.43-.1,2,2,0,0,1-.68-.52,1,1,0,0,1-.51-.81,1.06,1.06,0,0,0,0-.24.51.51,0,0,0-.07-.17,2.67,2.67,0,0,1-.43-.73,2.33,2.33,0,0,1-.14-.44,1.5,1.5,0,0,0-.07-.17,2.53,2.53,0,0,1-.18-.46,1.67,1.67,0,0,1-.11-.48L34.43,30c-.16-.33-.26-.58-.33-.75a2,2,0,0,1-.14-.34,11,11,0,0,1-.5-1.08,4.66,4.66,0,0,0-.34-.69,3.29,3.29,0,0,1-.36-.76,2.44,2.44,0,0,0-.15-.36,1.75,1.75,0,0,0-.19-.37,1.73,1.73,0,0,1-.31-.69,2.13,2.13,0,0,1-.33-.62,3,3,0,0,0-.17-.4l-.2-.4a4.4,4.4,0,0,1-.21-.47L31.18,23a1.63,1.63,0,0,1-.29-.64L30.74,22a1.4,1.4,0,0,1-.28-.38c0-.08-.08-.16-.1-.23L30.13,21a1.24,1.24,0,0,1-.45-.21.94.94,0,0,1-.15-.14l-.38-.45A1.39,1.39,0,0,1,29,18.68a1,1,0,0,1,.14-.2,1.58,1.58,0,0,1,.63-.45l.41-.14a1.13,1.13,0,0,1,.51-.17l.24,0a2.1,2.1,0,0,0,.41-.21l.62-.4c.23-.16.44-.29.63-.4a1.72,1.72,0,0,1,.86-.27l.22,0a1.07,1.07,0,0,1,.62.31,1,1,0,0,1,.46.6c.05.18.11.36.16.53a1.82,1.82,0,0,0,.18.37,2.26,2.26,0,0,1,.37.52,2.69,2.69,0,0,1,.23.67.77.77,0,0,0,.07.2l.2.4a2.58,2.58,0,0,0,.16.27v0a1.19,1.19,0,0,1,.31.83h0a1.55,1.55,0,0,0,.24.45,10.18,10.18,0,0,1,.69,1.13l0,.1c.08.22.16.44.22.67a4.74,4.74,0,0,0,.17.51q.25.62.53,1.2c.21.44.4.87.57,1.31a.91.91,0,0,0,.09.2,2.31,2.31,0,0,1,.23.5c.11.26.21.51.3.76s.19.52.27.77a1.52,1.52,0,0,0,.12.22,5.72,5.72,0,0,1,.32.56l.08.13.14.22.07.07a1.93,1.93,0,0,1,.3.44,1,1,0,0,1,.07.2,1,1,0,0,1,.19.38,1.2,1.2,0,0,1,.14.21,1,1,0,0,1,.09.29c0,.06,0,.13,0,.2a1.42,1.42,0,0,0,.13.19,2.08,2.08,0,0,1,.39.82,1,1,0,0,1-.21.88,2.5,2.5,0,0,0-.18.25,1.62,1.62,0,0,1-1.08.69l-.12,0h-.12a1.26,1.26,0,0,1-.75-.24l-.21,0a1.62,1.62,0,0,1-.36.13l-.3.09-.1,0a.88.88,0,0,0-.2.07A1.67,1.67,0,0,1,37.44,34.84Zm-7.87-17a1,1,0,0,1-.55-.17,1.93,1.93,0,0,0-.36-.19A2.32,2.32,0,0,1,28,17l-.13,0a1,1,0,0,1-.57-.48,2.29,2.29,0,0,1-.57-.71,2.27,2.27,0,0,1-.21-.75l0-.13a1.63,1.63,0,0,1-.12-.53,1,1,0,0,1,0-.29,3,3,0,0,1,.16-.5,1.31,1.31,0,0,1,0-.27,1,1,0,0,1,0-.16,2,2,0,0,1,.24-.66l.19-.31a1.55,1.55,0,0,1,.77-.7,2.73,2.73,0,0,0,.37-.21,1,1,0,0,1,1,0h.17a1.74,1.74,0,0,1,.48.07l.27,0a1.29,1.29,0,0,1,.3,0,3.1,3.1,0,0,1,1.57.75l.12.13,0,0a1.91,1.91,0,0,1,.44.7,2.88,2.88,0,0,1,.22.79,1.46,1.46,0,0,1,0,.45,2.44,2.44,0,0,1,.07.65,2,2,0,0,0,0,.27,1,1,0,0,1-.24.76,2.57,2.57,0,0,1-.36.56c-.19.2-.32.34-.41.46a2.15,2.15,0,0,1-.71.58,1.46,1.46,0,0,1-.63.16h0l-.05,0a2.4,2.4,0,0,1-.46.18A1,1,0,0,1,29.58,17.86Z"/><path class="cls-5" d="M28.61,12.16a.63.63,0,0,0,.38.13h.25a.77.77,0,0,1,.4.11l.3-.07h0l.1,0a2.12,2.12,0,0,1,1.11.52l.1.12c.05,0,.13.14.22.37a2.06,2.06,0,0,1,.15.5.57.57,0,0,1,0,.19c0,.06,0,.12,0,.18a1.8,1.8,0,0,1,.1.6,2.83,2.83,0,0,0,0,.41,1.18,1.18,0,0,0-.18.28,1.22,1.22,0,0,1-.18.28c-.18.18-.32.34-.43.48a1.18,1.18,0,0,1-.38.32.47.47,0,0,1-.21.06l-.2,0a1.54,1.54,0,0,0-.28.11,1.46,1.46,0,0,1-.28.11,2.94,2.94,0,0,0-.54-.29,1.39,1.39,0,0,1-.51-.37l-.38-.15a1.05,1.05,0,0,0-.28-.35,1,1,0,0,1-.28-.35,1.43,1.43,0,0,1-.11-.49c0-.1-.06-.2-.1-.29a.72.72,0,0,1-.06-.21,1.39,1.39,0,0,1,.14-.4.39.39,0,0,0,.07-.19.84.84,0,0,0,0-.3.26.26,0,0,1,0-.12,1,1,0,0,1,.12-.32l.19-.32a.55.55,0,0,1,.3-.28,3.71,3.71,0,0,0,.5-.28m4.81,5.26h0a.19.19,0,0,1,.16.11.13.13,0,0,0,.12.08h0q.08.3.18.58a2.74,2.74,0,0,0,.28.59.78.78,0,0,0,.16.22.78.78,0,0,1,.16.22,1.71,1.71,0,0,1,.15.42,1.83,1.83,0,0,0,.16.45l.2.39a3.57,3.57,0,0,0,.23.38.32.32,0,0,0,.1.14s0,.07,0,.16a2.08,2.08,0,0,0,.42,1,9.19,9.19,0,0,1,.62,1c.07.19.14.39.2.58a5.77,5.77,0,0,0,.21.61q.26.65.56,1.27T38,26.89a1.6,1.6,0,0,0,.16.34,1.3,1.3,0,0,1,.15.32c.11.26.21.52.3.77s.18.49.25.73a2.33,2.33,0,0,0,.24.47,4.92,4.92,0,0,1,.27.46,2.21,2.21,0,0,0,.14.24,2.19,2.19,0,0,1,.14.24l.16.18a1,1,0,0,1,.14.22A.89.89,0,0,0,40,31l.06.12a.12.12,0,0,0,.07.07.64.64,0,0,0,.12.3.39.39,0,0,1,.09.11c0,.06,0,.13,0,.21a.67.67,0,0,0,.08.25,2.5,2.5,0,0,0,.25.4,1.07,1.07,0,0,1,.2.43,3.29,3.29,0,0,0-.26.36.68.68,0,0,1-.45.25h0a.29.29,0,0,1-.24-.14.55.55,0,0,0-.27-.2,1.82,1.82,0,0,1-.4.11l-.23,0h-.12a.47.47,0,0,1-.28.16l-.4.12a1.85,1.85,0,0,0-.43.15.73.73,0,0,1-.32.1.88.88,0,0,1-.38-.3.37.37,0,0,0-.25-.19,2,2,0,0,0-.09-.5,1.35,1.35,0,0,0-.26-.5,1.71,1.71,0,0,1-.28-.49,1.57,1.57,0,0,1-.1-.33,2.77,2.77,0,0,0-.14-.34,1.57,1.57,0,0,1-.11-.28,1,1,0,0,1-.08-.29,1,1,0,0,0,0-.12c-.14-.32-.29-.64-.44-1S35.07,29,35,28.8a1.18,1.18,0,0,1-.09-.21,1.24,1.24,0,0,0-.09-.21c-.18-.36-.33-.68-.44-1a5.66,5.66,0,0,0-.41-.83,2.37,2.37,0,0,1-.26-.55,3.54,3.54,0,0,0-.21-.51,2.3,2.3,0,0,0-.28-.52.8.8,0,0,1-.15-.52,1.16,1.16,0,0,1-.34-.51,3.92,3.92,0,0,0-.22-.54L32.32,23a3.6,3.6,0,0,1-.18-.42,1.82,1.82,0,0,0-.17-.27.58.58,0,0,1-.12-.3l-.17-.44-.08-.18a.47.47,0,0,0-.14-.17.42.42,0,0,1-.12-.14,1.23,1.23,0,0,1-.08-.2.39.39,0,0,0-.1-.16l-.3-.41a.52.52,0,0,1-.09-.21.22.22,0,0,0-.17-.09h-.17a.25.25,0,0,1-.16-.05l-.35-.42a.4.4,0,0,1-.07-.46.61.61,0,0,1,.24-.17l.33-.12a.38.38,0,0,0,.23-.08.13.13,0,0,1,.11-.06l.21,0,.24,0a4,4,0,0,0,.62-.32l.65-.42.58-.37a.79.79,0,0,1,.37-.13m-4.81-7.26a2,2,0,0,0-1.06.31l-.23.13a2.55,2.55,0,0,0-1.25,1.13l-.18.3a3,3,0,0,0-.37,1,2,2,0,0,0,0,.33s0,.09,0,.14-.08.25-.11.39a2,2,0,0,0-.06.53,2.59,2.59,0,0,0,.19.88h0a3.13,3.13,0,0,0,.29,1,3.1,3.1,0,0,0,.67.89,2,2,0,0,0,1,.79,3.3,3.3,0,0,0,.58.38,2.41,2.41,0,0,0,.33,2.55l.4.48a2,2,0,0,0,.29.27,2.25,2.25,0,0,0,.42.25l.07.15a2.51,2.51,0,0,0,.32.48l0,.13a2.6,2.6,0,0,0,.42.89c.06.15.13.3.2.44l.09.17.12.24a1.94,1.94,0,0,1,.1.25,3.19,3.19,0,0,0,.36.73,2.71,2.71,0,0,0,.43.86h0l0,.07.07.15a1.54,1.54,0,0,1,.09.22,4.33,4.33,0,0,0,.46,1,3.64,3.64,0,0,1,.25.52c.13.34.3.71.51,1.12a3.1,3.1,0,0,0,.14.34c.08.2.19.45.35.78l.27.58a3.28,3.28,0,0,0,.15.56,3.58,3.58,0,0,0,.23.57,3.23,3.23,0,0,0,.18.56,3.76,3.76,0,0,0,.46.82A2,2,0,0,0,35.68,35a3,3,0,0,0,.9.66,2,2,0,0,0,.87.2,2.64,2.64,0,0,0,1.2-.3l.22-.06.25-.07.17,0a2.25,2.25,0,0,0,.87.17h.2l.24,0a2.59,2.59,0,0,0,1.71-1.13l.11-.15a2,2,0,0,0,.41-1.75,3.08,3.08,0,0,0-.52-1.14,2,2,0,0,0-.2-.61l-.12-.2a2,2,0,0,0-.19-.37,2,2,0,0,0-.09-.2,3,3,0,0,0-.44-.65l-.12-.19a6.94,6.94,0,0,0-.39-.67l0,0q-.12-.37-.26-.75c-.09-.24-.19-.5-.3-.76a3.31,3.31,0,0,0-.3-.64l0-.08c-.18-.45-.38-.91-.6-1.37s-.35-.76-.51-1.15a3.75,3.75,0,0,1-.14-.4c-.07-.26-.16-.51-.25-.76l-.09-.2A11.21,11.21,0,0,0,37.48,21l-.07-.12a2.2,2.2,0,0,0-.51-1.22l-.08-.13-.19-.38a3.72,3.72,0,0,0-.31-.88,2.81,2.81,0,0,0-.43-.63.74.74,0,0,1-.06-.12c-.05-.16-.1-.33-.15-.5a2,2,0,0,0-.86-1.16,2.15,2.15,0,0,0-1.12-.48,2,2,0,0,0,0-.43s0-.06,0-.11a3.38,3.38,0,0,0-.05-.75,2.57,2.57,0,0,0,0-.56,3.9,3.9,0,0,0-.29-1,3,3,0,0,0-.62-1,2,2,0,0,0-.24-.24,4.07,4.07,0,0,0-2-1A2.27,2.27,0,0,0,30,10.3h-.23a2.71,2.71,0,0,0-.51-.05,2,2,0,0,0-.64-.11Z"/><path class="cls-2" d="M45.28,32.79a1,1,0,0,1-.78-.38l.78-.62-.78.62a1.29,1.29,0,0,1-.55-1c0-.07-.06-.16-.09-.26a1,1,0,0,1,0-.12,1.18,1.18,0,0,1-.08-.16,3.82,3.82,0,0,1-.37-1.14c0-.26-.09-.56-.15-.89a1.38,1.38,0,0,0-.06-.22L43,28.36a1,1,0,0,1-.08-.19c0-.13-.07-.25-.09-.38l0-.15a1.55,1.55,0,0,1-.13-.49,2.12,2.12,0,0,1-.19-.29,1.06,1.06,0,0,1-.08-.18,1.59,1.59,0,0,0-.06-.16,3.55,3.55,0,0,1-.13-.35c0-.13-.08-.26-.13-.38s-.11-.31-.16-.46-.16-.56-.24-.9a6.62,6.62,0,0,0-.21-.69,1.52,1.52,0,0,1-.22-.6,2.4,2.4,0,0,0-.13-.33,1.64,1.64,0,0,1-.17-.74L41,22a1.76,1.76,0,0,1-.16-.57l0-.21a1.73,1.73,0,0,1-.12-.38,1.72,1.72,0,0,1-.1-.7.35.35,0,0,0,0,0,2.69,2.69,0,0,1-.19-.47,1.94,1.94,0,0,1-.08-.46.69.69,0,0,1,0-.17,1.59,1.59,0,0,0,0-.29,1.73,1.73,0,0,1-.25-.53.93.93,0,0,1,0-.23v-.1a3.71,3.71,0,0,1-.18-.41,1.42,1.42,0,0,1-.34-.58,1,1,0,0,1,0-.36,1,1,0,0,1-.22-.38L39,15.65c-.07-.25-.11-.39-.14-.53l0-.14c-.06-.2-.12-.41-.17-.62s-.08-.3-.13-.47a2.72,2.72,0,0,0-.18-.35,3.36,3.36,0,0,1-.35-.78,2.63,2.63,0,0,1-.11-.61c0-.08,0-.23,0-.23a1.45,1.45,0,0,1-.16-.27,2.11,2.11,0,0,1-.16-.38l-.06-.19,0-.07a1.93,1.93,0,0,1-.22-.47,1,1,0,0,1,0-.17,1.1,1.1,0,0,1-.26-.2,1.71,1.71,0,0,1-.47-1.23,1,1,0,0,1,.42-1.19,5.55,5.55,0,0,1,.52-.28A1.57,1.57,0,0,1,38,7.34l.14-.1A2,2,0,0,1,38.8,7a.92.92,0,0,1,.56-.29c.25,0,.46-.08.65-.13l.77-.22a1,1,0,0,1,.29,0h.17A1.39,1.39,0,0,1,42,6.7a.9.9,0,0,1,.48.84,2.74,2.74,0,0,1,.15.3,2.93,2.93,0,0,1,.27.62,1,1,0,0,1,0,.34A.91.91,0,0,0,43,9l.12.42a5.41,5.41,0,0,0,.27.93q.15.37.31.73a2.63,2.63,0,0,1,.27.56c.07.2.14.39.19.56a2.32,2.32,0,0,1,.1.55h0a.93.93,0,0,0,.16.26,1.61,1.61,0,0,1,.4.86l.15.22a1.71,1.71,0,0,1,.28.78,1.39,1.39,0,0,1,.17.39l0,.07.08-.14a2,2,0,0,1,.38-.6l0-.07a1.11,1.11,0,0,1,.46-.44h0a1.14,1.14,0,0,1,.26-.4,1.36,1.36,0,0,1,.13-.29,1,1,0,0,1,.11-.31l.14-.23a1.31,1.31,0,0,1,.2-.21l.12-.22a4.34,4.34,0,0,0,.22-.43,3,3,0,0,0,.17-.35,1.89,1.89,0,0,1,.28-.57l.05-.07a1.47,1.47,0,0,1,.1-.24,3.25,3.25,0,0,1,.44-.62,1.37,1.37,0,0,1,1-.47l.29,0a2.07,2.07,0,0,1,.54-.07H51l.33,0,.2,0h.19a2.48,2.48,0,0,1,1-.2h.25a1,1,0,0,1,.69.37l.19.22a1.85,1.85,0,0,1,.41,1,1,1,0,0,1-.17.69,1.26,1.26,0,0,1-.39.52,1.44,1.44,0,0,1-.21.34l-.09.1-.12.24a1.5,1.5,0,0,1-.39.47l0,.09-.07.16a1.8,1.8,0,0,1-.24.42,3.69,3.69,0,0,1-.15.48,2,2,0,0,1-.42.66l0,.12a1.93,1.93,0,0,1-.31.59l-.06.08,0,.09a2.93,2.93,0,0,1-.48.83,1,1,0,0,1-.07.23,2.27,2.27,0,0,1-.53.76,2.43,2.43,0,0,1-.37.82,2.53,2.53,0,0,0-.24.42,1,1,0,0,1-.2.3c0,.07,0,.14,0,.21a1.66,1.66,0,0,1-.12.3,2.67,2.67,0,0,1,.33.27l.34.11a4.75,4.75,0,0,1,.78.27,2.59,2.59,0,0,1,.65.24,2,2,0,0,1,.52.4,1.14,1.14,0,0,1,.22.15,2.64,2.64,0,0,1,.36.25,3.28,3.28,0,0,1,.44.2l.45.26a3.68,3.68,0,0,1,.42.22,2.25,2.25,0,0,1,.32.23,2.45,2.45,0,0,1,.52.21l.54.32.48.31a.26.26,0,0,0,.11,0,1,1,0,0,1,.73.48l.38.17a1,1,0,0,1,.5.49l.17.19a2.19,2.19,0,0,1,.51.28,1,1,0,0,1,.58.32,1,1,0,0,1,.52.67,1.51,1.51,0,0,1,.42.5,1,1,0,0,1,.08.18,1.57,1.57,0,0,1,0,1,1.13,1.13,0,0,1-.55.86l-.36.17a2.07,2.07,0,0,1-.49.14A1.54,1.54,0,0,1,58,29h-.17l-.16,0-.25,0-.24.08-.15.12-.13.12a1.27,1.27,0,0,1-.64.42,1.93,1.93,0,0,1-.57.09,1.56,1.56,0,0,1-.93-.3H54.7a.85.85,0,0,1-.48-.13l-.31-.17a1.9,1.9,0,0,0-.32-.11L53.37,29a1.25,1.25,0,0,1-.39-.33l-.79-.39-.75-.37-.1-.05-.51-.31a3.9,3.9,0,0,1-.53-.38,1.1,1.1,0,0,1-.45-.25,1.27,1.27,0,0,1-.22-.14.78.78,0,0,1-.18-.09l-.09-.05a1.09,1.09,0,0,1-.45-.24,1.85,1.85,0,0,1-.63-.35.22.22,0,0,0-.1,0h0l.07.17a9.23,9.23,0,0,1,.38,1.21.89.89,0,0,1,0,.16v0a1.61,1.61,0,0,1,.17.38,1,1,0,0,1,0,.15,1.07,1.07,0,0,1,.11.23v0a1.14,1.14,0,0,1,.22.39h0l.13.17a1,1,0,0,1,.17.66s0,.08,0,.11A1.75,1.75,0,0,1,49.84,31a2,2,0,0,1-.46,1,1,1,0,0,1-.46.3,2.93,2.93,0,0,1-.86.14,2.1,2.1,0,0,1-.5-.06,2.29,2.29,0,0,0-.36-.06l-.73.22a5.93,5.93,0,0,1-1.07.22Z"/><path class="cls-5" d="M41.07,7.27a.4.4,0,0,1,.23.12.8.8,0,0,0,.21.16.83.83,0,0,0,.08.37l.18.38a2,2,0,0,1,.2.45,1.72,1.72,0,0,0,0,.57l.1.34a6.37,6.37,0,0,0,.32,1.11c.12.28.24.56.37.84a1.45,1.45,0,0,1,.2.4c.07.18.12.35.17.51a1.35,1.35,0,0,1,.06.35.69.69,0,0,0,.08.31,1.93,1.93,0,0,0,.34.53.55.55,0,0,1,.14.53,4.93,4.93,0,0,1,.32.44.65.65,0,0,1,.1.54c.16.18.23.3.21.33a.14.14,0,0,0,0,.11.67.67,0,0,1,.25.5q0,.37.11.67a.65.65,0,0,1,.12.3.4.4,0,0,0,0,.14.76.76,0,0,0,.16.28.47.47,0,0,1,.12.33.82.82,0,0,0,.25-.43,4.39,4.39,0,0,0,.36-.64c.09-.21.18-.42.26-.64a2.14,2.14,0,0,0,.26-.35l.11-.21a1,1,0,0,1,.18-.31.41.41,0,0,0,.1-.13l.1-.14s.09-.07.2-.11a1.55,1.55,0,0,0,.3-.43.38.38,0,0,1,.26-.22.54.54,0,0,1,.09-.38.51.51,0,0,0,.11-.32l.08-.14a.31.31,0,0,1,.16-.1,3.24,3.24,0,0,1,.21-.41,5.44,5.44,0,0,0,.27-.53,2.9,2.9,0,0,0,.21-.46.92.92,0,0,1,.14-.28.91.91,0,0,0,.17-.28.49.49,0,0,1,.05-.14,2.3,2.3,0,0,1,.31-.43.38.38,0,0,1,.29-.13.77.77,0,0,1,.32.09,1,1,0,0,1,.5-.13H51l.42,0h.06a.37.37,0,0,1,.27.12,1.38,1.38,0,0,1,.91-.31h.17l.22.27a.9.9,0,0,1,.16.48.66.66,0,0,0-.11.21.33.33,0,0,1-.24.19.49.49,0,0,0-.1.21.49.49,0,0,1-.1.21.87.87,0,0,0-.2.27l-.12.24a.53.53,0,0,1-.14.16,1,1,0,0,0-.19.2,3,3,0,0,0-.15.3l0,.11a.51.51,0,0,1-.17.26c-.05,0-.08.05-.07.07a3,3,0,0,1-.16.61,1,1,0,0,1-.34.44L51,15a.93.93,0,0,1-.18.33.58.58,0,0,1-.11.15.35.35,0,0,0-.09.23,1.8,1.8,0,0,1-.34.58.67.67,0,0,0-.2.44,1.32,1.32,0,0,1-.29.44,1.2,1.2,0,0,0-.26.33,1.44,1.44,0,0,1-.24.65,3.46,3.46,0,0,0-.33.58c-.19.14-.28.26-.27.35a1,1,0,0,1,0,.31.58.58,0,0,1-.12.21,1.23,1.23,0,0,0-.15.22.38.38,0,0,0-.09.19.4.4,0,0,1-.09.18,1.27,1.27,0,0,0,.51.45,1.59,1.59,0,0,1,.53.41,3.8,3.8,0,0,0,.67.24,3.93,3.93,0,0,1,.71.26,1.63,1.63,0,0,1,.49.17,1,1,0,0,1,.27.2,1,1,0,0,0,.27.2,1.27,1.27,0,0,0,.26.19.77.77,0,0,1,.23.2,2.4,2.4,0,0,1,.5.2l.46.27a2.69,2.69,0,0,1,.37.19,1.34,1.34,0,0,1,.34.29,1.52,1.52,0,0,1,.54.17l.48.28.47.3a1.25,1.25,0,0,0,.53.19.77.77,0,0,0,.36.37l.47.21a1.13,1.13,0,0,0,.23.33,2.07,2.07,0,0,1,.25.29,1.4,1.4,0,0,1,.55.26.56.56,0,0,0,.38.15h0a.38.38,0,0,0,.29.23.64.64,0,0,0,.05.22l.09.15a.88.88,0,0,0,.2.19.56.56,0,0,1,.17.2.57.57,0,0,1,0,.38,1.21,1.21,0,0,0-.09.34l-.28.13a1,1,0,0,1-.29.07L58,28H58l-.25,0-.26,0h0a.36.36,0,0,1-.17,0,.52.52,0,0,1-.3.16.64.64,0,0,0-.31.13.71.71,0,0,1-.16.15.67.67,0,0,0-.16.14.32.32,0,0,0-.16.14s-.07.09-.17.12a.94.94,0,0,1-.27,0,.57.57,0,0,1-.35-.11.9.9,0,0,0-.55-.16h-.07a3.69,3.69,0,0,0-.42-.24,2.82,2.82,0,0,0-.5-.18.27.27,0,0,1-.12-.12.27.27,0,0,0-.12-.12l-1-.48L51.86,27l-.52-.32a3.07,3.07,0,0,1-.51-.38,1,1,0,0,0-.23-.09c-.08,0-.11-.08-.1-.19l-.1,0a.24.24,0,0,1-.15-.05.92.92,0,0,0-.25-.13,1.24,1.24,0,0,0-.34-.17.2.2,0,0,1-.15-.19,1,1,0,0,1-.59-.22,1.16,1.16,0,0,0-.57-.25.53.53,0,0,0-.12-.15.94.94,0,0,1-.16-.17H48a.34.34,0,0,1-.19-.05.33.33,0,0,0-.18,0H47.5a.23.23,0,0,0-.16-.17l-.19-.07-.19-.1a.49.49,0,0,0-.21-.06.23.23,0,0,0,0,.26,1.65,1.65,0,0,1,.12.28,2.17,2.17,0,0,0,.15.59.27.27,0,0,1-.06.34q.18.39.38.87a8.21,8.21,0,0,1,.34,1.07.82.82,0,0,0,.11.4.75.75,0,0,1,.11.21.55.55,0,0,0,.08.32.4.4,0,0,1,.08.1.71.71,0,0,0,.13.28.4.4,0,0,1,.08.1.86.86,0,0,0,.14.29l.13.17a.58.58,0,0,1-.08.26.56.56,0,0,0-.08.26c0,.12.09.18.16.21l.18.07a.76.76,0,0,1,.17.57,1,1,0,0,1-.23.5,2,2,0,0,1-.57.1,1.11,1.11,0,0,1-.27,0,3.37,3.37,0,0,0-.72-.1l-.9.28a4.94,4.94,0,0,1-.89.18.9.9,0,0,0-.22-.2.39.39,0,0,1-.13-.33.39.39,0,0,0,0-.18,1.43,1.43,0,0,1-.08-.23.42.42,0,0,0-.07-.28.27.27,0,0,1-.08-.12,2.9,2.9,0,0,1-.3-.88c0-.27-.09-.58-.15-.92a2,2,0,0,0-.15-.48l-.15-.29q0-.15-.07-.3a2.77,2.77,0,0,0-.07-.3.52.52,0,0,1-.07-.28.46.46,0,0,0,0-.17.54.54,0,0,0-.13-.22,1,1,0,0,1-.17-.23c0-.08-.06-.16-.09-.26a2.73,2.73,0,0,1-.09-.26c0-.16-.1-.3-.15-.45s-.1-.28-.14-.42-.14-.51-.22-.83a7.61,7.61,0,0,0-.27-.9.79.79,0,0,1-.13-.28,1.15,1.15,0,0,0,0-.18,3.56,3.56,0,0,0-.18-.45.51.51,0,0,1,0-.47.24.24,0,0,0-.07-.17.4.4,0,0,1-.1-.16.69.69,0,0,1-.08-.28c0-.11,0-.22,0-.32a1.38,1.38,0,0,0-.07-.18.43.43,0,0,1,0-.19.82.82,0,0,1-.09-.39,1.58,1.58,0,0,0,0-.38,1.19,1.19,0,0,0-.11-.25,1.15,1.15,0,0,1-.11-.25.87.87,0,0,1,0-.21.93.93,0,0,0,0-.21,2.63,2.63,0,0,0-.08-.48.92.92,0,0,0-.13-.26.91.91,0,0,1-.13-.26,1.74,1.74,0,0,0,0-.37,3.08,3.08,0,0,1-.19-.42l-.06-.2-.14-.13a.44.44,0,0,1-.12-.2,1.08,1.08,0,0,0-.08-.44.66.66,0,0,0-.17-.31L40,15.62l-.11-.35c0-.13-.07-.24-.09-.35s0-.18-.05-.22c-.06-.19-.11-.38-.16-.57s-.1-.38-.16-.57a4,4,0,0,0-.27-.54,2.29,2.29,0,0,1-.24-.55,1.71,1.71,0,0,1-.07-.38c0-.13,0-.26,0-.39a1.09,1.09,0,0,0-.15-.35.46.46,0,0,1-.09-.15,1.06,1.06,0,0,1-.1-.24l-.08-.28-.13-.23a.85.85,0,0,1-.1-.21,1.29,1.29,0,0,0-.11-.46A.67.67,0,0,1,38,9.45a.12.12,0,0,0-.08,0s-.06,0-.09.06-.06.07-.09.07a.11.11,0,0,1-.08,0c-.17-.22-.24-.38-.19-.48a.45.45,0,0,0-.07-.39,4.43,4.43,0,0,1,.42-.23.6.6,0,0,1,.25-.05.87.87,0,0,1,.23,0l.41-.3a1.2,1.2,0,0,1,.54-.18l.11-.1.13-.14q.42-.07.75-.15l.81-.23m0-2a2,2,0,0,0-.58.09l-.73.21-.56.11a2,2,0,0,0-.91.39,3,3,0,0,0-.63.3,2.55,2.55,0,0,0-.67.2,6.43,6.43,0,0,0-.61.33,2,2,0,0,0-.91,2.2,2.68,2.68,0,0,0,.63,1.63l.11.12.11.11a2.85,2.85,0,0,0,.25.53v0a3.3,3.3,0,0,0,.22.55l.09.17a3.74,3.74,0,0,0,.15.79,4.31,4.31,0,0,0,.46,1l.09.17.1.37c0,.2.11.41.17.63l0,.08c0,.16.08.34.14.54l.11.36.05.17a2,2,0,0,0,.19.43,2,2,0,0,0,.07.32,2.46,2.46,0,0,0,.42.81l.07.16a2,2,0,0,0,.07.36,3,3,0,0,0,.26.6v0a2,2,0,0,0,0,.21,2.82,2.82,0,0,0,.11.61,3.33,3.33,0,0,0,.15.4,2.76,2.76,0,0,0,.13.78,2.43,2.43,0,0,0,.11.37v.09a2.71,2.71,0,0,0,.2.76,2.73,2.73,0,0,0,.26.94l.06.13a2.5,2.5,0,0,0,.28.77c.06.16.1.33.15.51q.13.54.25.94c.06.19.12.37.19.55s.07.2.11.32a4.72,4.72,0,0,0,.16.44l0,.07a2.51,2.51,0,0,0,.15.36l.11.2a2.62,2.62,0,0,0,.13.43h0c0,.19.08.35.13.51a2,2,0,0,0,.15.36l.09.18v0c.06.31.1.59.14.84a4.84,4.84,0,0,0,.45,1.41l0,.1,0,.05.07.21a2.34,2.34,0,0,0,.86,1.51,2,2,0,0,0,1.45.63h.22a6.94,6.94,0,0,0,1.25-.25l.2-.06.33-.1h0a3.09,3.09,0,0,0,.75.09,3.92,3.92,0,0,0,1.14-.18,2,2,0,0,0,.92-.6,3,3,0,0,0,.69-1.53,2.72,2.72,0,0,0-.33-1.72,2,2,0,0,0-.36-1.09l-.06-.08v0l.28.18.48.29.2.11.73.36.63.32a2.23,2.23,0,0,0,.52.39,2,2,0,0,0,.43.17l.15.05.19.11a2,2,0,0,0,.87.31,2.56,2.56,0,0,0,1.17.28,2.91,2.91,0,0,0,.85-.13,2.31,2.31,0,0,0,1-.65l.07-.06H58a2.53,2.53,0,0,0,.54-.06,3,3,0,0,0,.67-.19l.45-.22a2,2,0,0,0,1-1.45,2.58,2.58,0,0,0,0-1.63,2,2,0,0,0-.15-.37,2.64,2.64,0,0,0-.43-.59,3,3,0,0,0-1.55-1.36l-.29-.16a2,2,0,0,0-.89-.78l-.15-.07a2,2,0,0,0-1.08-.63L56,22.31l-.12-.08c-.2-.13-.4-.25-.61-.36a3.43,3.43,0,0,0-.52-.23l-.29-.19a4.75,4.75,0,0,0-.46-.24L53.55,21l-.42-.19-.23-.15-.21-.16A3,3,0,0,0,52,20a3.57,3.57,0,0,0-.8-.31l-.45-.17.1-.16a3.44,3.44,0,0,0,.45-.89,3.43,3.43,0,0,0,.54-.87l.07-.17a4.17,4.17,0,0,0,.5-.91,3,3,0,0,0,.4-.74,3,3,0,0,0,.48-.81q.08-.19.14-.41a2.82,2.82,0,0,0,.24-.45l0-.06a2.34,2.34,0,0,0,.44-.58l.08-.16,0,0a2.46,2.46,0,0,0,.24-.35,2.21,2.21,0,0,0,.46-.67,2,2,0,0,0,.27-1.28,2.8,2.8,0,0,0-.64-1.55l-.17-.2A2,2,0,0,0,53,8.42H52.7a3.51,3.51,0,0,0-1.14.18h0l-.35,0H50.5a3.3,3.3,0,0,0-.6.05h-.25a2.34,2.34,0,0,0-1.78.8,4.22,4.22,0,0,0-.58.82l-.11.23a2.92,2.92,0,0,0-.38.78l-.08.15-.06.13a3.45,3.45,0,0,1-.17.33l-.06.11a2.16,2.16,0,0,0-.19.23,3.46,3.46,0,0,0-.23.36,2,2,0,0,0-.17.43l-.06.14-.11.15a2.67,2.67,0,0,0-.49-.9,3.43,3.43,0,0,0-.11-.51c-.06-.19-.13-.39-.2-.61a3.77,3.77,0,0,0-.33-.7L44.26,10A4.39,4.39,0,0,1,44,9.24q0-.09,0-.17l-.06-.21h0a2,2,0,0,0-.08-.68,4,4,0,0,0-.33-.78l-.07-.14a2,2,0,0,0-.85-1.35,2.37,2.37,0,0,0-1.2-.59l-.34,0Z"/><path class="cls-2" d="M75.35,27.37a2,2,0,0,1-.53-.07l-.1,0a1.26,1.26,0,0,1-.67-.61l-.19-.07a1.66,1.66,0,0,1-.38,0l-.32-.06a1.53,1.53,0,0,0-.31,0h0a1.71,1.71,0,0,1-.78-.16,1,1,0,0,1-.36-.3,2,2,0,0,1-.37-.77,1,1,0,0,1-.08-1,.92.92,0,0,0,.07-.21.57.57,0,0,0,0-.2,2.7,2.7,0,0,1-.06-.89,2,2,0,0,1,.07-.43,1.71,1.71,0,0,0,0-.18,2.48,2.48,0,0,1,0-.49,1.66,1.66,0,0,1,.11-.48q0-.4,0-.81c0-.37,0-.64,0-.83a2,2,0,0,1,0-.38,10,10,0,0,1,0-1.17,4.66,4.66,0,0,0,0-.76,3.33,3.33,0,0,1,0-.84,2.27,2.27,0,0,0,0-.37,1.78,1.78,0,0,0,0-.42,1.74,1.74,0,0,1,0-.76,2.12,2.12,0,0,1,0-.71,2.93,2.93,0,0,0,0-.43V13.4a4.76,4.76,0,0,1,0-.5s0-.06,0-.09a1.62,1.62,0,0,1,0-.7c0-.18,0-.31,0-.39a1.39,1.39,0,0,1-.09-.48,2.38,2.38,0,0,1,0-.24l-.06-.38a1.26,1.26,0,0,1-.3-.38,1,1,0,0,1-.08-.22c0-.17-.09-.36-.13-.57A1.39,1.39,0,0,1,71.74,8,1,1,0,0,1,72,7.88a1.59,1.59,0,0,1,.61-.12h.15l.44.06h.11a1.27,1.27,0,0,1,.37.07h0l.26.1h.47l.73-.08.75-.07H76a1.5,1.5,0,0,1,.93.27,1.1,1.1,0,0,1,.43.57,1,1,0,0,1,.14.73c0,.19-.07.37-.09.55a1.78,1.78,0,0,0,0,.42,2.25,2.25,0,0,1,.1.63,2.77,2.77,0,0,1-.09.7.83.83,0,0,0,0,.22v.44a2.46,2.46,0,0,0,0,.32v0a1.17,1.17,0,0,1-.1.89h0a1.71,1.71,0,0,0,0,.51,10,10,0,0,1,.11,1.32.93.93,0,0,1,0,.1q0,.35-.1.7a4.85,4.85,0,0,0-.07.53c0,.44-.06.88-.06,1.32s0,1-.07,1.42a.89.89,0,0,0,0,.21,2.48,2.48,0,0,1,0,.55c0,.28,0,.56-.07.82s-.07.55-.11.81a1.48,1.48,0,0,0,0,.25,6.08,6.08,0,0,1,0,.65,1.07,1.07,0,0,0,0,.15c0,.08,0,.17,0,.26l0,.08a2,2,0,0,1,.07.54A1,1,0,0,1,77,24a1,1,0,0,1,0,.43,1.22,1.22,0,0,1,0,.25A1,1,0,0,1,77,25l-.07.18a1.35,1.35,0,0,0,0,.22,2.06,2.06,0,0,1,0,.91,1,1,0,0,1-.57.69l-.28.14A1.44,1.44,0,0,1,75.35,27.37ZM74.1,7.81a1.44,1.44,0,0,1-.66-.15h0a2.42,2.42,0,0,1-.5,0,1,1,0,0,1-.66-.48A2,2,0,0,0,72,6.79a2.35,2.35,0,0,1-.43-.72L71.49,6a1,1,0,0,1-.29-.71A2.26,2.26,0,0,1,71,4.39a2.24,2.24,0,0,1,.15-.76l0-.15a1.52,1.52,0,0,1,.14-.55,1,1,0,0,1,.14-.21,3,3,0,0,1,.37-.38,1.27,1.27,0,0,1,.09-.24A1,1,0,0,1,72,2a2,2,0,0,1,.51-.47l.29-.18A1.52,1.52,0,0,1,73.72,1h.19l.34,0h.1a1,1,0,0,1,.81.42,1.75,1.75,0,0,1,.55.35,1.29,1.29,0,0,1,.51.27,3.13,3.13,0,0,1,1.06,1.37,1.07,1.07,0,0,1,.05.18v0a1.92,1.92,0,0,1,.07.83,2.81,2.81,0,0,1-.15.81,1.38,1.38,0,0,1-.21.39,2.46,2.46,0,0,1-.23.62,1.91,1.91,0,0,0-.12.23,1,1,0,0,1-.55.57,2.56,2.56,0,0,1-.57.34L75,7.62a2.18,2.18,0,0,1-.88.2Z"/><path class="cls-5" d="M74.34,2a.65.65,0,0,0,.4.33.78.78,0,0,1,.42.33l.3.07a.27.27,0,0,1,.12.08,2.13,2.13,0,0,1,.76,1l0,.15s.05.18,0,.43a2.07,2.07,0,0,1-.09.52.54.54,0,0,1-.09.17l-.12.14a1.77,1.77,0,0,1-.18.58,2.91,2.91,0,0,0-.18.37,1.2,1.2,0,0,0-.29.17,1.14,1.14,0,0,1-.29.17l-.6.23a1.2,1.2,0,0,1-.48.11.46.46,0,0,1-.21,0l-.18-.07-.29,0h0a1.53,1.53,0,0,1-.3,0,3,3,0,0,0-.35-.5,1.42,1.42,0,0,1-.29-.56,2.94,2.94,0,0,0-.27-.3,1.05,1.05,0,0,0-.09-.44A1.05,1.05,0,0,1,72,4.39a1.41,1.41,0,0,1,.12-.49c0-.1,0-.2,0-.3a.69.69,0,0,1,0-.21,1.37,1.37,0,0,1,.3-.29A.4.4,0,0,0,72.65,3a.84.84,0,0,0,.12-.28.28.28,0,0,1,0-.12,1,1,0,0,1,.26-.23l.32-.2A.52.52,0,0,1,73.72,2h.2l.42,0M72.56,8.75h.05l.35,0,.19,0h.06l.06,0,.06,0,.2.07.23.07h.31l.39,0,.77-.08.68-.07H76a.57.57,0,0,1,.33.08.19.19,0,0,1,.09.17.13.13,0,0,0,.09.14c0,.2-.07.4-.1.59a2.78,2.78,0,0,0,0,.66.79.79,0,0,0,0,.27.79.79,0,0,1,0,.27,1.72,1.72,0,0,1-.06.44,1.81,1.81,0,0,0-.06.47c0,.16,0,.31,0,.44a3.41,3.41,0,0,0,0,.44.33.33,0,0,0,0,.17s0,.09,0,.17a2.1,2.1,0,0,0-.08,1.1,8.94,8.94,0,0,1,.1,1.19c0,.2,0,.41-.09.61a5.94,5.94,0,0,0-.09.64q-.06.7-.07,1.39c0,.46,0,.91-.07,1.36a1.51,1.51,0,0,0,0,.38,1.35,1.35,0,0,1,0,.35q0,.43-.07.82t-.1.76a2.37,2.37,0,0,0,0,.53,4.89,4.89,0,0,1,0,.53,2.12,2.12,0,0,0,0,.27,2.13,2.13,0,0,1,0,.27l.06.23a1,1,0,0,1,0,.26.86.86,0,0,0,0,.2c0,.05,0,.1,0,.14a.12.12,0,0,0,0,.09.63.63,0,0,0,0,.32.39.39,0,0,1,0,.14l-.07.2a.66.66,0,0,0,0,.26,2.47,2.47,0,0,0,0,.47,1.07,1.07,0,0,1,0,.47,3.57,3.57,0,0,0-.39.2.47.47,0,0,1-.24.06,1.06,1.06,0,0,1-.27,0,.29.29,0,0,1-.18-.24.55.55,0,0,0-.15-.3,1.7,1.7,0,0,1-.73-.24.35.35,0,0,1-.16,0l-.15,0-.41-.07a1.9,1.9,0,0,0-.44-.06h0a.73.73,0,0,1-.32-.06.88.88,0,0,1-.2-.44.37.37,0,0,0-.14-.29,1.86,1.86,0,0,0,.15-.49,1.31,1.31,0,0,0,0-.56,1.7,1.7,0,0,1,0-.56,1.66,1.66,0,0,1,.06-.34,2.86,2.86,0,0,0,0-.37,1.48,1.48,0,0,1,0-.3,1,1,0,0,1,.06-.29l.06-.11q0-.52,0-1.07t0-.79a1.24,1.24,0,0,1,0-.23,1.36,1.36,0,0,0,0-.23c0-.41,0-.76,0-1.05a5.66,5.66,0,0,0,0-.93,2.41,2.41,0,0,1,0-.61,3.31,3.31,0,0,0,0-.55,2.25,2.25,0,0,0,0-.59.8.8,0,0,1,.1-.53,1.15,1.15,0,0,1-.08-.61,4,4,0,0,0,0-.58c0-.16,0-.31,0-.46a3.73,3.73,0,0,1,0-.46,1.83,1.83,0,0,0,0-.32.58.58,0,0,1,0-.32c0-.22,0-.38,0-.47s0-.16,0-.2a.49.49,0,0,0,0-.21.4.4,0,0,1,0-.18,1.15,1.15,0,0,1,0-.21.39.39,0,0,0,0-.18c0-.24-.07-.41-.08-.5a.54.54,0,0,1,0-.23.22.22,0,0,0-.18-.18.28.28,0,0,1-.21-.15c0-.16-.08-.34-.12-.53a.4.4,0,0,1,.15-.44.62.62,0,0,1,.24-.05M74.34,0h-.62a2.5,2.5,0,0,0-1.45.45L72,.64a3,3,0,0,0-.78.72,2,2,0,0,0-.2.32l0,.1-.27.29a2,2,0,0,0-.29.43,2.59,2.59,0,0,0-.24.9,3,3,0,0,0,0,2.08,2,2,0,0,0,.52,1.16,3.34,3.34,0,0,0,.35.6,2.41,2.41,0,0,0-.85,2.43q.07.33.14.6a2,2,0,0,0,.16.42,2.29,2.29,0,0,0,.24.38c0,.06,0,.13,0,.19a2.24,2.24,0,0,0,.07.55v.13a2.62,2.62,0,0,0,0,1c0,.16,0,.31,0,.47v.46a2.06,2.06,0,0,1,0,.3,3.08,3.08,0,0,0,0,.81,2.72,2.72,0,0,0,0,1V16q0,.09,0,.18a1.28,1.28,0,0,1,0,.22,4.41,4.41,0,0,0,0,1.09,3.64,3.64,0,0,1,0,.58c0,.36,0,.76,0,1.22a3,3,0,0,0,0,.37c0,.22,0,.5,0,.86s0,.43,0,.65a3.19,3.19,0,0,0-.12.56,3.51,3.51,0,0,0-.05.62,3.38,3.38,0,0,0-.08.57,3.77,3.77,0,0,0,0,1,2.1,2.1,0,0,0,.06,1.68,3,3,0,0,0,.52,1,2,2,0,0,0,.7.59,2.67,2.67,0,0,0,1.2.27l.19,0,.26,0,.19,0a2.27,2.27,0,0,0,.89.64l.22.07a3,3,0,0,0,.78.11A2.45,2.45,0,0,0,76.61,28l.17-.08a2,2,0,0,0,1.14-1.37,3.09,3.09,0,0,0,0-1.26,2,2,0,0,0,.09-.61,2.28,2.28,0,0,0,0-.25A2,2,0,0,0,78,24a2,2,0,0,0,0-.23,3,3,0,0,0-.1-.78q0-.11,0-.22a7,7,0,0,0,0-.78.37.37,0,0,1,0-.06q.06-.38.1-.79c0-.26.05-.53.07-.82a3.43,3.43,0,0,0,0-.69v-.09c0-.49.07-1,.07-1.49s0-.84.06-1.26a3.93,3.93,0,0,1,.06-.41q.08-.42.12-.81,0-.1,0-.2a11,11,0,0,0-.12-1.46,1.15,1.15,0,0,1,0-.13,2.13,2.13,0,0,0,.09-1.33,1.15,1.15,0,0,1,0-.13v-.44a3.74,3.74,0,0,0,.12-.94,2.87,2.87,0,0,0-.1-.75.74.74,0,0,1,0-.13c0-.16.05-.33.09-.51a2,2,0,0,0-.22-1.37,2.21,2.21,0,0,0-.78-1l0,0a2,2,0,0,0,.2-.39l.06-.1a3.25,3.25,0,0,0,.28-.68,2.58,2.58,0,0,0,.25-.51,3.88,3.88,0,0,0,.2-1,3,3,0,0,0-.1-1.16,2,2,0,0,0-.1-.32,4.11,4.11,0,0,0-1.37-1.78,2.26,2.26,0,0,0-.63-.37A2.73,2.73,0,0,0,75.76.6,2,2,0,0,0,74.34,0Z"/><path class="cls-2" d="M95.9,29.11a1.15,1.15,0,0,1-.31-.05,1.33,1.33,0,0,1-.48-.22H95l-.44,0-.41,0a1.7,1.7,0,0,1-.46-.12l-.44,0a3.29,3.29,0,0,1-.82-.16,2.1,2.1,0,0,1-.33-.15,1.06,1.06,0,0,1-.75-.61,1.33,1.33,0,0,1-.29-.74,2,2,0,0,1,.24-1.13,1,1,0,0,1,.19-.67.86.86,0,0,0,.1-.18,1.79,1.79,0,0,1,0-.4l0-.09a1.37,1.37,0,0,1,.07-.25.71.71,0,0,0,0-.08,3.69,3.69,0,0,1,.09-.78c0-.15.06-.32.08-.5l.08-.71c0-.08,0-.2,0-.27l0-.23a1,1,0,0,1,0-.43v0A1.38,1.38,0,0,1,92,21l0-.16c0-.08,0-.17,0-.26a1,1,0,0,1,0-.26,1.55,1.55,0,0,1,.11-.4,1.5,1.5,0,0,0,0-.23l0-.31a1,1,0,0,1,0-.21v0a1,1,0,0,1,0-.13,1,1,0,0,1,.08-.6,3.37,3.37,0,0,1,0-.51v-.11a1.62,1.62,0,0,1,0-.34l0-.16a1.85,1.85,0,0,0,0-.22,1,1,0,0,1,0-.57l-.05-.29A1.32,1.32,0,0,1,92,16c-.11-.41-.19-.71-.25-1a4.66,4.66,0,0,1-.11-.77l0-.05a1.83,1.83,0,0,1-.29-.45l-.22-.17h-.2l-.27.05a4.51,4.51,0,0,1-.52.1l-.09,0a1.72,1.72,0,0,1-.35.16l-.18.17h0l-.06.07a1.59,1.59,0,0,1-.2.22l-.23.23-.18.15a1.15,1.15,0,0,1-.26.25,1.26,1.26,0,0,1-.28.31,1.53,1.53,0,0,1-.35.51,1.7,1.7,0,0,1-.22.39l-.13.16a1.54,1.54,0,0,1-.53.88l-.06.06c-.05.17-.1.32-.14.43a3.31,3.31,0,0,1-.2.47.62.62,0,0,0-.05.13,1.73,1.73,0,0,1-.12.3,2.61,2.61,0,0,1-.29,1,2.65,2.65,0,0,0-.22.6v0a1.53,1.53,0,0,1-.08.42c0,.16-.24,1.17-.24,1.17a2.1,2.1,0,0,1,0,.35,2.83,2.83,0,0,1-.14.61.84.84,0,0,0,0,.19V23a1.57,1.57,0,0,1,0,.78h0s0,.07,0,.12a.79.79,0,0,0,0,.13v.1a1,1,0,0,1,0,.77.46.46,0,0,0,0,.23,1.41,1.41,0,0,1-.26,1.53,1.64,1.64,0,0,1-1.23.56,1.86,1.86,0,0,1-.52-.08,3.32,3.32,0,0,0-.74-.12l-.27,0h-.91a1.84,1.84,0,0,1-.65-.12,1.41,1.41,0,0,1-.42-.19l-.2-.15a1.57,1.57,0,0,1-.44-.36,1,1,0,0,1-.15-.24,1.55,1.55,0,0,1-.1-.93s0-.07,0-.11a1.6,1.6,0,0,1,0-.56,4.75,4.75,0,0,1,.11-.6l.1-.42a3.9,3.9,0,0,1,.1-.52,1.58,1.58,0,0,0,0-.23c0-.07,0-.15,0-.25a1.37,1.37,0,0,1,.14-.57,1.19,1.19,0,0,1,.08-.38v0a1,1,0,0,1,0-.24l.12-1v-.51c0-.21,0-.46,0-.73a2.38,2.38,0,0,1,0-.45,1,1,0,0,1,0-.2,1.43,1.43,0,0,1,0-.36,3.83,3.83,0,0,1,.17-.74l0-.11,0-.1a1.41,1.41,0,0,1,.07-.43c0-.11,0-.24,0-.37a2,2,0,0,1,.12-.76v0a1.27,1.27,0,0,1,0-.65,2,2,0,0,1,0-.62,1,1,0,0,1,0-.14,2.37,2.37,0,0,0,.08-.59,2.31,2.31,0,0,1,.12-.75,2,2,0,0,1,.08-.75,1.72,1.72,0,0,0,.06-.35V11.4A1.51,1.51,0,0,1,81,11a2.33,2.33,0,0,1,.06-.75.79.79,0,0,0,0-.12,4.09,4.09,0,0,1-.08-1,1.42,1.42,0,0,0,0-.36,1,1,0,0,1,.36-1l.12-.15a1,1,0,0,1,.6-.34l.32,0a2.57,2.57,0,0,1,.55.06,1.7,1.7,0,0,1,.45.17,1.34,1.34,0,0,1,.31.06l.24.07h.18l.49,0h0l.53,0,.48.06a1,1,0,0,1,.66.37l.11.14a1.75,1.75,0,0,1,.28.5,2.11,2.11,0,0,1,.12.43l.09-.08A1,1,0,0,1,87.23,9a1.36,1.36,0,0,1,.33-.18h0a1,1,0,0,1,.56-.22l.28-.14.32-.13a1.64,1.64,0,0,1,.32-.17,1.39,1.39,0,0,1,.42-.07l.28,0,.32,0,.42,0,.28,0h.34l.4,0a1,1,0,0,1,.34.1l.13,0a3.2,3.2,0,0,1,.57.11l.15.06a2,2,0,0,0,.33.14l.38.11a1,1,0,0,1,.36.21l.07,0,.43.22a1.93,1.93,0,0,1,.54.5l.17.25a1.35,1.35,0,0,1,.1.2l.08.08a3.93,3.93,0,0,1,.42.46,1.45,1.45,0,0,1,.2.37,1.74,1.74,0,0,1,.24.23,1.43,1.43,0,0,1,.24.32,1,1,0,0,1,.31.57,1.68,1.68,0,0,1,.3.58,2.21,2.21,0,0,1,.07.43,1,1,0,0,1,.13.52.31.31,0,0,0,0,.13c.08.19.16.4.23.63a3,3,0,0,1,.1.49.82.82,0,0,0,0,.14,3.6,3.6,0,0,1,.08.37,1.61,1.61,0,0,1,.07.25,3.26,3.26,0,0,1,.05.61,5.43,5.43,0,0,1,.24,1.23c0,.14,0,.24,0,.29a1.49,1.49,0,0,1,0,.34,2.43,2.43,0,0,1,0,.4,2.15,2.15,0,0,1,0,.25,2.48,2.48,0,0,1,0,.4,1.45,1.45,0,0,1-.06.48c0,.17,0,.28,0,.39l.06.46a1.21,1.21,0,0,1-.06.71c0,.13,0,.25,0,.37a1,1,0,0,1,0,.2,1.47,1.47,0,0,1-.1.38,2,2,0,0,0,0,.2,1.38,1.38,0,0,1-.11.58,2.91,2.91,0,0,1,0,.47,2.62,2.62,0,0,1-.12.69,1.24,1.24,0,0,1,0,.57,1,1,0,0,1-.08.19,2,2,0,0,1-.1.63,1.52,1.52,0,0,1-.1.33,1.2,1.2,0,0,1,0,.45,1.33,1.33,0,0,1,0,.19,1,1,0,0,1,.25.55,1.27,1.27,0,0,1,.13.65,1.13,1.13,0,0,1-.53,1,1.1,1.1,0,0,1-1,.54H96.1s.06,0,.19-.06A1.27,1.27,0,0,1,95.9,29.11ZM90.75,13.57Z"/><path class="cls-5" d="M82.36,8.3a1.56,1.56,0,0,1,.33,0A.44.44,0,0,1,83,8.6a.41.41,0,0,1,.22-.07l.11,0,.34.1.33,0,.42,0,.54,0,.48.06.13.17a.71.71,0,0,1,.1.2,2,2,0,0,1,.11.79c0,.34,0,.65,0,.93h.07a.1.1,0,0,0,.1-.08.31.31,0,0,1,.1-.17l.32-.15a1.59,1.59,0,0,0,.33-.21.7.7,0,0,0,.2-.05l.08,0,.15,0a.48.48,0,0,0,.17-.15.8.8,0,0,1,.14-.15.79.79,0,0,0,.39-.2l.19,0a.14.14,0,0,0,.14-.14h.07a.48.48,0,0,0,.26-.07l.31-.16a2.43,2.43,0,0,0,.42-.18l.16-.09h.17l.16,0h.1l.37,0,.43,0h.76a1.36,1.36,0,0,0,.47.15,2.19,2.19,0,0,1,.39.08,3,3,0,0,0,.51.21l.34.1a.71.71,0,0,0,.31.19l.36.18a1.1,1.1,0,0,1,.26.26l.1.15a.26.26,0,0,1,0,.17l.31.31a2.93,2.93,0,0,1,.31.34.41.41,0,0,1,.07.16.38.38,0,0,0,.07.16,1,1,0,0,0,.18.17.92.92,0,0,1,.18.17.46.46,0,0,1,.13.2.27.27,0,0,0,.16.17.44.44,0,0,0,.13.37.75.75,0,0,1,.19.31,1.16,1.16,0,0,1,0,.33.52.52,0,0,0,.13.34,1.35,1.35,0,0,0,.1.53c.07.17.14.35.2.54a1.91,1.91,0,0,1,.06.3,1.78,1.78,0,0,0,.06.3q0,.16.06.27a1.34,1.34,0,0,0,.06.24,2.23,2.23,0,0,1,0,.45.63.63,0,0,0,0,.2,4.38,4.38,0,0,1,.23,1.13c0,.21,0,.34,0,.4A.51.51,0,0,1,97,18a1.42,1.42,0,0,1,0,.28,1.41,1.41,0,0,0,0,.28,1.08,1.08,0,0,0,0,.25,1,1,0,0,1,0,.25.45.45,0,0,1,0,.23.54.54,0,0,0,0,.26,4.54,4.54,0,0,0,0,.51c0,.18,0,.35.06.51s0,.18,0,.21a.22.22,0,0,0-.1.17,1.8,1.8,0,0,1,.07.28c0,.1,0,.21,0,.31a.51.51,0,0,1,0,.15.57.57,0,0,0-.05.18,2.82,2.82,0,0,0,0,.4.38.38,0,0,1-.19.34,1.6,1.6,0,0,1,.11.66,1.48,1.48,0,0,1-.17.65c-.05.1,0,.15,0,.17s.07.07,0,.17a.65.65,0,0,0-.13.43.94.94,0,0,1-.07.44.46.46,0,0,1-.07.22.37.37,0,0,0-.07.19.25.25,0,0,0,0,.26.23.23,0,0,1-.06.28.66.66,0,0,0,.08.27.51.51,0,0,1,0,.38.39.39,0,0,0,.13.15l.17.13c-.06.14,0,.22,0,.26a.22.22,0,0,1,.09.24c0,.1,0,.16-.1.17a.27.27,0,0,0-.18.13.28.28,0,0,0-.09.16.11.11,0,0,1-.12.09H95.9l-.07,0a.33.33,0,0,1-.17-.08.65.65,0,0,0-.23-.12,1.91,1.91,0,0,0-.41,0h-.44l-.3,0-.19-.05-.19-.05-.57-.05a2.3,2.3,0,0,1-.57-.11.88.88,0,0,1-.21-.12.33.33,0,0,0-.2-.06h0a.29.29,0,0,0-.11-.23.3.3,0,0,1-.11-.23,1,1,0,0,1,.13-.57,1,1,0,0,0,.13-.57,1.72,1.72,0,0,0,.29-.64.9.9,0,0,1,0-.29c0-.09,0-.15,0-.2a1,1,0,0,0,.08-.45,2.78,2.78,0,0,1,.07-.57c0-.2.08-.4.1-.62l.08-.71c0-.22,0-.38,0-.48l0-.26a.8.8,0,0,0,.07-.34.25.25,0,0,1,0-.14,1.06,1.06,0,0,0,0-.43,2.09,2.09,0,0,1,0-.25.44.44,0,0,1,0-.16.48.48,0,0,0,0-.16,3.18,3.18,0,0,0,0-.5c0-.11,0-.22,0-.32a1.2,1.2,0,0,1,.06-.25.16.16,0,0,0-.1-.21.65.65,0,0,0,.1-.33,3,3,0,0,1,0-.49l0-.24a1.55,1.55,0,0,1,0-.26v-.08l0-.3a3.14,3.14,0,0,0-.07-.33.6.6,0,0,0,.06-.35c0-.11,0-.23-.06-.36a.81.81,0,0,0-.07-.3.43.43,0,0,1-.06-.11q-.13-.47-.22-.87a4,4,0,0,1-.1-.88,3.43,3.43,0,0,0-.28-.37,1,1,0,0,1-.21-.42l-.52-.38a1.21,1.21,0,0,0-.73-.16h0l-.17,0-.25,0-.45.09a1.48,1.48,0,0,0-.42.12.61.61,0,0,1-.26.12h0l-.07,0a.49.49,0,0,0-.17.15.77.77,0,0,1-.14.15,2.35,2.35,0,0,0-.22.23l-.12.12-.21.21A.84.84,0,0,1,88,14a.2.2,0,0,1-.11.17.53.53,0,0,0-.17.13c-.06.12-.1.18-.14.2l-.1.05a1.53,1.53,0,0,0-.19.34.46.46,0,0,1-.28.27,1.08,1.08,0,0,1-.17.41,1.6,1.6,0,0,1-.28.27.76.76,0,0,1-.22.59,1.49,1.49,0,0,0-.35.42c-.07.22-.12.39-.17.52a2.32,2.32,0,0,1-.14.34,1.72,1.72,0,0,0-.13.31.67.67,0,0,1-.15.27,1.63,1.63,0,0,1-.18.81,3.7,3.7,0,0,0-.31.82.48.48,0,0,0,0,.21.49.49,0,0,1,0,.21c0,.18-.09.39-.14.64l-.14.7a.9.9,0,0,0,0,.15,1.17,1.17,0,0,1,0,.18,1.84,1.84,0,0,1-.09.4,1.83,1.83,0,0,0-.09.4.58.58,0,0,0,0,.32.59.59,0,0,1,0,.32,2.12,2.12,0,0,0-.06.42,1.87,1.87,0,0,0,0,.28c0,.08,0,.16,0,.23a.23.23,0,0,0,.09.18,1.11,1.11,0,0,0-.06.51,1.57,1.57,0,0,0,.13.46.42.42,0,0,1-.11.46.62.62,0,0,1-.47.21.89.89,0,0,1-.25,0,4.27,4.27,0,0,0-1-.16l-.33,0h-.92A.83.83,0,0,1,81.1,26a.41.41,0,0,1-.18-.07.59.59,0,0,1-.14-.12,1,1,0,0,1-.28-.19.53.53,0,0,1,0-.33,1.18,1.18,0,0,0,0-.32.52.52,0,0,0,0-.2.57.57,0,0,1,0-.23,3.71,3.71,0,0,1,.09-.48l.12-.48a3,3,0,0,1,.08-.44,2.66,2.66,0,0,0,.07-.37c0-.1,0-.21,0-.33a.41.41,0,0,1,.17-.32c0-.17,0-.28,0-.32a.26.26,0,0,0,.06-.1,1.73,1.73,0,0,0,0-.4l.12-1v-.61q0-.31,0-.7a.8.8,0,0,0,0-.25.5.5,0,0,1,0-.16.6.6,0,0,0,.05-.35.52.52,0,0,1,0-.2,2.83,2.83,0,0,1,.12-.54l.08-.16.08-.16a.7.7,0,0,1,0-.34.53.53,0,0,0,0-.15c0-.16,0-.35,0-.55a1.12,1.12,0,0,1,.18-.62c0-.11-.06-.22-.08-.35a.25.25,0,0,1,.12-.29l-.09-.3a.87.87,0,0,1,0-.35,3.42,3.42,0,0,0,.11-.85.93.93,0,0,1,.18-.62.82.82,0,0,1,0-.6,2.82,2.82,0,0,0,.11-.71l0-.19A.58.58,0,0,1,82,11a1.33,1.33,0,0,1,0-.49,1.73,1.73,0,0,0,.05-.45A3.12,3.12,0,0,1,82,9.25a2.35,2.35,0,0,0,0-.63.4.4,0,0,0,.15-.14l.13-.17h.16m0-2a3,3,0,0,0-.48,0A2,2,0,0,0,80.68,7l-.09.11a2,2,0,0,0-.61,2h0s0,0,0,.1a5,5,0,0,0,.07,1,3.35,3.35,0,0,0-.06.91,2.61,2.61,0,0,0,0,.42v0a3,3,0,0,0-.13.92,3.44,3.44,0,0,0-.11.86,1.4,1.4,0,0,1,0,.35,2,2,0,0,0-.05.28,3.06,3.06,0,0,0,0,.71,2.29,2.29,0,0,0,0,.64,3,3,0,0,0-.1.87v.2a2.32,2.32,0,0,0-.05.31l-.06.16a4.79,4.79,0,0,0-.21.92,2.39,2.39,0,0,0,0,.42s0,.09,0,.14a2.42,2.42,0,0,0,0,.56q0,.42,0,.75v.5l-.11.93a2,2,0,0,0,0,.28,2.24,2.24,0,0,0,0,.23,2.38,2.38,0,0,0-.16.8q0,.09,0,.16a.65.65,0,0,1,0,.09,4.77,4.77,0,0,0-.12.59l-.09.38a5.68,5.68,0,0,0-.13.73,2.53,2.53,0,0,0,0,.73,2.54,2.54,0,0,0,.2,1.39,2,2,0,0,0,.27.44,2.45,2.45,0,0,0,.65.56l.21.16a2.51,2.51,0,0,0,.68.32,2.82,2.82,0,0,0,1,.16h1.13a2.32,2.32,0,0,1,.52.08,2.86,2.86,0,0,0,.8.12,2.6,2.6,0,0,0,1.93-.86l.05-.06a2.41,2.41,0,0,0,.49-2.39,2,2,0,0,0-.08-1,2.6,2.6,0,0,0,.06-.9,3.67,3.67,0,0,0,.17-.78,3.05,3.05,0,0,0,0-.36l.11-.53c0-.18.07-.34.1-.47a2.49,2.49,0,0,0,.1-.53,1.67,1.67,0,0,1,.13-.34,3.6,3.6,0,0,0,.37-1.13,2.82,2.82,0,0,0,.1-.27,4.36,4.36,0,0,0,.26-.59l.07-.2a2.52,2.52,0,0,0,.62-1l0,0a2.65,2.65,0,0,0,.27-.43,2.5,2.5,0,0,0,.33-.47l.19-.22a2.19,2.19,0,0,0,.23-.22l.15-.12.28-.27a2.79,2.79,0,0,0,.26-.27l0,0h0l.14-.07.34-.06h0a5.47,5.47,0,0,0,.11.61q.1.42.23.93l0,.16.05.13a2,2,0,0,0,0,.83,1.17,1.17,0,0,1,0,.12v.07a2.54,2.54,0,0,0,0,.29,3.63,3.63,0,0,0,0,.45,2,2,0,0,0-.05.95v0a2,2,0,0,0,0,.23l0,.25a2.5,2.5,0,0,0-.11.51,2,2,0,0,0,0,.49l0,.13v.06a2.43,2.43,0,0,0,0,.26,2,2,0,0,0,0,.71L91,22v0s0,.09,0,.15l0,.3,0,.31q0,.22-.07.43a4.65,4.65,0,0,0-.11.86,2,2,0,0,0-.06.29v.05a2.5,2.5,0,0,0-.05.31,2,2,0,0,0-.29.88,3,3,0,0,0-.25,1.51,2.25,2.25,0,0,0,.41,1.13,2,2,0,0,0,1.3,1.06l.25.11.09,0a4.28,4.28,0,0,0,1.05.21l.31,0a2.64,2.64,0,0,0,.54.12,4.49,4.49,0,0,0,.53,0h.29l.33.13a2.09,2.09,0,0,0,.71.12h.35a2.08,2.08,0,0,0,1.68-.84,2.16,2.16,0,0,0,.8-1.67,2.3,2.3,0,0,0-.17-1,2,2,0,0,0-.22-.57q0-.1,0-.19t.05-.21a3,3,0,0,0,.12-.65l0-.11a2.3,2.3,0,0,0,.1-.78,3.64,3.64,0,0,0,.1-.74q0-.2,0-.4a2.4,2.4,0,0,0,.09-.71,2.33,2.33,0,0,0,.1-.45,2,2,0,0,0,0-.39c0-.07,0-.13,0-.2a2.27,2.27,0,0,0,0-1l0-.4c0-.06,0-.12,0-.18a2.47,2.47,0,0,0,.06-.56,3.06,3.06,0,0,0,0-.42,2,2,0,0,0,0-.21,3.33,3.33,0,0,0,0-.47,2.57,2.57,0,0,0,0-.48s0-.12,0-.2a6.59,6.59,0,0,0-.23-1.3,5.27,5.27,0,0,0-.06-.61,2,2,0,0,0-.08-.34c0-.11-.05-.24-.09-.39a4.07,4.07,0,0,0-.11-.6l0-.08c-.07-.22-.14-.41-.21-.6a2,2,0,0,0-.15-.65,3.12,3.12,0,0,0-.08-.41,2.71,2.71,0,0,0-.34-.75,2,2,0,0,0-.44-.77,2.43,2.43,0,0,0-.29-.37l-.16-.17a2.32,2.32,0,0,0-.23-.37,5.17,5.17,0,0,0-.48-.54l-.07-.12c-.08-.12-.15-.22-.22-.32a3,3,0,0,0-.85-.78l-.48-.25a2,2,0,0,0-.57-.29l-.42-.12-.14-.07-.3-.12a3.93,3.93,0,0,0-.63-.14A2,2,0,0,0,91.63,7L91.2,7h-.43l-.36,0h-.06L90,7h-.1l-.18,0-.3,0a2.17,2.17,0,0,0-.69.11l-.08,0a2.66,2.66,0,0,0-.44.22l-.12,0L88,7.51l-.18.09a2,2,0,0,0-.59.21l-.07-.09-.06-.07L87,7.55a2,2,0,0,0-1.33-.75l-.48-.06-.65,0-.46,0h-.05l-.12,0-.32-.07a2.73,2.73,0,0,0-.5-.17,3.57,3.57,0,0,0-.77-.09Z"/><path class="cls-2" d="M101.87,30.88a1.74,1.74,0,0,1-.95-.31l-.1-.07a1.28,1.28,0,0,1-.44-.78l-.16-.13a1.66,1.66,0,0,1-.34-.16l-.29-.16a1.46,1.46,0,0,0-.28-.14,1.68,1.68,0,0,1-.7-.4,1,1,0,0,1-.24-.38,2,2,0,0,1-.12-.86,1,1,0,0,1,.21-.94,1,1,0,0,0,.14-.19.55.55,0,0,0,.07-.18,2.72,2.72,0,0,1,.22-.86,2.13,2.13,0,0,1,.19-.38,1.31,1.31,0,0,0,.07-.16,2.6,2.6,0,0,1,.2-.47,1.6,1.6,0,0,1,.25-.42l.28-.77q.18-.52.29-.77a2,2,0,0,1,.14-.33,11,11,0,0,1,.4-1.12,4.63,4.63,0,0,0,.24-.73,3.37,3.37,0,0,1,.28-.79,2.49,2.49,0,0,0,.15-.36,1.86,1.86,0,0,0,.13-.41,1.7,1.7,0,0,1,.26-.7,2.16,2.16,0,0,1,.2-.67,2.83,2.83,0,0,0,.16-.4l.14-.44a4.56,4.56,0,0,1,.18-.47s0-.07,0-.11a1.55,1.55,0,0,1,.23-.65l.15-.36a1.41,1.41,0,0,1,.06-.46c0-.1.06-.17.09-.24l.06-.38a1.29,1.29,0,0,1-.17-.46,1,1,0,0,1,0-.22q0-.27,0-.58a1.39,1.39,0,0,1,1-1.23l.23,0h.13a1.54,1.54,0,0,1,.63.13l.41.19a1.12,1.12,0,0,1,.46.22l.21.17a2.5,2.5,0,0,0,.43.13l.72.15.73.16a1.58,1.58,0,0,1,.94.58,1.11,1.11,0,0,1,.23.67,1,1,0,0,1-.09.74l-.26.5a1.89,1.89,0,0,0-.13.39,2.26,2.26,0,0,1-.1.62,2.74,2.74,0,0,1-.3.64.9.9,0,0,0-.09.2l-.13.42a2.64,2.64,0,0,0-.07.31v0a1.17,1.17,0,0,1-.35.8,1.41,1.41,0,0,0-.15.5,9.79,9.79,0,0,1-.3,1.29,6.64,6.64,0,0,1-.35.73,5.31,5.31,0,0,0-.23.48c-.17.41-.32.82-.46,1.24s-.32.9-.5,1.33a.82.82,0,0,0-.08.19,2.48,2.48,0,0,1-.18.52c-.1.26-.21.52-.32.76s-.23.5-.35.74a1.37,1.37,0,0,0-.07.24,5.8,5.8,0,0,1-.16.63c0,.05,0,.1,0,.15s0,.17-.06.26,0,.05,0,.08a2,2,0,0,1-.09.54,1,1,0,0,1-.09.2,1,1,0,0,1-.13.41,1.38,1.38,0,0,1,0,.23,1,1,0,0,1-.15.29l-.12.16a1.37,1.37,0,0,0,0,.22,2.11,2.11,0,0,1-.29.86,1,1,0,0,1-.75.48l-.31,0Zm4.95-19a2.13,2.13,0,0,1-.66-.1,1.42,1.42,0,0,1-.57-.34h0a2.48,2.48,0,0,1-.46-.2,1,1,0,0,1-.49-.68,2,2,0,0,0-.12-.39,2.3,2.3,0,0,1-.18-.81l-.06-.11a1,1,0,0,1-.07-.76,2.27,2.27,0,0,1,.09-.9,2.15,2.15,0,0,1,.38-.68l.05-.12a1.6,1.6,0,0,1,.3-.48,1,1,0,0,1,.21-.17,3,3,0,0,1,.47-.24,1.24,1.24,0,0,1,.17-.21l.12-.1a2,2,0,0,1,.64-.29l.35-.09a1.45,1.45,0,0,1,.44-.07,1.64,1.64,0,0,1,.59.11,2.91,2.91,0,0,0,.41.12,1,1,0,0,1,.73.67,1.77,1.77,0,0,1,.42.5,1.3,1.3,0,0,1,.4.41,3.15,3.15,0,0,1,.59,1.63,1,1,0,0,1,0,.18v0a1.91,1.91,0,0,1-.18.8,2.88,2.88,0,0,1-.38.71,1.51,1.51,0,0,1-.33.32,2.43,2.43,0,0,1-.41.52,1.74,1.74,0,0,0-.18.18,1,1,0,0,1-.7.37,2.55,2.55,0,0,1-.65.15l-.61,0Zm-1.22-.44Z"/><path class="cls-5" d="M107.37,6.14a.66.66,0,0,1,.24,0,3.79,3.79,0,0,0,.55.16.66.66,0,0,0,.27.44.77.77,0,0,1,.3.45l.27.16a.27.27,0,0,1,.09.11,2.15,2.15,0,0,1,.43,1.16l0,.15c0,.05,0,.19-.1.41a2.07,2.07,0,0,1-.24.47.56.56,0,0,1-.14.13l-.16.09a1.77,1.77,0,0,1-.35.5,2.84,2.84,0,0,0-.28.29,1.17,1.17,0,0,0-.32.07,1.19,1.19,0,0,1-.32.07c-.25,0-.47,0-.64,0h-.14a1.13,1.13,0,0,1-.35-.05.45.45,0,0,1-.19-.11l-.15-.13a1.56,1.56,0,0,0-.28-.12,1.53,1.53,0,0,1-.28-.12,3,3,0,0,0-.18-.58,1.41,1.41,0,0,1-.1-.62,3.23,3.23,0,0,0-.17-.37,1,1,0,0,0,0-.45,1.06,1.06,0,0,1,0-.45,1.41,1.41,0,0,1,.26-.43c0-.09.09-.18.13-.28a.68.68,0,0,1,.11-.19,1.37,1.37,0,0,1,.38-.18.39.39,0,0,0,.18-.09.8.8,0,0,0,.2-.22.27.27,0,0,1,.07-.11,1,1,0,0,1,.31-.14l.36-.09a.46.46,0,0,1,.17,0m-3.14,6.06a.56.56,0,0,1,.23,0l.32.15a.43.43,0,0,0,.21.1h0a.13.13,0,0,1,.09,0l.16.13.19.14a3.88,3.88,0,0,0,.66.21l.76.16.67.15a.68.68,0,0,1,.38.2.19.19,0,0,1,0,.19.13.13,0,0,0,0,.16l-.28.53a2.78,2.78,0,0,0-.21.62.8.8,0,0,0,0,.28.77.77,0,0,1,0,.28,1.76,1.76,0,0,1-.19.4,1.87,1.87,0,0,0-.2.43l-.13.42a3.51,3.51,0,0,0-.1.43.33.33,0,0,0,0,.17s0,.09-.08.15a2.09,2.09,0,0,0-.41,1,9,9,0,0,1-.27,1.16c-.08.19-.17.37-.27.55a6.15,6.15,0,0,0-.28.58c-.18.43-.34.87-.49,1.3s-.31.86-.48,1.27a1.5,1.5,0,0,0-.13.36,1.39,1.39,0,0,1-.12.33q-.16.4-.32.76t-.33.69a2.3,2.3,0,0,0-.16.51,4.84,4.84,0,0,1-.13.52,2.06,2.06,0,0,0-.07.27,2.07,2.07,0,0,1-.07.27c0,.08,0,.16,0,.24a1,1,0,0,1,0,.26.8.8,0,0,0-.09.18l0,.13a.12.12,0,0,0,0,.1.66.66,0,0,0-.12.3.4.4,0,0,1,0,.14l-.13.17a.68.68,0,0,0-.12.23,2.34,2.34,0,0,0-.1.46,1.09,1.09,0,0,1-.16.45l-.43.07h-.09a.78.78,0,0,1-.41-.15.3.3,0,0,1-.1-.29.54.54,0,0,0-.05-.34,1.91,1.91,0,0,1-.36-.21,1.78,1.78,0,0,1-.26-.24h0a.52.52,0,0,1-.26-.09l-.37-.2a1.91,1.91,0,0,0-.41-.2.73.73,0,0,1-.3-.16.87.87,0,0,1-.06-.48.38.38,0,0,0,0-.32,1.88,1.88,0,0,0,.29-.42,1.32,1.32,0,0,0,.17-.54,1.71,1.71,0,0,1,.14-.55,1.74,1.74,0,0,1,.16-.3,2.76,2.76,0,0,0,.14-.34,1.54,1.54,0,0,1,.12-.28,1,1,0,0,1,.14-.26l.09-.08q.18-.49.36-1t.28-.74a1.36,1.36,0,0,1,.08-.21,1.26,1.26,0,0,0,.08-.21q.18-.58.36-1a5.64,5.64,0,0,0,.29-.88,2.37,2.37,0,0,1,.2-.58,3.37,3.37,0,0,0,.21-.51,2.3,2.3,0,0,0,.16-.57.79.79,0,0,1,.26-.48,1.16,1.16,0,0,1,.11-.6,3.85,3.85,0,0,0,.22-.54l.14-.44a3.7,3.7,0,0,1,.17-.43,1.86,1.86,0,0,0,.07-.31.57.57,0,0,1,.12-.3l.18-.44.07-.18a.49.49,0,0,0,0-.22.42.42,0,0,1,0-.19,1.45,1.45,0,0,1,.08-.2.39.39,0,0,0,0-.18c0-.25.06-.41.08-.5a.53.53,0,0,1,.08-.21.22.22,0,0,0-.12-.23.28.28,0,0,1-.16-.21c0-.17,0-.35,0-.54a.39.39,0,0,1,.28-.37h.06m3.14-8.06a2.44,2.44,0,0,0-.71.1l-.34.09a2.91,2.91,0,0,0-1,.45,2,2,0,0,0-.24.21l-.1.11-.35.2a2,2,0,0,0-.4.32,2.58,2.58,0,0,0-.5.78,3,3,0,0,0-.61,2,2,2,0,0,0,.15,1.26,3.34,3.34,0,0,0,.15.68,2.39,2.39,0,0,0-1.55,2.05c0,.21,0,.42-.05.61a2,2,0,0,0,0,.44,2.3,2.3,0,0,0,.12.45L102,14a2.56,2.56,0,0,0-.11.57l-.05.12a2.59,2.59,0,0,0-.33.93c-.06.15-.12.31-.17.45l0,.12-.1.3a1.88,1.88,0,0,1-.11.27,3.15,3.15,0,0,0-.26.77,2.71,2.71,0,0,0-.3.92h0l0,.07-.06.17a1.36,1.36,0,0,1-.08.21,4.37,4.37,0,0,0-.36,1,3.61,3.61,0,0,1-.18.54,12.29,12.29,0,0,0-.42,1.16,3.2,3.2,0,0,0-.13.33c-.08.2-.18.46-.3.81l-.22.61a3.16,3.16,0,0,0-.28.5,3.6,3.6,0,0,0-.23.56h0A3.39,3.39,0,0,0,98,25a3.76,3.76,0,0,0-.25.92,2,2,0,0,0-.45,1.66,3,3,0,0,0,.18,1.12,2,2,0,0,0,.47.75,2.67,2.67,0,0,0,1.1.65l.14.09.23.12.17.09a2.27,2.27,0,0,0,.64.88l.19.14a2.71,2.71,0,0,0,1.49.47,2.36,2.36,0,0,0,.52-.06l.2,0a2,2,0,0,0,1.5-.95,3.09,3.09,0,0,0,.43-1.19,2,2,0,0,0,.28-.57,2.25,2.25,0,0,0,.06-.22,2,2,0,0,0,.13-.4,2,2,0,0,0,.07-.2,3,3,0,0,0,.14-.79c0-.08,0-.16,0-.23a6.44,6.44,0,0,0,.19-.75v0q.17-.35.34-.72c.11-.24.21-.49.32-.76a3.45,3.45,0,0,0,.23-.65l0-.08c.19-.45.36-.91.52-1.39s.28-.79.44-1.18a4.14,4.14,0,0,1,.18-.39c.13-.23.24-.47.35-.72l.07-.19a10.91,10.91,0,0,0,.33-1.42,1.27,1.27,0,0,1,0-.13,2.13,2.13,0,0,0,.49-1.23,1.24,1.24,0,0,1,0-.13L109,17a3.72,3.72,0,0,0,.39-.85,2.82,2.82,0,0,0,.13-.75.8.8,0,0,1,0-.13l.24-.46a2,2,0,0,0,.2-1.4,2.22,2.22,0,0,0-.44-1.13l0,0a2,2,0,0,0,.3-.31l.08-.08a3.27,3.27,0,0,0,.48-.56,2.56,2.56,0,0,0,.38-.4,3.87,3.87,0,0,0,.51-.93,3,3,0,0,0,.26-1.14,2,2,0,0,0,0-.34,4.14,4.14,0,0,0-.76-2.12,2.27,2.27,0,0,0-.48-.54,2.74,2.74,0,0,0-.33-.4,2,2,0,0,0-1.35-1.06l-.26-.07a2.64,2.64,0,0,0-1-.19Z"/><path class="cls-2" d="M109.33,33.68l-.18,0a2.45,2.45,0,0,1-.8-.3,2,2,0,0,0-.37-.17L107.6,33l-.11,0-.19-.06-.14,0a1.67,1.67,0,0,1-.63-.3,1.65,1.65,0,0,1-.29-.3A1,1,0,0,1,106,32a2.65,2.65,0,0,1-.25-.49,1,1,0,0,1,0-.76,1.37,1.37,0,0,1,0-.32,1.67,1.67,0,0,1-.16-.54,1,1,0,0,1,0-.16,2.58,2.58,0,0,1,.12-.65,2.93,2.93,0,0,1,.39-.79l.07-.09.13-.16,0-.07a1,1,0,0,1,.62-.56,1.8,1.8,0,0,0,.28-.1l.39-.18a1,1,0,0,1,.36-.07l.18,0h.1l.41-.07.2,0H109v0l.06,0a1.15,1.15,0,0,1-.6-.65,1,1,0,0,1-.06-.31,4.4,4.4,0,0,1,0-.82c0-.1,0-.26.07-.45a1,1,0,0,1,.18-.41c.09-.12.17-.25.25-.37a1.22,1.22,0,0,1,.26-.71l.09-.09a1.42,1.42,0,0,1,.21-.42,1.82,1.82,0,0,1,.18-.38,3.08,3.08,0,0,1,.06-.39,1,1,0,0,1,.19-.4l0-.1.1-.2.39-.6a1.69,1.69,0,0,0,.15-.27,1.59,1.59,0,0,1,.19-.66,2.09,2.09,0,0,1,.11-.51,1.66,1.66,0,0,1,.35-.55v0a1.88,1.88,0,0,1,.29-.78,2.88,2.88,0,0,1,.22-.29,1.35,1.35,0,0,1,.07-.33c.19-.43.39-.85.61-1.3a4.65,4.65,0,0,0,.38-1c.08-.31.16-.57.24-.83s.12-.42.16-.6a1,1,0,0,1,.23-.45l.18-.19v0a1,1,0,0,1,0-.2,3.07,3.07,0,0,1,.38-1,.41.41,0,0,0,.07-.18,1,1,0,0,1,.34-.72h0a2,2,0,0,1,.13-.39,1,1,0,0,1,.1-.18,1.78,1.78,0,0,1,.33-.37l.16-.13a1,1,0,0,1,.62-.22l.17,0a3.79,3.79,0,0,1,.69.2l.11,0h.11a1.54,1.54,0,0,1,.72.21l.23.12c.49.24.88.45,1.21.63a4,4,0,0,1,1,.74,1,1,0,0,1,.25.86l-.09.52a2.57,2.57,0,0,1-.28.77,1.9,1.9,0,0,1-.31.46,3.25,3.25,0,0,0-.19.4,3,3,0,0,1-.3.61,2.24,2.24,0,0,0-.15.3l-.28.62a3.38,3.38,0,0,1-.5.93.36.36,0,0,0-.07.16,1,1,0,0,1-.06.17,4.45,4.45,0,0,1-.19.49,1,1,0,0,1-.11.18h0a1.88,1.88,0,0,1-.13.43,1.53,1.53,0,0,1-.31.45,2,2,0,0,1-.13.38l-.05.1a2.29,2.29,0,0,1-.38.49,1.49,1.49,0,0,1-.15.39,4.2,4.2,0,0,1-.23.36l-.08.1-.23.24a1.53,1.53,0,0,0-.09.27c-.06.26-.15.53-.25.81s-.14.32-.18.45a4.26,4.26,0,0,1-.3.63c-.14.29-.28.58-.38.82a8.55,8.55,0,0,1-.39.85,2,2,0,0,1-.41.58h0a1.56,1.56,0,0,1-.09.4,2.46,2.46,0,0,1-.33.75l-.29.48-.06.13a1.64,1.64,0,0,1-.37.69,1.62,1.62,0,0,1-.6.46l-.38.16a1,1,0,0,1-.36.07h0l0,.07.13.17a1.44,1.44,0,0,1,.27.77,1,1,0,0,1,0,.28,2.66,2.66,0,0,1-.16.49l-.08.16s0,0,0,.06a4.14,4.14,0,0,1-.08.61,3,3,0,0,0-.05.32,2.41,2.41,0,0,1-.17.68,2.36,2.36,0,0,1-.42.64,4.33,4.33,0,0,1-.38.37,2.59,2.59,0,0,1-.91.63A1,1,0,0,1,109.33,33.68Z"/><path class="cls-5" d="M115.73,10.48a2.85,2.85,0,0,1,.51.15,1.32,1.32,0,0,0,.48.09h.1a.68.68,0,0,1,.27.1l.28.14,1.13.59a3,3,0,0,1,.75.55l-.09.51a1.58,1.58,0,0,1-.19.5.92.92,0,0,1-.16.25.91.91,0,0,0-.16.25,2.89,2.89,0,0,0-.22.47,2.11,2.11,0,0,1-.2.41,2.59,2.59,0,0,0-.23.45l-.28.63a2.63,2.63,0,0,1-.36.7,1.34,1.34,0,0,0-.26.55,1.75,1.75,0,0,0-.07.2,2.41,2.41,0,0,1-.11.28.76.76,0,0,0-.17.36.77.77,0,0,1-.07.27.51.51,0,0,1-.12.16l-.16.18a1.14,1.14,0,0,0-.08.26.92.92,0,0,1-.06.21A1.27,1.27,0,0,1,116,19a1,1,0,0,0-.24.36.29.29,0,0,1-.05.23c-.06.1-.11.19-.17.27l-.16.16-.17.19a2.27,2.27,0,0,0-.22.58c-.06.23-.13.47-.22.72s-.12.29-.18.44a3.21,3.21,0,0,1-.23.48q-.27.54-.43.94a7.62,7.62,0,0,1-.35.74,1.15,1.15,0,0,1-.24.34,1.22,1.22,0,0,0-.25.37.48.48,0,0,0,0,.21.56.56,0,0,1-.06.24,1.41,1.41,0,0,1-.21.51q-.17.26-.32.53a1.28,1.28,0,0,0-.16.36.84.84,0,0,1-.42.5l-.33.14a.32.32,0,0,1-.25-.11.6.6,0,0,0-.22-.17H111l-.08,0h0a.59.59,0,0,1-.23-.1.4.4,0,0,1-.15-.12.47.47,0,0,0-.18-.13.61.61,0,0,0-.2-.11.41.41,0,0,1-.17-.09.32.32,0,0,1-.14-.13.78.78,0,0,0-.13-.16.71.71,0,0,0-.21-.11.16.16,0,0,1-.12-.1,4.42,4.42,0,0,1,0-.63q0-.16.06-.41a5.36,5.36,0,0,0,.3-.45,1.17,1.17,0,0,0,.14-.55l.12-.13.12-.13a.75.75,0,0,1,.11-.33.64.64,0,0,0,.1-.14,1,1,0,0,1,.14-.32.69.69,0,0,0,.1-.14,1.34,1.34,0,0,0,0-.27,1.34,1.34,0,0,1,0-.27.84.84,0,0,0,.11-.17l.06-.13,0-.08c.15-.24.27-.43.37-.57a2.72,2.72,0,0,0,.24-.43,1.15,1.15,0,0,0,.1-.41.39.39,0,0,1,.2-.33.87.87,0,0,1,0-.52.65.65,0,0,1,.13-.18,1.76,1.76,0,0,0,.18-.22,1.38,1.38,0,0,0,.09-.36,1,1,0,0,1,.44-.7.72.72,0,0,1,0-.23.32.32,0,0,0,0-.14.23.23,0,0,1,0-.1q.26-.58.58-1.24a5.66,5.66,0,0,0,.46-1.26c.07-.26.14-.51.22-.75s.14-.47.18-.67l.25-.27a1,1,0,0,0,.18-.27,1.59,1.59,0,0,0,0-.2c0-.07,0-.12,0-.17a2.06,2.06,0,0,1,.26-.7,1.37,1.37,0,0,0,.21-.66l.11-.1a1.45,1.45,0,0,0,.15-.18.87.87,0,0,0,.06-.22.91.91,0,0,1,.08-.25.93.93,0,0,1,.14-.17l.16-.13M109.39,28a2.69,2.69,0,0,1,.6.21l.28.12a.5.5,0,0,1,.22.17.54.54,0,0,1,.11.23.63.63,0,0,0,.08.22l.2.26a.43.43,0,0,1,.08.23,1.65,1.65,0,0,1-.1.3.84.84,0,0,1-.18.27,2.25,2.25,0,0,1,0,.34,3.08,3.08,0,0,1-.06.44,4,4,0,0,0-.06.4,1.41,1.41,0,0,1-.09.39,1.37,1.37,0,0,1-.25.37,3.16,3.16,0,0,1-.32.31,1.72,1.72,0,0,1-.59.44,1.46,1.46,0,0,1-.48-.18,3,3,0,0,0-.55-.25l-.29-.13a1.62,1.62,0,0,0-.3-.1,1.78,1.78,0,0,0-.3-.1.69.69,0,0,1-.26-.12.49.49,0,0,1-.14-.16.31.31,0,0,0-.16-.14,1.83,1.83,0,0,1-.16-.31.9.9,0,0,0,.09-.39,1,1,0,0,1,.1-.42.73.73,0,0,0-.13-.27.61.61,0,0,1-.11-.3,1.58,1.58,0,0,1,.08-.4,1.94,1.94,0,0,1,.26-.52,1.8,1.8,0,0,0,.25-.34l.07-.15a2.68,2.68,0,0,0,.46-.18l.27-.13.28,0h.16l.45-.08h.16l.18,0,.15,0m6.33-19.49a2,2,0,0,0-1.26.45l-.18.15a2.83,2.83,0,0,0-.48.53,2,2,0,0,0-.2.35,3.2,3.2,0,0,0-.12.31,2.09,2.09,0,0,0-.44,1,4.09,4.09,0,0,0-.45,1.24,2,2,0,0,0-.42.85c0,.16-.08.33-.14.52s-.16.54-.24.82l0,.08a3.7,3.7,0,0,1-.3.81q-.34.7-.62,1.32a2.18,2.18,0,0,0-.12.35l-.1.14a2.86,2.86,0,0,0-.4.93,2.44,2.44,0,0,0-.3.5l-.07.18a3.14,3.14,0,0,0-.13.53,2.41,2.41,0,0,0-.18.64v0c-.1.15-.24.37-.41.64a2,2,0,0,0-.12.23l0,.08h0a2,2,0,0,0-.29.68c0,.1,0,.2-.05.29l-.1.22a2.35,2.35,0,0,0-.18.35,2,2,0,0,0-.45,1l-.08.11a2,2,0,0,0-.36.84c0,.21-.06.38-.08.51a5.64,5.64,0,0,0,0,1v.08l-.09,0a4.51,4.51,0,0,0-.46.21l-.14,0a2,2,0,0,0-1.23,1.08h0l-.14.18a3.88,3.88,0,0,0-.52,1.06,3.51,3.51,0,0,0-.16.92,2,2,0,0,0,0,.31,2.72,2.72,0,0,0,.12.54,2,2,0,0,0,0,1.32,3.74,3.74,0,0,0,.34.66,2,2,0,0,0,.36.43,2.61,2.61,0,0,0,.39.38,2.65,2.65,0,0,0,1,.49,1.58,1.58,0,0,0,.3.1l0,0,.21.1.17.07.18.08a3.46,3.46,0,0,0,1.14.43,2,2,0,0,0,1.07-.1,3.55,3.55,0,0,0,1.23-.83,5.27,5.27,0,0,0,.43-.42,3.36,3.36,0,0,0,.6-.92,3.31,3.31,0,0,0,.25-1c0-.07,0-.14,0-.19v-.06a5.45,5.45,0,0,0,.09-.6v0a3.63,3.63,0,0,0,.22-.66,2,2,0,0,0,0-.56,2.53,2.53,0,0,0,0-.38,2.57,2.57,0,0,0,.75-.62,2.66,2.66,0,0,0,.54-1l.26-.43a3.48,3.48,0,0,0,.45-1q0-.12.07-.24a3.14,3.14,0,0,0,.39-.61,9.72,9.72,0,0,0,.41-.89c.08-.2.19-.45.34-.75a5,5,0,0,0,.34-.74l.12-.3.06-.14c.11-.3.2-.59.27-.88l.09-.09.17-.21q.14-.2.28-.44a2.65,2.65,0,0,0,.17-.37,3.5,3.5,0,0,0,.35-.49l.11-.21a2.59,2.59,0,0,0,.11-.3,2.4,2.4,0,0,0,.32-.52,2.86,2.86,0,0,0,.16-.46l.08-.16a4.34,4.34,0,0,0,.2-.53,1.5,1.5,0,0,0,.07-.2,4.7,4.7,0,0,0,.55-1.07l.08-.18.18-.4.07-.15a4.05,4.05,0,0,0,.4-.8.92.92,0,0,1,.07-.15l0-.06a2.93,2.93,0,0,0,.35-.55,3.58,3.58,0,0,0,.37-1l.1-.53a2,2,0,0,0-.51-1.73,4.94,4.94,0,0,0-1.23-.93l-1.2-.63-.09,0L118,9a2.55,2.55,0,0,0-1.18-.32,4.74,4.74,0,0,0-.75-.2,2,2,0,0,0-.35,0Z"/><path class="cls-17" d="M118.63,51.59h0a6.76,6.76,0,0,0,5.09,3.72h0a6.82,6.82,0,0,1,3.74,11.61h0a6.84,6.84,0,0,0-1.94,6h0a6.77,6.77,0,0,1-9.8,7.17h0a6.71,6.71,0,0,0-6.29,0h0a6.77,6.77,0,0,1-9.8-7.17h0a6.84,6.84,0,0,0-1.94-6h0a6.82,6.82,0,0,1,3.74-11.61h0a6.76,6.76,0,0,0,5.09-3.72h0A6.74,6.74,0,0,1,118.63,51.59Z"/><path class="cls-18" d="M127.46,66.92a6.86,6.86,0,0,0-2,4.87,6.73,6.73,0,0,0,.1,1.15,7.37,7.37,0,0,1,.1,1.2,6.77,6.77,0,0,1-9.9,6,6.7,6.7,0,0,0-6.29,0,6.64,6.64,0,0,1-3.14.79,6.86,6.86,0,0,1-6.35-4.42,6.82,6.82,0,0,0,4.68,1.9,6.64,6.64,0,0,0,3.14-.79,6.7,6.7,0,0,1,6.29,0,6.77,6.77,0,0,0,9.9-6,7.37,7.37,0,0,0-.1-1.2,6.73,6.73,0,0,1-.1-1.15,6.86,6.86,0,0,1,2-4.87,6.71,6.71,0,0,0,2-4.84,6.91,6.91,0,0,0-.46-2.47,6.91,6.91,0,0,1,2.13,5A6.71,6.71,0,0,1,127.46,66.92Z"/><path class="cls-5" d="M118.87,82.41a8.2,8.2,0,0,1-3.84-1,5.23,5.23,0,0,0-4.9,0,8.15,8.15,0,0,1-8.68-.63,8.28,8.28,0,0,1-3.28-8.12A5.32,5.32,0,0,0,96.64,68a8.3,8.3,0,0,1-2.09-8.51,8.21,8.21,0,0,1,6.66-5.65,5.27,5.27,0,0,0,4-2.9,8.19,8.19,0,0,1,7.39-4.63h0A8.19,8.19,0,0,1,120,50.93a5.27,5.27,0,0,0,4,2.9,8.21,8.21,0,0,1,6.66,5.65A8.3,8.3,0,0,1,128.5,68,5.33,5.33,0,0,0,127,72.69a8.28,8.28,0,0,1-3.28,8.12A8.18,8.18,0,0,1,118.87,82.41Zm-6.3-4.57a8.19,8.19,0,0,1,3.84,1,5.14,5.14,0,0,0,5.55-.4,5.22,5.22,0,0,0,2.09-5.19,8.34,8.34,0,0,1,2.37-7.35,5.23,5.23,0,0,0,1.33-5.44,5.18,5.18,0,0,0-4.25-3.61,8.25,8.25,0,0,1-6.21-4.54h0a5.16,5.16,0,0,0-4.72-3h0a5.17,5.17,0,0,0-4.72,3,8.25,8.25,0,0,1-6.21,4.54,5.18,5.18,0,0,0-4.25,3.61,5.23,5.23,0,0,0,1.33,5.44,8.34,8.34,0,0,1,2.37,7.35,5.22,5.22,0,0,0,2.09,5.19,5.14,5.14,0,0,0,5.55.41A8.19,8.19,0,0,1,112.57,77.84Z"/><path class="cls-18" d="M101.44,61.37A4.32,4.32,0,0,1,103.9,61a5.57,5.57,0,0,1,2.21.78,5.3,5.3,0,0,1,1.71,1.69,3.74,3.74,0,0,1,.57,2.5,17.89,17.89,0,0,1-2.16-.77,11.77,11.77,0,0,1-1.68-.87A10.86,10.86,0,0,1,103,63.15,9.45,9.45,0,0,1,101.44,61.37Z"/><path class="cls-18" d="M112.17,62a3.66,3.66,0,0,1-2.54-1.51,4.76,4.76,0,0,1-.94-3,5.1,5.1,0,0,1,1-2.88,5.53,5.53,0,0,1,1-1A5.15,5.15,0,0,1,112.1,53a8.83,8.83,0,0,1-.12,1.42c0,.44-.11.82-.14,1.2-.1.74-.13,1.38-.17,2A17.74,17.74,0,0,0,112.17,62Z"/><path class="cls-18" d="M114.67,63.84a3,3,0,0,1-.16-2.44,4,4,0,0,1,3.78-2.66,3.29,3.29,0,0,1,2.23.89,8.9,8.9,0,0,1-.88.79c-.26.25-.52.39-.74.6-.47.33-.82.65-1.22.9l-1.25.82Z"/><path class="cls-18" d="M113.83,67.21a3.1,3.1,0,0,1,2-.17,3.38,3.38,0,0,1,2.47,2.35,2.56,2.56,0,0,1-.24,2,16.86,16.86,0,0,1-1.65-.64,4,4,0,0,1-1.08-.72,4.37,4.37,0,0,1-.84-1.09A6,6,0,0,1,113.83,67.21Z"/><path class="cls-18" d="M106,72.92a3,3,0,0,1-.14-1.91,3.19,3.19,0,0,1,.81-1.44,3.15,3.15,0,0,1,1.49-.85,2.39,2.39,0,0,1,1.94.34c-.27.75-.43,1.2-.62,1.61a3.45,3.45,0,0,1-.69,1,3.82,3.82,0,0,1-1.06.75A5.62,5.62,0,0,1,106,72.92Z"/></g></g></svg>