<svg xmlns="http://www.w3.org/2000/svg" viewBox="0 0 347 497"><defs><style>.cls-1{fill:#a1e2be;}.cls-2{fill:#7dc0b4;}.cls-3{fill:#6c4735;}.cls-4{fill:#efe1b4;}.cls-5{fill:#bdd344;}.cls-6{fill:#72a03d;}.cls-7{fill:#fff;}.cls-8{fill:#fff6cf;}.cls-9{fill:#eac38b;}.cls-10{fill:none;stroke:#6c4735;stroke-miterlimit:10;stroke-width:4px;}.cls-11{fill:#ffc849;}.cls-12{fill:#efb33c;}.cls-13{fill:#fed06e;}.cls-14{fill:#efbc62;}.cls-15{fill:#fff1b8;}.cls-16{fill:#f4e5a6;}</style></defs><title>Asset 4</title><g id="Layer_2" data-name="Layer 2"><g id="Layer_1-2" data-name="Layer 1"><rect class="cls-1" x="7.38" y="28.94" width="334.32" height="466.06" rx="12" ry="12"/><path class="cls-2" d="M342.2,41.45V483.5a12,12,0,0,1-12,12H19.91a12,12,0,0,1-11.12-7.41,11.9,11.9,0,0,0,4.6.91H323.65a12,12,0,0,0,12-12V34.94a11.88,11.88,0,0,0-.91-4.59A12,12,0,0,1,342.2,41.45Z"/><path class="cls-3" d="M331.67,497H21.42a14,14,0,0,1-14-14V40.94a14,14,0,0,1,14-14H331.67a14,14,0,0,1,14,14V483A14,14,0,0,1,331.67,497ZM21.42,30.94a10,10,0,0,0-10,10V483a10,10,0,0,0,10,10H331.67a10,10,0,0,0,10-10V40.94a10,10,0,0,0-10-10Z"/><path class="cls-4" d="M332.16,50.58V469.37a11.92,11.92,0,0,1-12,11.79H21.4a4.1,4.1,0,0,1-.49,0L9.37,458.5V38.79H320.13A11.92,11.92,0,0,1,332.16,50.58Z"/><path class="cls-3" d="M320.14,483.16H21.4a6.16,6.16,0,0,1-.73,0L19.6,483,7.36,459V36.79H320.14a13.93,13.93,0,0,1,14,13.79V469.37A13.93,13.93,0,0,1,320.14,483.16Zm-298-4h298a9.92,9.92,0,0,0,10-9.79V50.58a9.92,9.92,0,0,0-10-9.79H11.37V458Z"/><path class="cls-5" d="M339.76,19.55c1.55,0,2.85,1.3,3.5,2.71,1.81,3.92,4.47,12.41-1.21,20.9-6.85,10.26-19.79,14.46-33.4,15.28a4.93,4.93,0,0,1-5.24-4.91V47C303.41,39.48,307.28,20,339.76,19.55Z"/><path class="cls-6" d="M334.33,27.73c-2,1.72-3.94,3.28-5.91,4.85l-5.87,4.64c-1.94,1.55-3.83,3.14-5.74,4.75s-3.7,3.32-5.67,5.05a24.63,24.63,0,0,1,4-6.69,38.11,38.11,0,0,1,5.55-5.44,43.9,43.9,0,0,1,6.46-4.27A31.31,31.31,0,0,1,334.33,27.73Z"/><path class="cls-6" d="M306.62,58.14a4.89,4.89,0,0,0,2,.3c13.61-.81,26.55-5,33.4-15.27,5.67-8.49,3-17,1.2-20.9-.65-1.41-1.95-2.73-3.5-2.71h-.48C341.16,28.16,343,52.15,306.62,58.14Z"/><path class="cls-3" d="M308.34,59.94a6.49,6.49,0,0,1-4.43-1.75,6.34,6.34,0,0,1-2-4.66V47c0-4.75,1.82-28.45,37.83-29h.06c2.33,0,4,1.84,4.82,3.58,2.08,4.5,4.68,13.38-1.32,22.36C337,53.44,325,59,308.73,59.93Zm31.43-38.89c-32.35.46-34.87,20-34.87,26v6.51A3.37,3.37,0,0,0,306,56a3.44,3.44,0,0,0,2.57.93c10.69-.64,25-3.7,32.24-14.61,5.18-7.76,2.91-15.51,1.09-19.44-.41-.89-1.24-1.84-2.09-1.84Z"/><path class="cls-7" d="M325.25,28c.1.2-.06-.17-.07-.21-.09-.34,0,.14,0-.2s-.08.1,0-.2-.07.09.09-.2a1.5,1.5,0,0,0-2.6-1.51,4,4,0,0,0-.05,3.83,1.5,1.5,0,0,0,2.6-1.51Z"/><path class="cls-7" d="M319.94,33.08a1.5,1.5,0,0,0,0-3,1.5,1.5,0,0,0,0,3Z"/><path class="cls-7" d="M315.73,50.7l6.62-2.41c1.8-.66,1-3.56-.8-2.89l-6.62,2.41c-1.8.66-1,3.56.8,2.89Z"/><path class="cls-8" d="M7.38,27.85H307.3a12,12,0,0,1,12,12V457.56a12,12,0,0,1-12,12H19.38a12,12,0,0,1-12-12V27.85A0,0,0,0,1,7.38,27.85Z"/><rect class="cls-9" x="48.75" y="30.76" width="4.01" height="439.79"/><rect class="cls-9" x="58.13" y="30.76" width="3.01" height="439.79"/><rect class="cls-9" x="39.35" y="105.63" width="279.79" height="2"/><rect class="cls-9" x="39.35" y="167.7" width="279.79" height="2"/><rect class="cls-9" x="39.35" y="229.78" width="279.79" height="2"/><rect class="cls-9" x="39.35" y="291.85" width="279.79" height="2"/><rect class="cls-9" x="39.35" y="353.93" width="279.79" height="2"/><rect class="cls-9" x="39.35" y="416" width="279.79" height="2"/><path class="cls-9" d="M32.49,116a8.9,8.9,0,1,1,8.87-8.9A8.89,8.89,0,0,1,32.49,116Zm0-13.79a4.9,4.9,0,1,0,4.85,4.9A4.88,4.88,0,0,0,32.49,102.22Z"/><path class="cls-9" d="M32.49,178.09a8.9,8.9,0,1,1,8.87-8.9A8.89,8.89,0,0,1,32.49,178.09Zm0-13.79a4.9,4.9,0,1,0,4.85,4.9A4.88,4.88,0,0,0,32.49,164.3Z"/><path class="cls-9" d="M32.49,240.17a8.9,8.9,0,1,1,8.87-8.9A8.89,8.89,0,0,1,32.49,240.17Zm0-13.79a4.9,4.9,0,1,0,4.85,4.9A4.88,4.88,0,0,0,32.49,226.37Z"/><path class="cls-9" d="M32.49,302.24a8.9,8.9,0,1,1,8.87-8.9A8.89,8.89,0,0,1,32.49,302.24Zm0-13.79a4.9,4.9,0,1,0,4.85,4.9A4.88,4.88,0,0,0,32.49,288.45Z"/><path class="cls-9" d="M32.49,364.32a8.9,8.9,0,1,1,8.87-8.9A8.89,8.89,0,0,1,32.49,364.32Zm0-13.79a4.9,4.9,0,1,0,4.85,4.9A4.88,4.88,0,0,0,32.49,350.52Z"/><path class="cls-9" d="M32.49,426.39a8.9,8.9,0,1,1,8.87-8.9A8.89,8.89,0,0,1,32.49,426.39Zm0-13.79a4.9,4.9,0,1,0,4.85,4.9A4.88,4.88,0,0,0,32.49,412.6Z"/><path class="cls-10" d="M313.59,29.66"/><path class="cls-3" d="M309.24,472.55H21.39a14,14,0,0,1-14-14V26.84H309.24a14,14,0,0,1,14,14V458.55A14,14,0,0,1,309.24,472.55ZM11.36,30.84V458.55a10,10,0,0,0,10,10H309.24a10,10,0,0,0,10-10V40.84a10,10,0,0,0-10-10Z"/><rect class="cls-11" x="1.62" y="101.12" width="28.89" height="14.01" rx="7" ry="7"/><rect class="cls-11" x="1.62" y="162.16" width="28.89" height="14.01" rx="7" ry="7"/><rect class="cls-11" x="1.62" y="224.2" width="28.89" height="14.01" rx="7" ry="7"/><rect class="cls-11" x="1.62" y="286.24" width="28.89" height="14.01" rx="7" ry="7"/><rect class="cls-11" x="1.62" y="348.28" width="28.89" height="14.01" rx="7" ry="7"/><rect class="cls-11" x="1.62" y="410.32" width="28.89" height="14.01" rx="7" ry="7"/><path class="cls-12" d="M16.65,114.87h-7a7,7,0,0,1-7-7,7,7,0,0,1,7-7h7a7,7,0,1,0,0,14Z"/><path class="cls-12" d="M16.65,175.91h-7a7,7,0,0,1-7-7,7,7,0,0,1,7-7h7a7,7,0,1,0,0,14Z"/><path class="cls-12" d="M16.65,238h-7a7,7,0,0,1-7-7,7,7,0,0,1,7-7h7a7,7,0,1,0,0,14Z"/><path class="cls-12" d="M16.65,300h-7a7,7,0,0,1-7-7,7,7,0,0,1,7-7h7a7,7,0,1,0,0,14Z"/><path class="cls-12" d="M16.65,362h-7a7,7,0,0,1-7-7,7,7,0,0,1,7-7h7a7,7,0,1,0,0,14Z"/><path class="cls-12" d="M16.65,424.08h-7a7,7,0,0,1-7-7,7,7,0,0,1,7-7h7a7,7,0,1,0,0,14Z"/><path class="cls-3" d="M324.15,474.11a2,2,0,0,1-1.42-.59l-5-5a2,2,0,0,1,2.84-2.83l5,5a2,2,0,0,1-1.42,3.41Z"/><path class="cls-5" d="M259.31,5.61C257.58,5.38,256,6.69,255,8.18c-2.54,4.14-6.61,13.27-1.39,23.49C260,44,273.84,50.39,288.94,53.08a5.54,5.54,0,0,0,6.49-4.79l.85-7.27C297.27,32.6,295.5,10.38,259.31,5.61Z"/><path class="cls-6" d="M264.3,15.45a37.43,37.43,0,0,1,7.57,4.27,51.9,51.9,0,0,1,6.61,5.63,44.71,44.71,0,0,1,5.5,6.76,29,29,0,0,1,3.67,7.9c-1.9-2.22-3.66-4.39-5.55-6.47s-3.79-4.1-5.76-6.09-4-4-6-5.93S266.31,17.57,264.3,15.45Z"/><path class="cls-6" d="M291.24,53a5.5,5.5,0,0,1-2.29.07c-15.09-2.68-29-9.05-35.28-21.41-5.22-10.22-1.14-19.35,1.39-23.48.91-1.49,2.53-2.8,4.26-2.57l.54.07C256.62,15,251.42,41.58,291.24,53Z"/><path class="cls-3" d="M289.92,54.67a7,7,0,0,1-1.23-.11c-18-3.21-30.58-10.89-36.36-22.21-5.48-10.73-1.44-20.24,1.45-25,1.1-1.8,3.2-3.6,5.74-3.27h0c40,5.26,38.89,31.8,38.27,37.07l-.85,7.27a6.94,6.94,0,0,1-2.8,4.81A7.11,7.11,0,0,1,289.92,54.67Zm-31-47.58A3.59,3.59,0,0,0,256.35,9c-2.56,4.18-6.15,12.6-1.34,22,6.74,13.2,22.32,18.5,34.21,20.62a4,4,0,0,0,3.13-.73,4,4,0,0,0,1.6-2.75l.85-7.27c.79-6.71.54-29-35.68-33.74Z"/><path class="cls-7" d="M283.1,22.48V20.17a1.5,1.5,0,0,0-3,0v2.31a1.5,1.5,0,0,0,3,0Z"/><path class="cls-7" d="M284.78,26.87a1.5,1.5,0,0,0,0-3,1.5,1.5,0,0,0,0,3Z"/><path class="cls-7" d="M278.86,38.72l.87.29a1.52,1.52,0,0,0,1.85-1,1.53,1.53,0,0,0-1.05-1.85l-.87-.29a1.52,1.52,0,0,0-1.85,1,1.53,1.53,0,0,0,1.05,1.85Z"/><path class="cls-7" d="M274.94,31.09h-.29a1.5,1.5,0,1,0,0,3h.29a1.5,1.5,0,1,0,0-3Z"/><path class="cls-13" d="M305.31,14.24,310.1,23a2.86,2.86,0,0,0,1.14,1.13L320,28.91a2.85,2.85,0,0,1,0,5l-8.77,4.79a2.86,2.86,0,0,0-1.14,1.13l-4.79,8.75a2.86,2.86,0,0,1-5,0l-4.79-8.75a2.86,2.86,0,0,0-1.14-1.13l-8.77-4.79a2.85,2.85,0,0,1,0-5l8.77-4.79A2.86,2.86,0,0,0,295.5,23l4.79-8.75A2.86,2.86,0,0,1,305.31,14.24Z"/><path class="cls-14" d="M305.37,16a2.86,2.86,0,0,0-4.17.95l-4.8,8.75a2.88,2.88,0,0,1-1.14,1.14l-8.77,4.79A2.81,2.81,0,0,0,285,34.1l-.33-.18a2.85,2.85,0,0,1,0-5l8.77-4.79A2.88,2.88,0,0,0,294.59,23l4.8-8.75a2.86,2.86,0,0,1,5,0Z"/><path class="cls-14" d="M319.1,33.92l-8.77,4.79a2.88,2.88,0,0,0-1.14,1.14l-4.8,8.75a2.86,2.86,0,0,1-5,0l-.27-.5a2.84,2.84,0,0,0,3.47-1.31l4.8-8.75a2.88,2.88,0,0,1,1.14-1.14l8.77-4.79a2.83,2.83,0,0,0,1.31-3.47l.5.27A2.85,2.85,0,0,1,319.1,33.92Z"/><path class="cls-3" d="M302.8,51.57A4.36,4.36,0,0,1,299,49.31l-4.79-8.75a1.36,1.36,0,0,0-.54-.54l-8.77-4.78a4.35,4.35,0,0,1,0-7.64l8.77-4.79a1.34,1.34,0,0,0,.54-.54L299,13.52a4.37,4.37,0,0,1,7.66,0l4.79,8.75a1.35,1.35,0,0,0,.54.54l8.77,4.79a4.35,4.35,0,0,1,0,7.64L312,40a1.34,1.34,0,0,0-.54.54l-4.8,8.75A4.36,4.36,0,0,1,302.8,51.57Zm0-37.31a1.33,1.33,0,0,0-1.19.7l-4.79,8.75a4.36,4.36,0,0,1-1.73,1.73l-8.77,4.79a1.35,1.35,0,0,0,0,2.37l8.77,4.79a4.36,4.36,0,0,1,1.73,1.73l4.79,8.75a1.35,1.35,0,0,0,2.37,0l4.79-8.75a4.35,4.35,0,0,1,1.73-1.73l8.77-4.79a1.35,1.35,0,0,0,0-2.37l-8.77-4.79a4.34,4.34,0,0,1-1.73-1.73L304,15A1.33,1.33,0,0,0,302.8,14.26Z"/><path class="cls-13" d="M323.33,47.22l3.84,7a2.29,2.29,0,0,0,.91.91l7,3.83a2.28,2.28,0,0,1,0,4l-7,3.83a2.29,2.29,0,0,0-.91.91l-3.84,7a2.29,2.29,0,0,1-4,0l-3.84-7a2.29,2.29,0,0,0-.91-.91l-7-3.83a2.28,2.28,0,0,1,0-4l7-3.83a2.29,2.29,0,0,0,.91-.91l3.84-7A2.29,2.29,0,0,1,323.33,47.22Z"/><path class="cls-14" d="M323.38,48.62a2.29,2.29,0,0,0-3.34.76l-3.84,7a2.3,2.3,0,0,1-.91.91l-7,3.83a2.25,2.25,0,0,0-1.19,2l-.26-.14a2.28,2.28,0,0,1,0-4l7-3.83a2.3,2.3,0,0,0,.91-.91l3.84-7a2.29,2.29,0,0,1,4,0Z"/><path class="cls-14" d="M334.37,63l-7,3.83a2.3,2.3,0,0,0-.91.91l-3.84,7a2.29,2.29,0,0,1-4,0l-.22-.4a2.27,2.27,0,0,0,2.78-1l3.84-7a2.3,2.3,0,0,1,.91-.91l7-3.83a2.27,2.27,0,0,0,1-2.78l.4.22A2.28,2.28,0,0,1,334.37,63Z"/><path class="cls-3" d="M321.32,77.39a3.79,3.79,0,0,1-3.33-2l-3.84-7a.78.78,0,0,0-.31-.31l-7-3.83a3.78,3.78,0,0,1,0-6.64l7-3.83a.77.77,0,0,0,.31-.31l3.84-7a3.8,3.8,0,0,1,6.65,0l3.84,7a.78.78,0,0,0,.31.31l7,3.83a3.78,3.78,0,0,1,0,6.64l-7,3.83a.78.78,0,0,0-.31.31l-3.84,7A3.79,3.79,0,0,1,321.32,77.39Zm0-29.86a.77.77,0,0,0-.69.41l-3.84,7a3.77,3.77,0,0,1-1.51,1.5l-7,3.83a.78.78,0,0,0,0,1.37l7,3.83A3.78,3.78,0,0,1,316.8,67l3.84,7A.78.78,0,0,0,322,74l3.84-7a3.79,3.79,0,0,1,1.51-1.5l7-3.83a.78.78,0,0,0,0-1.37l-7-3.83a3.79,3.79,0,0,1-1.51-1.5l-3.84-7A.77.77,0,0,0,321.32,47.53Z"/><path class="cls-15" d="M238.58,26.15A14.71,14.71,0,0,0,224,11.46a14.72,14.72,0,0,0-27.86,0h-.2a14.68,14.68,0,0,0-10,25.45A14.71,14.71,0,0,0,210.2,51.38a14.71,14.71,0,0,0,24.2-15A14.63,14.63,0,0,0,238.58,26.15Z"/><path class="cls-16" d="M185.72,26.16a14.62,14.62,0,0,0,4.7,10.74,15,15,0,0,0-.51,3.81,14.71,14.71,0,0,0,12.46,14.53,15.72,15.72,0,0,1-2.29.17,14.71,14.71,0,0,1-14.73-14.71,15,15,0,0,1,.51-3.81,14.68,14.68,0,0,1,10-25.45h.2A14.73,14.73,0,0,1,210,1.5a15.58,15.58,0,0,1,2.28.17,14.73,14.73,0,0,0-11.65,9.79c-.06,0-3.49,2-3.55,2C189.82,15.28,185.72,18,185.72,26.16Z"/><path class="cls-3" d="M220.32,56.92a16.16,16.16,0,0,1-10.12-3.55,16.23,16.23,0,0,1-26.35-12.66,16,16,0,0,1,.36-3.33A16.18,16.18,0,0,1,195.06,10a16.23,16.23,0,0,1,30,0,16.26,16.26,0,0,1,15.07,16.16,16.08,16.08,0,0,1-4,10.65,16.2,16.2,0,0,1-15.76,20.11Zm-10.12-7.6,1,1A13.21,13.21,0,0,0,233,36.84l-.26-.85.62-.64a13.12,13.12,0,0,0,3.75-9.2A13.25,13.25,0,0,0,224,13h-1.07l-.34-1a13.22,13.22,0,0,0-25,0l-.35,1-1.28,0h0a13.23,13.23,0,0,0-13.22,13.2,13.06,13.06,0,0,0,4.23,9.65l.66.61-.23.87a13.21,13.21,0,0,0,21.84,13Z"/><path class="cls-3" d="M214.4,21.51a1,1,0,0,1-.67-1.75l10-8.86a1,1,0,1,1,1.33,1.5l-10,8.86A1,1,0,0,1,214.4,21.51Z"/><path class="cls-3" d="M203.48,22.64a1,1,0,0,1-.81-.41l-7.28-10A1,1,0,0,1,197,11.06l7.28,10a1,1,0,0,1-.81,1.59Z"/><path class="cls-3" d="M186.17,38.09a1,1,0,0,1-.32-1.95l13.66-4.54a1,1,0,1,1,.63,1.9L186.49,38A1,1,0,0,1,186.17,38.09Z"/><path class="cls-3" d="M209.85,52.63a1,1,0,0,1-1-1V39.82a1,1,0,0,1,2,0V51.63A1,1,0,0,1,209.85,52.63Z"/><path class="cls-3" d="M234.43,37.18l-.19,0-14.57-2.73a1,1,0,1,1,.37-2l14.57,2.73a1,1,0,0,1-.18,2Z"/><ellipse class="cls-11" cx="210.2" cy="29.63" rx="9.92" ry="9.9"/><path class="cls-12" d="M212.48,39.43a8.5,8.5,0,0,1-1.37.1,9.9,9.9,0,1,1,0-19.8,8.47,8.47,0,0,1,1.37.1,9.89,9.89,0,0,0,0,19.6Z"/><path class="cls-3" d="M210.2,40.53a10.9,10.9,0,1,1,10.92-10.9A10.93,10.93,0,0,1,210.2,40.53Zm0-19.81a8.9,8.9,0,1,0,8.92,8.9A8.92,8.92,0,0,0,210.2,20.73Z"/><path class="cls-7" d="M213.75,28.89a3,3,0,0,1,.23,1.74A1.54,1.54,0,0,0,215,32.47a1.52,1.52,0,0,0,1.85-1,6.5,6.5,0,0,0-.54-4,1.5,1.5,0,0,0-2.6,1.51Z"/><path class="cls-3" d="M23.88,117.12H9a9,9,0,1,1,0-18H23.88a9,9,0,1,1,0,18ZM9,103.12a5,5,0,1,0,0,10H23.88a5,5,0,1,0,0-10Z"/><path class="cls-3" d="M23.88,178.16H9a9,9,0,1,1,0-18H23.88a9,9,0,1,1,0,18ZM9,164.16a5,5,0,1,0,0,10H23.88a5,5,0,1,0,0-10Z"/><path class="cls-3" d="M23.88,240.21H9a9,9,0,1,1,0-18H23.88a9,9,0,1,1,0,18ZM9,226.2a5,5,0,1,0,0,10H23.88a5,5,0,1,0,0-10Z"/><path class="cls-3" d="M23.88,302.25H9a9,9,0,1,1,0-18H23.88a9,9,0,1,1,0,18ZM9,288.24a5,5,0,1,0,0,10H23.88a5,5,0,1,0,0-10Z"/><path class="cls-3" d="M23.88,364.29H9a9,9,0,1,1,0-18H23.88a9,9,0,1,1,0,18ZM9,350.28a5,5,0,1,0,0,10H23.88a5,5,0,1,0,0-10Z"/><path class="cls-3" d="M23.88,426.33H9a9,9,0,1,1,0-18H23.88a9,9,0,1,1,0,18ZM9,412.32a5,5,0,1,0,0,10H23.88a5,5,0,1,0,0-10Z"/><path class="cls-8" d="M296.42,33.65h2.67a1.5,1.5,0,1,0,0-3h-2.67a1.5,1.5,0,1,0,0,3Z"/><path class="cls-8" d="M301.6,22.15v5.34a1.51,1.51,0,0,0,3,0V22.15a1.51,1.51,0,0,0-3,0Z"/><path class="cls-8" d="M321.33,61.92l.7-4A1.54,1.54,0,0,0,321,56.07a1.52,1.52,0,0,0-1.85,1l-.7,4A1.54,1.54,0,0,0,319.48,63a1.52,1.52,0,0,0,1.85-1Z"/><path class="cls-8" d="M323.15,65.67a1.5,1.5,0,0,0,0-3,1.5,1.5,0,0,0,0,3Z"/><path class="cls-7" d="M32.44,489.62H59a1.5,1.5,0,0,0,0-3H32.44a1.5,1.5,0,0,0,0,3Z"/><path class="cls-7" d="M66.76,489.88a2.58,2.58,0,0,1,.43-.25c-.15.06.28-.07.34-.08H68q-.19,0,.09,0a1.5,1.5,0,1,0,.8-2.89,4.71,4.71,0,0,0-3.68.59,1.5,1.5,0,1,0,1.52,2.59Z"/><path class="cls-7" d="M339.69,399.06V383.55a1.51,1.51,0,0,0-3,0v15.51a1.51,1.51,0,0,0,3,0Z"/><path class="cls-3" d="M93.83,79.44a3,3,0,0,1,0,.53,2.27,2.27,0,0,1-.07.55,2,2,0,0,0,0,.33.28.28,0,0,1,0,.16,2,2,0,0,0-.06.55,1.25,1.25,0,0,1,0,.4,1.64,1.64,0,0,1-.07.59c0,.15-.07.29-.11.44a3.35,3.35,0,0,1-.18.49,1.84,1.84,0,0,1,0,.73,1.87,1.87,0,0,1-.06.2,1.69,1.69,0,0,0-.06.2.2.2,0,0,0,0,.12.3.3,0,0,1,0,.15,1.62,1.62,0,0,0,0,.33v.18q0,.42-.06.64c0,.15-.05.29-.09.42a3.5,3.5,0,0,1-.17.76.8.8,0,0,0,.06.17,1.16,1.16,0,0,1,.06.15.51.51,0,0,1,0,.29,1.1,1.1,0,0,1,.1.2.62.62,0,0,1,0,.24,1.42,1.42,0,0,1,0,.34,1.12,1.12,0,0,0,0,.27.46.46,0,0,0,0,.18,1.28,1.28,0,0,1,.06.18,1.4,1.4,0,0,1,0,.42,1.16,1.16,0,0,1-.09.39,3.82,3.82,0,0,1,.09.79,6.6,6.6,0,0,1,0,.92,1.08,1.08,0,0,0-.06.42,1.87,1.87,0,0,1,0,.37,1.09,1.09,0,0,1,0,.17l0,.17a.65.65,0,0,0,0,.18.69.69,0,0,1,0,.18,1.76,1.76,0,0,1-.17.42.9.9,0,0,1-.07.22,1,1,0,0,0-.07.2,1,1,0,0,0,0,.33,1.29,1.29,0,0,1,0,.35.42.42,0,0,0-.09.13.18.18,0,0,1-.11.11,1.54,1.54,0,0,1,0,.37,2.79,2.79,0,0,0-.28.27.83.83,0,0,1-.35.22.18.18,0,0,1-.1.17.36.36,0,0,0-.15.12.21.21,0,0,0-.06.12.22.22,0,0,1-.06.12.16.16,0,0,0-.12.12.32.32,0,0,1-.07.15l-.89.45a3.62,3.62,0,0,0-.8.53.71.71,0,0,0-.37.07l-.23,0-.26.06-.34.09-.17.06a.72.72,0,0,1-.27,0h-.83a.33.33,0,0,1-.15,0l-.12,0a3.13,3.13,0,0,1-.68.1l-.56,0a.4.4,0,0,0-.16,0,.41.41,0,0,1-.16,0l-.13,0-.14,0H84.4l-.17,0-.12,0-.24,0-.24,0a1.52,1.52,0,0,0-.37,0,.3.3,0,0,0-.17,0,.34.34,0,0,1-.15,0l-.16-.1-.18-.12a.47.47,0,0,0-.18,0,.42.42,0,0,1-.21,0,1.57,1.57,0,0,1-.29-.1l-.29-.15-.26-.15-.26-.17L81,97l-.1-.11-.21-.17-.11-.07a.66.66,0,0,0-.16-.16.11.11,0,0,1-.06-.06l-.16-.17a.77.77,0,0,1-.13-.22,1.1,1.1,0,0,0-.21-.34.53.53,0,0,1-.14-.17,3.35,3.35,0,0,1-.22-1q0-.53-.07-1a.53.53,0,0,1,.38-.22l.5-.07.23-.11a.26.26,0,0,1,.23,0A.53.53,0,0,1,81,93l.2-.07.22,0,.19,0a.4.4,0,0,1,.22.1l.17.2.2.29.17.22.21.27a.62.62,0,0,0,.13.12l.31.21.21.11.18.11.11.06.33.26a.75.75,0,0,0,.45.13.57.57,0,0,0,.21.17l.23.12.17.06a.37.37,0,0,1,.15.06.89.89,0,0,0,.17.15l.1,0a1.69,1.69,0,0,0,.43.18,1.16,1.16,0,0,0,.55,0,1.16,1.16,0,0,1,.39,0,.3.3,0,0,0,.17,0,1.37,1.37,0,0,0,.36,0l.35-.1.16,0a.37.37,0,0,0,.16-.1c.11,0,.18-.07.2-.1s0,0,0,0a2,2,0,0,0,.5-.33,1.55,1.55,0,0,1,.33-.26.74.74,0,0,1,.17-.33,1.7,1.7,0,0,0,.22-.31.82.82,0,0,1,.12-.2l0,0a.26.26,0,0,1,.09-.18l.11-.09a3,3,0,0,0,.17-.54l.1-.12.1-.15a.81.81,0,0,1,0-.42,1,1,0,0,1,.16-.37.15.15,0,0,1,0-.13,1.55,1.55,0,0,0,0-.21.2.2,0,0,0-.24.09,1,1,0,0,1-.2.21l-.23.16a.94.94,0,0,1-.23.13,1.54,1.54,0,0,0-.31.15,1.28,1.28,0,0,1-.23.12.22.22,0,0,1-.12.06l-.17.06-.21.12a1.25,1.25,0,0,1-.23.12.87.87,0,0,1-.24.06,1.28,1.28,0,0,0-.27.06l-.29,0-.37,0h-.39l-.51,0a.58.58,0,0,1-.42-.2c-.1,0-.14,0-.14.09s0,.09-.16.06a2.64,2.64,0,0,1-.75-.1,5.93,5.93,0,0,1-.62-.22l-.32-.12a.44.44,0,0,0-.2,0,.3.3,0,0,1-.17,0,.87.87,0,0,0-.24-.12.14.14,0,0,1-.1-.2,1,1,0,0,0-.31-.11.61.61,0,0,1-.21-.06l-.27-.2-.2-.15-.29-.29-.13-.16a.29.29,0,0,0-.18-.11.19.19,0,0,0-.07-.17.16.16,0,0,1-.07-.15l-.17-.18-.17-.18a.4.4,0,0,0-.15-.16.46.46,0,0,1-.12-.09,1.58,1.58,0,0,0-.23-.2.39.39,0,0,1-.13-.12.85.85,0,0,0-.13-.31.42.42,0,0,1-.09-.11l-.13-.21a1.3,1.3,0,0,1-.11-.18l-.07-.21a.34.34,0,0,0-.07-.11,1.57,1.57,0,0,0-.13-.26.55.55,0,0,1-.09-.31l-.1-.11-.12-.16a.77.77,0,0,1-.12-.28,1.24,1.24,0,0,0-.07-.26,1.15,1.15,0,0,0-.06-.18L78.73,87a.33.33,0,0,1,0-.16.49.49,0,0,0,0-.18q0-.27-.07-.37a.79.79,0,0,1,0-.2,1.64,1.64,0,0,0-.06-.26s0-.05.06-.13a.7.7,0,0,0,0-.33,1.3,1.3,0,0,1,0-.4.41.41,0,0,1,.07-.13.89.89,0,0,0,.1-.16.47.47,0,0,0,0-.23.27.27,0,0,1,0-.18.73.73,0,0,0,.14-.2.22.22,0,0,1,.06-.1.94.94,0,0,1,.17-.22,1.9,1.9,0,0,1,.06-.46,1.21,1.21,0,0,1,.18-.42v-.29a.65.65,0,0,0,.12-.17l.1-.2.21-.43a2.49,2.49,0,0,1,.26-.43c.06-.11.11-.17.13-.18l.06,0a2.05,2.05,0,0,0,.32-.34,1.12,1.12,0,0,1,.22-.24l.18-.09.21-.09.13-.18a.21.21,0,0,1,.18-.09,1.34,1.34,0,0,1,.39-.42.85.85,0,0,1,.26-.12l.28-.1a.8.8,0,0,1,.27-.11l.17,0a2,2,0,0,1,.59-.23,1.21,1.21,0,0,0,.49-.21,1.05,1.05,0,0,0,.55-.1,2.1,2.1,0,0,1,.53-.17h.32l.33,0a.32.32,0,0,1,.28.16.22.22,0,0,1,.15-.12l.2-.07a2.37,2.37,0,0,0,.54,0,2.16,2.16,0,0,1,.51,0,1.59,1.59,0,0,1,.43.15.85.85,0,0,0,.4.1,2,2,0,0,0,.33.2l.36.2.28.17.28.2a1.25,1.25,0,0,0,.24.21l.12,0a.66.66,0,0,0,.17.32l.24.24a.67.67,0,0,0,.06-.24.93.93,0,0,1,.06-.27l-.09-.16a.46.46,0,0,1,0-.26c0-.2,0-.32.12-.37a.54.54,0,0,1,.32-.06,1.68,1.68,0,0,1,.44.1,2.16,2.16,0,0,0,.54.11l.51,0,.54,0,.23-.07a.32.32,0,0,1,.21,0,.72.72,0,0,1,.28.15A.5.5,0,0,0,93.83,79.44Zm-3.35,6.94a1.38,1.38,0,0,0,0-.31c0-.07,0-.16,0-.26l0-.18a.44.44,0,0,1,0-.21.3.3,0,0,1-.11-.23.51.51,0,0,0-.06-.23,1.72,1.72,0,0,1-.09-.27.19.19,0,0,0,0-.1.41.41,0,0,0-.18-.17.21.21,0,0,1-.11-.22L89.52,84a.49.49,0,0,1-.2-.22,3.09,3.09,0,0,0-.37-.46,2.89,2.89,0,0,0-.34-.29,1.29,1.29,0,0,0-.34-.2l-.27-.1a.57.57,0,0,1-.12-.2l-.1-.27a2,2,0,0,1-.4-.11l-.4-.13-.32,0-.19,0h-.24A.82.82,0,0,1,86,82l-.24,0-.24,0a1.63,1.63,0,0,1-.48,0,1.12,1.12,0,0,0-.33,0,.85.85,0,0,0-.33.12.63.63,0,0,1-.33.1.32.32,0,0,1-.13.17l-.18.12a2.74,2.74,0,0,1-.37.2.53.53,0,0,0-.27.27,1.15,1.15,0,0,1-.23.17.16.16,0,0,0-.09.07.79.79,0,0,1-.15.24l-.12.12a.2.2,0,0,1-.07.23l-.17.16a1.53,1.53,0,0,1-.07.39.52.52,0,0,0-.15.22,1,1,0,0,1-.07.2,1.4,1.4,0,0,0-.16.68q0,.34,0,.66a.62.62,0,0,0,0,.28.51.51,0,0,1,0,.13c0,.15,0,.27,0,.38a.82.82,0,0,0,.06.35,1.67,1.67,0,0,1,.07.2c0,.1.06.15.07.15a1.1,1.1,0,0,0,.17.27,1,1,0,0,1,.15.2,1.57,1.57,0,0,1,.16.31c0,.11.08.22.11.33l.18.2a.71.71,0,0,1,.14.24,3.21,3.21,0,0,1,.43.24l.26.17a3.59,3.59,0,0,1,.42.26,1.18,1.18,0,0,0,.27.16,2.5,2.5,0,0,0,.86.17.19.19,0,0,0,.14,0l.13,0a6.82,6.82,0,0,0,1,0l.64-.07.5-.09a1.18,1.18,0,0,0,.4-.13.84.84,0,0,1,.32-.18.39.39,0,0,0,.17-.06,2,2,0,0,0,.32-.18l.15-.11a1.75,1.75,0,0,1,.28-.2.38.38,0,0,0,.18-.24l.16-.09a.4.4,0,0,0,.16-.13.65.65,0,0,0,.12-.29.3.3,0,0,1,0-.17l.1-.13.1-.13a.78.78,0,0,0,.07-.13l0-.13a.53.53,0,0,1,.12-.28.18.18,0,0,0,0-.18,3,3,0,0,1,.11-.35A3.29,3.29,0,0,0,90.47,86.38Z"/><path class="cls-3" d="M110.39,79.78a.47.47,0,0,1-.06.2.51.51,0,0,0-.06.22.75.75,0,0,1,0,.22.42.42,0,0,0,0,.1.3.3,0,0,1,0,.17.1.1,0,0,0,0,.1.38.38,0,0,1,0,.22.29.29,0,0,0,0,.12.26.26,0,0,0,0,.16.61.61,0,0,1,0,.16,2.5,2.5,0,0,0-.06.31.52.52,0,0,1,0,.16c0,.08,0,.17,0,.27a1.36,1.36,0,0,0,0,.32.28.28,0,0,0,0,.12.33.33,0,0,1,0,.15,2.66,2.66,0,0,1,0,.56,2.58,2.58,0,0,0,0,.56.89.89,0,0,0,0,.22.52.52,0,0,1,0,.22,1,1,0,0,1,0,.32,1.69,1.69,0,0,0-.07.34,1.16,1.16,0,0,1,0,.33.46.46,0,0,0,0,.31,1.24,1.24,0,0,1-.12.29,2,2,0,0,1,0,.66,3.45,3.45,0,0,0-.06.66l0,.23a1.11,1.11,0,0,1,0,.23.42.42,0,0,1,0,.12.45.45,0,0,0,0,.15.62.62,0,0,1,0,.32l-.06.15c0,.18,0,.32,0,.43a.69.69,0,0,1-.12.35.55.55,0,0,0,0,.38.54.54,0,0,1-.07.43.66.66,0,0,1,0,.27,3.09,3.09,0,0,0,0,.32,1.63,1.63,0,0,1,0,.48,1,1,0,0,0,0,.26,2,2,0,0,0,0,.55c0,.17.06.34.07.5a.38.38,0,0,0,0,.42.55.55,0,0,1,.15.37,2.12,2.12,0,0,0-.07.21.53.53,0,0,0,0,.11l-.22.11a.7.7,0,0,1-.2.09l-.15,0-.17,0a.46.46,0,0,0-.23,0,1,1,0,0,1-.26,0,1.09,1.09,0,0,1-.28,0,.6.6,0,0,0-.28,0,.88.88,0,0,0-.28.1.54.54,0,0,1-.26.07.41.41,0,0,1-.29.16.34.34,0,0,0-.17,0,.9.9,0,0,1-.24-.39.37.37,0,0,1,0-.42,1.28,1.28,0,0,1,0-.71,2.1,2.1,0,0,0,0-.78,1.37,1.37,0,0,0-.35.2,3.09,3.09,0,0,0-.31.27.39.39,0,0,0-.12.13.34.34,0,0,1-.15.13l-.22.1a.35.35,0,0,0-.17.12.68.68,0,0,1-.26,0,.69.69,0,0,0-.26,0l-.34.09-.39.09-.39.12a1.08,1.08,0,0,1-.51,0,.4.4,0,0,0-.26,0,.26.26,0,0,1-.13,0,.63.63,0,0,1-.42,0c0,.06-.11.08-.23,0l-.28-.1a.58.58,0,0,1-.37,0,2.37,2.37,0,0,0-.37-.07c-.08,0-.13,0-.13-.07a.13.13,0,0,0-.11-.1,4.13,4.13,0,0,1-1.15-.12.34.34,0,0,0-.13-.15.23.23,0,0,1-.11-.17c-.08,0-.13,0-.16,0a.16.16,0,0,0-.16-.07.4.4,0,0,0-.13-.18.52.52,0,0,1-.14-.13.29.29,0,0,1-.18,0,.29.29,0,0,0-.18,0l-.17-.22,0,0a.37.37,0,0,0-.18-.1.12.12,0,0,1-.09,0l-.2-.2-.15-.17a1.08,1.08,0,0,0-.24-.26q-.1-.06-.07-.23a2.13,2.13,0,0,1-.28-.21l-.11-.13A.57.57,0,0,1,97,90a.23.23,0,0,0-.12-.17l-.27-.43a.45.45,0,0,0-.27-.21c0-.08,0-.13,0-.15s0-.06,0-.12a1.08,1.08,0,0,1-.29-.42,4.5,4.5,0,0,1-.17-.53q-.07-.28-.12-.56a3.36,3.36,0,0,0-.15-.55c0-.23,0-.47,0-.72a1.72,1.72,0,0,1,.12-.67.77.77,0,0,0,.07-.29,1.22,1.22,0,0,1,0-.24c0-.08,0-.16,0-.23s0-.15,0-.23a5.54,5.54,0,0,1,.13-.59,1,1,0,0,1,.18-.34.49.49,0,0,1,0-.31,1.18,1.18,0,0,1,.12-.24l.15-.23a.51.51,0,0,0,.07-.27.63.63,0,0,0,.18-.23,1.18,1.18,0,0,1,.16-.26l.12-.22.15-.24a.73.73,0,0,1,.13-.15.19.19,0,0,0,.06-.2l.12-.1a.52.52,0,0,1,.17-.1q.2-.29.32-.53a2.2,2.2,0,0,1,.29-.43l.18-.16.18-.13a.26.26,0,0,1,.18-.16.2.2,0,0,0,.16-.16l.49-.11a1.23,1.23,0,0,0,.44-.21l.31,0a.5.5,0,0,0,.28-.11.55.55,0,0,0,.39,0l.27-.18h.75q.35,0,.77,0l.38,0a1.17,1.17,0,0,1,.33,0h.22a.23.23,0,0,1,.17.07.42.42,0,0,1,.42,0,.2.2,0,0,0,.12,0,.38.38,0,0,1,.2,0,1.45,1.45,0,0,0,.33.07H105l.24.12.17.12a5.18,5.18,0,0,0,.5.28,2.3,2.3,0,0,1,.36.21.78.78,0,0,0,.17.17l.1.07.1.11.12.13a.49.49,0,0,0,.15.17l.2.17a.48.48,0,0,1,.09.12.31.31,0,0,0,.11.12l.16.13a.26.26,0,0,1,.11.21,1.79,1.79,0,0,0,0-.72,3.13,3.13,0,0,0-.15-.65,1.17,1.17,0,0,0-.15-.23c0-.06,0-.16,0-.31a.67.67,0,0,1,.11-.22l.13-.17s.06,0,.17,0H108l.21,0h.18l.66,0a2.39,2.39,0,0,1,.66.12.46.46,0,0,1,.32,0l.27.11a.37.37,0,0,1,0,.16.37.37,0,0,0,0,.16Zm-3.55,5.86a.45.45,0,0,1-.06-.21c0-.09,0-.17,0-.26a.36.36,0,0,0-.11-.11l-.11-.09a.72.72,0,0,0-.06-.32,1,1,0,0,1-.09-.24.35.35,0,0,0,0-.28.54.54,0,0,1-.09-.18.69.69,0,0,1,0-.26,1.78,1.78,0,0,0,0-.28.31.31,0,0,1-.15-.15.32.32,0,0,0-.07-.12l-.29-.29-.2-.2a1.4,1.4,0,0,0-.47-.32l-.37-.21-.32-.16a.65.65,0,0,0-.29-.07,1.44,1.44,0,0,1-.34,0l-.19-.09-.15-.06h-.15a.51.51,0,0,1-.2,0,.41.41,0,0,1-.16,0l-.13,0a.58.58,0,0,1-.37,0c-.08,0-.14,0-.17,0a.63.63,0,0,0-.33.1,1.74,1.74,0,0,1-.26.17l-.28.13-.11.06a2.47,2.47,0,0,0-.34.2l-.17.12a.56.56,0,0,0-.2.11.08.08,0,0,1-.07,0l-.1.12-.1.12L100,83l-.15.13a1,1,0,0,1-.34.22.6.6,0,0,1-.17.4.52.52,0,0,0-.15.4,1.1,1.1,0,0,0-.15.23l-.1.23a1.27,1.27,0,0,0-.06.31,2.15,2.15,0,0,1-.06.35,1.76,1.76,0,0,1-.1.24.89.89,0,0,0-.07.22,1.08,1.08,0,0,1,0,.5,1.45,1.45,0,0,0-.09.35.55.55,0,0,0,0,.2.62.62,0,0,1,0,.22,1.12,1.12,0,0,1,0,.28.56.56,0,0,0,0,.13.86.86,0,0,0,.11.32.44.44,0,0,1,0,.34l.32.24a1.79,1.79,0,0,1,.76.71l.47.39a1.21,1.21,0,0,0,.49.34,1.68,1.68,0,0,0,.35.16l.26.06.18.06.16.06a6.11,6.11,0,0,1,.76.13,2.55,2.55,0,0,0,.61.09.38.38,0,0,0,.17,0l.17,0h.21a.58.58,0,0,0,.18,0,.88.88,0,0,1,.24-.1l.1,0,.17-.07a.16.16,0,0,1,.2,0,.67.67,0,0,1,.21-.24l.26-.18a1.36,1.36,0,0,0,.23-.21.57.57,0,0,0,.14-.32,1.28,1.28,0,0,1,.22-.28,1.2,1.2,0,0,0,.17-.18.78.78,0,0,0,.09-.18.41.41,0,0,1,.09-.16,3,3,0,0,0,.18-.33.88.88,0,0,1,.18-.26.26.26,0,0,1,0-.23l.11-.21a3.55,3.55,0,0,0,.17-.65,4.53,4.53,0,0,0,0-.72A1.79,1.79,0,0,0,106.85,85.65Z"/><path class="cls-3" d="M122,82.45c-.1.11-.16.17-.18.17a.13.13,0,0,0-.09,0c-.2.11-.3.16-.32.15a.31.31,0,0,1-.27-.2.54.54,0,0,0-.27-.27.42.42,0,0,1-.24,0,.63.63,0,0,0-.24,0,.88.88,0,0,0-.22.07l-.22.1-.47.18-.24.13a.89.89,0,0,0-.15.18,1.06,1.06,0,0,1-.17.21,2.55,2.55,0,0,1-.33.23,1.62,1.62,0,0,0-.31.23.55.55,0,0,0-.07.18.53.53,0,0,1-.1.21,1,1,0,0,0-.19.2l0,.07a.31.31,0,0,0-.06.2.2.2,0,0,1,0,.12l-.1.16a.28.28,0,0,0,0,.26.6.6,0,0,0-.15.28.31.31,0,0,1,0,.13.41.41,0,0,0-.14.21.38.38,0,0,1-.06.16.63.63,0,0,0-.11.33.58.58,0,0,1,0,.21,1.69,1.69,0,0,0-.07.4,1.36,1.36,0,0,1,0,.26,2.23,2.23,0,0,1-.07.33c0,.11-.07.22-.1.35a.66.66,0,0,0,0,.26.69.69,0,0,1,0,.31.33.33,0,0,1,0,.15.44.44,0,0,0,0,.2.89.89,0,0,0,0,.37.3.3,0,0,1-.12.32,1.1,1.1,0,0,1,.09.43.52.52,0,0,1-.11.4,1.55,1.55,0,0,1,.09.59c0,.21,0,.43,0,.65s0,.44,0,.66a2.19,2.19,0,0,0,.06.62.23.23,0,0,0,.22.18.53.53,0,0,1,.29.11.19.19,0,0,0,.06.13.55.55,0,0,1,.11.18.47.47,0,0,1-.1.34.61.61,0,0,1-.24.22.24.24,0,0,1-.2,0,.53.53,0,0,0-.29,0l-.22.09-.24.11a3.57,3.57,0,0,1-.47.13l-.54.11-.24,0-.24,0-.29.11a.47.47,0,0,1-.27,0,.45.45,0,0,1-.34-.27,1.18,1.18,0,0,1-.1-.49.73.73,0,0,1,0-.23.44.44,0,0,0,0-.23.73.73,0,0,0,0-.23,2,2,0,0,1-.06-.23,2.85,2.85,0,0,1,0-.65q0-.33,0-.67a.66.66,0,0,1,0-.18.56.56,0,0,0,0-.16l0-.18a.65.65,0,0,1,0-.18q0-.2-.07-.34c0-.1,0-.22,0-.37a1.45,1.45,0,0,0,0-.17,1.29,1.29,0,0,1,0-.17,1.16,1.16,0,0,1,0-.31c0-.09,0-.18.06-.28a1.43,1.43,0,0,1,0-.49,2.4,2.4,0,0,0,0-.39c0-.1,0-.2-.06-.29s0-.2-.06-.29a1.57,1.57,0,0,1,0-.18c0-.07,0-.12,0-.13a3.25,3.25,0,0,1-.09-.51,2.51,2.51,0,0,0,0-.32,1.06,1.06,0,0,1,0-.38,1.8,1.8,0,0,0,.06-.23,1.45,1.45,0,0,0,0-.5,2.1,2.1,0,0,1,0-.5,1.72,1.72,0,0,1,.09-.37,1.09,1.09,0,0,0,.06-.37,1.17,1.17,0,0,0,0-.16,1,1,0,0,1,0-.16.57.57,0,0,1,0-.16.56.56,0,0,0,0-.16.79.79,0,0,1,0-.13.57.57,0,0,1,0-.16.57.57,0,0,1,0-.33,1.21,1.21,0,0,0,0-.35,1.22,1.22,0,0,0,0-.24l0-.24a.93.93,0,0,1,0-.13.23.23,0,0,0,0-.13,1,1,0,0,1,0-.4,1.35,1.35,0,0,0,0-.31,2.55,2.55,0,0,0,0-.37.62.62,0,0,1,.07-.37.31.31,0,0,0-.07-.21.91.91,0,0,1-.12-.18.51.51,0,0,0,0-.39.71.71,0,0,1,0-.39.48.48,0,0,1,.39-.17.3.3,0,0,1,.27.11.73.73,0,0,0,.17.18,1.15,1.15,0,0,0,.49,0,3,3,0,0,1,.49,0l.28,0,.26,0a1,1,0,0,0,.36-.11.58.58,0,0,1,.45,0,.18.18,0,0,1,.11.13.58.58,0,0,0,.09.21.74.74,0,0,0,0,.23.16.16,0,0,1,0,.09l-.1.42a.82.82,0,0,0,0,.44.31.31,0,0,0,.23-.09l.18-.18.11-.11.11-.11a3.09,3.09,0,0,0,.28-.27.84.84,0,0,1,.16-.15.65.65,0,0,1,.17-.12.32.32,0,0,0,.15-.15,1.45,1.45,0,0,0,.44-.18.54.54,0,0,1,.49,0,1,1,0,0,1,.38-.21.37.37,0,0,1,.4.06,2,2,0,0,0,.81-.15,1,1,0,0,1,.64-.07.36.36,0,0,1,.18.09.57.57,0,0,0,.16.11l.16,0,.16.07A.76.76,0,0,1,122,80a5.23,5.23,0,0,0-.09.62,2,2,0,0,1,0,.44,1.6,1.6,0,0,0,0,.27c0,.18,0,.36,0,.55S122,82.25,122,82.45Z"/><path class="cls-3" d="M137.71,74.95a.18.18,0,0,1,0,.16c0,.06-.05.1,0,.13a1.7,1.7,0,0,0,0,.73.67.67,0,0,1-.14.59.27.27,0,0,1,0,.28,1.51,1.51,0,0,0-.09.33,1.57,1.57,0,0,0,0,.55.66.66,0,0,1-.07.48.4.4,0,0,1,.06.17.24.24,0,0,0,.06.15,1.89,1.89,0,0,0,0,.48,2.48,2.48,0,0,1,0,.52,1.06,1.06,0,0,0,0,.28q0,.13,0,.31a.92.92,0,0,0,0,.39.77.77,0,0,1,0,.22,1.66,1.66,0,0,0,0,.53,1.69,1.69,0,0,1,0,.33q0,.17,0,.37c0,.13,0,.24,0,.32a.93.93,0,0,0,0,.34c0,.1,0,.19.06.27s0,.18,0,.31,0,.22,0,.31a1.81,1.81,0,0,0,0,.5,2.47,2.47,0,0,0,.07.38.3.3,0,0,1,0,.16.26.26,0,0,0,0,.13,1.75,1.75,0,0,1,.11.43q0,.16,0,.26a.55.55,0,0,0,0,.24.28.28,0,0,1,0,.12,4.7,4.7,0,0,1,0,.89c0,.29-.05.57-.09.87a.52.52,0,0,1,0,.21.41.41,0,0,0,0,.16,2.29,2.29,0,0,0,.07.52.86.86,0,0,1,0,.57.22.22,0,0,0,0,.17.73.73,0,0,1,0,.22l0,.18a.62.62,0,0,0,0,.21s0,.07,0,.15a1,1,0,0,0,0,.2.37.37,0,0,0,0,.18.37.37,0,0,1,0,.18.87.87,0,0,1,0,.27,2.37,2.37,0,0,0-.07.27c0,.13,0,.21,0,.24a.09.09,0,0,0,0,.1,1.76,1.76,0,0,1,0,.43c0,.2,0,.35,0,.43a1.87,1.87,0,0,0,0,.6,1.06,1.06,0,0,1,0,.6,1.24,1.24,0,0,1-.32.17.67.67,0,0,1-.42,0l-.21-.11a.67.67,0,0,0-.28-.06.94.94,0,0,0-.42,0,.72.72,0,0,1-.34,0,.38.38,0,0,1-.15-.1.11.11,0,0,0-.15,0c0-.13,0-.22,0-.26a.44.44,0,0,1-.12-.18.26.26,0,0,1,0-.18.22.22,0,0,0,0-.11.44.44,0,0,1-.06-.33.34.34,0,0,0-.09-.31.26.26,0,0,0-.18,0l-.14.09a1.9,1.9,0,0,0-.51.26,3.43,3.43,0,0,0-.42.35.81.81,0,0,1-.24,0,.34.34,0,0,0-.22.12,1.2,1.2,0,0,1-.28.06.33.33,0,0,0-.21.09,1,1,0,0,0-.48.07,1.1,1.1,0,0,1-.5.07h-.18a.19.19,0,0,1-.16-.11,1.26,1.26,0,0,1-.68.22,1.82,1.82,0,0,0-.71.17.29.29,0,0,1-.17,0,.24.24,0,0,0-.15,0q-.12,0-.15,0s-.09,0-.22,0l-.29-.06-.27-.09-.26,0h-.26l-.21,0-.18,0-.22,0-.24,0a1,1,0,0,1-.31,0l-.23,0-.12-.09-.1-.09a3.45,3.45,0,0,1-.44-.23,1.24,1.24,0,0,0-.37-.16l-.1-.12-.1-.12a.18.18,0,0,1-.09-.12.22.22,0,0,0-.06-.12,1.39,1.39,0,0,0-.21-.17,1.13,1.13,0,0,1-.23-.22,1,1,0,0,0-.21-.26l-.16-.13a.63.63,0,0,1-.1-.13l-.1-.16a.4.4,0,0,0-.15-.09.47.47,0,0,1-.17-.11.82.82,0,0,0-.09-.17.38.38,0,0,0-.16-.1.62.62,0,0,0-.18-.32.79.79,0,0,1-.21-.32.37.37,0,0,1,0-.17.55.55,0,0,0,0-.2,1.66,1.66,0,0,0-.2-.55,1.3,1.3,0,0,1-.17-.55.84.84,0,0,1,0-.27.81.81,0,0,0,0-.24,3.31,3.31,0,0,1,0-.46,1.34,1.34,0,0,1,0-.27V86.6l0-.23,0-.23q0-.24.09-.46a1.12,1.12,0,0,1,.16-.42,1.29,1.29,0,0,1,0-.32c0-.11,0-.22,0-.32a.76.76,0,0,1,.1-.27l.15-.27a.51.51,0,0,0,.07-.17.56.56,0,0,1,.07-.17c.08-.18.15-.35.21-.5a1.28,1.28,0,0,1,.21-.38,1.76,1.76,0,0,0,.17-.32.91.91,0,0,1,.21-.38,1.89,1.89,0,0,1,.33-.31.93.93,0,0,1,0-.15.7.7,0,0,0,0-.12l.17-.11.15-.13a.76.76,0,0,1,.17-.17l.1-.07a1.41,1.41,0,0,1,.27-.26.63.63,0,0,0,.17-.16c0-.1.09-.15.12-.16l.07,0c.15-.13.21-.2.2-.2a.77.77,0,0,1,.2-.13l.1,0A.27.27,0,0,1,127,80a.3.3,0,0,0,.17,0,.56.56,0,0,1,.18,0l.11,0,.24-.07.1,0a1.18,1.18,0,0,1,.33-.12l.38-.1.12-.06.12-.06a1.29,1.29,0,0,1,.35,0,.41.41,0,0,0,.31-.12.41.41,0,0,1,.28,0,.24.24,0,0,0,.23-.06l.42,0h.24a1.1,1.1,0,0,1,.65,0l.55.22a1.57,1.57,0,0,1,.36.13.88.88,0,0,0,.73.33l.38.22a1.14,1.14,0,0,1,.23.15l.14.12a1.19,1.19,0,0,1,.22.13l.12.11a.87.87,0,0,1,.16.15.2.2,0,0,0,.21.07.25.25,0,0,0,.14-.23,1.05,1.05,0,0,1,0-.28l0-.17,0-.17v-.16a.49.49,0,0,1,0-.16.85.85,0,0,0,.09-.17l.06-.17a.65.65,0,0,0,0-.33.23.23,0,0,1,.09-.28.89.89,0,0,1,0-.4c0-.12,0-.27,0-.45l0-.21a.34.34,0,0,0,0-.18.35.35,0,0,0,0-.13,1.25,1.25,0,0,1,0-.16.41.41,0,0,0,0-.21.53.53,0,0,1,0-.28.27.27,0,0,0,0-.21.18.18,0,0,1,0-.13,1.17,1.17,0,0,0,0-.49.4.4,0,0,1,.09-.34.69.69,0,0,1,0-.45.62.62,0,0,1,.2-.38,6.58,6.58,0,0,1,.71-.06l.73,0a.61.61,0,0,1,.32,0,1,1,0,0,1,.34.06.72.72,0,0,1,.23.12A1,1,0,0,1,137.71,74.95ZM134.5,85.13a1,1,0,0,0-.11-.21.39.39,0,0,1-.06-.23.3.3,0,0,1-.15-.22.82.82,0,0,0-.07-.24,1.18,1.18,0,0,0-.17-.21l-.07-.06a.74.74,0,0,1-.1-.29.54.54,0,0,1-.29-.24,1.09,1.09,0,0,0-.24-.29A.26.26,0,0,1,133,83a.49.49,0,0,0-.21-.16.77.77,0,0,0-.28-.1.39.39,0,0,1-.26-.15,1.45,1.45,0,0,1-.57-.2,1.33,1.33,0,0,0-.62-.17.39.39,0,0,1-.22-.1s0,0,0,0a.62.62,0,0,0-.32,0,1.38,1.38,0,0,1-.29.06h-.39a1.42,1.42,0,0,1-.29.09l-.15,0-.17.09-.15.09a.7.7,0,0,0-.23.06l-.11.09a3.35,3.35,0,0,1-.78.34.61.61,0,0,1-.2.23.46.46,0,0,0-.17.28.49.49,0,0,0-.27.18.43.43,0,0,1-.32.16,1.06,1.06,0,0,1-.16.35,1.63,1.63,0,0,0-.18.35c0,.18-.09.32-.13.43a1,1,0,0,0-.06.35,1.1,1.1,0,0,0-.22.43.24.24,0,0,1-.15.21.33.33,0,0,1,.09.28l-.09.28a1.32,1.32,0,0,0,0,.46,2.18,2.18,0,0,1,0,.34,1.3,1.3,0,0,1,0,.32.42.42,0,0,0,0,.27.91.91,0,0,0,.15.46.47.47,0,0,1,.07.39.6.6,0,0,1,.17.44,1,1,0,0,1,.39.34.76.76,0,0,1,.33.17.6.6,0,0,0,.35.15.73.73,0,0,1,.2.24.79.79,0,0,1,.29.1l.24.12a.47.47,0,0,0,.21.1l.11,0c.06,0,.12.07.16,0a.13.13,0,0,1,.11,0,.92.92,0,0,0,.37.07h.32l.36,0,.33,0a2.11,2.11,0,0,0,.49-.12l.34-.07.15,0a.89.89,0,0,1,.29,0,.42.42,0,0,0,.24,0,.35.35,0,0,0,.17-.12.38.38,0,0,1,.15-.12.44.44,0,0,0,.2-.09l0-.06a.79.79,0,0,0,.23-.13l.11-.09c.11,0,.18-.09.18-.13a.12.12,0,0,1,.06-.09l.12-.11.1-.09.13-.18.11-.13a.38.38,0,0,0,.15-.12l.1-.15c.11-.15.22-.3.32-.45a3.43,3.43,0,0,0,.24-.45c.08-.23.14-.38.18-.46l.11-.24a.34.34,0,0,1,0-.22l0-.07a.29.29,0,0,0,0-.17v-.22q0-.34,0-.6c0-.17,0-.32,0-.45a.33.33,0,0,1,0-.16S134.53,85.18,134.5,85.13Z"/><path class="cls-3" d="M154.15,86.6a2,2,0,0,0,0,.46.41.41,0,0,1,0,.27.31.31,0,0,1-.18.15.31.31,0,0,0-.18.15.83.83,0,0,0-.32,0,1,1,0,0,0-.29.06.63.63,0,0,0-.48-.12.71.71,0,0,1-.5-.12.61.61,0,0,1-.27.07,2.17,2.17,0,0,1-.72,0l-.77-.12-.56,0h-.51a2.1,2.1,0,0,1-.39,0,1.19,1.19,0,0,1-.35-.1.84.84,0,0,0-.36-.07.78.78,0,0,0-.31,0,1.36,1.36,0,0,1-.31,0,2.09,2.09,0,0,1-.39,0,1.11,1.11,0,0,1-.27,0h-.12l-.33,0a.3.3,0,0,1-.28-.12.62.62,0,0,1-.17.1,1,1,0,0,1-.27,0l-.18,0h-.11a.59.59,0,0,1-.28,0,.22.22,0,0,0-.21.07.21.21,0,0,0-.17,0,.21.21,0,0,1-.17,0,1.34,1.34,0,0,0-.51,0,1.71,1.71,0,0,1-.42,0,1.46,1.46,0,0,1-.38,0,1,1,0,0,0-.45,0,.9.9,0,0,0-.09.55,1.05,1.05,0,0,0,.18.52.31.31,0,0,1,0,.2.44.44,0,0,0,0,.2,2.62,2.62,0,0,0,.33.39,1.13,1.13,0,0,1,.21.24,2.07,2.07,0,0,0,.29.37,2.53,2.53,0,0,1,.32.39.48.48,0,0,0,.14.2.8.8,0,0,1,.16.2,1,1,0,0,1,.33.15l.33.22a1.75,1.75,0,0,1,.38.26.89.89,0,0,0,.28.18.38.38,0,0,0,.2,0,.31.31,0,0,1,.15,0,1,1,0,0,1,.27.17.63.63,0,0,0,.32.15,2.32,2.32,0,0,1,.39,0l.22,0a.94.94,0,0,0,.59-.15h.2l.19,0a.71.71,0,0,1,.33-.15.32.32,0,0,0,.18,0,.28.28,0,0,1,.14-.09l.11,0a1.07,1.07,0,0,0,.26-.12l.23-.17a2.18,2.18,0,0,0,.32-.22,1.38,1.38,0,0,0,.43-.42,2.53,2.53,0,0,1,.4-.46,1.82,1.82,0,0,1,.1-.49,1.6,1.6,0,0,1,.19-.37,1.21,1.21,0,0,1,.06-.43,1.55,1.55,0,0,1,.16-.31l.22,0a.45.45,0,0,1,.24,0l.14.09.18.09a.37.37,0,0,0,.16.06l.26.06a.73.73,0,0,0,.24.07l.15,0a.6.6,0,0,0,.35.07.53.53,0,0,1,.28,0,1.13,1.13,0,0,1,.32.29.91.91,0,0,1-.17.54.86.86,0,0,0-.11.33.51.51,0,0,1,0,.18.3.3,0,0,1-.07.12.3.3,0,0,0-.07.15,1.88,1.88,0,0,0-.07.28,1.06,1.06,0,0,1-.1.28q-.2.24-.31.35a.69.69,0,0,1-.23.16.13.13,0,0,1,0,.18l-.15.11a.63.63,0,0,1-.21.27l-.31.22a2.68,2.68,0,0,1-.4.29l-.4.24-.37.31a.71.71,0,0,1-.24.13l-.18.09-.09,0a.72.72,0,0,1-.27,0,.94.94,0,0,0-.29,0,3.09,3.09,0,0,1-.47.13l-.39.09-.22.07a.87.87,0,0,1-.29,0,.52.52,0,0,0-.37,0,.2.2,0,0,1-.24,0l-.45.1a.8.8,0,0,1-.33,0l-.15,0-.15,0-.75-.1a2.18,2.18,0,0,1-.5-.1l-.15,0s-.09,0-.12-.1a.66.66,0,0,1-.45-.06,1.37,1.37,0,0,1-.33-.23l-.13,0-.14,0-.34-.16a.6.6,0,0,1-.27-.28.36.36,0,0,1-.28-.1,1.68,1.68,0,0,0-.21-.2.61.61,0,0,1-.36-.11,1,1,0,0,1-.26-.26,3,3,0,0,0-.37-.39,5.69,5.69,0,0,1-.42-.45.78.78,0,0,0-.37-.26.61.61,0,0,0-.15-.24l-.2-.22a3.43,3.43,0,0,0-.17-.32l-.1-.12c0-.13-.06-.26-.09-.38s-.05-.25-.09-.38a1.68,1.68,0,0,1-.07-.39,1.29,1.29,0,0,0,0-.24l-.06-.15a1,1,0,0,1-.06-.15.82.82,0,0,1,0-.24,1.06,1.06,0,0,0,0-.27l0-.23a1,1,0,0,1,0-.23,2.63,2.63,0,0,1,0-.35,3,3,0,0,0,0-.38,1.08,1.08,0,0,0,0-.13,1,1,0,0,1,0-.13,1.14,1.14,0,0,1,.09-.26,1.18,1.18,0,0,0,.09-.26.61.61,0,0,1,0-.32.13.13,0,0,0,0-.15.31.31,0,0,0,.07-.13.72.72,0,0,1,0-.13.56.56,0,0,0,0-.17.59.59,0,0,1,0-.22,1.87,1.87,0,0,1,.16-.23l.06-.06a1.26,1.26,0,0,1,0-.23.35.35,0,0,1,.07-.11,2.93,2.93,0,0,1,.16-.29l.06-.1a.61.61,0,0,1,0-.22l0-.07A1.35,1.35,0,0,0,141,83a.89.89,0,0,1,.06-.23,2.35,2.35,0,0,1,.12-.26.78.78,0,0,1,.2-.23q.12-.29.22-.5l.2-.4a1.89,1.89,0,0,0,.38-.39,1.91,1.91,0,0,1,.38-.39.21.21,0,0,1,.11-.06l.16-.06.39-.31a1.08,1.08,0,0,1,.29-.18,1.79,1.79,0,0,1,.45-.06.52.52,0,0,0,.43-.18.76.76,0,0,0,.29-.06l.29-.13.22-.11a.63.63,0,0,1,.34,0,1.48,1.48,0,0,0,.33,0,2.11,2.11,0,0,0,.35-.06l.22,0,.27,0a4.62,4.62,0,0,0,.57,0l.48,0a1,1,0,0,0,.26,0,1.06,1.06,0,0,1,.28,0l.23,0,.23,0,.21,0h.06a.55.55,0,0,1,.21.09.94.94,0,0,0,.21.11.18.18,0,0,0,.13,0,.18.18,0,0,1,.14,0,1.67,1.67,0,0,1,.29.12l.32.1a.3.3,0,0,1,.2.22,1,1,0,0,1,.4.2,1.6,1.6,0,0,0,.26.2,1,1,0,0,1,.2.21.76.76,0,0,0,.22.21.43.43,0,0,0,.06.12.43.43,0,0,1,.06.15,1.37,1.37,0,0,1,.34.31.91.91,0,0,0,.42.28,1.25,1.25,0,0,0,.17.29.66.66,0,0,1,.12.34l.11.16.14.21a.62.62,0,0,0,.09.12.48.48,0,0,1,.09.15,4.93,4.93,0,0,0,.27.51l.14.17a.77.77,0,0,1,.13.22.79.79,0,0,1,0,.2.83.83,0,0,0,0,.2l.07.21a.79.79,0,0,0,0,.13,1,1,0,0,1,0,.38,1.44,1.44,0,0,0,0,.38c0,.1,0,.2,0,.31s0,.21,0,.31a1.64,1.64,0,0,0,0,.32Zm-3.5-2s0-.09,0-.17a.27.27,0,0,0-.13-.17q0-.17-.14-.21t0-.13a.59.59,0,0,0-.2-.12.16.16,0,0,1-.1-.2c-.08,0-.14,0-.16-.06a.21.21,0,0,0-.09-.11.59.59,0,0,1-.22-.24.46.46,0,0,0-.15-.2.16.16,0,0,0-.16,0c-.06,0-.09,0-.09-.11a.87.87,0,0,1-.6-.13,4,4,0,0,1-.4-.35,1.56,1.56,0,0,1-.49,0,2.82,2.82,0,0,0-.51,0,.6.6,0,0,0-.35-.11,1,1,0,0,1-.38-.06.13.13,0,0,1-.11-.11c0-.06-.05-.09-.14-.09a.39.39,0,0,1-.33,0,1.2,1.2,0,0,0-.35-.1,1.13,1.13,0,0,1-.42.16,2.91,2.91,0,0,0-.44.11.73.73,0,0,0-.27.23l-.22.26-.34.39c-.11.13-.22.26-.32.39a.34.34,0,0,1,0,.23.3.3,0,0,0,0,.21.62.62,0,0,0-.23.38c0,.17-.08.34-.11.5a1.59,1.59,0,0,0,.39,0l.47,0,.16,0h.16a2.68,2.68,0,0,1,.64-.06,9.36,9.36,0,0,0,1,0,.7.7,0,0,1,.43.06,1.29,1.29,0,0,1,.62-.1l.58,0a.49.49,0,0,0,.22,0,0,0,0,0,1,0,0,7.44,7.44,0,0,1,1.41,0A4.77,4.77,0,0,0,150.65,84.65Z"/><path class="cls-3" d="M170.09,93.56c0,.08,0,.13-.06.15a.21.21,0,0,0-.14.12.23.23,0,0,0-.06.13.1.1,0,0,1-.11.09.6.6,0,0,0-.22,0,.11.11,0,0,1-.1,0,.27.27,0,0,1-.15,0,.54.54,0,0,0-.2-.07,1.54,1.54,0,0,0-.48,0,2.22,2.22,0,0,1-.45,0L168,94l-.16,0h-.47a1.89,1.89,0,0,1-.47,0l-.18-.07a.29.29,0,0,0-.21,0,.23.23,0,0,0-.11-.17.23.23,0,0,1-.11-.17.77.77,0,0,1,0-.46.78.78,0,0,0,0-.46,1.36,1.36,0,0,0,.17-.54.75.75,0,0,1,0-.23c0-.07,0-.13,0-.16a.8.8,0,0,0,0-.37,2.29,2.29,0,0,1,0-.46,4.93,4.93,0,0,0,0-.5v-.57a3.21,3.21,0,0,0,0-.38l0-.21a.61.61,0,0,0,0-.28.21.21,0,0,1,0-.11.85.85,0,0,0,0-.34,1.6,1.6,0,0,1-.06-.2.35.35,0,0,1,0-.13.37.37,0,0,0,0-.13,2.52,2.52,0,0,0,0-.4l0-.26a.94.94,0,0,1,0-.21.13.13,0,0,0-.1-.16.52.52,0,0,0,0-.27,2.39,2.39,0,0,1,0-.39v-.2a1.14,1.14,0,0,1,0-.21v-.06l-.06-.23a2.51,2.51,0,0,0-.09-.26.48.48,0,0,0,0-.28l-.09-.28a.65.65,0,0,0-.09-.23.31.31,0,0,1-.06-.09q-.15-.37-.26-.67a3.22,3.22,0,0,1-.16-.7,2.75,2.75,0,0,0-.26-.27.8.8,0,0,1-.21-.32l-.45-.26a1,1,0,0,0-.6-.06.49.49,0,0,0-.17,0l-.2.06-.36.11a1.24,1.24,0,0,0-.33.13.44.44,0,0,1-.21.12.12.12,0,0,0-.09,0,.39.39,0,0,0-.12.13.66.66,0,0,1-.1.13l-.16.21-.09.11-.15.18a.67.67,0,0,1-.2.16.16.16,0,0,1-.07.15.45.45,0,0,0-.12.12c0,.1-.06.16-.1.17l-.07,0a1.21,1.21,0,0,0-.12.29.37.37,0,0,1-.2.24.86.86,0,0,1-.1.34,1.28,1.28,0,0,1-.2.24.61.61,0,0,1-.12.49,1.19,1.19,0,0,0-.24.37c0,.18-.06.32-.09.43a2,2,0,0,1-.09.28,1.26,1.26,0,0,0-.07.26.54.54,0,0,1-.1.23,1.3,1.3,0,0,1-.07.66,3,3,0,0,0-.17.68.37.37,0,0,0,0,.17.4.4,0,0,1,0,.17c0,.15,0,.32,0,.53s0,.4,0,.57a.7.7,0,0,0,0,.12.92.92,0,0,1,0,.15,1.45,1.45,0,0,1,0,.33,1.47,1.47,0,0,0,0,.33.47.47,0,0,0,0,.26.47.47,0,0,1,0,.26,1.65,1.65,0,0,0,0,.34,1.45,1.45,0,0,0,0,.22c0,.07,0,.13,0,.18a.19.19,0,0,0,.09.13.87.87,0,0,0,0,.42,1.23,1.23,0,0,0,.15.35.34.34,0,0,1,0,.38.54.54,0,0,1-.56.21,3.47,3.47,0,0,0-.78,0l-.34,0-.29,0-.34,0a.7.7,0,0,1-.32,0,.33.33,0,0,1-.15,0,.46.46,0,0,1-.12-.09.8.8,0,0,1-.24-.12.41.41,0,0,1-.06-.26.89.89,0,0,0,0-.26.41.41,0,0,0,0-.16.46.46,0,0,1,0-.18,3.27,3.27,0,0,1,0-.39l0-.39a2.3,2.3,0,0,1,0-.35,2,2,0,0,0,0-.31c0-.08,0-.17,0-.27a.33.33,0,0,1,.11-.27c0-.13-.06-.22,0-.26a.21.21,0,0,0,0-.09,1.39,1.39,0,0,0,0-.32v-.83l0-.49c0-.16,0-.35,0-.56a.62.62,0,0,0,0-.2.39.39,0,0,1,0-.12.49.49,0,0,0,0-.28.4.4,0,0,1,0-.16,2.29,2.29,0,0,1,0-.44l0-.13,0-.13a.56.56,0,0,1,0-.27.39.39,0,0,0,0-.12c0-.13,0-.28-.06-.44a.91.91,0,0,1,.09-.51l-.1-.27a.21.21,0,0,1,.07-.24l-.1-.23a.7.7,0,0,1,0-.28,2.76,2.76,0,0,0,0-.68.74.74,0,0,1,.09-.51.66.66,0,0,1-.07-.48,2.24,2.24,0,0,0,0-.57l0-.15a.48.48,0,0,1,0-.15,1.07,1.07,0,0,1,0-.39,1.35,1.35,0,0,0,0-.37,2.55,2.55,0,0,1-.15-.65,1.85,1.85,0,0,0-.1-.5.32.32,0,0,0,.11-.12l.09-.15a1.07,1.07,0,0,1,.4,0,.35.35,0,0,1,.31.17.31.31,0,0,1,.26-.07l.28,0h.61l.44,0h.39l.12.12a.57.57,0,0,1,.1.15,1.61,1.61,0,0,1,.16.62q0,.4.09.75.12,0,.14-.07a.24.24,0,0,1,.06-.15l.24-.15a1.31,1.31,0,0,0,.24-.2l.16-.06a.27.27,0,0,1,.18,0,.39.39,0,0,0,.12-.13.6.6,0,0,1,.1-.13.65.65,0,0,0,.29-.2l.15,0a.11.11,0,0,0,.1-.12.41.41,0,0,0,.26-.09l.23-.16a2,2,0,0,0,.32-.18l.12-.09a.24.24,0,0,1,.14,0,.6.6,0,0,0,.21,0l.29-.07.34-.07.17,0,.24,0h.19a1.12,1.12,0,0,0,.39.07l.32,0a2.34,2.34,0,0,0,.43.12l.28,0a.57.57,0,0,0,.27.12l.31.11a.88.88,0,0,1,.23.18l.1.11a.21.21,0,0,1,0,.13l.28.22a2.44,2.44,0,0,1,.28.24.32.32,0,0,1,.07.12.31.31,0,0,0,.07.12.73.73,0,0,0,.16.12.78.78,0,0,1,.16.12.38.38,0,0,1,.12.15.22.22,0,0,0,.15.12.35.35,0,0,0,.13.28.6.6,0,0,1,.18.23.91.91,0,0,1,.06.26.42.42,0,0,0,.14.26,1.07,1.07,0,0,0,.13.42q.11.2.21.42a1.59,1.59,0,0,1,.07.23,1.37,1.37,0,0,0,.07.23l.07.21a1,1,0,0,0,.07.18,1.76,1.76,0,0,1,.07.35.49.49,0,0,0,0,.16,3.48,3.48,0,0,1,.29.88q0,.24.07.32a.39.39,0,0,1,0,.12,1.11,1.11,0,0,1,0,.22,1.18,1.18,0,0,0,0,.22.83.83,0,0,0,0,.2.79.79,0,0,1,0,.2.34.34,0,0,1,0,.18.46.46,0,0,0,0,.21,4,4,0,0,0,.07.4l.1.4c0,.08,0,.14,0,.17a.18.18,0,0,0-.06.15,1.42,1.42,0,0,1,.09.22c0,.08,0,.16.06.24a.39.39,0,0,1,0,.12.45.45,0,0,0,0,.15,2.2,2.2,0,0,0,0,.32.31.31,0,0,1-.12.29,1.27,1.27,0,0,1,.15.51,1.16,1.16,0,0,1-.07.54c0,.08,0,.13,0,.13s.07.05,0,.13a.52.52,0,0,0-.06.35.76.76,0,0,1,0,.35.36.36,0,0,1,0,.18.31.31,0,0,0,0,.16.2.2,0,0,0,0,.21.18.18,0,0,1,0,.23.53.53,0,0,0,.09.21.41.41,0,0,1,0,.31.31.31,0,0,0,.12.11l.15.09c0,.11,0,.18,0,.21S170.09,93.47,170.09,93.56Z"/><path class="cls-3" d="M176.25,75.8s0,.15,0,.34a1.62,1.62,0,0,1-.07.42.44.44,0,0,1-.07.13l-.1.11a1.44,1.44,0,0,1-.15.46,2.35,2.35,0,0,0-.15.29,1,1,0,0,0-.23.13,1,1,0,0,1-.23.13l-.49.18a1,1,0,0,1-.39.09.37.37,0,0,1-.17,0l-.15-.06-.24,0-.24,0a2.43,2.43,0,0,0-.28-.4,1.12,1.12,0,0,1-.23-.45,2.46,2.46,0,0,0-.22-.24.84.84,0,0,0-.07-.35.83.83,0,0,1-.07-.35,1.14,1.14,0,0,1,.1-.39c0-.08,0-.16,0-.24a.53.53,0,0,1,0-.17,1.13,1.13,0,0,1,.24-.23.31.31,0,0,0,.12-.11.67.67,0,0,0,.1-.22.21.21,0,0,1,0-.1.79.79,0,0,1,.21-.18l.26-.16a.45.45,0,0,1,.32-.09,3,3,0,0,0,.47,0,.52.52,0,0,0,.32.27.62.62,0,0,1,.34.27l.24.06a.22.22,0,0,1,.1.06,1.72,1.72,0,0,1,.61.78Zm.07,4.23c0,.16-.06.32-.09.48a2.19,2.19,0,0,0,0,.52.62.62,0,0,0,0,.22.62.62,0,0,1,0,.22,1.39,1.39,0,0,1,0,.35,1.43,1.43,0,0,0,0,.38v.35a2.81,2.81,0,0,0,0,.35.26.26,0,0,0,0,.13s0,.07,0,.13a1.67,1.67,0,0,0-.07.88,7.13,7.13,0,0,1,.07,1c0,.16,0,.33-.07.49a4.53,4.53,0,0,0-.07.51c0,.38-.05.75-.06,1.11s0,.73-.06,1.09a1.22,1.22,0,0,0,0,.31,1.07,1.07,0,0,1,0,.28c0,.23,0,.45-.06.66s-.05.42-.09.61a1.83,1.83,0,0,0,0,.43,3.59,3.59,0,0,1,0,.43,1.65,1.65,0,0,0,0,.22,1.86,1.86,0,0,1,0,.22l0,.18a.79.79,0,0,1,0,.21.67.67,0,0,0,0,.16V92a.1.1,0,0,0,0,.07.51.51,0,0,0,0,.26.31.31,0,0,1,0,.11l-.06.16a.53.53,0,0,0,0,.21,1.92,1.92,0,0,0,0,.38.86.86,0,0,1,0,.38l-.32.16a.55.55,0,0,1-.42,0,.24.24,0,0,1-.15-.2.43.43,0,0,0-.12-.24,1.57,1.57,0,0,1-.33-.07,1.44,1.44,0,0,1-.26-.12.38.38,0,0,1-.26,0l-.33-.06a1.52,1.52,0,0,0-.37,0,.61.61,0,0,1-.27,0,.7.7,0,0,1-.16-.35.3.3,0,0,0-.11-.23,1.51,1.51,0,0,0,.12-.39,1.06,1.06,0,0,0,0-.45,1.55,1.55,0,0,1,0-.72,2.06,2.06,0,0,0,0-.29,1.22,1.22,0,0,1,0-.24.77.77,0,0,1,0-.23l0-.09c0-.28,0-.56,0-.86s0-.5,0-.63a1,1,0,0,1,0-.18,1,1,0,0,0,0-.18,8.31,8.31,0,0,1,0-.84,4.46,4.46,0,0,0,0-.75,1.9,1.9,0,0,1,0-.49,2.66,2.66,0,0,0,0-.44,1.8,1.8,0,0,0,0-.48.64.64,0,0,1,.09-.43.92.92,0,0,1-.06-.49,3.12,3.12,0,0,0,0-.46v-.37a2.91,2.91,0,0,1,0-.37,1.5,1.5,0,0,0,0-.26.45.45,0,0,1,0-.26c0-.18,0-.31,0-.38s0-.13,0-.16a.38.38,0,0,0,0-.17.33.33,0,0,1,0-.15,1,1,0,0,1,0-.17.31.31,0,0,0,0-.15c0-.2-.05-.33-.06-.4a.42.42,0,0,1,0-.18.17.17,0,0,0-.15-.15.23.23,0,0,1-.17-.12c0-.13-.07-.27-.1-.43a.32.32,0,0,1,.12-.35.48.48,0,0,1,.23,0l.28,0a.31.31,0,0,0,.2,0,.11.11,0,0,1,.1,0l.16.06.18.06a3.27,3.27,0,0,0,.56,0l.62-.06.55,0a.55.55,0,0,1,.34.06.15.15,0,0,1,.07.13A.1.1,0,0,0,176.33,80Z"/><path class="cls-3" d="M193.26,93.56c0,.08,0,.13-.06.15a.21.21,0,0,0-.14.12A.23.23,0,0,0,193,94a.1.1,0,0,1-.11.09.6.6,0,0,0-.22,0,.11.11,0,0,1-.1,0,.27.27,0,0,1-.15,0,.54.54,0,0,0-.2-.07,1.54,1.54,0,0,0-.48,0,2.22,2.22,0,0,1-.45,0l-.16,0L191,94h-.47a1.89,1.89,0,0,1-.47,0l-.18-.07a.29.29,0,0,0-.21,0,.23.23,0,0,0-.11-.17.23.23,0,0,1-.11-.17.77.77,0,0,1,0-.46.78.78,0,0,0,0-.46,1.36,1.36,0,0,0,.17-.54.75.75,0,0,1,0-.23c0-.07,0-.13,0-.16a.8.8,0,0,0,0-.37,2.29,2.29,0,0,1,0-.46,4.93,4.93,0,0,0,0-.5v-.57a3.21,3.21,0,0,0,0-.38l0-.21a.61.61,0,0,0,0-.28.21.21,0,0,1,0-.11.85.85,0,0,0,0-.34,1.6,1.6,0,0,1-.06-.2.35.35,0,0,1,0-.13.37.37,0,0,0,0-.13,2.52,2.52,0,0,0,0-.4l0-.26a.94.94,0,0,1,0-.21.13.13,0,0,0-.1-.16.52.52,0,0,0,0-.27,2.39,2.39,0,0,1,0-.39v-.2a1.14,1.14,0,0,1,0-.21v-.06l-.06-.23a2.51,2.51,0,0,0-.09-.26.48.48,0,0,0,0-.28l-.09-.28a.65.65,0,0,0-.09-.23.31.31,0,0,1-.06-.09q-.15-.37-.26-.67a3.22,3.22,0,0,1-.16-.7,2.75,2.75,0,0,0-.26-.27.8.8,0,0,1-.21-.32l-.45-.26a1,1,0,0,0-.6-.06.49.49,0,0,0-.17,0l-.2.06-.36.11a1.24,1.24,0,0,0-.33.13.44.44,0,0,1-.21.12.12.12,0,0,0-.09,0,.39.39,0,0,0-.12.13.66.66,0,0,1-.1.13l-.16.21-.09.11-.15.18a.67.67,0,0,1-.2.16.16.16,0,0,1-.07.15.45.45,0,0,0-.12.12c0,.1-.06.16-.1.17l-.07,0a1.21,1.21,0,0,0-.12.29.37.37,0,0,1-.2.24.86.86,0,0,1-.1.34,1.28,1.28,0,0,1-.2.24.61.61,0,0,1-.12.49,1.19,1.19,0,0,0-.24.37c0,.18-.06.32-.09.43a2,2,0,0,1-.09.28,1.26,1.26,0,0,0-.07.26.54.54,0,0,1-.1.23,1.3,1.3,0,0,1-.07.66,3,3,0,0,0-.17.68.37.37,0,0,0,0,.17.4.4,0,0,1,0,.17c0,.15,0,.32,0,.53s0,.4,0,.57a.7.7,0,0,0,0,.12.92.92,0,0,1,0,.15,1.45,1.45,0,0,1,0,.33,1.47,1.47,0,0,0,0,.33.47.47,0,0,0,0,.26.47.47,0,0,1,0,.26,1.65,1.65,0,0,0,0,.34,1.45,1.45,0,0,0,0,.22c0,.07,0,.13,0,.18a.19.19,0,0,0,.09.13.87.87,0,0,0,0,.42,1.23,1.23,0,0,0,.15.35.34.34,0,0,1,0,.38.54.54,0,0,1-.56.21,3.47,3.47,0,0,0-.78,0l-.34,0-.29,0-.34,0a.7.7,0,0,1-.32,0,.33.33,0,0,1-.15,0,.46.46,0,0,1-.12-.09.8.8,0,0,1-.24-.12.41.41,0,0,1-.06-.26.89.89,0,0,0,0-.26.41.41,0,0,0,0-.16.46.46,0,0,1,0-.18,3.27,3.27,0,0,1,0-.39l0-.39a2.3,2.3,0,0,1,0-.35,2,2,0,0,0,0-.31c0-.08,0-.17,0-.27a.33.33,0,0,1,.11-.27c0-.13-.06-.22,0-.26a.21.21,0,0,0,0-.09,1.39,1.39,0,0,0,0-.32v-.83l0-.49c0-.16,0-.35,0-.56a.62.62,0,0,0,0-.2.39.39,0,0,1,0-.12.49.49,0,0,0,0-.28.4.4,0,0,1,0-.16,2.29,2.29,0,0,1,0-.44l0-.13,0-.13a.56.56,0,0,1,0-.27.39.39,0,0,0,0-.12c0-.13,0-.28-.06-.44a.91.91,0,0,1,.09-.51l-.1-.27a.21.21,0,0,1,.07-.24l-.1-.23a.7.7,0,0,1,0-.28,2.76,2.76,0,0,0,0-.68.74.74,0,0,1,.09-.51.66.66,0,0,1-.07-.48,2.24,2.24,0,0,0,0-.57l0-.15a.48.48,0,0,1,0-.15,1.07,1.07,0,0,1,0-.39,1.35,1.35,0,0,0,0-.37,2.55,2.55,0,0,1-.15-.65,1.85,1.85,0,0,0-.1-.5.32.32,0,0,0,.11-.12l.09-.15a1.07,1.07,0,0,1,.4,0,.35.35,0,0,1,.31.17.31.31,0,0,1,.26-.07l.28,0h.61l.44,0h.39l.12.12a.57.57,0,0,1,.1.15,1.61,1.61,0,0,1,.16.62q0,.4.09.75.12,0,.14-.07a.24.24,0,0,1,.06-.15l.24-.15a1.31,1.31,0,0,0,.24-.2l.16-.06a.27.27,0,0,1,.18,0,.39.39,0,0,0,.12-.13.6.6,0,0,1,.1-.13.65.65,0,0,0,.29-.2l.15,0a.11.11,0,0,0,.1-.12.41.41,0,0,0,.26-.09l.23-.16a2,2,0,0,0,.32-.18l.12-.09a.24.24,0,0,1,.14,0,.6.6,0,0,0,.21,0l.29-.07.34-.07.17,0,.24,0h.19a1.12,1.12,0,0,0,.39.07l.32,0a2.34,2.34,0,0,0,.43.12l.28,0a.57.57,0,0,0,.27.12l.31.11a.88.88,0,0,1,.23.18l.1.11a.21.21,0,0,1,0,.13l.28.22a2.44,2.44,0,0,1,.28.24.32.32,0,0,1,.07.12.31.31,0,0,0,.07.12.73.73,0,0,0,.16.12.78.78,0,0,1,.16.12.38.38,0,0,1,.12.15.22.22,0,0,0,.15.12.35.35,0,0,0,.13.28.6.6,0,0,1,.18.23.91.91,0,0,1,.06.26.42.42,0,0,0,.14.26,1.07,1.07,0,0,0,.13.42q.11.2.21.42a1.59,1.59,0,0,1,.07.23,1.37,1.37,0,0,0,.07.23l.07.21a1,1,0,0,0,.07.18,1.76,1.76,0,0,1,.07.35.49.49,0,0,0,0,.16,3.48,3.48,0,0,1,.29.88q0,.24.07.32a.39.39,0,0,1,0,.12,1.11,1.11,0,0,1,0,.22,1.18,1.18,0,0,0,0,.22.83.83,0,0,0,0,.2.79.79,0,0,1,0,.2.34.34,0,0,1,0,.18.46.46,0,0,0,0,.21,4,4,0,0,0,.07.4l.1.4c0,.08,0,.14,0,.17a.18.18,0,0,0-.06.15,1.42,1.42,0,0,1,.09.22c0,.08,0,.16.06.24a.39.39,0,0,1,0,.12.45.45,0,0,0,0,.15,2.2,2.2,0,0,0,0,.32.31.31,0,0,1-.12.29,1.27,1.27,0,0,1,.15.51,1.16,1.16,0,0,1-.07.54c0,.08,0,.13,0,.13s.07.05,0,.13a.52.52,0,0,0-.06.35.76.76,0,0,1,0,.35.36.36,0,0,1,0,.18.31.31,0,0,0,0,.16.2.2,0,0,0,0,.21.18.18,0,0,1,0,.23.53.53,0,0,0,.09.21.41.41,0,0,1,0,.31.31.31,0,0,0,.12.11l.15.09c0,.11,0,.18,0,.21S193.26,93.47,193.26,93.56Z"/><path class="cls-3" d="M210.4,79.44a3,3,0,0,1,0,.53,2.27,2.27,0,0,1-.07.55,2,2,0,0,0,0,.33.28.28,0,0,1,0,.16,2,2,0,0,0-.06.55,1.25,1.25,0,0,1,0,.4,1.64,1.64,0,0,1-.07.59c0,.15-.07.29-.11.44a3.35,3.35,0,0,1-.18.49,1.84,1.84,0,0,1,0,.73,1.87,1.87,0,0,1-.06.2,1.69,1.69,0,0,0-.06.2.2.2,0,0,0,0,.12.3.3,0,0,1,0,.15,1.62,1.62,0,0,0,0,.33v.18q0,.42-.06.64c0,.15-.05.29-.09.42a3.5,3.5,0,0,1-.17.76.8.8,0,0,0,.06.17,1.16,1.16,0,0,1,.06.15.51.51,0,0,1,0,.29,1.1,1.1,0,0,1,.1.2.62.62,0,0,1,0,.24,1.42,1.42,0,0,1,0,.34,1.12,1.12,0,0,0,0,.27.46.46,0,0,0,0,.18,1.28,1.28,0,0,1,.06.18,1.4,1.4,0,0,1,0,.42,1.16,1.16,0,0,1-.09.39,3.82,3.82,0,0,1,.09.79,6.6,6.6,0,0,1,0,.92,1.08,1.08,0,0,0-.06.42,1.87,1.87,0,0,1,0,.37,1.09,1.09,0,0,1,0,.17l0,.17a.65.65,0,0,0,0,.18.69.69,0,0,1,0,.18,1.76,1.76,0,0,1-.17.42.9.9,0,0,1-.07.22,1,1,0,0,0-.07.2,1,1,0,0,0,0,.33,1.29,1.29,0,0,1,0,.35.42.42,0,0,0-.09.13.18.18,0,0,1-.11.11,1.54,1.54,0,0,1,0,.37,2.79,2.79,0,0,0-.28.27.83.83,0,0,1-.35.22.18.18,0,0,1-.1.17.36.36,0,0,0-.15.12.21.21,0,0,0-.06.12.22.22,0,0,1-.06.12.16.16,0,0,0-.12.12.32.32,0,0,1-.07.15l-.89.45a3.62,3.62,0,0,0-.8.53.71.71,0,0,0-.37.07l-.23,0-.26.06-.34.09-.17.06a.72.72,0,0,1-.27,0h-.83a.33.33,0,0,1-.15,0l-.12,0a3.13,3.13,0,0,1-.68.1l-.56,0a.4.4,0,0,0-.16,0,.41.41,0,0,1-.16,0l-.13,0-.14,0H201l-.17,0-.12,0-.24,0-.24,0a1.52,1.52,0,0,0-.37,0,.3.3,0,0,0-.17,0,.34.34,0,0,1-.15,0l-.16-.1-.18-.12a.47.47,0,0,0-.18,0,.42.42,0,0,1-.21,0,1.57,1.57,0,0,1-.29-.1l-.29-.15-.26-.15-.26-.17-.1-.11-.1-.11-.21-.17-.11-.07a.66.66,0,0,0-.16-.16.11.11,0,0,1-.06-.06l-.16-.17a.77.77,0,0,1-.13-.22,1.1,1.1,0,0,0-.21-.34.53.53,0,0,1-.14-.17,3.35,3.35,0,0,1-.22-1q0-.53-.07-1a.53.53,0,0,1,.38-.22l.5-.07.23-.11a.26.26,0,0,1,.23,0,.53.53,0,0,1,.17-.07l.2-.07.22,0,.19,0a.4.4,0,0,1,.22.1l.17.2.2.29.17.22.21.27a.62.62,0,0,0,.13.12l.31.21.21.11.18.11.11.06.33.26a.75.75,0,0,0,.45.13.57.57,0,0,0,.21.17l.23.12.17.06a.37.37,0,0,1,.15.06.89.89,0,0,0,.17.15l.1,0a1.69,1.69,0,0,0,.43.18,1.16,1.16,0,0,0,.55,0,1.16,1.16,0,0,1,.39,0,.3.3,0,0,0,.17,0,1.37,1.37,0,0,0,.36,0l.35-.1.16,0a.37.37,0,0,0,.16-.1c.11,0,.18-.07.2-.1s0,0,0,0a2,2,0,0,0,.5-.33,1.55,1.55,0,0,1,.33-.26.74.74,0,0,1,.17-.33,1.7,1.7,0,0,0,.22-.31.82.82,0,0,1,.12-.2l0,0a.26.26,0,0,1,.09-.18l.11-.09a3,3,0,0,0,.17-.54l.1-.12.1-.15a.81.81,0,0,1,0-.42,1,1,0,0,1,.16-.37.15.15,0,0,1,0-.13,1.55,1.55,0,0,0,0-.21.2.2,0,0,0-.24.09,1,1,0,0,1-.2.21l-.23.16a.94.94,0,0,1-.23.13,1.54,1.54,0,0,0-.31.15,1.28,1.28,0,0,1-.23.12.22.22,0,0,1-.12.06l-.17.06-.21.12a1.25,1.25,0,0,1-.23.12.87.87,0,0,1-.24.06,1.28,1.28,0,0,0-.27.06l-.29,0-.37,0H203l-.51,0a.58.58,0,0,1-.42-.2c-.1,0-.14,0-.14.09s0,.09-.16.06a2.64,2.64,0,0,1-.75-.1,5.93,5.93,0,0,1-.62-.22l-.32-.12a.44.44,0,0,0-.2,0,.3.3,0,0,1-.17,0,.87.87,0,0,0-.24-.12.14.14,0,0,1-.1-.2,1,1,0,0,0-.31-.11.61.61,0,0,1-.21-.06l-.27-.2-.2-.15-.29-.29-.13-.16a.29.29,0,0,0-.18-.11.19.19,0,0,0-.07-.17.16.16,0,0,1-.07-.15l-.17-.18-.17-.18a.4.4,0,0,0-.15-.16.46.46,0,0,1-.12-.09,1.58,1.58,0,0,0-.23-.2.39.39,0,0,1-.13-.12.85.85,0,0,0-.13-.31.42.42,0,0,1-.09-.11l-.13-.21a1.3,1.3,0,0,1-.11-.18l-.07-.21a.34.34,0,0,0-.07-.11,1.57,1.57,0,0,0-.13-.26.55.55,0,0,1-.09-.31l-.1-.11-.12-.16a.77.77,0,0,1-.12-.28,1.24,1.24,0,0,0-.07-.26,1.15,1.15,0,0,0-.06-.18L195.3,87a.33.33,0,0,1,0-.16.49.49,0,0,0,0-.18q0-.27-.07-.37a.79.79,0,0,1,0-.2,1.64,1.64,0,0,0-.06-.26s0-.05.06-.13a.7.7,0,0,0,0-.33,1.3,1.3,0,0,1,0-.4.41.41,0,0,1,.07-.13.89.89,0,0,0,.1-.16.47.47,0,0,0,0-.23.27.27,0,0,1,0-.18.73.73,0,0,0,.14-.2.22.22,0,0,1,.06-.1.94.94,0,0,1,.17-.22,1.9,1.9,0,0,1,.06-.46,1.21,1.21,0,0,1,.18-.42v-.29a.65.65,0,0,0,.12-.17l.1-.2.21-.43a2.49,2.49,0,0,1,.26-.43c.06-.11.11-.17.13-.18l.06,0a2.05,2.05,0,0,0,.32-.34,1.12,1.12,0,0,1,.22-.24l.18-.09.21-.09.13-.18a.21.21,0,0,1,.18-.09,1.34,1.34,0,0,1,.39-.42.85.85,0,0,1,.26-.12l.28-.1a.8.8,0,0,1,.27-.11l.17,0a2,2,0,0,1,.59-.23,1.21,1.21,0,0,0,.49-.21,1.05,1.05,0,0,0,.55-.1,2.1,2.1,0,0,1,.53-.17h.32l.33,0a.32.32,0,0,1,.28.16.22.22,0,0,1,.15-.12l.2-.07a2.37,2.37,0,0,0,.54,0,2.16,2.16,0,0,1,.51,0,1.59,1.59,0,0,1,.43.15.85.85,0,0,0,.4.1,2,2,0,0,0,.33.2l.36.2.28.17.28.2a1.25,1.25,0,0,0,.24.21l.12,0a.66.66,0,0,0,.17.32l.24.24a.67.67,0,0,0,.06-.24.93.93,0,0,1,.06-.27l-.09-.16a.46.46,0,0,1,0-.26c0-.2,0-.32.12-.37a.54.54,0,0,1,.32-.06,1.68,1.68,0,0,1,.44.1,2.16,2.16,0,0,0,.54.11l.51,0,.54,0,.23-.07a.32.32,0,0,1,.21,0,.72.72,0,0,1,.28.15A.5.5,0,0,0,210.4,79.44ZM207,86.38a1.38,1.38,0,0,0,0-.31c0-.07,0-.16,0-.26l0-.18a.44.44,0,0,1,0-.21.3.3,0,0,1-.11-.23.51.51,0,0,0-.06-.23,1.72,1.72,0,0,1-.09-.27.19.19,0,0,0,0-.1.41.41,0,0,0-.18-.17.21.21,0,0,1-.11-.22l-.29-.17a.49.49,0,0,1-.2-.22,3.09,3.09,0,0,0-.37-.46,2.89,2.89,0,0,0-.34-.29,1.29,1.29,0,0,0-.34-.2l-.27-.1a.57.57,0,0,1-.12-.2l-.1-.27a2,2,0,0,1-.4-.11l-.4-.13-.32,0L203,82h-.24a.82.82,0,0,1-.24,0l-.24,0-.24,0a1.63,1.63,0,0,1-.48,0,1.12,1.12,0,0,0-.33,0,.85.85,0,0,0-.33.12.63.63,0,0,1-.33.1.32.32,0,0,1-.13.17l-.18.12a2.74,2.74,0,0,1-.37.2.53.53,0,0,0-.27.27,1.15,1.15,0,0,1-.23.17.16.16,0,0,0-.09.07.79.79,0,0,1-.15.24l-.12.12a.2.2,0,0,1-.07.23l-.17.16a1.53,1.53,0,0,1-.07.39.52.52,0,0,0-.15.22,1,1,0,0,1-.07.2,1.4,1.4,0,0,0-.16.68q0,.34,0,.66a.62.62,0,0,0,0,.28.51.51,0,0,1,0,.13c0,.15,0,.27,0,.38a.82.82,0,0,0,.06.35,1.67,1.67,0,0,1,.07.2c0,.1.06.15.07.15a1.1,1.1,0,0,0,.17.27,1,1,0,0,1,.15.2,1.57,1.57,0,0,1,.16.31c0,.11.08.22.11.33l.18.2a.71.71,0,0,1,.14.24,3.21,3.21,0,0,1,.43.24l.26.17a3.59,3.59,0,0,1,.42.26,1.18,1.18,0,0,0,.27.16,2.5,2.5,0,0,0,.86.17.19.19,0,0,0,.14,0l.13,0a6.82,6.82,0,0,0,1,0l.64-.07.5-.09a1.18,1.18,0,0,0,.4-.13.84.84,0,0,1,.32-.18.39.39,0,0,0,.17-.06,2,2,0,0,0,.32-.18l.15-.11a1.75,1.75,0,0,1,.28-.2.38.38,0,0,0,.18-.24l.16-.09a.4.4,0,0,0,.16-.13.65.65,0,0,0,.12-.29.3.3,0,0,1,0-.17l.1-.13.1-.13a.78.78,0,0,0,.07-.13l0-.13a.53.53,0,0,1,.12-.28.18.18,0,0,0,0-.18,3,3,0,0,1,.11-.35A3.29,3.29,0,0,0,207,86.38Z"/><path class="cls-3" d="M227.7,93.83c0,.16-.09.23-.27.2a.16.16,0,0,0,0,.16.13.13,0,0,1-.1.16.75.75,0,0,1-.43,0,.85.85,0,0,1-.35-.15,3.6,3.6,0,0,0-1.22,0,4.93,4.93,0,0,1-1.25,0c-.11-.11-.17-.15-.16-.11s0,.05-.11,0a.45.45,0,0,1-.17-.27,1.9,1.9,0,0,1,0-.32V93.1a3,3,0,0,0,0-.38v-.4q0-.42,0-1a1.62,1.62,0,0,1,.17-1,.38.38,0,0,1-.06-.37,2.92,2.92,0,0,0,.09-.44,1.26,1.26,0,0,0,0-.28.29.29,0,0,1,.09-.28.3.3,0,0,1-.09-.29c0-.11,0-.24.06-.37a.65.65,0,0,0,0-.18.14.14,0,0,1,.07-.16,1.78,1.78,0,0,0-.09-.37.86.86,0,0,1,0-.44.64.64,0,0,1,0-.13.51.51,0,0,0,0-.18.63.63,0,0,1,0-.24.79.79,0,0,0,0-.12,1.21,1.21,0,0,0,0-.24,1.49,1.49,0,0,1,0-.29,1.36,1.36,0,0,0,0-.27.73.73,0,0,0,0-.23,2,2,0,0,1-.06-.23,3.1,3.1,0,0,0,0-.64c0-.16-.05-.34-.09-.54s0-.25,0-.4a2.28,2.28,0,0,1,0-.48,1.21,1.21,0,0,0,0-.4q0-.13-.06-.28a1.29,1.29,0,0,1,0-.24V82a.74.74,0,0,1,0-.31.51.51,0,0,0,0-.13,1.43,1.43,0,0,0,0-.29q0-.17-.06-.37a2.63,2.63,0,0,1,0-.51v-.54a.79.79,0,0,1,0-.18.49.49,0,0,0,0-.16q0-.15,0-.2a.14.14,0,0,1,0-.1.41.41,0,0,0,0-.23.31.31,0,0,1,0-.11.7.7,0,0,0,0-.34.5.5,0,0,1,0-.17,2.09,2.09,0,0,1,0-.31.5.5,0,0,0,0-.31.21.21,0,0,0,.1-.26,1,1,0,0,1,0-.28.58.58,0,0,1,.07-.28.24.24,0,0,0,0-.26.24.24,0,0,0,.1-.15.56.56,0,0,1,.07-.17.85.85,0,0,1,0-.48q.1-.28.17-.53c0-.08,0-.13,0-.16l-.11-.09.1-.39a.37.37,0,0,1,.22-.27,7.69,7.69,0,0,0,.91.09l.83,0a1,1,0,0,0,.21-.11.53.53,0,0,1,.21-.09.7.7,0,0,1,.32.11l.32.16a.68.68,0,0,1,.11.23,2.22,2.22,0,0,0,.09.26c0,.08,0,.13-.1.13a.18.18,0,0,0-.15.11v.32a.72.72,0,0,0,0,.38.48.48,0,0,1,0,.18.83.83,0,0,1,0,.32,1.3,1.3,0,0,0,0,.32.56.56,0,0,0,0,.16l0,.18a.22.22,0,0,0,0,.15l0,.12a3,3,0,0,1,0,.48,2.9,2.9,0,0,0,0,.45.71.71,0,0,1,0,.34.19.19,0,0,0,0,.15,3.26,3.26,0,0,0,.11.35.37.37,0,0,1,0,.13,1.81,1.81,0,0,0,0,.43c0,.11,0,.2,0,.28a4.79,4.79,0,0,1,0,.67,1.77,1.77,0,0,0,.12.65.51.51,0,0,0,0,.39,1.46,1.46,0,0,1,.06.44,2,2,0,0,1,0,.32,2.06,2.06,0,0,0,0,.34.21.21,0,0,1,0,.21.8.8,0,0,0-.09.23,3.48,3.48,0,0,0,0,.59,3.59,3.59,0,0,1,0,.59c0,.21,0,.44,0,.68a4.68,4.68,0,0,0,0,.68.59.59,0,0,0,0,.28.61.61,0,0,1,0,.16,3,3,0,0,1-.06.34,1.31,1.31,0,0,0,0,.32.66.66,0,0,0,0,.26,1.63,1.63,0,0,1,0,.28c0,.1,0,.2,0,.29s0,.2,0,.29,0,.45.06.66a5.74,5.74,0,0,1,0,.66,3.71,3.71,0,0,1,0,.53,1.61,1.61,0,0,0,0,.52l0,.35,0,.38,0,.18a.69.69,0,0,1,0,.18,2.91,2.91,0,0,1-.07.83,1.44,1.44,0,0,0,0,.83.44.44,0,0,0,.31.15.54.54,0,0,1,.33.15Z"/><path class="cls-3" d="M244.27,85.82a1,1,0,0,0,0,.44.31.31,0,0,1,0,.29.28.28,0,0,1,.11.29l-.09.37a.6.6,0,0,0,0,.24.41.41,0,0,1,0,.2,2.67,2.67,0,0,0-.16.32c0,.07-.05.1-.09.1a.61.61,0,0,1,0,.29l-.1.29a.83.83,0,0,1-.09.24.16.16,0,0,0,0,.1,1.33,1.33,0,0,1-.06.33l-.06.13-.15.39-.15.39q-.12.24-.22.48a1.24,1.24,0,0,1-.27.4.61.61,0,0,0,0,.16.41.41,0,0,1,0,.16l-.22.21a.91.91,0,0,0-.2.28,1.3,1.3,0,0,1-.24.39.67.67,0,0,1-.22.18,1,1,0,0,0-.24.18c-.08,0-.13,0-.15,0s-.06,0-.12,0a1.76,1.76,0,0,1-.37.29,2.52,2.52,0,0,1-.49.2l-.21,0-.11,0-.31.11a1,1,0,0,1-.35.06,1.06,1.06,0,0,0-.38,0l-.23.06a1.39,1.39,0,0,1-.42,0,2.66,2.66,0,0,0-.44,0,.5.5,0,0,0-.24,0,.16.16,0,0,1-.1,0h-.28a.23.23,0,0,0-.13,0,1.31,1.31,0,0,0-.29.09.69.69,0,0,1-.39,0,4.24,4.24,0,0,1-.83.11,1,1,0,0,1-.66-.18.43.43,0,0,1-.32,0l-.23-.06h-.11a4.18,4.18,0,0,1-.5-.13,1.59,1.59,0,0,1-.45-.23,2.87,2.87,0,0,1-.5-.22,1,1,0,0,0-.4-.12,2.5,2.5,0,0,1-.22-.24l-.12-.15a.22.22,0,0,0-.12-.06.22.22,0,0,1-.12-.06,1.36,1.36,0,0,0-.28-.21.42.42,0,0,1-.13-.09l-.1-.11-.1-.13c-.15-.18-.25-.3-.32-.37l-.2-.17a.43.43,0,0,0-.06-.15.22.22,0,0,1,0-.17,1,1,0,0,1-.2-.2l0-.07a2.33,2.33,0,0,0-.29-.39.56.56,0,0,1-.07-.17l-.07-.27a2.77,2.77,0,0,0-.1-.35.35.35,0,0,1,0-.26.56.56,0,0,0-.11-.12.25.25,0,0,1-.09-.12,1.13,1.13,0,0,1,0-.37,1,1,0,0,0,0-.34.66.66,0,0,0-.09-.22.23.23,0,0,1,0-.22.46.46,0,0,1-.11-.18.46.46,0,0,0-.11-.18.4.4,0,0,0,0-.29.88.88,0,0,1-.06-.34,1.35,1.35,0,0,1,0-.18c0-.06,0-.13,0-.21v-.42a2.08,2.08,0,0,1,.06-.27c0-.08.05-.16.09-.24a1.67,1.67,0,0,0,0-.26.16.16,0,0,1,.1-.16.8.8,0,0,1,0-.59,1.4,1.4,0,0,0,.12-.59.3.3,0,0,0,.07-.13.29.29,0,0,1,.07-.13,1,1,0,0,1,.09-.44,1.76,1.76,0,0,0,.13-.37.35.35,0,0,0,.21-.16l.13-.23a.47.47,0,0,0,.2-.23.14.14,0,0,1,.17-.11l.23-.37a.67.67,0,0,1,.26-.24l.24-.12.1-.07.12-.13.1-.11a2.16,2.16,0,0,1,.44-.27.74.74,0,0,1,.18-.17l.23-.15a1.62,1.62,0,0,1,.27-.15l.12,0,.21-.13a.23.23,0,0,1,.26,0,1.48,1.48,0,0,1,1.05-.29l.59-.15a1.67,1.67,0,0,1,.51,0l.18,0,.16,0,.23,0,.23,0,.49-.06a1,1,0,0,1,.34,0,1.19,1.19,0,0,0,.38.06h.16l.15,0,.12,0a1.7,1.7,0,0,0,.39.07.65.65,0,0,1,.2,0,.56.56,0,0,1,.2,0l.2.09.2.06.2.06a2.17,2.17,0,0,0,.64,0,1.34,1.34,0,0,1,.64.12l.12.07.15.1a.33.33,0,0,1,.17.07l.1.07a4.31,4.31,0,0,1,.66.42l.47.39a.4.4,0,0,0,0,.21l.1.18A1.44,1.44,0,0,1,243,82l.17.18a.13.13,0,0,1,0,.12.28.28,0,0,0,0,.17,2,2,0,0,0,.14.27l.16.27a.49.49,0,0,0,0,.22.94.94,0,0,1,.1.2l.12.31a.44.44,0,0,0,.27.26.37.37,0,0,0,0,.26.9.9,0,0,1,.1.28,2.52,2.52,0,0,1,0,.34v.32a1.38,1.38,0,0,0,0,.38A1,1,0,0,1,244.27,85.82Zm-2.91-.27a.88.88,0,0,1,0-.24.45.45,0,0,0,0-.17,2.18,2.18,0,0,0-.15-.46,2.09,2.09,0,0,1-.15-.51,1.21,1.21,0,0,1,0-.31,1,1,0,0,0,0-.33.18.18,0,0,1-.11-.15.2.2,0,0,0-.09-.15.32.32,0,0,0-.15-.15.23.23,0,0,1-.12-.17,3.94,3.94,0,0,1-.46-.24,2.48,2.48,0,0,1-.49,0,.73.73,0,0,1-.18-.1.42.42,0,0,0-.16-.07.32.32,0,0,0-.27,0s-.15.06-.29,0a.33.33,0,0,1-.18-.18.46.46,0,0,0-.18-.21.31.31,0,0,0-.16,0H238a.15.15,0,0,1-.1-.09s-.06-.05-.15,0l-.48.13a.7.7,0,0,1-.53,0,.44.44,0,0,0-.18.07l-.13.1s0-.06-.11,0a.25.25,0,0,1-.16,0,2.09,2.09,0,0,1-.47.26l-.46.21a.69.69,0,0,0-.28.17l-.13.15-.14.15a.49.49,0,0,1-.16.12,2.19,2.19,0,0,0-.51.38,1.31,1.31,0,0,1-.37.28.45.45,0,0,1-.16.31.7.7,0,0,0-.21.31,1.88,1.88,0,0,0-.09.29,1.77,1.77,0,0,1-.09.29,2.13,2.13,0,0,0-.13.75,1,1,0,0,1-.14.55.14.14,0,0,1,.06.15.53.53,0,0,0,0,.2c0,.08.06.16.09.24a.43.43,0,0,1,0,.27,1.66,1.66,0,0,0,0,.34c.08.11.12.19.11.22a.14.14,0,0,0,0,.1.46.46,0,0,0,.09.15.18.18,0,0,1,0,.2.19.19,0,0,1,.14.15.18.18,0,0,0,.11.15.31.31,0,0,0,.06.29.43.43,0,0,1,.06.37c.08.06.12.11.12.15a.21.21,0,0,0,0,.1l.11.11a.25.25,0,0,1,.06.18.49.49,0,0,1,.21.16,1.23,1.23,0,0,0,.21.21l.11.09.11.09a1,1,0,0,1,.2.15l.15.12a.41.41,0,0,0,.22.13.39.39,0,0,1,.17.06l.14.1.11.07a1.4,1.4,0,0,0,.42.09.56.56,0,0,1,.39.21,1,1,0,0,1,.35.06.88.88,0,0,0,.4,0,.18.18,0,0,1,.15.06.21.21,0,0,0,.17.06l.17,0a.43.43,0,0,1,.17,0,.45.45,0,0,1,.23,0,.66.66,0,0,0,.21,0,1.27,1.27,0,0,0,.28-.1l.23-.12.22-.13a.45.45,0,0,1,.24-.06.28.28,0,0,1,.11-.18l.16-.13.22-.21a.87.87,0,0,0,.17-.21.48.48,0,0,1,.12-.16.64.64,0,0,0,.12-.13,3.18,3.18,0,0,0,.29-.45l.24-.48.15-.26a1.69,1.69,0,0,0,.12-.28,1,1,0,0,1,.06-.31.08.08,0,0,0,0-.11l.09-.33a.64.64,0,0,0,0-.28.4.4,0,0,0,.12-.29,1.85,1.85,0,0,1,0-.39.71.71,0,0,1,.07-.21.41.41,0,0,0,0-.21,1.89,1.89,0,0,0,0-.45Z"/><path class="cls-3" d="M261.35,79.44a3,3,0,0,1,0,.53,2.27,2.27,0,0,1-.07.55,2,2,0,0,0,0,.33.28.28,0,0,1,0,.16,2,2,0,0,0-.06.55,1.25,1.25,0,0,1,0,.4,1.64,1.64,0,0,1-.07.59c0,.15-.07.29-.11.44a3.35,3.35,0,0,1-.18.49,1.84,1.84,0,0,1,0,.73,1.87,1.87,0,0,1-.06.2,1.69,1.69,0,0,0-.06.2.2.2,0,0,0,0,.12.3.3,0,0,1,0,.15,1.62,1.62,0,0,0,0,.33v.18q0,.42-.06.64c0,.15-.05.29-.09.42a3.5,3.5,0,0,1-.17.76.8.8,0,0,0,.06.17,1.16,1.16,0,0,1,.06.15.51.51,0,0,1,0,.29,1.1,1.1,0,0,1,.1.2.62.62,0,0,1,0,.24,1.42,1.42,0,0,1,0,.34,1.12,1.12,0,0,0,0,.27.46.46,0,0,0,0,.18,1.28,1.28,0,0,1,.06.18,1.4,1.4,0,0,1,0,.42,1.16,1.16,0,0,1-.09.39,3.82,3.82,0,0,1,.09.79,6.6,6.6,0,0,1,0,.92,1.08,1.08,0,0,0-.06.42,1.87,1.87,0,0,1,0,.37,1.09,1.09,0,0,1,0,.17l0,.17a.65.65,0,0,0,0,.18.69.69,0,0,1,0,.18,1.76,1.76,0,0,1-.17.42.9.9,0,0,1-.07.22,1,1,0,0,0-.07.2,1,1,0,0,0,0,.33,1.29,1.29,0,0,1,0,.35.42.42,0,0,0-.09.13.18.18,0,0,1-.11.11,1.54,1.54,0,0,1,0,.37,2.79,2.79,0,0,0-.28.27.83.83,0,0,1-.35.22.18.18,0,0,1-.1.17.36.36,0,0,0-.15.12.21.21,0,0,0-.06.12.22.22,0,0,1-.06.12.16.16,0,0,0-.12.12.32.32,0,0,1-.07.15l-.89.45a3.62,3.62,0,0,0-.8.53.71.71,0,0,0-.37.07l-.23,0-.26.06-.34.09-.17.06a.72.72,0,0,1-.27,0h-.83a.33.33,0,0,1-.15,0l-.12,0a3.13,3.13,0,0,1-.68.1l-.56,0a.4.4,0,0,0-.16,0,.41.41,0,0,1-.16,0l-.13,0-.14,0h-.32l-.17,0-.12,0-.24,0-.24,0a1.52,1.52,0,0,0-.37,0,.3.3,0,0,0-.17,0,.34.34,0,0,1-.15,0l-.16-.1-.18-.12a.47.47,0,0,0-.18,0,.42.42,0,0,1-.21,0,1.57,1.57,0,0,1-.29-.1l-.29-.15-.26-.15-.26-.17-.1-.11-.1-.11-.21-.17-.11-.07a.66.66,0,0,0-.16-.16.11.11,0,0,1-.06-.06l-.16-.17a.77.77,0,0,1-.13-.22,1.1,1.1,0,0,0-.21-.34.53.53,0,0,1-.14-.17,3.35,3.35,0,0,1-.22-1q0-.53-.07-1a.53.53,0,0,1,.38-.22l.5-.07.23-.11a.26.26,0,0,1,.23,0,.53.53,0,0,1,.17-.07l.2-.07.22,0,.19,0a.4.4,0,0,1,.22.1l.17.2.2.29.17.22.21.27a.62.62,0,0,0,.13.12l.31.21.21.11.18.11.11.06.33.26a.75.75,0,0,0,.45.13.57.57,0,0,0,.21.17l.23.12.17.06a.37.37,0,0,1,.15.06.89.89,0,0,0,.17.15l.1,0a1.69,1.69,0,0,0,.43.18,1.16,1.16,0,0,0,.55,0,1.16,1.16,0,0,1,.39,0,.3.3,0,0,0,.17,0,1.37,1.37,0,0,0,.36,0l.35-.1.16,0a.37.37,0,0,0,.16-.1c.11,0,.18-.07.2-.1s0,0,0,0a2,2,0,0,0,.5-.33,1.55,1.55,0,0,1,.33-.26.74.74,0,0,1,.17-.33,1.7,1.7,0,0,0,.22-.31.82.82,0,0,1,.12-.2l0,0a.26.26,0,0,1,.09-.18l.11-.09a3,3,0,0,0,.17-.54l.1-.12.1-.15a.81.81,0,0,1,0-.42,1,1,0,0,1,.16-.37.15.15,0,0,1,0-.13,1.55,1.55,0,0,0,0-.21.2.2,0,0,0-.24.09,1,1,0,0,1-.2.21l-.23.16a.94.94,0,0,1-.23.13,1.54,1.54,0,0,0-.31.15,1.28,1.28,0,0,1-.23.12.22.22,0,0,1-.12.06l-.17.06-.21.12a1.25,1.25,0,0,1-.23.12.87.87,0,0,1-.24.06A1.28,1.28,0,0,0,255,93l-.29,0-.37,0H254l-.51,0a.58.58,0,0,1-.42-.2c-.1,0-.14,0-.14.09s0,.09-.16.06a2.64,2.64,0,0,1-.75-.1,5.93,5.93,0,0,1-.62-.22l-.32-.12a.44.44,0,0,0-.2,0,.3.3,0,0,1-.17,0,.87.87,0,0,0-.24-.12.14.14,0,0,1-.1-.2,1,1,0,0,0-.31-.11.61.61,0,0,1-.21-.06l-.27-.2-.2-.15-.29-.29-.13-.16a.29.29,0,0,0-.18-.11.19.19,0,0,0-.07-.17.16.16,0,0,1-.07-.15l-.17-.18-.17-.18a.4.4,0,0,0-.15-.16.46.46,0,0,1-.12-.09,1.58,1.58,0,0,0-.23-.2.39.39,0,0,1-.13-.12.85.85,0,0,0-.13-.31.42.42,0,0,1-.09-.11l-.13-.21a1.3,1.3,0,0,1-.11-.18l-.07-.21a.34.34,0,0,0-.07-.11,1.57,1.57,0,0,0-.13-.26.55.55,0,0,1-.09-.31l-.1-.11-.12-.16a.77.77,0,0,1-.12-.28,1.24,1.24,0,0,0-.07-.26,1.15,1.15,0,0,0-.06-.18l-.09-.18a.33.33,0,0,1,0-.16.49.49,0,0,0,0-.18q0-.27-.07-.37a.79.79,0,0,1,0-.2,1.64,1.64,0,0,0-.06-.26s0-.05.06-.13a.7.7,0,0,0,0-.33,1.3,1.3,0,0,1,0-.4.41.41,0,0,1,.07-.13.89.89,0,0,0,.1-.16.47.47,0,0,0,0-.23.27.27,0,0,1,0-.18.73.73,0,0,0,.14-.2.22.22,0,0,1,.06-.1.94.94,0,0,1,.17-.22,1.9,1.9,0,0,1,.06-.46,1.21,1.21,0,0,1,.18-.42v-.29a.65.65,0,0,0,.12-.17l.1-.2.21-.43a2.49,2.49,0,0,1,.26-.43c.06-.11.11-.17.13-.18l.06,0a2.05,2.05,0,0,0,.32-.34,1.12,1.12,0,0,1,.22-.24l.18-.09.21-.09.13-.18a.21.21,0,0,1,.18-.09,1.34,1.34,0,0,1,.39-.42.85.85,0,0,1,.26-.12l.28-.1a.8.8,0,0,1,.27-.11l.17,0a2,2,0,0,1,.59-.23,1.21,1.21,0,0,0,.49-.21,1.05,1.05,0,0,0,.55-.1,2.1,2.1,0,0,1,.53-.17h.32l.33,0a.32.32,0,0,1,.28.16.22.22,0,0,1,.15-.12l.2-.07a2.37,2.37,0,0,0,.54,0,2.16,2.16,0,0,1,.51,0,1.59,1.59,0,0,1,.43.15.85.85,0,0,0,.4.1,2,2,0,0,0,.33.2l.36.2.28.17.28.2a1.25,1.25,0,0,0,.24.21l.12,0a.66.66,0,0,0,.17.32l.24.24a.67.67,0,0,0,.06-.24.93.93,0,0,1,.06-.27l-.09-.16a.46.46,0,0,1,0-.26c0-.2,0-.32.12-.37a.54.54,0,0,1,.32-.06,1.68,1.68,0,0,1,.44.1,2.16,2.16,0,0,0,.54.11l.51,0,.54,0,.23-.07a.32.32,0,0,1,.21,0,.72.72,0,0,1,.28.15A.5.5,0,0,0,261.35,79.44ZM258,86.38a1.38,1.38,0,0,0,0-.31c0-.07,0-.16,0-.26l0-.18a.44.44,0,0,1,0-.21.3.3,0,0,1-.11-.23.51.51,0,0,0-.06-.23,1.72,1.72,0,0,1-.09-.27.19.19,0,0,0,0-.1.41.41,0,0,0-.18-.17.21.21,0,0,1-.11-.22L257,84a.49.49,0,0,1-.2-.22,3.09,3.09,0,0,0-.37-.46,2.89,2.89,0,0,0-.34-.29,1.29,1.29,0,0,0-.34-.2l-.27-.1a.57.57,0,0,1-.12-.2l-.1-.27a2,2,0,0,1-.4-.11l-.4-.13-.32,0L254,82h-.24a.82.82,0,0,1-.24,0l-.24,0-.24,0a1.63,1.63,0,0,1-.48,0,1.12,1.12,0,0,0-.33,0,.85.85,0,0,0-.33.12.63.63,0,0,1-.33.1.32.32,0,0,1-.13.17l-.18.12a2.74,2.74,0,0,1-.37.2.53.53,0,0,0-.27.27,1.15,1.15,0,0,1-.23.17.16.16,0,0,0-.09.07.79.79,0,0,1-.15.24l-.12.12a.2.2,0,0,1-.07.23l-.17.16a1.53,1.53,0,0,1-.07.39.52.52,0,0,0-.15.22,1,1,0,0,1-.07.2,1.4,1.4,0,0,0-.16.68q0,.34,0,.66a.62.62,0,0,0,0,.28.51.51,0,0,1,0,.13c0,.15,0,.27,0,.38a.82.82,0,0,0,.06.35,1.67,1.67,0,0,1,.07.2c0,.1.06.15.07.15a1.1,1.1,0,0,0,.17.27,1,1,0,0,1,.15.2,1.57,1.57,0,0,1,.16.31c0,.11.08.22.11.33l.18.2a.71.71,0,0,1,.14.24,3.21,3.21,0,0,1,.43.24l.26.17a3.59,3.59,0,0,1,.42.26,1.18,1.18,0,0,0,.27.16,2.5,2.5,0,0,0,.86.17.19.19,0,0,0,.14,0l.13,0a6.82,6.82,0,0,0,1,0l.64-.07.5-.09a1.18,1.18,0,0,0,.4-.13.84.84,0,0,1,.32-.18.39.39,0,0,0,.17-.06,2,2,0,0,0,.32-.18l.15-.11a1.75,1.75,0,0,1,.28-.2.38.38,0,0,0,.18-.24l.16-.09a.4.4,0,0,0,.16-.13.65.65,0,0,0,.12-.29.3.3,0,0,1,0-.17l.1-.13.1-.13a.78.78,0,0,0,.07-.13l0-.13a.53.53,0,0,1,.12-.28.18.18,0,0,0,0-.18,3,3,0,0,1,.11-.35A3.29,3.29,0,0,0,258,86.38Z"/><path class="cls-3" d="M267.13,92.42a1.13,1.13,0,0,1-.06.35,2.57,2.57,0,0,1-.14.33,1.36,1.36,0,0,1-.29.51,1.17,1.17,0,0,1-.42,0,2.47,2.47,0,0,0-.49,0h-.26l-.26,0-.26,0a.58.58,0,0,1-.23,0,.41.41,0,0,1-.16-.07.25.25,0,0,0-.16,0,1.48,1.48,0,0,1-.22-.17.72.72,0,0,0-.06-.32.77.77,0,0,1-.06-.34.58.58,0,0,0-.18-.16.49.49,0,0,1-.18-.18,1.34,1.34,0,0,1-.07-.32,1.58,1.58,0,0,1,0-.46,1.43,1.43,0,0,0,.07-.33v-.13a2.24,2.24,0,0,0,.28-.28l.16-.18a1.12,1.12,0,0,0,.33-.13l.31-.21a.81.81,0,0,0,.24-.12l.1-.07a2.18,2.18,0,0,1,.51,0h.24a.39.39,0,0,1,.22,0,.43.43,0,0,1,.16.13.51.51,0,0,0,.13.13l.23.12a.34.34,0,0,1,.13.15,1.28,1.28,0,0,1,0,.26.69.69,0,0,1,0,.26,1.68,1.68,0,0,1,.12.24,2.32,2.32,0,0,1,.1.34,3.24,3.24,0,0,0,.09.32A1.14,1.14,0,0,1,267.13,92.42Zm.22-16.32a.73.73,0,0,1,0,.23.73.73,0,0,0,0,.23,2.23,2.23,0,0,0,0,.42,1.77,1.77,0,0,1,0,.37,2,2,0,0,0,0,.4v.55a2.1,2.1,0,0,1,0,.64,1.08,1.08,0,0,0,0,.49,1.29,1.29,0,0,0,0,.17,2.1,2.1,0,0,1,0,.24.6.6,0,0,0,0,.32.62.62,0,0,1,0,.22.4.4,0,0,1,0,.16,1.26,1.26,0,0,0-.06.18.89.89,0,0,0,0,.22.76.76,0,0,1,0,.17,1,1,0,0,1-.09.32.77.77,0,0,0-.06.34.23.23,0,0,1,0,.18,2.5,2.5,0,0,1,0,.26l-.06.17a1.92,1.92,0,0,0-.06.2,1.79,1.79,0,0,0,0,.5q0,.28.07.6c0,.13,0,.26,0,.38a2.61,2.61,0,0,1,0,.43q0,.49,0,.83a5.85,5.85,0,0,1,0,.66.92.92,0,0,1-.06.33,1,1,0,0,0-.06.35.38.38,0,0,0,0,.17.44.44,0,0,1,0,.2,1.12,1.12,0,0,1,0,.44q0,.24-.06.49a1,1,0,0,0,0,.32.68.68,0,0,1-.15.5l-.2.21a.26.26,0,0,1-.22,0,.49.49,0,0,0-.22,0A.21.21,0,0,0,266,89s-.09,0-.22,0a.33.33,0,0,1-.15,0,.38.38,0,0,0-.17,0,.49.49,0,0,0-.18,0,.34.34,0,0,1-.16,0,.26.26,0,0,1-.15,0l-.15-.07a.58.58,0,0,0-.2,0,.13.13,0,0,1-.12,0,3.57,3.57,0,0,1-.21-.46c0-.08-.05-.19-.09-.32s.06-.29.07-.43a.91.91,0,0,0-.07-.45l0-.13,0-.13a.61.61,0,0,1,0-.28.51.51,0,0,0,0-.13.77.77,0,0,1,0-.28.51.51,0,0,0,0-.13,1.09,1.09,0,0,0-.06-.21,1.08,1.08,0,0,1-.06-.21.67.67,0,0,0,0-.16v-.18c0-.23.06-.41.09-.54a2.1,2.1,0,0,0,0-.39.93.93,0,0,0-.06-.33.31.31,0,0,1,0-.31.71.71,0,0,1-.15-.39.5.5,0,0,1,0-.17,1.45,1.45,0,0,0,.06-.22,1.1,1.1,0,0,0,0-.29.72.72,0,0,1,0-.32.71.71,0,0,1,.12-.34.56.56,0,0,1,0-.18.24.24,0,0,0,0-.11.18.18,0,0,1,0-.07q0-.51,0-1.1a4.48,4.48,0,0,0-.07-1.08q0-.32-.09-.62c0-.2-.05-.39-.09-.55l.1-.28a.75.75,0,0,0,0-.26,1.16,1.16,0,0,0-.06-.15l-.06-.12a1.64,1.64,0,0,1,0-.6,1.1,1.1,0,0,0-.06-.55l0-.11a1,1,0,0,0,0-.18.66.66,0,0,0,0-.18.79.79,0,0,1,0-.21.82.82,0,0,1,0-.17l.07-.15a2.26,2.26,0,0,1,.43-.06,1.08,1.08,0,0,0,.43-.11s.12,0,.26,0h.26l1,.06a2.47,2.47,0,0,1,.73.16l.1.4A1.27,1.27,0,0,1,267.35,76.1Z"/><path class="cls-3" d="M273.59,92.42a1.13,1.13,0,0,1-.06.35,2.57,2.57,0,0,1-.14.33,1.36,1.36,0,0,1-.29.51,1.17,1.17,0,0,1-.42,0,2.47,2.47,0,0,0-.49,0h-.26l-.26,0-.26,0a.58.58,0,0,1-.23,0,.41.41,0,0,1-.16-.07.25.25,0,0,0-.16,0,1.48,1.48,0,0,1-.22-.17.72.72,0,0,0-.06-.32.77.77,0,0,1-.06-.34.58.58,0,0,0-.18-.16.49.49,0,0,1-.18-.18,1.34,1.34,0,0,1-.07-.32,1.58,1.58,0,0,1,0-.46,1.43,1.43,0,0,0,.07-.33v-.13a2.24,2.24,0,0,0,.28-.28l.16-.18a1.12,1.12,0,0,0,.33-.13l.31-.21a.81.81,0,0,0,.24-.12l.1-.07a2.18,2.18,0,0,1,.51,0h.24a.39.39,0,0,1,.22,0,.43.43,0,0,1,.16.13.51.51,0,0,0,.13.13l.23.12a.34.34,0,0,1,.13.15,1.28,1.28,0,0,1,0,.26.69.69,0,0,1,0,.26,1.68,1.68,0,0,1,.12.24,2.32,2.32,0,0,1,.1.34,3.24,3.24,0,0,0,.09.32A1.14,1.14,0,0,1,273.59,92.42Zm.22-16.32a.73.73,0,0,1,0,.23.73.73,0,0,0,0,.23,2.23,2.23,0,0,0,0,.42,1.77,1.77,0,0,1,0,.37,2,2,0,0,0,0,.4v.55a2.1,2.1,0,0,1,0,.64,1.08,1.08,0,0,0,0,.49,1.29,1.29,0,0,0,0,.17,2.1,2.1,0,0,1,0,.24.6.6,0,0,0,0,.32.62.62,0,0,1,0,.22.4.4,0,0,1,0,.16,1.26,1.26,0,0,0-.06.18.89.89,0,0,0,0,.22.76.76,0,0,1,0,.17,1,1,0,0,1-.09.32.77.77,0,0,0-.06.34.23.23,0,0,1,0,.18,2.5,2.5,0,0,1,0,.26l-.06.17a1.92,1.92,0,0,0-.06.2,1.79,1.79,0,0,0,0,.5q0,.28.07.6c0,.13,0,.26,0,.38a2.61,2.61,0,0,1,0,.43q0,.49,0,.83a5.85,5.85,0,0,1,0,.66.92.92,0,0,1-.06.33,1,1,0,0,0-.06.35.38.38,0,0,0,0,.17.44.44,0,0,1,0,.2,1.12,1.12,0,0,1,0,.44q0,.24-.06.49a1,1,0,0,0,0,.32.68.68,0,0,1-.15.5L273,89a.26.26,0,0,1-.22,0,.49.49,0,0,0-.22,0,.21.21,0,0,0-.12.06s-.09,0-.22,0a.33.33,0,0,1-.15,0,.38.38,0,0,0-.17,0,.49.49,0,0,0-.18,0,.34.34,0,0,1-.16,0,.26.26,0,0,1-.15,0l-.15-.07a.58.58,0,0,0-.2,0,.13.13,0,0,1-.12,0,3.57,3.57,0,0,1-.21-.46c0-.08-.05-.19-.09-.32s.06-.29.07-.43a.91.91,0,0,0-.07-.45l0-.13,0-.13a.61.61,0,0,1,0-.28.51.51,0,0,0,0-.13.77.77,0,0,1,0-.28.51.51,0,0,0,0-.13,1.09,1.09,0,0,0-.06-.21,1.08,1.08,0,0,1-.06-.21.67.67,0,0,0,0-.16v-.18c0-.23.06-.41.09-.54a2.1,2.1,0,0,0,0-.39.93.93,0,0,0-.06-.33.31.31,0,0,1,0-.31.71.71,0,0,1-.15-.39.5.5,0,0,1,0-.17,1.45,1.45,0,0,0,.06-.22,1.1,1.1,0,0,0,0-.29.72.72,0,0,1,0-.32.71.71,0,0,1,.12-.34.56.56,0,0,1,0-.18.24.24,0,0,0,0-.11.18.18,0,0,1,0-.07q0-.51,0-1.1a4.48,4.48,0,0,0-.07-1.08q0-.32-.09-.62c0-.2-.05-.39-.09-.55l.1-.28a.75.75,0,0,0,0-.26,1.16,1.16,0,0,0-.06-.15l-.06-.12a1.64,1.64,0,0,1,0-.6,1.1,1.1,0,0,0-.06-.55l0-.11a1,1,0,0,0,0-.18.66.66,0,0,0,0-.18.79.79,0,0,1,0-.21.82.82,0,0,1,0-.17l.07-.15a2.26,2.26,0,0,1,.43-.06,1.08,1.08,0,0,0,.43-.11s.12,0,.26,0h.26l1,.06a2.47,2.47,0,0,1,.73.16l.1.4A1.27,1.27,0,0,1,273.81,76.1Z"/><path class="cls-3" d="M76.55,108.45c4-3.71,4.6-2.25,8.4-.38a5.09,5.09,0,0,0,3.51.66,8.08,8.08,0,0,0,3.28-1.52c3-2,4.25-3.89,8.42-2.74,2.73.75,5.19,2.52,8.15,2.14,1.51-.19,2.19-1.16,3.55-1.65,3.27-1.2,3.38.79,5.39,2.49a5.72,5.72,0,0,0,5.71,1.27,19.36,19.36,0,0,0,4.16-2.35c3.12-1.87,4.71-1.05,7.72.45,2.46,1.22,4.24,1.08,6.71,0,3-1.33,4.1-2.72,7.18-.92,1.58.92,3,2.17,4.83,2.48,4,.67,6.82-2.86,10.66-2.95s7.41,2.75,11.45,2.28c2.08-.24,3.19-1.34,5-2,3.94-1.46,4.57.63,7.08,2.16,2.67,1.62,4.91.8,7.53-.46,3.26-1.56,4.78-1,7.78.58a8,8,0,0,0,3,1.06c3.6.32,5.36-2.77,8.24-4.13,3.77-1.79,9.78,1.68,14.08,1.28,3.75-.34,4.83-1.9,8.62.39,1.38.84,2.26,1.76,3.91,2.2,3.91,1.06,6.57-.7,9.92-2.24,5.45-2.52,7.45,2.72,12.39,2.17,1.69-.19,2.23-1.14,3.46-2.09,3.81-2.94,3.41-2.76,7.11-1.16,2.86,1.24,5.26,2.21,8.24.87,1.76-.79.23-3.38-1.52-2.59-3.33,1.5-7.08-2.49-10.41-2.68-2.73-.16-3.13,1.07-5.05,2.58-4.75,3.73-7.49-1.7-12.17-1.18-5.32.6-8,6.1-13.74,2-2.77-2-3.41-3-7.06-2.13-3.46.85-6.64,1.24-10.12.25-2-.57-3.71-1.79-5.85-1.56-3.06.33-4.55,2.94-7.14,4.14-4.26,2-6.74-2.68-10.93-2.08-1.37.2-2.42,1.07-3.69,1.45-1.6.47-4,.87-5.7.12-.62-.27-1.44-1.53-2-1.92-2.94-1.88-5.22-.65-8.06.75-4.92,2.43-8.1-.36-12.93-.91-5.15-.6-8.68,4-13.75,1.83-2.69-1.17-4.25-3.1-7.44-2.35-2.23.53-3.5,1.88-5.94,2.06-2.77.21-3.71-1.35-6.16-2s-4.61.41-6.72,1.71c-2.37,1.46-4,3-7,.76-1.19-.89-1.77-2.31-3.17-3a4.21,4.21,0,0,0-3-.35c-2.79.56-3.15,2.88-6.82,2.12-3.42-.7-6.31-3.16-10-2.29-1.69.4-2.68,1.57-4.08,2.43-5.36,3.29-4.71.57-8.2-.66-3.32-1.17-6.61,1.45-8.87,3.54-1.42,1.31.71,3.43,2.13,2.12Z"/></g></g></svg>