<svg xmlns="http://www.w3.org/2000/svg" viewBox="0 0 124 52"><defs><style>.cls-1{fill:#ef978e;}.cls-2{fill:#ce746e;}.cls-3{fill:#6c4735;}.cls-4{fill:#fdffff;}.cls-5{fill:#633e30;}</style></defs><title>Asset 19</title><g id="Layer_2" data-name="Layer 2"><g id="Layer_1-2" data-name="Layer 1"><rect class="cls-1" x="2" y="2" width="120" height="48" rx="12" ry="12"/><path class="cls-2" d="M122,13V37a12,12,0,0,1-12,12H14A12,12,0,0,1,3.75,43.25,12,12,0,0,0,10,45h96a12,12,0,0,0,12-12V9a12,12,0,0,0-1.75-6.25A12,12,0,0,1,122,13Z"/><path class="cls-3" d="M110,52H14A14,14,0,0,1,0,38V14A14,14,0,0,1,14,0h96a14,14,0,0,1,14,14V38A14,14,0,0,1,110,52ZM14,4A10,10,0,0,0,4,14V38A10,10,0,0,0,14,48h96a10,10,0,0,0,10-10V14A10,10,0,0,0,110,4Z"/><path class="cls-4" d="M109.45,43.05l1.16,1.34a1.51,1.51,0,0,0,2.12,0,1.53,1.53,0,0,0,0-2.12l-1.16-1.34a1.51,1.51,0,0,0-2.12,0,1.53,1.53,0,0,0,0,2.12Z"/><path class="cls-4" d="M112,38.45a9.1,9.1,0,0,0,2.76,2.47,1.5,1.5,0,1,0,1.51-2.59c-.19-.11-.38-.22-.56-.34a2,2,0,0,1-.35-.27c-.16-.15-.32-.3-.48-.46l-.22-.24q-.17-.21-.08-.08a1.55,1.55,0,0,0-2.05-.54,1.51,1.51,0,0,0-.54,2.05Z"/><path class="cls-4" d="M11.48,15.34a8.84,8.84,0,0,1,.89-3.45c.59-1.15,1.39-1.23,2.6-1.27,1.93,0,1.93-3,0-3s-3.66.4-4.78,2.06a11.46,11.46,0,0,0-1.71,5.66c-.13,1.93,2.87,1.92,3,0Z"/><path class="cls-4" d="M20,10.17h.67a1.5,1.5,0,1,0,0-3H20a1.5,1.5,0,1,0,0,3Z"/><path class="cls-5" d="M38.62,20.15a1.12,1.12,0,0,0,0,.34.23.23,0,0,1,0,.15.35.35,0,0,1-.17.23.84.84,0,0,0-.22.16.54.54,0,0,0-.44,0l-.39.12h-.32a.92.92,0,0,0-.37.07,1.37,1.37,0,0,1-.32.1.49.49,0,0,1-.22,0,.29.29,0,0,0-.22,0,.84.84,0,0,0-.06.48,1.66,1.66,0,0,1,0,.52,2.34,2.34,0,0,0,0,.62,2.66,2.66,0,0,1,0,.43c0,.15,0,.29,0,.42a.63.63,0,0,0,.08.37.9.9,0,0,0-.08.35c0,.14,0,.27,0,.4a3.06,3.06,0,0,0,0,.78,7.25,7.25,0,0,1,0,.78c0,.11,0,.22,0,.31s0,.18,0,.28a.46.46,0,0,0,0,.24.23.23,0,0,1,0,.1,4,4,0,0,0,0,.56,6.27,6.27,0,0,1,0,.66,1.49,1.49,0,0,1,0,.32.7.7,0,0,0,0,.17c0,.13,0,.27.06.42a.56.56,0,0,1-.13.44.25.25,0,0,0,0,.13.73.73,0,0,1,.06.13.51.51,0,0,0,0,.29.5.5,0,0,1,0,.15,1.46,1.46,0,0,0,0,.45l0,.35a1.23,1.23,0,0,1-.32,1l-.62-.1a2,2,0,0,0-.62,0l-.29.06a.58.58,0,0,1-.34,0,.45.45,0,0,0-.17.06.24.24,0,0,1-.15,0,.17.17,0,0,1-.17,0,.36.36,0,0,0-.17-.1,3,3,0,0,1,0-.73,6.92,6.92,0,0,0,0-.93.79.79,0,0,0,0-.21c0-.06,0-.13,0-.21a1.64,1.64,0,0,1,0-.35,2.07,2.07,0,0,0,0-.38.57.57,0,0,1,0-.16.6.6,0,0,0,0-.16c0-.06,0-.1,0-.11s0-.06,0-.16a2.69,2.69,0,0,1,.06-.59c0-.18.08-.36.11-.54a2.84,2.84,0,0,1,0-.43v-.23a1.92,1.92,0,0,0-.07-.22.64.64,0,0,1,0-.24.69.69,0,0,1,0-.15.33.33,0,0,0,0-.17,4.29,4.29,0,0,1,0-.74,3.6,3.6,0,0,0,0-.65,1.72,1.72,0,0,1-.07-.43,1.5,1.5,0,0,0,0-.28c0-.11,0-.24,0-.37a2.41,2.41,0,0,1,0-.42.53.53,0,0,1,0-.17.56.56,0,0,0,0-.17.65.65,0,0,0,0-.22.6.6,0,0,1,0-.22,2.43,2.43,0,0,1,0-.42,2.63,2.63,0,0,0,0-.42l0-.16a.57.57,0,0,1,0-.16,1.24,1.24,0,0,1,0-.46.91.91,0,0,0,0-.44,6.93,6.93,0,0,0-.78.2l-.18,0-.21.06-.32.1A.26.26,0,0,1,31,21a1,1,0,0,1-.27-.32.44.44,0,0,1,.06-.32,1.82,1.82,0,0,1,.21-.24q0-.1,0-.15a.34.34,0,0,0,.07-.17.92.92,0,0,0,0-.26.67.67,0,0,1,0-.28,1.35,1.35,0,0,1,.12-.27.77.77,0,0,0,.1-.24.83.83,0,0,0,0-.34.6.6,0,0,1,0-.34q.07-.41.61-.32l.27.07a.23.23,0,0,1,.17.15.5.5,0,0,1,.33,0,.54.54,0,0,0,.3.07.84.84,0,0,0,.15-.59,6.13,6.13,0,0,1,0-.78.79.79,0,0,0,0-.32l0-.2a1.89,1.89,0,0,1,0-.68l0-.16a.6.6,0,0,0,0-.16.76.76,0,0,0-.07-.34.49.49,0,0,0,0-.22l-.07-.12L33,14.47a.18.18,0,0,1,0-.13c.11-.11.2-.17.24-.16h.2l.33-.07a1,1,0,0,1,.35,0,.73.73,0,0,1,.34,0l.27.06a.52.52,0,0,0,.17-.07l.15-.07a.23.23,0,0,0,.2,0,.13.13,0,0,1,.17.06,1.06,1.06,0,0,0,.17.21.11.11,0,0,1,0,.09,1.71,1.71,0,0,1,0,.55q0,.35-.06.62a1.24,1.24,0,0,1,0,.23V16a1.11,1.11,0,0,1,0,.2,1,1,0,0,0,0,.17.84.84,0,0,1,.06.33.3.3,0,0,0,0,.16,1.42,1.42,0,0,0,.07.3c0,.09,0,.19-.12.31a.57.57,0,0,1,0,.28c0,.09,0,.19,0,.31a1.45,1.45,0,0,0,0,.17,1.29,1.29,0,0,1,0,.17.48.48,0,0,1,0,.22.25.25,0,0,0,0,.22.48.48,0,0,0,.34-.07,1.28,1.28,0,0,1,.29-.15.78.78,0,0,1,.31,0,.41.41,0,0,0,.3-.11.21.21,0,0,0,.27,0,.16.16,0,0,1,.24,0,.77.77,0,0,1,.42-.22.82.82,0,0,1,.49,0,1.59,1.59,0,0,0,.15.26l.07.11a.2.2,0,0,1,0,.13.34.34,0,0,0,0,.18.74.74,0,0,1,0,.26.58.58,0,0,0,0,.11,1.7,1.7,0,0,0,.07.32,2.41,2.41,0,0,1,.07.27Z"/><path class="cls-5" d="M54.37,19.49a1,1,0,0,1,0,.28,1,1,0,0,0,0,.3c0,.08,0,.17,0,.27s0,.19,0,.27a2.78,2.78,0,0,1,0,.49,5.45,5.45,0,0,0-.07.59,2.75,2.75,0,0,0,0,.45,1.07,1.07,0,0,1-.09.45,1.65,1.65,0,0,1,0,.46q0,.27,0,.61a.65.65,0,0,0,0,.18.7.7,0,0,1,0,.18.33.33,0,0,0,0,.21.14.14,0,0,1,0,.11.64.64,0,0,1,0,.26,1,1,0,0,0-.07.23.51.51,0,0,0,0,.2,1.65,1.65,0,0,1,0,.2l0,.2c0,.07,0,.14,0,.22s-.06.41-.07.63a4.3,4.3,0,0,1-.1.66,1.39,1.39,0,0,0-.15.42,2.63,2.63,0,0,1-.07.34L53.4,28l-.08.29a3.66,3.66,0,0,0-.12.4l-.12.48,0,.15a1.4,1.4,0,0,1-.07.17l-.09.22a1.79,1.79,0,0,1-.08.2.5.5,0,0,0-.1.2.1.1,0,0,1,0,.07l-.15.13a.12.12,0,0,0,0,.06,1.89,1.89,0,0,0-.18.28,3.05,3.05,0,0,1-.21.33.7.7,0,0,0-.2.27l-.24.28a3.11,3.11,0,0,1-.29.28.57.57,0,0,1-.18.16l-.21.13-.29.31a.71.71,0,0,1-.2.16.93.93,0,0,1-.56.12.92.92,0,0,1-.55.32l-.72.15a.56.56,0,0,1-.27-.24.27.27,0,0,0-.17.09A.21.21,0,0,1,48,33a.5.5,0,0,1-.21,0,.48.48,0,0,0-.18,0,.61.61,0,0,1-.32.06l-.44-.06h-.23a.46.46,0,0,1-.21,0,1.72,1.72,0,0,0-.85-.2.29.29,0,0,0-.21-.15.76.76,0,0,1-.26-.1,1.56,1.56,0,0,0-.27-.2c-.07,0-.09-.07-.07-.12a1,1,0,0,0-.26-.15c-.06,0-.07-.06,0-.15h-.16l-.16-.09a.3.3,0,0,1-.11-.12s-.08-.06-.16,0a.22.22,0,0,0-.13-.12c-.06,0-.09-.06-.09-.15a.23.23,0,0,1-.18-.07.29.29,0,0,0-.16-.1,1,1,0,0,0-.28-.34l-.38-.29-.16-.11a.51.51,0,0,1-.13-.13.72.72,0,0,1-.13-.2l-.13-.24a1.28,1.28,0,0,1-.2-.26.35.35,0,0,0-.07-.11.71.71,0,0,1-.22-.17l0-.07L41.44,29a.52.52,0,0,1-.08-.28l-.1-.13-.1-.13a.18.18,0,0,0,0-.2.43.43,0,0,1-.08-.2,1.72,1.72,0,0,1,0-.43,1.78,1.78,0,0,0,0-.43,1.11,1.11,0,0,0-.2-.39.54.54,0,0,0,0-.34l-.11-.12a.83.83,0,0,0-.12-.56.63.63,0,0,0,0-.51.64.64,0,0,1,0-.49.28.28,0,0,0,0-.17,1.51,1.51,0,0,1,0-.22,1.53,1.53,0,0,1,0-.51.17.17,0,0,0,0-.16.54.54,0,0,1-.08-.18.73.73,0,0,1,0-.33,1.33,1.33,0,0,0,.06-.38.56.56,0,0,0,0-.17.22.22,0,0,1,0-.15.24.24,0,0,1,0-.16.45.45,0,0,0,.07-.13,2.09,2.09,0,0,1,0-.5,2.21,2.21,0,0,0,0-.5c.11-.15.16-.24.13-.28a.3.3,0,0,1,0-.16,2.19,2.19,0,0,0,.24-.61,1.37,1.37,0,0,0,0-.18.33.33,0,0,1,0-.16,1.16,1.16,0,0,0,.06-.38.48.48,0,0,1,0-.23.52.52,0,0,1,.15-.32,3.8,3.8,0,0,1-.09-.38.64.64,0,0,1,.06-.4.64.64,0,0,1,.28-.09.63.63,0,0,0,.28-.08.2.2,0,0,0,.17,0c.08,0,.12,0,.12.09a2.34,2.34,0,0,0,.37-.09.57.57,0,0,1,.2,0H43a2.89,2.89,0,0,0,.46,0,1.91,1.91,0,0,1,.18.42,2.75,2.75,0,0,1,.06.39,5.43,5.43,0,0,1,0,.83c0,.29,0,.59,0,.9a.65.65,0,0,0,0,.18.7.7,0,0,1,0,.18c0,.1,0,.2,0,.29s0,.2,0,.32a1.34,1.34,0,0,0,0,.32,3.74,3.74,0,0,1,.08.61c0,.18,0,.3,0,.37a.66.66,0,0,0,0,.38.48.48,0,0,1,0,.38,1.05,1.05,0,0,1,.2.63q0,.37,0,.78a2,2,0,0,0,.07.33,1.31,1.31,0,0,1,0,.38.51.51,0,0,0,0,.29.52.52,0,0,1,0,.17c0,.18,0,.36,0,.54a1.34,1.34,0,0,0,0,.51,1.8,1.8,0,0,0,.06.2,2,2,0,0,0,.09.2,1.48,1.48,0,0,1,.07.24.32.32,0,0,0,.07.17l.1.12.1.1.3.37a.59.59,0,0,0,.26.17.31.31,0,0,0,0,.16.65.65,0,0,1,.06.13l.18,0,.21,0a.31.31,0,0,0,.15.15.33.33,0,0,1,.15.15.53.53,0,0,1,.39.15.37.37,0,0,1,.29,0,.82.82,0,0,0,.37.07l.2,0,.2,0,.73-.1a1.38,1.38,0,0,0,.54-.17.74.74,0,0,1,.16-.16l.11-.08.26-.34.21-.27a1,1,0,0,0,.22-.27l.11-.21a.57.57,0,0,1,.16-.18,1.12,1.12,0,0,1,.11-.43,3.08,3.08,0,0,1,.21-.33,2.53,2.53,0,0,1,0-.27.27.27,0,0,1,.11-.2.16.16,0,0,1,0-.17.31.31,0,0,0,0-.22.3.3,0,0,1,.07-.12.58.58,0,0,0,.1-.15.23.23,0,0,0,0-.13.13.13,0,0,1,.06-.13A1.2,1.2,0,0,1,50.5,25a6.23,6.23,0,0,1,.11-.71.65.65,0,0,1,.07-.21.37.37,0,0,0,0-.18,2,2,0,0,1,0-.38l0-.21a1,1,0,0,0,0-.22.88.88,0,0,1,0-.22.56.56,0,0,1,0-.16.69.69,0,0,0,0-.18,1.43,1.43,0,0,0,0-.27l0-.24a.65.65,0,0,1,0-.18.79.79,0,0,0,0-.21.71.71,0,0,0,0-.26,1.53,1.53,0,0,1,0-.28.65.65,0,0,1,0-.18.79.79,0,0,0,0-.21,1.19,1.19,0,0,0,0-.16,1,1,0,0,1,0-.16.64.64,0,0,1,0-.24.32.32,0,0,0,0-.24c-.07-.08-.09-.14-.07-.17a.11.11,0,0,0,0-.1,1.15,1.15,0,0,1-.07-.17l0-.12a.38.38,0,0,1,0-.1.81.81,0,0,0,0-.28.57.57,0,0,1,0-.16,1,1,0,0,1,0-.28l0-.11a.53.53,0,0,1,.27-.21,1.76,1.76,0,0,1,.37-.08l.42,0,.42,0A1.2,1.2,0,0,1,52.5,18a.42.42,0,0,0,.18,0L53,17.9a.4.4,0,0,1,.35.1.63.63,0,0,1,.43-.13.44.44,0,0,1,.35.18.43.43,0,0,1,.09.17,2.22,2.22,0,0,0,.06.24l0,.18a.87.87,0,0,1,0,.23.62.62,0,0,0,0,.29A1.17,1.17,0,0,1,54.37,19.49Z"/><path class="cls-5" d="M64.11,20.15a1.12,1.12,0,0,0,0,.34.23.23,0,0,1,0,.15.35.35,0,0,1-.17.23.84.84,0,0,0-.22.16.54.54,0,0,0-.44,0l-.39.12h-.32a.92.92,0,0,0-.37.07,1.37,1.37,0,0,1-.32.1.49.49,0,0,1-.22,0,.29.29,0,0,0-.22,0,.84.84,0,0,0-.06.48,1.66,1.66,0,0,1,0,.52,2.34,2.34,0,0,0,0,.62,2.66,2.66,0,0,1,0,.43c0,.15,0,.29,0,.42a.63.63,0,0,0,.08.37.9.9,0,0,0-.08.35c0,.14,0,.27,0,.4a3.06,3.06,0,0,0,0,.78,7.25,7.25,0,0,1,0,.78c0,.11,0,.22,0,.31s0,.18,0,.28a.46.46,0,0,0,0,.24.23.23,0,0,1,0,.1,4,4,0,0,0,0,.56,6.27,6.27,0,0,1,0,.66,1.49,1.49,0,0,1,0,.32.7.7,0,0,0,0,.17c0,.13,0,.27.06.42a.56.56,0,0,1-.13.44.25.25,0,0,0,0,.13.73.73,0,0,1,.06.13.51.51,0,0,0,0,.29.5.5,0,0,1,0,.15,1.46,1.46,0,0,0,0,.45l0,.35a1.23,1.23,0,0,1-.32,1l-.62-.1a2,2,0,0,0-.62,0l-.29.06a.58.58,0,0,1-.34,0,.45.45,0,0,0-.17.06.24.24,0,0,1-.15,0,.17.17,0,0,1-.17,0,.36.36,0,0,0-.17-.1,3,3,0,0,1,0-.73,6.92,6.92,0,0,0,0-.93.79.79,0,0,0,0-.21c0-.06,0-.13,0-.21a1.64,1.64,0,0,1,0-.35,2.07,2.07,0,0,0,0-.38.57.57,0,0,1,0-.16.6.6,0,0,0,0-.16c0-.06,0-.1,0-.11s0-.06,0-.16a2.69,2.69,0,0,1,.06-.59c0-.18.08-.36.11-.54a2.84,2.84,0,0,1,0-.43v-.23a1.92,1.92,0,0,0-.07-.22.64.64,0,0,1,0-.24.69.69,0,0,1,0-.15.33.33,0,0,0,0-.17,4.29,4.29,0,0,1,0-.74,3.6,3.6,0,0,0,0-.65,1.72,1.72,0,0,1-.07-.43,1.5,1.5,0,0,0,0-.28c0-.11,0-.24,0-.37a2.41,2.41,0,0,1,0-.42.53.53,0,0,1,0-.17.56.56,0,0,0,0-.17.65.65,0,0,0,0-.22.6.6,0,0,1,0-.22,2.43,2.43,0,0,1,0-.42,2.63,2.63,0,0,0,0-.42l0-.16a.57.57,0,0,1,0-.16,1.24,1.24,0,0,1,0-.46.91.91,0,0,0,0-.44,6.93,6.93,0,0,0-.78.2l-.18,0L57.1,21l-.32.1a.26.26,0,0,1-.27-.07,1,1,0,0,1-.27-.32.44.44,0,0,1,.06-.32,1.82,1.82,0,0,1,.21-.24q0-.1,0-.15a.34.34,0,0,0,.07-.17.92.92,0,0,0,0-.26.67.67,0,0,1,0-.28,1.35,1.35,0,0,1,.12-.27.77.77,0,0,0,.1-.24.83.83,0,0,0,0-.34.6.6,0,0,1,0-.34q.07-.41.61-.32l.27.07a.23.23,0,0,1,.17.15.5.5,0,0,1,.33,0,.54.54,0,0,0,.3.07.84.84,0,0,0,.15-.59,6.13,6.13,0,0,1,0-.78.79.79,0,0,0,0-.32l0-.2a1.89,1.89,0,0,1,0-.68l0-.16a.6.6,0,0,0,0-.16.76.76,0,0,0-.07-.34.49.49,0,0,0,0-.22l-.07-.12-.06-.09a.18.18,0,0,1,0-.13c.11-.11.2-.17.24-.16h.2l.33-.07a1,1,0,0,1,.35,0,.73.73,0,0,1,.34,0l.27.06a.52.52,0,0,0,.17-.07l.15-.07a.23.23,0,0,0,.2,0,.13.13,0,0,1,.17.06,1.06,1.06,0,0,0,.17.21.11.11,0,0,1,0,.09,1.71,1.71,0,0,1,0,.55q0,.35-.06.62a1.24,1.24,0,0,1,0,.23V16a1.11,1.11,0,0,1,0,.2,1,1,0,0,0,0,.17.84.84,0,0,1,.06.33.3.3,0,0,0,0,.16,1.42,1.42,0,0,0,.07.3c0,.09,0,.19-.12.31a.57.57,0,0,1,0,.28c0,.09,0,.19,0,.31a1.45,1.45,0,0,0,0,.17,1.29,1.29,0,0,1,0,.17.48.48,0,0,1,0,.22.25.25,0,0,0,0,.22.48.48,0,0,0,.34-.07,1.28,1.28,0,0,1,.29-.15.78.78,0,0,1,.31,0,.41.41,0,0,0,.3-.11.21.21,0,0,0,.27,0,.16.16,0,0,1,.24,0,.77.77,0,0,1,.42-.22.82.82,0,0,1,.49,0,1.59,1.59,0,0,0,.15.26l.07.11a.2.2,0,0,1,0,.13.34.34,0,0,0,0,.18.74.74,0,0,1,0,.26.58.58,0,0,0,0,.11,1.7,1.7,0,0,0,.07.32,2.41,2.41,0,0,1,.07.27Z"/><path class="cls-5" d="M79.85,19.49a1,1,0,0,1,0,.28,1,1,0,0,0,0,.3c0,.08,0,.17,0,.27s0,.19,0,.27a2.78,2.78,0,0,1,0,.49,5.45,5.45,0,0,0-.07.59,2.75,2.75,0,0,0,0,.45,1.07,1.07,0,0,1-.09.45,1.65,1.65,0,0,1,0,.46q0,.27,0,.61a.65.65,0,0,0,0,.18.7.7,0,0,1,0,.18.33.33,0,0,0,0,.21.14.14,0,0,1,0,.11.64.64,0,0,1,0,.26,1,1,0,0,0-.07.23.51.51,0,0,0,0,.2,1.65,1.65,0,0,1,0,.2l0,.2c0,.07,0,.14,0,.22s-.06.41-.07.63a4.3,4.3,0,0,1-.1.66,1.39,1.39,0,0,0-.15.42,2.63,2.63,0,0,1-.07.34l-.09.27-.08.29a3.66,3.66,0,0,0-.12.4l-.12.48,0,.15a1.4,1.4,0,0,1-.07.17l-.09.22a1.79,1.79,0,0,1-.08.2.5.5,0,0,0-.1.2.1.1,0,0,1,0,.07l-.15.13a.12.12,0,0,0,0,.06,1.89,1.89,0,0,0-.18.28,3.05,3.05,0,0,1-.21.33.7.7,0,0,0-.2.27l-.24.28a3.11,3.11,0,0,1-.29.28.57.57,0,0,1-.18.16l-.21.13-.29.31a.71.71,0,0,1-.2.16.93.93,0,0,1-.56.12.92.92,0,0,1-.55.32l-.72.15a.56.56,0,0,1-.27-.24.27.27,0,0,0-.17.09.21.21,0,0,1-.17.06.5.5,0,0,1-.21,0,.48.48,0,0,0-.18,0,.61.61,0,0,1-.32.06l-.44-.06h-.23a.46.46,0,0,1-.21,0,1.72,1.72,0,0,0-.85-.2.29.29,0,0,0-.21-.15.76.76,0,0,1-.26-.1,1.56,1.56,0,0,0-.27-.2c-.07,0-.09-.07-.07-.12A1,1,0,0,0,70,32c-.06,0-.07-.06,0-.15h-.16l-.16-.09a.3.3,0,0,1-.11-.12s-.08-.06-.16,0a.22.22,0,0,0-.13-.12c-.06,0-.09-.06-.09-.15a.23.23,0,0,1-.18-.07.29.29,0,0,0-.16-.1,1,1,0,0,0-.28-.34l-.38-.29L68,30.39a.51.51,0,0,1-.13-.13.72.72,0,0,1-.13-.2l-.13-.24a1.28,1.28,0,0,1-.2-.26.35.35,0,0,0-.07-.11.71.71,0,0,1-.22-.17l0-.07L66.93,29a.52.52,0,0,1-.08-.28l-.1-.13-.1-.13a.18.18,0,0,0,0-.2.43.43,0,0,1-.08-.2,1.72,1.72,0,0,1,0-.43,1.78,1.78,0,0,0,0-.43,1.11,1.11,0,0,0-.2-.39.54.54,0,0,0,0-.34l-.11-.12a.83.83,0,0,0-.12-.56.63.63,0,0,0,0-.51.64.64,0,0,1,0-.49.28.28,0,0,0,0-.17,1.51,1.51,0,0,1,0-.22,1.53,1.53,0,0,1,0-.51.17.17,0,0,0,0-.16.54.54,0,0,1-.08-.18.73.73,0,0,1,0-.33,1.33,1.33,0,0,0,.06-.38.56.56,0,0,0,0-.17.22.22,0,0,1,0-.15.24.24,0,0,1,0-.16.45.45,0,0,0,.07-.13,2.09,2.09,0,0,1,0-.5,2.21,2.21,0,0,0,0-.5c.11-.15.16-.24.13-.28a.3.3,0,0,1,0-.16,2.19,2.19,0,0,0,.24-.61,1.37,1.37,0,0,0,0-.18.33.33,0,0,1,0-.16,1.16,1.16,0,0,0,.06-.38.48.48,0,0,1,0-.23.52.52,0,0,1,.15-.32,3.8,3.8,0,0,1-.09-.38.64.64,0,0,1,.06-.4.64.64,0,0,1,.28-.09.63.63,0,0,0,.28-.08.2.2,0,0,0,.17,0c.08,0,.12,0,.12.09a2.34,2.34,0,0,0,.37-.09.57.57,0,0,1,.2,0h.51a2.89,2.89,0,0,0,.46,0,1.91,1.91,0,0,1,.18.42,2.75,2.75,0,0,1,.06.39,5.43,5.43,0,0,1,0,.83c0,.29,0,.59,0,.9a.65.65,0,0,0,0,.18.7.7,0,0,1,0,.18c0,.1,0,.2,0,.29s0,.2,0,.32a1.34,1.34,0,0,0,0,.32,3.74,3.74,0,0,1,.08.61c0,.18,0,.3,0,.37a.66.66,0,0,0,0,.38.48.48,0,0,1,0,.38,1.05,1.05,0,0,1,.2.63q0,.37,0,.78a2,2,0,0,0,.07.33,1.31,1.31,0,0,1,0,.38.51.51,0,0,0,0,.29.52.52,0,0,1,0,.17c0,.18,0,.36,0,.54a1.34,1.34,0,0,0,0,.51,1.8,1.8,0,0,0,.06.2,2,2,0,0,0,.09.2,1.48,1.48,0,0,1,.07.24.32.32,0,0,0,.07.17l.1.12.1.1.3.37a.59.59,0,0,0,.26.17.31.31,0,0,0,0,.16.65.65,0,0,1,.06.13l.18,0,.21,0a.31.31,0,0,0,.15.15.33.33,0,0,1,.15.15.53.53,0,0,1,.39.15.37.37,0,0,1,.29,0,.82.82,0,0,0,.37.07l.2,0,.2,0,.73-.1a1.38,1.38,0,0,0,.54-.17.74.74,0,0,1,.16-.16l.11-.08.26-.34.21-.27a1,1,0,0,0,.22-.27L75.2,28a.57.57,0,0,1,.16-.18,1.12,1.12,0,0,1,.11-.43,3.08,3.08,0,0,1,.21-.33,2.53,2.53,0,0,1,0-.27.27.27,0,0,1,.11-.2.16.16,0,0,1,0-.17.31.31,0,0,0,0-.22A.3.3,0,0,1,75.9,26a.58.58,0,0,0,.1-.15.23.23,0,0,0,0-.13.13.13,0,0,1,.06-.13A1.2,1.2,0,0,1,76,25a6.23,6.23,0,0,1,.11-.71.65.65,0,0,1,.07-.21.37.37,0,0,0,0-.18,2,2,0,0,1,0-.38l0-.21a1,1,0,0,0,0-.22.88.88,0,0,1,0-.22.56.56,0,0,1,0-.16.69.69,0,0,0,0-.18,1.43,1.43,0,0,0,0-.27l0-.24a.65.65,0,0,1,0-.18.79.79,0,0,0,0-.21.71.71,0,0,0,0-.26,1.53,1.53,0,0,1,0-.28.65.65,0,0,1,0-.18.79.79,0,0,0,0-.21,1.19,1.19,0,0,0,0-.16,1,1,0,0,1,0-.16.64.64,0,0,1,0-.24.32.32,0,0,0,0-.24c-.07-.08-.09-.14-.07-.17a.11.11,0,0,0,0-.1,1.15,1.15,0,0,1-.07-.17l0-.12a.38.38,0,0,1,0-.1.81.81,0,0,0,0-.28.57.57,0,0,1,0-.16,1,1,0,0,1,0-.28l0-.11a.53.53,0,0,1,.27-.21,1.76,1.76,0,0,1,.37-.08l.42,0,.42,0A1.2,1.2,0,0,1,78,18a.42.42,0,0,0,.18,0l.31-.07a.4.4,0,0,1,.35.1.63.63,0,0,1,.43-.13.44.44,0,0,1,.35.18.43.43,0,0,1,.09.17,2.22,2.22,0,0,0,.06.24l0,.18a.87.87,0,0,1,0,.23.62.62,0,0,0,0,.29A1.17,1.17,0,0,1,79.85,19.49Z"/><path class="cls-5" d="M97.75,25.52a4.47,4.47,0,0,1,0,.65c0,.2,0,.41,0,.62a.77.77,0,0,0,0,.32.42.42,0,0,1,0,.12l-.06.15a1.55,1.55,0,0,0-.06.2,3,3,0,0,0-.07.42c0,.15,0,.3-.07.46a.88.88,0,0,1-.07.22l-.1.2a2.83,2.83,0,0,1-.16.45,3.39,3.39,0,0,1-.16.31.94.94,0,0,0-.06.21c0,.06-.05.09-.13.11a.49.49,0,0,1-.12.38.55.55,0,0,0-.15.38l-.17.23a.71.71,0,0,0-.1.31.5.5,0,0,0-.2.13l-.15.16-.45.39a3.19,3.19,0,0,0-.43.44.55.55,0,0,0-.44.32.68.68,0,0,0-.44.2q-.22-.07-.23,0a.12.12,0,0,1-.06.08l-.34.11-.2.08-.34.12-.22.07a.67.67,0,0,1-.26,0h-.13a1.91,1.91,0,0,0-.38,0l-.33,0-.39.07a1.68,1.68,0,0,1-.49,0,1.35,1.35,0,0,1-.34-.08l-.22-.09a.81.81,0,0,1-.38,0l-.35-.06a1.2,1.2,0,0,0-.34-.11l-.24,0-.28,0L88.35,33a.3.3,0,0,0-.13,0,.31.31,0,0,1-.13,0,1.8,1.8,0,0,0-.43-.18.35.35,0,0,1-.23-.16,2.09,2.09,0,0,0-.56-.11c-.18,0-.29-.07-.32-.18a.42.42,0,0,1-.39,0,1.71,1.71,0,0,1-.32-.24.56.56,0,0,0-.08.35,3.74,3.74,0,0,0,0,.43c0,.15,0,.29,0,.44a.82.82,0,0,1-.09.42,2.3,2.3,0,0,0,.12.33.31.31,0,0,1,0,.33,1.61,1.61,0,0,1,.13.45c0,.11,0,.21,0,.3s0,.12-.08.11a.11.11,0,0,0-.13.09,2.17,2.17,0,0,1,.17.72,3.26,3.26,0,0,0,.1.65.49.49,0,0,0,.07.29.57.57,0,0,0,.16.29.4.4,0,0,1,.13.24v.21a.26.26,0,0,1,0,.18.46.46,0,0,1-.27.18.37.37,0,0,1-.37-.09,5.78,5.78,0,0,0-1,.22,4.52,4.52,0,0,1-.94.2,1.57,1.57,0,0,1-.27.17.76.76,0,0,1-.34.07.42.42,0,0,1-.11.17l-.11.1c-.11,0-.18.06-.2.1a.08.08,0,0,1-.07,0,.53.53,0,0,1-.26-.06l-.23-.11a1.21,1.21,0,0,0-.08-.26.21.21,0,0,1,0-.11s0-.11,0-.22,0-.22,0-.32,0-.16,0-.22a.38.38,0,0,1,.06-.17.7.7,0,0,1-.07-.32,2.11,2.11,0,0,1,0-.59c0-.21.08-.42.11-.63v-.63l.1-.59q0-.29.1-.56a.18.18,0,0,1,0-.16.61.61,0,0,0,0-.16,2,2,0,0,1,0-.31,2.42,2.42,0,0,0,0-.35.23.23,0,0,1,0-.17.23.23,0,0,0,0-.1.43.43,0,0,0,0-.2.43.43,0,0,1,0-.2s0-.09,0-.18a2.29,2.29,0,0,1,0-.26,1.4,1.4,0,0,0,.07-.17l.07-.2a2.87,2.87,0,0,1,0-.53V30.18c0-.08,0-.17.06-.27a1.25,1.25,0,0,0,0-.29.65.65,0,0,0,0-.22.6.6,0,0,1,0-.22.79.79,0,0,1,0-.2.83.83,0,0,0,0-.2,1.36,1.36,0,0,0,0-.15,1.16,1.16,0,0,1,0-.15l.08-.51a2.71,2.71,0,0,0,0-.46.78.78,0,0,0,0-.18v-.16c0-.2,0-.38,0-.56V26a.7.7,0,0,0,0-.34.57.57,0,0,1,0-.2,1,1,0,0,0,0-.35.25.25,0,0,1,0-.16,2,2,0,0,1,0-.39,1.12,1.12,0,0,0,0-.3.31.31,0,0,1,.09-.28.18.18,0,0,1,0-.13.26.26,0,0,0,0-.13,2,2,0,0,0,0-.38.81.81,0,0,0,0-.16,1,1,0,0,1,0-.17.93.93,0,0,0,0-.15l-.06-.27a2.73,2.73,0,0,1-.06-.32,6.32,6.32,0,0,1,0-.89,4.48,4.48,0,0,0,0-.87,1,1,0,0,0,0-.37l0-.24a4,4,0,0,0-.1-.62q-.07-.31-.12-.6a.89.89,0,0,1,.29-.23.33.33,0,0,1,.37.06,1.42,1.42,0,0,0,.65.09,3.37,3.37,0,0,0,.55-.11.6.6,0,0,0,.27,0s0,0,0,0l.29,0,.17,0a.78.78,0,0,1,.51.32.68.68,0,0,0,0,.28.68.68,0,0,1,0,.28.48.48,0,0,1,0,.15l0,.15a.44.44,0,0,0,0,.21.36.36,0,0,1,0,.18l-.1.22a.48.48,0,0,0,0,.22,1,1,0,0,0,.22-.12.55.55,0,0,1,.24-.1,1,1,0,0,1,.38-.31,1.81,1.81,0,0,0,.43-.28c.15,0,.24,0,.29,0a.3.3,0,0,0,.15-.16.39.39,0,0,1,.15-.18.55.55,0,0,1,.18-.07.86.86,0,0,0,.21-.07l.21-.07a.36.36,0,0,0,.18-.1.23.23,0,0,0,.22,0l.22-.11a1.79,1.79,0,0,1,.46-.1.63.63,0,0,1,.23,0l.23,0,.42-.1a2.4,2.4,0,0,1,.51,0,.93.93,0,0,1,.26,0l.31.06.55.07a.79.79,0,0,1,.45.2,1.77,1.77,0,0,1,.33,0,.24.24,0,0,1,.13.06.21.21,0,0,0,.1.06l.1,0,.07,0,.18.18a.42.42,0,0,0,.11.08.39.39,0,0,0,.17.06.39.39,0,0,1,.17.06,1.84,1.84,0,0,1,.37.16,1.12,1.12,0,0,0,.46.13.75.75,0,0,0,.16.12l.18.12.12.1.17.1.27.16a.19.19,0,0,0,.12,0,2.48,2.48,0,0,0,.24.26l.12.11a.71.71,0,0,0,.17.2l.07,0,.12.21a.67.67,0,0,0,.17.18.69.69,0,0,1,.16.17,2,2,0,0,1,.13.22l.2.2.21.23a1.57,1.57,0,0,1,.18.28,1.41,1.41,0,0,0,.12.27l.07.12A1,1,0,0,1,97,23a.22.22,0,0,0,.06.12l.1.08a.41.41,0,0,1,.1.13.77.77,0,0,0,.12.24.14.14,0,0,1,0,.1,1.94,1.94,0,0,0,0,.28.61.61,0,0,1,0,.11,1.46,1.46,0,0,1,.07.17l0,.15a.67.67,0,0,1,0,.28.25.25,0,0,0,.08.26.52.52,0,0,0,0,.32A1,1,0,0,1,97.75,25.52Zm-3.12-.32a1.63,1.63,0,0,1-.06-.22.62.62,0,0,0-.06-.17c0-.11-.07-.22-.11-.33a.9.9,0,0,1-.06-.33.76.76,0,0,1-.24-.46.63.63,0,0,1-.22-.24,1.57,1.57,0,0,0-.17-.27l-.2-.24a.85.85,0,0,1-.15-.27,1.51,1.51,0,0,1-.35-.24,2.41,2.41,0,0,1-.26-.27.65.65,0,0,1-.17-.13l-.1-.11-.32-.15a.29.29,0,0,1-.12-.07.52.52,0,0,0-.29-.11.14.14,0,0,1-.15-.09,2.28,2.28,0,0,1-.63,0,1.67,1.67,0,0,0-.61,0l-.15-.09a.3.3,0,0,1-.12-.11l-.13-.11a.19.19,0,0,0-.18,0l-.35.13a.36.36,0,0,0-.16.11.79.79,0,0,0-.15.13l0,.06-.18.09-.11.06a.78.78,0,0,1-.43.23.48.48,0,0,0-.35.23c-.07,0-.11,0-.13,0a.18.18,0,0,1-.16.06.45.45,0,0,1-.15.2l-.17.12a.66.66,0,0,0-.13.12.12.12,0,0,1-.16,0A.42.42,0,0,1,87,23a.61.61,0,0,1-.21.13.2.2,0,0,1-.1.18.25.25,0,0,0-.1.23,2.9,2.9,0,0,0-.26.32,1.44,1.44,0,0,0-.11.22,1.56,1.56,0,0,1-.21.38.44.44,0,0,0-.09.38q0,.29-.1.51a1.43,1.43,0,0,0,0,.46.48.48,0,0,0,0,.18.39.39,0,0,1,0,.16.44.44,0,0,1,0,.16.36.36,0,0,0,0,.13,1.3,1.3,0,0,0,0,.37,1.34,1.34,0,0,1,0,.37.45.45,0,0,1,0,.18.35.35,0,0,0,0,.21,3.6,3.6,0,0,1,.17.34,2.52,2.52,0,0,1,.12.37.89.89,0,0,1,.27.31,1.7,1.7,0,0,1,.15.38.87.87,0,0,1,.26.21,2.45,2.45,0,0,0,.21.23l.56.11a1.28,1.28,0,0,1,.44.16.84.84,0,0,1,.18.15.23.23,0,0,0,.09.07,1.94,1.94,0,0,0,.65.11,2.3,2.3,0,0,1,.53,0,1.19,1.19,0,0,0,.29.13l.12,0a.64.64,0,0,0,.33,0,1,1,0,0,1,.26,0c.13,0,.21,0,.24,0a.16.16,0,0,1,.1,0,.36.36,0,0,1,.18,0,.19.19,0,0,0,.13,0l.35-.12a.51.51,0,0,0,.18-.07l.51-.15a1.18,1.18,0,0,0,.44-.24.56.56,0,0,0,.32-.13.42.42,0,0,1,.34-.08c0-.08,0-.13,0-.16a.31.31,0,0,0,.12-.11.19.19,0,0,0,.13-.1.19.19,0,0,1,.13-.1.57.57,0,0,1,.16-.29.78.78,0,0,0,.18-.24,1,1,0,0,1,.18-.34.85.85,0,0,0,.16-.24.78.78,0,0,0,0-.3,1.22,1.22,0,0,1,0-.31,1.79,1.79,0,0,1,.07-.29,1,1,0,0,0,0-.32c0-.21.06-.46.07-.74A2.34,2.34,0,0,0,94.62,25.2Z"/></g></g></svg>