<svg xmlns="http://www.w3.org/2000/svg" viewBox="0 0 92 65.01"><defs><style>.cls-1{fill:#ffc849;}.cls-2{fill:#efb33c;}.cls-3{fill:#6c4735;}.cls-4{fill:#fff;}</style></defs><title>Asset 24</title><g id="Layer_2" data-name="Layer 2"><g id="Layer_1-2" data-name="Layer 1"><path class="cls-1" d="M90,35V30A10.53,10.53,0,0,0,79.47,19.43H57.73V13.16A11.14,11.14,0,0,0,41,3.51L7.57,22.86a11.14,11.14,0,0,0,0,19.29L41,61.5a11.14,11.14,0,0,0,16.7-9.65V45.58H79.47A10.53,10.53,0,0,0,90,35Z"/><path class="cls-2" d="M89,35V30a10.47,10.47,0,0,0-3.1-7.46A10.14,10.14,0,0,1,86,24V29A10.53,10.53,0,0,1,75.48,39.58H53.73v6.27A11.13,11.13,0,0,1,37,55.5L3.57,36.15a11.33,11.33,0,0,1-2.42-1.86,10.93,10.93,0,0,0,5.41,7.86L40,61.49a11.13,11.13,0,0,0,16.7-9.65V45.58H78.47A10.53,10.53,0,0,0,89,35Z"/><path class="cls-3" d="M46.59,65A13.11,13.11,0,0,1,40,63.23L6.57,43.88a13.14,13.14,0,0,1,0-22.76L40,1.78a13.14,13.14,0,0,1,19.7,11.39v4.26H79.47A12.55,12.55,0,0,1,92,30V35A12.55,12.55,0,0,1,79.47,47.58H59.73v4.26A13.19,13.19,0,0,1,46.59,65Zm0-61A9.1,9.1,0,0,0,42,5.24L8.57,24.59a9.14,9.14,0,0,0,0,15.83L42,59.77a9.14,9.14,0,0,0,13.7-7.92V43.58H79.47A8.54,8.54,0,0,0,88,35V30a8.54,8.54,0,0,0-8.53-8.54H55.73V13.17A9.17,9.17,0,0,0,46.59,4Z"/><path class="cls-4" d="M43.89,9.65,31.46,18c-1.6,1.07-.1,3.67,1.51,2.59L45.4,12.24c1.6-1.07.1-3.67-1.51-2.59Z"/><path class="cls-4" d="M26.75,20.91A3.69,3.69,0,0,0,24,22a1.5,1.5,0,1,0,2.12,2.12.79.79,0,0,1,.28-.2c-.14.07.24-.06.07,0s.25,0,.26,0a1.51,1.51,0,0,0,1.5-1.5,1.53,1.53,0,0,0-1.5-1.5Z"/><path class="cls-4" d="M81.52,38.06a4.55,4.55,0,0,0-2.09-4.28,1.5,1.5,0,1,0-1.51,2.59,1.55,1.55,0,0,1,.6,1.69,1.51,1.51,0,0,0,1.5,1.5,1.54,1.54,0,0,0,1.5-1.5Z"/><path class="cls-4" d="M74.12,38.46a7.94,7.94,0,0,0-.27-3.81,1.54,1.54,0,0,0-1.85-1,1.51,1.51,0,0,0-1,1.85,4.7,4.7,0,0,1,.27,2.21,1.55,1.55,0,0,0,1,1.85,1.51,1.51,0,0,0,1.85-1Z"/></g></g></svg>