<svg xmlns="http://www.w3.org/2000/svg" viewBox="0 0 71.44 113.21"><defs><style>.cls-1{fill:#964e35;}.cls-2{fill:#6c4735;}.cls-3{fill:#bdd344;}.cls-4{fill:#72a03d;}.cls-5{fill:#e58a5d;}.cls-6{fill:#d3774f;}.cls-7{fill:#c06272;}.cls-8{fill:#ad5366;}.cls-9{fill:#fcd3dd;}.cls-10{fill:#e5b5c3;}.cls-11{fill:#a96540;}.cls-12{fill:#9b5537;}.cls-13{fill:#fff;}</style></defs><title>Asset 8</title><g id="Layer_2" data-name="Layer 2"><g id="Layer_1-2" data-name="Layer 1"><path class="cls-1" d="M62.2,71.61C62.2,74.6,50,77,34.93,77S7.66,74.6,7.66,71.61a1,1,0,0,1,.08-.4c1-2.8,12.8-5,27.19-5s26.17,2.22,27.19,5A1,1,0,0,1,62.2,71.61Z"/><path class="cls-2" d="M34.93,79C30,79,5.66,78.66,5.66,71.61a3,3,0,0,1,.23-1.16c2.41-6.08,26.31-6.26,29-6.26s26.63.18,29,6.26a3,3,0,0,1,.23,1.16C64.2,78.66,39.82,79,34.93,79ZM10,71.61C12.22,73,20.68,75,34.93,75S57.64,73,59.82,71.61c-2.17-1.35-10.64-3.42-24.89-3.42S12.21,70.26,10,71.61Z"/><path class="cls-3" d="M65.59,47.82a2.58,2.58,0,0,0-2.45-1.19A32.57,32.57,0,0,0,51.8,51.22a17.62,17.62,0,0,0-1.65-6.9,13,13,0,0,0-10.68-7.26,2.58,2.58,0,0,0-2.54,1C26.91,55.37,36,63.57,40,66L43.42,68a3,3,0,0,0,1.43.41l.7,3.31A3,3,0,0,0,49.33,74c8.1-2.22,15.36-6.39,18.19-13.45A13,13,0,0,0,65.59,47.82Z"/><path class="cls-4" d="M67.51,59.59C64.69,66.65,57.43,70.82,49.32,73a3,3,0,0,1-3.77-2.3l-.7-3.31A3,3,0,0,1,43.42,67L40,65a15.64,15.64,0,0,1-7.48-15.58A15.56,15.56,0,0,0,40,61L43.42,63a3,3,0,0,0,1.43.41l.7,3.31A3,3,0,0,0,49.32,69c8.11-2.22,15.37-6.39,18.19-13.45a12.6,12.6,0,0,0,.75-2.68A12.25,12.25,0,0,1,67.51,59.59Z"/><path class="cls-2" d="M48,75.14a4.53,4.53,0,0,1-4.45-3.6l-.49-2.32a4.34,4.34,0,0,1-.94-.42L38.7,66.75c-2.59-1.55-15-10.29-3.57-29.94a4,4,0,0,1,4-1.73A14.61,14.61,0,0,1,51,43.18a18.62,18.62,0,0,1,1.55,5,37.34,37.34,0,0,1,9.75-3.53,4,4,0,0,1,4,1.76h0a14.62,14.62,0,0,1,2.11,14.22C65.73,67.32,59.1,72.28,49.22,75A4.52,4.52,0,0,1,48,75.14ZM38.57,38a1.11,1.11,0,0,0-.85.26c-9.72,16.79-.53,24,2.52,25.86l3.45,2.06a1.5,1.5,0,0,0,.72.2l1.17,0,.94,4.45a1.54,1.54,0,0,0,1.91,1.16c6.23-1.71,14.27-5.27,17.19-12.56a11.48,11.48,0,0,0-1.74-11.31h0a1.3,1.3,0,0,0-.92-.62A31.4,31.4,0,0,0,52.15,52l-2.23,1.53-.11-2.7a16.21,16.21,0,0,0-1.51-6.31,11.48,11.48,0,0,0-9.49-6.41Z"/><path class="cls-3" d="M1.5,37.58a2.58,2.58,0,0,1,1.7-2.13,13,13,0,0,1,12.88.9c6.28,4.29,8.77,12.29,9.17,20.68a3,3,0,0,1-3.06,3.19l-4,0C13.52,60.11,1.55,57.58,1.5,37.58Z"/><path class="cls-4" d="M26.11,59.08a3,3,0,0,1-2.92,2.13l-4-.05C14.52,61.11,2.55,58.58,2.5,38.58a2.58,2.58,0,0,1,1.7-2.13l.33-.14a1.24,1.24,0,0,0,0,.27c0,20,12,22.53,16.67,22.58l4,.05A3.1,3.1,0,0,0,26.11,59.08Z"/><path class="cls-2" d="M22.22,62.21h-.05l-4,0c-3,0-18.1-1.37-18.15-24.08H0a4,4,0,0,1,2.58-3.5,14.63,14.63,0,0,1,14.34,1c5.94,4.06,9.33,11.61,9.82,21.84a4.54,4.54,0,0,1-4.53,4.76ZM3,38.08c0,19.39,11.64,21,15.19,21.08l4,0a1.42,1.42,0,0,0,1.12-.47,1.53,1.53,0,0,0,.43-1.15c-.31-6.45-2-15.08-8.52-19.51a11.49,11.49,0,0,0-11.42-.77c-.52.23-.81.6-.81.76Z"/><rect class="cls-3" x="13.81" y="24.75" width="5.25" height="54.02" rx="2.62" ry="2.62"/><path class="cls-2" d="M16.43,79.77a3.63,3.63,0,0,1-3.62-3.62V27.37a3.62,3.62,0,0,1,7.25,0V76.14A3.63,3.63,0,0,1,16.43,79.77Zm0-54a1.63,1.63,0,0,0-1.62,1.63V76.14a1.62,1.62,0,0,0,3.25,0V27.37A1.63,1.63,0,0,0,16.43,25.75Z"/><path class="cls-5" d="M22.83,4.73,20.95,5.81,19.82,3.87a4.74,4.74,0,0,0-8.21,0l-1,1.65-1.38-.8a4.74,4.74,0,0,0-7.11,4.1v15A13.43,13.43,0,0,0,16.06,37.28,13.43,13.43,0,0,0,29.94,23.86v-15A4.74,4.74,0,0,0,22.83,4.73Z"/><path class="cls-6" d="M29.94,17.85v6A13.44,13.44,0,0,1,16.05,37.28,13.44,13.44,0,0,1,2.17,23.85v-6A13.44,13.44,0,0,0,16.05,31.28,13.44,13.44,0,0,0,29.94,17.85Z"/><path class="cls-2" d="M16.5,38.78h-.44A15.22,15.22,0,0,1,5.18,34.54,14.72,14.72,0,0,1,.67,23.86v-15A6.24,6.24,0,0,1,10,3.43l.08,0,.21-.35a6.24,6.24,0,0,1,10.81,0l.37.64.58-.34a6.24,6.24,0,0,1,9.36,5.4v15a14.72,14.72,0,0,1-4.5,10.69A15.1,15.1,0,0,1,16.5,38.78Zm-.44-3h.05a12.11,12.11,0,0,0,8.74-3.39,11.75,11.75,0,0,0,3.59-8.53v-15A3.24,3.24,0,0,0,23.58,6L20.4,7.86,18.53,4.62a3.24,3.24,0,0,0-5.61,0l-1.71,3L8.53,6A3.24,3.24,0,0,0,3.67,8.83v15a11.75,11.75,0,0,0,3.59,8.53A12,12,0,0,0,16,35.78Z"/><path class="cls-2" d="M10.93,23.21a.5.5,0,0,1-.5-.5v-11a.5.5,0,0,1,1,0v11A.5.5,0,0,1,10.93,23.21Z"/><path class="cls-2" d="M20.43,19.84a.5.5,0,0,1-.5-.5V11.09a.5.5,0,0,1,1,0v8.25A.5.5,0,0,1,20.43,19.84Z"/><path class="cls-2" d="M20.43,27a.5.5,0,0,1-.5-.5V22.81a.5.5,0,0,1,1,0v3.68A.5.5,0,0,1,20.43,27Z"/><rect class="cls-3" x="53.81" y="33.75" width="5.25" height="54.02" rx="2.62" ry="2.62"/><path class="cls-2" d="M56.43,88.77a3.63,3.63,0,0,1-3.62-3.62V36.37a3.63,3.63,0,0,1,7.25,0V85.14A3.63,3.63,0,0,1,56.43,88.77Zm0-54a1.63,1.63,0,0,0-1.62,1.63V85.14a1.63,1.63,0,0,0,3.25,0V36.37A1.63,1.63,0,0,0,56.43,34.75Z"/><path class="cls-7" d="M49.28,20.73l1.88,1.09,1.12-1.94a4.74,4.74,0,0,1,8.21,0l1,1.65,1.38-.8a4.74,4.74,0,0,1,7.11,4.1v15A13.43,13.43,0,0,1,56.06,53.28,13.43,13.43,0,0,1,42.17,39.86v-15A4.74,4.74,0,0,1,49.28,20.73Z"/><path class="cls-8" d="M42.17,33.85v6A13.44,13.44,0,0,0,56.06,53.28,13.44,13.44,0,0,0,69.94,39.85v-6A13.44,13.44,0,0,1,56.06,47.28,13.44,13.44,0,0,1,42.17,33.85Z"/><path class="cls-2" d="M56.5,54.78h-.44a15.21,15.21,0,0,1-10.88-4.23,14.72,14.72,0,0,1-4.5-10.69v-15A6.24,6.24,0,0,1,50,19.43l.58.34.37-.64a6.24,6.24,0,0,1,10.81,0l.21.35.08,0a6.24,6.24,0,0,1,9.36,5.4v15a14.72,14.72,0,0,1-4.5,10.69A15.1,15.1,0,0,1,56.5,54.78Zm-.44-3h.05a12.13,12.13,0,0,0,8.74-3.39,11.75,11.75,0,0,0,3.59-8.53v-15A3.24,3.24,0,0,0,63.58,22L60.9,23.57l-1.71-3a3.24,3.24,0,0,0-5.61,0l-1.87,3.24L48.53,22a3.24,3.24,0,0,0-4.86,2.81v15a11.75,11.75,0,0,0,3.59,8.53A12,12,0,0,0,56,51.78Z"/><path class="cls-2" d="M61.18,39.21a.5.5,0,0,1-.5-.5v-11a.5.5,0,0,1,1,0v11A.5.5,0,0,1,61.18,39.21Z"/><path class="cls-2" d="M51.68,35.84a.5.5,0,0,1-.5-.5V27.09a.5.5,0,0,1,1,0v8.25A.5.5,0,0,1,51.68,35.84Z"/><path class="cls-2" d="M51.68,43a.5.5,0,0,1-.5-.5V38.81a.5.5,0,0,1,1,0v3.68A.5.5,0,0,1,51.68,43Z"/><path class="cls-3" d="M8.46,50.3A2.58,2.58,0,0,0,6.13,51.7a13,13,0,0,0-.76,12.89C8.82,71.37,16.43,74.87,24.7,76.34a3,3,0,0,0,3.55-2.63l.47-4C29.26,65.11,28.29,52.91,8.46,50.3Z"/><path class="cls-4" d="M11.2,55.7a14.65,14.65,0,0,1,4.49,1.93,21.22,21.22,0,0,1,3.76,3,19.1,19.1,0,0,1,3,3.86A12.23,12.23,0,0,1,24,69.17c-1.29-1.09-2.36-2.17-3.46-3.23s-2.15-2.12-3.22-3.19-2.11-2.17-3.14-3.32A36.3,36.3,0,0,1,11.2,55.7Z"/><path class="cls-4" d="M26,76.3a3,3,0,0,1-1.26,0c-8.26-1.47-15.87-5-19.33-11.75a13,13,0,0,1,.76-12.89A2.58,2.58,0,0,1,8.47,50.3l.3,0C7,55.47,4.14,70,26,76.3Z"/><path class="cls-2" d="M25.23,77.89a4.52,4.52,0,0,1-.79-.07C14.36,76,7.3,71.68,4,65.28a14.62,14.62,0,0,1,.82-14.35,4,4,0,0,1,3.81-2.11h0c22.51,3,21.9,18.09,21.55,21.09l-.47,4a4.54,4.54,0,0,1-4.51,4Zm-17-26.11a1.37,1.37,0,0,0-.84.71,11.48,11.48,0,0,0-.71,11.43c3.57,7,11.9,9.82,18.26,11a1.53,1.53,0,0,0,1.19-.28,1.51,1.51,0,0,0,.61-1l.47-4c.41-3.53.27-15.23-19-17.77h0Z"/><rect class="cls-3" x="29.55" y="63.62" width="5.88" height="35.19" rx="2.62" ry="2.62"/><path class="cls-2" d="M32.81,99.8h-.63a3.63,3.63,0,0,1-3.63-3.62V66.24a3.63,3.63,0,0,1,3.63-3.62h.63a3.63,3.63,0,0,1,3.63,3.63V96.18A3.63,3.63,0,0,1,32.81,99.8Zm-.63-35.19a1.63,1.63,0,0,0-1.63,1.63V96.18a1.63,1.63,0,0,0,1.63,1.63h.63a1.63,1.63,0,0,0,1.63-1.62V66.24a1.63,1.63,0,0,0-1.62-1.62Z"/><path class="cls-9" d="M39.33,34.23l-1.88,1.09-1.12-1.94a4.74,4.74,0,0,0-8.21,0l-1,1.65-1.38-.8a4.74,4.74,0,0,0-7.11,4.1v15A13.43,13.43,0,0,0,32.56,66.78,13.43,13.43,0,0,0,46.44,53.36v-15A4.74,4.74,0,0,0,39.33,34.23Z"/><path class="cls-10" d="M46.44,47.35v6A13.44,13.44,0,0,1,32.55,66.78,13.44,13.44,0,0,1,18.67,53.35v-6A13.44,13.44,0,0,0,32.55,60.78,13.44,13.44,0,0,0,46.44,47.35Z"/><path class="cls-2" d="M33,68.28h-.44A15.24,15.24,0,0,1,21.68,64a14.72,14.72,0,0,1-4.5-10.69v-15a6.24,6.24,0,0,1,9.36-5.4l.08,0,.21-.35a6.24,6.24,0,0,1,10.81,0l.37.64.58-.34a6.24,6.24,0,0,1,9.36,5.4v15A14.72,14.72,0,0,1,43.43,64,15.1,15.1,0,0,1,33,68.28Zm-.44-3h.05a12.1,12.1,0,0,0,8.74-3.39,11.75,11.75,0,0,0,3.59-8.53v-15a3.24,3.24,0,0,0-4.86-2.81L36.9,37.36,35,34.12a3.24,3.24,0,0,0-5.61,0l-1.71,3L25,35.53a3.24,3.24,0,0,0-4.86,2.81v15a11.75,11.75,0,0,0,3.59,8.53,12,12,0,0,0,8.74,3.39Z"/><path class="cls-2" d="M27.43,52.71a.5.5,0,0,1-.5-.5v-11a.5.5,0,0,1,1,0v11A.5.5,0,0,1,27.43,52.71Z"/><path class="cls-2" d="M36.93,49.34a.5.5,0,0,1-.5-.5V40.59a.5.5,0,0,1,1,0v8.25A.5.5,0,0,1,36.93,49.34Z"/><path class="cls-2" d="M36.93,56.49a.5.5,0,0,1-.5-.5V52.31a.5.5,0,0,1,1,0V56A.5.5,0,0,1,36.93,56.49Z"/><path class="cls-3" d="M47.74,62.23a2.1,2.1,0,0,1,2,1,10.56,10.56,0,0,1,1.56,10.37C49,79.31,43.1,82.69,36.52,84.5a2.47,2.47,0,0,1-3.07-1.87l-.67-3.19C32,75.74,31.89,65.8,47.74,62.23Z"/><path class="cls-2" d="M35.87,86.08A4,4,0,0,1,32,82.94l-.67-3.19c-.51-2.45-2.15-14.87,16.1-19a3.5,3.5,0,0,1,3.52,1.54,12.16,12.16,0,0,1,1.75,11.82C50.48,79.64,45,83.72,36.91,85.94A4,4,0,0,1,35.87,86.08ZM48,63.7C33,67.11,33.67,76.37,34.24,79.13l.67,3.19a1,1,0,0,0,.44.62,1,1,0,0,0,.77.11c5-1.37,11.45-4.22,13.78-10a9.06,9.06,0,0,0-1.37-8.92A1.09,1.09,0,0,0,48,63.7Z"/><path class="cls-4" d="M46.43,67.21c-.71.78-1.33,1.48-1.93,2.2s-1.16,1.42-1.71,2.15S41.7,73,41.18,73.81s-1.06,1.58-1.75,2.4a7.52,7.52,0,0,1,.34-3.08,9.3,9.3,0,0,1,1.42-2.77,9,9,0,0,1,2.29-2.14A5.94,5.94,0,0,1,46.43,67.21Z"/><path class="cls-11" d="M61.43,85.21l-3.85,16.7a12,12,0,0,1-11.69,9.3H24a12,12,0,0,1-11.69-9.3L8.43,85.21s-5-10-1-14h.31a1,1,0,0,0-.08.4c0,3,12.21,5.41,27.27,5.41S62.2,74.6,62.2,71.61a1,1,0,0,0-.08-.4h.31C66.43,75.21,61.43,85.21,61.43,85.21Z"/><path class="cls-12" d="M62.18,83.51C32,89.7,15.14,86.61,8,84.36c-1.1-2.5-3.9-9.86-.61-13.15h.31a1,1,0,0,0-.08.4c0,3,12.21,5.41,27.27,5.41S62.2,74.6,62.2,71.61a1,1,0,0,0-.08-.4h.31C65.4,74.18,63.4,80.48,62.18,83.51Z"/><path class="cls-2" d="M45.88,113.21H24a13.94,13.94,0,0,1-13.64-10.85L6.53,85.88C5.62,84,1.37,74.45,6,69.8l.59-.59h4.25l-1,2.25C11.61,72.8,20.16,75,34.93,75S58.25,72.8,60,71.47l-1-2.25h4.25l.59.59c4.65,4.65.39,14.2-.52,16.09l-3.8,16.47A13.94,13.94,0,0,1,45.88,113.21ZM7.92,74.9c-.31,2.94,1.22,7.26,2.3,9.42l.11.21,3.91,16.93A10,10,0,0,0,24,109.21H45.88a10,10,0,0,0,9.74-7.75l3.91-16.93.11-.21c1.08-2.16,2.6-6.48,2.3-9.42-6.16,3.88-23,4.12-27,4.12S14.08,78.79,7.92,74.9Z"/><path class="cls-2" d="M15.3,87.07c7.71,1.57,15.28,1.65,23.13,1.38,1.93-.06,1.93-3.06,0-3-7.55.25-14.9.24-22.33-1.28-1.88-.38-2.69,2.51-.8,2.89Z"/><path class="cls-2" d="M44.52,88.09a52.36,52.36,0,0,0,8.06-1.21c1.88-.44,1.08-3.33-.8-2.89a47.09,47.09,0,0,1-7.26,1.1c-1.91.14-1.93,3.14,0,3Z"/><path class="cls-13" d="M17.29,94.78l1.48,6.84c.41,1.89,3.3,1.09,2.89-.8L20.19,94c-.41-1.89-3.3-1.09-2.89.8Z"/><path class="cls-13" d="M22.76,97a30.55,30.55,0,0,0,1,6.07,1.5,1.5,0,0,0,2.89-.8A26.48,26.48,0,0,1,25.76,97c-.13-1.92-3.13-1.93-3,0Z"/></g></g></svg>