<svg xmlns="http://www.w3.org/2000/svg" viewBox="0 0 232 358"><defs><style>.cls-1{fill:#c1e15c;}.cls-2{fill:#b9d34f;}.cls-3{fill:#fcf7f5;}.cls-4{fill:#eadad6;}.cls-5{fill:#ffc849;}.cls-6{fill:#efb33c;}.cls-7{fill:#6c4735;}.cls-8{fill:none;stroke:#6c4735;stroke-miterlimit:10;stroke-width:4px;}.cls-9{fill:#fff6cf;}.cls-10{fill:#7dc0b4;}.cls-11{fill:#a1e2be;}.cls-12{fill:#fff;}</style></defs><title>Asset 5</title><g id="Layer_2" data-name="Layer 2"><g id="Layer_1-2" data-name="Layer 1"><rect class="cls-1" x="24.45" y="248.2" width="181.1" height="84.54"/><rect class="cls-1" x="24.45" y="152.58" width="181.1" height="84.55"/><rect class="cls-1" x="24.45" y="58.86" width="181.1" height="82.66"/><path class="cls-2" d="M205.54,248.2v84.54H24.45V315.59h96.88a67.27,67.27,0,0,0,67.14-67.4h17.08Z"/><path class="cls-2" d="M205.54,152.58v84.55H24.45V220h96.87a67.28,67.28,0,0,0,67.15-67.41h17.08Z"/><path class="cls-2" d="M205.54,58.86v82.66H24.45V124.37H123.2a65.39,65.39,0,0,0,65.27-65.52h17.08Z"/><path class="cls-3" d="M222.29,44H7.51A6.63,6.63,0,0,0,.9,50.67v1.55a6.62,6.62,0,0,0,6.61,6.64H9.26V349.36A6.62,6.62,0,0,0,15.87,356h1.87a6.62,6.62,0,0,0,6.61-6.64V343.8h181.1v5.56a6.62,6.62,0,0,0,6.61,6.64h1.87a6.62,6.62,0,0,0,6.61-6.64V58.86h1.74a6.62,6.62,0,0,0,6.61-6.64V50.67A6.62,6.62,0,0,0,222.29,44Zm-16.84,288.7H24.36V248.2h181.1Zm0-95.6H24.36V152.58h181.1Zm0-95.62H24.36V58.86h181.1Z"/><path class="cls-4" d="M230,50.67v1.55a6.62,6.62,0,0,1-6.61,6.64h-1.74V349.36A6.62,6.62,0,0,1,215,356h-1.87a6.48,6.48,0,0,1-2.37-.44,6.63,6.63,0,0,0,4.24-6.19V58.86h1.74a6.62,6.62,0,0,0,6.61-6.64V50.67A6.62,6.62,0,0,0,216.78,44h6.61A6.62,6.62,0,0,1,230,50.67Z"/><rect class="cls-4" x="19.95" y="248.2" width="6.61" height="84.54"/><rect class="cls-4" x="19.95" y="152.58" width="6.61" height="84.55"/><rect class="cls-4" x="19.95" y="58.86" width="6.61" height="82.66"/><path class="cls-4" d="M25.46,342.73v5.53a6.62,6.62,0,0,1-6.61,6.64H17a6.62,6.62,0,0,1-6.61-6.64v-5.53A6.62,6.62,0,0,0,17,349.36h1.87A6.62,6.62,0,0,0,25.46,342.73Z"/><path class="cls-4" d="M10.36,52.22v5.53H8.61A6.62,6.62,0,0,1,2,51.11V49.56a7,7,0,0,1,.3-2,6.62,6.62,0,0,0,6.31,4.65Z"/><rect class="cls-4" x="25.46" y="140.71" width="181.1" height="5.53"/><rect class="cls-4" x="25.46" y="236.65" width="181.1" height="5.53"/><rect class="cls-4" x="25.46" y="332.26" width="181.1" height="5.53"/><rect class="cls-5" x="99.57" y="93.81" width="30.85" height="12.17" rx="5.5" ry="5.5"/><rect class="cls-5" x="99.57" y="188.94" width="30.85" height="12.17" rx="5.5" ry="5.5"/><rect class="cls-5" x="99.57" y="284.07" width="30.85" height="12.17" rx="5.5" ry="5.5"/><path class="cls-6" d="M130,100.72a6.06,6.06,0,0,1-6,5.81H105.17a6.09,6.09,0,0,1-4.29-10.39,4.94,4.94,0,0,1,.44-.4,2.32,2.32,0,0,0,0,.28,6.07,6.07,0,0,0,6.06,6.08h18.73A6,6,0,0,0,130,100.72Z"/><path class="cls-6" d="M130,195.85a6.06,6.06,0,0,1-6,5.81H105.17a6.09,6.09,0,0,1-4.29-10.39,4.94,4.94,0,0,1,.44-.4,2.32,2.32,0,0,0,0,.28,6.07,6.07,0,0,0,6.06,6.08h18.73A6,6,0,0,0,130,195.85Z"/><path class="cls-6" d="M130,291a6.06,6.06,0,0,1-6,5.81H105.17a6.09,6.09,0,0,1-4.29-10.39,4.94,4.94,0,0,1,.44-.4,2.32,2.32,0,0,0,0,.28,6.07,6.07,0,0,0,6.06,6.08h18.73A6,6,0,0,0,130,291Z"/><path class="cls-7" d="M124.46,108H104.61a7,7,0,0,1-7-7V99.86a7,7,0,0,1,7-7h19.85a7,7,0,0,1,7,7V101A7,7,0,0,1,124.46,108ZM104.61,95.86a4,4,0,0,0-4,4V101a4,4,0,0,0,4,4h19.85a4,4,0,0,0,4-4V99.86a4,4,0,0,0-4-4Z"/><path class="cls-7" d="M124.46,203.16H104.61a7,7,0,0,1-7-7V195a7,7,0,0,1,7-7h19.85a7,7,0,0,1,7,7v1.17A7,7,0,0,1,124.46,203.16ZM104.61,191a4,4,0,0,0-4,4v1.17a4,4,0,0,0,4,4h19.85a4,4,0,0,0,4-4V195a4,4,0,0,0-4-4Z"/><path class="cls-7" d="M124.46,298.29H104.61a7,7,0,0,1-7-7v-1.17a7,7,0,0,1,7-7h19.85a7,7,0,0,1,7,7v1.17A7,7,0,0,1,124.46,298.29Zm-19.85-12.17a4,4,0,0,0-4,4v1.17a4,4,0,0,0,4,4h19.85a4,4,0,0,0,4-4v-1.17a4,4,0,0,0-4-4Z"/><path class="cls-8" d="M223.39,44H8.61A6.63,6.63,0,0,0,2,50.67v1.55a6.62,6.62,0,0,0,6.61,6.64h1.75V349.36A6.62,6.62,0,0,0,17,356h1.87a6.62,6.62,0,0,0,6.61-6.64V343.8h181.1v5.56a6.62,6.62,0,0,0,6.61,6.64H215a6.62,6.62,0,0,0,6.61-6.64V58.86h1.74A6.62,6.62,0,0,0,230,52.22V50.67A6.62,6.62,0,0,0,223.39,44Zm-16.84,288.7H25.46V248.2h181.1Zm0-95.6H25.46V152.58h181.1Zm0-95.62H25.46V58.86h181.1Z"/><rect class="cls-9" x="54.01" y="13.73" width="145.38" height="22.33"/><path class="cls-7" d="M199.19,37.56H50.82V12.23H199.19Zm-145.38-3H196.19V15.23H53.82Z"/><path class="cls-10" d="M52.83,16.93v17.7H199.38a2.21,2.21,0,0,1,2.2,2.21h0A8.85,8.85,0,0,1,195,45.42a9.05,9.05,0,0,1-2.2.28H45.12a6.62,6.62,0,0,1-6.61-6.64V9.19a6.62,6.62,0,0,1,6.61-6.64H192.77a9,9,0,0,1,2.2.28,8.85,8.85,0,0,1,6.61,8.57h0a5.52,5.52,0,0,1-5.51,5.53Z"/><path class="cls-11" d="M201.59,11.4a5.5,5.5,0,0,1-5.51,5.53H52.83l-2.2-2.21L38.51,10.23v-1a6.63,6.63,0,0,1,6.61-6.64H192.77a9,9,0,0,1,2.2.28A8.85,8.85,0,0,1,201.59,11.4Z"/><path class="cls-7" d="M192.22,47.14H44.57A8.63,8.63,0,0,1,36,38.5V8.64A8.63,8.63,0,0,1,44.57,0H192.22a11.08,11.08,0,0,1,2.69.34A10.85,10.85,0,0,1,203,10.85a7.53,7.53,0,0,1-7.51,7.53H54.28v13.7H198.83a4.21,4.21,0,0,1,4.2,4.21,10.84,10.84,0,0,1-8.11,10.51A11.1,11.1,0,0,1,192.22,47.14ZM44.57,4A4.63,4.63,0,0,0,40,8.64V38.5a4.63,4.63,0,0,0,4.61,4.64H192.22a7.07,7.07,0,0,0,1.72-.22,6.84,6.84,0,0,0,5.1-6.63.21.21,0,0,0-.2-.21H50.28V14.38H195.53A3.52,3.52,0,0,0,199,10.85a6.84,6.84,0,0,0-5.11-6.64,7,7,0,0,0-1.7-.21Z"/><path class="cls-7" d="M103.52,26.18H59.44a1.5,1.5,0,1,1,0-3h44.08a1.5,1.5,0,0,1,0,3Z"/><path class="cls-7" d="M195.58,26.18H175.64a1.5,1.5,0,0,1,0-3h19.94a1.5,1.5,0,0,1,0,3Z"/><path class="cls-7" d="M115.51,25.68h-5.25a1,1,0,0,1,0-2h5.25a1,1,0,1,1,0,2Z"/><path class="cls-12" d="M38.86,71.23h20.6a1.5,1.5,0,0,0,0-3H38.86a1.5,1.5,0,0,0,0,3Z"/><path class="cls-12" d="M69.43,71.23h2.66a1.5,1.5,0,0,0,0-3H69.43a1.5,1.5,0,0,0,0,3Z"/><path class="cls-12" d="M34,174.48v22a1.5,1.5,0,0,0,3,0v-22a1.5,1.5,0,0,0-3,0Z"/><path class="cls-12" d="M34.18,205a7.18,7.18,0,0,0-.71,5.19c.44,1.88,3.33,1.08,2.89-.8a4,4,0,0,1,.41-2.88c.94-1.69-1.65-3.21-2.59-1.51Z"/><path class="cls-12" d="M35.54,261.38H65.45a1.5,1.5,0,0,0,0-3H35.54a1.5,1.5,0,0,0,0,3Z"/><path class="cls-12" d="M74.75,261.38h4a1.5,1.5,0,0,0,0-3h-4a1.5,1.5,0,0,0,0,3Z"/></g></g></svg>