<svg xmlns="http://www.w3.org/2000/svg" viewBox="0 0 124 52"><defs><style>.cls-1{fill:#ef978e;}.cls-2{fill:#ce746e;}.cls-3{fill:#6c4735;}.cls-4{fill:#fdffff;}.cls-5{fill:#633e30;}</style></defs><title>Asset 18</title><g id="Layer_2" data-name="Layer 2"><g id="Layer_1-2" data-name="Layer 1"><rect class="cls-1" x="2" y="2" width="120" height="48" rx="12" ry="12"/><path class="cls-2" d="M122,13V37a12,12,0,0,1-12,12H14A12,12,0,0,1,3.75,43.25,12,12,0,0,0,10,45h96a12,12,0,0,0,12-12V9a12,12,0,0,0-1.75-6.25A12,12,0,0,1,122,13Z"/><path class="cls-3" d="M110,52H14A14,14,0,0,1,0,38V14A14,14,0,0,1,14,0h96a14,14,0,0,1,14,14V38A14,14,0,0,1,110,52ZM14,4A10,10,0,0,0,4,14V38A10,10,0,0,0,14,48h96a10,10,0,0,0,10-10V14A10,10,0,0,0,110,4Z"/><path class="cls-4" d="M109.45,43.05l1.16,1.34a1.51,1.51,0,0,0,2.12,0,1.53,1.53,0,0,0,0-2.12l-1.16-1.34a1.51,1.51,0,0,0-2.12,0,1.53,1.53,0,0,0,0,2.12Z"/><path class="cls-4" d="M112,38.45a9.1,9.1,0,0,0,2.76,2.47,1.5,1.5,0,1,0,1.51-2.59c-.19-.11-.38-.22-.56-.34a2,2,0,0,1-.35-.27c-.16-.15-.32-.3-.48-.46l-.22-.24q-.17-.21-.08-.08a1.55,1.55,0,0,0-2.05-.54,1.51,1.51,0,0,0-.54,2.05Z"/><path class="cls-4" d="M11.48,15.34a8.84,8.84,0,0,1,.89-3.45c.59-1.15,1.39-1.23,2.6-1.27,1.93,0,1.93-3,0-3s-3.66.4-4.78,2.06a11.46,11.46,0,0,0-1.71,5.66c-.13,1.93,2.87,1.92,3,0Z"/><path class="cls-4" d="M20,10.17h.67a1.5,1.5,0,1,0,0-3H20a1.5,1.5,0,1,0,0,3Z"/><path class="cls-5" d="M45.82,26.89a1.7,1.7,0,0,1,0,.35c0,.12,0,.25,0,.38s0,.34,0,.48a.7.7,0,0,1-.17.38,5.45,5.45,0,0,1-.16.87c-.07.27-.15.52-.23.74l-.07.2a1.4,1.4,0,0,1-.07.17.55.55,0,0,1-.15.21.85.85,0,0,0-.17.21,1.5,1.5,0,0,0-.13.22.33.33,0,0,1-.21.17.9.9,0,0,1-.29.6,1.31,1.31,0,0,0-.37.5.28.28,0,0,0-.17.08s-.1.05-.2,0a.48.48,0,0,0-.09.12l-.08.15a2.45,2.45,0,0,1-.43.38,5.11,5.11,0,0,1-.53.33,2.18,2.18,0,0,1-.39.2,2.18,2.18,0,0,0-.39.2.44.44,0,0,1-.2.13.37.37,0,0,0-.15.06l-.3.12a.68.68,0,0,1-.4,0l-.22.11a.46.46,0,0,1-.29,0,.21.21,0,0,0-.17.06.26.26,0,0,1-.12.09l-.74.1a1.46,1.46,0,0,1-.7-.07.94.94,0,0,1-.24.06l-.34,0a.32.32,0,0,0-.16,0,.35.35,0,0,1-.23,0,.56.56,0,0,1-.32-.17,2.2,2.2,0,0,0-.38,0,.47.47,0,0,1-.23,0l-.24-.1a.73.73,0,0,1-.2-.15l-.46-.34L35,33.6a.77.77,0,0,0-.06.53.46.46,0,0,1-.11.45,1.66,1.66,0,0,1-.74.15.78.78,0,0,1-.65-.24.53.53,0,0,1-.39,0,.22.22,0,0,0-.29,0,.71.71,0,0,0-.23-.11,1,1,0,0,1-.26-.11c-.08,0-.12-.07-.11-.17s-.05-.13-.18-.1a.18.18,0,0,1,0-.17.19.19,0,0,0,0-.17,2.61,2.61,0,0,0-.12-.26.53.53,0,0,1-.07-.26,1.27,1.27,0,0,1,0-.33,1.38,1.38,0,0,0,0-.35.7.7,0,0,0,0-.18.65.65,0,0,1,0-.18,1.38,1.38,0,0,0,0-.32,2.38,2.38,0,0,1,0-.38v-.16a2.9,2.9,0,0,1-.07-.44,1.25,1.25,0,0,1,0-.49c0-.08,0-.13,0-.13s-.09-.05-.07-.13a1,1,0,0,1,0-.35,1.05,1.05,0,0,0,0-.35l0-.15a.39.39,0,0,1,0-.12.43.43,0,0,1,0-.16.44.44,0,0,0,0-.16,1.73,1.73,0,0,0,0-.42,1.57,1.57,0,0,1,0-.39,1.29,1.29,0,0,0,0-.24.1.1,0,0,0,0-.07.63.63,0,0,1,0-.2.48.48,0,0,0,0-.15,4.08,4.08,0,0,0,0-.5q0-.28-.06-.6a.5.5,0,0,0,0-.26.47.47,0,0,1,0-.18.58.58,0,0,1,0-.21,1.92,1.92,0,0,0,0-.23,2,2,0,0,0,0-.32.3.3,0,0,1,.1-.27,1.77,1.77,0,0,1-.12-.51,1.5,1.5,0,0,1,0-.54.68.68,0,0,0,.08-.3.15.15,0,0,1,0-.13.69.69,0,0,0,0-.29.53.53,0,0,1,0-.17,1.25,1.25,0,0,0,.06-.28,1.57,1.57,0,0,0,0-.33.31.31,0,0,0,0-.15.3.3,0,0,1,0-.12,1.62,1.62,0,0,0,0-.4q0-.13,0-.3a2.57,2.57,0,0,1,0-.51c0-.08,0-.13,0-.16s0-.06,0-.11a.51.51,0,0,0,0-.15.59.59,0,0,1,.06-.2,3.7,3.7,0,0,0,.11-.78c0-.26,0-.52,0-.77s0-.5,0-.73a4.83,4.83,0,0,1,0-.7.52.52,0,0,1,.15-.32.94.94,0,0,1,0-.59,1.35,1.35,0,0,0,0-.59.55.55,0,0,0,.07-.17.52.52,0,0,1,.07-.17.66.66,0,0,1,.21-.12c.06,0,.09,0,.09.1.18,0,.28-.05.32,0a.26.26,0,0,0,.12.08.15.15,0,0,1,.18-.06.69.69,0,0,0,.23,0l.22,0,.22,0a2.51,2.51,0,0,1,.42,0,2,2,0,0,0,.39,0c.1.08.15.14.16.17a.15.15,0,0,0,0,.07.44.44,0,0,1,.1.28,1.82,1.82,0,0,0,0,.3,2.52,2.52,0,0,1,0,.38.37.37,0,0,0,0,.16c0,.08,0,.16,0,.22l0,.2a1.16,1.16,0,0,1,0,.33,2.65,2.65,0,0,0,0,.35,2.93,2.93,0,0,0,.07.42,3.22,3.22,0,0,1,.07.44,5.45,5.45,0,0,1,0,1,5,5,0,0,0,0,1l.33-.16.21-.13.16-.1a.72.72,0,0,1,.21-.1,2.61,2.61,0,0,1,.57-.15,3.62,3.62,0,0,0,.62-.15l.28-.07.09,0a.39.39,0,0,1,.24,0l.34,0h.63s.07,0,.12.09a1.31,1.31,0,0,1,.87-.06l.94.18a.38.38,0,0,0,.28.17.31.31,0,0,1,.26.2.9.9,0,0,1,.43.18,3.09,3.09,0,0,0,.35.26.33.33,0,0,1,.23.06.59.59,0,0,0,.16.11l.21.1a1,1,0,0,1,.18.15.63.63,0,0,0,.23.16.4.4,0,0,1,.16.08,2.62,2.62,0,0,0,.24.48l.2.26a.71.71,0,0,0,.16.16l.18.16a2.29,2.29,0,0,0,.11.32.42.42,0,0,0,.08.12.83.83,0,0,1,.13.23.45.45,0,0,0,0,.11l.16.24a2.09,2.09,0,0,1,.16.27l.17.32a2.3,2.3,0,0,0,.2.32,2.42,2.42,0,0,1,.17.5,2.05,2.05,0,0,0,.2.52.64.64,0,0,0,0,.39,3.82,3.82,0,0,1,.12.39.86.86,0,0,1,0,.24,1,1,0,0,0,0,.27,1.42,1.42,0,0,0,.06.22A.54.54,0,0,1,45.82,26.89Zm-2.42.54a.26.26,0,0,0,0-.13.25.25,0,0,1,0-.13.69.69,0,0,1,0-.15l0-.15a.21.21,0,0,1-.09-.23.74.74,0,0,0,0-.3,1.75,1.75,0,0,1-.07-.35.52.52,0,0,0,0-.16c0-.08-.07-.17-.1-.27a.44.44,0,0,1,0-.29A.22.22,0,0,1,43,25.1a1,1,0,0,0-.07-.2l-.11-.16a.3.3,0,0,1,0-.23,1.71,1.71,0,0,1-.21-.24A.94.94,0,0,1,42.4,24a.3.3,0,0,1-.27-.11.35.35,0,0,0-.27-.13.19.19,0,0,0-.09-.11l-.11-.09a.47.47,0,0,1-.09-.12.31.31,0,0,0-.11-.12.82.82,0,0,1-.34,0,.56.56,0,0,0-.21-.15l-.13,0a1.41,1.41,0,0,0-.54-.26,1,1,0,0,0-.54.08.22.22,0,0,1-.15-.16.17.17,0,0,0-.15-.13l-.24,0a.29.29,0,0,1-.24-.13.9.9,0,0,0-.32,0l-.34.09a2.69,2.69,0,0,1-.4.09l-.18,0a.62.62,0,0,0-.32.18.49.49,0,0,1-.32.16,1.26,1.26,0,0,1-.24.27l-.27.24a2.61,2.61,0,0,0-.23.27A.9.9,0,0,1,36,24l-.28.44-.28.44-.1.17-.1.17a.65.65,0,0,0-.12.28.31.31,0,0,1,0,.13,5.8,5.8,0,0,0-.18.74c0,.24-.07.44-.08.62a2.28,2.28,0,0,0,.27,1.12.28.28,0,0,0,0,.24.69.69,0,0,1,.09.2,1.15,1.15,0,0,0,.09.3l.06.11.17.37.1.2a1.45,1.45,0,0,1,.27.43.83.83,0,0,0,.15.28.36.36,0,0,0,.15.12l.2.12a.4.4,0,0,1,.12.13.59.59,0,0,0,.1.13,4.72,4.72,0,0,1,.5.3,3.28,3.28,0,0,1,.35.31.3.3,0,0,1,.23.07.44.44,0,0,0,.18.12,4.7,4.7,0,0,0,.45.26,1.81,1.81,0,0,0,.4.11,5.27,5.27,0,0,0,.88,0q.41,0,.78-.07l.37,0a1.34,1.34,0,0,0,.34-.1,1.14,1.14,0,0,0,.24-.21,1.44,1.44,0,0,1,.27-.23,1.63,1.63,0,0,1,.32-.21.8.8,0,0,0,.27-.21.22.22,0,0,0,.06-.12.38.38,0,0,1,.06-.15l.08-.11.09-.11a.5.5,0,0,1,.09-.18l.06-.06a1,1,0,0,0,.15-.26,1,1,0,0,1,.07-.18l.2-.42.12-.27.09-.29a1.62,1.62,0,0,1,.11-.27.9.9,0,0,1,0-.53A2.23,2.23,0,0,0,43.4,27.42Z"/><path class="cls-5" d="M62.23,20.86a.48.48,0,0,1-.06.2.5.5,0,0,0-.06.22.8.8,0,0,1,0,.22.38.38,0,0,0,0,.1.3.3,0,0,1,0,.17.1.1,0,0,0,0,.1.37.37,0,0,1,0,.22.3.3,0,0,0,0,.12.26.26,0,0,0,0,.16.6.6,0,0,1,0,.16,2.33,2.33,0,0,0-.06.3A.54.54,0,0,1,62,23c0,.08,0,.17,0,.27a1.36,1.36,0,0,0,0,.32.27.27,0,0,0,0,.12.34.34,0,0,1,0,.15,2.59,2.59,0,0,1,0,.56A2.66,2.66,0,0,0,62,25a.88.88,0,0,0,0,.22.52.52,0,0,1,0,.22,1,1,0,0,1,0,.32,1.7,1.7,0,0,0-.07.34,1.16,1.16,0,0,1,0,.33.46.46,0,0,0,0,.31,1.24,1.24,0,0,1-.12.29,2,2,0,0,1,0,.66,3.54,3.54,0,0,0-.06.66l0,.23a1.12,1.12,0,0,1,0,.23.42.42,0,0,1,0,.12.45.45,0,0,0,0,.15.63.63,0,0,1,0,.32l-.06.15c0,.18,0,.32,0,.43a.69.69,0,0,1-.12.35.55.55,0,0,0,0,.38.54.54,0,0,1-.07.43.64.64,0,0,1,0,.27c0,.08,0,.19,0,.32a1.7,1.7,0,0,1,0,.48.94.94,0,0,0,0,.26,2,2,0,0,0,0,.55c0,.17.06.34.07.5a.38.38,0,0,0,0,.42.55.55,0,0,1,.15.37,2,2,0,0,0-.07.21.53.53,0,0,0,0,.11l-.22.11a.72.72,0,0,1-.2.08l-.15,0-.17,0a.45.45,0,0,0-.23,0,1,1,0,0,1-.26,0,1.08,1.08,0,0,1-.28,0,.6.6,0,0,0-.28,0,.86.86,0,0,0-.28.1.54.54,0,0,1-.26.07c-.11.11-.21.17-.29.16a.34.34,0,0,0-.17,0,.9.9,0,0,1-.24-.39.37.37,0,0,1,0-.42,1.28,1.28,0,0,1,0-.71,2.1,2.1,0,0,0,0-.78,1.35,1.35,0,0,0-.35.2,3.15,3.15,0,0,0-.31.27.39.39,0,0,0-.12.13.34.34,0,0,1-.15.13l-.22.1a.36.36,0,0,0-.17.12.67.67,0,0,1-.26,0,.69.69,0,0,0-.26,0l-.34.09-.39.08-.39.12a1.08,1.08,0,0,1-.51,0,.41.41,0,0,0-.26,0,.25.25,0,0,1-.13,0,.62.62,0,0,1-.42,0c0,.07-.11.08-.23,0a1.44,1.44,0,0,1-.28-.1.57.57,0,0,1-.37,0l-.37-.07c-.08,0-.13,0-.13-.07s0-.08-.11-.1a4.1,4.1,0,0,1-1.15-.12.35.35,0,0,0-.13-.15.23.23,0,0,1-.11-.17c-.08,0-.13,0-.16,0a.16.16,0,0,0-.16-.07.41.41,0,0,0-.13-.18.51.51,0,0,1-.13-.13.28.28,0,0,1-.18,0,.29.29,0,0,0-.18,0l-.17-.22,0,0a.37.37,0,0,0-.18-.1.12.12,0,0,1-.09,0l-.2-.2-.15-.17a1.07,1.07,0,0,0-.24-.26c-.07,0-.09-.12-.07-.23a2.24,2.24,0,0,1-.28-.21L49,31.35a.56.56,0,0,1-.12-.24.23.23,0,0,0-.12-.17l-.27-.43a.46.46,0,0,0-.27-.21q0-.12,0-.15s0-.06,0-.12a1.05,1.05,0,0,1-.29-.42,4.34,4.34,0,0,1-.17-.52q-.07-.28-.12-.56a3.37,3.37,0,0,0-.15-.55c0-.23,0-.47,0-.72a1.72,1.72,0,0,1,.12-.67.76.76,0,0,0,.07-.29,1.22,1.22,0,0,1,0-.24c0-.08,0-.16,0-.23s0-.15,0-.23a5.83,5.83,0,0,1,.13-.59,1,1,0,0,1,.18-.34.48.48,0,0,1,0-.3,1.1,1.1,0,0,1,.12-.24l.15-.23a.51.51,0,0,0,.07-.27.63.63,0,0,0,.18-.23,1.18,1.18,0,0,1,.16-.26l.12-.22.15-.24a.73.73,0,0,1,.13-.15.19.19,0,0,0,.06-.2l.12-.1a.53.53,0,0,1,.17-.1q.19-.29.32-.53a2.21,2.21,0,0,1,.29-.43l.18-.16.18-.13a.26.26,0,0,1,.18-.16.2.2,0,0,0,.16-.16l.49-.11a1.23,1.23,0,0,0,.44-.21l.31,0a.5.5,0,0,0,.28-.11.55.55,0,0,0,.39,0l.27-.18h.74c.24,0,.49,0,.77,0l.38,0a1.16,1.16,0,0,1,.33,0h.22a.24.24,0,0,1,.17.07.42.42,0,0,1,.42,0,.2.2,0,0,0,.12,0,.38.38,0,0,1,.2,0,1.44,1.44,0,0,0,.33.07h.13l.24.12.17.12a5.17,5.17,0,0,0,.5.28,2.29,2.29,0,0,1,.35.21.75.75,0,0,0,.17.17l.1.07.1.11.12.13a.48.48,0,0,0,.15.17l.2.17a.51.51,0,0,1,.09.12.3.3,0,0,0,.11.12l.16.13a.25.25,0,0,1,.11.21,1.79,1.79,0,0,0,0-.72,3.15,3.15,0,0,0-.15-.65,1.17,1.17,0,0,0-.15-.23q-.07-.08,0-.3a.68.68,0,0,1,.11-.22l.13-.17s.06,0,.17,0h.29l.21,0h.18l.66,0a2.43,2.43,0,0,1,.66.12.46.46,0,0,1,.32,0l.27.11a.38.38,0,0,1,0,.16.37.37,0,0,0,0,.16Zm-3.54,5.86a.45.45,0,0,1-.06-.21c0-.09,0-.17,0-.26a.38.38,0,0,0-.11-.11l-.11-.08a.71.71,0,0,0-.06-.32,1,1,0,0,1-.08-.24.35.35,0,0,0,0-.28.53.53,0,0,1-.08-.18.67.67,0,0,1,0-.26,1.78,1.78,0,0,0,0-.28.31.31,0,0,1-.15-.15.32.32,0,0,0-.07-.12l-.29-.29-.2-.2a1.4,1.4,0,0,0-.46-.32l-.37-.21-.32-.16a.65.65,0,0,0-.29-.07,1.4,1.4,0,0,1-.34,0l-.2-.08-.15-.06H55.1a.53.53,0,0,1-.2,0,.42.42,0,0,1-.16,0l-.13,0a.59.59,0,0,1-.37,0c-.08,0-.14,0-.17,0a.64.64,0,0,0-.33.1,1.68,1.68,0,0,1-.26.17l-.28.13-.11.06a2.48,2.48,0,0,0-.34.2l-.17.12a.54.54,0,0,0-.2.11.08.08,0,0,1-.07,0l-.1.12-.1.12-.24.21-.15.13a1,1,0,0,1-.34.22.59.59,0,0,1-.17.4.52.52,0,0,0-.15.4,1.09,1.09,0,0,0-.15.23l-.1.23a1.27,1.27,0,0,0-.06.3,2.14,2.14,0,0,1-.06.35,2,2,0,0,1-.1.24.83.83,0,0,0-.07.22,1.07,1.07,0,0,1,0,.5,1.52,1.52,0,0,0-.08.35.57.57,0,0,0,0,.2.6.6,0,0,1,0,.22,1.17,1.17,0,0,1,0,.28.51.51,0,0,0,0,.13.86.86,0,0,0,.11.32.44.44,0,0,1,0,.34l.32.24a1.69,1.69,0,0,0,.34.22,1.72,1.72,0,0,0,.42.49l.46.39a1.2,1.2,0,0,0,.49.34A1.74,1.74,0,0,0,53,31l.26.06.18.06.16.06a6.26,6.26,0,0,1,.76.13,2.51,2.51,0,0,0,.61.09.37.37,0,0,0,.17,0l.17,0h.21a.58.58,0,0,0,.18,0,.87.87,0,0,1,.24-.1l.1,0,.17-.07a.16.16,0,0,1,.2,0A.67.67,0,0,1,56.6,31l.26-.18a1.38,1.38,0,0,0,.23-.21.57.57,0,0,0,.13-.32,1.27,1.27,0,0,1,.22-.28,1.25,1.25,0,0,0,.17-.18.73.73,0,0,0,.08-.18.42.42,0,0,1,.09-.16,3,3,0,0,0,.18-.33.87.87,0,0,1,.18-.26.26.26,0,0,1,0-.23l.11-.21a3.73,3.73,0,0,0,.17-.65,4.67,4.67,0,0,0,0-.72A1.82,1.82,0,0,0,58.69,26.72Z"/><path class="cls-5" d="M72.09,22.15a1.12,1.12,0,0,0,0,.34.23.23,0,0,1,0,.15.35.35,0,0,1-.17.23.84.84,0,0,0-.22.16.54.54,0,0,0-.44,0l-.39.12h-.32a.92.92,0,0,0-.37.07,1.37,1.37,0,0,1-.32.1.49.49,0,0,1-.22,0,.29.29,0,0,0-.22,0,.84.84,0,0,0-.06.48,1.66,1.66,0,0,1,0,.52,2.34,2.34,0,0,0,0,.62,2.66,2.66,0,0,1,0,.43c0,.15,0,.29,0,.42a.63.63,0,0,0,.08.37.9.9,0,0,0-.08.35c0,.14,0,.27,0,.4a3.06,3.06,0,0,0,0,.78,7.25,7.25,0,0,1,0,.78c0,.11,0,.22,0,.31s0,.18,0,.28a.46.46,0,0,0,0,.24.23.23,0,0,1,0,.1,4,4,0,0,0,0,.56,6.27,6.27,0,0,1,0,.66,1.49,1.49,0,0,1,0,.32.7.7,0,0,0,0,.17c0,.13,0,.27.06.42a.56.56,0,0,1-.13.44.25.25,0,0,0,0,.13.73.73,0,0,1,.06.13.51.51,0,0,0,0,.29.5.5,0,0,1,0,.15,1.46,1.46,0,0,0,0,.45l0,.35a1.23,1.23,0,0,1-.32,1l-.62-.1a2,2,0,0,0-.62,0l-.29.06a.58.58,0,0,1-.34,0,.45.45,0,0,0-.17.06.24.24,0,0,1-.15,0,.17.17,0,0,1-.17,0,.36.36,0,0,0-.17-.1,3,3,0,0,1,0-.73,6.92,6.92,0,0,0,0-.93.79.79,0,0,0,0-.21c0-.06,0-.13,0-.21a1.64,1.64,0,0,1,0-.35,2.07,2.07,0,0,0,0-.38.57.57,0,0,1,0-.16.6.6,0,0,0,0-.16c0-.06,0-.1,0-.11s0-.06,0-.16a2.69,2.69,0,0,1,.06-.59c0-.18.08-.36.11-.54a2.84,2.84,0,0,1,0-.43v-.23A1.92,1.92,0,0,0,66.4,29a.64.64,0,0,1,0-.24.69.69,0,0,1,0-.15.33.33,0,0,0,0-.17,4.29,4.29,0,0,1,0-.74,3.6,3.6,0,0,0,0-.65,1.72,1.72,0,0,1-.07-.43,1.5,1.5,0,0,0,0-.28c0-.11,0-.24,0-.37a2.41,2.41,0,0,1,0-.42.53.53,0,0,1,0-.17.56.56,0,0,0,0-.17.65.65,0,0,0,0-.22.6.6,0,0,1,0-.22,2.43,2.43,0,0,1,0-.42,2.63,2.63,0,0,0,0-.42l0-.16a.57.57,0,0,1,0-.16,1.24,1.24,0,0,1,0-.46.91.91,0,0,0,0-.44,6.93,6.93,0,0,0-.78.2l-.18,0-.21.06-.32.1A.26.26,0,0,1,64.5,23a1,1,0,0,1-.27-.32.44.44,0,0,1,.06-.32,1.82,1.82,0,0,1,.21-.24q0-.1,0-.15a.34.34,0,0,0,.07-.17.92.92,0,0,0,0-.26.67.67,0,0,1,0-.28,1.35,1.35,0,0,1,.12-.27.77.77,0,0,0,.1-.24.83.83,0,0,0,0-.34.6.6,0,0,1,0-.34q.07-.41.61-.32l.27.07a.23.23,0,0,1,.17.15.5.5,0,0,1,.33,0,.54.54,0,0,0,.3.07.84.84,0,0,0,.15-.59,6.13,6.13,0,0,1,0-.78.79.79,0,0,0,0-.32l0-.2a1.89,1.89,0,0,1,0-.68l0-.16a.6.6,0,0,0,0-.16.76.76,0,0,0-.07-.34.49.49,0,0,0,0-.22l-.07-.12-.06-.09a.18.18,0,0,1,0-.13c.11-.11.2-.17.24-.16h.2l.33-.07a1,1,0,0,1,.35,0,.73.73,0,0,1,.34,0l.27.06a.52.52,0,0,0,.17-.07l.15-.07a.23.23,0,0,0,.2,0,.13.13,0,0,1,.17.06,1.06,1.06,0,0,0,.17.21.11.11,0,0,1,0,.09,1.71,1.71,0,0,1,0,.55q0,.35-.06.62a1.24,1.24,0,0,1,0,.23V18a1.11,1.11,0,0,1,0,.2,1,1,0,0,0,0,.17.84.84,0,0,1,.06.33.3.3,0,0,0,0,.16,1.42,1.42,0,0,0,.07.3c0,.09,0,.19-.12.31a.57.57,0,0,1,0,.28c0,.09,0,.19,0,.31a1.45,1.45,0,0,0,0,.17,1.29,1.29,0,0,1,0,.17.48.48,0,0,1,0,.22.25.25,0,0,0,0,.22.48.48,0,0,0,.34-.07,1.28,1.28,0,0,1,.29-.15.78.78,0,0,1,.31,0,.41.41,0,0,0,.3-.11.21.21,0,0,0,.27,0,.16.16,0,0,1,.24,0,.77.77,0,0,1,.42-.22.82.82,0,0,1,.49,0,1.59,1.59,0,0,0,.15.26l.07.11a.2.2,0,0,1,0,.13.34.34,0,0,0,0,.18.74.74,0,0,1,0,.26.58.58,0,0,0,0,.11,1.7,1.7,0,0,0,.07.32,2.41,2.41,0,0,1,.07.27Z"/><path class="cls-5" d="M88.23,20.86a.48.48,0,0,1-.06.2.5.5,0,0,0-.06.22.8.8,0,0,1,0,.22.38.38,0,0,0,0,.1.3.3,0,0,1,0,.17.1.1,0,0,0,0,.1.37.37,0,0,1,0,.22.3.3,0,0,0,0,.12.26.26,0,0,0,0,.16.6.6,0,0,1,0,.16,2.33,2.33,0,0,0-.06.3A.54.54,0,0,1,88,23c0,.08,0,.17,0,.27a1.36,1.36,0,0,0,0,.32.27.27,0,0,0,0,.12.34.34,0,0,1,0,.15,2.59,2.59,0,0,1,0,.56A2.66,2.66,0,0,0,88,25a.88.88,0,0,0,0,.22.52.52,0,0,1,0,.22,1,1,0,0,1,0,.32,1.7,1.7,0,0,0-.07.34,1.16,1.16,0,0,1,0,.33.46.46,0,0,0,0,.31,1.24,1.24,0,0,1-.12.29,2,2,0,0,1,0,.66,3.54,3.54,0,0,0-.06.66l0,.23a1.12,1.12,0,0,1,0,.23.42.42,0,0,1,0,.12.45.45,0,0,0,0,.15.63.63,0,0,1,0,.32l-.06.15c0,.18,0,.32,0,.43a.69.69,0,0,1-.12.35.55.55,0,0,0,0,.38.54.54,0,0,1-.07.43.64.64,0,0,1,0,.27c0,.08,0,.19,0,.32a1.7,1.7,0,0,1,0,.48.94.94,0,0,0,0,.26,2,2,0,0,0,0,.55c0,.17.06.34.07.5a.38.38,0,0,0,0,.42.55.55,0,0,1,.15.37,2,2,0,0,0-.07.21.53.53,0,0,0,0,.11l-.22.11a.72.72,0,0,1-.2.08l-.15,0-.17,0a.45.45,0,0,0-.23,0,1,1,0,0,1-.26,0,1.08,1.08,0,0,1-.28,0,.6.6,0,0,0-.28,0,.86.86,0,0,0-.28.1.54.54,0,0,1-.26.07c-.11.11-.21.17-.29.16a.34.34,0,0,0-.17,0,.9.9,0,0,1-.24-.39.37.37,0,0,1,0-.42,1.28,1.28,0,0,1,0-.71,2.1,2.1,0,0,0,0-.78,1.35,1.35,0,0,0-.35.2,3.15,3.15,0,0,0-.31.27.39.39,0,0,0-.12.13.34.34,0,0,1-.15.13l-.22.1a.36.36,0,0,0-.17.12.67.67,0,0,1-.26,0,.69.69,0,0,0-.26,0l-.34.09-.39.08-.39.12a1.08,1.08,0,0,1-.51,0,.41.41,0,0,0-.26,0,.25.25,0,0,1-.13,0,.62.62,0,0,1-.42,0c0,.07-.11.08-.23,0a1.44,1.44,0,0,1-.28-.1.57.57,0,0,1-.37,0l-.37-.07c-.08,0-.13,0-.13-.07s0-.08-.11-.1a4.1,4.1,0,0,1-1.15-.12.35.35,0,0,0-.13-.15.23.23,0,0,1-.11-.17c-.08,0-.13,0-.16,0a.16.16,0,0,0-.16-.07.41.41,0,0,0-.13-.18.51.51,0,0,1-.13-.13.28.28,0,0,1-.18,0,.29.29,0,0,0-.18,0l-.17-.22,0,0a.37.37,0,0,0-.18-.1.12.12,0,0,1-.09,0l-.2-.2-.15-.17a1.07,1.07,0,0,0-.24-.26c-.07,0-.09-.12-.07-.23a2.24,2.24,0,0,1-.28-.21L75,31.35a.56.56,0,0,1-.12-.24.23.23,0,0,0-.12-.17l-.27-.43a.46.46,0,0,0-.27-.21q0-.12,0-.15s0-.06,0-.12a1.05,1.05,0,0,1-.29-.42,4.34,4.34,0,0,1-.17-.52q-.07-.28-.12-.56a3.37,3.37,0,0,0-.15-.55c0-.23,0-.47,0-.72a1.72,1.72,0,0,1,.12-.67.76.76,0,0,0,.07-.29,1.22,1.22,0,0,1,0-.24c0-.08,0-.16,0-.23s0-.15,0-.23a5.83,5.83,0,0,1,.13-.59,1,1,0,0,1,.18-.34.48.48,0,0,1,0-.3,1.1,1.1,0,0,1,.12-.24l.15-.23a.51.51,0,0,0,.07-.27.63.63,0,0,0,.18-.23,1.18,1.18,0,0,1,.16-.26l.12-.22.15-.24a.73.73,0,0,1,.13-.15.19.19,0,0,0,.06-.2l.12-.1a.53.53,0,0,1,.17-.1q.19-.29.32-.53a2.21,2.21,0,0,1,.29-.43l.18-.16.18-.13a.26.26,0,0,1,.18-.16.2.2,0,0,0,.16-.16l.49-.11a1.23,1.23,0,0,0,.44-.21l.31,0a.5.5,0,0,0,.28-.11.55.55,0,0,0,.39,0l.27-.18h.74c.24,0,.49,0,.77,0l.38,0a1.16,1.16,0,0,1,.33,0h.22a.24.24,0,0,1,.17.07.42.42,0,0,1,.42,0,.2.2,0,0,0,.12,0,.38.38,0,0,1,.2,0,1.44,1.44,0,0,0,.33.07h.13l.24.12.17.12a5.17,5.17,0,0,0,.5.28,2.29,2.29,0,0,1,.35.21.75.75,0,0,0,.17.17l.1.07.1.11.12.13a.48.48,0,0,0,.15.17l.2.17a.51.51,0,0,1,.09.12.3.3,0,0,0,.11.12l.16.13a.25.25,0,0,1,.11.21,1.79,1.79,0,0,0,0-.72,3.15,3.15,0,0,0-.15-.65,1.17,1.17,0,0,0-.15-.23q-.07-.08,0-.3a.68.68,0,0,1,.11-.22l.13-.17s.06,0,.17,0h.29l.21,0h.18l.66,0a2.43,2.43,0,0,1,.66.12.46.46,0,0,1,.32,0l.27.11a.38.38,0,0,1,0,.16.37.37,0,0,0,0,.16Zm-3.54,5.86a.45.45,0,0,1-.06-.21c0-.09,0-.17,0-.26a.38.38,0,0,0-.11-.11l-.11-.08a.71.71,0,0,0-.06-.32,1,1,0,0,1-.08-.24.35.35,0,0,0,0-.28.53.53,0,0,1-.08-.18.67.67,0,0,1,0-.26,1.78,1.78,0,0,0,0-.28.31.31,0,0,1-.15-.15.32.32,0,0,0-.07-.12l-.29-.29-.2-.2a1.4,1.4,0,0,0-.46-.32l-.37-.21-.32-.16a.65.65,0,0,0-.29-.07,1.4,1.4,0,0,1-.34,0l-.2-.08-.15-.06H81.1a.53.53,0,0,1-.2,0,.42.42,0,0,1-.16,0l-.13,0a.59.59,0,0,1-.37,0c-.08,0-.14,0-.17,0a.64.64,0,0,0-.33.1,1.68,1.68,0,0,1-.26.17l-.28.13-.11.06a2.48,2.48,0,0,0-.34.2l-.17.12a.54.54,0,0,0-.2.11.08.08,0,0,1-.07,0l-.1.12-.1.12-.24.21-.15.13a1,1,0,0,1-.34.22.59.59,0,0,1-.17.4.52.52,0,0,0-.15.4,1.09,1.09,0,0,0-.15.23l-.1.23a1.27,1.27,0,0,0-.06.3,2.14,2.14,0,0,1-.06.35,2,2,0,0,1-.1.24.83.83,0,0,0-.07.22,1.07,1.07,0,0,1,0,.5,1.52,1.52,0,0,0-.08.35.57.57,0,0,0,0,.2.6.6,0,0,1,0,.22,1.17,1.17,0,0,1,0,.28.51.51,0,0,0,0,.13.86.86,0,0,0,.11.32.44.44,0,0,1,0,.34l.32.24a1.69,1.69,0,0,0,.34.22,1.72,1.72,0,0,0,.42.49l.46.39a1.2,1.2,0,0,0,.49.34A1.74,1.74,0,0,0,79,31l.26.06.18.06.16.06a6.26,6.26,0,0,1,.76.13,2.51,2.51,0,0,0,.61.09.37.37,0,0,0,.17,0l.17,0h.21a.58.58,0,0,0,.18,0,.87.87,0,0,1,.24-.1l.1,0,.17-.07a.16.16,0,0,1,.2,0A.67.67,0,0,1,82.6,31l.26-.18a1.38,1.38,0,0,0,.23-.21.57.57,0,0,0,.13-.32,1.27,1.27,0,0,1,.22-.28,1.25,1.25,0,0,0,.17-.18.73.73,0,0,0,.08-.18.42.42,0,0,1,.09-.16,3,3,0,0,0,.18-.33.87.87,0,0,1,.18-.26.26.26,0,0,1,0-.23l.11-.21a3.73,3.73,0,0,0,.17-.65,4.67,4.67,0,0,0,0-.72A1.82,1.82,0,0,0,84.69,26.72Z"/><path class="cls-5" d="M95.58,34.89c0,.16-.09.23-.27.2a.16.16,0,0,0,0,.16.13.13,0,0,1-.1.16.76.76,0,0,1-.43,0,.86.86,0,0,1-.35-.15,3.56,3.56,0,0,0-1.22,0,4.93,4.93,0,0,1-1.25,0c-.11-.11-.17-.15-.16-.11s0,.05-.11,0a.45.45,0,0,1-.17-.27,1.9,1.9,0,0,1,0-.32v-.44a3.18,3.18,0,0,0,0-.38v-.4q0-.41,0-1a1.62,1.62,0,0,1,.17-1,.38.38,0,0,1-.06-.37,2.91,2.91,0,0,0,.08-.44,1.32,1.32,0,0,0,0-.28.28.28,0,0,1,.08-.28.3.3,0,0,1-.08-.29c0-.11,0-.24.06-.37a.69.69,0,0,0,0-.18.14.14,0,0,1,.07-.16,1.73,1.73,0,0,0-.09-.37.86.86,0,0,1,0-.44.72.72,0,0,1,0-.13.5.5,0,0,0,0-.18.64.64,0,0,1,0-.24.7.7,0,0,0,0-.12,1.3,1.3,0,0,0,0-.24,1.49,1.49,0,0,1,0-.29,1.37,1.37,0,0,0,0-.27.75.75,0,0,0,0-.23,1.69,1.69,0,0,1-.06-.23,3.1,3.1,0,0,0,0-.63c0-.16-.05-.34-.08-.54s0-.25,0-.4a2.29,2.29,0,0,1,0-.48,1.21,1.21,0,0,0,0-.4c0-.09,0-.18-.06-.28a1.21,1.21,0,0,1,0-.24V23.1a.7.7,0,0,1,0-.3.56.56,0,0,0,0-.13,1.5,1.5,0,0,0,0-.29,3.66,3.66,0,0,1-.06-.37,2.55,2.55,0,0,1,0-.51V21a.74.74,0,0,1,0-.18.52.52,0,0,0,0-.16c0-.1,0-.16,0-.2a.14.14,0,0,1,0-.1.44.44,0,0,0,0-.23A.29.29,0,0,1,91,20a.72.72,0,0,0,0-.34.47.47,0,0,1,0-.17,2,2,0,0,1,0-.31.5.5,0,0,0,0-.3.21.21,0,0,0,.1-.26,1,1,0,0,1,0-.28.58.58,0,0,1,.07-.28.24.24,0,0,0,0-.26.24.24,0,0,0,.1-.15.52.52,0,0,1,.07-.17.83.83,0,0,1,0-.48c.06-.19.12-.36.17-.53s0-.13,0-.16l-.11-.09.1-.39a.37.37,0,0,1,.22-.27,7.54,7.54,0,0,0,.9.08l.83,0a1,1,0,0,0,.21-.11.53.53,0,0,1,.21-.09.71.71,0,0,1,.32.11l.32.16a.71.71,0,0,1,.11.23,2,2,0,0,0,.08.26c0,.08,0,.13-.1.13a.19.19,0,0,0-.15.11v.32a.7.7,0,0,0,0,.38.47.47,0,0,1,0,.18.81.81,0,0,1,0,.32,1.36,1.36,0,0,0,0,.32.57.57,0,0,0,0,.16l0,.18a.22.22,0,0,0,0,.15l0,.12a2.94,2.94,0,0,1,0,.48,3,3,0,0,0,0,.45.72.72,0,0,1,0,.34.19.19,0,0,0,0,.15,3,3,0,0,0,.11.35.4.4,0,0,1,0,.13,1.81,1.81,0,0,0,0,.43c0,.11,0,.2,0,.28a4.8,4.8,0,0,1,0,.67,1.77,1.77,0,0,0,.12.65.51.51,0,0,0,0,.39,1.47,1.47,0,0,1,.06.44,2,2,0,0,1,0,.32,2.07,2.07,0,0,0,0,.34.21.21,0,0,1,0,.21.81.81,0,0,0-.08.23,3.49,3.49,0,0,0,0,.59,3.59,3.59,0,0,1,0,.59c0,.21,0,.44,0,.68a4.69,4.69,0,0,0,0,.68.6.6,0,0,0,0,.28.6.6,0,0,1,0,.16,3.19,3.19,0,0,1-.06.34,1.26,1.26,0,0,0,0,.32.67.67,0,0,0,0,.26,1.62,1.62,0,0,1,0,.28c0,.1,0,.2,0,.29s0,.2,0,.29,0,.45.06.66a5.54,5.54,0,0,1,0,.66,3.55,3.55,0,0,1,0,.52,1.64,1.64,0,0,0,0,.53l0,.35,0,.38,0,.18a.69.69,0,0,1,0,.18,2.91,2.91,0,0,1-.07.83,1.45,1.45,0,0,0,0,.83.44.44,0,0,0,.31.15.53.53,0,0,1,.33.15Z"/></g></g></svg>