<svg xmlns="http://www.w3.org/2000/svg" viewBox="0 0 92.11 65.01"><defs><style>.cls-1{fill:#fcd27c;}.cls-2{fill:#edbe69;}.cls-3{fill:none;stroke:#7c5c50;stroke-miterlimit:10;stroke-width:4px;}</style></defs><title>Asset 27</title><g id="Layer_2" data-name="Layer 2"><g id="Layer_1-2" data-name="Layer 1"><path class="cls-1" d="M2,35V30A10.54,10.54,0,0,1,12.54,19.43H34.31V13.16A11.15,11.15,0,0,1,51,3.51l33.5,19.35a11.14,11.14,0,0,1,0,19.3L51,61.5a11.15,11.15,0,0,1-16.72-9.66V45.59H12.54A10.54,10.54,0,0,1,2,35Z"/><path class="cls-2" d="M3,35V30A10.47,10.47,0,0,1,6.1,22.5,10.13,10.13,0,0,0,6,24V29A10.53,10.53,0,0,0,16.54,39.58H38.31v6.27A11.15,11.15,0,0,0,55,55.5l33.5-19.35A11.34,11.34,0,0,0,91,34.29a10.93,10.93,0,0,1-5.42,7.86L52,61.5a11.15,11.15,0,0,1-16.72-9.65V45.58H13.54A10.53,10.53,0,0,1,3,35Z"/><path class="cls-3" d="M2,35V30A10.54,10.54,0,0,1,12.54,19.43H34.31V13.16A11.15,11.15,0,0,1,51,3.51l33.5,19.35a11.14,11.14,0,0,1,0,19.3L51,61.5a11.15,11.15,0,0,1-16.72-9.66V45.59H12.54A10.54,10.54,0,0,1,2,35Z"/></g></g></svg>