<svg xmlns="http://www.w3.org/2000/svg" viewBox="0 0 124 52"><defs><style>.cls-1{fill:#a1e2be;}.cls-2{fill:#7dc0b4;}.cls-3{fill:#6c4735;}.cls-4{fill:#fdffff;}.cls-5{fill:#633e30;}</style></defs><title>Asset 17</title><g id="Layer_2" data-name="Layer 2"><g id="Layer_1-2" data-name="Layer 1"><rect class="cls-1" x="2" y="2" width="120" height="48" rx="12" ry="12"/><path class="cls-2" d="M122,13V37a12,12,0,0,1-12,12H14A12,12,0,0,1,3.75,43.25,12,12,0,0,0,10,45h96a12,12,0,0,0,12-12V9a12,12,0,0,0-1.75-6.25A12,12,0,0,1,122,13Z"/><path class="cls-3" d="M110,52H14A14,14,0,0,1,0,38V14A14,14,0,0,1,14,0h96a14,14,0,0,1,14,14V38A14,14,0,0,1,110,52ZM14,4A10,10,0,0,0,4,14V38A10,10,0,0,0,14,48h96a10,10,0,0,0,10-10V14A10,10,0,0,0,110,4Z"/><path class="cls-4" d="M109.45,43.05l1.16,1.34a1.51,1.51,0,0,0,2.12,0,1.53,1.53,0,0,0,0-2.12l-1.16-1.34a1.51,1.51,0,0,0-2.12,0,1.53,1.53,0,0,0,0,2.12Z"/><path class="cls-4" d="M112,38.45a9.1,9.1,0,0,0,2.76,2.47,1.5,1.5,0,1,0,1.51-2.59c-.19-.11-.38-.22-.56-.34a2,2,0,0,1-.35-.27c-.16-.15-.32-.3-.48-.46l-.22-.24q-.17-.21-.08-.08a1.55,1.55,0,0,0-2.05-.54,1.51,1.51,0,0,0-.54,2.05Z"/><path class="cls-4" d="M11.48,15.34a8.84,8.84,0,0,1,.89-3.45c.59-1.15,1.39-1.23,2.6-1.27,1.93,0,1.93-3,0-3s-3.66.4-4.78,2.06a11.46,11.46,0,0,0-1.71,5.66c-.13,1.93,2.87,1.92,3,0Z"/><path class="cls-4" d="M20,10.17h.67a1.5,1.5,0,1,0,0-3H20a1.5,1.5,0,1,0,0,3Z"/><path class="cls-5" d="M29.62,21.15a1.12,1.12,0,0,0,0,.34.23.23,0,0,1,0,.15.35.35,0,0,1-.17.23.84.84,0,0,0-.22.16.54.54,0,0,0-.44,0l-.39.12h-.32a.92.92,0,0,0-.37.07,1.37,1.37,0,0,1-.32.1.49.49,0,0,1-.22,0,.29.29,0,0,0-.22,0,.84.84,0,0,0-.06.48,1.66,1.66,0,0,1,0,.52,2.34,2.34,0,0,0,0,.62,2.66,2.66,0,0,1,0,.43c0,.15,0,.29,0,.42a.63.63,0,0,0,.08.37.9.9,0,0,0-.08.35c0,.14,0,.27,0,.4a3.06,3.06,0,0,0,0,.78,7.25,7.25,0,0,1,0,.78c0,.11,0,.22,0,.31s0,.18,0,.28a.46.46,0,0,0,0,.24.23.23,0,0,1,0,.1,4,4,0,0,0,0,.56,6.27,6.27,0,0,1,0,.66,1.49,1.49,0,0,1,0,.32.7.7,0,0,0,0,.17c0,.13,0,.27.06.42a.56.56,0,0,1-.13.44.25.25,0,0,0,0,.13.73.73,0,0,1,.06.13.51.51,0,0,0,0,.29.5.5,0,0,1,0,.15,1.46,1.46,0,0,0,0,.45l0,.35a1.23,1.23,0,0,1-.32,1l-.62-.1a2,2,0,0,0-.62,0l-.29.06a.58.58,0,0,1-.34,0,.45.45,0,0,0-.17.06.24.24,0,0,1-.15,0,.17.17,0,0,1-.17,0,.36.36,0,0,0-.17-.1,3,3,0,0,1,0-.73,6.92,6.92,0,0,0,0-.93.79.79,0,0,0,0-.21c0-.06,0-.13,0-.21a1.64,1.64,0,0,1,0-.35,2.07,2.07,0,0,0,0-.38.57.57,0,0,1,0-.16.6.6,0,0,0,0-.16c0-.06,0-.1,0-.11s0-.06,0-.16a2.69,2.69,0,0,1,.06-.59c0-.18.08-.36.11-.54a2.84,2.84,0,0,1,0-.43v-.23a1.92,1.92,0,0,0-.07-.22.64.64,0,0,1,0-.24.69.69,0,0,1,0-.15.33.33,0,0,0,0-.17,4.29,4.29,0,0,1,0-.74,3.6,3.6,0,0,0,0-.65,1.72,1.72,0,0,1-.07-.43,1.5,1.5,0,0,0,0-.28c0-.11,0-.24,0-.37a2.41,2.41,0,0,1,0-.42.53.53,0,0,1,0-.17.56.56,0,0,0,0-.17.65.65,0,0,0,0-.22.6.6,0,0,1,0-.22,2.43,2.43,0,0,1,0-.42,2.63,2.63,0,0,0,0-.42l0-.16a.57.57,0,0,1,0-.16,1.24,1.24,0,0,1,0-.46.91.91,0,0,0,0-.44,6.93,6.93,0,0,0-.78.2l-.18,0-.21.06-.32.1A.26.26,0,0,1,22,22a1,1,0,0,1-.27-.32.44.44,0,0,1,.06-.32,1.82,1.82,0,0,1,.21-.24q0-.1,0-.15a.34.34,0,0,0,.07-.17.92.92,0,0,0,0-.26.67.67,0,0,1,0-.28,1.35,1.35,0,0,1,.12-.27.77.77,0,0,0,.1-.24.83.83,0,0,0,0-.34.6.6,0,0,1,0-.34q.07-.41.61-.32l.27.07a.23.23,0,0,1,.17.15.5.5,0,0,1,.33,0,.54.54,0,0,0,.3.07.84.84,0,0,0,.15-.59,6.13,6.13,0,0,1,0-.78.79.79,0,0,0,0-.32l0-.2a1.89,1.89,0,0,1,0-.68l0-.16a.6.6,0,0,0,0-.16.76.76,0,0,0-.07-.34.49.49,0,0,0,0-.22l-.07-.12L24,15.47a.18.18,0,0,1,0-.13c.11-.11.2-.17.24-.16h.2l.33-.07a1,1,0,0,1,.35,0,.73.73,0,0,1,.34,0l.27.06a.52.52,0,0,0,.17-.07l.15-.07a.23.23,0,0,0,.2,0,.13.13,0,0,1,.17.06,1.06,1.06,0,0,0,.17.21.11.11,0,0,1,0,.09,1.71,1.71,0,0,1,0,.55q0,.35-.06.62a1.24,1.24,0,0,1,0,.23V17a1.11,1.11,0,0,1,0,.2,1,1,0,0,0,0,.17.84.84,0,0,1,.06.33.3.3,0,0,0,0,.16,1.42,1.42,0,0,0,.07.3c0,.09,0,.19-.12.31a.57.57,0,0,1,0,.28c0,.09,0,.19,0,.31a1.45,1.45,0,0,0,0,.17,1.29,1.29,0,0,1,0,.17.48.48,0,0,1,0,.22.25.25,0,0,0,0,.22.48.48,0,0,0,.34-.07,1.28,1.28,0,0,1,.29-.15.78.78,0,0,1,.31,0,.41.41,0,0,0,.3-.11.21.21,0,0,0,.27,0,.16.16,0,0,1,.24,0,.77.77,0,0,1,.42-.22.82.82,0,0,1,.49,0,1.59,1.59,0,0,0,.15.26l.07.11a.2.2,0,0,1,0,.13.34.34,0,0,0,0,.18.74.74,0,0,1,0,.26.58.58,0,0,0,0,.11,1.7,1.7,0,0,0,.07.32,2.41,2.41,0,0,1,.07.27Z"/><path class="cls-5" d="M45.76,19.86a.48.48,0,0,1-.06.2.5.5,0,0,0-.06.22.8.8,0,0,1,0,.22.38.38,0,0,0,0,.1.3.3,0,0,1,0,.17.1.1,0,0,0,0,.1.37.37,0,0,1,0,.22.3.3,0,0,0,0,.12.26.26,0,0,0,0,.16.6.6,0,0,1,0,.16,2.33,2.33,0,0,0-.06.3.54.54,0,0,1,0,.16c0,.08,0,.17,0,.27a1.36,1.36,0,0,0,0,.32.27.27,0,0,0,0,.12.34.34,0,0,1,0,.15,2.59,2.59,0,0,1,0,.56,2.66,2.66,0,0,0,0,.56.88.88,0,0,0,0,.22.52.52,0,0,1,0,.22,1,1,0,0,1,0,.32,1.7,1.7,0,0,0-.07.34,1.16,1.16,0,0,1,0,.33.46.46,0,0,0,0,.31,1.24,1.24,0,0,1-.12.29,2,2,0,0,1,0,.66,3.54,3.54,0,0,0-.06.66l0,.23a1.12,1.12,0,0,1,0,.23.42.42,0,0,1,0,.12.45.45,0,0,0,0,.15.63.63,0,0,1,0,.32l-.06.15c0,.18,0,.32,0,.43a.69.69,0,0,1-.12.35.55.55,0,0,0,0,.38.54.54,0,0,1-.07.43.64.64,0,0,1,0,.27c0,.08,0,.19,0,.32a1.7,1.7,0,0,1,0,.48.94.94,0,0,0,0,.26A2,2,0,0,0,45,32c0,.17.06.34.07.5a.38.38,0,0,0,0,.42.55.55,0,0,1,.15.37,2,2,0,0,0-.07.21.53.53,0,0,0,0,.11l-.22.11a.72.72,0,0,1-.2.08l-.15,0-.17,0a.45.45,0,0,0-.23,0,1,1,0,0,1-.26,0,1.08,1.08,0,0,1-.28,0,.6.6,0,0,0-.28,0,.86.86,0,0,0-.28.1.54.54,0,0,1-.26.07c-.11.11-.21.17-.29.16a.34.34,0,0,0-.17,0,.9.9,0,0,1-.24-.39.37.37,0,0,1,0-.42,1.28,1.28,0,0,1,0-.71,2.1,2.1,0,0,0,0-.78,1.35,1.35,0,0,0-.35.2,3.15,3.15,0,0,0-.31.27.39.39,0,0,0-.12.13.34.34,0,0,1-.15.13l-.22.1a.36.36,0,0,0-.17.12.67.67,0,0,1-.26,0,.69.69,0,0,0-.26,0L40,33l-.39.08-.39.12a1.08,1.08,0,0,1-.51,0,.41.41,0,0,0-.26,0,.25.25,0,0,1-.13,0,.62.62,0,0,1-.42,0c0,.07-.11.08-.23,0a1.44,1.44,0,0,1-.28-.1.57.57,0,0,1-.37,0l-.37-.07c-.08,0-.13,0-.13-.07s0-.08-.11-.1a4.1,4.1,0,0,1-1.15-.12.35.35,0,0,0-.13-.15.23.23,0,0,1-.11-.17c-.08,0-.13,0-.16,0a.16.16,0,0,0-.16-.07.41.41,0,0,0-.13-.18.51.51,0,0,1-.13-.13.28.28,0,0,1-.18,0,.29.29,0,0,0-.18,0l-.17-.22,0,0a.37.37,0,0,0-.18-.1.12.12,0,0,1-.09,0l-.2-.2-.15-.17a1.07,1.07,0,0,0-.24-.26c-.07,0-.09-.12-.07-.23a2.24,2.24,0,0,1-.28-.21l-.11-.13a.56.56,0,0,1-.12-.24.23.23,0,0,0-.12-.17L32,29.51a.46.46,0,0,0-.27-.21q0-.12,0-.15s0-.06,0-.12a1.05,1.05,0,0,1-.29-.42,4.34,4.34,0,0,1-.17-.52q-.07-.28-.12-.56A3.37,3.37,0,0,0,31,27c0-.23,0-.47,0-.72a1.72,1.72,0,0,1,.12-.67.76.76,0,0,0,.07-.29,1.22,1.22,0,0,1,0-.24c0-.08,0-.16,0-.23s0-.15,0-.23a5.83,5.83,0,0,1,.13-.59,1,1,0,0,1,.18-.34.48.48,0,0,1,0-.3,1.1,1.1,0,0,1,.12-.24l.15-.23a.51.51,0,0,0,.07-.27.63.63,0,0,0,.18-.23,1.18,1.18,0,0,1,.16-.26l.12-.22.15-.24a.73.73,0,0,1,.13-.15.19.19,0,0,0,.06-.2l.12-.1a.53.53,0,0,1,.17-.1q.19-.29.32-.53a2.21,2.21,0,0,1,.29-.43l.18-.16.18-.13a.26.26,0,0,1,.18-.16.2.2,0,0,0,.16-.16l.49-.11a1.23,1.23,0,0,0,.44-.21l.31,0a.5.5,0,0,0,.28-.11.55.55,0,0,0,.39,0l.27-.18h.74c.24,0,.49,0,.77,0l.38,0a1.16,1.16,0,0,1,.33,0H39a.24.24,0,0,1,.17.07.42.42,0,0,1,.42,0,.2.2,0,0,0,.12,0,.38.38,0,0,1,.2,0,1.44,1.44,0,0,0,.33.07h.13l.24.12.17.12a5.17,5.17,0,0,0,.5.28,2.29,2.29,0,0,1,.35.21.75.75,0,0,0,.17.17l.1.07.1.11.12.13a.48.48,0,0,0,.15.17l.2.17a.51.51,0,0,1,.09.12.3.3,0,0,0,.11.12l.16.13a.25.25,0,0,1,.11.21,1.79,1.79,0,0,0,0-.72,3.15,3.15,0,0,0-.15-.65,1.17,1.17,0,0,0-.15-.23q-.07-.08,0-.3a.68.68,0,0,1,.11-.22l.13-.17s.06,0,.17,0h.29l.21,0h.18l.66,0a2.43,2.43,0,0,1,.66.12.46.46,0,0,1,.32,0l.27.11a.38.38,0,0,1,0,.16.37.37,0,0,0,0,.16Zm-3.54,5.86a.45.45,0,0,1-.06-.21c0-.09,0-.17,0-.26a.38.38,0,0,0-.11-.11l-.11-.08a.71.71,0,0,0-.06-.32,1,1,0,0,1-.08-.24.35.35,0,0,0,0-.28.53.53,0,0,1-.08-.18.67.67,0,0,1,0-.26,1.78,1.78,0,0,0,0-.28.31.31,0,0,1-.15-.15.32.32,0,0,0-.07-.12l-.29-.29-.2-.2a1.4,1.4,0,0,0-.46-.32l-.37-.21-.32-.16a.65.65,0,0,0-.29-.07,1.4,1.4,0,0,1-.34,0l-.2-.08-.15-.06h-.15a.53.53,0,0,1-.2,0,.42.42,0,0,1-.16,0l-.13,0a.59.59,0,0,1-.37,0c-.08,0-.14,0-.17,0a.64.64,0,0,0-.33.1A1.68,1.68,0,0,1,37,22l-.28.13-.11.06a2.48,2.48,0,0,0-.34.2l-.17.12a.54.54,0,0,0-.2.11.08.08,0,0,1-.07,0l-.1.12-.1.12-.24.21-.15.13a1,1,0,0,1-.34.22.59.59,0,0,1-.17.4.52.52,0,0,0-.15.4,1.09,1.09,0,0,0-.15.23l-.1.23a1.27,1.27,0,0,0-.06.3,2.14,2.14,0,0,1-.06.35,2,2,0,0,1-.1.24.83.83,0,0,0-.07.22,1.07,1.07,0,0,1,0,.5,1.52,1.52,0,0,0-.08.35.57.57,0,0,0,0,.2.6.6,0,0,1,0,.22,1.17,1.17,0,0,1,0,.28.51.51,0,0,0,0,.13.86.86,0,0,0,.11.32.44.44,0,0,1,0,.34l.32.24a1.69,1.69,0,0,0,.34.22,1.72,1.72,0,0,0,.42.49l.46.39a1.2,1.2,0,0,0,.49.34,1.74,1.74,0,0,0,.35.16l.26.06.18.06.16.06a6.26,6.26,0,0,1,.76.13,2.51,2.51,0,0,0,.61.09.37.37,0,0,0,.17,0l.17,0H39a.58.58,0,0,0,.18,0,.87.87,0,0,1,.24-.1l.1,0,.17-.07a.16.16,0,0,1,.2,0,.67.67,0,0,1,.21-.24l.26-.18a1.38,1.38,0,0,0,.23-.21.57.57,0,0,0,.13-.32A1.27,1.27,0,0,1,41,29a1.25,1.25,0,0,0,.17-.18.73.73,0,0,0,.08-.18.42.42,0,0,1,.09-.16,3,3,0,0,0,.18-.33.87.87,0,0,1,.18-.26.26.26,0,0,1,0-.23l.11-.21a3.73,3.73,0,0,0,.17-.65,4.67,4.67,0,0,0,0-.72A1.82,1.82,0,0,0,42.22,25.72Z"/><path class="cls-5" d="M62.14,33.63c0,.08,0,.13-.06.15a.21.21,0,0,0-.13.12.22.22,0,0,0-.06.13.1.1,0,0,1-.11.09.6.6,0,0,0-.22,0,.11.11,0,0,1-.1,0,.27.27,0,0,1-.15,0,.52.52,0,0,0-.2-.07,1.52,1.52,0,0,0-.48,0,2.21,2.21,0,0,1-.45,0l-.16,0-.16,0H59.4a1.87,1.87,0,0,1-.46,0l-.18-.07a.29.29,0,0,0-.21,0,.23.23,0,0,0-.11-.17.24.24,0,0,1-.11-.17.77.77,0,0,1,0-.46.78.78,0,0,0,0-.46,1.38,1.38,0,0,0,.17-.54.76.76,0,0,1,0-.23,1.44,1.44,0,0,0,0-.16.83.83,0,0,0,0-.37,2.17,2.17,0,0,1,0-.46c0-.16,0-.33,0-.5v-.57a3.77,3.77,0,0,0,0-.38l0-.21a.65.65,0,0,0,0-.28.19.19,0,0,1,0-.11.85.85,0,0,0,0-.34,1.8,1.8,0,0,1-.06-.2.36.36,0,0,1,0-.13.37.37,0,0,0,0-.13,2.53,2.53,0,0,0,0-.4l0-.26a.93.93,0,0,1,0-.21.13.13,0,0,0-.1-.16.52.52,0,0,0,0-.27,2.38,2.38,0,0,1,0-.39v-.2a1.15,1.15,0,0,1,0-.21v-.06l-.06-.23c0-.09-.05-.17-.09-.26a.47.47,0,0,0,0-.28c0-.09-.05-.18-.08-.28A.7.7,0,0,0,58,24.6a.27.27,0,0,1-.06-.08c-.1-.24-.18-.47-.26-.67a3.3,3.3,0,0,1-.16-.7,2.92,2.92,0,0,0-.26-.27.79.79,0,0,1-.21-.32l-.45-.26a1,1,0,0,0-.6-.06.47.47,0,0,0-.17,0l-.2.06-.35.11a1.27,1.27,0,0,0-.33.13.43.43,0,0,1-.21.12.12.12,0,0,0-.08,0,.39.39,0,0,0-.12.13.67.67,0,0,1-.1.13,1.75,1.75,0,0,0-.16.21l-.09.11-.15.18a.69.69,0,0,1-.2.16.16.16,0,0,1-.07.15.44.44,0,0,0-.12.12c0,.1-.07.16-.1.17l-.07,0a1.23,1.23,0,0,0-.12.29.37.37,0,0,1-.2.24.86.86,0,0,1-.1.34,1.27,1.27,0,0,1-.2.24.61.61,0,0,1-.12.49,1.19,1.19,0,0,0-.24.37c0,.18-.06.32-.08.43a2.06,2.06,0,0,1-.09.28,1.26,1.26,0,0,0-.07.26.54.54,0,0,1-.1.23,1.3,1.3,0,0,1-.07.66,3,3,0,0,0-.17.68.39.39,0,0,0,0,.17.39.39,0,0,1,0,.17c0,.15,0,.32,0,.52l0,.57a.79.79,0,0,0,0,.12.82.82,0,0,1,0,.15,1.51,1.51,0,0,1,0,.33,1.42,1.42,0,0,0,0,.33.46.46,0,0,0,0,.26.48.48,0,0,1,0,.26,1.65,1.65,0,0,0,0,.34,1.43,1.43,0,0,0,0,.22c0,.07,0,.13,0,.18a.19.19,0,0,0,.09.13.88.88,0,0,0,0,.42,1.22,1.22,0,0,0,.15.35.34.34,0,0,1,0,.38.53.53,0,0,1-.56.21,3.52,3.52,0,0,0-.78,0l-.34,0-.29,0-.34,0a.7.7,0,0,1-.32,0,.31.31,0,0,1-.15,0,.44.44,0,0,1-.12-.08.8.8,0,0,1-.24-.12.42.42,0,0,1-.06-.26.89.89,0,0,0,0-.26.39.39,0,0,0,0-.16.47.47,0,0,1,0-.18,3.1,3.1,0,0,1,0-.39l0-.39a2.31,2.31,0,0,1,0-.35,2.08,2.08,0,0,0,0-.3c0-.08,0-.17,0-.27a.33.33,0,0,1,.11-.27c0-.13-.06-.22,0-.26a.2.2,0,0,0,0-.09,1.4,1.4,0,0,0,0-.32v-.83l0-.49q0-.24,0-.56a.66.66,0,0,0,0-.2.39.39,0,0,1,0-.12.47.47,0,0,0,0-.28.43.43,0,0,1,0-.16,2.22,2.22,0,0,1,0-.44l0-.13,0-.13a.55.55,0,0,1,0-.27.42.42,0,0,0,0-.12c0-.13,0-.28-.06-.44A.91.91,0,0,1,49,25.4c0-.08-.07-.17-.1-.27a.2.2,0,0,1,.07-.24l-.1-.23a.68.68,0,0,1,0-.28,2.81,2.81,0,0,0,0-.68.73.73,0,0,1,.08-.51.65.65,0,0,1-.07-.48,2.29,2.29,0,0,0,0-.57l0-.15a.45.45,0,0,1,0-.15,1,1,0,0,1,0-.39,1.43,1.43,0,0,0,0-.37,2.47,2.47,0,0,1-.15-.65,1.89,1.89,0,0,0-.1-.5.32.32,0,0,0,.11-.12l.08-.15a1.09,1.09,0,0,1,.4,0,.35.35,0,0,1,.3.17.31.31,0,0,1,.26-.07l.28,0h.61l.44,0h.39l.12.12a.62.62,0,0,1,.1.15,1.59,1.59,0,0,1,.16.62c0,.27.05.52.09.74q.12,0,.13-.07a.24.24,0,0,1,.06-.15l.24-.15a1.29,1.29,0,0,0,.24-.2l.16-.06a.27.27,0,0,1,.18,0A.39.39,0,0,0,53,20.6a.62.62,0,0,1,.1-.13.64.64,0,0,0,.29-.2l.15,0a.12.12,0,0,0,.1-.12.41.41,0,0,0,.26-.09l.23-.16a1.92,1.92,0,0,0,.32-.18l.12-.08a.24.24,0,0,1,.13,0,.6.6,0,0,0,.21,0l.29-.07.34-.07.17,0,.24,0h.2a1.1,1.1,0,0,0,.39.07l.32,0a2.32,2.32,0,0,0,.43.12l.28,0a.57.57,0,0,0,.27.12l.31.11a.85.85,0,0,1,.23.18l.1.11a.21.21,0,0,1,0,.13l.28.22a2.4,2.4,0,0,1,.28.24.32.32,0,0,1,.07.12.29.29,0,0,0,.07.12.75.75,0,0,0,.16.12.76.76,0,0,1,.16.12.38.38,0,0,1,.12.15.21.21,0,0,0,.15.12.34.34,0,0,0,.13.28.61.61,0,0,1,.18.23,1,1,0,0,1,.06.26.41.41,0,0,0,.13.26,1.09,1.09,0,0,0,.13.42c.07.13.14.27.21.42a1.64,1.64,0,0,1,.07.23,1.35,1.35,0,0,0,.07.23l.07.21a.94.94,0,0,0,.07.18,1.77,1.77,0,0,1,.07.35.49.49,0,0,0,0,.16,3.52,3.52,0,0,1,.29.88,3.14,3.14,0,0,0,.07.32.42.42,0,0,1,0,.12,1.2,1.2,0,0,1,0,.22,1.1,1.1,0,0,0,0,.22.78.78,0,0,0,0,.2.84.84,0,0,1,0,.2.36.36,0,0,1,0,.18.44.44,0,0,0,0,.21,3.52,3.52,0,0,0,.07.4l.1.4c0,.08,0,.14,0,.17a.18.18,0,0,0-.06.15,1.34,1.34,0,0,1,.08.22c0,.08,0,.16.06.24a.42.42,0,0,1,0,.12.45.45,0,0,0,0,.15,2.2,2.2,0,0,0,0,.32.31.31,0,0,1-.12.29,1.27,1.27,0,0,1,.15.51,1.18,1.18,0,0,1-.07.54c0,.08,0,.13,0,.13s.06.05,0,.13a.53.53,0,0,0-.06.35.75.75,0,0,1,0,.35.35.35,0,0,1,0,.18.32.32,0,0,0,0,.16.2.2,0,0,0,0,.21.18.18,0,0,1,0,.23.53.53,0,0,0,.08.21.4.4,0,0,1,0,.3.3.3,0,0,0,.12.11l.15.09c0,.11,0,.18,0,.21S62.14,33.53,62.14,33.63Z"/><path class="cls-5" d="M78.62,19.86a.48.48,0,0,1-.06.2.5.5,0,0,0-.06.22.8.8,0,0,1,0,.22.38.38,0,0,0,0,.1.3.3,0,0,1,0,.17.1.1,0,0,0,0,.1.37.37,0,0,1,0,.22.3.3,0,0,0,0,.12.26.26,0,0,0,0,.16.6.6,0,0,1,0,.16,2.33,2.33,0,0,0-.06.3.54.54,0,0,1,0,.16c0,.08,0,.17,0,.27a1.36,1.36,0,0,0,0,.32.27.27,0,0,0,0,.12.34.34,0,0,1,0,.15,2.59,2.59,0,0,1,0,.56,2.66,2.66,0,0,0,0,.56.88.88,0,0,0,0,.22.52.52,0,0,1,0,.22,1,1,0,0,1,0,.32,1.7,1.7,0,0,0-.07.34,1.16,1.16,0,0,1,0,.33.46.46,0,0,0,0,.31,1.24,1.24,0,0,1-.12.29,2,2,0,0,1,0,.66,3.54,3.54,0,0,0-.06.66l0,.23a1.12,1.12,0,0,1,0,.23.42.42,0,0,1,0,.12.45.45,0,0,0,0,.15.63.63,0,0,1,0,.32l-.06.15c0,.18,0,.32,0,.43a.69.69,0,0,1-.12.35.55.55,0,0,0,0,.38.54.54,0,0,1-.07.43.64.64,0,0,1,0,.27c0,.08,0,.19,0,.32a1.7,1.7,0,0,1,0,.48.94.94,0,0,0,0,.26,2,2,0,0,0,0,.55c0,.17.06.34.07.5a.38.38,0,0,0,0,.42.55.55,0,0,1,.15.37,2,2,0,0,0-.07.21.53.53,0,0,0,0,.11l-.22.11a.72.72,0,0,1-.2.08l-.15,0-.17,0a.45.45,0,0,0-.23,0,1,1,0,0,1-.26,0,1.08,1.08,0,0,1-.28,0,.6.6,0,0,0-.28,0,.86.86,0,0,0-.28.1.54.54,0,0,1-.26.07c-.11.11-.21.17-.29.16a.34.34,0,0,0-.17,0,.9.9,0,0,1-.24-.39.37.37,0,0,1,0-.42,1.28,1.28,0,0,1,0-.71,2.1,2.1,0,0,0,0-.78,1.35,1.35,0,0,0-.35.2,3.15,3.15,0,0,0-.31.27.39.39,0,0,0-.12.13.34.34,0,0,1-.15.13l-.22.1a.36.36,0,0,0-.17.12.67.67,0,0,1-.26,0,.69.69,0,0,0-.26,0l-.34.09-.39.08-.39.12a1.08,1.08,0,0,1-.51,0,.41.41,0,0,0-.26,0,.25.25,0,0,1-.13,0,.62.62,0,0,1-.42,0c0,.07-.11.08-.23,0a1.44,1.44,0,0,1-.28-.1.57.57,0,0,1-.37,0l-.37-.07c-.08,0-.13,0-.13-.07s0-.08-.11-.1a4.1,4.1,0,0,1-1.15-.12.35.35,0,0,0-.13-.15.23.23,0,0,1-.11-.17c-.08,0-.13,0-.16,0a.16.16,0,0,0-.16-.07.41.41,0,0,0-.13-.18.51.51,0,0,1-.13-.13.28.28,0,0,1-.18,0,.29.29,0,0,0-.18,0l-.17-.22,0,0a.37.37,0,0,0-.18-.1.12.12,0,0,1-.09,0l-.2-.2-.15-.17a1.07,1.07,0,0,0-.24-.26c-.07,0-.09-.12-.07-.23a2.24,2.24,0,0,1-.28-.21l-.11-.13a.56.56,0,0,1-.12-.24.23.23,0,0,0-.12-.17l-.27-.43a.46.46,0,0,0-.27-.21q0-.12,0-.15s0-.06,0-.12a1.05,1.05,0,0,1-.29-.42,4.34,4.34,0,0,1-.17-.52q-.07-.28-.12-.56a3.37,3.37,0,0,0-.15-.55c0-.23,0-.47,0-.72a1.72,1.72,0,0,1,.12-.67.76.76,0,0,0,.07-.29,1.22,1.22,0,0,1,0-.24c0-.08,0-.16,0-.23s0-.15,0-.23a5.83,5.83,0,0,1,.13-.59,1,1,0,0,1,.18-.34.48.48,0,0,1,0-.3,1.1,1.1,0,0,1,.12-.24l.15-.23a.51.51,0,0,0,.07-.27.63.63,0,0,0,.18-.23,1.18,1.18,0,0,1,.16-.26l.12-.22.15-.24a.73.73,0,0,1,.13-.15.19.19,0,0,0,.06-.2l.12-.1a.53.53,0,0,1,.17-.1q.19-.29.32-.53a2.21,2.21,0,0,1,.29-.43l.18-.16.18-.13a.26.26,0,0,1,.18-.16.2.2,0,0,0,.16-.16l.49-.11a1.23,1.23,0,0,0,.44-.21l.31,0a.5.5,0,0,0,.28-.11.55.55,0,0,0,.39,0l.27-.18h.74c.24,0,.49,0,.77,0l.38,0a1.16,1.16,0,0,1,.33,0h.22a.24.24,0,0,1,.17.07.42.42,0,0,1,.42,0,.2.2,0,0,0,.12,0,.38.38,0,0,1,.2,0,1.44,1.44,0,0,0,.33.07h.13l.24.12.17.12a5.17,5.17,0,0,0,.5.28,2.29,2.29,0,0,1,.35.21.75.75,0,0,0,.17.17l.1.07.1.11.12.13a.48.48,0,0,0,.15.17l.2.17a.51.51,0,0,1,.09.12.3.3,0,0,0,.11.12l.16.13a.25.25,0,0,1,.11.21,1.79,1.79,0,0,0,0-.72,3.15,3.15,0,0,0-.15-.65,1.17,1.17,0,0,0-.15-.23q-.07-.08,0-.3a.68.68,0,0,1,.11-.22l.13-.17s.06,0,.17,0h.29l.21,0h.18l.66,0a2.43,2.43,0,0,1,.66.12.46.46,0,0,1,.32,0l.27.11a.38.38,0,0,1,0,.16.37.37,0,0,0,0,.16Zm-3.54,5.86a.45.45,0,0,1-.06-.21c0-.09,0-.17,0-.26a.38.38,0,0,0-.11-.11l-.11-.08a.71.71,0,0,0-.06-.32,1,1,0,0,1-.08-.24.35.35,0,0,0,0-.28.53.53,0,0,1-.08-.18.67.67,0,0,1,0-.26,1.78,1.78,0,0,0,0-.28.31.31,0,0,1-.15-.15.32.32,0,0,0-.07-.12L74,22.93l-.2-.2a1.4,1.4,0,0,0-.46-.32l-.37-.21-.32-.16a.65.65,0,0,0-.29-.07,1.4,1.4,0,0,1-.34,0l-.2-.08-.15-.06h-.15a.53.53,0,0,1-.2,0,.42.42,0,0,1-.16,0l-.13,0a.59.59,0,0,1-.37,0c-.08,0-.14,0-.17,0a.64.64,0,0,0-.33.1,1.68,1.68,0,0,1-.26.17l-.28.13-.11.06a2.48,2.48,0,0,0-.34.2l-.17.12a.54.54,0,0,0-.2.11.08.08,0,0,1-.07,0l-.1.12-.1.12-.24.21-.15.13a1,1,0,0,1-.34.22.59.59,0,0,1-.17.4.52.52,0,0,0-.15.4,1.09,1.09,0,0,0-.15.23l-.1.23a1.27,1.27,0,0,0-.06.3,2.14,2.14,0,0,1-.06.35,2,2,0,0,1-.1.24.83.83,0,0,0-.07.22,1.07,1.07,0,0,1,0,.5,1.52,1.52,0,0,0-.08.35.57.57,0,0,0,0,.2.6.6,0,0,1,0,.22,1.17,1.17,0,0,1,0,.28.51.51,0,0,0,0,.13.86.86,0,0,0,.11.32.44.44,0,0,1,0,.34l.32.24a1.69,1.69,0,0,0,.34.22,1.72,1.72,0,0,0,.42.49l.46.39a1.2,1.2,0,0,0,.49.34,1.74,1.74,0,0,0,.35.16l.26.06.18.06.16.06a6.26,6.26,0,0,1,.76.13,2.51,2.51,0,0,0,.61.09.37.37,0,0,0,.17,0l.17,0h.21a.58.58,0,0,0,.18,0,.87.87,0,0,1,.24-.1l.1,0,.17-.07a.16.16,0,0,1,.2,0A.67.67,0,0,1,73,30l.26-.18a1.38,1.38,0,0,0,.23-.21.57.57,0,0,0,.13-.32,1.27,1.27,0,0,1,.22-.28,1.25,1.25,0,0,0,.17-.18.73.73,0,0,0,.08-.18.42.42,0,0,1,.09-.16,3,3,0,0,0,.18-.33.87.87,0,0,1,.18-.26.26.26,0,0,1,0-.23l.11-.21a3.73,3.73,0,0,0,.17-.65,4.67,4.67,0,0,0,0-.72A1.82,1.82,0,0,0,75.08,25.72Z"/><path class="cls-5" d="M102.84,32.8a1.18,1.18,0,0,1-.08.26l-.06.09a.3.3,0,0,1-.17.07.57.57,0,0,0-.2,0,.34.34,0,0,1-.16,0,.48.48,0,0,0-.18,0l-.2.06a.54.54,0,0,1-.2,0l-.24,0-.27,0-.4.06a2.35,2.35,0,0,1-.43,0,.78.78,0,0,1-.33.1h-.4a.42.42,0,0,0-.13-.16.43.43,0,0,1-.13-.16,1.35,1.35,0,0,1,.22-.68.64.64,0,0,1,0-.23.29.29,0,0,0,0-.09V32a1.22,1.22,0,0,1,0-.34,3,3,0,0,0,.1-.89,5.57,5.57,0,0,1,0-.75,1,1,0,0,0,.06-.35,1.76,1.76,0,0,1,0-.18.67.67,0,0,1,.07-.18,1,1,0,0,0,.07-.16.6.6,0,0,0,0-.22c0-.06,0-.12.09-.17a.63.63,0,0,1-.1-.42,4.14,4.14,0,0,0,0-.44.82.82,0,0,0,0-.15.79.79,0,0,1,0-.12,4.26,4.26,0,0,1,0-.66,3,3,0,0,0,0-.66,2.41,2.41,0,0,0-.07-.27,1.79,1.79,0,0,1-.07-.29.2.2,0,0,1,0-.12,1,1,0,0,0,0-.17l0-.13a.35.35,0,0,1,0-.13.67.67,0,0,1,0-.26.7.7,0,0,0,0-.26.6.6,0,0,0,0-.22.57.57,0,0,1,0-.2.55.55,0,0,1,0-.21.28.28,0,0,0,0-.18.56.56,0,0,0,0-.17l0-.15a1.46,1.46,0,0,0,0-.34.36.36,0,0,0-.08-.13.57.57,0,0,1-.11-.16,1.11,1.11,0,0,0-.17-.27L99,22.46l-.15-.23a1.24,1.24,0,0,1-.18-.17.14.14,0,0,1,0-.07.4.4,0,0,1-.2,0l-.07,0a1.17,1.17,0,0,0-.34-.07.35.35,0,0,0-.18,0l-.18,0-.2,0a.35.35,0,0,0-.15,0,.42.42,0,0,1-.2.07L97,22a1,1,0,0,0-.22.12l-.22.15a1.1,1.1,0,0,1-.2.16l-.2.13a.47.47,0,0,1-.2.16.42.42,0,0,0-.15.09,1.92,1.92,0,0,0-.24.27,1.93,1.93,0,0,1-.32.59l-.32.39a1.27,1.27,0,0,0-.2.34l-.1.27a.8.8,0,0,1-.12.24s0,.06,0,.07a.7.7,0,0,1-.12.26.89.89,0,0,0-.12.18.53.53,0,0,0,0,.17.35.35,0,0,1,0,.15,1.07,1.07,0,0,0-.13.32.92.92,0,0,1,0,.17,2,2,0,0,1-.15.34.57.57,0,0,0-.07.15.3.3,0,0,0,0,.13.31.31,0,0,1,0,.13.49.49,0,0,0-.1.27.17.17,0,0,1-.12.17.93.93,0,0,1-.11.54,1.69,1.69,0,0,0-.18.54.76.76,0,0,0,0,.21.27.27,0,0,1,0,.16,1.63,1.63,0,0,1,0,.2,1.29,1.29,0,0,0,0,.17l0,.13,0,.13a1.42,1.42,0,0,0,0,.28,1.93,1.93,0,0,1,0,.3.46.46,0,0,0,0,.24.23.23,0,0,1,0,.1.8.8,0,0,0,0,.34.5.5,0,0,1,0,.37l.11.29a.24.24,0,0,1-.08.29.85.85,0,0,0,.1.16.76.76,0,0,1,.1.18.93.93,0,0,1,0,.26.85.85,0,0,0,0,.26l.12.28a.59.59,0,0,1,0,.38.3.3,0,0,1-.18.22.7.7,0,0,0-.26.17.63.63,0,0,0-.28-.08.83.83,0,0,1-.3-.09.92.92,0,0,0-.39-.09h-.34l-.21,0-.21,0a.36.36,0,0,1-.17,0,.34.34,0,0,0-.15,0,.66.66,0,0,0-.29,0,.3.3,0,0,1-.24,0,.7.7,0,0,1-.13-.62,1.39,1.39,0,0,1,.21-.62c0-.16,0-.33,0-.51a2.78,2.78,0,0,0,0-.42.34.34,0,0,1,0-.26.67.67,0,0,0,.1-.28.48.48,0,0,0,0-.15.53.53,0,0,1,0-.17q0-.29,0-.81c0-.34,0-.67,0-1,0-.08,0-.17,0-.27s0-.2,0-.32a.14.14,0,0,1,0-.15l.06-.12a1.82,1.82,0,0,0,0-.37.39.39,0,0,1,.11-.34.44.44,0,0,1-.09-.23.17.17,0,0,0,0-.11l-.09-.21a.78.78,0,0,1-.06-.26.35.35,0,0,0,0-.18l0-.11a1,1,0,0,0,0-.32l-.06-.17a1.52,1.52,0,0,0,0-.51,1.07,1.07,0,0,0-.11-.39.32.32,0,0,1-.06-.21.24.24,0,0,0,0-.13,1.82,1.82,0,0,0-.1-.21,1.56,1.56,0,0,1-.1-.21c-.08-.2-.13-.33-.16-.4a1.56,1.56,0,0,0-.08-.21c-.1-.16-.2-.31-.29-.45s-.2-.27-.32-.4a2.36,2.36,0,0,1-.56-.22.2.2,0,0,0-.13,0,.43.43,0,0,1-.16,0,.16.16,0,0,1-.13,0,.17.17,0,0,0-.13,0l-.39.15-.27.1a1.62,1.62,0,0,1-.33.15l-.31.1a2.38,2.38,0,0,0-.43.27,1.84,1.84,0,0,1-.4.24,1.35,1.35,0,0,0-.21.35.48.48,0,0,1-.3.28.23.23,0,0,1,0,.2,1.79,1.79,0,0,1-.08.2,1.54,1.54,0,0,0-.08.28c0,.06,0,.12,0,.18s-.14.33-.18.45a.34.34,0,0,1-.18.23.4.4,0,0,1,0,.27l-.11.2a1.37,1.37,0,0,1-.06.56q-.08.24-.21.51a1.81,1.81,0,0,0-.11.61,1.12,1.12,0,0,1-.21.63c0,.08,0,.13,0,.16s.05.08,0,.16a.18.18,0,0,1,0,.18.23.23,0,0,0-.07.18,2.27,2.27,0,0,1,.1.85,1.73,1.73,0,0,1-.22.83.27.27,0,0,1,.1.24,1.82,1.82,0,0,0,0,.34.81.81,0,0,1,0,.28.19.19,0,0,0,0,.13.45.45,0,0,0,0,.15l0,.15a3.22,3.22,0,0,0,0,.54,3.5,3.5,0,0,0,0,.44,2,2,0,0,0,.13.57.68.68,0,0,1,0,.55,1.11,1.11,0,0,1-.54.18,3.43,3.43,0,0,1-.57,0l-.63-.08a4.47,4.47,0,0,0-.67,0,1.19,1.19,0,0,1-.24-.63.41.41,0,0,1,0-.21.69.69,0,0,0,.07-.21,6.3,6.3,0,0,1,0-.79c0-.24,0-.47,0-.7v-.33a1.44,1.44,0,0,1,0-.35.83.83,0,0,1,0-.56,1,1,0,0,0,0-.56,1.5,1.5,0,0,0,.07-.71,1.86,1.86,0,0,1,.07-.78,3,3,0,0,1-.13-.66q0-.24,0-.51a1.42,1.42,0,0,0,0-.43l0-.26a2.28,2.28,0,0,1,0-.24c0-.08,0-.16,0-.24s0-.15,0-.22a1.75,1.75,0,0,0,0-.2,3.15,3.15,0,0,1-.07-.71.69.69,0,0,0,0-.29l0-.12a.53.53,0,0,1,0-.17V23a1.42,1.42,0,0,0,0-.27.55.55,0,0,0,0-.24.22.22,0,0,1,0-.15.24.24,0,0,0,0-.17.35.35,0,0,0,0-.18.12.12,0,0,1,0-.13.45.45,0,0,1,0-.15.23.23,0,0,0,0-.15.49.49,0,0,0,0-.22.81.81,0,0,1-.07-.22.3.3,0,0,1,.07-.15.31.31,0,0,0,.07-.12.92.92,0,0,1,0-.48,4.87,4.87,0,0,1,.12-.5,2.66,2.66,0,0,1,.11-.28.43.43,0,0,1,.13-.18.38.38,0,0,1,.44,0l.46.23a5.54,5.54,0,0,1,.84,0c.3,0,.59,0,.87,0l.17.21a.75.75,0,0,1,.12.21,2,2,0,0,1,0,.33.44.44,0,0,0,0,.28.22.22,0,0,0,.23,0,.75.75,0,0,1,.21-.12,1.83,1.83,0,0,0,.31-.23.47.47,0,0,1,.28-.13.3.3,0,0,1,.12-.11.33.33,0,0,0,.12-.11,1.33,1.33,0,0,0,.32-.12l.21-.13h.09l.1-.11a.3.3,0,0,1,.1-.09l.13,0,.16,0,.49-.18a.88.88,0,0,1,.29-.06.76.76,0,0,1,.38,0,.5.5,0,0,0,.4,0l.61.09a.67.67,0,0,1,.39.16.69.69,0,0,1,.39-.1.37.37,0,0,1,.26.15.86.86,0,0,0,.23.2.6.6,0,0,0,.22.06.94.94,0,0,1,.24.06.5.5,0,0,0,.17.13s0,0,0,0a3.47,3.47,0,0,1,.39.24.74.74,0,0,1,.29.32.61.61,0,0,1,.08.27.92.92,0,0,0,.06.27l.08.12.09.12.21.48.11.26a.56.56,0,0,0,.35-.2,2.31,2.31,0,0,0,.21-.34.92.92,0,0,0,.18-.12.24.24,0,0,0,.08-.2.3.3,0,0,0,.2-.06l.13-.13.13-.13a.34.34,0,0,1,.22-.06.11.11,0,0,1,.07-.12s.07-.06.07-.15a2.43,2.43,0,0,0,.44-.28,2.37,2.37,0,0,1,.44-.28,2.1,2.1,0,0,1,.31-.15,1.69,1.69,0,0,0,.35-.2,1.46,1.46,0,0,0,.54,0l.56-.1.57,0,.55,0h.56a2.81,2.81,0,0,1,.59,0l.2.06.2.06a.61.61,0,0,0,.23,0,.46.46,0,0,1,.21,0l.16.07.13.1.16.07.16,0a1,1,0,0,0,.2.24.35.35,0,0,1,.17.13.24.24,0,0,0,0,.08l.24.21a.83.83,0,0,0,.24.16.4.4,0,0,0,.2.27,1.59,1.59,0,0,0,.15.38,1.75,1.75,0,0,1,.15.38,1.08,1.08,0,0,1,.07.38,1.53,1.53,0,0,0,0,.38c0,.2.08.35.11.48s.05.24.08.35a2.82,2.82,0,0,1,.06.4,1.68,1.68,0,0,1,0,.43.79.79,0,0,1,.1.29.45.45,0,0,0,.12.27,2.84,2.84,0,0,0,0,.56,1.72,1.72,0,0,0,0,.4.33.33,0,0,1-.07.33,1.1,1.1,0,0,1,.22.82,7,7,0,0,0,0,1c0,.1,0,.19,0,.27a1.3,1.3,0,0,1,0,.24,2.83,2.83,0,0,1,0,.53,2.22,2.22,0,0,0,0,.4,1.12,1.12,0,0,1,0,.39.76.76,0,0,0,0,.2.66.66,0,0,0,0,.18l0,.18a.82.82,0,0,0,0,.33.28.28,0,0,1,0,.16.47.47,0,0,1,0,.18.39.39,0,0,0,0,.16c0,.18,0,.3,0,.35v.13a.62.62,0,0,0,0,.18.58.58,0,0,1,0,.18.84.84,0,0,1,0,.28.38.38,0,0,0,0,.23.35.35,0,0,0,.1.13S102.84,32.7,102.84,32.8Z"/></g></g></svg>