<svg xmlns="http://www.w3.org/2000/svg" viewBox="0 0 206 32"><defs><style>.cls-1{fill:#e59a5d;}.cls-2{fill:#ce8451;}.cls-3{fill:none;stroke:#6c4735;stroke-miterlimit:10;stroke-width:4px;}</style></defs><title>Asset 28</title><g id="Layer_2" data-name="Layer 2"><g id="Layer_1-2" data-name="Layer 1"><rect class="cls-1" x="2" y="2" width="202" height="28" rx="12" ry="12"/><path class="cls-2" d="M204.5,14.5v4a12,12,0,0,1-12,12H14.5A12.05,12.05,0,0,1,3.27,22.73a11.89,11.89,0,0,0,4.23.77h178a12,12,0,0,0,12-12v-4a11.89,11.89,0,0,0-.77-4.23A12.05,12.05,0,0,1,204.5,14.5Z"/><rect class="cls-3" x="2" y="2" width="202" height="28" rx="12" ry="12"/></g></g></svg>