<svg xmlns="http://www.w3.org/2000/svg" viewBox="0 0 80.94 84.19"><defs><style>.cls-1{fill:#d39d48;}.cls-2{fill:#6c4735;}.cls-3{fill:#bdd344;}.cls-4{fill:#9fa82f;}.cls-5{fill:#cd896d;}.cls-6{fill:#b56d54;}.cls-7{fill:#fff;}.cls-8{fill:#72a03d;}</style></defs><title>Asset 12</title><g id="Layer_2" data-name="Layer 2"><g id="Layer_1-2" data-name="Layer 1"><path class="cls-1" d="M68.79,42.59c0,3-12.21,5.41-27.27,5.41s-27.27-2.42-27.27-5.41a1,1,0,0,1,.08-.4c1-2.8,12.8-5,27.19-5s26.17,2.22,27.19,5A1,1,0,0,1,68.79,42.59Z"/><path class="cls-2" d="M41.52,50c-4.89,0-29.27-.36-29.27-7.41a3,3,0,0,1,.23-1.16c2.41-6.08,26.31-6.26,29-6.26s26.63.18,29,6.26a3,3,0,0,1,.23,1.16C70.79,49.65,46.41,50,41.52,50ZM16.63,42.59C18.81,43.94,27.27,46,41.52,46s22.71-2.06,24.89-3.41c-2.17-1.35-10.64-3.42-24.89-3.42S18.8,41.25,16.63,42.59Z"/><path class="cls-3" d="M23.77,17.33h0a5.07,5.07,0,0,0,3.82,2.78h0a5.07,5.07,0,0,1,2.81,8.66h0a5.07,5.07,0,0,0-1.46,4.49h0a5.07,5.07,0,0,1-7.36,5.35h0a5.07,5.07,0,0,0-4.72,0h0A5.07,5.07,0,0,1,9.5,33.25h0A5.07,5.07,0,0,0,8,28.76H8a5.07,5.07,0,0,1,2.81-8.66h0a5.07,5.07,0,0,0,3.82-2.78h0A5.07,5.07,0,0,1,23.77,17.33Z"/><path class="cls-3" d="M38.77,5.33h0a5.07,5.07,0,0,0,3.82,2.78h0a5.07,5.07,0,0,1,2.81,8.66h0a5.07,5.07,0,0,0-1.46,4.49h0a5.07,5.07,0,0,1-7.36,5.35h0a5.07,5.07,0,0,0-4.72,0h0a5.07,5.07,0,0,1-7.36-5.35h0A5.07,5.07,0,0,0,23,16.76h0a5.07,5.07,0,0,1,2.81-8.66h0a5.07,5.07,0,0,0,3.82-2.78h0A5.07,5.07,0,0,1,38.77,5.33Z"/><path class="cls-3" d="M51.77,5.33h0a5.07,5.07,0,0,0,3.82,2.78h0a5.07,5.07,0,0,1,2.81,8.66h0a5.07,5.07,0,0,0-1.46,4.49h0a5.07,5.07,0,0,1-7.36,5.35h0a5.07,5.07,0,0,0-4.72,0h0a5.07,5.07,0,0,1-7.36-5.35h0A5.07,5.07,0,0,0,36,16.76h0a5.07,5.07,0,0,1,2.81-8.66h0a5.07,5.07,0,0,0,3.82-2.78h0A5.07,5.07,0,0,1,51.77,5.33Z"/><path class="cls-3" d="M62.77,4.33h0a5.07,5.07,0,0,0,3.82,2.78h0a5.07,5.07,0,0,1,2.81,8.66h0a5.07,5.07,0,0,0-1.46,4.49h0a5.07,5.07,0,0,1-7.36,5.35h0a5.07,5.07,0,0,0-4.72,0h0a5.07,5.07,0,0,1-7.36-5.35h0A5.07,5.07,0,0,0,47,15.76h0a5.07,5.07,0,0,1,2.81-8.66h0a5.07,5.07,0,0,0,3.82-2.78h0A5.07,5.07,0,0,1,62.77,4.33Z"/><path class="cls-3" d="M64.27,17.83h0a5.07,5.07,0,0,0,3.82,2.78h0a5.07,5.07,0,0,1,2.81,8.66h0a5.07,5.07,0,0,0-1.46,4.49h0a5.07,5.07,0,0,1-7.36,5.35h0a5.07,5.07,0,0,0-4.72,0h0A5.07,5.07,0,0,1,50,33.75h0a5.07,5.07,0,0,0-1.46-4.49h0a5.07,5.07,0,0,1,2.81-8.66h0a5.07,5.07,0,0,0,3.82-2.78h0A5.07,5.07,0,0,1,64.27,17.83Z"/><path class="cls-3" d="M71.27,31.83h0a5.07,5.07,0,0,0,3.82,2.78h0a5.07,5.07,0,0,1,2.81,8.66h0a5.07,5.07,0,0,0-1.46,4.49h0a5.07,5.07,0,0,1-7.36,5.35h0a5.07,5.07,0,0,0-4.72,0h0A5.07,5.07,0,0,1,57,47.75h0a5.07,5.07,0,0,0-1.46-4.49h0a5.07,5.07,0,0,1,2.81-8.66h0a5.07,5.07,0,0,0,3.82-2.78h0A5.07,5.07,0,0,1,71.27,31.83Z"/><path class="cls-3" d="M60.77,26.33h0a5.07,5.07,0,0,0,3.82,2.78h0a5.07,5.07,0,0,1,2.81,8.66h0a5.07,5.07,0,0,0-1.46,4.49h0a5.07,5.07,0,0,1-7.36,5.35h0a5.07,5.07,0,0,0-4.72,0h0a5.07,5.07,0,0,1-7.36-5.35h0A5.07,5.07,0,0,0,45,37.76h0a5.07,5.07,0,0,1,2.81-8.66h0a5.07,5.07,0,0,0,3.82-2.78h0A5.07,5.07,0,0,1,60.77,26.33Z"/><path class="cls-3" d="M29.77,11.33h0a5.07,5.07,0,0,0,3.82,2.78h0a5.07,5.07,0,0,1,2.81,8.66h0a5.07,5.07,0,0,0-1.46,4.49h0a5.07,5.07,0,0,1-7.36,5.35h0a5.07,5.07,0,0,0-4.72,0h0a5.07,5.07,0,0,1-7.36-5.35h0A5.07,5.07,0,0,0,14,22.76h0a5.07,5.07,0,0,1,2.81-8.66h0a5.07,5.07,0,0,0,3.82-2.78h0A5.07,5.07,0,0,1,29.77,11.33Z"/><path class="cls-4" d="M38.34,4.62a4.7,4.7,0,0,0-1.12-.13,5,5,0,0,0-4.55,2.84,5.09,5.09,0,0,1-3.82,2.77,5.12,5.12,0,0,0-1.55.49,5,5,0,0,0-3.63,2.74,5.09,5.09,0,0,1-3.82,2.77,5.07,5.07,0,0,0-4.33,5.45,5.13,5.13,0,0,1-1.67.55A5.08,5.08,0,0,0,11,30.76a5.09,5.09,0,0,1,1.46,4.49,5.45,5.45,0,0,0-.08.89,5,5,0,0,0,.95,2.92,5.09,5.09,0,0,1-3.95-4.92,5.45,5.45,0,0,1,.08-.89A5.09,5.09,0,0,0,8,28.76a5.08,5.08,0,0,1,2.81-8.66,5.13,5.13,0,0,0,1.67-.55,5.07,5.07,0,0,1,4.33-5.45,5.09,5.09,0,0,0,3.82-2.77A5,5,0,0,1,24.3,8.59a5.12,5.12,0,0,1,1.55-.49,5.09,5.09,0,0,0,3.82-2.77,5.06,5.06,0,0,1,8.67-.71Z"/><path class="cls-3" d="M18.77,33.33h0a5.07,5.07,0,0,0,3.82,2.78h0a5.07,5.07,0,0,1,2.81,8.66h0a5.07,5.07,0,0,0-1.46,4.49h0a5.07,5.07,0,0,1-7.36,5.35h0a5.07,5.07,0,0,0-4.72,0h0A5.07,5.07,0,0,1,4.5,49.25h0A5.07,5.07,0,0,0,3,44.76H3a5.07,5.07,0,0,1,2.81-8.66h0a5.07,5.07,0,0,0,3.82-2.78h0A5.07,5.07,0,0,1,18.77,33.33Z"/><path class="cls-2" d="M9.49,56.69A6.59,6.59,0,0,1,3,49a3.57,3.57,0,0,0-1-3.16A6.58,6.58,0,0,1,5.63,34.62,3.55,3.55,0,0,0,8,33.2c0-.07,0-.14,0-.21a3.57,3.57,0,0,0-1-3.16,6.58,6.58,0,0,1,3.64-11.22l.39-.08a6.61,6.61,0,0,1,5.61-5.92,3.57,3.57,0,0,0,2.69-2,6.48,6.48,0,0,1,4.49-3.5,6.62,6.62,0,0,1,1.81-.54,3.57,3.57,0,0,0,2.69-2,6.57,6.57,0,0,1,11.79,0,3.52,3.52,0,0,0,.6.87,3.52,3.52,0,0,0,.6-.87A6.58,6.58,0,0,1,52.4,3.52a6.57,6.57,0,0,1,11.72.15,3.57,3.57,0,0,0,2.69,2,6.58,6.58,0,0,1,3.64,11.22,3.57,3.57,0,0,0-1.08,2.52,6.58,6.58,0,0,1,2.68,10.87,6.47,6.47,0,0,1,.56.93,3.57,3.57,0,0,0,2.69,2h0A6.58,6.58,0,0,1,79,44.34a3.57,3.57,0,0,0-1,3.16,6.58,6.58,0,0,1-9.54,6.93,3.57,3.57,0,0,0-3.33,0,6.58,6.58,0,0,1-9.54-6.93,3.57,3.57,0,0,0-1-3.16,6.5,6.5,0,0,1-1.89-3.6,6.55,6.55,0,0,1-4.08-7.23,3.57,3.57,0,0,0-1-3.16,6.53,6.53,0,0,1-1.63-2.54l-.3.14a6.48,6.48,0,0,1-4.84.52,6.42,6.42,0,0,1-4.2-.22,6.44,6.44,0,0,1-2,4.61,6.62,6.62,0,0,1-4,1.84,6.56,6.56,0,0,1-2.37,4.5,6.49,6.49,0,0,1-1.68,6.66,3.56,3.56,0,0,0-1,3.16,6.58,6.58,0,0,1-9.54,6.93,3.57,3.57,0,0,0-3.33,0A6.59,6.59,0,0,1,9.49,56.69Zm4.73-4.17a6.58,6.58,0,0,1,3.06.75,3.58,3.58,0,0,0,5.19-3.77,6.57,6.57,0,0,1,1.89-5.82,3.55,3.55,0,0,0,.6-4.33L24.2,38l1.38-.71a3.54,3.54,0,0,0,1.89-3.78l0-.22-.17-2,2,.34a3.55,3.55,0,0,0,3.2-.95,3.51,3.51,0,0,0,1-3.17A6.58,6.58,0,0,1,33.39,26l.1-1.6,1.59.21a6.54,6.54,0,0,1,2.2.7,3.51,3.51,0,0,0,2.91.19l.53-.2.53.2a3.5,3.5,0,0,0,2.91-.19A6.51,6.51,0,0,1,47,24.53l1.45-.06.11,1.45a3.49,3.49,0,0,0,1.07,2.27A6.57,6.57,0,0,1,51.48,34a3.58,3.58,0,0,0,2.83,4.11l1.22.25,0,1.24a3.47,3.47,0,0,0,1.08,2.58A6.57,6.57,0,0,1,58.48,48a3.57,3.57,0,0,0,5.19,3.77,6.58,6.58,0,0,1,6.12,0A3.58,3.58,0,0,0,75,48a6.57,6.57,0,0,1,1.89-5.82,3.58,3.58,0,0,0-2-6.1,6.57,6.57,0,0,1-5-3.6,3.59,3.59,0,0,0-.83-1.09l-.92-.83.64-1.06a6.53,6.53,0,0,1,1-1.33,3.58,3.58,0,0,0-2-6.1l-1.29-.23-.12-1.29a6.61,6.61,0,0,1,1.89-5.87,3.58,3.58,0,0,0-2-6.1,6.57,6.57,0,0,1-5-3.6A3.58,3.58,0,0,0,55,5a6.59,6.59,0,0,1-1.86,2.27l-1.22.95L51,7a6.49,6.49,0,0,1-.6-1A3.57,3.57,0,0,0,44,6a6.55,6.55,0,0,1-2.52,2.73l-.77.46L40,8.72A6.55,6.55,0,0,1,37.43,6,3.58,3.58,0,0,0,31,6a6.57,6.57,0,0,1-5,3.6,3.64,3.64,0,0,0-1.1.35l-.19.1-.21,0A3.48,3.48,0,0,0,22,12a6.57,6.57,0,0,1-5,3.6A3.56,3.56,0,0,0,14,19.44l.08,1-.86.46a6.56,6.56,0,0,1-2.16.71,3.58,3.58,0,0,0-2,6.1A6.57,6.57,0,0,1,11,33.51a1.71,1.71,0,0,0,0,.2l0,.48-.18.3a6.55,6.55,0,0,1-4.67,3.1,3.58,3.58,0,0,0-2,6.1A6.57,6.57,0,0,1,6,49.51a3.57,3.57,0,0,0,5.19,3.77A6.58,6.58,0,0,1,14.22,52.52Z"/><path class="cls-3" d="M30.77,26.33h0a5.07,5.07,0,0,0,3.82,2.78h0a5.07,5.07,0,0,1,2.81,8.66h0a5.07,5.07,0,0,0-1.46,4.49h0a5.07,5.07,0,0,1-7.36,5.35h0a5.07,5.07,0,0,0-4.72,0h0a5.07,5.07,0,0,1-7.36-5.35h0A5.07,5.07,0,0,0,15,37.76h0a5.07,5.07,0,0,1,2.81-8.66h0a5.07,5.07,0,0,0,3.82-2.78h0A5.07,5.07,0,0,1,30.77,26.33Z"/><path class="cls-5" d="M68,56.19l-3.85,16.7a12,12,0,0,1-11.69,9.3H30.56a12,12,0,0,1-11.69-9.3L15,56.19s-5-10-1-14h.31a1,1,0,0,0-.08.4c0,3,12.21,5.41,27.27,5.41s27.27-2.42,27.27-5.41a1,1,0,0,0-.08-.4H69C73,46.19,68,56.19,68,56.19Z"/><path class="cls-6" d="M68.77,54.49c-30.23,6.19-47,3.1-54.14.85-1.1-2.5-3.9-9.86-.61-13.15h.31a1,1,0,0,0-.08.4c0,3,12.21,5.41,27.27,5.41s27.27-2.42,27.27-5.41a1,1,0,0,0-.08-.4H69C72,45.16,70,51.46,68.77,54.49Z"/><path class="cls-2" d="M52.47,84.19H30.56A13.94,13.94,0,0,1,16.92,73.34l-3.8-16.47C12.21,55,8,45.43,12.6,40.78l.59-.59h4.25l-1,2.25C18.2,43.79,26.75,46,41.52,46s23.32-2.22,25.11-3.56l-1-2.25h4.25l.59.59c4.65,4.65.39,14.2-.52,16.09l-3.8,16.47A13.94,13.94,0,0,1,52.47,84.19Zm-38-38.31c-.31,2.94,1.22,7.26,2.3,9.42l.11.21,3.91,16.93a10,10,0,0,0,9.74,7.75H52.47a10,10,0,0,0,9.74-7.75l3.91-16.93.11-.21c1.08-2.16,2.6-6.48,2.3-9.42-6.16,3.88-23,4.12-27,4.12S20.66,49.77,14.51,45.88Z"/><path class="cls-2" d="M21.89,58.05C29.59,59.62,37.17,59.7,45,59.43c1.93-.06,1.93-3.06,0-3-7.55.25-14.9.24-22.33-1.28-1.88-.38-2.69,2.51-.8,2.89Z"/><path class="cls-2" d="M51.11,59.07a52.36,52.36,0,0,0,8.06-1.21c1.88-.44,1.08-3.33-.8-2.89a47.09,47.09,0,0,1-7.26,1.1c-1.91.14-1.93,3.14,0,3Z"/><path class="cls-7" d="M23.88,65.77l1.48,6.84c.41,1.89,3.3,1.09,2.89-.8L26.77,65c-.41-1.89-3.3-1.09-2.89.8Z"/><path class="cls-7" d="M29.35,68a30.55,30.55,0,0,0,1,6.07,1.5,1.5,0,0,0,2.89-.8A26.48,26.48,0,0,1,32.35,68c-.13-1.92-3.13-1.93-3,0Z"/><path class="cls-3" d="M27.77,23.33h0a5.07,5.07,0,0,0,3.82,2.78h0a5.07,5.07,0,0,1,2.81,8.66h0a5.07,5.07,0,0,0-1.46,4.49h0a5.07,5.07,0,0,1-7.36,5.35h0a5.07,5.07,0,0,0-4.72,0h0a5.07,5.07,0,0,1-7.36-5.35h0A5.07,5.07,0,0,0,12,34.76h0a5.07,5.07,0,0,1,2.81-8.66h0a5.07,5.07,0,0,0,3.82-2.78h0A5.07,5.07,0,0,1,27.77,23.33Z"/><path class="cls-8" d="M34.41,34.76a5.09,5.09,0,0,0-1.53,3.63,5,5,0,0,0,.08.86,5.46,5.46,0,0,1,.08.89,5.08,5.08,0,0,1-7.44,4.46,5.07,5.07,0,0,0-4.72,0,5,5,0,0,1-2.36.59,5.15,5.15,0,0,1-4.77-3.3,5.14,5.14,0,0,0,3.51,1.41,5,5,0,0,0,2.36-.59,5.07,5.07,0,0,1,4.72,0,5.08,5.08,0,0,0,7.44-4.46,5.46,5.46,0,0,0-.08-.89,5,5,0,0,1-.08-.86,5.09,5.09,0,0,1,1.53-3.63,5,5,0,0,0,1.54-3.61,5.12,5.12,0,0,0-.35-1.84,5.14,5.14,0,0,1,1.6,3.73A5,5,0,0,1,34.41,34.76Z"/><path class="cls-2" d="M18.49,46.19a6.09,6.09,0,0,1-6-7.11,4.08,4.08,0,0,0-1.17-3.61,6.07,6.07,0,0,1,3.37-10.36,4.08,4.08,0,0,0,3.07-2.23,6.07,6.07,0,0,1,10.89,0h0a4.08,4.08,0,0,0,3.07,2.23A6.07,6.07,0,0,1,35.1,35.48a4.07,4.07,0,0,0-1.17,3.61,6.08,6.08,0,0,1-8.81,6.41,4.08,4.08,0,0,0-3.79,0A6.08,6.08,0,0,1,18.49,46.19ZM23.22,21.5a4,4,0,0,0-3.65,2.27A6.07,6.07,0,0,1,15,27.09a4.08,4.08,0,0,0-2.26,7,6.08,6.08,0,0,1,1.75,5.38,4.08,4.08,0,0,0,5.91,4.3,6.07,6.07,0,0,1,5.65,0A4.08,4.08,0,0,0,32,39.42,6.07,6.07,0,0,1,33.71,34a4.08,4.08,0,0,0-2.26-7,6.07,6.07,0,0,1-4.57-3.32h0A4,4,0,0,0,23.22,21.5Z"/><path class="cls-3" d="M34.27,14.83h0a5.07,5.07,0,0,0,3.82,2.78h0a5.07,5.07,0,0,1,2.81,8.66h0a5.07,5.07,0,0,0-1.46,4.49h0a5.07,5.07,0,0,1-7.36,5.35h0a5.07,5.07,0,0,0-4.72,0h0A5.07,5.07,0,0,1,20,30.75h0a5.07,5.07,0,0,0-1.46-4.49h0a5.07,5.07,0,0,1,2.81-8.66h0a5.07,5.07,0,0,0,3.82-2.78h0A5.07,5.07,0,0,1,34.27,14.83Z"/><path class="cls-8" d="M40.91,26.26a5.09,5.09,0,0,0-1.53,3.63,5,5,0,0,0,.08.86,5.46,5.46,0,0,1,.08.89,5.08,5.08,0,0,1-7.44,4.46,5.07,5.07,0,0,0-4.72,0A5,5,0,0,1,25,36.7a5.15,5.15,0,0,1-4.77-3.3,5.14,5.14,0,0,0,3.51,1.41,5,5,0,0,0,2.36-.59,5.07,5.07,0,0,1,4.72,0,5.08,5.08,0,0,0,7.44-4.46,5.46,5.46,0,0,0-.08-.89,5,5,0,0,1-.08-.86,5.09,5.09,0,0,1,1.53-3.63,5,5,0,0,0,1.54-3.61,5.12,5.12,0,0,0-.35-1.84,5.14,5.14,0,0,1,1.6,3.73A5,5,0,0,1,40.91,26.26Z"/><path class="cls-2" d="M25,37.69a6.09,6.09,0,0,1-6-7.11A4.08,4.08,0,0,0,17.84,27a6.07,6.07,0,0,1,3.37-10.36,4.08,4.08,0,0,0,3.07-2.23,6.07,6.07,0,0,1,10.89,0h0a4.08,4.08,0,0,0,3.07,2.23A6.07,6.07,0,0,1,41.6,27a4.07,4.07,0,0,0-1.17,3.61A6.08,6.08,0,0,1,31.62,37a4.08,4.08,0,0,0-3.79,0A6.08,6.08,0,0,1,25,37.69ZM29.72,13a4,4,0,0,0-3.65,2.27,6.07,6.07,0,0,1-4.57,3.32,4.08,4.08,0,0,0-2.26,7A6.08,6.08,0,0,1,21,30.92a4.08,4.08,0,0,0,5.91,4.3,6.07,6.07,0,0,1,5.65,0,4.08,4.08,0,0,0,5.91-4.3,6.07,6.07,0,0,1,1.75-5.38,4.08,4.08,0,0,0-2.26-7,6.07,6.07,0,0,1-4.57-3.32h0A4,4,0,0,0,29.72,13Z"/><path class="cls-3" d="M58.77,9.33h0a5.07,5.07,0,0,0,3.82,2.78h0a5.07,5.07,0,0,1,2.81,8.66h0a5.07,5.07,0,0,0-1.46,4.49h0a5.07,5.07,0,0,1-7.36,5.35h0a5.07,5.07,0,0,0-4.72,0h0a5.07,5.07,0,0,1-7.36-5.35h0A5.07,5.07,0,0,0,43,20.76h0a5.07,5.07,0,0,1,2.81-8.66h0a5.07,5.07,0,0,0,3.82-2.78h0A5.07,5.07,0,0,1,58.77,9.33Z"/><path class="cls-8" d="M65.41,20.76a5.09,5.09,0,0,0-1.53,3.63,5,5,0,0,0,.08.86,5.46,5.46,0,0,1,.08.89,5.08,5.08,0,0,1-7.44,4.46,5.07,5.07,0,0,0-4.72,0,5,5,0,0,1-2.36.59,5.15,5.15,0,0,1-4.77-3.3,5.14,5.14,0,0,0,3.51,1.41,5,5,0,0,0,2.36-.59,5.07,5.07,0,0,1,4.72,0,5.08,5.08,0,0,0,7.44-4.46,5.46,5.46,0,0,0-.08-.89,5,5,0,0,1-.08-.86,5.09,5.09,0,0,1,1.53-3.63,5,5,0,0,0,1.54-3.61,5.12,5.12,0,0,0-.35-1.84,5.14,5.14,0,0,1,1.6,3.73A5,5,0,0,1,65.41,20.76Z"/><path class="cls-2" d="M49.49,32.19a6.09,6.09,0,0,1-6-7.11,4.08,4.08,0,0,0-1.17-3.61,6.07,6.07,0,0,1,3.37-10.36,4.08,4.08,0,0,0,3.07-2.23,6.07,6.07,0,0,1,10.89,0h0a4.08,4.08,0,0,0,3.07,2.23A6.07,6.07,0,0,1,66.1,21.48a4.07,4.07,0,0,0-1.17,3.61,6.08,6.08,0,0,1-8.81,6.41,4.08,4.08,0,0,0-3.79,0A6.08,6.08,0,0,1,49.49,32.19ZM54.22,7.5a4,4,0,0,0-3.65,2.27A6.07,6.07,0,0,1,46,13.09a4.08,4.08,0,0,0-2.26,7,6.08,6.08,0,0,1,1.75,5.38,4.08,4.08,0,0,0,5.91,4.3,6.07,6.07,0,0,1,5.65,0A4.08,4.08,0,0,0,63,25.42,6.07,6.07,0,0,1,64.71,20a4.08,4.08,0,0,0-2.26-7,6.07,6.07,0,0,1-4.57-3.32h0A4,4,0,0,0,54.22,7.5Z"/><path class="cls-3" d="M63.77,23.33h0a5.07,5.07,0,0,0,3.82,2.78h0a5.07,5.07,0,0,1,2.81,8.66h0a5.07,5.07,0,0,0-1.46,4.49h0a5.07,5.07,0,0,1-7.36,5.35h0a5.07,5.07,0,0,0-4.72,0h0a5.07,5.07,0,0,1-7.36-5.35h0A5.07,5.07,0,0,0,48,34.76h0a5.07,5.07,0,0,1,2.81-8.66h0a5.07,5.07,0,0,0,3.82-2.78h0A5.07,5.07,0,0,1,63.77,23.33Z"/><path class="cls-8" d="M70.41,34.76a5.09,5.09,0,0,0-1.53,3.63,5,5,0,0,0,.08.86,5.46,5.46,0,0,1,.08.89,5.08,5.08,0,0,1-7.44,4.46,5.07,5.07,0,0,0-4.72,0,5,5,0,0,1-2.36.59,5.15,5.15,0,0,1-4.77-3.3,5.14,5.14,0,0,0,3.51,1.41,5,5,0,0,0,2.36-.59,5.07,5.07,0,0,1,4.72,0,5.08,5.08,0,0,0,7.44-4.46,5.46,5.46,0,0,0-.08-.89,5,5,0,0,1-.08-.86,5.09,5.09,0,0,1,1.53-3.63,5,5,0,0,0,1.54-3.61,5.12,5.12,0,0,0-.35-1.84,5.14,5.14,0,0,1,1.6,3.73A5,5,0,0,1,70.41,34.76Z"/><path class="cls-2" d="M54.49,46.19a6.09,6.09,0,0,1-6-7.11,4.08,4.08,0,0,0-1.17-3.61,6.07,6.07,0,0,1,3.37-10.36,4.08,4.08,0,0,0,3.07-2.23,6.07,6.07,0,0,1,10.89,0h0a4.08,4.08,0,0,0,3.07,2.23A6.07,6.07,0,0,1,71.1,35.48a4.07,4.07,0,0,0-1.17,3.61,6.08,6.08,0,0,1-8.81,6.41,4.08,4.08,0,0,0-3.79,0A6.08,6.08,0,0,1,54.49,46.19ZM59.22,21.5a4,4,0,0,0-3.65,2.27A6.07,6.07,0,0,1,51,27.09a4.08,4.08,0,0,0-2.26,7,6.08,6.08,0,0,1,1.75,5.38,4.08,4.08,0,0,0,5.91,4.3,6.07,6.07,0,0,1,5.65,0A4.08,4.08,0,0,0,68,39.42,6.07,6.07,0,0,1,69.71,34a4.08,4.08,0,0,0-2.26-7,6.07,6.07,0,0,1-4.57-3.32h0A4,4,0,0,0,59.22,21.5Z"/><path class="cls-3" d="M47,20.23h0a7.09,7.09,0,0,0,5.34,3.88h0A7.09,7.09,0,0,1,56.31,36.2h0a7.09,7.09,0,0,0-2,6.27h0A7.09,7.09,0,0,1,44,49.94h0a7.09,7.09,0,0,0-6.6,0h0a7.09,7.09,0,0,1-10.28-7.47h0a7.09,7.09,0,0,0-2-6.27h0A7.09,7.09,0,0,1,29,24.11h0a7.09,7.09,0,0,0,5.34-3.88h0A7.09,7.09,0,0,1,47,20.23Z"/><path class="cls-8" d="M56.31,36.2a7.12,7.12,0,0,0-2.14,5.07,7,7,0,0,0,.11,1.2,7.62,7.62,0,0,1,.11,1.25A7.1,7.1,0,0,1,44,49.95a7.08,7.08,0,0,0-6.6,0,7,7,0,0,1-3.29.82,7.19,7.19,0,0,1-6.66-4.61,7.18,7.18,0,0,0,4.91,2,7,7,0,0,0,3.29-.82,7.08,7.08,0,0,1,6.6,0,7.1,7.1,0,0,0,10.39-6.23,7.62,7.62,0,0,0-.11-1.25,7,7,0,0,1-.11-1.2,7.12,7.12,0,0,1,2.14-5.07,7,7,0,0,0,2.15-5A7.15,7.15,0,0,0,56.22,26a7.18,7.18,0,0,1,2.24,5.2A7,7,0,0,1,56.31,36.2Z"/><path class="cls-2" d="M34.09,52.27a8.6,8.6,0,0,1-8.46-10A5.58,5.58,0,0,0,24,37.27a8.59,8.59,0,0,1,4.76-14.65A5.58,5.58,0,0,0,33,19.57a8.59,8.59,0,0,1,15.4,0h0a5.58,5.58,0,0,0,4.21,3.06,8.59,8.59,0,0,1,4.76,14.65,5.59,5.59,0,0,0-1.61,4.95,8.59,8.59,0,0,1-12.46,9.05,5.59,5.59,0,0,0-5.2,0A8.59,8.59,0,0,1,34.09,52.27Zm6.6-34.48a5.48,5.48,0,0,0-5,3.11,8.58,8.58,0,0,1-6.46,4.7,5.59,5.59,0,0,0-3.1,9.53,8.59,8.59,0,0,1,2.47,7.6,5.59,5.59,0,0,0,8.11,5.89,8.59,8.59,0,0,1,8,0,5.59,5.59,0,0,0,8.11-5.89,8.59,8.59,0,0,1,2.47-7.6,5.59,5.59,0,0,0-3.1-9.53,8.58,8.58,0,0,1-6.46-4.7h0A5.48,5.48,0,0,0,40.69,17.78Z"/><path class="cls-8" d="M29,30.42a4.6,4.6,0,0,1,2.56-.36,6,6,0,0,1,2.31.82,5.62,5.62,0,0,1,1.8,1.75,3.9,3.9,0,0,1,.63,2.57,19.54,19.54,0,0,1-2.23-.83,13.71,13.71,0,0,1-1.76-.92,12.31,12.31,0,0,1-1.66-1.21A10.08,10.08,0,0,1,29,30.42Z"/><path class="cls-8" d="M40.27,31.11a3.87,3.87,0,0,1-2.62-1.59,5,5,0,0,1-1-3.08,5.32,5.32,0,0,1,1-3,5.87,5.87,0,0,1,1.08-1.06,5.52,5.52,0,0,1,1.39-.66A9.11,9.11,0,0,1,40,23.19c0,.46-.13.85-.17,1.24-.12.77-.16,1.44-.2,2.08A17.11,17.11,0,0,0,40.27,31.11Z"/><path class="cls-8" d="M42.89,33a3.13,3.13,0,0,1-.13-2.51,4.18,4.18,0,0,1,3.94-2.75,3.48,3.48,0,0,1,2.33.88,9.1,9.1,0,0,1-.93.79c-.27.25-.55.4-.78.6-.5.34-.88.67-1.3.93Z"/><path class="cls-8" d="M42,36.5a3.27,3.27,0,0,1,2-.13,3.65,3.65,0,0,1,1.58.85,3.6,3.6,0,0,1,1,1.58,2.64,2.64,0,0,1-.21,2.09,17.12,17.12,0,0,1-1.69-.7,4.46,4.46,0,0,1-1.13-.77,4.83,4.83,0,0,1-.89-1.13A6.13,6.13,0,0,1,42,36.5Z"/><path class="cls-8" d="M33.82,42.45a3.11,3.11,0,0,1-.11-2,3.34,3.34,0,0,1,2.4-2.38,2.51,2.51,0,0,1,2,.32,17,17,0,0,1-.68,1.63,3.85,3.85,0,0,1-.74,1,4.24,4.24,0,0,1-1.1.79A5.87,5.87,0,0,1,33.82,42.45Z"/><path class="cls-4" d="M62.17,31a9.85,9.85,0,0,1,3.22-.6,1.5,1.5,0,0,0,0-3,12.46,12.46,0,0,0-4,.7,1.54,1.54,0,0,0-1,1.85,1.51,1.51,0,0,0,1.85,1Z"/><path class="cls-4" d="M61.4,36.9a3,3,0,0,1,.7.15,2.46,2.46,0,0,1,.65.33,1.5,1.5,0,0,0,1.51-2.59,6.23,6.23,0,0,0-2.87-.89,1.51,1.51,0,0,0-1.5,1.5,1.54,1.54,0,0,0,1.5,1.5Z"/><path class="cls-4" d="M52.49,11.83a5.45,5.45,0,0,1,.43,2.84,1.55,1.55,0,0,0,1,1.85,1.51,1.51,0,0,0,1.85-1A8.37,8.37,0,0,0,55.38,11a1.55,1.55,0,0,0-1.85-1,1.51,1.51,0,0,0-1,1.85Z"/><path class="cls-4" d="M48.14,16.52a25.34,25.34,0,0,0,1.73,2.08A1.5,1.5,0,1,0,52,16.48c-.44-.47-.92-1-1.26-1.48a1.55,1.55,0,0,0-2.05-.54,1.51,1.51,0,0,0-.54,2.05Z"/><path class="cls-4" d="M38.29,11.2l-.15,1.25a1.5,1.5,0,0,0,1.5,1.5,1.54,1.54,0,0,0,1.5-1.5l.15-1.25a1.5,1.5,0,0,0-1.5-1.5,1.54,1.54,0,0,0-1.5,1.5Z"/><path class="cls-4" d="M27,19a3.47,3.47,0,0,1,0,1.11,1.5,1.5,0,0,0,1.5,1.5,1.54,1.54,0,0,0,1.5-1.5,5.8,5.8,0,0,0-.14-1.9A1.5,1.5,0,0,0,27,19Z"/><path class="cls-4" d="M14.39,30.82h1.87a1.5,1.5,0,0,0,0-3H14.39a1.5,1.5,0,1,0,0,3Z"/><path class="cls-4" d="M19.18,40.11a5.14,5.14,0,0,1,.6-.61,1.55,1.55,0,0,0,.54-2.05,1.51,1.51,0,0,0-2.05-.54A7.06,7.06,0,0,0,17.06,38a1.54,1.54,0,0,0,0,2.12,1.51,1.51,0,0,0,2.12,0Z"/><path class="cls-4" d="M5.63,42.13A16.11,16.11,0,0,0,9,43.43a1.5,1.5,0,0,0,.8-2.89,12.5,12.5,0,0,1-2.64-1,1.53,1.53,0,0,0-2.05.54,1.52,1.52,0,0,0,.54,2.05Z"/><path class="cls-4" d="M73.7,37.62c-.11.12-.23.23-.35.34l-.12.1q.1-.09,0,0l-.35.21s-.42.18-.23.11a1.54,1.54,0,0,0-1,1.85,1.51,1.51,0,0,0,1.85,1,6.29,6.29,0,0,0,2.39-1.54,1.5,1.5,0,0,0-2.12-2.12Z"/></g></g></svg>