<svg xmlns="http://www.w3.org/2000/svg" viewBox="0 0 206 163"><defs><style>.cls-1{fill:#e59a5d;}.cls-2{fill:#ce8451;}.cls-3{fill:none;stroke:#6c4735;stroke-miterlimit:10;stroke-width:4px;}.cls-4{fill:#6c4735;}.cls-5{fill:#fff;}</style></defs><title>Asset 15</title><g id="Layer_2" data-name="Layer 2"><g id="Layer_1-2" data-name="Layer 1"><rect class="cls-1" x="2" y="2" width="202" height="28" rx="12" ry="12"/><path class="cls-2" d="M204.5,14.5v4a12,12,0,0,1-12,12H14.5A12.05,12.05,0,0,1,3.27,22.73a11.89,11.89,0,0,0,4.23.77h178a12,12,0,0,0,12-12v-4a11.89,11.89,0,0,0-.77-4.23A12.05,12.05,0,0,1,204.5,14.5Z"/><rect class="cls-3" x="2" y="2" width="202" height="28" rx="12" ry="12"/><rect class="cls-1" x="2" y="133" width="202" height="28" rx="12" ry="12"/><path class="cls-2" d="M204.5,145.5v4a12,12,0,0,1-12,12H14.5a12.05,12.05,0,0,1-11.23-7.77,11.89,11.89,0,0,0,4.23.77h178a12,12,0,0,0,12-12v-4a11.89,11.89,0,0,0-.77-4.23A12.05,12.05,0,0,1,204.5,145.5Z"/><path class="cls-4" d="M192,163H14A14,14,0,0,1,0,149v-4a14,14,0,0,1,14-14H192a14,14,0,0,1,14,14v4A14,14,0,0,1,192,163ZM14,135A10,10,0,0,0,4,145v4a10,10,0,0,0,10,10H192a10,10,0,0,0,10-10v-4a10,10,0,0,0-10-10Z"/><path class="cls-5" d="M161,151.5h14.5a1.5,1.5,0,0,0,0-3H161a1.5,1.5,0,0,0,0,3Z"/><path class="cls-5" d="M183.5,151.5H185a1.5,1.5,0,0,0,0-3h-1.5a1.5,1.5,0,0,0,0,3Z"/></g></g></svg>