<svg xmlns="http://www.w3.org/2000/svg" viewBox="0 0 92 65.02"><defs><style>.cls-1{fill:#ffc849;}.cls-2{fill:#efb33c;}.cls-3{fill:#6c4735;}.cls-4{fill:#fff;}</style></defs><title>Asset 25</title><g id="Layer_2" data-name="Layer 2"><g id="Layer_1-2" data-name="Layer 1"><path class="cls-1" d="M2,35V30A10.53,10.53,0,0,1,12.53,19.43H34.28V13.17A11.14,11.14,0,0,1,51,3.51L84.43,22.86a11.14,11.14,0,0,1,0,19.3L51,61.51a11.14,11.14,0,0,1-16.7-9.66V45.59H12.53A10.53,10.53,0,0,1,2,35Z"/><path class="cls-2" d="M3,35V30a10.48,10.48,0,0,1,3.1-7.46A10.14,10.14,0,0,0,6,24V29A10.53,10.53,0,0,0,16.52,39.59H38.27v6.27A11.13,11.13,0,0,0,55,55.51L88.43,36.16a11.33,11.33,0,0,0,2.42-1.86,10.93,10.93,0,0,1-5.41,7.86L52,61.51a11.13,11.13,0,0,1-16.7-9.65V45.59H13.53A10.53,10.53,0,0,1,3,35Z"/><path class="cls-3" d="M45.41,65A13.19,13.19,0,0,1,32.28,51.85V47.59H12.53A12.55,12.55,0,0,1,0,35V30A12.55,12.55,0,0,1,12.53,17.43H32.28V13.17A13.14,13.14,0,0,1,52,1.78L85.43,21.13a13.14,13.14,0,0,1,0,22.76L52,63.24A13.11,13.11,0,0,1,45.41,65ZM12.53,21.43A8.54,8.54,0,0,0,4,30V35a8.54,8.54,0,0,0,8.53,8.54H36.28v8.26A9.14,9.14,0,0,0,50,59.78L83.43,40.43a9.14,9.14,0,0,0,0-15.83L50,5.24a9.14,9.14,0,0,0-13.7,7.92v8.26Z"/><path class="cls-4" d="M46.6,12.25,59,20.58c1.61,1.08,3.11-1.52,1.51-2.59L48.11,9.66C46.5,8.58,45,11.18,46.6,12.25Z"/><path class="cls-4" d="M65.25,23.91a1.93,1.93,0,0,1,.31,0c-.24,0,.14.08,0,0l.17.09c.2.13-.2-.2.11.11A1.5,1.5,0,1,0,68,22a3.69,3.69,0,0,0-2.73-1.1,1.5,1.5,0,0,0,0,3Z"/><path class="cls-4" d="M13.48,38.07a1.55,1.55,0,0,1,.6-1.69,1.54,1.54,0,0,0,.54-2.05,1.51,1.51,0,0,0-2.05-.54,4.55,4.55,0,0,0-2.09,4.28,1.55,1.55,0,0,0,1.5,1.5c.73,0,1.61-.69,1.5-1.5Z"/><path class="cls-4" d="M20.77,37.67A4.7,4.7,0,0,1,21,35.45a1.5,1.5,0,1,0-2.89-.8,7.94,7.94,0,0,0-.27,3.81,1.51,1.51,0,0,0,1.85,1,1.54,1.54,0,0,0,1-1.85Z"/></g></g></svg>