<svg xmlns="http://www.w3.org/2000/svg" viewBox="0 0 62.1 66.4"><defs><style>.cls-1{fill:#964e35;}.cls-2{fill:#6c4735;}.cls-3{fill:#bdd344;}.cls-4{fill:#72a03d;}.cls-5{fill:#a96540;}.cls-6{fill:#9b5537;}.cls-7{fill:#fff;}</style></defs><title>Asset 13</title><g id="Layer_2" data-name="Layer 2"><g id="Layer_1-2" data-name="Layer 1"><path class="cls-1" d="M58.32,24.8c0,3-12.21,5.41-27.27,5.41S3.78,27.79,3.78,24.8a1,1,0,0,1,.08-.4c1-2.8,12.8-5,27.19-5s26.17,2.22,27.19,5A1,1,0,0,1,58.32,24.8Z"/><path class="cls-2" d="M31,32.21c-4.89,0-29.27-.36-29.27-7.41A3,3,0,0,1,2,23.64c2.41-6.08,26.31-6.26,29-6.26s26.63.18,29,6.26a3,3,0,0,1,.23,1.16C60.32,31.85,35.94,32.21,31,32.21ZM6.16,24.8C8.34,26.14,16.8,28.21,31,28.21s22.71-2.06,24.89-3.41C53.77,23.45,45.3,21.38,31,21.38S8.33,23.45,6.16,24.8Z"/><path class="cls-3" d="M56.61,1.53a2.55,2.55,0,0,1,2,1.76A12.83,12.83,0,0,1,57.25,16c-4.48,6-12.46,8.16-20.75,8.23a3,3,0,0,1-3-3.15l.21-4C33.92,12.5,36.88.79,56.61,1.53Z"/><path class="cls-4" d="M53.05,6.33a35.13,35.13,0,0,1-3.51,3.16c-1.19,1-2.39,1.85-3.6,2.72s-2.41,1.73-3.66,2.57-2.47,1.71-3.91,2.55A12,12,0,0,1,40.68,13a18.74,18.74,0,0,1,3.51-3.27,20.79,20.79,0,0,1,4.17-2.31A14.35,14.35,0,0,1,53.05,6.33Z"/><path class="cls-4" d="M35.28,23.94a3,3,0,0,0,1.22.24C44.78,24.12,52.76,22,57.25,16A12.83,12.83,0,0,0,58.64,3.29a2.55,2.55,0,0,0-2-1.76h-.29C57.18,6.81,57.54,21.45,35.28,23.94Z"/><path class="cls-2" d="M36.47,25.69A4.5,4.5,0,0,1,32,21l.21-4c.16-3,2.09-17.81,24.48-17h0A4,4,0,0,1,60,2.73a14.45,14.45,0,0,1-1.58,14.12c-4.24,5.7-11.83,8.75-21.94,8.83ZM54.84,3C37.31,3,35.35,13.77,35.17,17.16l-.21,4a1.47,1.47,0,0,0,.41,1.1,1.31,1.31,0,0,0,1.1.47c6.37-.05,14.94-1.42,19.56-7.63a11.31,11.31,0,0,0,1.2-11.21c-.2-.5-.54-.81-.7-.82h0C56,3,55.39,3,54.84,3Z"/><path class="cls-3" d="M3.74,3.91A2.72,2.72,0,0,0,2.09,6.27,13.71,13.71,0,0,0,6.87,19c6.23,5.06,15.05,5.17,23.66,3.06A3.2,3.2,0,0,0,32.82,18l-1.25-4C30.12,9.3,24-2,3.74,3.91Z"/><path class="cls-4" d="M8.69,7.95a15.91,15.91,0,0,1,5.13,0,23,23,0,0,1,4.91,1.32,20.65,20.65,0,0,1,4.5,2.44,13.21,13.21,0,0,1,3.55,3.76c-1.69-.53-3.18-1.12-4.69-1.69s-3-1.14-4.47-1.72-3-1.19-4.46-1.85A41.48,41.48,0,0,1,8.69,7.95Z"/><path class="cls-4" d="M31.72,21.5a3.17,3.17,0,0,1-1.19.57c-8.6,2.11-17.42,2-23.65-3.06A13.7,13.7,0,0,1,2.1,6.27,2.72,2.72,0,0,1,3.75,3.91L4,3.82C4.53,9.53,8,24.79,31.72,21.5Z"/><path class="cls-2" d="M20.71,24.87c-5.94,0-11-1.57-14.79-4.69C.07,15.42.26,8.73.61,6.07a4.16,4.16,0,0,1,2.71-3.6h0C26.21-4.27,32.07,10.5,33,13.53l1.25,4a4.7,4.7,0,0,1-3.38,6A42.92,42.92,0,0,1,20.71,24.87ZM4.17,5.35a1.43,1.43,0,0,0-.58,1.11A12.19,12.19,0,0,0,7.82,17.85c6.45,5.24,15.72,4.4,22.35,2.77a1.7,1.7,0,0,0,1.08-.82,1.68,1.68,0,0,0,.14-1.33l-1.25-4C29,10.83,23.86-.45,4.17,5.35Z"/><rect class="cls-3" x="29.55" y="5.4" width="6" height="25" rx="3" ry="3"/><path class="cls-2" d="M32.55,31.4a4,4,0,0,1-4-4V8.4a4,4,0,1,1,8,0v19A4,4,0,0,1,32.55,31.4Zm0-25a2,2,0,0,0-2,2v19a2,2,0,0,0,4,0V8.4A2,2,0,0,0,32.55,6.4Z"/><path class="cls-5" d="M57.55,38.4,53.7,55.1A12,12,0,0,1,42,64.4H20.1A12,12,0,0,1,8.4,55.1L4.55,38.4s-5-10-1-14h.31a1,1,0,0,0-.08.4c0,3,12.21,5.41,27.27,5.41s27.27-2.42,27.27-5.41a1,1,0,0,0-.08-.4h.31C62.55,28.4,57.55,38.4,57.55,38.4Z"/><path class="cls-6" d="M58.3,36.7c-30.23,6.19-47,3.1-54.14.85C3.06,35,.26,27.69,3.55,24.4h.31a1,1,0,0,0-.08.4c0,3,12.21,5.41,27.27,5.41s27.27-2.42,27.27-5.41a1,1,0,0,0-.08-.4h.31C61.52,27.37,59.52,33.67,58.3,36.7Z"/><path class="cls-2" d="M42,66.4H20.1A13.94,13.94,0,0,1,6.45,55.55L2.65,39.07C1.74,37.19-2.51,27.63,2.14,23l.59-.59H7l-1,2.25C7.73,26,16.28,28.21,31,28.21S54.37,26,56.16,24.65l-1-2.25h4.25L60,23c4.65,4.65.39,14.2-.52,16.09l-3.8,16.47A13.94,13.94,0,0,1,42,66.4ZM4,28.09C3.73,31,5.26,35.35,6.34,37.5l.11.21,3.91,16.93A10,10,0,0,0,20.1,62.4H42a10,10,0,0,0,9.74-7.75l3.91-16.93.11-.21c1.08-2.16,2.6-6.48,2.3-9.42C51.9,32,35,32.21,31,32.21S10.2,32,4,28.09Z"/><path class="cls-2" d="M11.42,40.25c7.71,1.57,15.28,1.65,23.13,1.38,1.93-.06,1.93-3.06,0-3-7.55.25-14.9.24-22.33-1.28-1.88-.38-2.69,2.51-.8,2.89Z"/><path class="cls-2" d="M40.64,41.28a52.36,52.36,0,0,0,8.06-1.21c1.88-.44,1.08-3.33-.8-2.89a47.09,47.09,0,0,1-7.26,1.1c-1.91.14-1.93,3.14,0,3Z"/><path class="cls-7" d="M13.41,48l1.48,6.84c.41,1.89,3.3,1.09,2.89-.8L16.3,47.17c-.41-1.89-3.3-1.09-2.89.8Z"/><path class="cls-7" d="M18.88,50.23a30.55,30.55,0,0,0,1,6.07,1.5,1.5,0,0,0,2.89-.8,26.48,26.48,0,0,1-.92-5.28c-.13-1.92-3.13-1.93-3,0Z"/></g></g></svg>