<svg xmlns="http://www.w3.org/2000/svg" viewBox="0 0 92.11 65.01"><defs><style>.cls-1{fill:#fcd27c;}.cls-2{fill:#edbe69;}.cls-3{fill:none;stroke:#7c5c50;stroke-miterlimit:10;stroke-width:4px;}</style></defs><title>Asset 26</title><g id="Layer_2" data-name="Layer 2"><g id="Layer_1-2" data-name="Layer 1"><path class="cls-1" d="M90.11,35V30A10.54,10.54,0,0,0,79.57,19.43H57.79V13.16A11.15,11.15,0,0,0,41.07,3.51L7.57,22.86a11.14,11.14,0,0,0,0,19.3L41.07,61.5a11.15,11.15,0,0,0,16.72-9.66V45.59H79.57A10.54,10.54,0,0,0,90.11,35Z"/><path class="cls-2" d="M89.11,35V30A10.47,10.47,0,0,0,86,22.5a10.13,10.13,0,0,1,.1,1.46V29A10.53,10.53,0,0,1,75.57,39.58H53.8v6.27A11.15,11.15,0,0,1,37.08,55.5L3.58,36.15a11.34,11.34,0,0,1-2.42-1.86,10.93,10.93,0,0,0,5.42,7.86L40.08,61.5A11.15,11.15,0,0,0,56.8,51.85V45.58H78.57A10.53,10.53,0,0,0,89.11,35Z"/><path class="cls-3" d="M90.11,35V30A10.54,10.54,0,0,0,79.57,19.43H57.79V13.16A11.15,11.15,0,0,0,41.07,3.51L7.57,22.86a11.14,11.14,0,0,0,0,19.3L41.07,61.5a11.15,11.15,0,0,0,16.72-9.66V45.59H79.57A10.54,10.54,0,0,0,90.11,35Z"/></g></g></svg>