<svg xmlns="http://www.w3.org/2000/svg" viewBox="0 0 85.61 91.26"><defs><style>.cls-1{fill:#964e35;}.cls-2{fill:none;stroke:#6c4735;stroke-miterlimit:10;stroke-width:4px;}.cls-3{fill:#bdd344;}.cls-4{fill:#72a03d;}.cls-5{fill:#6c4735;}.cls-6{fill:#a96540;}.cls-7{fill:#9b5537;}.cls-8{fill:#fff;}.cls-9{fill:#fff1b8;}.cls-10{fill:#f4e5a6;}.cls-11{fill:#ffc849;}.cls-12{fill:#efb33c;}</style></defs><title>Asset 10</title><g id="Layer_2" data-name="Layer 2"><g id="Layer_1-2" data-name="Layer 1"><path class="cls-1" d="M67.58,49.66c0,3-12.21,5.41-27.27,5.41S13,52.65,13,49.66a1,1,0,0,1,.08-.4c1-2.8,12.8-5,27.19-5s26.17,2.22,27.19,5A1,1,0,0,1,67.58,49.66Z"/><path class="cls-2" d="M67.58,49.66c0,3-12.21,5.41-27.27,5.41S13,52.65,13,49.66a1,1,0,0,1,.08-.4c1-2.8,12.8-5,27.19-5s26.17,2.22,27.19,5A1,1,0,0,1,67.58,49.66Z"/><path class="cls-3" d="M80.4,18.82a3.81,3.81,0,0,1,2.79,2.9c1.11,3.77,2.38,11.76-3.83,18.65-7.51,8.34-19.68,10.42-32,9.36a4.48,4.48,0,0,1-4.06-5.1l.86-5.86C45.12,32,51.15,15,80.4,18.82Z"/><path class="cls-4" d="M74.44,25.47c-2,1.34-3.94,2.51-5.9,3.68l-5.86,3.43c-1.95,1.14-3.85,2.31-5.78,3.49s-3.78,2.46-5.82,3.72a21.54,21.54,0,0,1,4.38-5.59,33.39,33.39,0,0,1,5.7-4.2,38.15,38.15,0,0,1,6.39-3A27,27,0,0,1,74.44,25.47Z"/><path class="cls-4" d="M45.55,49.2a4.44,4.44,0,0,0,1.77.53c12.34,1.06,24.51-1,32-9.36,6.21-6.9,4.94-14.89,3.83-18.65a3.81,3.81,0,0,0-2.79-2.9l-.44-.05C80.52,26.76,79,48.59,45.55,49.2Z"/><path class="cls-5" d="M53,51.49q-2.83,0-5.85-.26A6,6,0,0,1,43,49a5.9,5.9,0,0,1-1.23-4.56l.86-5.86c.63-4.29,5.42-25.5,37.95-21.22h0c2.19.29,3.52,2.23,4,4C85.9,25.64,87.07,34,80.46,41.37,74.46,48,65.05,51.49,53,51.49ZM72.3,19.76c-22,0-26,14.41-26.7,19.23l-.86,5.86a2.93,2.93,0,0,0,.61,2.27,3,3,0,0,0,2.09,1.12c9.65.82,22.83,0,30.78-8.87,5.63-6.26,4.62-13.48,3.51-17.22-.24-.82-.83-1.74-1.54-1.83h0A60.7,60.7,0,0,0,72.3,19.76Z"/><path class="cls-3" d="M65.69,4a3.81,3.81,0,0,1,3.46,2.05c2.08,3.33,5.42,10.7,1.27,19-5,10-16.19,15.28-28.37,17.55a4.48,4.48,0,0,1-5.27-3.84L36,32.92C35.19,26.11,36.47,8.12,65.69,4Z"/><path class="cls-4" d="M61.71,12c-1.54,1.82-3.13,3.47-4.71,5.12L52.27,22c-1.57,1.61-3.1,3.25-4.65,4.9S44.63,30.29,43,32a21.54,21.54,0,0,1,2.74-6.55,33.38,33.38,0,0,1,4.38-5.57,38.15,38.15,0,0,1,5.37-4.57A27,27,0,0,1,61.71,12Z"/><path class="cls-4" d="M40.18,42.59a4.44,4.44,0,0,0,1.85,0c12.17-2.27,23.35-7.51,28.37-17.55,4.15-8.3.8-15.67-1.27-19A3.81,3.81,0,0,0,65.67,4l-.43.06C67.92,11.65,72.28,33.1,40.18,42.59Z"/><path class="cls-5" d="M41.21,44.21a6,6,0,0,1-3.54-1.15A5.9,5.9,0,0,1,35.27,39l-.74-5.88C34,28.8,33,7.09,65.47,2.55c2.18-.31,4,1.22,4.94,2.74,2.4,3.85,5.76,11.63,1.34,20.46C67.1,35,56.93,41.38,42.31,44.11A6,6,0,0,1,41.21,44.21ZM66,5.51h-.13c-29,4-29,21.85-28.37,27.21l.74,5.88a3,3,0,0,0,3.51,2.55c9.53-1.78,22-6.13,27.31-16.75,3.77-7.53.86-14.22-1.2-17.54A2.64,2.64,0,0,0,66,5.51Z"/><path class="cls-3" d="M8.17,13.93c-1.5-.15-2.86,1-3.61,2.33C2.48,19.9-.8,27.89,4,36.59c5.76,10.52,17.9,15.67,31,17.61a4.79,4.79,0,0,0,5.48-4.31L41,43.59C41.62,36.29,39.53,17.12,8.17,13.93Z"/><path class="cls-4" d="M12.73,22.31a29.86,29.86,0,0,1,6.74,3.37,42,42,0,0,1,5.89,4.68,36.63,36.63,0,0,1,4.9,5.75,23.68,23.68,0,0,1,3.25,6.84c-1.77-1.83-3.37-3.63-5.08-5.35s-3.4-3.41-5.15-5.07l-5.27-5C16.25,25.84,14.47,24.15,12.73,22.31Z"/><path class="cls-4" d="M36.94,54.09a4.74,4.74,0,0,1-2,.12C21.87,52.27,9.73,47.11,4,36.59c-4.76-8.7-1.48-16.7.6-20.33.75-1.31,2.11-2.48,3.61-2.33l.47.05C6.09,22.15,2.28,45.22,36.94,54.09Z"/><path class="cls-5" d="M35.66,55.76a6.17,6.17,0,0,1-.92-.07C19.06,53.36,8,47,2.66,37.31c-5-9.22-1.78-17.62.62-21.8C4.21,13.87,6,12.2,8.34,12.44h0C43.13,16,42.89,39.12,42.49,43.73L41.93,50a6.21,6.21,0,0,1-2.36,4.37A6.33,6.33,0,0,1,35.66,55.76ZM7.92,15.41a2.86,2.86,0,0,0-2,1.59C3.79,20.64.94,27.94,5.29,35.88,11.4,47,24.92,51.2,35.18,52.72a3.28,3.28,0,0,0,2.53-.67,3.24,3.24,0,0,0,1.23-2.28l.55-6.31c.5-5.77-.27-24.86-31.47-28H7.92Z"/><path class="cls-3" d="M24.41,1.68c-1.41-.54-3,.23-4.09,1.3-3,3-8.23,9.82-5.92,19.47C17.2,34.1,27.56,42.26,39.69,47.57a4.79,4.79,0,0,0,6.41-2.72l2.19-5.94C50.82,32,53.83,13,24.41,1.68Z"/><path class="cls-4" d="M26.62,11a29.87,29.87,0,0,1,5.62,5A42,42,0,0,1,36.69,22a36.62,36.62,0,0,1,3.22,6.83,23.68,23.68,0,0,1,1.34,7.45c-1.23-2.23-2.3-4.39-3.5-6.49s-2.39-4.18-3.64-6.24l-3.78-6.2C29.08,15.29,27.81,13.2,26.62,11Z"/><path class="cls-4" d="M41.63,48a4.74,4.74,0,0,1-1.94-.4c-12.12-5.3-22.49-13.46-25.29-25.12-2.32-9.64,3-16.5,5.92-19.46,1.06-1.07,2.69-1.84,4.1-1.3l.44.17C20.25,9.07,10.52,30.33,41.63,48Z"/><path class="cls-5" d="M41.62,49.48a6.3,6.3,0,0,1-2.53-.53C24.57,42.59,15.53,33.55,13,22.8,10.5,12.58,15.86,5.33,19.27,1.92,20.61.58,22.81-.55,25,.28h0C57.61,12.83,51.3,35.1,49.71,39.43l-2.19,5.94A6.21,6.21,0,0,1,44.09,49,6.31,6.31,0,0,1,41.62,49.48ZM23.44,3a3.28,3.28,0,0,0-2.05,1c-3,3-7.63,9.26-5.52,18.06C18.84,34.48,30.79,42,40.3,46.2a3.29,3.29,0,0,0,4.41-1.86l2.19-5.94c2-5.44,6.26-24.06-23-35.31h0A1.21,1.21,0,0,0,23.44,3Z"/><path class="cls-6" d="M66.81,63.26,63,80a12,12,0,0,1-11.69,9.3H29.36A12,12,0,0,1,17.67,80l-3.85-16.7s-5-10-1-14h.31a1,1,0,0,0-.08.4c0,3,12.21,5.41,27.27,5.41s27.27-2.42,27.27-5.41a1,1,0,0,0-.08-.4h.31C71.81,53.26,66.81,63.26,66.81,63.26Z"/><path class="cls-7" d="M67.56,61.56c-30.23,6.19-47,3.1-54.14.85-1.1-2.5-3.9-9.86-.61-13.15h.31a1,1,0,0,0-.08.4c0,3,12.21,5.41,27.27,5.41s27.27-2.42,27.27-5.41a1,1,0,0,0-.08-.4h.31C70.78,52.23,68.78,58.53,67.56,61.56Z"/><path class="cls-5" d="M51.27,91.26H29.36A13.94,13.94,0,0,1,15.72,80.41l-3.8-16.47C11,62,6.75,52.5,11.4,47.85l.59-.59h4.25l-1,2.25c1.79,1.34,10.33,3.56,25.11,3.56s23.32-2.22,25.11-3.56l-1-2.25h4.25l.59.59c4.65,4.65.39,14.2-.52,16.09l-3.8,16.47A13.94,13.94,0,0,1,51.27,91.26Zm-38-38.31c-.31,2.94,1.22,7.26,2.3,9.42l.11.21,3.91,16.93a10,10,0,0,0,9.74,7.75H51.27A10,10,0,0,0,61,79.51l3.91-16.93.11-.21c1.08-2.16,2.6-6.48,2.3-9.42-6.16,3.88-23,4.12-27,4.12S19.46,56.83,13.3,52.95Z"/><path class="cls-5" d="M20.68,65.11C28.39,66.68,36,66.76,43.81,66.5c1.93-.06,1.93-3.06,0-3-7.55.25-14.9.24-22.33-1.28-1.88-.38-2.69,2.51-.8,2.89Z"/><path class="cls-5" d="M49.9,66.14A52.36,52.36,0,0,0,58,64.93c1.88-.44,1.08-3.33-.8-2.89a47.09,47.09,0,0,1-7.26,1.1c-1.91.14-1.93,3.14,0,3Z"/><path class="cls-8" d="M22.67,72.83l1.48,6.84c.41,1.89,3.3,1.09,2.89-.8L25.57,72c-.41-1.89-3.3-1.09-2.89.8Z"/><path class="cls-8" d="M28.14,75.09a30.55,30.55,0,0,0,1,6.07,1.5,1.5,0,0,0,2.89-.8,26.48,26.48,0,0,1-.92-5.28c-.13-1.92-3.13-1.93-3,0Z"/><path class="cls-9" d="M63.62,35.07A11.7,11.7,0,0,0,52,23.37a11.69,11.69,0,0,0-22.13,0h-.16a11.69,11.69,0,0,0-8,20.26A11.69,11.69,0,0,0,41.07,55.14,11.7,11.7,0,0,0,60.3,43.22,11.66,11.66,0,0,0,63.62,35.07Z"/><path class="cls-10" d="M21.62,35.07a11.64,11.64,0,0,0,3.73,8.55,12,12,0,0,0-.41,3,11.7,11.7,0,0,0,9.9,11.57,12.47,12.47,0,0,1-1.82.14,11.7,11.7,0,0,1-11.7-11.7,12,12,0,0,1,.41-3,11.69,11.69,0,0,1,8-20.25h.16a11.7,11.7,0,0,1,11.07-7.93,12.36,12.36,0,0,1,1.81.14,11.71,11.71,0,0,0-9.26,7.79c-.05,0-2.77,1.58-2.82,1.59C24.88,26.41,21.62,28.6,21.62,35.07Z"/><path class="cls-5" d="M49.11,59.85a13.12,13.12,0,0,1-8-2.74A13.19,13.19,0,0,1,19.83,46.65a13,13,0,0,1,.26-2.56,13.19,13.19,0,0,1,8.74-22.2,13.19,13.19,0,0,1,24.22,0A13.19,13.19,0,0,1,62,43.62,13.2,13.2,0,0,1,49.11,59.85Zm-8-6.78,1,1A10.2,10.2,0,0,0,58.87,43.66l-.26-.85.62-.64A10.19,10.19,0,0,0,52,24.87H50.93l-.34-1a10.19,10.19,0,0,0-19.29,0l-.35,1-1.26,0a10.21,10.21,0,0,0-10.17,10.2,10.1,10.1,0,0,0,3.26,7.46l.66.61-.23.87A10.19,10.19,0,0,0,40,54.05Z"/><path class="cls-5" d="M44.41,31.07a.5.5,0,0,1-.33-.87l8-7.05a.5.5,0,0,1,.66.75l-8,7.05A.5.5,0,0,1,44.41,31.07Z"/><path class="cls-5" d="M35.73,32a.5.5,0,0,1-.4-.21l-5.79-8a.5.5,0,0,1,.81-.59l5.79,8a.5.5,0,0,1-.4.79Z"/><path class="cls-5" d="M22,44.27a.5.5,0,0,1-.16-1l10.85-3.62a.5.5,0,0,1,.32.95L22.14,44.25Z"/><path class="cls-5" d="M40.79,55.85a.5.5,0,0,1-.5-.5v-9.4a.5.5,0,0,1,1,0v9.4A.5.5,0,0,1,40.79,55.85Z"/><path class="cls-5" d="M60.32,43.55h-.09L48.65,41.37a.5.5,0,0,1,.18-1l11.57,2.17a.5.5,0,0,1-.09,1Z"/><circle class="cls-11" cx="41.07" cy="37.83" r="7.88"/><path class="cls-12" d="M42.88,45.63a6.74,6.74,0,0,1-1.08.08,7.88,7.88,0,0,1,0-15.76,6.72,6.72,0,0,1,1.08.08,7.88,7.88,0,0,0,0,15.6Z"/><path class="cls-5" d="M41.07,46.21a8.38,8.38,0,1,1,8.38-8.38A8.39,8.39,0,0,1,41.07,46.21Zm0-15.76a7.38,7.38,0,1,0,7.38,7.38A7.39,7.39,0,0,0,41.07,30.45Z"/><path class="cls-8" d="M43.63,37.4c-.06-.13.09.27.09.27s.08.39.07.3,0,.29,0,.31-.05.47,0,.27a1.54,1.54,0,0,0,1,1.85,1.52,1.52,0,0,0,1.85-1,5.57,5.57,0,0,0-.46-3.46,1.51,1.51,0,0,0-2.05-.54,1.53,1.53,0,0,0-.54,2.05Z"/></g></g></svg>