<svg id="Layer_1" data-name="Layer 1" xmlns="http://www.w3.org/2000/svg" viewBox="0 0 375 812"><defs><style>.cls-1{fill:#f7e6b5;}.cls-2{fill:#edd8a4;}.cls-3{fill:#c49960;}.cls-4{fill:#c06272;}.cls-5{fill:#af5669;}.cls-6{fill:#6c4735;}.cls-7{fill:#fcd3dd;}.cls-8{fill:#b28a59;}.cls-9{fill:#e59a5d;}.cls-10{fill:#ce8451;}.cls-11,.cls-13{fill:#fff;}.cls-12{fill:#214f68;}.cls-13{opacity:0.3;}.cls-14{fill:#7d7f28;}.cls-15{fill:#59372a;}.cls-16{fill:#a65d3b;}.cls-17{fill:#bdd344;}.cls-18{fill:#72a03d;}.cls-19{fill:#fcf7f5;}.cls-20{fill:#eadad6;}.cls-21{fill:#fed06e;}.cls-22{fill:#f2c26b;}.cls-23{fill:#cd896d;}.cls-24{fill:#b7755e;}.cls-25{fill:#e1836e;}</style></defs><title>Untitled-1</title><path class="cls-1" d="M15,90.83V214.7A7.34,7.34,0,0,1,27.65,220c-1.39,37.34-4.38,124.7-5.69,213q1.1-6.55,2.28-12.9,2.08-11.17,4.27-21V297.56a9.5,9.5,0,0,1,19,0v38.75c1.64-3.92,3.19-7.32,4.62-10.26A3.94,3.94,0,0,1,59.4,329a363.15,363.15,0,0,0-11.9,49.65V484.88C61,460.1,75.74,446.21,86.31,438.71a4.92,4.92,0,0,1,6.86,6.85c-22,31.55-32.26,81.46-37,123.93a25,25,0,0,1,23.46,29.9l-15.51,78C194,648.17,291,532.17,291,393.5V0H241.11c22.05,16.76,15.94,35.32,13.24,41.12A8.37,8.37,0,1,1,242.06,52a7,7,0,0,1-1.5-.67C225,41.9,216,30.23,214.7,17.6A23.76,23.76,0,0,1,219.79,0H185.15A30.24,30.24,0,0,1,195.7,26.37l-.85,7.27a6.94,6.94,0,0,1-2.79,4.81,7.08,7.08,0,0,1-4.21,1.39,7,7,0,0,1-1.23-.11,73.19,73.19,0,0,1-16.41-4.82c.62,2.24,1.13,4.27,1.54,6a4.26,4.26,0,0,1,2.39.49C204,57.65,195.07,78.31,193,82.29l-2.86,5.44a6.07,6.07,0,0,1-3.79,3.05,6.18,6.18,0,0,1-4.84-.67c-13.19-8-20.74-17.86-21.85-28.55-1-9.82,4.62-16,8.37-19-.51-2.17-1.21-5-2.13-8.11A30.81,30.81,0,0,1,154.6,49.28l-6,4.14a6.93,6.93,0,0,1-3.94,1.23,7.08,7.08,0,0,1-6.06-3.42c-9.4-15.64-11.88-30.13-7.15-41.92A23.84,23.84,0,0,1,138,0H109.83c17.7,15,10.7,31.08,8.86,34.56l-2.9,5.51A6.13,6.13,0,0,1,112,43.16a6.24,6.24,0,0,1-4.89-.67A68.31,68.31,0,0,1,99.25,37c8,24.63-8.23,34.31-11.87,36.13l-5.5,2.74a6.07,6.07,0,0,1-4.85.27,6.18,6.18,0,0,1-3.54-3.37c-6-14.18-6.41-26.61-1.07-35.94.33-.57.67-1.11,1-1.62l-5.37.68a6.32,6.32,0,0,1-.79.05,6.13,6.13,0,0,1-3.92-1.42,6.25,6.25,0,0,1-2.25-4.39C60.27,17.51,62.61,7.24,67.89,0H40.58c16.49,13.18,11.09,28.66,9.59,32.11l-2.45,5.64a6.07,6.07,0,0,1-3.55,3.32,6.18,6.18,0,0,1-4.88-.31,61.77,61.77,0,0,1-12.07-7.9A8.36,8.36,0,0,1,17.24,20a27.27,27.27,0,0,1-1.86-6.08A20.11,20.11,0,0,1,17.76,0H0V83.1a9.48,9.48,0,0,1,15,7.73ZM77,223a14,14,0,0,1,14-14H269a14,14,0,0,1,14,14v4a14,14,0,0,1-14,14H91a14,14,0,0,1-14-14Zm0,131a14,14,0,0,1,14-14H269a14,14,0,0,1,14,14v4a14,14,0,0,1-14,14H91a14,14,0,0,1-14-14Z"/><path class="cls-2" d="M64.16,677.39,46.54,766H375V375.21H312.94V38.92H375V0H291V393.5C291,532.17,194,648.17,64.16,677.39Z"/><path class="cls-3" d="M42.32,787.22a283.38,283.38,0,0,1,49,11.58c11.42,3.93,21,8.37,28.5,13.2H375V781H43.56Z"/><path class="cls-4" d="M34.57,812H77A284.92,284.92,0,0,0,39,803.29,24.89,24.89,0,0,1,34.57,812Z"/><path class="cls-4" d="M40.1,798.4a277.06,277.06,0,0,1,44.7,10.9c2.54.87,5,1.78,7.34,2.7h3.18c-14.81-6.29-33.55-11.44-54.94-15Z"/><path class="cls-5" d="M41.35,792.13l-1,4.87c21.4,3.56,40.14,8.72,54.94,15h14.45a147.41,147.41,0,0,0-20.09-8.47A278.66,278.66,0,0,0,41.35,792.13Z"/><path class="cls-6" d="M42.32,787.22l-1,4.91a278.66,278.66,0,0,1,48.33,11.4A147.41,147.41,0,0,1,109.77,812h10c-7.54-4.83-17.08-9.27-28.5-13.2A283.38,283.38,0,0,0,42.32,787.22Z"/><path class="cls-7" d="M40.1,798.4l-.59,3c-.13.65-.29,1.28-.47,1.91A284.92,284.92,0,0,1,77,812H92.14c-2.36-.92-4.79-1.83-7.34-2.7A277.06,277.06,0,0,0,40.1,798.4Z"/><polygon class="cls-8" points="43.56 781 375 781 375 771 45.55 771 43.56 781"/><polygon class="cls-6" points="375 766 46.54 766 45.55 771 375 771 375 768.5 375 766"/><path class="cls-9" d="M81,227a9.93,9.93,0,0,0,1.56,5.33,12,12,0,0,0,1.94.17h178a12,12,0,0,0,12-12v-4a12,12,0,0,0-.17-1.94A9.93,9.93,0,0,0,269,213H91a10,10,0,0,0-10,10Z"/><path class="cls-10" d="M274.5,220.5a12,12,0,0,1-12,12H84.5a12,12,0,0,1-1.94-.17A10,10,0,0,0,91,237H269a10,10,0,0,0,10-10v-4a10,10,0,0,0-4.67-8.44,12,12,0,0,1,.17,1.94Z"/><path class="cls-6" d="M91,241H269a14,14,0,0,0,14-14v-4a14,14,0,0,0-14-14H91a14,14,0,0,0-14,14v4A14,14,0,0,0,91,241Zm0-28H269a10,10,0,0,1,10,10v4a10,10,0,0,1-10,10H91a10,10,0,0,1-10-10v-4A10,10,0,0,1,91,213Z"/><path class="cls-9" d="M81,358a9.93,9.93,0,0,0,1.56,5.33,12,12,0,0,0,1.94.17h178a12,12,0,0,0,12-12v-4a12,12,0,0,0-.17-1.94A9.93,9.93,0,0,0,269,344H91a10,10,0,0,0-10,10Zm179.5-.5H262a1.5,1.5,0,0,1,0,3h-1.5a1.5,1.5,0,0,1,0-3Zm-22.5,0h14.5a1.5,1.5,0,0,1,0,3H238A1.5,1.5,0,0,1,238,357.5Z"/><path class="cls-10" d="M274.5,351.5a12,12,0,0,1-12,12H84.5a12,12,0,0,1-1.94-.17A10,10,0,0,0,91,368H269a10,10,0,0,0,10-10v-4a10,10,0,0,0-4.67-8.44,12,12,0,0,1,.17,1.94Z"/><path class="cls-6" d="M91,372H269a14,14,0,0,0,14-14v-4a14,14,0,0,0-14-14H91a14,14,0,0,0-14,14v4A14,14,0,0,0,91,372Zm0-28H269a10,10,0,0,1,10,10v4a10,10,0,0,1-10,10H91a10,10,0,0,1-10-10v-4A10,10,0,0,1,91,344Z"/><path class="cls-11" d="M238,360.5h14.5a1.5,1.5,0,0,0,0-3H238A1.5,1.5,0,0,0,238,360.5Z"/><path class="cls-11" d="M260.5,360.5H262a1.5,1.5,0,0,0,0-3h-1.5a1.5,1.5,0,0,0,0,3Z"/><rect class="cls-12" x="342.29" y="66.33" width="32.71" height="127.03"/><rect class="cls-13" x="342.29" y="66.33" width="32.71" height="127.03"/><path class="cls-12" d="M342.29,301.72A15.37,15.37,0,0,1,353,297.4l.76,0q0-.38,0-.76a15.33,15.33,0,0,1,3.49-9.7A15.37,15.37,0,0,1,375,263V221.74H342.29Z"/><path class="cls-13" d="M342.29,301.72A15.37,15.37,0,0,1,353,297.4l.76,0q0-.38,0-.76a15.33,15.33,0,0,1,3.49-9.7A15.37,15.37,0,0,1,375,263V221.74H342.29Z"/><path class="cls-14" d="M358.71,277.25a10.42,10.42,0,0,0,3.61,7.82l2.15,1.88-2.15,1.88a10.42,10.42,0,0,0-3.61,7.82,10.17,10.17,0,0,0,.55,3.14l1.46,4.6-4.6-1.46a10.21,10.21,0,0,0-3.14-.55,10.45,10.45,0,0,0-10.44,10.44v2.5h-.25V339H375V268.68a10.25,10.25,0,0,0-5.85-1.86A10.45,10.45,0,0,0,358.71,277.25Z"/><path class="cls-13" d="M358.71,277.25a10.42,10.42,0,0,0,3.61,7.82l2.15,1.88-2.15,1.88a10.42,10.42,0,0,0-3.61,7.82,10.17,10.17,0,0,0,.55,3.14l1.46,4.6-4.6-1.46a10.21,10.21,0,0,0-3.14-.55,10.45,10.45,0,0,0-10.44,10.44v2.5h-.25V339H375V268.68a10.25,10.25,0,0,0-5.85-1.86A10.45,10.45,0,0,0,358.71,277.25Z"/><path class="cls-15" d="M353.71,277.25a15.33,15.33,0,0,0,3.49,9.7,15.33,15.33,0,0,0-3.49,9.7q0,.38,0,.76l-.76,0a15.37,15.37,0,0,0-10.68,4.32v13.62h.25v-2.5A10.45,10.45,0,0,1,353,302.4a10.21,10.21,0,0,1,3.14.55l4.6,1.46-1.46-4.6a10.17,10.17,0,0,1-.55-3.14,10.42,10.42,0,0,1,3.61-7.82l2.15-1.88-2.15-1.88a10.39,10.39,0,0,1,6.83-18.26,10.25,10.25,0,0,1,5.85,1.86V263a15.19,15.19,0,0,0-5.85-1.19A15.46,15.46,0,0,0,353.71,277.25Z"/><path class="cls-13" d="M353.71,277.25a15.33,15.33,0,0,0,3.49,9.7,15.33,15.33,0,0,0-3.49,9.7q0,.38,0,.76l-.76,0a15.37,15.37,0,0,0-10.68,4.32v13.62h.25v-2.5A10.45,10.45,0,0,1,353,302.4a10.21,10.21,0,0,1,3.14.55l4.6,1.46-1.46-4.6a10.17,10.17,0,0,1-.55-3.14,10.42,10.42,0,0,1,3.61-7.82l2.15-1.88-2.15-1.88a10.39,10.39,0,0,1,6.83-18.26,10.25,10.25,0,0,1,5.85,1.86V263a15.19,15.19,0,0,0-5.85-1.19A15.46,15.46,0,0,0,353.71,277.25Z"/><path class="cls-16" d="M5.5,86.33A4.5,4.5,0,0,0,1,90.83V250.19a171.32,171.32,0,0,1,9-26.26V90.83A4.5,4.5,0,0,0,5.5,86.33Z"/><path class="cls-6" d="M1,90.83a4.5,4.5,0,0,1,9,0v133.1q1.88-4.18,3.9-7.77A7.55,7.55,0,0,1,15,214.7V90.83A9.48,9.48,0,0,0,0,83.1v171c.33-1.32.66-2.63,1-3.91Z"/><path class="cls-16" d="M38,293.06a4.5,4.5,0,0,0-4.5,4.5v81.05c3-11.42,6.09-21.13,9-29.31V297.56A4.5,4.5,0,0,0,38,293.06Z"/><path class="cls-16" d="M36.61,508.21q2.37-6,5-11.6c.3-.65.6-1.28.9-1.91v-81C38.89,445.11,37.21,477.88,36.61,508.21Z"/><path class="cls-6" d="M42.5,413.71v81q2.46-5.17,5-9.82V378.65C45.52,390,43.87,401.75,42.5,413.71Z"/><path class="cls-6" d="M33.5,378.62V297.56a4.5,4.5,0,0,1,9,0V349.3c1.73-4.85,3.4-9.17,5-13V297.56a9.5,9.5,0,0,0-19,0V399.19Q31,388.08,33.5,378.62Z"/><path class="cls-17" d="M8.89,569.45q1.06-26.67,3-51.37c-.43-108.39,4.07-245.31,6-298.77C10.12,233.39,4.31,254.16,0,279v290.5Z"/><path class="cls-18" d="M16.51,471c.86-100.24,4.56-208.42,6.14-251.14a2.35,2.35,0,0,0-4.4-1.24l-.38.69c-1.94,53.46-6.44,190.38-6,298.77Q13.77,493.53,16.51,471Z"/><path class="cls-6" d="M17.88,219.31l.38-.69a2.35,2.35,0,0,1,4.4,1.24c-1.59,42.72-5.28,150.9-6.14,251.14q2.4-19.77,5.45-37.95c1.31-88.31,4.31-175.67,5.69-213A7.34,7.34,0,0,0,15,214.7a7.55,7.55,0,0,0-1.1,1.46q-2,3.58-3.9,7.77a171.32,171.32,0,0,0-9,26.26c-.34,1.28-.67,2.58-1,3.91V279C4.31,254.16,10.12,233.39,17.88,219.31Z"/><path class="cls-17" d="M29.1,529.9c0-47.32,2.2-104.93,10.67-155.29-3.61,12.93-7.24,28.29-10.63,46.46-7.91,42.43-13,92.15-15.25,148.39H20A331.69,331.69,0,0,1,29.1,529.9Z"/><path class="cls-18" d="M49.85,343.85c-3.19,8.22-6.63,18.37-10.08,30.75C31.3,425,29.07,482.58,29.1,529.9q1.12-3.73,2.31-7.35C32,465.32,36.06,396.56,49.85,343.85Z"/><path class="cls-6" d="M29.15,421.07c3.39-18.17,7-33.53,10.63-46.46,3.46-12.38,6.89-22.53,10.08-30.75C36.06,396.56,32,465.32,31.41,522.54q2.44-7.39,5.2-14.34c.6-30.32,2.29-63.09,5.89-94.5,1.37-12,3-23.71,5-35.06A363.15,363.15,0,0,1,59.4,329,3.94,3.94,0,0,0,52.12,326c-1.43,2.93-3,6.34-4.62,10.26s-3.27,8.15-5,13c-2.91,8.18-6,17.89-9,29.31q-2.52,9.48-5,20.58-2.18,9.82-4.27,21Q23,426.49,22,433.05q-3,18.16-5.45,37.95-2.74,22.52-4.64,47.08t-3,51.37h5C16.14,513.21,21.24,463.49,29.15,421.07Z"/><path class="cls-17" d="M25.11,569.45H48.23c3.7-37.67,11.67-82.7,28.67-116.19C59.52,470.57,36.28,504.83,25.11,569.45Z"/><path class="cls-18" d="M76.9,453.26c-17,33.49-25,78.52-28.67,116.19H51.1C57.31,512.75,70,470.23,88.8,443.07A98.59,98.59,0,0,0,76.9,453.26Z"/><path class="cls-6" d="M92.6,439.22a4.84,4.84,0,0,0-6.29-.51C75.74,446.21,61,460.1,47.5,484.88q-2.53,4.65-5,9.82c-.3.63-.6,1.26-.9,1.91q-2.61,5.63-5,11.6-2.76,6.95-5.2,14.34-1.19,3.62-2.31,7.35A331.69,331.69,0,0,0,20,569.45h5.12c11.18-64.62,34.41-98.89,51.79-116.19a98.59,98.59,0,0,1,11.9-10.19C70,470.23,57.31,512.75,51.1,569.45h4c.37,0,.74,0,1.11,0,4.7-42.47,14.92-92.38,37-123.93A4.87,4.87,0,0,0,92.6,439.22Z"/><path class="cls-19" d="M27.19,792.91,63.3,611.28H0V811.06H5.08A22.55,22.55,0,0,0,27.19,792.91Z"/><path class="cls-20" d="M34.6,800.41,72.36,610.47H66.44a2.77,2.77,0,0,1-2,.81H63.3L27.19,792.91A22.55,22.55,0,0,1,5.08,811.06H0V812H27.63A20,20,0,0,0,34.6,800.41Z"/><path class="cls-21" d="M74,602l.72-3.61a20,20,0,0,0-19.66-24H0V602Zm-13-7.85h.67a1.5,1.5,0,1,1,0,3H61a1.5,1.5,0,0,1,0-3Zm-8.67-.67a1.5,1.5,0,0,1,0,3H9.67a1.5,1.5,0,0,1,0-3Z"/><path class="cls-22" d="M64.4,605.28c3,0,3.65,3.56,2,5.19h5.92L74,602H0v3.26Z"/><path class="cls-6" d="M39.51,801.38l.59-3,.28-1.4,1-4.87,1-4.91L43.56,781l2-10,1-5,17.61-88.61,15.51-78a25,25,0,0,0-23.46-29.9c-.37,0-.74,0-1.11,0H0v5H55.1a20,20,0,0,1,19.66,24L74,602l-1.68,8.46L34.6,800.41a20,20,0,0,1-7,11.59h6.94A24.89,24.89,0,0,0,39,803.29C39.22,802.66,39.38,802,39.51,801.38Z"/><path class="cls-6" d="M63.3,611.28H64.4a2.77,2.77,0,0,0,2-.81c1.62-1.63.95-5.19-2-5.19H0v6Z"/><path class="cls-11" d="M9.67,593.5a1.5,1.5,0,0,0,0,3H52.33a1.5,1.5,0,0,0,0-3Z"/><path class="cls-11" d="M61,597.17h.67a1.5,1.5,0,1,0,0-3H61a1.5,1.5,0,0,0,0,3Z"/><polygon class="cls-23" points="317.94 370.2 375 370.2 375 351.68 326.79 351.68 326.79 48.83 375 48.83 375 43.92 317.94 43.92 317.94 370.2"/><polygon class="cls-23" points="337.3 198.36 337.3 61.91 337.13 61.91 337.13 193.94 337.13 217.32 337.13 339.6 337.3 339.6 337.3 216.74 375 216.74 375 198.36 337.3 198.36"/><path class="cls-24" d="M326.79,351.67H375V344H337.29V339.6h-.16V61.91h.16v-.58H375V48.82H326.79ZM328.5,90a1.5,1.5,0,0,1,3,0v27.5a1.5,1.5,0,0,1-3,0Zm-1,135a1.5,1.5,0,0,1,3,0v18.5a1.5,1.5,0,0,1-3,0Zm-.5,32.5a1.5,1.5,0,0,1,3,0V263a1.5,1.5,0,0,1-3,0Z"/><polygon class="cls-6" points="312.94 375.2 375 375.2 375 370.2 317.94 370.2 317.94 43.92 375 43.92 375 38.92 312.94 38.92 312.94 375.2"/><polygon class="cls-6" points="337.3 216.74 337.3 339.6 337.3 344.03 375 344.03 375 339.03 342.3 339.03 342.3 315.33 342.3 301.72 342.3 221.74 375 221.74 375 216.74 337.3 216.74"/><polygon class="cls-6" points="337.3 61.33 337.3 61.91 337.3 198.36 375 198.36 375 193.36 342.3 193.36 342.3 66.33 375 66.33 375 61.33 337.3 61.33"/><path class="cls-11" d="M331.5,117.5V90a1.5,1.5,0,0,0-3,0v27.5A1.5,1.5,0,0,0,331.5,117.5Z"/><path class="cls-11" d="M330.5,243.5V225a1.5,1.5,0,0,0-3,0v18.5A1.5,1.5,0,0,0,330.5,243.5Z"/><path class="cls-11" d="M330,263v-5.5a1.5,1.5,0,0,0-3,0V263A1.5,1.5,0,0,0,330,263Z"/><path class="cls-17" d="M237.21,45.58c1.24.88,2.47,1.69,3.68,2.45,0-.09,0-.19,0-.28a8.37,8.37,0,0,1,10.81-8c3.09-6.57,8-24-15.75-39.74h-8C222.13,9.28,216.64,26.53,237.21,45.58ZM247.5,24a1.52,1.52,0,0,1-1.5,1.5h-1a1.5,1.5,0,0,1,0-3h1A1.53,1.53,0,0,1,247.5,24ZM243,16h1a1.5,1.5,0,0,1,0,3h-1a1.5,1.5,0,0,1,0-3Zm-1.44,4.45a44.68,44.68,0,0,1,2.69,8.28,29.07,29.07,0,0,1,.58,8.69c-1-2.76-1.83-5.41-2.84-8s-2.06-5.19-3.18-7.74-2.27-5.11-3.44-7.68S233,8.83,231.91,6.14a37.3,37.3,0,0,1,5.51,6.69A51.79,51.79,0,0,1,241.56,20.45Z"/><path class="cls-18" d="M235.37,14q1.75,3.85,3.44,7.68c1.12,2.56,2.16,5.14,3.18,7.74s1.87,5.27,2.84,8a29.07,29.07,0,0,0-.58-8.69,44.68,44.68,0,0,0-2.69-8.28,51.79,51.79,0,0,0-4.13-7.62,37.3,37.3,0,0,0-5.51-6.69C233,8.83,234.21,11.4,235.37,14Z"/><path class="cls-18" d="M217.68,17.29c1.29,12.44,10.49,21.89,19.52,28.28C216.64,26.53,222.13,9.28,228,0h-4.2A21.23,21.23,0,0,0,217.68,17.29Z"/><path class="cls-6" d="M214.7,17.6C216,30.23,225,41.9,240.56,51.35a7,7,0,0,0,1.5.67,8.31,8.31,0,0,1-1.17-4c-1.21-.76-2.44-1.58-3.68-2.45-9-6.39-18.23-15.84-19.52-28.28A21.23,21.23,0,0,1,223.76,0h-4A23.76,23.76,0,0,0,214.7,17.6Z"/><path class="cls-6" d="M251.69,39.74a8.35,8.35,0,0,1,2.66,1.38c2.71-5.8,8.81-24.36-13.24-41.12h-5.17C259.72,15.73,254.78,33.17,251.69,39.74Z"/><path class="cls-17" d="M22.82,16.93a8.36,8.36,0,0,1,7.49,13.5,48.43,48.43,0,0,0,4.44,4.28,67.36,67.36,0,0,0,5.89,3.38,3.14,3.14,0,0,0,2.5.16A3.1,3.1,0,0,0,45,36.55l2.45-5.64c2-4.55,6.23-19-11.93-30.91H24.8A26.15,26.15,0,0,0,22.82,16.93ZM41.5,11.5h2a1.5,1.5,0,0,1,0,3h-2a1.5,1.5,0,0,1,0-3Zm-7-3.15a40.28,40.28,0,0,1,4,6.12A33.9,33.9,0,0,1,40,17.72a1.65,1.65,0,0,1,0-.22A1.52,1.52,0,0,1,41.5,16H42a1.5,1.5,0,0,1,0,3h-.5a1.46,1.46,0,0,1-1.26-.72c.38,1,.72,2,1,3a22.71,22.71,0,0,1,.85,7.31c-1.08-2.23-2-4.37-3.06-6.48S37,17.94,35.87,15.87l-3.3-6.23c-1.1-2.1-2.21-4.2-3.23-6.45A28.55,28.55,0,0,1,34.53,8.35Z"/><path class="cls-18" d="M35.87,15.87C37,17.94,38,20,39,22.12s2,4.25,3.06,6.48a22.71,22.71,0,0,0-.85-7.31c-.29-1-.64-2-1-3a1.62,1.62,0,0,1-.21-.56,33.9,33.9,0,0,0-1.51-3.25,40.28,40.28,0,0,0-4-6.12,28.55,28.55,0,0,0-5.19-5.16c1,2.25,2.13,4.35,3.23,6.45Z"/><path class="cls-18" d="M34.76,34.71a48.43,48.43,0,0,1-4.44-4.28,8.42,8.42,0,0,1-.56.65A53.53,53.53,0,0,0,34.76,34.71Z"/><path class="cls-18" d="M18.34,13.38A24.16,24.16,0,0,0,19.65,18a8.31,8.31,0,0,1,3.18-1A26.15,26.15,0,0,1,24.8,0H21.32A17.37,17.37,0,0,0,18.34,13.38Z"/><path class="cls-6" d="M15.38,13.91A27.27,27.27,0,0,0,17.24,20a8.43,8.43,0,0,1,2.4-2,24.16,24.16,0,0,1-1.31-4.58A17.37,17.37,0,0,1,21.32,0H17.76A20.11,20.11,0,0,0,15.38,13.91Z"/><path class="cls-6" d="M47.42,30.91,45,36.55a3.1,3.1,0,0,1-1.81,1.7,3.14,3.14,0,0,1-2.5-.16,67.36,67.36,0,0,1-5.89-3.38,53.53,53.53,0,0,1-5-3.63,8.4,8.4,0,0,1-2.54,1.79,61.77,61.77,0,0,0,12.07,7.9,6.18,6.18,0,0,0,4.88.31,6.07,6.07,0,0,0,3.55-3.32l2.45-5.64c1.5-3.45,6.91-18.93-9.59-32.11H35.49C53.65,11.94,49.4,26.36,47.42,30.91Z"/><path class="cls-17" d="M73.91,65.24a67.39,67.39,0,0,0,2.34,6.35,3.15,3.15,0,0,0,4.3,1.59L86,70.44c4.89-2.44,19.57-12.27,8.24-38q-.84-.89-1.62-1.81C84.5,33.23,69.86,41.34,73.91,65.24Zm11.37-6.92c.54-2.28,1.09-4.54,1.58-6.83l1.47-6.9c.51-2.32,1-4.64,1.67-7a28.55,28.55,0,0,1,.66,7.29,40.28,40.28,0,0,1-.87,7.26,35.17,35.17,0,0,1-2.28,7,22.71,22.71,0,0,1-4,6.15C84.06,62.85,84.72,60.61,85.28,58.32Zm-2-.59-.51,1a1.52,1.52,0,0,1-2.05.54,1.54,1.54,0,0,1-.54-2.05l.51-1a1.52,1.52,0,0,1,2.05-.54A1.54,1.54,0,0,1,83.25,57.73Zm-.45-7.49a1.52,1.52,0,0,1-.54,2.05l-1,.5a1.5,1.5,0,1,1-1.51-2.59l1-.5A1.53,1.53,0,0,1,82.8,50.24Z"/><path class="cls-18" d="M89.78,52.12a40.28,40.28,0,0,0,.87-7.26A28.55,28.55,0,0,0,90,37.57c-.66,2.38-1.16,4.7-1.67,7l-1.47,6.9c-.49,2.29-1,4.55-1.58,6.83s-1.22,4.52-1.82,6.93a22.71,22.71,0,0,0,4-6.15A35.17,35.17,0,0,0,89.78,52.12Z"/><path class="cls-18" d="M75,38.32c-4.84,8.45-3.73,18.5-1.11,26.92-4.05-23.9,10.59-32,18.75-34.65q-.55-.65-1.06-1.3a4.16,4.16,0,0,0-.58,0h-.12a22.32,22.32,0,0,0-4,.49,26.54,26.54,0,0,1-8.73,4.51A17.82,17.82,0,0,0,75,38.32Z"/><path class="cls-6" d="M94.28,32.4c11.34,25.76-3.34,35.6-8.24,38l-5.5,2.74a3.15,3.15,0,0,1-4.3-1.59,67.39,67.39,0,0,1-2.34-6.35C71.29,56.82,70.18,46.77,75,38.32a17.82,17.82,0,0,1,3.19-4.08,24.83,24.83,0,0,1-4,.86l-.81.1c-.35.51-.7,1.05-1,1.62-5.34,9.33-5,21.75,1.07,35.94a6.18,6.18,0,0,0,5.67,3.75,6.09,6.09,0,0,0,2.73-.65l5.5-2.74C91,71.3,107.24,61.63,99.25,37A52.26,52.26,0,0,1,94.28,32.4Z"/><path class="cls-6" d="M91,29.24a4.16,4.16,0,0,1,.58,0q-.9-1.15-1.68-2.33a24.92,24.92,0,0,1-3,2.77,22.32,22.32,0,0,1,4-.49Z"/><path class="cls-17" d="M97.62,6.09a8.37,8.37,0,0,1,4,2.23c-.64-1.48-1.26-3-1.84-4.54a29.15,29.15,0,0,1,4.85,5.62,41.08,41.08,0,0,1,3.57,6.49A35.83,35.83,0,0,1,110.49,23a23.16,23.16,0,0,1,.32,7.45c-.92-2.34-1.69-4.58-2.59-6.78s-1.79-4.39-2.74-6.56l-1.38-3.13c0,.1,0,.2,0,.3a8.35,8.35,0,0,1-10.56,8.08,38.51,38.51,0,0,0,9.49,13.84c1.87,1.4,3.76,2.66,5.57,3.76a3.21,3.21,0,0,0,4.51-1.24l2.9-5.51C118.44,28.6,124,13.73,105,0H97.61A58.67,58.67,0,0,1,97.62,6.09Zm15.32,10.85a1.52,1.52,0,0,1,2.12,0l1.5,1.5a1.5,1.5,0,0,1-2.12,2.12l-1.5-1.5A1.52,1.52,0,0,1,112.94,16.94ZM112.5,22h2a1.5,1.5,0,0,1,0,3h-2a1.5,1.5,0,0,1,0-3Z"/><path class="cls-18" d="M104.11,13.95l1.38,3.13c1,2.17,1.84,4.36,2.74,6.56s1.67,4.45,2.59,6.78a23.16,23.16,0,0,0-.32-7.45,35.83,35.83,0,0,0-2.26-7.09,41.08,41.08,0,0,0-3.57-6.49,29.15,29.15,0,0,0-4.85-5.62c.58,1.56,1.21,3.06,1.84,4.54A8.35,8.35,0,0,1,104.11,13.95Z"/><path class="cls-18" d="M103.06,36.16a38.51,38.51,0,0,1-9.49-13.84l-.24-.06c-.45.79-.91,1.54-1.4,2.23A44.3,44.3,0,0,0,103.06,36.16Z"/><path class="cls-6" d="M116,33.17l-2.9,5.51a3.21,3.21,0,0,1-4.51,1.24c-1.81-1.09-3.69-2.35-5.57-3.76A44.3,44.3,0,0,1,91.92,24.49a25.45,25.45,0,0,1-2,2.47q.78,1.18,1.68,2.33.51.66,1.06,1.3.77.91,1.62,1.81a52.26,52.26,0,0,0,5,4.59,68.31,68.31,0,0,0,7.82,5.49,6.24,6.24,0,0,0,4.89.67,6.13,6.13,0,0,0,3.83-3.08l2.9-5.51c1.83-3.48,8.84-19.6-8.86-34.56H105C124,13.73,118.44,28.6,116,33.17Z"/><path class="cls-17" d="M64,23.25c-.07,2.32,0,4.58.11,6.67a3.2,3.2,0,0,0,1.17,2.28,3.16,3.16,0,0,0,2.43.71l6.18-.78a22.54,22.54,0,0,0,16.84-11.2A8.36,8.36,0,0,1,94.64,6a56.73,56.73,0,0,0,0-6H77.85C71.73,3.62,66.11,10.49,64,23.25ZM84.73,8.15C86,6.1,87.24,4,88.66,2a29.15,29.15,0,0,1-1.82,7.19,41.08,41.08,0,0,1-3.27,6.65,35.83,35.83,0,0,1-4.52,5.91,23.16,23.16,0,0,1-5.92,4.54c1.39-2.09,2.78-4,4.08-6s2.57-4,3.8-6ZM77,9a1.5,1.5,0,0,1,0,3A1.5,1.5,0,0,1,77,9Zm-1.5,5A1.52,1.52,0,0,1,74,15.5H73a1.5,1.5,0,0,1,0-3h1A1.53,1.53,0,0,1,75.5,14Z"/><path class="cls-18" d="M73.14,26.28a23.16,23.16,0,0,0,5.92-4.54,35.83,35.83,0,0,0,4.52-5.91,41.08,41.08,0,0,0,3.27-6.65A29.15,29.15,0,0,0,88.66,2C87.24,4,86,6.1,84.73,8.15L81,14.26c-1.24,2-2.51,4-3.8,6S74.52,24.18,73.14,26.28Z"/><path class="cls-18" d="M77.85,0H71.76C66.09,6.44,64.24,15.28,64,23.25,66.11,10.49,71.73,3.62,77.85,0Z"/><path class="cls-6" d="M61.1,30.12a6.25,6.25,0,0,0,2.25,4.39,6.13,6.13,0,0,0,3.92,1.42,6.32,6.32,0,0,0,.79-.05l5.37-.68.81-.1a24.83,24.83,0,0,0,4-.86,26.54,26.54,0,0,0,8.73-4.51,24.92,24.92,0,0,0,3-2.77,25.45,25.45,0,0,0,2-2.47c.49-.69,1-1.45,1.4-2.23a8.34,8.34,0,0,1-2.61-1.34,22.54,22.54,0,0,1-16.84,11.2l-6.18.78a3.16,3.16,0,0,1-2.43-.71,3.2,3.2,0,0,1-1.17-2.28c-.14-2.09-.19-4.35-.11-6.67.26-8,2.11-16.81,7.78-23.25H67.89C62.61,7.24,60.27,17.51,61.1,30.12Z"/><path class="cls-6" d="M94.64,6a7.9,7.9,0,0,1,3,.14,58.67,58.67,0,0,0,0-6.09h-3A56.73,56.73,0,0,1,94.64,6Z"/><path class="cls-6" d="M165.87,34.44c.92,3.15,1.62,5.94,2.13,8.11l.4-.32a6.49,6.49,0,0,1,3.35-1.34c-.4-1.71-.91-3.74-1.54-6-1.35-.59-2.65-1.2-3.89-1.86Q166.11,33.76,165.87,34.44Z"/><path class="cls-17" d="M169.27,14.21a8.4,8.4,0,0,1,2.66-3.93c-1.2-1.19-2.39-2.38-3.6-3.57-2-2-4-4-6-6.07a37.29,37.29,0,0,1,7.55,4.26,51.2,51.2,0,0,1,4.79,3.89,8.37,8.37,0,0,1,9.57,12.63,25.51,25.51,0,0,1,1.39,3.76c-.77-.91-1.52-1.8-2.26-2.69a8.33,8.33,0,0,1-10.6,1.29,8.42,8.42,0,0,1-4,4.82,54.32,54.32,0,0,0,12.6,6.9c2,.51,3.95.93,5.8,1.26a4,4,0,0,0,4.72-3.49l.85-7.27c.56-4.77.58-17.41-12.45-26H159.78a61,61,0,0,1,5.88,12.93A8.31,8.31,0,0,1,169.27,14.21Z"/><path class="cls-18" d="M169.84,4.91A37.29,37.29,0,0,0,162.29.65c2,2.11,4,4.08,6,6.07,1.21,1.19,2.4,2.38,3.6,3.57a8.37,8.37,0,0,1,2.7-1.48A51.2,51.2,0,0,0,169.84,4.91Z"/><path class="cls-18" d="M185.59,25.18a25.51,25.51,0,0,0-1.39-3.76,8.43,8.43,0,0,1-.87,1.07C184.07,23.39,184.81,24.28,185.59,25.18Z"/><path class="cls-18" d="M181.34,35.51a54.32,54.32,0,0,1-12.6-6.9,8.33,8.33,0,0,1-1.58.66c0,.24-.08.49-.12.73A59.93,59.93,0,0,0,181.34,35.51Z"/><path class="cls-6" d="M192.72,26l-.85,7.27a4,4,0,0,1-4.72,3.49c-1.86-.33-3.81-.75-5.8-1.26A59.93,59.93,0,0,1,167,30a29.42,29.42,0,0,1-.72,3c1.24.66,2.54,1.28,3.89,1.86a73.19,73.19,0,0,0,16.41,4.82,7,7,0,0,0,1.23.11,7.08,7.08,0,0,0,4.21-1.39,6.94,6.94,0,0,0,2.79-4.81l.85-7.27A30.24,30.24,0,0,0,185.15,0h-4.89C193.3,8.61,193.28,21.25,192.72,26Z"/><path class="cls-17" d="M138.29,44.56c.92,1.81,1.88,3.53,2.85,5.13a4,4,0,0,0,5.73,1.26l6-4.14A26.93,26.93,0,0,0,164.16,29.6a8.36,8.36,0,0,1-1.54-16.44A61.74,61.74,0,0,0,156.27,0h-5C141.76,5.53,129,18.24,138.29,44.56Zm5.45-13.73a1.51,1.51,0,0,1-1.85,1l-2-.65a1.53,1.53,0,0,1-1-1.85,1.51,1.51,0,0,1,1.85-1l2,.65A1.53,1.53,0,0,1,143.75,30.83Zm-1.42-5.66h-2a1.5,1.5,0,0,1,0-3h2a1.5,1.5,0,0,1,0,3Zm11.52-.81a44.68,44.68,0,0,1-1.48,8.58,29.07,29.07,0,0,1-3.54,8c.43-2.89.9-5.64,1.23-8.42s.6-5.55.8-8.33.37-5.58.54-8.39.32-5.64.59-8.54a37.29,37.29,0,0,1,1.76,8.49A51.79,51.79,0,0,1,153.85,24.36Z"/><path class="cls-18" d="M152,7.2c-.27,2.9-.42,5.72-.59,8.54s-.34,5.61-.54,8.39-.49,5.55-.8,8.33-.8,5.53-1.23,8.42a29.07,29.07,0,0,0,3.54-8,44.68,44.68,0,0,0,1.48-8.58,51.79,51.79,0,0,0-.1-8.67A37.29,37.29,0,0,0,152,7.2Z"/><path class="cls-18" d="M134.2,10.43c-4.66,11.61-.92,24.25,4.09,34.12C129,18.24,141.76,5.53,151.23,0h-8.08A20.72,20.72,0,0,0,134.2,10.43Z"/><path class="cls-6" d="M131.42,9.32c-4.72,11.78-2.25,26.28,7.15,41.92a7.08,7.08,0,0,0,6.06,3.42,6.93,6.93,0,0,0,3.94-1.23l6-4.14a30.81,30.81,0,0,0,11.27-14.84q.24-.68.45-1.4a29.42,29.42,0,0,0,.72-3c0-.24.08-.48.12-.73a8.34,8.34,0,0,1-2.41.36c-.2,0-.39,0-.59,0A26.93,26.93,0,0,1,152.9,46.81l-6,4.14a4,4,0,0,1-5.73-1.26c-1-1.6-1.93-3.32-2.85-5.13-5-9.87-8.75-22.51-4.09-34.12A20.72,20.72,0,0,1,143.15,0H138A23.84,23.84,0,0,0,131.42,9.32Z"/><path class="cls-6" d="M164.75,12.88a8.41,8.41,0,0,1,.91.05A61,61,0,0,0,159.78,0h-3.52a61.74,61.74,0,0,1,6.36,13.16A8.33,8.33,0,0,1,164.75,12.88Z"/><path class="cls-17" d="M185.2,53.14a8.34,8.34,0,0,1-3.12,9.44c.2.42.4.84.59,1.26a35.16,35.16,0,0,1,2.22,7,22.71,22.71,0,0,1,.3,7.35c-.91-2.3-1.68-4.51-2.57-6.69s-1.77-4.32-2.71-6.47l-.53-1.2a8.38,8.38,0,1,1-1.06-16.38c-1.65-1.13-3.45-2.25-5.46-3.35-5.09,6.61-13.16,22.13,4.56,39.64a67.37,67.37,0,0,0,5.62,3.8,3.15,3.15,0,0,0,4.42-1.21l2.86-5.44C192.41,76.94,196.91,65.13,185.2,53.14ZM174.51,73.41a1.53,1.53,0,0,1-1.85-1l-.5-1.5a1.52,1.52,0,0,1,1-1.85,1.53,1.53,0,0,1,1.85,1l.5,1.5A1.52,1.52,0,0,1,174.51,73.41ZM180,78.5a1.5,1.5,0,0,1-3,0V76a1.5,1.5,0,0,1,3,0Z"/><path class="cls-18" d="M179.92,65c.94,2.14,1.82,4.3,2.71,6.47s1.65,4.38,2.57,6.69a22.71,22.71,0,0,0-.3-7.35,35.16,35.16,0,0,0-2.22-7c-.19-.43-.39-.84-.59-1.26a8.33,8.33,0,0,1-2.69,1.26Z"/><path class="cls-18" d="M172.86,44.1,172.7,44a1.25,1.25,0,0,0-.6-.14,3.38,3.38,0,0,0-1.87.74c-3.23,2.47-8.51,7.92-7.6,16.64,1,9.68,7.77,17.18,14.8,22.49C159.7,66.23,167.78,50.72,172.86,44.1Z"/><path class="cls-6" d="M168,42.55c-3.75,3-9.39,9.19-8.37,19,1.11,10.69,8.67,20.56,21.85,28.55a6.18,6.18,0,0,0,4.84.67,6.07,6.07,0,0,0,3.79-3.05L193,82.29c2.09-4,11-24.64-18.84-40.91a4.26,4.26,0,0,0-2.39-.49,6.49,6.49,0,0,0-3.35,1.34Zm17.53,45.34a3.13,3.13,0,0,1-2.48-.34,67.37,67.37,0,0,1-5.62-3.8c-7-5.3-13.8-12.81-14.8-22.49-.91-8.72,4.38-14.17,7.6-16.64a3.38,3.38,0,0,1,1.87-.74,1.25,1.25,0,0,1,.6.14l.16.09c2,1.1,3.82,2.22,5.46,3.35a8.39,8.39,0,0,1,6.88,5.69c11.71,12,7.21,23.79,5.12,27.75l-2.86,5.44A3.1,3.1,0,0,1,185.53,87.89Z"/><path class="cls-25" d="M23.75,30.63a5.38,5.38,0,1,0-5.37-5.37,5.31,5.31,0,0,0,.21,1.41A1.38,1.38,0,0,1,20,25.5a1.5,1.5,0,0,1,0,3,1.53,1.53,0,0,1-.6-.12A5.36,5.36,0,0,0,23.75,30.63Z"/><path class="cls-6" d="M29.75,31.08a8.42,8.42,0,0,0,.56-.65A8.36,8.36,0,0,0,19.65,18a8.43,8.43,0,0,0-2.4,2A8.37,8.37,0,0,0,29.75,31.08ZM18.59,26.66a5.31,5.31,0,0,1-.21-1.41,5.41,5.41,0,1,1,1,3.13A1.51,1.51,0,0,1,18.59,26.66Z"/><path class="cls-25" d="M95.75,19.63a5.38,5.38,0,1,0-5.37-5.37A5.38,5.38,0,0,0,95.75,19.63ZM95,14.5a1.5,1.5,0,0,1,0,3A1.5,1.5,0,0,1,95,14.5Z"/><path class="cls-6" d="M95.75,22.63a8.38,8.38,0,0,0,8.38-8.37c0-.1,0-.2,0-.3a8.35,8.35,0,1,0-10.79,8.32l.24.06A8.33,8.33,0,0,0,95.75,22.63Zm-5.37-8.37a5.38,5.38,0,1,1,5.38,5.38A5.38,5.38,0,0,1,90.38,14.25Z"/><path class="cls-25" d="M164.75,15.88a5.38,5.38,0,1,0,5.38,5.38s0-.1,0-.14A8.3,8.3,0,0,1,169,18,5.35,5.35,0,0,0,164.75,15.88Z"/><path class="cls-6" d="M168.74,28.61a8.42,8.42,0,0,0,4-4.82,8.43,8.43,0,0,1-2.62-2.68s0,.09,0,.14A5.44,5.44,0,1,1,169,18a8.07,8.07,0,0,1,.3-3.75,8.31,8.31,0,0,0-3.61-1.28,8.37,8.37,0,1,0-1.5,16.67c.2,0,.39,0,.59,0a8.44,8.44,0,0,0,4-1Z"/><path class="cls-25" d="M249.25,42.38a5.38,5.38,0,1,0,5.38,5.38A5.38,5.38,0,0,0,249.25,42.38ZM248.5,52a1.5,1.5,0,0,1,0-3A1.5,1.5,0,0,1,248.5,52Z"/><path class="cls-6" d="M251.69,39.74a8.37,8.37,0,0,0-10.81,8c0,.09,0,.19,0,.28a8.35,8.35,0,1,0,10.8-8.29Zm-2.44,13.39a5.38,5.38,0,1,1,5.38-5.37A5.38,5.38,0,0,1,249.25,53.13Z"/><path class="cls-25" d="M177.25,22.13a5.38,5.38,0,1,0-5.37-5.37A5.38,5.38,0,0,0,177.25,22.13ZM177,21.5a1.5,1.5,0,0,1,0-3A1.5,1.5,0,0,1,177,21.5Z"/><path class="cls-6" d="M168.88,16.75a8.38,8.38,0,1,0,.4-2.54A8.36,8.36,0,0,0,168.88,16.75Zm8.38-5.37a5.38,5.38,0,1,1-5.37,5.38A5.38,5.38,0,0,1,177.25,11.38Z"/><path class="cls-25" d="M177.25,50.38a5.37,5.37,0,0,0-5.36,5.25,1.52,1.52,0,0,1,.61-.12,1.5,1.5,0,0,1,.15,3,5.37,5.37,0,1,0,4.6-8.11Z"/><path class="cls-6" d="M168.88,55.75a8.32,8.32,0,1,0,8.38-8.37A8.38,8.38,0,0,0,168.88,55.75Zm8.38,5.38a5.36,5.36,0,0,1-4.6-2.64h-.15a1.52,1.52,0,0,1-.61-2.88,5.37,5.37,0,1,1,5.36,5.5Z"/><path class="cls-11" d="M177,18.5a1.5,1.5,0,0,0,0,3A1.5,1.5,0,0,0,177,18.5Z"/><path class="cls-11" d="M172.5,55.5a1.5,1.5,0,1,0,0,3h.15A1.5,1.5,0,0,0,172.5,55.5Z"/><path class="cls-11" d="M248.5,49a1.5,1.5,0,0,0,0,3A1.5,1.5,0,0,0,248.5,49Z"/><path class="cls-11" d="M95,17.5a1.5,1.5,0,0,0,0-3A1.5,1.5,0,0,0,95,17.5Z"/><path class="cls-11" d="M20,25.5a1.38,1.38,0,0,0-1.41,1.16,1.51,1.51,0,0,0,.81,1.72,1.53,1.53,0,0,0,.6.12A1.5,1.5,0,0,0,20,25.5Z"/><path class="cls-11" d="M41.5,14.5h2a1.5,1.5,0,0,0,0-3h-2a1.5,1.5,0,0,0,0,3Z"/><path class="cls-11" d="M41.5,19H42a1.5,1.5,0,0,0,0-3h-.5A1.52,1.52,0,0,0,40,17.5a1.65,1.65,0,0,0,0,.22,1.62,1.62,0,0,0,.21.56A1.46,1.46,0,0,0,41.5,19Z"/><path class="cls-11" d="M79.2,52.26a1.53,1.53,0,0,0,2.05.54l1-.5a1.5,1.5,0,1,0-1.51-2.59l-1,.5A1.52,1.52,0,0,0,79.2,52.26Z"/><path class="cls-11" d="M80.66,56.22l-.51,1a1.54,1.54,0,0,0,.54,2.05,1.52,1.52,0,0,0,2.05-.54l.51-1a1.54,1.54,0,0,0-.54-2.05A1.52,1.52,0,0,0,80.66,56.22Z"/><path class="cls-11" d="M243,19h1a1.5,1.5,0,0,0,0-3h-1a1.5,1.5,0,0,0,0,3Z"/><path class="cls-11" d="M243.5,24a1.53,1.53,0,0,0,1.5,1.5h1a1.5,1.5,0,0,0,0-3h-1A1.52,1.52,0,0,0,243.5,24Z"/><path class="cls-11" d="M178.5,74.5A1.53,1.53,0,0,0,177,76v2.5a1.5,1.5,0,0,0,3,0V76A1.52,1.52,0,0,0,178.5,74.5Z"/><path class="cls-11" d="M175.06,70.06a1.53,1.53,0,0,0-1.85-1,1.52,1.52,0,0,0-1,1.85l.5,1.5a1.53,1.53,0,0,0,1.85,1,1.52,1.52,0,0,0,1-1.85Z"/><path class="cls-11" d="M71.5,14A1.53,1.53,0,0,0,73,15.5h1a1.5,1.5,0,0,0,0-3H73A1.52,1.52,0,0,0,71.5,14Z"/><path class="cls-11" d="M77,12a1.5,1.5,0,0,0,0-3A1.5,1.5,0,0,0,77,12Z"/><path class="cls-11" d="M114.44,20.56a1.5,1.5,0,0,0,2.12-2.12l-1.5-1.5a1.5,1.5,0,0,0-2.12,2.12Z"/><path class="cls-11" d="M112.5,25h2a1.5,1.5,0,0,0,0-3h-2a1.5,1.5,0,0,0,0,3Z"/><path class="cls-11" d="M142.33,22.17h-2a1.5,1.5,0,0,0,0,3h2a1.5,1.5,0,0,0,0-3Z"/><path class="cls-11" d="M142.7,29l-2-.65a1.51,1.51,0,0,0-1.85,1,1.53,1.53,0,0,0,1,1.85l2,.65a1.51,1.51,0,0,0,1.85-1A1.53,1.53,0,0,0,142.7,29Z"/></svg>