<svg xmlns="http://www.w3.org/2000/svg" viewBox="0 0 226 264"><defs><style>.cls-1{fill:#e59a5d;}.cls-2{fill:#ce8451;}.cls-3{fill:none;stroke:#6c4735;stroke-miterlimit:10;stroke-width:4px;}.cls-4{fill:#6c4735;}.cls-5{fill:#fff;}.cls-6{fill:#964e35;}.cls-7{fill:#bdd344;}.cls-8{fill:#72a03d;}.cls-9{fill:#a96540;}.cls-10{fill:#9b5537;}.cls-11{fill:#e58a5d;}.cls-12{fill:#d3774f;}.cls-13{fill:#c06272;}.cls-14{fill:#ad5366;}.cls-15{fill:#fcd3dd;}.cls-16{fill:#e5b5c3;}.cls-17{fill:#fff1b8;}.cls-18{fill:#f4e5a6;}.cls-19{fill:#ffc849;}.cls-20{fill:#efb33c;}.cls-21{fill:#d39d48;}.cls-22{fill:#9fa82f;}.cls-23{fill:#cd896d;}.cls-24{fill:#b56d54;}.cls-25{fill:#fed06e;}.cls-26{fill:#efbc62;}</style></defs><title>Asset 14</title><g id="Layer_2" data-name="Layer 2"><g id="Layer_1-2" data-name="Layer 1"><rect class="cls-1" x="10.63" y="103.13" width="201.59" height="27.98" rx="12" ry="12"/><path class="cls-2" d="M212.73,115.62v4a12,12,0,0,1-12,12H23.11a12,12,0,0,1-11.21-7.76,11.86,11.86,0,0,0,4.22.77H193.76a12,12,0,0,0,12-12v-4a11.89,11.89,0,0,0-.77-4.23A12,12,0,0,1,212.73,115.62Z"/><rect class="cls-3" x="10.63" y="103.13" width="201.59" height="27.98" rx="12" ry="12"/><rect class="cls-1" x="10.63" y="234.02" width="201.59" height="27.98" rx="12" ry="12"/><path class="cls-2" d="M212.73,246.51v4a12,12,0,0,1-12,12H23.11a12,12,0,0,1-11.21-7.76,11.86,11.86,0,0,0,4.22.77H193.76a12,12,0,0,0,12-12v-4a11.89,11.89,0,0,0-.77-4.23A12,12,0,0,1,212.73,246.51Z"/><path class="cls-4" d="M200.23,264H22.63a14,14,0,0,1-14-14v-4a14,14,0,0,1,14-14h177.6a14,14,0,0,1,14,14v4A14,14,0,0,1,200.23,264ZM22.63,236a10,10,0,0,0-10,10v4a10,10,0,0,0,10,10h177.6a10,10,0,0,0,10-10v-4a10,10,0,0,0-10-10Z"/><path class="cls-5" d="M169.31,252.51h14.47a1.5,1.5,0,0,0,0-3H169.31a1.5,1.5,0,0,0,0,3Z"/><path class="cls-5" d="M191.77,252.51h1.5a1.5,1.5,0,0,0,0-3h-1.5a1.5,1.5,0,0,0,0,3Z"/><path class="cls-6" d="M208,200.45c0,3-12.19,5.41-27.22,5.41s-27.22-2.42-27.22-5.41a1,1,0,0,1,.08-.4c1-2.8,12.77-5,27.14-5s26.12,2.22,27.14,5A1,1,0,0,1,208,200.45Z"/><path class="cls-4" d="M180.79,207.86c-4.88,0-29.22-.36-29.22-7.41a2.94,2.94,0,0,1,.23-1.16c2.42-6.08,26.26-6.25,29-6.25s26.58.18,29,6.26a2.94,2.94,0,0,1,.23,1.16C210,207.5,185.67,207.86,180.79,207.86ZM156,200.45c2.18,1.34,10.62,3.4,24.84,3.4s22.66-2.06,24.84-3.41C203.46,199.1,195,197,180.79,197S158.12,199.1,156,200.45Zm-.47.39Z"/><path class="cls-7" d="M206.3,177.21a2.54,2.54,0,0,1,2,1.76,12.84,12.84,0,0,1-1.39,12.66c-4.47,6-12.44,8.16-20.71,8.22a3,3,0,0,1-3-3.14l.21-4C183.66,188.16,186.61,176.46,206.3,177.21Z"/><path class="cls-8" d="M202.75,182a35,35,0,0,1-3.5,3.15c-1.19.95-2.38,1.85-3.59,2.71s-2.41,1.73-3.65,2.56-2.47,1.71-3.91,2.55a12,12,0,0,1,2.3-4.28,18.68,18.68,0,0,1,3.51-3.27,20.74,20.74,0,0,1,4.16-2.31A14.31,14.31,0,0,1,202.75,182Z"/><path class="cls-8" d="M185,199.59a3,3,0,0,0,1.21.24c8.27-.06,16.23-2.2,20.71-8.22A12.83,12.83,0,0,0,208.32,179a2.55,2.55,0,0,0-2-1.76H206C206.87,182.48,207.23,197.11,185,199.59Z"/><path class="cls-4" d="M186.2,201.34a4.49,4.49,0,0,1-4.49-4.72l.21-4c.15-3,2-17.8,24.43-17h0a4,4,0,0,1,3.37,2.7,14.45,14.45,0,0,1-1.58,14.11c-4.24,5.69-11.81,8.75-21.9,8.83Zm18.33-22.67c-17.5,0-19.45,10.76-19.62,14.15l-.21,4a1.47,1.47,0,0,0,.41,1.1,1.48,1.48,0,0,0,1.08.46h0c6.36-.05,14.9-1.42,19.52-7.62a11.32,11.32,0,0,0,1.2-11.2c-.2-.5-.54-.81-.7-.81C205.65,178.68,205.08,178.67,204.53,178.67Z"/><path class="cls-7" d="M153.53,179.58a2.72,2.72,0,0,0-1.64,2.35,13.71,13.71,0,0,0,4.77,12.74c6.21,5.05,15,5.17,23.61,3.06a3.2,3.2,0,0,0,2.3-4.05l-1.25-4C179.86,185,173.73,173.63,153.53,179.58Z"/><path class="cls-8" d="M158.47,183.61a15.86,15.86,0,0,1,5.12,0,23,23,0,0,1,4.9,1.32,20.59,20.59,0,0,1,4.49,2.44,13.17,13.17,0,0,1,3.54,3.75c-1.69-.53-3.17-1.12-4.68-1.68s-3-1.14-4.46-1.72-3-1.19-4.45-1.85A41.31,41.31,0,0,1,158.47,183.61Z"/><path class="cls-8" d="M181.46,197.16a3.16,3.16,0,0,1-1.19.57c-8.58,2.11-17.39,2-23.61-3.06a13.7,13.7,0,0,1-4.76-12.74,2.72,2.72,0,0,1,1.64-2.36l.3-.09C154.33,185.2,157.8,200.44,181.46,197.16Z"/><path class="cls-4" d="M170.47,200.52c-5.92,0-10.93-1.57-14.76-4.68-5.85-4.75-5.66-11.45-5.31-14.1a4.16,4.16,0,0,1,2.71-3.6c22.85-6.74,28.69,8,29.63,11.06l1.25,4a4.7,4.7,0,0,1-3.37,6A42.76,42.76,0,0,1,170.47,200.52ZM164,179.39A35.76,35.76,0,0,0,154,181h0c-.22.06-.5.53-.58,1.11a12.18,12.18,0,0,0,4.22,11.38c6.44,5.24,15.68,4.39,22.3,2.77a1.7,1.7,0,0,0,1.22-2.15l-1.25-4C179,187.21,175.5,179.39,164,179.39Z"/><rect class="cls-7" x="179.29" y="181.07" width="5.99" height="24.98" rx="2.99" ry="2.99"/><path class="cls-4" d="M182.29,207a4,4,0,0,1-4-4v-19a4,4,0,1,1,8,0v19A4,4,0,0,1,182.29,207Zm0-25a2,2,0,0,0-2,2v19a2,2,0,1,0,4,0v-19A2,2,0,0,0,182.29,182.07Z"/><path class="cls-9" d="M207.24,214l-3.85,16.68A12,12,0,0,1,191.72,240H169.86a12,12,0,0,1-11.67-9.29L154.34,214s-5-10-1-14h.31a1,1,0,0,0-.08.4c0,3,12.19,5.41,27.22,5.41S208,203.44,208,200.45a1,1,0,0,0-.08-.4h.31C212.23,204,207.24,214,207.24,214Z"/><path class="cls-10" d="M208,212.34c-30.17,6.18-46.95,3.1-54,.85-1.1-2.5-3.89-9.85-.61-13.14h.31a1,1,0,0,0-.08.4c0,3,12.19,5.41,27.22,5.41S208,203.44,208,200.45a1,1,0,0,0-.08-.4h.31C211.2,203,209.2,209.31,208,212.34Z"/><path class="cls-4" d="M191.72,242H169.86a13.92,13.92,0,0,1-13.62-10.84l-3.79-16.46c-.91-1.88-5.16-11.43-.52-16.07l.59-.59h4.28l-1.05,2.26c1.79,1.33,10.32,3.55,25,3.55s23.27-2.22,25.05-3.55l-1-2.25h4.25l.59.59c4.64,4.65.39,14.19-.52,16.07l-3.79,16.46A13.92,13.92,0,0,1,191.72,242Zm-37.89-38.28c-.31,2.94,1.22,7.25,2.3,9.41l.11.21,3.9,16.92a9.93,9.93,0,0,0,9.72,7.74h21.86a9.93,9.93,0,0,0,9.72-7.74l3.9-16.91.11-.21c1.07-2.16,2.59-6.47,2.29-9.4-6.15,3.88-23,4.11-26.95,4.11S160,207.62,153.84,203.74Z"/><path class="cls-4" d="M161.2,215.89c7.69,1.57,15.25,1.64,23.08,1.38,1.93-.06,1.93-3.06,0-3-7.53.25-14.86.24-22.28-1.28-1.88-.38-2.69,2.51-.8,2.89Z"/><path class="cls-4" d="M190.36,216.92a52.2,52.2,0,0,0,8-1.21c1.88-.44,1.08-3.33-.8-2.89a46.94,46.94,0,0,1-7.24,1.1c-1.91.14-1.93,3.14,0,3Z"/><path class="cls-5" d="M163.19,223.6l1.47,6.83c.41,1.89,3.3,1.09,2.89-.8l-1.47-6.83c-.41-1.89-3.3-1.09-2.89.8Z"/><path class="cls-5" d="M168.64,225.86a30.56,30.56,0,0,0,1,6.07,1.5,1.5,0,0,0,2.89-.8,26.49,26.49,0,0,1-.92-5.27c-.13-1.92-3.13-1.93-3,0Z"/><path class="cls-6" d="M66.29,71.55c0,3-12.19,5.41-27.22,5.41s-27.22-2.42-27.22-5.41a1,1,0,0,1,.08-.4c1-2.8,12.77-5,27.14-5s26.12,2.22,27.14,5A1,1,0,0,1,66.29,71.55Z"/><path class="cls-4" d="M39.08,79C34.2,79,9.86,78.6,9.86,71.55a2.94,2.94,0,0,1,.23-1.16c2.42-6.08,26.26-6.25,29-6.25s26.58.18,29,6.26a2.94,2.94,0,0,1,.23,1.16C68.29,78.6,44,79,39.08,79Zm-24.84-7.4C16.42,72.9,24.86,75,39.08,75s22.66-2.06,24.84-3.41c-2.17-1.35-10.62-3.42-24.84-3.42S16.41,70.21,14.24,71.56Zm-.47.39Z"/><path class="cls-7" d="M69.67,47.78a2.57,2.57,0,0,0-2.45-1.19,32.49,32.49,0,0,0-11.31,4.59,17.63,17.63,0,0,0-1.65-6.89A13,13,0,0,0,43.6,37a2.57,2.57,0,0,0-2.53,1c-10,17.3-.94,25.49,3,27.88L47.55,68a3,3,0,0,0,1.43.41l.69,3.3A3,3,0,0,0,53.44,74c8.09-2.22,15.33-6.38,18.15-13.44A13,13,0,0,0,69.67,47.78Z"/><path class="cls-8" d="M71.59,59.54C68.78,66.6,61.53,70.77,53.44,73a3,3,0,0,1-3.76-2.3L49,67.38A3,3,0,0,1,47.55,67l-3.44-2.06a15.64,15.64,0,0,1-7.46-15.57,15.55,15.55,0,0,0,7.46,11.57L47.55,63a3,3,0,0,0,1.43.41l.7,3.31A3,3,0,0,0,53.44,69c8.09-2.22,15.34-6.38,18.15-13.44a12.6,12.6,0,0,0,.75-2.68A12.26,12.26,0,0,1,71.59,59.54Z"/><path class="cls-4" d="M52.15,75.08a4.53,4.53,0,0,1-4.44-3.59l-.49-2.32a4.3,4.3,0,0,1-.94-.42l-3.44-2.06c-2.59-1.55-14.92-10.28-3.57-29.92a4,4,0,0,1,4-1.73,14.6,14.6,0,0,1,11.85,8.1,18.62,18.62,0,0,1,1.55,5,37.28,37.28,0,0,1,9.73-3.53,4,4,0,0,1,4,1.76A14.62,14.62,0,0,1,72.49,60.6c-2.67,6.67-9.29,11.63-19.15,14.33A4.52,4.52,0,0,1,52.15,75.08ZM42.71,38a1.1,1.1,0,0,0-.84.26c-9.7,16.77-.53,24,2.51,25.84l3.44,2.06a1.46,1.46,0,0,0,.72.2l1.17,0,.93,4.45a1.51,1.51,0,0,0,.7,1,1.53,1.53,0,0,0,1.21.17c6.22-1.71,14.24-5.27,17.15-12.55A11.48,11.48,0,0,0,68,48.18h0c-.34-.46-.76-.66-.91-.62a31.28,31.28,0,0,0-10.8,4.36L54,53.45l-.11-2.71a16.17,16.17,0,0,0-1.51-6.31A11.46,11.46,0,0,0,42.94,38Z"/><path class="cls-7" d="M5.71,37.55a2.58,2.58,0,0,1,1.69-2.13,13,13,0,0,1,12.86.9C26.53,40.61,29,48.6,29.42,57a3,3,0,0,1-3.06,3.18l-4,0C17.71,60.06,5.76,57.54,5.71,37.55Z"/><path class="cls-8" d="M30.27,59a3,3,0,0,1-2.91,2.13l-4-.05c-4.64-.05-16.59-2.58-16.64-22.56a2.58,2.58,0,0,1,1.7-2.13l.33-.14a1.24,1.24,0,0,0,0,.27c0,20,12,22.51,16.64,22.56l4,.05A3.09,3.09,0,0,0,30.27,59Z"/><path class="cls-4" d="M26.39,62.16h-.05l-4,0c-3,0-18.06-1.37-18.12-24.06h0a4,4,0,0,1,2.58-3.5,14.58,14.58,0,0,1,14.32,1c5.92,4.06,9.31,11.6,9.8,21.82a4.53,4.53,0,0,1-4.52,4.76Zm-13.13-26A13,13,0,0,0,8,37.29c-.52.23-.81.59-.81.76h0c0,19.38,11.61,21,15.15,21.07l4,0h0a1.51,1.51,0,0,0,1.09-.46,1.53,1.53,0,0,0,.43-1.15c-.31-6.45-2-15.06-8.5-19.49A10.7,10.7,0,0,0,13.26,36.12Z"/><rect class="cls-7" x="17.99" y="24.73" width="5.24" height="53.98" rx="2.62" ry="2.62"/><path class="cls-4" d="M20.61,79.71A3.62,3.62,0,0,1,17,76.09V27.35a3.62,3.62,0,1,1,7.24,0V76.09A3.62,3.62,0,0,1,20.61,79.71Zm0-54A1.62,1.62,0,0,0,19,27.35V76.09a1.62,1.62,0,1,0,3.24,0V27.35A1.62,1.62,0,0,0,20.61,25.73Z"/><path class="cls-11" d="M27,4.72,25.12,5.81,24,3.87a4.73,4.73,0,0,0-8.19,0l-1,1.65-1.38-.8a4.73,4.73,0,0,0-7.09,4.1v15A13.41,13.41,0,0,0,20.24,37.25,13.41,13.41,0,0,0,34.09,23.84v-15A4.73,4.73,0,0,0,27,4.72Z"/><path class="cls-12" d="M34.1,17.84v6A13.42,13.42,0,0,1,20.23,37.25,13.42,13.42,0,0,1,6.38,23.83v-6A13.42,13.42,0,0,0,20.23,31.26,13.42,13.42,0,0,0,34.1,17.84Z"/><path class="cls-4" d="M20.68,38.76h-.44A15.14,15.14,0,0,1,9.39,34.52a14.72,14.72,0,0,1-4.5-10.69v-15a6.23,6.23,0,0,1,9.35-5.4l.08,0,.2-.35A6.17,6.17,0,0,1,19.9,0h0a6.16,6.16,0,0,1,5.4,3.12l.37.64.58-.33a6.23,6.23,0,0,1,9.35,5.4v15a14.72,14.72,0,0,1-4.5,10.69A15.07,15.07,0,0,1,20.68,38.76Zm-.44-3h.05A12.08,12.08,0,0,0,29,32.37a11.75,11.75,0,0,0,3.59-8.53v-15A3.23,3.23,0,0,0,27.75,6L24.57,7.86,22.7,4.62A3.19,3.19,0,0,0,19.91,3h0a3.2,3.2,0,0,0-2.8,1.62l-1.7,3L12.73,6a3.23,3.23,0,0,0-4.84,2.8v15a11.75,11.75,0,0,0,3.59,8.53,12.15,12.15,0,0,0,8.72,3.38Z"/><path class="cls-4" d="M15.12,23.19a.5.5,0,0,1-.5-.5v-11a.5.5,0,1,1,1,0v11A.5.5,0,0,1,15.12,23.19Z"/><path class="cls-4" d="M24.61,19.82a.5.5,0,0,1-.5-.5V11.08a.5.5,0,1,1,1,0v8.24A.5.5,0,0,1,24.61,19.82Z"/><path class="cls-4" d="M24.61,27a.5.5,0,0,1-.5-.5V22.79a.5.5,0,1,1,1,0v3.68A.5.5,0,0,1,24.61,27Z"/><rect class="cls-7" x="57.91" y="33.72" width="5.24" height="53.98" rx="2.62" ry="2.62"/><path class="cls-4" d="M60.53,88.7a3.62,3.62,0,0,1-3.62-3.62V36.34a3.62,3.62,0,1,1,7.24,0V85.08A3.62,3.62,0,0,1,60.53,88.7Zm0-54a1.62,1.62,0,0,0-1.62,1.62V85.08a1.62,1.62,0,0,0,3.24,0V36.34A1.62,1.62,0,0,0,60.53,34.72Z"/><path class="cls-13" d="M53.4,20.71l1.88,1.09,1.12-1.94a4.73,4.73,0,0,1,8.19,0l1,1.65,1.38-.8A4.73,4.73,0,0,1,74,24.81v15A13.41,13.41,0,0,1,60.16,53.23,13.41,13.41,0,0,1,46.3,39.82v-15A4.73,4.73,0,0,1,53.4,20.71Z"/><path class="cls-14" d="M46.3,33.83v6A13.42,13.42,0,0,0,60.16,53.24,13.42,13.42,0,0,0,74,39.82v-6A13.42,13.42,0,0,1,60.16,47.24,13.42,13.42,0,0,1,46.3,33.83Z"/><path class="cls-4" d="M60.6,54.74h-.44a15.15,15.15,0,0,1-10.85-4.23,14.72,14.72,0,0,1-4.5-10.69v-15a6.23,6.23,0,0,1,9.35-5.4l.58.33.37-.64A6.16,6.16,0,0,1,60.49,16h0a6.17,6.17,0,0,1,5.4,3.12l.2.35.08,0a6.23,6.23,0,0,1,9.34,5.4v15A14.72,14.72,0,0,1,71,50.51,15.07,15.07,0,0,1,60.6,54.74Zm-.44-3h.05a12.08,12.08,0,0,0,8.72-3.38,11.75,11.75,0,0,0,3.59-8.53v-15A3.23,3.23,0,0,0,67.67,22L65,23.56l-1.7-3a3.23,3.23,0,0,0-5.59,0l-1.87,3.24L52.65,22a3.23,3.23,0,0,0-4.84,2.8v15a11.75,11.75,0,0,0,3.59,8.53,12.12,12.12,0,0,0,8.72,3.38Z"/><path class="cls-4" d="M65.27,39.18a.5.5,0,0,1-.5-.5v-11a.5.5,0,1,1,1,0v11A.5.5,0,0,1,65.27,39.18Z"/><path class="cls-4" d="M55.79,35.81a.5.5,0,0,1-.5-.5V27.07a.5.5,0,1,1,1,0v8.24A.5.5,0,0,1,55.79,35.81Z"/><path class="cls-4" d="M55.79,43a.5.5,0,0,1-.5-.5V38.78a.5.5,0,1,1,1,0v3.68A.5.5,0,0,1,55.79,43Z"/><path class="cls-7" d="M12.66,50.26a2.57,2.57,0,0,0-2.33,1.41,13,13,0,0,0-.76,12.88c3.45,6.77,11,10.26,19.29,11.74a3,3,0,0,0,3.55-2.63l.47-4C33.42,65.05,32.45,52.87,12.66,50.26Z"/><path class="cls-8" d="M15.39,55.65a14.62,14.62,0,0,1,4.48,1.93,21.17,21.17,0,0,1,3.76,3,19.06,19.06,0,0,1,2.95,3.86,12.2,12.2,0,0,1,1.58,4.65C26.87,68,25.8,67,24.7,65.89s-2.15-2.11-3.21-3.19-2.1-2.17-3.13-3.32A36.19,36.19,0,0,1,15.39,55.65Z"/><path class="cls-8" d="M30.12,76.24a3,3,0,0,1-1.25,0c-8.25-1.47-15.84-5-19.29-11.74a13,13,0,0,1,.76-12.88,2.58,2.58,0,0,1,2.33-1.41l.29,0C11.19,55.43,8.35,70,30.12,76.24Z"/><path class="cls-4" d="M29.4,77.83a4.5,4.5,0,0,1-.79-.07C18.54,76,11.5,71.63,8.24,65.22a14.62,14.62,0,0,1,.82-14.34,4,4,0,0,1,3.8-2.11c22.47,3,21.86,18.08,21.51,21.08l-.47,4a4.53,4.53,0,0,1-4.51,4ZM12.45,51.74a1.36,1.36,0,0,0-.83.7,11.48,11.48,0,0,0-.71,11.42c3.56,7,11.87,9.81,18.22,10.94a1.53,1.53,0,0,0,1.79-1.33l.47-4c.41-3.52.27-15.22-18.92-17.75h0Z"/><rect class="cls-7" x="33.71" y="63.57" width="5.87" height="35.16" rx="2.62" ry="2.62"/><path class="cls-4" d="M37,99.72h-.62a3.63,3.63,0,0,1-3.62-3.62V66.19a3.63,3.63,0,0,1,3.62-3.63H37a3.63,3.63,0,0,1,3.62,3.63V96.1A3.63,3.63,0,0,1,37,99.72Zm-.62-35.16a1.63,1.63,0,0,0-1.62,1.63V96.1a1.63,1.63,0,0,0,1.62,1.62H37a1.63,1.63,0,0,0,1.62-1.62V66.19A1.63,1.63,0,0,0,37,64.57Z"/><path class="cls-15" d="M43.47,34.2l-1.88,1.09-1.12-1.94a4.73,4.73,0,0,0-8.19,0l-1,1.65-1.38-.8a4.73,4.73,0,0,0-7.09,4.1v15A13.41,13.41,0,0,0,36.71,66.72,13.41,13.41,0,0,0,50.56,53.31v-15A4.73,4.73,0,0,0,43.47,34.2Z"/><path class="cls-16" d="M50.56,47.31v6A13.42,13.42,0,0,1,36.7,66.73,13.42,13.42,0,0,1,22.85,53.31v-6A13.42,13.42,0,0,0,36.7,60.73,13.42,13.42,0,0,0,50.56,47.31Z"/><path class="cls-4" d="M37.15,68.23h-.44A15.17,15.17,0,0,1,25.85,64a14.72,14.72,0,0,1-4.5-10.69v-15a6.23,6.23,0,0,1,9.34-5.4l.08,0,.2-.35a6.23,6.23,0,0,1,10.79,0l.37.64.58-.33a6.23,6.23,0,0,1,9.35,5.4v15A14.72,14.72,0,0,1,47.56,64,15.07,15.07,0,0,1,37.15,68.23Zm-.44-3h.05a12.08,12.08,0,0,0,8.72-3.38,11.75,11.75,0,0,0,3.59-8.53v-15a3.23,3.23,0,0,0-4.84-2.8h0L41,37.34l-1.87-3.24a3.23,3.23,0,0,0-5.59,0l-1.7,3L29.2,35.5a3.23,3.23,0,0,0-4.84,2.8v15a11.75,11.75,0,0,0,3.59,8.53,12,12,0,0,0,8.72,3.38Z"/><path class="cls-4" d="M31.59,52.67a.5.5,0,0,1-.5-.5v-11a.5.5,0,1,1,1,0v11A.5.5,0,0,1,31.59,52.67Z"/><path class="cls-4" d="M41.07,49.3a.5.5,0,0,1-.5-.5V40.55a.5.5,0,1,1,1,0V48.8A.5.5,0,0,1,41.07,49.3Z"/><path class="cls-4" d="M41.07,56.44a.5.5,0,0,1-.5-.5V52.27a.5.5,0,1,1,1,0v3.68A.5.5,0,0,1,41.07,56.44Z"/><path class="cls-7" d="M51.86,62.18a2.09,2.09,0,0,1,2,1A10.56,10.56,0,0,1,55.4,73.51c-2.29,5.73-8.18,9.12-14.74,10.92a2.46,2.46,0,0,1-3.06-1.86l-.67-3.19C36.15,75.68,36,65.75,51.86,62.18Z"/><path class="cls-4" d="M40,86a4,4,0,0,1-3.88-3.14l-.67-3.19c-.51-2.45-2.15-14.85,16.07-19h0A3.5,3.5,0,0,1,55,62.25a12.16,12.16,0,0,1,1.75,11.82c-2.2,5.5-7.64,9.58-15.74,11.8A3.92,3.92,0,0,1,40,86ZM52.16,63.65C37.1,67.06,37.82,76.31,38.39,79.07l.67,3.19a1,1,0,0,0,.44.62,1,1,0,0,0,.76.11c5-1.37,11.42-4.22,13.75-10A9.06,9.06,0,0,0,52.64,64,1.1,1.1,0,0,0,52.16,63.65Z"/><path class="cls-8" d="M50.55,67.16c-.71.78-1.33,1.48-1.93,2.2s-1.16,1.42-1.71,2.15-1.08,1.47-1.6,2.25-1.06,1.58-1.75,2.4a7.51,7.51,0,0,1,.33-3.08,9.29,9.29,0,0,1,1.42-2.77,9,9,0,0,1,2.28-2.13A5.93,5.93,0,0,1,50.55,67.16Z"/><path class="cls-9" d="M65.52,85.14l-3.85,16.68A12,12,0,0,1,50,111.12H28.14a12,12,0,0,1-11.67-9.29L12.63,85.14s-5-10-1-14h.31a1,1,0,0,0-.08.4c0,3,12.19,5.41,27.22,5.41s27.22-2.42,27.22-5.41a1,1,0,0,0-.08-.4h.31C70.51,75.15,65.52,85.14,65.52,85.14Z"/><path class="cls-10" d="M66.27,83.44c-30.17,6.18-46.95,3.1-54,.85-1.1-2.5-3.89-9.85-.61-13.14h.31a1,1,0,0,0-.08.4c0,3,12.19,5.41,27.22,5.41s27.22-2.42,27.22-5.41a1,1,0,0,0-.08-.4h.31C69.49,74.12,67.49,80.42,66.27,83.44Z"/><path class="cls-4" d="M50,113.12H28.14a13.92,13.92,0,0,1-13.62-10.84L10.73,85.82c-.91-1.88-5.16-11.43-.52-16.07l.59-.59h4.28L14,71.41c1.79,1.33,10.32,3.55,25,3.55s23.27-2.22,25.05-3.55l-1-2.25h4.25l.59.59c4.64,4.65.39,14.19-.52,16.07l-3.79,16.46A13.92,13.92,0,0,1,50,113.12ZM12.12,74.84c-.31,2.94,1.22,7.25,2.3,9.41l.11.21,3.9,16.92a9.93,9.93,0,0,0,9.72,7.74H50a9.93,9.93,0,0,0,9.72-7.74l3.9-16.91.11-.21c1.07-2.16,2.59-6.47,2.29-9.4C59.87,78.72,43,79,39.08,79S18.27,78.72,12.12,74.84Z"/><path class="cls-4" d="M19.48,87c7.69,1.57,15.25,1.64,23.08,1.38,1.93-.06,1.93-3.06,0-3-7.53.25-14.86.24-22.28-1.28-1.88-.38-2.69,2.51-.8,2.89Z"/><path class="cls-4" d="M48.64,88a52.2,52.2,0,0,0,8-1.21c1.88-.44,1.08-3.33-.8-2.89A46.94,46.94,0,0,1,48.64,85c-1.91.14-1.93,3.14,0,3Z"/><path class="cls-5" d="M21.47,94.71l1.47,6.83c.41,1.89,3.3,1.09,2.89-.8l-1.47-6.83c-.41-1.89-3.3-1.09-2.89.8Z"/><path class="cls-5" d="M26.93,97A30.56,30.56,0,0,0,28,103a1.5,1.5,0,0,0,2.89-.8A26.49,26.49,0,0,1,29.93,97c-.13-1.92-3.13-1.93-3,0Z"/><path class="cls-6" d="M208,71.55c0,3-12.19,5.41-27.22,5.41s-27.22-2.42-27.22-5.41a1,1,0,0,1,.08-.4c1-2.8,12.77-5,27.14-5s26.12,2.22,27.14,5A1,1,0,0,1,208,71.55Z"/><path class="cls-3" d="M208,71.55c0,3-12.19,5.41-27.22,5.41s-27.22-2.42-27.22-5.41a1,1,0,0,1,.08-.4c1-2.8,12.77-5,27.14-5s26.12,2.22,27.14,5A1,1,0,0,1,208,71.55Z"/><path class="cls-7" d="M220.8,40.74a3.8,3.8,0,0,1,2.78,2.89c1.11,3.76,2.38,11.75-3.82,18.64-7.49,8.33-19.64,10.41-32,9.36a4.48,4.48,0,0,1-4.05-5.1l.85-5.86C185.59,53.89,191.61,36.9,220.8,40.74Z"/><path class="cls-8" d="M214.85,47.39c-2,1.34-3.93,2.51-5.89,3.68l-5.85,3.43c-1.94,1.14-3.85,2.31-5.77,3.48s-3.78,2.46-5.81,3.71a21.49,21.49,0,0,1,4.37-5.58,33.3,33.3,0,0,1,5.69-4.2,38,38,0,0,1,6.38-3A26.87,26.87,0,0,1,214.85,47.39Z"/><path class="cls-8" d="M186,71.1a4.42,4.42,0,0,0,1.77.53c12.31,1.05,24.46-1,32-9.36,6.2-6.89,4.93-14.87,3.82-18.63a3.81,3.81,0,0,0-2.78-2.9l-.44-.05C220.92,48.67,219.42,70.49,186,71.1Z"/><path class="cls-4" d="M193.5,73.38q-2.83,0-5.84-.26a6,6,0,0,1-4.18-2.25,5.91,5.91,0,0,1-1.23-4.56l.85-5.86C183.73,56.17,188.5,35,221,39.25h0c2.19.29,3.51,2.23,4,4,1.28,4.34,2.45,12.73-4.15,20.07C214.87,69.93,205.48,73.38,193.5,73.38Zm19.22-31.7c-22,0-25.94,14.4-26.65,19.21l-.85,5.86a3,3,0,0,0,2.7,3.39c9.63.82,22.78-.05,30.71-8.87,5.62-6.25,4.61-13.47,3.5-17.21-.24-.82-.83-1.74-1.54-1.83A60.44,60.44,0,0,0,212.72,41.68Z"/><path class="cls-7" d="M206.11,26a3.8,3.8,0,0,1,3.45,2c2.07,3.33,5.41,10.69,1.27,19-5,10-16.16,15.26-28.32,17.53a4.47,4.47,0,0,1-5.26-3.83l-.73-5.87C175.67,48,177,30,206.11,26Z"/><path class="cls-8" d="M202.15,34c-1.54,1.82-3.12,3.47-4.7,5.12l-4.73,4.86c-1.57,1.61-3.09,3.25-4.64,4.89s-3,3.37-4.61,5.13a21.5,21.5,0,0,1,2.73-6.55,33.32,33.32,0,0,1,4.37-5.56,38.07,38.07,0,0,1,5.36-4.56A26.89,26.89,0,0,1,202.15,34Z"/><path class="cls-8" d="M180.66,64.49a4.42,4.42,0,0,0,1.85,0c12.15-2.26,23.3-7.5,28.31-17.53,4.15-8.29.8-15.65-1.27-19A3.8,3.8,0,0,0,206.1,26l-.43.06C208.34,33.58,212.7,55,180.66,64.49Z"/><path class="cls-4" d="M181.69,66.11A6,6,0,0,1,178.16,65a5.91,5.91,0,0,1-2.4-4.07L175,55c-.54-4.3-1.57-26,30.87-30.53,2.2-.31,4,1.21,4.93,2.74,2.39,3.85,5.75,11.62,1.34,20.45-4.63,9.27-14.79,15.61-29.38,18.34A5.94,5.94,0,0,1,181.69,66.11Zm24.75-38.67h-.13c-28.91,4-29,21.83-28.31,27.19l.73,5.87a3,3,0,0,0,3.5,2.55c9.51-1.78,22-6.12,27.25-16.73,3.76-7.53.86-14.21-1.2-17.52A2.63,2.63,0,0,0,206.44,27.45Z"/><path class="cls-7" d="M148.72,35.85c-1.5-.15-2.86,1-3.6,2.33-2.08,3.64-5.36,11.63-.6,20.32,5.74,10.51,17.86,15.66,30.93,17.6a4.78,4.78,0,0,0,5.47-4.3l.55-6.3C182.09,58.2,180,39,148.72,35.85Z"/><path class="cls-8" d="M153.27,44.23A29.8,29.8,0,0,1,160,47.59a42,42,0,0,1,5.88,4.67A36.55,36.55,0,0,1,170.77,58,23.64,23.64,0,0,1,174,64.84c-1.77-1.83-3.37-3.63-5.07-5.34s-3.39-3.4-5.14-5.07l-5.26-5C156.78,47.75,155,46.07,153.27,44.23Z"/><path class="cls-8" d="M177.42,76a4.72,4.72,0,0,1-2,.12c-13.06-1.93-25.18-7.08-30.93-17.6-4.76-8.69-1.48-16.68.6-20.32.74-1.31,2.11-2.48,3.61-2.33l.47.05C146.64,44.07,142.84,67.12,177.42,76Z"/><path class="cls-4" d="M176.15,77.65a6.15,6.15,0,0,1-.92-.07c-15.65-2.33-26.73-8.67-32-18.36-5-9.21-1.78-17.6.62-21.79.94-1.64,2.76-3.3,5.06-3.07C183.61,37.91,183.36,61,183,65.63l-.55,6.3a6.2,6.2,0,0,1-2.36,4.37A6.31,6.31,0,0,1,176.15,77.65ZM148.46,37.34a2.85,2.85,0,0,0-2,1.58c-2.08,3.64-4.92,10.93-.59,18.86,6.1,11.16,19.59,15.31,29.83,16.83a3.28,3.28,0,0,0,3.75-3l.55-6.3c.5-5.77-.27-24.84-31.4-28h-.11Z"/><path class="cls-7" d="M164.92,23.61c-1.4-.54-3,.23-4.09,1.3-3,3-8.21,9.82-5.91,19.45,2.79,11.65,13.14,19.8,25.24,25.11a4.78,4.78,0,0,0,6.4-2.72l2.18-5.94C191.28,53.94,194.28,34.91,164.92,23.61Z"/><path class="cls-8" d="M167.12,32.89a29.81,29.81,0,0,1,5.61,5A42,42,0,0,1,177.18,44a36.58,36.58,0,0,1,3.22,6.83,23.65,23.65,0,0,1,1.33,7.44c-1.23-2.23-2.3-4.38-3.49-6.49s-2.38-4.18-3.63-6.24l-3.77-6.2C169.58,37.21,168.31,35.12,167.12,32.89Z"/><path class="cls-8" d="M182.11,69.87a4.73,4.73,0,0,1-1.93-.4c-12.1-5.3-22.44-13.45-25.24-25.1-2.31-9.64,2.95-16.49,5.91-19.45,1.06-1.07,2.68-1.84,4.09-1.3l.44.17C160.77,31,151.06,52.24,182.11,69.87Z"/><path class="cls-4" d="M182.1,71.37a6.3,6.3,0,0,1-2.52-.53c-14.5-6.36-23.52-15.39-26.09-26.13-2.45-10.21,2.9-17.46,6.3-20.86,1.34-1.34,3.53-2.47,5.69-1.64,32.58,12.54,26.29,34.79,24.7,39.12L188,67.27a6.2,6.2,0,0,1-3.42,3.6A6.29,6.29,0,0,1,182.1,71.37ZM164,24.94a3.27,3.27,0,0,0-2,1c-3,3-7.62,9.25-5.51,18,3,12.37,14.89,19.92,24.38,24.08a3.28,3.28,0,0,0,4.39-1.86l2.18-5.94c2-5.44,6.25-24-23-35.29h0A1.22,1.22,0,0,0,164,24.94Z"/><path class="cls-9" d="M207.24,85.14l-3.85,16.68a12,12,0,0,1-11.67,9.29H169.86a12,12,0,0,1-11.67-9.29l-3.85-16.68s-5-10-1-14h.31a1,1,0,0,0-.08.4c0,3,12.19,5.41,27.22,5.41S208,74.54,208,71.55a1,1,0,0,0-.08-.4h.31C212.23,75.15,207.24,85.14,207.24,85.14Z"/><path class="cls-10" d="M208,83.44c-30.17,6.18-46.95,3.1-54,.85-1.1-2.5-3.89-9.85-.61-13.14h.31a1,1,0,0,0-.08.4c0,3,12.19,5.41,27.22,5.41S208,74.54,208,71.55a1,1,0,0,0-.08-.4h.31C211.2,74.12,209.2,80.42,208,83.44Z"/><path class="cls-4" d="M191.72,113.12H169.86a13.92,13.92,0,0,1-13.62-10.84l-3.79-16.46c-.91-1.88-5.16-11.43-.52-16.07l.59-.59h4.28l-1.05,2.26c1.79,1.33,10.32,3.55,25,3.55s23.27-2.22,25.05-3.55l-1-2.25h4.25l.59.59c4.64,4.65.39,14.19-.52,16.07l-3.79,16.46A13.92,13.92,0,0,1,191.72,113.12ZM153.84,74.84c-.31,2.94,1.22,7.25,2.3,9.41l.11.21,3.9,16.92a9.93,9.93,0,0,0,9.72,7.74h21.86a9.93,9.93,0,0,0,9.72-7.74l3.9-16.91.11-.21c1.07-2.16,2.59-6.47,2.29-9.4-6.15,3.88-23,4.11-26.95,4.11S160,78.72,153.84,74.84Z"/><path class="cls-4" d="M161.2,87c7.69,1.57,15.25,1.64,23.08,1.38,1.93-.06,1.93-3.06,0-3-7.53.25-14.86.24-22.28-1.28-1.88-.38-2.69,2.51-.8,2.89Z"/><path class="cls-4" d="M190.36,88a52.2,52.2,0,0,0,8-1.21c1.88-.44,1.08-3.33-.8-2.89a46.94,46.94,0,0,1-7.24,1.1c-1.91.14-1.93,3.14,0,3Z"/><path class="cls-5" d="M163.19,94.71l1.47,6.83c.41,1.89,3.3,1.09,2.89-.8l-1.47-6.83c-.41-1.89-3.3-1.09-2.89.8Z"/><path class="cls-5" d="M168.64,97a30.56,30.56,0,0,0,1,6.07,1.5,1.5,0,0,0,2.89-.8,26.49,26.49,0,0,1-.92-5.27c-.13-1.92-3.13-1.93-3,0Z"/><path class="cls-17" d="M204,57a11.68,11.68,0,0,0-11.59-11.69,11.66,11.66,0,0,0-22.09,0h-.16a11.68,11.68,0,0,0-8,20.24A11.66,11.66,0,0,0,181.55,77a11.68,11.68,0,0,0,19.19-11.91A11.66,11.66,0,0,0,204,57Z"/><path class="cls-18" d="M162.14,57a11.64,11.64,0,0,0,3.72,8.54,12,12,0,0,0-.4,3,11.69,11.69,0,0,0,9.88,11.56,12.43,12.43,0,0,1-1.81.14,11.68,11.68,0,0,1-11.68-11.69,12,12,0,0,1,.4-3,11.68,11.68,0,0,1,8-20.24h.16a11.68,11.68,0,0,1,11-7.92,12.32,12.32,0,0,1,1.8.14A11.69,11.69,0,0,0,174,45.29c-.05,0-2.77,1.58-2.82,1.59C165.39,48.33,162.14,50.52,162.14,57Z"/><path class="cls-4" d="M189.57,81.74a13.09,13.09,0,0,1-8-2.74,13.16,13.16,0,0,1-20.94-13,13.18,13.18,0,0,1,8.72-22.18,13.16,13.16,0,0,1,24.17,0,13.19,13.19,0,0,1,8.9,21.69,13.2,13.2,0,0,1-12.83,16.22Zm-8-6.78,1,1A10.18,10.18,0,0,0,199.3,65.56l-.26-.85.62-.64a10.19,10.19,0,0,0-7.22-17.29h-1.07l-.34-1a10.16,10.16,0,0,0-19.25,0l-.35,1-1.26,0a10.18,10.18,0,0,0-6.89,17.64l.66.61-.23.87a10.16,10.16,0,0,0,16.81,10Z"/><path class="cls-4" d="M184.88,53a.5.5,0,0,1-.33-.87l7.94-7a.5.5,0,0,1,.66.75l-7.94,7A.5.5,0,0,1,184.88,53Z"/><path class="cls-4" d="M176.22,53.89a.5.5,0,0,1-.4-.21L170,45.73a.5.5,0,1,1,.81-.59l5.77,7.95a.5.5,0,0,1-.4.79Z"/><path class="cls-4" d="M162.5,66.17a.5.5,0,0,1-.16-1l10.83-3.61a.5.5,0,0,1,.32.95l-10.83,3.61Z"/><path class="cls-4" d="M181.27,77.74a.5.5,0,0,1-.5-.5v-9.4a.5.5,0,1,1,1,0v9.4A.5.5,0,0,1,181.27,77.74Z"/><path class="cls-4" d="M200.76,65.45h-.09l-11.55-2.17a.5.5,0,0,1-.4-.58.51.51,0,0,1,.58-.4l11.55,2.17a.5.5,0,0,1-.09,1Z"/><ellipse class="cls-19" cx="181.55" cy="59.74" rx="7.86" ry="7.87"/><path class="cls-20" d="M183.35,67.53a6.72,6.72,0,0,1-1.08.08,7.87,7.87,0,0,1,0-15.75,6.7,6.7,0,0,1,1.08.08,7.87,7.87,0,0,0,0,15.59Z"/><path class="cls-4" d="M181.55,68.11a8.37,8.37,0,1,1,8.36-8.37A8.38,8.38,0,0,1,181.55,68.11Zm0-15.75a7.37,7.37,0,1,0,7.36,7.37A7.38,7.38,0,0,0,181.55,52.36Z"/><path class="cls-5" d="M184.1,59.31c-.06-.13.09.27.09.27s.08.39.07.3,0,.29,0,.31-.05.47,0,.27a1.54,1.54,0,0,0,1,1.85,1.52,1.52,0,0,0,1.85-1,5.57,5.57,0,0,0-.46-3.46,1.51,1.51,0,0,0-2.05-.54,1.53,1.53,0,0,0-.54,2.05Z"/><path class="cls-21" d="M137.15,200.45c0,3-12.19,5.41-27.22,5.41s-27.22-2.42-27.22-5.41a1,1,0,0,1,.08-.4c1-2.8,12.77-5,27.14-5s26.12,2.22,27.14,5A1,1,0,0,1,137.15,200.45Z"/><path class="cls-4" d="M109.93,207.86c-4.88,0-29.22-.36-29.22-7.41a2.94,2.94,0,0,1,.23-1.16c2.42-6.08,26.26-6.25,29-6.25s26.58.18,29,6.26a2.94,2.94,0,0,1,.23,1.16C139.15,207.5,114.81,207.86,109.93,207.86Zm-24.84-7.4c2.18,1.34,10.62,3.4,24.84,3.4s22.66-2.06,24.84-3.41c-2.17-1.35-10.62-3.42-24.84-3.42S87.27,199.1,85.1,200.45Zm-.47.39Z"/><path class="cls-7" d="M92.22,175.21h0A5.07,5.07,0,0,0,96,178h0a5.07,5.07,0,0,1,2.81,8.65h0a5.07,5.07,0,0,0-1.46,4.49h0A5.07,5.07,0,0,1,90,196.46h0a5.06,5.06,0,0,0-4.71,0h0A5.07,5.07,0,0,1,78,191.12h0a5.07,5.07,0,0,0-1.46-4.49h0A5.07,5.07,0,0,1,79.33,178h0a5.07,5.07,0,0,0,3.81-2.77h0A5.06,5.06,0,0,1,92.22,175.21Z"/><path class="cls-7" d="M107.19,163.22h0A5.07,5.07,0,0,0,111,166h0a5.07,5.07,0,0,1,2.81,8.65h0a5.07,5.07,0,0,0-1.46,4.49h0a5.07,5.07,0,0,1-7.35,5.35h0a5.06,5.06,0,0,0-4.71,0h0a5.07,5.07,0,0,1-7.35-5.35h0a5.07,5.07,0,0,0-1.46-4.49h0A5.07,5.07,0,0,1,94.3,166h0a5.07,5.07,0,0,0,3.81-2.77h0A5.06,5.06,0,0,1,107.19,163.22Z"/><path class="cls-7" d="M120.17,163.22h0A5.07,5.07,0,0,0,124,166h0a5.07,5.07,0,0,1,2.81,8.65h0a5.07,5.07,0,0,0-1.46,4.49h0a5.07,5.07,0,0,1-7.35,5.35h0a5.06,5.06,0,0,0-4.71,0h0a5.07,5.07,0,0,1-7.35-5.35h0a5.07,5.07,0,0,0-1.46-4.49h0a5.07,5.07,0,0,1,2.81-8.65h0a5.07,5.07,0,0,0,3.81-2.77h0A5.06,5.06,0,0,1,120.17,163.22Z"/><path class="cls-7" d="M131.15,162.22h0A5.07,5.07,0,0,0,135,165h0a5.07,5.07,0,0,1,2.81,8.65h0a5.07,5.07,0,0,0-1.46,4.49h0a5.07,5.07,0,0,1-7.35,5.35h0a5.06,5.06,0,0,0-4.71,0h0a5.07,5.07,0,0,1-7.35-5.35h0a5.07,5.07,0,0,0-1.46-4.49h0a5.07,5.07,0,0,1,2.81-8.65h0a5.07,5.07,0,0,0,3.81-2.77h0A5.06,5.06,0,0,1,131.15,162.22Z"/><path class="cls-7" d="M132.64,175.71h0a5.07,5.07,0,0,0,3.81,2.77h0a5.07,5.07,0,0,1,2.81,8.65h0a5.07,5.07,0,0,0-1.46,4.49h0a5.07,5.07,0,0,1-7.35,5.35h0a5.06,5.06,0,0,0-4.71,0h0a5.07,5.07,0,0,1-7.35-5.35h0a5.07,5.07,0,0,0-1.46-4.49h0a5.07,5.07,0,0,1,2.81-8.65h0a5.07,5.07,0,0,0,3.81-2.77h0A5.06,5.06,0,0,1,132.64,175.71Z"/><path class="cls-7" d="M139.63,189.69h0a5.07,5.07,0,0,0,3.81,2.77h0a5.07,5.07,0,0,1,2.81,8.65h0a5.07,5.07,0,0,0-1.46,4.49h0a5.07,5.07,0,0,1-7.35,5.35h0a5.06,5.06,0,0,0-4.71,0h0a5.07,5.07,0,0,1-7.35-5.35h0a5.07,5.07,0,0,0-1.46-4.49h0a5.07,5.07,0,0,1,2.81-8.65h0a5.07,5.07,0,0,0,3.81-2.77h0A5.06,5.06,0,0,1,139.63,189.69Z"/><path class="cls-7" d="M129.15,184.2h0A5.07,5.07,0,0,0,133,187h0a5.07,5.07,0,0,1,2.81,8.65h0a5.07,5.07,0,0,0-1.46,4.49h0a5.07,5.07,0,0,1-7.35,5.35h0a5.06,5.06,0,0,0-4.71,0h0a5.07,5.07,0,0,1-7.35-5.35h0a5.07,5.07,0,0,0-1.46-4.49h0a5.07,5.07,0,0,1,2.81-8.65h0a5.07,5.07,0,0,0,3.81-2.77h0A5.06,5.06,0,0,1,129.15,184.2Z"/><path class="cls-7" d="M98.21,169.21h0A5.07,5.07,0,0,0,102,172h0a5.07,5.07,0,0,1,2.81,8.65h0a5.07,5.07,0,0,0-1.46,4.49h0A5.07,5.07,0,0,1,96,190.47h0a5.06,5.06,0,0,0-4.71,0h0A5.07,5.07,0,0,1,84,185.12h0a5.07,5.07,0,0,0-1.46-4.49h0A5.07,5.07,0,0,1,85.31,172h0a5.07,5.07,0,0,0,3.81-2.77h0A5.06,5.06,0,0,1,98.21,169.21Z"/><path class="cls-22" d="M106.76,162.51a4.68,4.68,0,0,0-1.12-.13,5,5,0,0,0-4.54,2.84A5.08,5.08,0,0,1,97.29,168a5.1,5.1,0,0,0-1.55.49,5,5,0,0,0-3.62,2.74A5.08,5.08,0,0,1,88.31,174,5.07,5.07,0,0,0,84,179.43a5.11,5.11,0,0,1-1.67.55,5.08,5.08,0,0,0-2.8,8.65A5.09,5.09,0,0,1,81,193.12a5.45,5.45,0,0,0-.08.89,5,5,0,0,0,.95,2.92A5.08,5.08,0,0,1,77.9,192a5.45,5.45,0,0,1,.08-.89,5.09,5.09,0,0,0-1.46-4.49,5.08,5.08,0,0,1,2.8-8.65,5.11,5.11,0,0,0,1.67-.55A5.07,5.07,0,0,1,85.31,172a5.08,5.08,0,0,0,3.81-2.77,5,5,0,0,1,3.62-2.74A5.1,5.1,0,0,1,94.3,166a5.08,5.08,0,0,0,3.81-2.77,5,5,0,0,1,8.65-.71Z"/><path class="cls-7" d="M87.23,191.19h0A5.07,5.07,0,0,0,91,194h0a5.07,5.07,0,0,1,2.81,8.65h0a5.07,5.07,0,0,0-1.46,4.49h0A5.07,5.07,0,0,1,85,212.45h0a5.06,5.06,0,0,0-4.71,0h0A5.07,5.07,0,0,1,73,207.1h0a5.07,5.07,0,0,0-1.46-4.49h0A5.07,5.07,0,0,1,74.34,194h0a5.07,5.07,0,0,0,3.81-2.77h0A5.06,5.06,0,0,1,87.23,191.19Z"/><path class="cls-4" d="M78,214.54a6.58,6.58,0,0,1-6.46-7.69,3.57,3.57,0,0,0-1-3.16,6.57,6.57,0,0,1,3.64-11.21,3.54,3.54,0,0,0,2.35-1.42c0-.07,0-.13,0-.2a3.58,3.58,0,0,0-1-3.16,6.57,6.57,0,0,1,3.64-11.21l.39-.08a6.6,6.6,0,0,1,5.6-5.92,3.56,3.56,0,0,0,2.69-2,6.48,6.48,0,0,1,4.49-3.5,6.65,6.65,0,0,1,1.81-.54,3.56,3.56,0,0,0,2.69-2,6.56,6.56,0,0,1,11.77,0,3.51,3.51,0,0,0,.6.86,3.5,3.5,0,0,0,.6-.86,6.52,6.52,0,0,1,5.89-3.66h0a6.52,6.52,0,0,1,5.17,2.51,6.56,6.56,0,0,1,11.7.15,3.56,3.56,0,0,0,2.68,2,6.57,6.57,0,0,1,3.64,11.21,3.58,3.58,0,0,0-1.08,2.52,6.58,6.58,0,0,1,2.68,10.87,6.48,6.48,0,0,1,.56.93,3.56,3.56,0,0,0,2.68,2h0a6.57,6.57,0,0,1,3.64,11.21,3.58,3.58,0,0,0-1,3.16,6.57,6.57,0,0,1-9.52,6.93,3.56,3.56,0,0,0-3.32,0,6.57,6.57,0,0,1-9.52-6.93,3.58,3.58,0,0,0-1-3.16,6.49,6.49,0,0,1-1.89-3.6,6.55,6.55,0,0,1-4.07-7.23,3.57,3.57,0,0,0-1-3.16,6.52,6.52,0,0,1-1.63-2.54l-.29.14a6.45,6.45,0,0,1-4.83.52,6.4,6.4,0,0,1-4.19-.22,6.44,6.44,0,0,1-2,4.6,6.61,6.61,0,0,1-4,1.83,6.55,6.55,0,0,1-2.36,4.5,6.49,6.49,0,0,1-1.68,6.66,3.57,3.57,0,0,0-1,3.16,6.57,6.57,0,0,1-9.53,6.93,3.57,3.57,0,0,0-3.32,0A6.55,6.55,0,0,1,78,214.54Zm24.68-52.65a3.5,3.5,0,0,0-3.2,2,6.56,6.56,0,0,1-4.94,3.59,3.57,3.57,0,0,0-1.1.35l-.19.09L93,168a3.47,3.47,0,0,0-2.54,1.92,6.56,6.56,0,0,1-4.94,3.59,3.56,3.56,0,0,0-3,3.84l.08,1-.86.46a6.54,6.54,0,0,1-2.16.72,3.57,3.57,0,0,0-2,6.09,6.57,6.57,0,0,1,1.89,5.82c0,.07,0,.13,0,.2l0,.48-.18.3a6.54,6.54,0,0,1-4.66,3.1,3.57,3.57,0,0,0-2,6.09,6.57,6.57,0,0,1,1.89,5.82,3.57,3.57,0,0,0,5.17,3.76,6.55,6.55,0,0,1,6.11,0,3.57,3.57,0,0,0,5.17-3.77,6.57,6.57,0,0,1,1.89-5.81,3.55,3.55,0,0,0,.6-4.33l-.76-1.35,1.38-.72a3.54,3.54,0,0,0,1.89-3.78l0-.22-.18-2,2,.34a3.56,3.56,0,0,0,3.19-.95,3.51,3.51,0,0,0,1-3.16,6.64,6.64,0,0,1-.08-1.53l.1-1.6,1.59.21a6.57,6.57,0,0,1,2.19.69,3.48,3.48,0,0,0,2.9.19l.53-.2.53.2a3.49,3.49,0,0,0,2.9-.19,6.5,6.5,0,0,1,2.79-.74l1.45-.06.11,1.45a3.49,3.49,0,0,0,1.07,2.26,6.57,6.57,0,0,1,1.89,5.82A3.57,3.57,0,0,0,122.7,196l1.22.25,0,1.24A3.46,3.46,0,0,0,125,200a6.58,6.58,0,0,1,1.89,5.82,3.57,3.57,0,0,0,5.17,3.77,6.55,6.55,0,0,1,6.11,0,3.57,3.57,0,0,0,5.17-3.77A6.58,6.58,0,0,1,145.2,200a3.57,3.57,0,0,0-2-6.09h0a6.56,6.56,0,0,1-4.94-3.59,3.56,3.56,0,0,0-.83-1.09l-.92-.83.64-1.06a6.57,6.57,0,0,1,1-1.33,3.57,3.57,0,0,0-2-6.09l-1.33-.21-.08-1.31a6.63,6.63,0,0,1,1.88-5.88,3.57,3.57,0,0,0-2-6.09,6.56,6.56,0,0,1-4.94-3.6,3.56,3.56,0,0,0-6.39,0,6.49,6.49,0,0,1-1.85,2.27l-1.22,1-.91-1.25a6.46,6.46,0,0,1-.6-1,3.5,3.5,0,0,0-3.2-2h0a3.5,3.5,0,0,0-3.2,2,6.55,6.55,0,0,1-2.52,2.73l-.77.46-.77-.46a6.55,6.55,0,0,1-2.52-2.72A3.5,3.5,0,0,0,102.65,161.89Z"/><path class="cls-7" d="M99.21,184.2h0A5.07,5.07,0,0,0,103,187h0a5.07,5.07,0,0,1,2.81,8.65h0a5.07,5.07,0,0,0-1.46,4.49h0A5.07,5.07,0,0,1,97,205.46h0a5.06,5.06,0,0,0-4.71,0h0A5.07,5.07,0,0,1,85,200.11h0a5.07,5.07,0,0,0-1.46-4.49h0A5.07,5.07,0,0,1,86.31,187h0a5.07,5.07,0,0,0,3.81-2.77h0A5.06,5.06,0,0,1,99.21,184.2Z"/><path class="cls-23" d="M136.38,214l-3.85,16.68A12,12,0,0,1,120.87,240H99a12,12,0,0,1-11.67-9.29L83.49,214s-5-10-1-14h.31a1,1,0,0,0-.08.4c0,3,12.19,5.41,27.22,5.41s27.22-2.42,27.22-5.41a1,1,0,0,0-.08-.4h.31C141.37,204,136.38,214,136.38,214Z"/><path class="cls-24" d="M137.13,212.34c-30.17,6.18-46.95,3.1-54,.85-1.1-2.5-3.89-9.85-.61-13.14h.31a1,1,0,0,0-.08.4c0,3,12.19,5.41,27.22,5.41s27.22-2.42,27.22-5.41a1,1,0,0,0-.08-.4h.31C140.34,203,138.35,209.31,137.13,212.34Z"/><path class="cls-4" d="M120.87,242H99a13.92,13.92,0,0,1-13.62-10.84l-3.79-16.46c-.91-1.88-5.16-11.43-.52-16.07l.59-.59h4.28l-1.05,2.26c1.79,1.33,10.32,3.55,25,3.55s23.27-2.22,25.05-3.55l-1-2.25h4.25l.59.59c4.64,4.65.39,14.19-.52,16.07l-3.79,16.46A13.92,13.92,0,0,1,120.87,242ZM83,203.74c-.31,2.94,1.22,7.25,2.3,9.41l.11.21,3.9,16.92A9.93,9.93,0,0,0,99,238h21.86a9.93,9.93,0,0,0,9.72-7.74l3.9-16.91.11-.21c1.07-2.16,2.59-6.47,2.29-9.4-6.15,3.88-23,4.11-26.95,4.11S89.13,207.62,83,203.74Z"/><path class="cls-4" d="M90.34,215.89c7.69,1.57,15.25,1.64,23.08,1.38,1.93-.06,1.93-3.06,0-3-7.53.25-14.86.24-22.28-1.28-1.88-.38-2.69,2.51-.8,2.89Z"/><path class="cls-4" d="M119.5,216.92a52.2,52.2,0,0,0,8-1.21c1.88-.44,1.08-3.33-.8-2.89a46.94,46.94,0,0,1-7.24,1.1c-1.91.14-1.93,3.14,0,3Z"/><path class="cls-5" d="M92.33,223.6l1.47,6.83c.41,1.89,3.3,1.09,2.89-.8l-1.47-6.83c-.41-1.89-3.3-1.09-2.89.8Z"/><path class="cls-5" d="M97.78,225.86a30.56,30.56,0,0,0,1,6.07,1.5,1.5,0,0,0,2.89-.8,26.49,26.49,0,0,1-.92-5.27c-.13-1.92-3.13-1.93-3,0Z"/><path class="cls-7" d="M96.22,181.2h0A5.07,5.07,0,0,0,100,184h0a5.07,5.07,0,0,1,2.81,8.65h0a5.07,5.07,0,0,0-1.46,4.49h0A5.07,5.07,0,0,1,94,202.46h0a5.06,5.06,0,0,0-4.71,0h0A5.07,5.07,0,0,1,82,197.11h0a5.07,5.07,0,0,0-1.46-4.49h0A5.07,5.07,0,0,1,83.32,184h0a5.07,5.07,0,0,0,3.81-2.77h0A5.06,5.06,0,0,1,96.22,181.2Z"/><path class="cls-8" d="M102.84,192.62a5.09,5.09,0,0,0-1.53,3.63,5,5,0,0,0,.08.86,5.46,5.46,0,0,1,.08.89A5.07,5.07,0,0,1,94,202.46a5.05,5.05,0,0,0-4.72,0,5,5,0,0,1-2.35.59,5.14,5.14,0,0,1-4.76-3.3,5.12,5.12,0,0,0,3.51,1.41,5,5,0,0,0,2.35-.59,5.05,5.05,0,0,1,4.72,0,5.07,5.07,0,0,0,7.42-4.46,5.46,5.46,0,0,0-.08-.89,5,5,0,0,1-.08-.86,5.09,5.09,0,0,1,1.53-3.63,5,5,0,0,0,1.54-3.6,5.12,5.12,0,0,0-.34-1.84,5.14,5.14,0,0,1,1.6,3.72A5,5,0,0,1,102.84,192.62Z"/><path class="cls-4" d="M96.39,204a6.06,6.06,0,0,1-2.83-.7,4.06,4.06,0,0,0-3.78,0,6.07,6.07,0,0,1-8.8-6.4,4.07,4.07,0,0,0-1.17-3.6A6.07,6.07,0,0,1,83.17,183a4.07,4.07,0,0,0,3.06-2.23,6.06,6.06,0,0,1,10.88,0h0a4.06,4.06,0,0,0,3.06,2.23,6.07,6.07,0,0,1,3.36,10.35,4.07,4.07,0,0,0-1.17,3.6,6.08,6.08,0,0,1-6,7.1Zm-4.72-3.17a6.06,6.06,0,0,1,2.82.7,4.07,4.07,0,0,0,5.9-4.29,6.07,6.07,0,0,1,1.74-5.37A4.07,4.07,0,0,0,99.89,185a6.06,6.06,0,0,1-4.57-3.32,4.06,4.06,0,0,0-7.29,0A6.07,6.07,0,0,1,83.46,185a4.07,4.07,0,0,0-2.25,6.94A6.07,6.07,0,0,1,83,197.28a4.07,4.07,0,0,0,5.9,4.29A6.06,6.06,0,0,1,91.67,200.88Z"/><path class="cls-7" d="M102.7,172.71h0a5.07,5.07,0,0,0,3.81,2.77h0a5.07,5.07,0,0,1,2.81,8.65h0a5.07,5.07,0,0,0-1.46,4.49h0a5.07,5.07,0,0,1-7.35,5.35h0a5.06,5.06,0,0,0-4.71,0h0a5.07,5.07,0,0,1-7.35-5.35h0A5.07,5.07,0,0,0,87,184.13h0a5.07,5.07,0,0,1,2.81-8.65h0a5.07,5.07,0,0,0,3.81-2.77h0A5.06,5.06,0,0,1,102.7,172.71Z"/><path class="cls-8" d="M109.32,184.13a5.09,5.09,0,0,0-1.53,3.63,5,5,0,0,0,.08.86,5.46,5.46,0,0,1,.08.89,5.07,5.07,0,0,1-7.42,4.46,5.05,5.05,0,0,0-4.72,0,5,5,0,0,1-2.35.59,5.14,5.14,0,0,1-4.76-3.3,5.12,5.12,0,0,0,3.51,1.41,5,5,0,0,0,2.35-.59,5.05,5.05,0,0,1,4.72,0,5.07,5.07,0,0,0,7.42-4.46,5.46,5.46,0,0,0-.08-.89,5,5,0,0,1-.08-.86,5.09,5.09,0,0,1,1.53-3.63,5,5,0,0,0,1.54-3.6,5.12,5.12,0,0,0-.34-1.84,5.14,5.14,0,0,1,1.6,3.72A5,5,0,0,1,109.32,184.13Z"/><path class="cls-4" d="M93.44,195.55a6.08,6.08,0,0,1-6-7.1,4.08,4.08,0,0,0-1.17-3.6,6.07,6.07,0,0,1,3.36-10.35,4.07,4.07,0,0,0,3.06-2.23,6.06,6.06,0,0,1,10.88,0h0a4.07,4.07,0,0,0,3.06,2.23A6.07,6.07,0,0,1,110,184.85a4.08,4.08,0,0,0-1.17,3.6,6.07,6.07,0,0,1-8.8,6.4,4.06,4.06,0,0,0-3.78,0A6.06,6.06,0,0,1,93.44,195.55Zm4.72-24.67a4,4,0,0,0-3.64,2.27,6.07,6.07,0,0,1-4.57,3.32,4.07,4.07,0,0,0-2.25,6.94,6.07,6.07,0,0,1,1.74,5.37,4.07,4.07,0,0,0,5.9,4.29,6.06,6.06,0,0,1,5.65,0,4.07,4.07,0,0,0,5.9-4.29,6.07,6.07,0,0,1,1.74-5.37,4.07,4.07,0,0,0-2.25-6.94,6.06,6.06,0,0,1-4.57-3.32h0A4,4,0,0,0,98.16,170.88Z"/><path class="cls-7" d="M127.15,167.21h0A5.07,5.07,0,0,0,131,170h0a5.07,5.07,0,0,1,2.81,8.65h0a5.07,5.07,0,0,0-1.46,4.49h0a5.07,5.07,0,0,1-7.35,5.35h0a5.06,5.06,0,0,0-4.71,0h0a5.07,5.07,0,0,1-7.35-5.35h0a5.07,5.07,0,0,0-1.46-4.49h0a5.07,5.07,0,0,1,2.81-8.65h0a5.07,5.07,0,0,0,3.81-2.77h0A5.06,5.06,0,0,1,127.15,167.21Z"/><path class="cls-8" d="M133.77,178.63a5.09,5.09,0,0,0-1.53,3.63,5,5,0,0,0,.08.86,5.46,5.46,0,0,1,.08.89,5.07,5.07,0,0,1-7.42,4.46,5.05,5.05,0,0,0-4.72,0,5,5,0,0,1-2.35.59,5.14,5.14,0,0,1-4.76-3.3,5.12,5.12,0,0,0,3.51,1.41,5,5,0,0,0,2.35-.59,5.05,5.05,0,0,1,4.72,0,5.07,5.07,0,0,0,7.42-4.46,5.46,5.46,0,0,0-.08-.89,5,5,0,0,1-.08-.86,5.09,5.09,0,0,1,1.53-3.63,5,5,0,0,0,1.54-3.6,5.12,5.12,0,0,0-.34-1.84,5.14,5.14,0,0,1,1.6,3.72A5,5,0,0,1,133.77,178.63Z"/><path class="cls-4" d="M127.33,190.06a6.06,6.06,0,0,1-2.83-.7,4.06,4.06,0,0,0-3.78,0,6.07,6.07,0,0,1-8.8-6.4,4.07,4.07,0,0,0-1.17-3.6A6.07,6.07,0,0,1,114.11,169a4.06,4.06,0,0,0,3.06-2.23,6.06,6.06,0,0,1,10.88,0h0a4.06,4.06,0,0,0,3.06,2.23,6.07,6.07,0,0,1,3.36,10.35,4.07,4.07,0,0,0-1.17,3.6,6.08,6.08,0,0,1-6,7.1Zm-4.72-3.17a6.06,6.06,0,0,1,2.82.7,4.07,4.07,0,0,0,5.9-4.29,6.07,6.07,0,0,1,1.74-5.37,4.07,4.07,0,0,0-2.25-6.94,6.06,6.06,0,0,1-4.57-3.32h0a4.06,4.06,0,0,0-7.29,0A6.06,6.06,0,0,1,114.4,171a4.07,4.07,0,0,0-2.25,6.94,6.07,6.07,0,0,1,1.74,5.37,4.07,4.07,0,0,0,5.9,4.29A6.06,6.06,0,0,1,122.61,186.89Z"/><path class="cls-7" d="M132.14,181.2h0A5.07,5.07,0,0,0,136,184h0a5.07,5.07,0,0,1,2.81,8.65h0a5.07,5.07,0,0,0-1.46,4.49h0a5.07,5.07,0,0,1-7.35,5.35h0a5.06,5.06,0,0,0-4.71,0h0a5.07,5.07,0,0,1-7.35-5.35h0a5.07,5.07,0,0,0-1.46-4.49h0a5.07,5.07,0,0,1,2.81-8.65h0a5.07,5.07,0,0,0,3.81-2.77h0A5.06,5.06,0,0,1,132.14,181.2Z"/><path class="cls-8" d="M138.76,192.62a5.09,5.09,0,0,0-1.53,3.63,5,5,0,0,0,.08.86,5.46,5.46,0,0,1,.08.89,5.07,5.07,0,0,1-7.42,4.46,5.05,5.05,0,0,0-4.72,0,5,5,0,0,1-2.35.59,5.14,5.14,0,0,1-4.76-3.3,5.12,5.12,0,0,0,3.51,1.41,5,5,0,0,0,2.35-.59,5.05,5.05,0,0,1,4.72,0,5.07,5.07,0,0,0,7.42-4.46,5.46,5.46,0,0,0-.08-.89,5,5,0,0,1-.08-.86,5.09,5.09,0,0,1,1.53-3.63,5,5,0,0,0,1.54-3.6,5.12,5.12,0,0,0-.34-1.84,5.14,5.14,0,0,1,1.6,3.72A5,5,0,0,1,138.76,192.62Z"/><path class="cls-4" d="M132.32,204a6.06,6.06,0,0,1-2.83-.7,4.06,4.06,0,0,0-3.78,0,6.07,6.07,0,0,1-8.8-6.4,4.07,4.07,0,0,0-1.17-3.6A6.07,6.07,0,0,1,119.1,183a4.07,4.07,0,0,0,3.06-2.23,6.06,6.06,0,0,1,10.88,0h0A4.06,4.06,0,0,0,136.1,183a6.07,6.07,0,0,1,3.36,10.35,4.07,4.07,0,0,0-1.17,3.6,6.08,6.08,0,0,1-6,7.1Zm-4.72-3.17a6.06,6.06,0,0,1,2.82.7,4.07,4.07,0,0,0,5.9-4.29,6.07,6.07,0,0,1,1.74-5.37,4.07,4.07,0,0,0-2.25-6.94,6.06,6.06,0,0,1-4.57-3.32,4.06,4.06,0,0,0-7.29,0,6.07,6.07,0,0,1-4.57,3.32,4.07,4.07,0,0,0-2.25,6.94,6.07,6.07,0,0,1,1.74,5.37,4.07,4.07,0,0,0,5.9,4.29A6.06,6.06,0,0,1,127.6,200.88Z"/><path class="cls-7" d="M115.45,178.11h0a7.07,7.07,0,0,0,5.33,3.87h0a7.08,7.08,0,0,1,3.92,12.08h0a7.09,7.09,0,0,0-2,6.27h0a7.07,7.07,0,0,1-10.26,7.47h0a7.07,7.07,0,0,0-6.58,0h0a7.07,7.07,0,0,1-10.26-7.47h0a7.09,7.09,0,0,0-2-6.27h0A7.08,7.08,0,0,1,97.44,182h0a7.07,7.07,0,0,0,5.33-3.87h0A7.07,7.07,0,0,1,115.45,178.11Z"/><path class="cls-8" d="M124.7,194.06a7.11,7.11,0,0,0-2.14,5.07,7,7,0,0,0,.11,1.2,7.62,7.62,0,0,1,.11,1.24,7.08,7.08,0,0,1-10.37,6.23,7.06,7.06,0,0,0-6.59,0,7,7,0,0,1-3.28.82,7.18,7.18,0,0,1-6.65-4.6,7.16,7.16,0,0,0,4.9,2,7,7,0,0,0,3.28-.82,7.06,7.06,0,0,1,6.59,0A7.08,7.08,0,0,0,121,198.94a7.62,7.62,0,0,0-.11-1.24,7,7,0,0,1-.11-1.2,7.11,7.11,0,0,1,2.14-5.07,7,7,0,0,0,2.15-5,7.15,7.15,0,0,0-.48-2.57,7.17,7.17,0,0,1,2.23,5.2A7,7,0,0,1,124.7,194.06Z"/><path class="cls-4" d="M102.52,210.11a8.59,8.59,0,0,1-8.44-10,5.59,5.59,0,0,0-1.6-4.94,8.58,8.58,0,0,1,4.75-14.64,5.57,5.57,0,0,0,4.2-3.05,8.57,8.57,0,0,1,15.38,0,5.57,5.57,0,0,0,4.2,3.05,8.58,8.58,0,0,1,4.75,14.64,5.59,5.59,0,0,0-1.6,4.94,8.57,8.57,0,0,1-12.44,9,5.57,5.57,0,0,0-5.19,0A8.57,8.57,0,0,1,102.52,210.11Zm6.59-34.46a5.47,5.47,0,0,0-5,3.11,8.57,8.57,0,0,1-6.46,4.7A5.58,5.58,0,0,0,94.57,193,8.59,8.59,0,0,1,97,200.58a5.58,5.58,0,0,0,8.09,5.88,8.57,8.57,0,0,1,8,0,5.58,5.58,0,0,0,8.09-5.88,8.59,8.59,0,0,1,2.46-7.59,5.58,5.58,0,0,0-3.09-9.52,8.57,8.57,0,0,1-6.46-4.7h0A5.47,5.47,0,0,0,109.11,175.66Z"/><path class="cls-8" d="M97.45,188.28a4.59,4.59,0,0,1,2.56-.36,6,6,0,0,1,2.3.82,5.61,5.61,0,0,1,1.79,1.74,3.89,3.89,0,0,1,.62,2.56,19.46,19.46,0,0,1-2.23-.83,13.64,13.64,0,0,1-1.76-.92,12.27,12.27,0,0,1-1.65-1.21A10.06,10.06,0,0,1,97.45,188.28Z"/><path class="cls-8" d="M108.69,189a3.87,3.87,0,0,1-2.62-1.59,4.94,4.94,0,0,1-1-3.08,5.31,5.31,0,0,1,1-3,5.86,5.86,0,0,1,1.08-1.06,5.5,5.5,0,0,1,1.39-.66,9.1,9.1,0,0,1-.15,1.46c0,.46-.13.85-.17,1.24-.12.77-.15,1.44-.2,2.08A17.17,17.17,0,0,0,108.69,189Z"/><path class="cls-8" d="M111.3,190.86a3.13,3.13,0,0,1-.13-2.51,4.17,4.17,0,0,1,3.94-2.75,3.47,3.47,0,0,1,2.32.88,9.12,9.12,0,0,1-.93.79c-.27.25-.55.4-.78.6-.49.34-.88.67-1.3.93Z"/><path class="cls-8" d="M110.42,194.36a3.26,3.26,0,0,1,2-.13,3.64,3.64,0,0,1,1.58.85,3.6,3.6,0,0,1,1,1.58,2.63,2.63,0,0,1-.21,2.09,17,17,0,0,1-1.69-.7,4.44,4.44,0,0,1-1.12-.77,4.81,4.81,0,0,1-.89-1.13A6.12,6.12,0,0,1,110.42,194.36Z"/><path class="cls-8" d="M102.25,200.3a3.11,3.11,0,0,1-.11-2,3.33,3.33,0,0,1,2.4-2.38,2.51,2.51,0,0,1,2,.32,17.09,17.09,0,0,1-.68,1.63,3.83,3.83,0,0,1-.74,1,4.23,4.23,0,0,1-1.1.79A5.86,5.86,0,0,1,102.25,200.3Z"/><path class="cls-22" d="M130.54,188.89a9.81,9.81,0,0,1,3.22-.6,1.5,1.5,0,0,0,0-3,12.43,12.43,0,0,0-4,.7,1.54,1.54,0,0,0-1,1.85,1.51,1.51,0,0,0,1.85,1Z"/><path class="cls-22" d="M129.77,194.76a3,3,0,0,1,.7.15,2.44,2.44,0,0,1,.65.33,1.5,1.5,0,0,0,1.51-2.59,6.22,6.22,0,0,0-2.87-.89,1.51,1.51,0,0,0-1.5,1.5,1.54,1.54,0,0,0,1.5,1.5Z"/><path class="cls-22" d="M120.88,169.71a5.45,5.45,0,0,1,.43,2.84,1.55,1.55,0,0,0,1,1.85,1.51,1.51,0,0,0,1.85-1,8.37,8.37,0,0,0-.43-4.43,1.55,1.55,0,0,0-1.85-1,1.51,1.51,0,0,0-1,1.85Z"/><path class="cls-22" d="M116.54,174.39a25.32,25.32,0,0,0,1.72,2.08,1.5,1.5,0,0,0,2.12-2.12c-.43-.47-.92-1-1.26-1.48a1.55,1.55,0,0,0-2.05-.54,1.51,1.51,0,0,0-.54,2.05Z"/><path class="cls-22" d="M106.71,169.08l-.15,1.25a1.5,1.5,0,0,0,1.5,1.5,1.54,1.54,0,0,0,1.5-1.5l.15-1.25a1.5,1.5,0,0,0-1.5-1.5,1.54,1.54,0,0,0-1.5,1.5Z"/><path class="cls-22" d="M95.42,176.84a3.47,3.47,0,0,1,0,1.11,1.5,1.5,0,0,0,1.5,1.5,1.54,1.54,0,0,0,1.5-1.5,5.8,5.8,0,0,0-.14-1.9,1.5,1.5,0,1,0-2.89.8Z"/><path class="cls-22" d="M82.86,188.69h1.87a1.5,1.5,0,0,0,0-3H82.86a1.5,1.5,0,0,0,0,3Z"/><path class="cls-22" d="M87.64,198a5.17,5.17,0,0,1,.6-.61,1.55,1.55,0,0,0,.54-2.05,1.51,1.51,0,0,0-2.05-.54,7,7,0,0,0-1.21,1.08,1.54,1.54,0,0,0,0,2.12,1.51,1.51,0,0,0,2.12,0Z"/><path class="cls-22" d="M74.11,200a16.07,16.07,0,0,0,3.35,1.3,1.5,1.5,0,0,0,.8-2.89,12.46,12.46,0,0,1-2.63-1,1.53,1.53,0,0,0-2.05.54,1.52,1.52,0,0,0,.54,2.05Z"/><path class="cls-22" d="M142,195.48c-.11.12-.22.23-.35.34l-.12.1q.1-.09,0,0l-.35.21s-.42.19-.23.11a1.54,1.54,0,0,0-1,1.85,1.51,1.51,0,0,0,1.85,1,6.28,6.28,0,0,0,2.39-1.54,1.5,1.5,0,0,0-2.12-2.12Z"/><path class="cls-7" d="M2.71,176.71a2.7,2.7,0,0,0-1.6,2.36A13.64,13.64,0,0,0,6,191.69c6.25,4.94,15,4.95,23.52,2.74a3.19,3.19,0,0,0,2.23-4.06l-1.3-4C29,181.72,22.72,170.53,2.71,176.71Z"/><path class="cls-8" d="M7.68,180.66a15.73,15.73,0,0,1,5.1-.06,22.78,22.78,0,0,1,4.89,1.24,20.43,20.43,0,0,1,4.5,2.37,13.07,13.07,0,0,1,3.57,3.69c-1.69-.5-3.17-1.07-4.68-1.61s-3-1.09-4.46-1.65-3-1.15-4.45-1.78A40.78,40.78,0,0,1,7.68,180.66Z"/><path class="cls-8" d="M30.72,193.84a3.15,3.15,0,0,1-1.18.59C21,196.63,12.27,196.63,6,191.68a13.63,13.63,0,0,1-4.9-12.61,2.71,2.71,0,0,1,1.61-2.37l.3-.09C3.57,182.29,7.23,197.4,30.72,193.84Z"/><path class="cls-4" d="M19.41,196.83c-5.6,0-10.34-1.46-14-4.36A14.54,14.54,0,0,1,.12,179a3.66,3.66,0,0,1,2.3-3.2h0c22.2-6.86,28.06,7.37,29,10.3l1.3,4a4.13,4.13,0,0,1-.31,3.29,4.2,4.2,0,0,1-2.62,2A41.54,41.54,0,0,1,19.41,196.83ZM3,177.66c-.52.16-.83.9-.91,1.53A12.6,12.6,0,0,0,6.64,190.9c6.63,5.25,16,4.29,22.65,2.55a2.19,2.19,0,0,0,1.53-2.78l-1.3-4c-1.19-3.67-6.61-15.15-26.51-9Z"/><path class="cls-21" d="M66.29,200.45c0,3-12.19,5.41-27.22,5.41s-27.22-2.42-27.22-5.41a1,1,0,0,1,.08-.4c1-2.8,12.77-5,27.14-5s26.12,2.22,27.14,5A1,1,0,0,1,66.29,200.45Z"/><path class="cls-4" d="M39.08,207.86c-4.88,0-29.22-.36-29.22-7.41a2.94,2.94,0,0,1,.23-1.16c2.42-6.08,26.26-6.25,29-6.25s26.58.18,29,6.26a2.94,2.94,0,0,1,.23,1.16C68.29,207.5,44,207.86,39.08,207.86Zm-24.84-7.4c2.18,1.34,10.62,3.4,24.84,3.4s22.66-2.06,24.84-3.41C61.74,199.1,53.3,197,39.08,197S16.41,199.1,14.24,200.45Zm-.47.39Z"/><path class="cls-23" d="M65.52,214l-3.85,16.68A12,12,0,0,1,50,240H28.14a12,12,0,0,1-11.67-9.29L12.63,214s-5-10-1-14h.31a1,1,0,0,0-.08.4c0,3,12.19,5.41,27.22,5.41s27.22-2.42,27.22-5.41a1,1,0,0,0-.08-.4h.31C70.51,204,65.52,214,65.52,214Z"/><path class="cls-24" d="M66.27,212.34c-30.17,6.18-46.95,3.1-54,.85-1.1-2.5-3.89-9.85-.61-13.14h.31a1,1,0,0,0-.08.4c0,3,12.19,5.41,27.22,5.41s27.22-2.42,27.22-5.41a1,1,0,0,0-.08-.4h.31C69.49,203,67.49,209.31,66.27,212.34Z"/><path class="cls-4" d="M50,242H28.14a13.92,13.92,0,0,1-13.62-10.84l-3.79-16.46c-.91-1.88-5.16-11.43-.52-16.07l.59-.59h4.28L14,200.31c1.79,1.33,10.32,3.55,25,3.55s23.27-2.22,25.05-3.55l-1-2.25h4.25l.59.59c4.64,4.65.39,14.19-.52,16.07l-3.79,16.46A13.92,13.92,0,0,1,50,242ZM12.12,203.74c-.31,2.94,1.22,7.25,2.3,9.41l.11.21,3.9,16.92A9.93,9.93,0,0,0,28.14,238H50a9.93,9.93,0,0,0,9.72-7.74l3.9-16.91.11-.21c1.07-2.16,2.59-6.47,2.29-9.4-6.15,3.88-23,4.11-26.95,4.11S18.27,207.62,12.12,203.74Z"/><path class="cls-4" d="M19.48,215.89c7.69,1.57,15.25,1.64,23.08,1.38,1.93-.06,1.93-3.06,0-3-7.53.25-14.86.24-22.28-1.28-1.88-.38-2.69,2.51-.8,2.89Z"/><path class="cls-4" d="M48.64,216.92a52.2,52.2,0,0,0,8-1.21c1.88-.44,1.08-3.33-.8-2.89a46.94,46.94,0,0,1-7.24,1.1c-1.91.14-1.93,3.14,0,3Z"/><path class="cls-5" d="M21.47,223.6l1.47,6.83c.41,1.89,3.3,1.09,2.89-.8l-1.47-6.83c-.41-1.89-3.3-1.09-2.89.8Z"/><path class="cls-5" d="M26.93,225.86a30.56,30.56,0,0,0,1,6.07,1.5,1.5,0,0,0,2.89-.8,26.49,26.49,0,0,1-.92-5.27c-.13-1.92-3.13-1.93-3,0Z"/><path class="cls-7" d="M68.82,202.2a2.71,2.71,0,0,1,.27,2.84,13.62,13.62,0,0,1-10.37,8.68c-7.85,1.32-15.54-2.91-21.93-9a3.19,3.19,0,0,1,0-4.63l3.07-2.88C43.4,193.92,54.26,187.13,68.82,202.2Z"/><path class="cls-8" d="M62.57,203.27a40.75,40.75,0,0,1-5-.23c-1.61-.16-3.19-.36-4.75-.59s-3.12-.45-4.7-.71-3.15-.47-4.87-.85a13.07,13.07,0,0,1,4.91-1.51,20.43,20.43,0,0,1,5.08.1,22.77,22.77,0,0,1,4.88,1.27A15.73,15.73,0,0,1,62.57,203.27Z"/><path class="cls-8" d="M36,203.69a3.15,3.15,0,0,0,.75,1.08c6.39,6,14.07,10.27,21.93,9A13.61,13.61,0,0,0,69.08,205a2.71,2.71,0,0,0-.27-2.85l-.22-.22C65.38,206.67,54.9,218.16,36,203.69Z"/><path class="cls-4" d="M55.82,215c-6.38,0-13.13-3.23-19.73-9.47a4.21,4.21,0,0,1-1.31-3.05,4.14,4.14,0,0,1,1.31-3l3.07-2.88c2.24-2.1,14.22-11.76,30.37,5h0a3.66,3.66,0,0,1,.48,3.91,14.52,14.52,0,0,1-11.13,9.3A18.38,18.38,0,0,1,55.82,215Zm-4.9-21.17A15.37,15.37,0,0,0,40.53,198l-3.06,2.88a2.15,2.15,0,0,0-.68,1.58,2.18,2.18,0,0,0,.69,1.6c5,4.74,12.75,10.09,21.08,8.69a12.58,12.58,0,0,0,9.61-8.07,1.81,1.81,0,0,0-.06-1.78C61.35,195.91,55.52,193.79,50.93,193.79Z"/><path class="cls-7" d="M7.63,198.15a2.71,2.71,0,0,0-.81,2.74,13.63,13.63,0,0,0,8.5,10.53c7.45,2.81,15.8.15,23.25-4.54a3.19,3.19,0,0,0,.9-4.55L37,198.91C34.16,194.95,24.82,186.18,7.63,198.15Z"/><path class="cls-8" d="M13.55,200.4a15.73,15.73,0,0,1,4.84-1.61,22.77,22.77,0,0,1,5-.3,20.42,20.42,0,0,1,5,.89A13.07,13.07,0,0,1,33,201.82c-1.76,0-3.35-.06-4.94-.11s-3.16-.13-4.75-.22-3.17-.19-4.78-.35A40.77,40.77,0,0,1,13.55,200.4Z"/><path class="cls-8" d="M39.5,206a3.15,3.15,0,0,1-.94.92c-7.44,4.69-15.79,7.35-23.24,4.54a13.62,13.62,0,0,1-8.49-10.52,2.71,2.71,0,0,1,.81-2.74l.26-.18C10.14,203.2,18.2,216.5,39.5,206Z"/><path class="cls-4" d="M21.78,213.55A19.18,19.18,0,0,1,15,212.35a14.53,14.53,0,0,1-9.13-11.27,3.66,3.66,0,0,1,1.22-3.75h0c19.08-13.29,29-1.5,30.76,1l2.45,3.42A4.13,4.13,0,0,1,41,205a4.21,4.21,0,0,1-1.88,2.74C33,211.59,27.09,213.55,21.78,213.55ZM8.2,199a1.81,1.81,0,0,0-.4,1.73,12.59,12.59,0,0,0,7.87,9.78c7.91,3,16.53-.77,22.36-4.45a2.19,2.19,0,0,0,.62-3.12l-2.45-3.42C34,196.35,25.3,187.06,8.2,199Z"/><path class="cls-19" d="M41,170.34a8.9,8.9,0,0,0-9.9-7.72,8.89,8.89,0,0,0-16.7,2.14h-.12a8.91,8.91,0,0,0-4.06,16.08,8.89,8.89,0,0,0,15.7,6.83,8.91,8.91,0,0,0,13.36-10.87A8.89,8.89,0,0,0,41,170.34Z"/><path class="cls-20" d="M9.27,174.4a8.87,8.87,0,0,0,3.64,6.1,9.13,9.13,0,0,0,0,2.33,8.91,8.91,0,0,0,8.59,7.78,9.48,9.48,0,0,1-1.36.28,8.9,8.9,0,0,1-10-7.71,9.13,9.13,0,0,1,0-2.33,8.91,8.91,0,0,1,4.06-16.07h.12A8.91,8.91,0,0,1,22,157.71a9.39,9.39,0,0,1,1.38-.07,8.92,8.92,0,0,0-6.23,6.78s-1.94,1.46-2,1.48C10.89,167.54,8.65,169.51,9.27,174.4Z"/><path class="cls-4" d="M19,192.46a10.41,10.41,0,0,1-10.3-9.09,10.17,10.17,0,0,1-.06-1.85,10.41,10.41,0,0,1,4.54-18.08,10.39,10.39,0,0,1,18.76-2.38,10.39,10.39,0,0,1,10.54,9.09h0A10.36,10.36,0,0,1,40.94,177a10.4,10.4,0,0,1-14.8,12.61,10.34,10.34,0,0,1-5.81,2.76A10.7,10.7,0,0,1,19,192.46Zm4.1-33.33a7.28,7.28,0,0,0-.94.06,7.4,7.4,0,0,0-6.31,5.87l-.22,1.06-1.22.14A7.41,7.41,0,0,0,8,174.56a7.34,7.34,0,0,0,3,5.08l.73.53-.12.89a7.39,7.39,0,0,0,13.05,5.69l.9-1.1,1.15.84a7.41,7.41,0,0,0,11.11-9l-.36-.81.53-.71a7.38,7.38,0,0,0,1.43-5.39h0a7.42,7.42,0,0,0-8.23-6.42l-1.06.13-.47-1A7.4,7.4,0,0,0,23.08,159.13Z"/><path class="cls-4" d="M26,169.3a.5.5,0,0,1-.38-.83l5.32-6.1a.5.5,0,1,1,.75.66l-5.32,6.1A.5.5,0,0,1,26,169.3Z"/><path class="cls-4" d="M19.57,170.82a.5.5,0,0,1-.36-.16l-5.14-5.45a.5.5,0,1,1,.73-.69L19.94,170a.5.5,0,0,1-.36.84Z"/><path class="cls-4" d="M10.39,181.44a.5.5,0,0,1-.22-1L18,176.71a.5.5,0,0,1,.43.9l-7.84,3.78A.49.49,0,0,1,10.39,181.44Z"/><path class="cls-4" d="M25.7,188.37a.5.5,0,0,1-.5-.44l-.91-7.1a.5.5,0,1,1,1-.13l.91,7.1a.5.5,0,0,1-.43.56Z"/><path class="cls-4" d="M39.25,177.19h0l-8.94-.52a.5.5,0,0,1,.06-1l8.94.52a.5.5,0,0,1,0,1Z"/><ellipse class="cls-17" cx="24.22" cy="174.61" rx="6" ry="6" transform="translate(-22 4.49) rotate(-7.3)"/><path class="cls-18" d="M26.34,180.32a5.12,5.12,0,0,1-.81.16A6,6,0,0,1,24,168.58a5.1,5.1,0,0,1,.83,0,6,6,0,0,0,1.51,11.79Z"/><path class="cls-4" d="M24.21,181.11a6.5,6.5,0,0,1-6.43-5.68,6.51,6.51,0,0,1,5.62-7.28,6.5,6.5,0,0,1,7.27,5.63h0a6.51,6.51,0,0,1-6.46,7.33Zm0-12a5.6,5.6,0,0,0-.71,0A5.51,5.51,0,0,0,20.86,179a5.45,5.45,0,0,0,4.06,1.1,5.51,5.51,0,0,0,4.75-6.16h0a5.5,5.5,0,0,0-5.44-4.81Z"/><path class="cls-5" d="M35,169.06c-.16-.11.3.3.25.24s.09.14.1.16a3.49,3.49,0,0,1,.17.34,1.51,1.51,0,0,0,2.05.54,1.54,1.54,0,0,0,.54-2.05,4.48,4.48,0,0,0-1.6-1.82,1.51,1.51,0,0,0-2.05.54,1.53,1.53,0,0,0,.54,2.05Z"/><path class="cls-5" d="M33.1,167.68h.09a1.54,1.54,0,0,0,1.5-1.5c0-.73-.67-1.61-1.5-1.5H33.1a1.54,1.54,0,0,0-1.5,1.5c0,.73.67,1.61,1.5,1.5Z"/><path class="cls-5" d="M11.94,177.24l.55-.07a1.54,1.54,0,0,0,1.5-1.5c0-.73-.67-1.61-1.5-1.5l-.55.07a1.54,1.54,0,0,0-1.5,1.5c0,.73.67,1.61,1.5,1.5Z"/><path class="cls-5" d="M11,174.58l.27,0a1.54,1.54,0,0,0,1.5-1.5c0-.73-.67-1.61-1.5-1.5l-.27,0a1.54,1.54,0,0,0-1.5,1.5c0,.73.67,1.61,1.5,1.5Z"/><path class="cls-19" d="M39.48,176.33a8.9,8.9,0,0,1,9.9-7.72,8.89,8.89,0,0,1,16.7,2.14h.12a8.91,8.91,0,0,1,4.06,16.08,8.89,8.89,0,0,1-15.7,6.83,8.91,8.91,0,0,1-13.36-10.87A8.89,8.89,0,0,1,39.48,176.33Z"/><path class="cls-20" d="M71.17,180.4a8.87,8.87,0,0,1-3.64,6.1,9.13,9.13,0,0,1,0,2.33A8.91,8.91,0,0,1,59,196.6a9.48,9.48,0,0,0,1.36.28,8.9,8.9,0,0,0,10-7.71,9.13,9.13,0,0,0,0-2.33,8.91,8.91,0,0,0-4.06-16.07h-.12a8.91,8.91,0,0,0-7.59-7.06,9.39,9.39,0,0,0-1.38-.07,8.92,8.92,0,0,1,6.23,6.78s1.94,1.46,2,1.48C69.55,173.54,71.79,175.51,71.17,180.4Z"/><path class="cls-4" d="M61.46,198.46a10.72,10.72,0,0,1-1.34-.09,10.34,10.34,0,0,1-5.81-2.76A10.41,10.41,0,0,1,39.5,183,10.35,10.35,0,0,1,38,176.14h0a10.44,10.44,0,0,1,10.32-9.09h.22a10.39,10.39,0,0,1,18.76,2.38,10.41,10.41,0,0,1,4.54,18.08,10.4,10.4,0,0,1-10.36,10.94Zm-6.64-6.83.9,1.1A7.4,7.4,0,0,0,68.78,189a7.47,7.47,0,0,0,0-1.94l-.12-.89.73-.53a7.33,7.33,0,0,0,3-5.08,7.42,7.42,0,0,0-6.4-8.3l-1.18-.14-.22-1.06a7.39,7.39,0,0,0-13.89-1.78l-.47,1-1.06-.13a7.41,7.41,0,0,0-6.8,11.81l.53.71-.37.81a7.4,7.4,0,0,0,11.11,9Z"/><path class="cls-4" d="M54.41,175.29a.5.5,0,0,1-.38-.17L48.71,169a.5.5,0,1,1,.75-.66l5.32,6.1a.5.5,0,0,1-.38.83Z"/><path class="cls-4" d="M60.87,176.82a.5.5,0,0,1-.36-.84l5.14-5.45a.5.5,0,1,1,.73.69l-5.14,5.45A.5.5,0,0,1,60.87,176.82Z"/><path class="cls-4" d="M70.06,187.44a.49.49,0,0,1-.22,0L62,183.6a.5.5,0,0,1,.43-.9l7.84,3.78a.5.5,0,0,1-.22,1Z"/><path class="cls-4" d="M54.75,194.36h-.06a.5.5,0,0,1-.43-.56l.91-7.1a.5.5,0,1,1,1,.13l-.91,7.1A.5.5,0,0,1,54.75,194.36Z"/><path class="cls-4" d="M41.2,183.18a.5.5,0,0,1,0-1l8.94-.52a.5.5,0,0,1,.06,1l-8.94.52Z"/><ellipse class="cls-17" cx="56.22" cy="180.6" rx="6" ry="6" transform="translate(-130.06 213.41) rotate(-82.7)"/><path class="cls-18" d="M54.11,186.32a5.12,5.12,0,0,0,.81.16,6,6,0,0,0,1.52-11.91,5.1,5.1,0,0,0-.83,0,6,6,0,0,1-1.51,11.79Z"/><path class="cls-4" d="M56.24,187.11a6.51,6.51,0,0,1-6.46-7.33h0a6.49,6.49,0,1,1,6.46,7.33Zm-5.47-7.2a5.5,5.5,0,1,0,2.09-3.66,5.51,5.51,0,0,0-2.09,3.66Z"/><path class="cls-5" d="M44,172.46a4.49,4.49,0,0,0-1.6,1.82,1.55,1.55,0,0,0,.54,2.05,1.51,1.51,0,0,0,2.05-.54c0-.09.08-.19.13-.28s.22-.33.14-.23.12-.12.14-.14.28-.22.11-.1A1.54,1.54,0,0,0,46,173a1.51,1.51,0,0,0-2.05-.54Z"/><path class="cls-5" d="M47.35,170.67h-.09a1.5,1.5,0,0,0-1.5,1.5,1.55,1.55,0,0,0,1.5,1.5h.09a1.5,1.5,0,0,0,1.5-1.5,1.55,1.55,0,0,0-1.5-1.5Z"/><path class="cls-5" d="M68.5,180.24l-.55-.07a1.5,1.5,0,0,0-1.5,1.5,1.55,1.55,0,0,0,1.5,1.5l.55.07a1.5,1.5,0,0,0,1.5-1.5,1.55,1.55,0,0,0-1.5-1.5Z"/><path class="cls-5" d="M69.4,177.57l-.27,0a1.5,1.5,0,0,0-1.5,1.5,1.55,1.55,0,0,0,1.5,1.5l.27,0a1.5,1.5,0,0,0,1.5-1.5,1.55,1.55,0,0,0-1.5-1.5Z"/><path class="cls-19" d="M57.59,183a10.15,10.15,0,0,0-11.28-8.79,10.13,10.13,0,0,0-19,2.44h-.14A10.15,10.15,0,0,0,22.52,195a10.13,10.13,0,0,0,17.89,7.79,10.15,10.15,0,0,0,15.22-12.38A10.13,10.13,0,0,0,57.59,183Z"/><path class="cls-20" d="M21.48,187.68a10.11,10.11,0,0,0,4.15,7,10.4,10.4,0,0,0,0,2.65,10.15,10.15,0,0,0,9.79,8.87,10.8,10.8,0,0,1-1.55.32,10.15,10.15,0,0,1-11.35-8.79,10.4,10.4,0,0,1,0-2.65,10.15,10.15,0,0,1,4.63-18.32h.14a10.15,10.15,0,0,1,8.65-8,10.7,10.7,0,0,1,1.57-.08,10.16,10.16,0,0,0-7.11,7.73S28.18,178,28.14,178C23.32,179.86,20.76,182.11,21.48,187.68Z"/><path class="cls-4" d="M32.54,208.05A11.61,11.61,0,0,1,20.95,195.7a11.65,11.65,0,0,1,5.12-20.34,11.63,11.63,0,0,1,21.1-2.68h.36a11.69,11.69,0,0,1,11.55,10.18h0a11.6,11.6,0,0,1-1.75,7.76,11.67,11.67,0,0,1-9.46,15.57,11.56,11.56,0,0,1-7.21-1.42A11.57,11.57,0,0,1,34,208,11.82,11.82,0,0,1,32.54,208.05Zm4.67-38a8.51,8.51,0,0,0-1.1.07A8.65,8.65,0,0,0,28.75,177l-.22,1.08-1.23.13a8.66,8.66,0,0,0-7.45,9.68,8.57,8.57,0,0,0,3.54,5.93l.73.53-.12.89a8.72,8.72,0,0,0,0,2.26,8.63,8.63,0,0,0,15.26,4.38l.9-1.1,1.15.84a8.58,8.58,0,0,0,6.19,1.6A8.67,8.67,0,0,0,54.27,191l-.36-.81.53-.71a8.65,8.65,0,0,0-7.94-13.79l-1.06.13-.47-1A8.65,8.65,0,0,0,37.21,170.07Z"/><path class="cls-4" d="M40.58,181.79a.5.5,0,0,1-.38-.83l6.07-7a.5.5,0,1,1,.75.66l-6.07,7A.5.5,0,0,1,40.58,181.79Z"/><path class="cls-4" d="M33.21,183.53a.5.5,0,0,1-.36-.16L27,177.16a.5.5,0,1,1,.73-.69l5.85,6.21a.5.5,0,0,1-.36.84Z"/><path class="cls-4" d="M22.75,195.63a.5.5,0,0,1-.22-1l8.93-4.31a.5.5,0,1,1,.43.9L23,195.58A.5.5,0,0,1,22.75,195.63Z"/><path class="cls-4" d="M40.19,203.52a.5.5,0,0,1-.5-.44l-1-8.1a.5.5,0,1,1,1-.13l1,8.1a.5.5,0,0,1-.43.56Z"/><path class="cls-4" d="M55.63,190.78h0l-10.19-.59a.5.5,0,0,1-.47-.53.49.49,0,0,1,.53-.47l10.19.59a.5.5,0,0,1,0,1Z"/><ellipse class="cls-17" cx="38.51" cy="187.91" rx="6.83" ry="6.84" transform="translate(-23.57 6.42) rotate(-7.3)"/><path class="cls-18" d="M40.92,194.43a5.84,5.84,0,0,1-.92.19A6.84,6.84,0,0,1,38.26,181a5.82,5.82,0,0,1,.94-.05,6.84,6.84,0,0,0,1.72,13.43Z"/><path class="cls-4" d="M38.49,195.25a7.34,7.34,0,0,1-7.26-6.41,7.33,7.33,0,1,1,8.21,6.35A7.55,7.55,0,0,1,38.49,195.25Zm0-13.68a6.42,6.42,0,0,0-.82.05,6.34,6.34,0,1,0,7.09,5.48h0a6.34,6.34,0,0,0-6.27-5.54Z"/><path class="cls-5" d="M50.86,181.41c-.15-.1.09.07.13.11a2.42,2.42,0,0,1,.27.29c-.09-.12,0,.06,0,.09s.15.28.22.43a1.51,1.51,0,0,0,2.05.54,1.54,1.54,0,0,0,.54-2.05,4.88,4.88,0,0,0-1.74-2,1.51,1.51,0,0,0-2.05.54,1.53,1.53,0,0,0,.54,2.05Z"/><path class="cls-5" d="M48.62,179.81h.1a1.54,1.54,0,0,0,1.5-1.5c0-.73-.67-1.61-1.5-1.5h-.1a1.54,1.54,0,0,0-1.5,1.5c0,.73.67,1.61,1.5,1.5Z"/><path class="cls-5" d="M24.52,190.71l.62-.08a1.54,1.54,0,0,0,1.5-1.5c0-.73-.67-1.61-1.5-1.5l-.62.08a1.54,1.54,0,0,0-1.5,1.5c0,.73.67,1.61,1.5,1.5Z"/><path class="cls-5" d="M23.5,187.67l.31,0a1.54,1.54,0,0,0,1.5-1.5c0-.73-.67-1.61-1.5-1.5l-.31,0a1.54,1.54,0,0,0-1.5,1.5c0,.73.67,1.61,1.5,1.5Z"/><path class="cls-21" d="M137.15,71.55c0,3-12.19,5.41-27.22,5.41s-27.22-2.42-27.22-5.41a1,1,0,0,1,.08-.4c1-2.8,12.77-5,27.14-5s26.12,2.22,27.14,5A1,1,0,0,1,137.15,71.55Z"/><path class="cls-4" d="M109.93,79c-4.88,0-29.22-.36-29.22-7.41A2.94,2.94,0,0,1,81,70.39c2.42-6.08,26.26-6.25,29-6.25s26.58.18,29,6.26a2.94,2.94,0,0,1,.23,1.16C139.15,78.6,114.81,79,109.93,79ZM85.1,71.56C87.28,72.9,95.72,75,109.93,75s22.66-2.06,24.84-3.41c-2.17-1.35-10.62-3.42-24.84-3.42S87.27,70.21,85.1,71.56Zm-.47.39Z"/><path class="cls-7" d="M106.74,41.49,87.9,76.65a3.06,3.06,0,0,0,2.69,4.5h37.69a3.06,3.06,0,0,0,2.69-4.5L112.13,41.49A3.06,3.06,0,0,0,106.74,41.49Z"/><path class="cls-8" d="M109.43,51.17a47.64,47.64,0,0,1,1,6.53c.18,2.16.28,4.32.32,6.47s0,4.29,0,6.44-.16,4.29-.26,6.54a20.37,20.37,0,0,1-2.09-6.35,40.39,40.39,0,0,1-.62-6.57,48,48,0,0,1,.33-6.56A32.46,32.46,0,0,1,109.43,51.17Z"/><path class="cls-8" d="M128.29,82.15h-3a3.05,3.05,0,0,0,2.68-4.5L109.13,42.48a2.89,2.89,0,0,0-1.19-1.21,3,3,0,0,1,4.18,1.21L131,77.65A3.05,3.05,0,0,1,128.29,82.15Z"/><path class="cls-4" d="M128.28,83.15H90.59a4.56,4.56,0,0,1-4-6.71l18.85-35.15a4.56,4.56,0,0,1,8,0L132.3,76.44a4.56,4.56,0,0,1-4,6.71ZM109.44,41.88a1.52,1.52,0,0,0-1.37.82L89.22,77.85a1.56,1.56,0,0,0,1.37,2.29h37.69a1.56,1.56,0,0,0,1.37-2.29L110.81,42.7A1.52,1.52,0,0,0,109.44,41.88Z"/><path class="cls-7" d="M106.36,76.32l14.89-29.65a2.26,2.26,0,0,1,4.17.3c2.08,6.19,5,16.88,3.47,24.54a2.28,2.28,0,0,1-1.49,1.73c-3.22,1.11-12.39,4.25-18.29,6.25A2.26,2.26,0,0,1,106.36,76.32Z"/><path class="cls-8" d="M128.39,73a2.3,2.3,0,0,1-1.49,1.73L115,78.82l-2.56.87L108.61,81a2.26,2.26,0,0,1-3-2.4,1.64,1.64,0,0,0,.48-.1c5.9-2,15.06-5.14,18.29-6.24a2.3,2.3,0,0,0,1.49-1.73c1.46-7.28-1.11-17.31-3.15-23.59a2.25,2.25,0,0,1,2.19,1.55,92.12,92.12,0,0,1,2.52,9c.32,1.41.6,2.86.82,4.32A33.18,33.18,0,0,1,128.39,73Z"/><path class="cls-4" d="M108.37,81.11A3.77,3.77,0,0,1,105,75.65L119.9,46a3.71,3.71,0,0,1,3.63-2.07,3.76,3.76,0,0,1,3.31,2.56c2.45,7.3,5.06,17.62,3.52,25.31a3.8,3.8,0,0,1-2.48,2.85c-3.23,1.11-12.39,4.25-18.3,6.25A3.77,3.77,0,0,1,108.37,81.11ZM107.7,77a.75.75,0,0,0,.11.86.73.73,0,0,0,.81.22c5.9-2,15.06-5.14,18.29-6.25a.79.79,0,0,0,.51-.61c1.48-7.41-1.5-18.07-3.42-23.77a.75.75,0,0,0-.68-.53.73.73,0,0,0-.73.42Z"/><path class="cls-8" d="M112.93,76.65A22.63,22.63,0,0,1,114,72.28c.48-1.38,1-2.71,1.63-4s1.26-2.56,2-3.81,1.44-2.47,2.31-3.8a10.83,10.83,0,0,1-.1,4.61,19.53,19.53,0,0,1-1.45,4.26,22.32,22.32,0,0,1-2.27,3.84A15.47,15.47,0,0,1,112.93,76.65Z"/><path class="cls-7" d="M113.43,76.9l18.11-19.64a1.82,1.82,0,0,1,3.16,1.16c.24,5.25.12,14.18-2.76,19.77a1.84,1.84,0,0,1-1.54,1c-2.74.14-10.53.53-15.55.76A1.82,1.82,0,0,1,113.43,76.9Z"/><path class="cls-8" d="M131.43,79.69a1.82,1.82,0,0,1-1.54,1l-15.55.77a1.82,1.82,0,0,1-1.91-1.78l2.56-.87,12.4-.62a1.82,1.82,0,0,0,1.54-1c2.74-5.3,3-13.59,2.79-18.91a1.84,1.84,0,0,1,2.47,1.65C134.43,65.18,134.32,74.1,131.43,79.69Z"/><path class="cls-4" d="M114.76,81.46a3.33,3.33,0,0,1-2.43-5.58l18.11-19.64a3.32,3.32,0,0,1,5.76,2.11c.28,6.23,0,14.86-2.93,20.53a3.36,3.36,0,0,1-2.8,1.82c-2.74.14-10.54.53-15.55.76Zm18.1-23.3a.3.3,0,0,0-.22.11L114.53,77.92a.31.31,0,0,0-.06.36.3.3,0,0,0,.3.18c5-.23,12.8-.63,15.54-.76a.34.34,0,0,0,.28-.2c2.76-5.35,2.81-14.21,2.6-19a.31.31,0,0,0-.22-.3Z"/><path class="cls-7" d="M112.83,78.33,98.07,49.71A2.2,2.2,0,0,0,94,50c-2,6-4.68,16.44-3.11,23.86a2.22,2.22,0,0,0,1.47,1.66c3.14,1,12.07,4,17.82,5.87A2.2,2.2,0,0,0,112.83,78.33Z"/><path class="cls-8" d="M114.07,79.54a2.2,2.2,0,0,1-2.87,1.9c-5.75-1.88-14.67-4.83-17.81-5.88a2.19,2.19,0,0,1-1.47-1.66C90.34,66.49,93.07,56.08,95,50a2.15,2.15,0,0,1,1.84-1.5c-1.94,6.1-4.48,16.15-3,23.36a2.19,2.19,0,0,0,1.47,1.66c3.14,1,12.07,4,17.81,5.88A2.08,2.08,0,0,0,114.07,79.54Z"/><path class="cls-4" d="M110.88,83a3.72,3.72,0,0,1-1.15-.18C104,81,95,78,91.91,77a3.74,3.74,0,0,1-2.46-2.78c-1.58-7.46.84-17.51,3.15-24.63A3.7,3.7,0,0,1,95.82,47a3.64,3.64,0,0,1,3.58,2l14.76,28.62a3.7,3.7,0,0,1-3.27,5.4ZM96.13,50h-.07a.68.68,0,0,0-.61.49c-1.8,5.54-4.59,15.91-3.07,23.08a.72.72,0,0,0,.47.55c3.14,1,12.06,4,17.81,5.87a.66.66,0,0,0,.74-.21.68.68,0,0,0,.09-.78L96.74,50.4A.66.66,0,0,0,96.13,50Z"/><path class="cls-8" d="M100.19,65.47a23.27,23.27,0,0,1,2.59,2.65c.76.9,1.46,1.79,2.13,2.71s1.31,1.84,1.94,2.81a29.72,29.72,0,0,1,1.84,3.19,8.36,8.36,0,0,1-3.54-1.55,12,12,0,0,1-2.67-2.68,13,13,0,0,1-1.76-3.32A9.11,9.11,0,0,1,100.19,65.47Z"/><path class="cls-7" d="M105.35,76.9,87.24,57.26a1.82,1.82,0,0,0-3.16,1.16c-.24,5.25-.12,14.18,2.76,19.77a1.84,1.84,0,0,0,1.54,1c2.74.14,10.53.53,15.55.76A1.82,1.82,0,0,0,105.35,76.9Z"/><path class="cls-8" d="M106.81,78a1.81,1.81,0,0,1-1.89,2L89.38,79.2a1.82,1.82,0,0,1-1.54-1c-2.88-5.59-3-14.51-2.76-19.76a1.83,1.83,0,0,1,2-1.75c-.23,5.28-.07,14,2.77,19.51a1.82,1.82,0,0,0,1.54,1Z"/><path class="cls-4" d="M104,81.46h-.16c-5-.23-12.81-.63-15.55-.76a3.36,3.36,0,0,1-2.79-1.82c-2.93-5.67-3.21-14.29-2.93-20.53a3.32,3.32,0,0,1,5.76-2.11l18.11,19.64h0A3.33,3.33,0,0,1,104,81.46Zm-18.1-23.3-.12,0a.31.31,0,0,0-.22.3c-.22,4.8-.17,13.67,2.6,19a.35.35,0,0,0,.28.2c2.74.14,10.53.53,15.54.76a.3.3,0,0,0,.3-.18.31.31,0,0,0-.06-.36h0L86.14,58.28A.3.3,0,0,0,85.91,58.17Z"/><path class="cls-23" d="M136.38,85.14l-3.85,16.68a12,12,0,0,1-11.67,9.29H99a12,12,0,0,1-11.67-9.29L83.49,85.14s-5-10-1-14h.31a1,1,0,0,0-.08.4c0,3,12.19,5.41,27.22,5.41s27.22-2.42,27.22-5.41a1,1,0,0,0-.08-.4h.31C141.37,75.15,136.38,85.14,136.38,85.14Z"/><path class="cls-24" d="M137.13,83.44c-30.17,6.18-46.95,3.1-54,.85-1.1-2.5-3.89-9.85-.61-13.14h.31a1,1,0,0,0-.08.4c0,3,12.19,5.41,27.22,5.41s27.22-2.42,27.22-5.41a1,1,0,0,0-.08-.4h.31C140.34,74.12,138.35,80.42,137.13,83.44Z"/><path class="cls-4" d="M120.87,113.12H99a13.92,13.92,0,0,1-13.62-10.84L81.59,85.82c-.91-1.88-5.16-11.43-.52-16.07l.59-.59h4.28l-1.05,2.26c1.79,1.33,10.32,3.55,25,3.55S133.2,72.74,135,71.41l-1-2.25h4.25l.59.59c4.64,4.65.39,14.19-.52,16.07l-3.79,16.46A13.92,13.92,0,0,1,120.87,113.12ZM83,74.84c-.31,2.94,1.22,7.25,2.3,9.41l.11.21,3.9,16.92A9.93,9.93,0,0,0,99,109.12h21.86a9.93,9.93,0,0,0,9.72-7.74l3.9-16.91.11-.21c1.07-2.16,2.59-6.47,2.29-9.4-6.15,3.88-23,4.11-26.95,4.11S89.13,78.72,83,74.84Z"/><path class="cls-4" d="M90.34,87c7.69,1.57,15.25,1.64,23.08,1.38,1.93-.06,1.93-3.06,0-3-7.53.25-14.86.24-22.28-1.28-1.88-.38-2.69,2.51-.8,2.89Z"/><path class="cls-4" d="M119.5,88a52.2,52.2,0,0,0,8-1.21c1.88-.44,1.08-3.33-.8-2.89A46.94,46.94,0,0,1,119.5,85c-1.91.14-1.93,3.14,0,3Z"/><path class="cls-5" d="M92.33,94.71l1.47,6.83c.41,1.89,3.3,1.09,2.89-.8l-1.47-6.83c-.41-1.89-3.3-1.09-2.89.8Z"/><path class="cls-5" d="M97.78,97a30.56,30.56,0,0,0,1,6.07,1.5,1.5,0,0,0,2.89-.8,26.49,26.49,0,0,1-.92-5.27c-.13-1.92-3.13-1.93-3,0Z"/><path class="cls-25" d="M128.1,49.34l1.77,3.24a1.05,1.05,0,0,0,.42.42l3.23,1.77a1.06,1.06,0,0,1,0,1.85l-3.23,1.77a1.05,1.05,0,0,0-.42.42L128.1,62a1.05,1.05,0,0,1-1.85,0l-1.77-3.24a1.05,1.05,0,0,0-.42-.42l-3.23-1.77a1.06,1.06,0,0,1,0-1.85L124.07,53a1.05,1.05,0,0,0,.42-.42l1.77-3.24A1.05,1.05,0,0,1,128.1,49.34Z"/><path class="cls-26" d="M128.12,50a1.05,1.05,0,0,0-1.54.35l-1.77,3.24a1.06,1.06,0,0,1-.42.42l-3.23,1.77a1,1,0,0,0-.55.91l-.12-.07a1.05,1.05,0,0,1,0-1.85L123.73,53a1.06,1.06,0,0,0,.42-.42l1.77-3.24a1.05,1.05,0,0,1,1.85,0Z"/><path class="cls-26" d="M133.19,56.61,130,58.38a1.06,1.06,0,0,0-.42.42L127.77,62a1.05,1.05,0,0,1-1.85,0l-.1-.18a1,1,0,0,0,1.28-.48l1.77-3.24a1.06,1.06,0,0,1,.42-.42l3.23-1.77a1,1,0,0,0,.48-1.28l.18.1A1.05,1.05,0,0,1,133.19,56.61Z"/><path class="cls-4" d="M127.18,64.08a2.55,2.55,0,0,1-2.24-1.33l-1.7-3.12-3.12-1.71a2.56,2.56,0,0,1,0-4.48l3.12-1.71,1.7-3.12a2.55,2.55,0,0,1,4.48,0l1.7,3.12,3.12,1.71a2.55,2.55,0,0,1,0,4.48l-3.11,1.71-1.7,3.12A2.55,2.55,0,0,1,127.18,64.08Zm-4.91-8.4,2.52,1.38a2.56,2.56,0,0,1,1,1l1.38,2.52,1.37-2.52a2.55,2.55,0,0,1,1-1l2.52-1.38-2.52-1.38a2.54,2.54,0,0,1-1-1l-1.37-2.52-1.37,2.52a2.55,2.55,0,0,1-1,1Zm10.53-.39Zm-6-5.24h0Z"/><path class="cls-25" d="M96.16,57.33l1.77,3.24a1.05,1.05,0,0,0,.42.42l3.23,1.77a1.06,1.06,0,0,1,0,1.85l-3.23,1.77a1.05,1.05,0,0,0-.42.42L96.16,70a1.05,1.05,0,0,1-1.85,0l-1.77-3.24a1.05,1.05,0,0,0-.42-.42L88.9,64.6a1.06,1.06,0,0,1,0-1.85L92.13,61a1.05,1.05,0,0,0,.42-.42l1.77-3.24A1.05,1.05,0,0,1,96.16,57.33Z"/><path class="cls-26" d="M96.19,58a1.05,1.05,0,0,0-1.54.35l-1.77,3.24a1.06,1.06,0,0,1-.42.42l-3.23,1.77a1,1,0,0,0-.55.91l-.12-.07a1.05,1.05,0,0,1,0-1.85L91.79,61a1.06,1.06,0,0,0,.42-.42L94,57.33a1.05,1.05,0,0,1,1.85,0Z"/><path class="cls-26" d="M101.25,64.6,98,66.37a1.06,1.06,0,0,0-.42.42L95.83,70A1.05,1.05,0,0,1,94,70l-.1-.18a1,1,0,0,0,1.28-.48l1.77-3.24a1.06,1.06,0,0,1,.42-.42l3.23-1.77a1,1,0,0,0,.48-1.28l.18.1A1.05,1.05,0,0,1,101.25,64.6Z"/><path class="cls-4" d="M95.24,72.08A2.55,2.55,0,0,1,93,70.75l-1.7-3.12-3.12-1.71a2.56,2.56,0,0,1,0-4.48l3.12-1.71L93,56.61a2.55,2.55,0,0,1,4.48,0l1.7,3.12,3.12,1.71a2.56,2.56,0,0,1,0,4.48l-3.12,1.71-1.7,3.12A2.55,2.55,0,0,1,95.24,72.08Zm-4.91-8.4,2.52,1.38a2.55,2.55,0,0,1,1,1l1.37,2.52,1.38-2.52a2.55,2.55,0,0,1,1-1l2.52-1.38L97.63,62.3a2.55,2.55,0,0,1-1-1l-1.38-2.52-1.37,2.52a2.55,2.55,0,0,1-1,1ZM94.85,58h0Z"/><path class="cls-25" d="M110.14,34.35l1.77,3.24a1.05,1.05,0,0,0,.42.42l3.23,1.77a1.06,1.06,0,0,1,0,1.85l-3.23,1.77a1.05,1.05,0,0,0-.42.42L110.14,47a1.05,1.05,0,0,1-1.85,0l-1.77-3.24a1.05,1.05,0,0,0-.42-.42l-3.23-1.77a1.06,1.06,0,0,1,0-1.85L106.1,38a1.05,1.05,0,0,0,.42-.42l1.77-3.24A1.05,1.05,0,0,1,110.14,34.35Z"/><path class="cls-26" d="M110.16,35a1.05,1.05,0,0,0-1.54.35l-1.77,3.24a1.06,1.06,0,0,1-.42.42l-3.23,1.77a1,1,0,0,0-.55.91l-.12-.07a1.05,1.05,0,0,1,0-1.85L105.77,38a1.06,1.06,0,0,0,.42-.42L108,34.35a1.05,1.05,0,0,1,1.85,0Z"/><path class="cls-26" d="M115.22,41.62,112,43.39a1.06,1.06,0,0,0-.42.42L109.8,47A1.05,1.05,0,0,1,108,47l-.1-.18a1,1,0,0,0,1.28-.48l1.77-3.24a1.06,1.06,0,0,1,.42-.42L114.56,41a1,1,0,0,0,.48-1.28l.18.1A1.05,1.05,0,0,1,115.22,41.62Z"/><path class="cls-4" d="M109.21,49.1A2.55,2.55,0,0,1,107,47.77l-1.7-3.12-3.12-1.71a2.56,2.56,0,0,1,0-4.48l3.12-1.71,1.7-3.12a2.55,2.55,0,0,1,4.48,0l1.7,3.12,3.12,1.71a2.56,2.56,0,0,1,0,4.48l-3.12,1.71-1.71,3.12A2.55,2.55,0,0,1,109.21,49.1Zm-4.91-8.4,2.52,1.38a2.55,2.55,0,0,1,1,1l1.38,2.52,1.38-2.52a2.55,2.55,0,0,1,1-1l2.52-1.38-2.52-1.38a2.55,2.55,0,0,1-1-1l-1.38-2.52-1.38,2.52a2.55,2.55,0,0,1-1,1Z"/></g></g></svg>